<svg width="65" height="65" viewBox="0 0 65 65" fill="none" xmlns="http://www.w3.org/2000/svg">
<g filter="url(#filter0_di_1953_4631)">
<rect x="0.734375" width="55.3235" height="57" rx="10" fill="#F5D769"/>
</g>
<path d="M12.4688 18.4418C12.4688 17.5526 12.822 16.6997 13.4508 16.0709C14.0796 15.4421 14.9324 15.0889 15.8217 15.0889H42.6452C43.5345 15.0889 44.3873 15.4421 45.0161 16.0709C45.6449 16.6997 45.9982 17.5526 45.9982 18.4418V36.883C45.9982 37.7722 45.6449 38.6251 45.0161 39.2539C44.3873 39.8827 43.5345 40.2359 42.6452 40.2359H34.9569L30.4187 44.7741C30.1043 45.0884 29.678 45.265 29.2335 45.265C28.7889 45.265 28.3626 45.0884 28.0482 44.7741L23.51 40.2359H15.8217C14.9324 40.2359 14.0796 39.8827 13.4508 39.2539C12.822 38.6251 12.4688 37.7722 12.4688 36.883V18.4418ZM42.6452 18.4418H15.8217V36.883H24.204C24.6486 36.8831 25.075 37.0598 25.3893 37.3742L29.2335 41.2183L33.0776 37.3742C33.3919 37.0598 33.8183 36.8831 34.2629 36.883H42.6452V18.4418Z" fill="white"/>
<path d="M31.7509 27.6622C31.7509 28.3291 31.486 28.9687 31.0144 29.4403C30.5428 29.9119 29.9032 30.1769 29.2362 30.1769C28.5693 30.1769 27.9296 29.9119 27.458 29.4403C26.9864 28.9687 26.7215 28.3291 26.7215 27.6622C26.7215 26.9952 26.9864 26.3556 27.458 25.884C27.9296 25.4124 28.5693 25.1475 29.2362 25.1475C29.9032 25.1475 30.5428 25.4124 31.0144 25.884C31.486 26.3556 31.7509 26.9952 31.7509 27.6622ZM38.4568 27.6622C38.4568 28.3291 38.1919 28.9687 37.7203 29.4403C37.2487 29.9119 36.609 30.1769 35.9421 30.1769C35.2752 30.1769 34.6355 29.9119 34.1639 29.4403C33.6923 28.9687 33.4274 28.3291 33.4274 27.6622C33.4274 26.9952 33.6923 26.3556 34.1639 25.884C34.6355 25.4124 35.2752 25.1475 35.9421 25.1475C36.609 25.1475 37.2487 25.4124 37.7203 25.884C38.1919 26.3556 38.4568 26.9952 38.4568 27.6622ZM25.045 27.6622C25.045 28.3291 24.7801 28.9687 24.3085 29.4403C23.8369 29.9119 23.1973 30.1769 22.5303 30.1769C21.8634 30.1769 21.2238 29.9119 20.7522 29.4403C20.2806 28.9687 20.0156 28.3291 20.0156 27.6622C20.0156 26.9952 20.2806 26.3556 20.7522 25.884C21.2238 25.4124 21.8634 25.1475 22.5303 25.1475C23.1973 25.1475 23.8369 25.4124 24.3085 25.884C24.7801 26.3556 25.045 26.9952 25.045 27.6622Z" fill="white"/>
<defs>
<filter id="filter0_di_1953_4631" x="0.734375" y="0" width="63.3203" height="65" filterUnits="userSpaceOnUse" color-interpolation-filters="sRGB">
<feFlood flood-opacity="0" result="BackgroundImageFix"/>
<feColorMatrix in="SourceAlpha" type="matrix" values="0 0 0 0 0 0 0 0 0 0 0 0 0 0 0 0 0 0 127 0" result="hardAlpha"/>
<feMorphology radius="1" operator="erode" in="SourceAlpha" result="effect1_dropShadow_1953_4631"/>
<feOffset dx="4" dy="4"/>
<feGaussianBlur stdDeviation="2.5"/>
<feComposite in2="hardAlpha" operator="out"/>
<feColorMatrix type="matrix" values="0 0 0 0 1 0 0 0 0 1 0 0 0 0 1 0 0 0 0.05 0"/>
<feBlend mode="normal" in2="BackgroundImageFix" result="effect1_dropShadow_1953_4631"/>
<feBlend mode="normal" in="SourceGraphic" in2="effect1_dropShadow_1953_4631" result="shape"/>
<feColorMatrix in="SourceAlpha" type="matrix" values="0 0 0 0 0 0 0 0 0 0 0 0 0 0 0 0 0 0 127 0" result="hardAlpha"/>
<feOffset dx="2" dy="2"/>
<feGaussianBlur stdDeviation="2.5"/>
<feComposite in2="hardAlpha" operator="arithmetic" k2="-1" k3="1"/>
<feColorMatrix type="matrix" values="0 0 0 0 0 0 0 0 0 0 0 0 0 0 0 0 0 0 0.15 0"/>
<feBlend mode="normal" in2="shape" result="effect2_innerShadow_1953_4631"/>
</filter>
</defs>
</svg>
