<svg width="36" height="26" viewBox="0 0 36 26" fill="none" xmlns="http://www.w3.org/2000/svg">
<path d="M24.1339 26V23.9722C26.3524 22.8293 28.3189 21.1707 29.8976 19.1108C31.0105 17.5233 31.613 15.5747 31.6103 13.5704C31.6775 12.7344 31.523 11.8948 31.1656 11.1532C31.0631 10.9587 30.9186 10.795 30.7449 10.6766C30.5711 10.5582 30.3734 10.4886 30.1693 10.4743C29.6308 10.514 29.1006 10.6422 28.5965 10.8545C28.0017 11.0903 27.3761 11.2187 26.7439 11.2348C26.1283 11.235 25.5191 11.0978 24.953 10.8318C24.3869 10.5657 23.8757 10.1761 23.4504 9.68667C22.9962 9.20388 22.637 8.62382 22.3948 7.98229C22.1526 7.34075 22.0327 6.65139 22.0424 5.95688C22.0424 5.16365 22.1969 4.37969 22.4953 3.65752C22.7851 2.93379 23.2184 2.29037 23.7634 1.77444C24.3303 1.22699 24.9795 0.792086 25.6819 0.489004C26.4224 0.161128 27.2137 -0.00495573 28.012 0.000112597C29.0369 0.00692837 30.0463 0.276609 30.9598 0.78771C31.9296 1.32565 32.8006 2.05613 33.5288 2.9423C35.1524 4.9282 36.0346 7.51462 35.999 10.1846C35.9903 11.8844 35.7117 13.5694 35.1756 15.1637C34.6493 16.8051 33.8724 18.3358 32.8783 19.6902C31.8139 21.1339 30.5563 22.3915 29.1483 23.4199C27.5968 24.5375 25.9083 25.4062 24.1339 26ZM2.19075 25.8461V23.9722C3.54027 23.1467 4.83359 22.2149 6.06061 21.1839C6.92638 20.4597 7.69916 19.61 8.35789 18.6581C8.87579 17.9009 9.26101 17.0444 9.49406 16.1323C9.70692 15.1971 9.80941 14.2357 9.79881 13.2717C9.85807 12.499 9.67808 11.727 9.28822 11.0808C9.16805 10.8881 9.01038 10.7273 8.82667 10.6099C8.64296 10.4924 8.43778 10.4214 8.22602 10.4019C7.69216 10.4423 7.16867 10.5831 6.67815 10.8183C6.0338 11.0887 5.35058 11.2298 4.6609 11.2348C3.45056 11.2277 2.29114 10.6977 1.4331 9.75916C0.974279 9.30189 0.609274 8.74245 0.362255 8.1181C0.115235 7.49375 -0.00813345 6.8188 0.000415825 6.138C-0.00134797 5.34159 0.162038 4.55517 0.478043 3.83853C0.801714 3.10634 1.24242 2.44399 1.77905 1.88307C2.3337 1.29973 2.98482 0.83876 3.6974 0.525141C4.46239 0.192215 5.27914 0.0262508 6.10182 0.0363595C7.11279 0.0394575 8.10978 0.29642 9.01664 0.78771C9.95715 1.30716 10.7963 2.02366 11.4868 2.89699C12.2401 3.83526 12.8441 4.90644 13.2735 6.06551C13.739 7.33356 13.9713 8.69051 13.9569 10.0579C13.9483 11.8077 13.6699 13.5434 13.1336 15.1909C12.6138 16.8336 11.8393 18.365 10.8445 19.7173C9.79154 21.1324 8.5409 22.3547 7.1393 23.3385C5.61098 24.4375 3.94349 25.2824 2.19075 25.8461Z" fill="#F2727F"/>
</svg>
