<svg width="36" height="26" viewBox="0 0 36 26" fill="none" xmlns="http://www.w3.org/2000/svg">
<path d="M11.8661 26V23.9722C9.64759 22.8293 7.68109 21.1707 6.10245 19.1108C4.98948 17.5233 4.38705 15.5747 4.38974 13.5704C4.32254 12.7344 4.477 11.8948 4.8344 11.1532C4.93689 10.9587 5.08136 10.795 5.25514 10.6766C5.42892 10.5582 5.62663 10.4886 5.83067 10.4743C6.3692 10.514 6.89943 10.6422 7.40346 10.8545C7.99831 11.0903 8.62393 11.2187 9.25607 11.2348C9.87173 11.235 10.4809 11.0978 11.047 10.8318C11.6131 10.5657 12.1243 10.1761 12.5496 9.68667C13.0038 9.20388 13.363 8.62382 13.6052 7.98229C13.8474 7.34075 13.9673 6.65139 13.9576 5.95688C13.9576 5.16365 13.8031 4.37969 13.5047 3.65752C13.2149 2.93379 12.7816 2.29037 12.2366 1.77444C11.6697 1.22699 11.0205 0.792086 10.3181 0.489004C9.57761 0.161128 8.78627 -0.00495573 7.98803 0.000112597C6.96311 0.00692837 5.95371 0.276609 5.04025 0.78771C4.07045 1.32565 3.19938 2.05613 2.47119 2.9423C0.84758 4.9282 -0.0345764 7.51462 0.0010376 10.1846C0.00966644 11.8844 0.288319 13.5694 0.824425 15.1637C1.35073 16.8051 2.12763 18.3358 3.1217 19.6902C4.18605 21.1339 5.44374 22.3915 6.85166 23.4199C8.40316 24.5375 10.0917 25.4062 11.8661 26ZM33.8093 25.8461V23.9722C32.4597 23.1467 31.1664 22.2149 29.9394 21.1839C29.0736 20.4597 28.3008 19.61 27.6421 18.6581C27.1242 17.9009 26.739 17.0444 26.5059 16.1323C26.2931 15.1971 26.1906 14.2357 26.2012 13.2717C26.1419 12.499 26.3219 11.727 26.7118 11.0808C26.832 10.8881 26.9896 10.7273 27.1733 10.6099C27.357 10.4924 27.5622 10.4214 27.774 10.4019C28.3078 10.4423 28.8313 10.5831 29.3218 10.8183C29.9662 11.0887 30.6494 11.2298 31.3391 11.2348C32.5494 11.2277 33.7089 10.6977 34.5669 9.75916C35.0257 9.30189 35.3907 8.74245 35.6377 8.1181C35.8848 7.49375 36.0081 6.8188 35.9996 6.138C36.0013 5.34159 35.838 4.55517 35.522 3.83853C35.1983 3.10634 34.7576 2.44399 34.2209 1.88307C33.6663 1.29973 33.0152 0.83876 32.3026 0.525141C31.5376 0.192215 30.7209 0.0262508 29.8982 0.0363595C28.8872 0.0394575 27.8902 0.29642 26.9834 0.78771C26.0429 1.30716 25.2037 2.02366 24.5132 2.89699C23.7599 3.83526 23.1559 4.90644 22.7265 6.06551C22.261 7.33356 22.0287 8.69051 22.0431 10.0579C22.0517 11.8077 22.3301 13.5434 22.8664 15.1909C23.3862 16.8336 24.1607 18.365 25.1555 19.7173C26.2085 21.1324 27.4591 22.3547 28.8607 23.3385C30.389 24.4375 32.0565 25.2824 33.8093 25.8461Z" fill="#F2727F"/>
</svg>
