<svg width="1592" height="899" viewBox="0 0 1592 899" fill="none" xmlns="http://www.w3.org/2000/svg">
<rect width="1592" height="897" rx="30" fill="#F8F8F8"/>
<path d="M1405.4 412.613C1412.69 423.308 1423.78 430.229 1413.39 440.044C1401.81 450.993 1369.84 484.165 1369.84 484.165L1398.55 547.151C1398.55 547.151 1443.55 501.734 1467.11 476.456C1490.68 451.178 1503.41 425.136 1487.95 398.145C1472.48 371.154 1405.4 412.613 1405.4 412.613Z" fill="#C06A87"/>
<path d="M1404.4 413.191C1407.5 417.589 1411.2 421.524 1414.24 425.945C1418.38 432.01 1415.3 436.571 1410.67 441.015C1405.07 446.409 1399.63 451.964 1394.17 457.497C1385.74 466.062 1377.35 474.68 1369 483.353C1368.83 483.537 1368.72 483.771 1368.7 484.021C1368.67 484.271 1368.72 484.524 1368.84 484.742C1378.39 505.746 1387.96 526.749 1397.55 547.752C1397.64 547.903 1397.76 548.031 1397.91 548.127C1398.05 548.223 1398.22 548.284 1398.39 548.307C1398.57 548.329 1398.74 548.312 1398.91 548.256C1399.08 548.2 1399.23 548.107 1399.35 547.984C1410.91 536.317 1422.4 524.612 1433.82 512.868C1442.8 503.608 1451.72 494.349 1460.58 485.09C1470.65 474.488 1480.51 463.77 1487.73 450.946C1494.48 439.611 1497.05 426.267 1494.98 413.237C1493.38 404.348 1489.17 393.931 1480.49 389.973C1465.79 383.237 1445.76 391.686 1432.32 397.473C1422.82 401.501 1413.62 406.221 1404.81 411.593C1403.54 412.381 1404.81 414.394 1405.97 413.607C1416.99 406.866 1428.62 401.162 1440.69 396.57C1449.5 392.895 1458.86 390.727 1468.38 390.158C1479.7 389.857 1485.97 395.158 1490.26 405.32C1503.64 437.01 1476.02 465.506 1456.02 486.594C1439.54 503.909 1422.8 520.97 1406.04 537.984L1397.78 546.34L1399.61 546.572L1370.93 483.793C1370.58 483.052 1370.18 485.46 1370.93 484.742L1372.27 483.353L1378.63 476.756C1385.33 469.889 1392.04 463.029 1398.75 456.177C1402.04 452.867 1405.32 449.557 1408.63 446.293C1411.3 443.677 1415.02 440.992 1416.92 437.751C1422.75 427.89 1411.67 419.394 1406.44 412.01C1405.56 410.714 1403.56 411.964 1404.4 413.191Z" fill="#C06A87"/>
<path d="M1214.93 600.09C1213.54 618.91 1196.76 796.852 1187.27 896.876H1291.78L1320.35 652.151L1343.82 896.829H1463.17C1454.61 812.407 1440.81 677.568 1437.34 652.753C1432.18 616.109 1425.12 551.386 1394.26 498.677C1373.05 495.483 1202.71 535.113 1202.71 535.113C1206.57 546.733 1216.85 573.724 1214.93 600.09Z" fill="#000001"/>
<path d="M1196.26 789.42C1192.88 825.223 1189.5 861.041 1186.1 896.875H1188.42C1193.05 847.183 1197.74 797.499 1202.49 747.822C1207.12 698.609 1212.44 649.372 1216.08 600.089C1217.44 577.867 1211.17 556.802 1204.2 536.015C1227.72 530.552 1251.28 525.297 1274.88 520.251C1310.11 512.681 1345.71 504.278 1381.57 500.343C1384.58 500.019 1392.59 498.167 1394.23 501.014C1402.51 515.635 1409.31 531.042 1414.53 547.01C1423.79 574.51 1429.14 603.214 1433.26 631.895C1437.52 661.456 1440.69 691.109 1443.84 720.808C1450.09 779.451 1456.14 838.14 1462.01 896.875H1464.32C1458.67 840.933 1452.91 784.991 1447.03 729.049C1444.02 700.6 1441.1 672.104 1437.24 643.747C1433.51 616.455 1429.16 589.279 1421.78 562.728C1417.64 547.808 1412.39 533.222 1406.06 519.093C1402.81 511.969 1399.2 505.015 1395.25 498.26C1394.65 497.195 1392.08 497.519 1391.06 497.496C1378.65 497.496 1365.96 500.181 1353.81 502.288C1334.74 505.598 1315.76 509.417 1296.8 513.352C1266.4 519.664 1236.06 526.339 1205.8 533.376L1202.4 534.163C1202.1 534.244 1201.85 534.438 1201.7 534.702C1201.55 534.967 1201.51 535.28 1201.59 535.575C1208.53 556.57 1215.13 577.751 1213.76 600.205C1209.11 663.261 1202.17 726.341 1196.26 789.42Z" fill="#000001"/>
<path d="M1321.51 652.154C1321.51 651.847 1321.39 651.552 1321.17 651.335C1320.96 651.118 1320.66 650.996 1320.36 650.996C1320.05 650.996 1319.75 651.118 1319.54 651.335C1319.32 651.552 1319.2 651.847 1319.2 652.154L1301.28 805.627C1297.75 836.044 1294.2 866.461 1290.63 896.878H1292.95C1296.61 865.705 1300.25 834.524 1303.87 803.336C1309.34 756.576 1314.79 709.808 1320.24 663.033C1324.87 710.765 1329.44 758.489 1333.97 806.206C1336.87 836.438 1339.77 866.662 1342.67 896.878H1344.99L1335.96 802.757L1321.51 652.154Z" fill="#000001"/>
<path d="M910.509 273.329C907.939 265.62 897.245 235.203 897.245 235.203C897.245 235.203 865.948 215.481 852.244 207.772C838.541 200.064 832.522 173.49 854.814 167.054C860.809 155.92 869.976 154.948 875.115 157.957C878.541 132.656 891.319 129.623 905.486 134.323C919.652 139.022 928.217 151.198 936.805 170.48C945.393 189.763 947.361 200.064 954.653 219.347C961.945 238.629 967.454 253.305 967.454 253.305C967.454 253.305 950.741 288.329 910.509 273.329Z" fill="#315D80"/>
<path d="M920.753 209.045C920.758 215.826 918.751 222.457 914.987 228.098C911.222 233.738 905.87 238.136 899.606 240.734C893.342 243.333 886.448 244.015 879.796 242.695C873.144 241.375 867.034 238.111 862.237 233.318C857.44 228.524 854.173 222.415 852.848 215.765C851.523 209.114 852.201 202.22 854.795 195.954C857.389 189.688 861.783 184.333 867.421 180.564C873.06 176.796 879.689 174.785 886.47 174.785C895.557 174.791 904.27 178.402 910.697 184.825C917.124 191.248 920.741 199.958 920.753 209.045Z" fill="#EA4B62"/>
<path d="M846.949 204.463C851.763 209.926 859.796 207.032 858.523 195.204C866.555 194.555 868.152 183.305 875.56 173.351C878.778 186.199 884.565 187.819 888.731 185.875C892.898 183.93 896.44 181.384 896.764 169.486C897.088 157.587 900.63 154.393 905.769 155.99C910.908 157.587 915.398 169.486 921.834 184.277C928.269 199.069 928.894 210.62 919.519 212.866C910.144 215.111 901.833 218.653 896.37 228.63C890.907 238.607 897.343 248.236 914.38 240.829C931.417 233.422 936.556 221.546 936.556 221.546C936.556 221.546 936.232 191.662 926.255 167.24C916.278 142.819 893.847 147.958 893.847 147.958L867.18 167.888L845.953 190.713" fill="#315D80"/>
<path d="M1237.45 184.208C1249.88 185.273 1262.91 171.361 1259.95 154.648C1256.98 137.934 1230.59 163.421 1230.59 163.421L1237.45 184.208Z" fill="black"/>
<path d="M1237.45 185.366C1246.91 185.782 1254.55 179.602 1258.77 171.477C1261.43 166.338 1264.51 152.564 1257.89 148.791C1249.04 143.745 1235.55 157.009 1229.76 162.68C1229.62 162.823 1229.51 163.001 1229.46 163.196C1229.41 163.391 1229.41 163.596 1229.46 163.791L1236.4 184.625C1236.87 186.037 1239.09 185.435 1238.72 184.023C1236.77 178.097 1234.83 172.194 1232.86 166.268L1231.96 163.514C1231.96 163.745 1231.15 164.74 1232.38 163.514C1234.34 161.685 1236.4 159.949 1238.51 158.282C1242.38 155.203 1254.32 145.574 1258.28 152.588C1261.61 158.514 1258.58 167.796 1255.41 173.074C1253.6 176.174 1251 178.736 1247.87 180.494C1244.74 182.252 1241.2 183.143 1237.61 183.074C1235.94 182.981 1235.96 185.296 1237.45 185.366Z" fill="#000001"/>
<path d="M1110.16 112.633C1107.59 128.836 1104.58 142.957 1119.14 169.091C1133.7 195.226 1138.86 228.12 1186.85 221.476C1189.35 228.616 1191.36 235.916 1192.87 243.328L1255.85 229.624L1235.71 168.351C1262.5 160.434 1262.06 143.582 1257.34 132.448C1252.61 121.313 1210.85 77.0767 1195.85 73.2109C1180.85 69.3451 1125.57 72.3544 1110.16 112.633Z" fill="#315D80"/>
<path d="M1183.02 161.012C1186.98 156.591 1179.76 147.123 1175.59 151.082C1171.43 155.04 1179.78 164.623 1183.02 161.012Z" fill="black"/>
<path d="M1139.01 166.798C1142.96 162.377 1135.74 152.909 1131.55 156.868C1127.36 160.826 1135.77 170.41 1139.01 166.798Z" fill="black"/>
<path d="M1158.69 187.287C1154.44 187.191 1150.29 186.012 1146.63 183.861C1141.05 180.134 1141.58 174.764 1142.86 169.972C1145.59 158.213 1140.06 147.912 1127.72 141.731C1127.58 141.665 1127.46 141.572 1127.36 141.457C1127.26 141.342 1127.18 141.209 1127.13 141.064C1127.09 140.919 1127.07 140.766 1127.08 140.614C1127.09 140.463 1127.14 140.315 1127.21 140.18C1127.35 139.908 1127.59 139.701 1127.88 139.606C1128.17 139.51 1128.49 139.534 1128.76 139.671C1141.93 146.245 1148.07 157.796 1145.1 170.528C1143.78 175.528 1143.78 179.139 1147.83 181.847C1151.16 183.76 1154.92 184.795 1158.76 184.857C1159.07 184.857 1159.36 184.979 1159.58 185.196C1159.8 185.413 1159.92 185.707 1159.92 186.014C1159.94 186.181 1159.92 186.351 1159.86 186.51C1159.81 186.669 1159.72 186.814 1159.6 186.935C1159.48 187.057 1159.34 187.151 1159.18 187.212C1159.03 187.272 1158.86 187.298 1158.69 187.287Z" fill="black"/>
<path d="M1161.16 196.081C1160.89 196.079 1160.64 195.988 1160.43 195.825C1160.23 195.661 1160.08 195.434 1160.02 195.179C1159.95 194.881 1160 194.568 1160.16 194.308C1160.32 194.047 1160.58 193.861 1160.88 193.79C1170.34 191.591 1178.75 186.204 1184.7 178.535C1184.79 178.418 1184.91 178.321 1185.05 178.25C1185.18 178.179 1185.33 178.136 1185.48 178.123C1185.63 178.11 1185.78 178.128 1185.93 178.175C1186.07 178.222 1186.2 178.297 1186.32 178.396C1186.44 178.492 1186.53 178.611 1186.6 178.745C1186.67 178.879 1186.72 179.026 1186.73 179.177C1186.74 179.328 1186.73 179.48 1186.68 179.624C1186.63 179.769 1186.56 179.902 1186.46 180.016C1180.2 188.083 1171.36 193.742 1161.41 196.035L1161.16 196.081Z" fill="white"/>
<path d="M1187.51 222.218C1187.27 222.222 1187.05 222.152 1186.85 222.02C1186.66 221.887 1186.52 221.697 1186.44 221.478C1186.39 221.336 1186.36 221.185 1186.36 221.033C1186.36 220.881 1186.39 220.731 1186.45 220.591C1186.51 220.451 1186.6 220.325 1186.71 220.219C1186.82 220.113 1186.95 220.029 1187.09 219.973C1194.65 216.926 1201.46 212.274 1207.04 206.339L1208.02 205.228C1210.77 202.332 1213.18 199.124 1215.19 195.667C1217.14 191.972 1218.84 188.152 1220.28 184.232C1221.81 180.691 1222.72 176.919 1222.99 173.074C1222.99 172.767 1223.12 172.473 1223.33 172.256C1223.55 172.039 1223.84 171.917 1224.15 171.917C1224.46 171.917 1224.75 172.039 1224.97 172.256C1225.19 172.473 1225.31 172.767 1225.31 173.074C1225.05 177.199 1224.08 181.248 1222.44 185.042C1220.97 189.058 1219.24 192.971 1217.25 196.755C1215.15 200.372 1212.64 203.728 1209.75 206.755L1208.73 207.89C1202.92 214.103 1195.8 218.963 1187.9 222.126C1187.78 222.186 1187.64 222.218 1187.51 222.218Z" fill="black"/>
<path d="M1164.8 139.206C1163.09 133.651 1169.73 129.947 1179.15 133.859C1188.57 137.771 1190.45 142.03 1187.51 141.359C1170.59 137.563 1165.87 141.567 1164.8 139.206Z" fill="black"/>
<path d="M1165.91 138.906C1164.04 130.804 1176.44 133.929 1180.08 135.503C1182.49 136.502 1184.71 137.886 1186.68 139.6L1187.14 140.109C1187.51 141.081 1187.72 141.128 1187.81 140.225C1186.19 139.994 1184.57 139.554 1182.95 139.276C1179.13 138.61 1175.25 138.347 1171.37 138.489C1170.59 138.489 1166.26 139.415 1165.82 138.628C1165.65 138.396 1165.4 138.235 1165.12 138.176C1164.84 138.117 1164.55 138.164 1164.3 138.308C1164.05 138.452 1163.87 138.683 1163.78 138.956C1163.69 139.228 1163.71 139.524 1163.83 139.785C1165.31 142.447 1170.77 140.804 1173.09 140.757C1177.99 140.934 1182.87 141.531 1187.67 142.54C1187.94 142.609 1188.21 142.618 1188.48 142.568C1188.75 142.518 1189 142.41 1189.22 142.251C1189.44 142.092 1189.63 141.886 1189.76 141.647C1189.89 141.409 1189.97 141.145 1189.99 140.873C1189.99 139.114 1188.06 137.563 1186.79 136.66C1183 133.881 1178.61 132.026 1173.97 131.243C1168.53 130.387 1162.25 133.188 1163.74 139.507C1163.86 139.739 1164.06 139.921 1164.3 140.024C1164.54 140.127 1164.81 140.146 1165.06 140.076C1165.32 140.006 1165.54 139.852 1165.69 139.639C1165.85 139.426 1165.92 139.168 1165.91 138.906Z" fill="#000001"/>
<path d="M1131.39 141.567C1125.39 138.141 1117.5 136.22 1114.91 139.646C1112.31 143.072 1114.47 147.146 1117.04 146.915C1119.61 146.683 1129.47 144.993 1133.24 145.433C1135.46 145.433 1133.33 143.072 1131.39 141.567Z" fill="black"/>
<path d="M1131.95 140.573C1127.81 138.258 1120.77 134.901 1116 137.355C1112.5 139.138 1110.75 145.851 1115.26 147.702C1117.15 148.154 1119.13 148.106 1121 147.564C1124.17 147.147 1127.34 146.73 1130.54 146.545C1132.16 146.545 1134.22 147.101 1135.17 145.503C1136.12 143.906 1133.11 141.522 1132.18 140.758C1131.25 139.994 1129.38 141.429 1130.54 142.378C1131.09 142.864 1133.45 144.23 1132.02 144.207C1130.65 144.196 1129.28 144.265 1127.92 144.415C1125.12 144.67 1122.37 145.064 1119.59 145.457C1118.73 145.457 1117.85 145.689 1117 145.758C1115.24 145.48 1114.54 144.23 1114.96 142.031C1115.37 139.832 1117.13 139.184 1118.94 139.022C1122.94 138.605 1127.37 140.712 1130.77 142.563C1132.11 143.281 1133.27 141.29 1131.95 140.573Z" fill="#000001"/>
<path d="M1202.19 87.3548C1199.18 102.795 1203.05 133.42 1218.03 149.485C1233 165.55 1230.9 136.846 1229.19 132.147C1237.75 122.286 1253.98 120.434 1260.2 136.29C1262.15 142.726 1258.79 154.624 1258.79 154.624C1270 150.388 1275.46 134.277 1271.38 125.272C1267.31 116.267 1265.83 98.7206 1266.89 84.9937C1267.96 71.2667 1254.16 40.3404 1216.22 50.0859C1205.5 31.4052 1194.46 27.8866 1175.04 30.7802C1157.4 33.4191 1137.68 21.5208 1122.89 26.4051C1113.12 29.669 1107.38 40.2941 1122.17 55.0165C1099.25 48.5813 1078.67 49.4377 1069.69 72.1463C1060.71 94.8549 1072.24 124.207 1108.03 124.855C1108.59 119.966 1109.63 115.143 1111.13 110.457C1113.93 127.17 1127.96 127.425 1141.04 117.401C1149.91 110.131 1157.77 101.699 1164.39 92.3317C1159.23 106.221 1163.74 107.98 1173.81 106.915C1183.88 105.85 1195.46 90.1326 1202.19 87.3548Z" fill="black"/>
<path d="M1200.94 87.0544C1198.21 102.193 1200.94 118.744 1206.5 132.934C1208.21 137.309 1220.39 162.032 1228.26 154.393C1231.13 151.638 1231.31 146.962 1231.43 143.235C1231.46 140.914 1231.33 138.593 1231.03 136.291C1230.73 133.745 1229.88 132.981 1231.68 131.221C1238.37 124.74 1248.81 123.86 1255.41 130.735C1261.5 137.078 1259.67 146.8 1257.56 154.439C1257.26 155.527 1258.37 156.129 1259.27 155.759C1268.74 151.685 1273.93 141.268 1273.74 131.245C1273.74 126.314 1270.94 121.684 1269.81 116.939C1268.08 108.824 1267.3 100.535 1267.49 92.2396C1267.49 83.7904 1267.93 77.1931 1264.46 69.2533C1261.01 61.5123 1255.07 55.1482 1247.58 51.1744C1243.69 49.0916 1239.43 47.7717 1235.04 47.2854C1232.11 46.9966 1229.17 46.9501 1226.24 47.1466C1224.46 47.1466 1217.17 49.4614 1216.29 47.9104C1210.89 38.6511 1203.35 31.3594 1192.65 29.3917C1187.35 28.5584 1181.96 28.5584 1176.66 29.3917C1168.32 30.217 1159.9 29.5586 1151.8 27.4473C1140.92 25.0167 1127.61 20.8963 1117.51 27.8408C1106.52 35.3872 1114.46 48.6744 1121.33 55.8272L1122.44 53.8827C1110.71 50.6883 1096.63 47.9336 1085.08 53.3503C1074.13 58.4661 1067.54 69.7394 1066.01 81.4987C1065.23 86.7958 1065.53 92.1968 1066.91 97.3712C1068.29 102.546 1070.71 107.384 1074.02 111.592C1082.12 121.846 1095.45 125.666 1108 126.059C1108.3 126.053 1108.6 125.93 1108.81 125.714C1109.03 125.498 1109.15 125.207 1109.16 124.902C1109.72 120.113 1110.75 115.391 1112.24 110.805H1109.92C1112.68 124.856 1124.02 128.143 1136.08 121.962C1148.14 115.782 1157.84 103.698 1165.29 92.9109L1163.16 92.0313C1161.75 96.0822 1159.64 101.453 1162.07 105.55C1164.02 108.837 1169.3 108.42 1172.42 108.189C1185.48 107.263 1191.75 93.5822 1202.51 88.397C1203.86 87.772 1202.68 85.7581 1201.36 86.4062C1193.3 90.2488 1187.7 98.3971 1180.2 103.166C1176.09 105.717 1171.18 106.634 1166.43 105.735C1160.59 104.624 1164.11 96.0128 1165.34 92.6331C1165.8 91.3368 1163.93 90.735 1163.21 91.7535C1157.44 100.051 1150.65 107.588 1143 114.184C1137.91 118.606 1131.89 122.471 1125.01 123.004C1117.19 123.606 1113.44 116.869 1112.1 110.18C1111.84 108.999 1110.2 109.184 1109.78 110.18C1108.27 114.977 1107.22 119.907 1106.63 124.902C1107.03 124.508 1107.42 124.138 1107.79 123.745C1095.87 123.374 1084.46 119.879 1076.24 110.874C1073.1 107.178 1070.74 102.887 1069.3 98.2572C1067.85 93.6277 1067.36 88.7548 1067.84 83.9293C1068.62 72.6329 1074.67 61.3134 1084.85 55.9429C1095.94 50.1095 1110.31 53.0494 1121.63 56.1744C1121.88 56.2296 1122.13 56.2053 1122.36 56.1052C1122.59 56.0051 1122.79 55.8343 1122.91 55.6176C1123.04 55.4009 1123.09 55.1496 1123.07 54.9001C1123.04 54.6506 1122.94 54.4158 1122.77 54.23C1114.99 46.1512 1108.88 32.702 1122.95 27.563C1134.53 23.3732 1148.62 29.6001 1159.99 31.5445C1170.69 33.3501 1181.1 29.9473 1191.75 31.5445C1202.4 33.1418 1209.62 41.7067 1214.9 50.6651C1215.03 50.8826 1215.23 51.0514 1215.47 51.1471C1215.71 51.2429 1215.97 51.2605 1216.22 51.1975C1228.9 48.0725 1242.17 48.6744 1252.61 57.2855C1259.58 63.2593 1264.08 71.6206 1265.22 80.7348C1265.89 86.2905 1264.92 92.0776 1265.04 97.6795C1265.15 104.843 1266.03 111.974 1267.65 118.953C1269.2 125.596 1271.98 130.319 1270.55 137.472C1269.87 140.994 1268.36 144.303 1266.14 147.122C1263.92 149.941 1261.06 152.188 1257.79 153.675L1259.51 154.995C1262.21 145.064 1263.21 134.647 1254.88 127.217C1246.54 119.786 1234.57 124.254 1228 131.384C1227.85 131.529 1227.75 131.71 1227.7 131.91C1227.64 132.109 1227.64 132.319 1227.7 132.518C1229.05 137.408 1229.34 142.531 1228.53 147.541C1226.91 159.347 1217.38 147.958 1214.07 143.12C1203.74 128.05 1199.69 105.643 1202.93 87.7257C1203.44 86.1979 1201.22 85.596 1200.94 87.0544Z" fill="#000001"/>
<path d="M1111.64 115.085C1111.36 115.083 1111.1 114.981 1110.89 114.798C1110.68 114.615 1110.55 114.364 1110.51 114.09L1110.3 112.609C1109.77 109.747 1109.62 106.828 1109.86 103.928C1110.84 98.3838 1113.3 93.2086 1116.99 88.9509C1118.62 86.755 1120.57 84.8127 1122.78 83.187C1122.9 83.0908 1123.04 83.0208 1123.19 82.9814C1123.35 82.942 1123.5 82.9339 1123.66 82.9577C1123.82 82.9814 1123.96 83.0366 1124.1 83.1197C1124.23 83.2028 1124.35 83.3122 1124.43 83.4411C1124.52 83.5701 1124.59 83.7159 1124.62 83.8698C1124.65 84.0237 1124.65 84.1824 1124.62 84.3362C1124.59 84.49 1124.52 84.6357 1124.43 84.7645C1124.34 84.8932 1124.23 85.0023 1124.09 85.0852C1122.07 86.596 1120.28 88.389 1118.77 90.4093C1115.34 94.3496 1113.05 99.1521 1112.15 104.298C1111.95 106.984 1112.1 109.683 1112.59 112.331L1112.8 113.835C1112.84 114.139 1112.76 114.446 1112.57 114.689C1112.38 114.932 1112.11 115.091 1111.8 115.132L1111.64 115.085Z" fill="black"/>
<path d="M1231.01 146.96H1230.82C1230.68 146.938 1230.53 146.886 1230.41 146.809C1230.28 146.731 1230.17 146.629 1230.08 146.509C1229.99 146.389 1229.93 146.252 1229.89 146.107C1229.86 145.962 1229.85 145.811 1229.87 145.664C1230.11 144.457 1230.25 143.234 1230.29 142.006C1230.27 140.937 1230.13 139.874 1229.87 138.835C1229.48 137.076 1229.04 135.085 1228.42 133.141C1227.53 130.311 1226.35 127.587 1224.87 125.015C1224.72 124.748 1224.68 124.43 1224.76 124.132C1224.83 123.833 1225.03 123.577 1225.29 123.418C1225.56 123.272 1225.87 123.234 1226.16 123.312C1226.45 123.389 1226.71 123.577 1226.86 123.835C1228.43 126.557 1229.69 129.445 1230.62 132.446C1231.23 134.377 1231.74 136.34 1232.14 138.326C1232.43 139.533 1232.58 140.767 1232.61 142.006C1232.56 143.335 1232.42 144.659 1232.17 145.965C1232.12 146.241 1231.98 146.492 1231.77 146.675C1231.56 146.857 1231.29 146.958 1231.01 146.96Z" fill="black"/>
<path d="M908.312 271.615C921.808 275.48 951.368 268.397 966.183 247.841C976.461 270.99 1011.18 348.745 1013.75 352.611C1016.32 356.477 1047.8 333.328 1083.8 304.393C1119.8 275.457 1141.67 267.124 1163.5 269.67C1185.33 272.217 1195.65 269.022 1193.73 256.823C1191.81 244.624 1189.1 234.323 1189.1 234.323C1189.1 234.323 1214.17 244.601 1253.39 221.452C1261.74 245.897 1261.09 250.388 1264.31 254.23C1267.53 258.073 1296.46 245.897 1324.08 249.739C1351.7 253.582 1408.73 314.555 1435.73 339.74C1468.71 370.597 1506.95 404 1488.43 441.292C1475.49 467.311 1428.87 449.001 1428.87 449.001C1428.87 449.001 1425.01 437.427 1404.43 416.871C1383.85 396.315 1349.15 360.944 1349.15 360.944C1349.15 360.944 1389.87 483.492 1397.58 502.149C1356.44 536.872 1235.84 554.442 1203.13 539.58C1192.44 507.474 1156.3 396.292 1140.24 365.967C1091.39 400.042 1057.32 432.82 1028.38 443.098C999.448 453.376 973.753 463.677 948.035 393.607C933.428 353.629 908.312 271.615 908.312 271.615Z" fill="#C06A87"/>
<path d="M908.006 272.728C929.141 278.26 954.789 265.066 967.174 248.422H965.183C980.252 282.357 994.905 316.594 1011.09 349.997C1012.54 353.006 1013.4 354.928 1017.08 353.724C1025.62 350.923 1033.56 344.164 1040.76 339.002C1067.38 319.927 1091.46 296.339 1120.35 280.668C1129.58 275.426 1139.75 272.037 1150.28 270.691C1160.72 269.58 1171.11 272.427 1181.48 271.385C1187.78 270.76 1194.03 268.075 1195 261.2C1195.67 256.431 1193.94 251.084 1193.06 246.478C1192.25 242.311 1191.34 238.144 1190.32 234.024L1188.91 235.459C1194.61 237.381 1200.64 238.167 1206.64 237.774C1223.5 237.426 1239.7 230.829 1254.07 222.519L1252.38 221.824C1255.65 231.454 1257.87 241.477 1261.32 251.038C1263.2 256.2 1266.11 256.524 1271.27 255.829C1285.67 253.862 1299.42 250.135 1314.08 250.204C1324.53 250.309 1334.72 253.48 1343.38 259.325C1364.45 272.311 1382.73 290.205 1400.51 307.242C1418.29 324.279 1436.9 341.965 1454.86 359.418C1475.7 379.673 1501.76 408.03 1488.22 439.141C1479.45 459.327 1452.53 455.021 1435.56 450.044C1433.57 449.443 1431.6 448.794 1429.66 448.077C1428.57 447.683 1430.16 449.118 1429.93 448.517C1429.7 447.833 1429.41 447.168 1429.08 446.526C1425.12 438.077 1418.75 430.623 1412.57 423.725C1395.49 404.604 1376.44 387.011 1358.45 368.724L1350.02 360.136C1349.84 359.968 1349.6 359.863 1349.35 359.837C1349.11 359.811 1348.85 359.865 1348.64 359.991C1348.42 360.118 1348.25 360.31 1348.15 360.54C1348.05 360.77 1348.03 361.026 1348.08 361.27C1357.23 388.817 1366.49 416.317 1375.86 443.771C1381.46 460.276 1387.06 476.804 1393.03 493.17C1393.87 495.485 1394.72 497.799 1395.6 500.114C1395.95 501.017 1396.37 501.758 1396.09 502.012C1394.01 503.725 1391.81 505.276 1389.56 506.781C1380.74 512.464 1371.35 517.197 1361.53 520.902C1339.06 529.506 1315.72 535.653 1291.92 539.235C1270.17 543.164 1248.04 544.516 1225.97 543.263C1221.89 542.949 1217.84 542.4 1213.82 541.619C1212.36 541.342 1204.68 540.254 1204.14 538.68C1201.71 531.365 1199.28 524.042 1196.88 516.712C1189.67 495.107 1182.35 473.501 1174.93 451.896C1169.03 434.905 1162.99 417.984 1156.55 401.178C1152.21 389.014 1147.13 377.125 1141.34 365.576C1141.19 365.313 1140.94 365.122 1140.64 365.044C1140.35 364.966 1140.03 365.007 1139.77 365.159C1113.08 383.817 1088.12 404.766 1061.5 423.493C1045.3 434.859 1027.89 444.026 1008.52 448.331C989.674 452.521 975.785 443.123 965.553 427.706C951.132 406.016 944.002 379.095 935.877 354.604C926.726 326.964 917.906 299.186 909.418 271.269C908.979 269.834 906.733 270.459 907.104 271.894C918.168 308.029 929.534 344.117 941.826 379.835C949.419 401.734 957.289 427.197 975.368 442.938C986.572 452.706 1000.35 453.007 1014.03 449.211C1032.85 443.956 1049.26 434.813 1065.14 423.563C1091.06 405.391 1115.16 385.252 1140.95 367.104L1139.37 366.687C1147.99 383.03 1154.12 400.831 1160.49 418.123C1168.87 440.924 1176.69 463.91 1184.51 486.943C1190.39 504.35 1196.09 521.827 1201.94 539.258C1203.33 543.448 1215 544.235 1218.66 544.744C1227.61 545.89 1236.65 546.308 1245.67 545.994C1274.18 545.169 1302.5 540.981 1330.02 533.517C1353.77 527.29 1379.35 518.911 1398.5 502.985C1398.65 502.844 1398.76 502.663 1398.81 502.462C1398.87 502.261 1398.86 502.048 1398.8 501.85C1388.43 476.572 1380.44 450.137 1371.69 424.257C1364.55 403.084 1357.45 381.888 1350.4 360.668L1348.45 361.78C1361.55 375.128 1374.67 388.447 1387.8 401.734C1397.62 411.641 1407.87 421.225 1416.72 432.035C1420.86 437.104 1425.58 443.03 1427.83 449.304C1428.66 451.618 1436.3 452.66 1438.2 453.169C1446.66 455.597 1455.46 456.668 1464.26 456.341C1472.83 455.878 1481.23 452.938 1486.79 446.179C1493.73 437.706 1495.37 424.998 1493.96 414.512C1492.25 401.687 1484.7 390.136 1477.06 380.136C1467.27 367.474 1455.4 356.479 1443.75 345.599C1426.3 329.279 1409.47 312.288 1392.02 295.969C1375.44 280.459 1357.96 263.978 1337.69 253.353C1315.88 241.94 1291.76 251.223 1269.03 253.769C1264.17 254.302 1263.54 250.806 1262.41 246.825C1259.95 238.214 1257.48 229.649 1254.58 221.176C1254.54 221.007 1254.45 220.85 1254.33 220.718C1254.22 220.586 1254.07 220.483 1253.91 220.416C1253.75 220.349 1253.57 220.32 1253.39 220.332C1253.22 220.343 1253.05 220.394 1252.89 220.482C1238.7 228.7 1223.17 234.811 1206.6 235.436C1200.8 235.868 1194.99 235.12 1189.49 233.237C1188.61 232.889 1187.87 233.885 1188.06 234.649C1189.07 238.769 1189.93 242.913 1190.76 247.079C1191.9 252.82 1195.05 261.154 1190.14 265.922C1186.32 269.649 1179.1 269.394 1174.24 269.348C1168.06 269.348 1161.97 268.121 1155.72 268.098C1131.8 268.098 1110.11 282.82 1091.8 296.594C1068.22 314.349 1046.06 335.552 1020.04 349.835C1019.14 350.344 1015.04 352.821 1014.4 351.617C1013.4 349.881 1012.59 348.029 1011.73 346.201C1008.24 338.863 1004.79 331.455 1001.53 324.048C989.921 298.538 978.447 272.967 967.104 247.334C966.711 246.454 965.553 246.709 965.113 247.334C953.354 263.121 928.585 275.83 908.562 270.482C908.269 270.422 907.964 270.477 907.711 270.637C907.458 270.796 907.276 271.047 907.204 271.338C907.132 271.628 907.176 271.935 907.325 272.194C907.475 272.454 907.719 272.645 908.006 272.728Z" fill="#C06A87"/>
<path d="M903.756 244.531C902.259 244.619 900.761 244.388 899.36 243.854C897.959 243.319 896.688 242.492 895.631 241.429C892.714 238.235 892.645 233.096 895.423 228.003C901.279 217.308 910.376 213.836 919.312 211.799C920.399 211.595 921.425 211.142 922.308 210.475C923.192 209.808 923.909 208.946 924.404 207.957C926.719 203.489 925.33 195.271 920.77 184.808C915.029 171.59 910.076 160.178 905.33 158.697C904.621 158.361 903.843 158.196 903.059 158.216C902.275 158.236 901.507 158.441 900.816 158.813C899.057 160.063 898.085 163.697 897.923 169.6C897.575 182.123 893.617 184.97 889.219 187.007C888.175 187.51 887.032 187.771 885.874 187.771C884.716 187.771 883.572 187.51 882.529 187.007C879.358 185.503 876.858 181.822 875.098 176.058C873.399 178.746 871.854 181.529 870.469 184.391C867.506 190.155 864.913 195.202 859.843 196.243C860.191 202.007 858.385 206.29 854.89 207.818C853.357 208.402 851.676 208.474 850.099 208.024C848.521 207.573 847.132 206.624 846.14 205.318C845.934 205.087 845.828 204.785 845.846 204.477C845.863 204.168 846.002 203.88 846.232 203.674C846.463 203.468 846.765 203.363 847.073 203.38C847.381 203.397 847.67 203.536 847.876 203.767C848.54 204.703 849.492 205.397 850.586 205.744C851.681 206.091 852.858 206.071 853.941 205.688C856.07 204.762 858.107 201.544 857.436 195.341C857.417 195.034 857.507 194.73 857.691 194.484C857.896 194.244 858.187 194.095 858.501 194.068C863.131 193.697 865.445 189.114 868.408 183.303C870.209 179.593 872.315 176.04 874.705 172.678C874.833 172.505 875.007 172.371 875.208 172.294C875.409 172.216 875.628 172.197 875.839 172.239C876.054 172.283 876.253 172.387 876.412 172.538C876.572 172.69 876.686 172.882 876.742 173.095C878.756 181.104 881.58 183.929 883.686 184.901C884.41 185.244 885.2 185.423 886.001 185.423C886.802 185.423 887.593 185.244 888.316 184.901C892.298 183.049 895.376 180.757 895.677 169.53C895.862 162.586 897.089 158.674 899.52 156.938C900.506 156.357 901.613 156.015 902.755 155.938C903.896 155.862 905.04 156.053 906.094 156.498C911.58 158.211 915.863 167.539 922.969 183.882C926.372 191.753 929.775 202.401 926.534 208.998C925.865 210.288 924.906 211.407 923.734 212.266C922.561 213.125 921.207 213.702 919.775 213.952C911.349 215.989 902.807 219.23 897.39 229.137C895.075 233.327 895.075 237.448 897.274 239.901C900.145 243.073 906.372 243.003 913.918 239.739C930.284 232.633 935.423 221.221 935.492 221.035C935.635 220.788 935.864 220.603 936.135 220.514C936.405 220.425 936.7 220.44 936.961 220.554C937.222 220.669 937.431 220.876 937.549 221.136C937.667 221.395 937.685 221.689 937.599 221.961C937.391 222.471 932.09 234.369 914.844 241.846C911.363 243.47 907.594 244.382 903.756 244.531Z" fill="white"/>
<path d="M929.213 306.548C925.433 306.589 921.682 305.889 918.171 304.488C918.03 304.432 917.901 304.348 917.793 304.242C917.684 304.135 917.598 304.008 917.54 303.868C917.482 303.727 917.452 303.577 917.453 303.425C917.454 303.273 917.486 303.123 917.546 302.983C917.602 302.842 917.686 302.713 917.792 302.603C917.898 302.494 918.024 302.407 918.164 302.347C918.304 302.287 918.454 302.255 918.606 302.253C918.758 302.251 918.909 302.279 919.051 302.335C924.954 304.765 931.967 304.835 940.486 302.613C949.309 300.803 957.543 296.825 964.445 291.038L965.926 289.626C967.651 288.195 969.129 286.49 970.301 284.58C970.452 284.31 970.703 284.111 971.001 284.026C971.298 283.941 971.617 283.978 971.887 284.129C972.157 284.279 972.356 284.531 972.441 284.828C972.526 285.125 972.489 285.444 972.338 285.714C971.029 287.824 969.397 289.714 967.5 291.316C966.991 291.802 966.482 292.242 966.042 292.705C958.865 298.793 950.278 302.987 941.065 304.904C937.202 305.963 933.218 306.515 929.213 306.548Z" fill="black"/>
<path d="M929.98 305.782C929.742 305.782 929.51 305.708 929.315 305.572C929.121 305.435 928.973 305.242 928.892 305.018C928.175 303.073 927.503 301.083 926.832 299.092C925.86 296.268 924.887 293.351 923.753 290.458C922.619 287.564 921.184 284.092 920.096 280.782C919.795 279.902 919.448 279.069 919.077 278.235C918.261 276.589 917.714 274.823 917.457 273.004C917.432 272.697 917.531 272.393 917.73 272.158C917.93 271.924 918.215 271.778 918.522 271.754C918.829 271.729 919.133 271.828 919.367 272.027C919.602 272.227 919.747 272.512 919.772 272.819C920.005 274.383 920.489 275.9 921.207 277.309C921.577 278.212 921.971 279.115 922.295 280.041C923.36 283.282 924.725 286.661 925.906 289.624C927.087 292.587 928.059 295.504 929.008 298.328C929.702 300.319 930.35 302.286 931.068 304.208C931.167 304.5 931.15 304.819 931.021 305.099C930.892 305.379 930.66 305.598 930.374 305.712L929.98 305.782Z" fill="black"/>
<path d="M941.779 304.232C941.58 304.233 941.383 304.183 941.208 304.085C941.034 303.988 940.888 303.847 940.784 303.676C939.996 302.271 939.352 300.79 938.863 299.255C938.608 298.584 938.377 297.936 938.122 297.288C937.682 295.945 937.196 294.649 936.71 293.375C936.224 292.102 935.738 290.806 935.321 289.51C934.395 286.917 933.214 284.093 931.733 280.852C931.062 279.278 930.506 277.704 929.974 276.222C929.441 274.741 928.909 273.144 928.284 271.593C928.161 271.31 928.155 270.991 928.268 270.704C928.381 270.418 928.603 270.188 928.886 270.065C929.168 269.942 929.488 269.937 929.774 270.05C930.061 270.162 930.291 270.384 930.413 270.667C931.085 272.218 931.64 273.815 932.173 275.297C932.705 276.778 933.214 278.329 933.839 279.787C935.344 283.051 936.548 285.968 937.497 288.653C937.937 289.926 938.4 291.176 938.886 292.45C939.372 293.723 939.858 295.065 940.298 296.385L941.039 298.352C941.473 299.734 942.047 301.068 942.752 302.334C942.856 302.51 942.913 302.71 942.917 302.915C942.92 303.12 942.871 303.322 942.773 303.502C942.675 303.682 942.532 303.833 942.357 303.941C942.183 304.048 941.984 304.109 941.779 304.116V304.232Z" fill="black"/>
<path d="M956.325 299.602C956.07 299.604 955.822 299.521 955.621 299.366C955.419 299.21 955.276 298.992 955.213 298.745C954.859 297.55 954.418 296.381 953.894 295.25C953.616 294.555 953.338 293.907 953.107 293.282C952.575 292.009 952.088 290.69 951.579 289.393C951.07 288.097 950.63 286.87 950.121 285.62L949.982 285.319C947.505 279.301 944.936 273.097 942.204 267.009C942.078 266.726 942.068 266.405 942.176 266.115C942.284 265.825 942.502 265.589 942.783 265.458C942.923 265.397 943.073 265.363 943.226 265.361C943.378 265.358 943.53 265.385 943.672 265.441C943.814 265.497 943.943 265.58 944.053 265.686C944.163 265.793 944.25 265.919 944.311 266.06C947.065 272.171 949.635 278.398 952.135 284.416V284.717C952.667 286.014 953.153 287.287 953.639 288.583C954.126 289.879 954.588 291.152 955.144 292.426C955.376 293.051 955.63 293.699 955.908 294.347C956.482 295.582 956.962 296.859 957.343 298.166C957.413 298.467 957.363 298.783 957.203 299.047C957.043 299.311 956.786 299.502 956.487 299.579L956.325 299.602Z" fill="black"/>
<path d="M963.412 285.202C963.198 285.205 962.987 285.148 962.803 285.037C962.619 284.927 962.469 284.768 962.371 284.577C962.015 283.825 961.706 283.052 961.445 282.262C961.222 281.576 960.96 280.903 960.658 280.248L957.371 272.285C956.392 270.302 955.534 268.261 954.801 266.174C954.639 265.827 954.408 265.341 954.153 264.855C953.415 263.6 952.89 262.231 952.602 260.804C952.565 260.497 952.652 260.188 952.843 259.945C953.034 259.701 953.314 259.544 953.621 259.507C953.928 259.47 954.237 259.557 954.48 259.748C954.723 259.939 954.88 260.219 954.917 260.526C955.172 261.676 955.609 262.778 956.213 263.79C956.491 264.345 956.769 264.878 956.977 265.364C957.686 267.397 958.521 269.384 959.477 271.313L960.172 272.841L962.764 279.299C963.091 280.007 963.377 280.734 963.621 281.475C963.855 282.168 964.125 282.848 964.431 283.512C964.502 283.647 964.545 283.795 964.558 283.946C964.571 284.098 964.553 284.251 964.506 284.396C964.458 284.541 964.382 284.674 964.282 284.789C964.181 284.904 964.059 284.997 963.922 285.063C963.763 285.142 963.59 285.189 963.412 285.202Z" fill="black"/>
<path d="M1206.59 268.282C1206.3 268.284 1206.02 268.178 1205.81 267.985C1205.6 267.793 1205.46 267.527 1205.43 267.241C1205.18 265.067 1204.69 262.926 1204 260.852C1203.77 259.856 1203.58 258.977 1203.4 258.074C1203.06 256.258 1202.61 254.465 1202.05 252.704C1201.01 249.972 1200.15 247.171 1199.32 244.463C1198.93 243.097 1198.67 241.916 1198.4 240.713C1198.12 239.509 1197.86 238.398 1197.54 237.217C1197.46 236.923 1197.5 236.609 1197.65 236.345C1197.81 236.08 1198.06 235.887 1198.35 235.805C1198.5 235.763 1198.65 235.751 1198.8 235.769C1198.96 235.787 1199.1 235.835 1199.24 235.91C1199.37 235.986 1199.49 236.087 1199.58 236.208C1199.67 236.329 1199.74 236.467 1199.78 236.615C1200.11 237.819 1200.39 238.93 1200.64 240.203C1200.9 241.477 1201.17 242.518 1201.5 243.676C1202.35 246.454 1203.21 249.231 1204.23 251.94C1204.83 253.797 1205.31 255.692 1205.66 257.611C1205.83 258.491 1206.01 259.347 1206.22 260.227C1206.96 262.43 1207.47 264.702 1207.75 267.009C1207.77 267.314 1207.67 267.615 1207.48 267.852C1207.28 268.088 1207.01 268.242 1206.71 268.282H1206.59Z" fill="black"/>
<path d="M1218.16 270.436C1217.85 270.436 1217.56 270.314 1217.34 270.097C1217.12 269.88 1217 269.585 1217 269.279C1216.96 268.608 1216.82 267.947 1216.61 267.311C1216.61 267.056 1216.45 266.802 1216.38 266.547C1216.13 265.196 1215.78 263.865 1215.34 262.565C1214.62 259.255 1213.69 256.13 1213.02 253.746C1212.58 252.079 1212.19 250.436 1211.82 248.792C1211.45 247.149 1211.08 245.644 1210.66 244.163C1210.5 243.375 1210.27 242.612 1210.06 241.848C1209.51 240.282 1209.19 238.644 1209.11 236.987C1209.11 236.68 1209.23 236.385 1209.45 236.168C1209.67 235.951 1209.96 235.829 1210.27 235.829C1210.57 235.829 1210.87 235.951 1211.09 236.168C1211.3 236.385 1211.42 236.68 1211.42 236.987C1211.51 238.414 1211.79 239.823 1212.26 241.176C1212.51 242.01 1212.74 242.82 1212.91 243.607C1213.32 245.135 1213.69 246.755 1214.06 248.352C1214.43 249.95 1214.83 251.57 1215.24 253.19C1215.98 255.505 1216.91 258.746 1217.56 262.033C1218.02 263.378 1218.37 264.755 1218.62 266.153C1218.62 266.153 1218.62 266.501 1218.81 266.732C1219.09 267.577 1219.26 268.458 1219.29 269.348C1219.27 269.637 1219.14 269.908 1218.93 270.108C1218.73 270.309 1218.45 270.425 1218.16 270.436Z" fill="black"/>
<path d="M1231.22 267.844C1230.98 267.846 1230.74 267.77 1230.54 267.629C1230.35 267.487 1230.2 267.287 1230.13 267.057C1230.01 266.733 1229.9 266.339 1229.8 265.969C1229.71 265.598 1229.6 265.228 1229.48 264.927C1229.08 263.908 1228.78 262.854 1228.58 261.779C1228.27 260.069 1227.87 258.377 1227.37 256.709C1227.12 255.853 1226.89 254.996 1226.68 254.117L1225.87 251.154C1224.41 245.668 1223.02 240.482 1221.75 234.95C1221.68 234.643 1221.73 234.321 1221.9 234.054C1222.07 233.787 1222.33 233.597 1222.64 233.526C1222.95 233.456 1223.27 233.51 1223.54 233.677C1223.8 233.844 1223.99 234.111 1224.06 234.418C1225.34 239.834 1226.73 244.996 1228.18 250.459L1228.99 253.445C1229.2 254.325 1229.43 255.158 1229.67 256.015C1230.19 257.742 1230.61 259.496 1230.94 261.27C1231.1 262.215 1231.36 263.139 1231.73 264.024C1231.86 264.441 1231.98 264.834 1232.1 265.228C1232.18 265.573 1232.28 265.913 1232.4 266.247C1232.49 266.538 1232.46 266.853 1232.32 267.125C1232.18 267.397 1231.94 267.605 1231.66 267.705C1231.52 267.784 1231.37 267.832 1231.22 267.844Z" fill="black"/>
<path d="M1243.85 262.704C1243.61 262.708 1243.37 262.631 1243.17 262.484C1242.97 262.338 1242.83 262.13 1242.77 261.894C1241.19 256.963 1239.87 252.056 1238.67 247.496L1238.07 245.505C1237.39 243.329 1236.72 241.06 1235.91 238.815C1235.54 237.796 1235.26 236.708 1234.96 235.597C1234.61 234.161 1234.16 232.753 1233.6 231.384C1233.49 231.109 1233.5 230.804 1233.61 230.532C1233.72 230.259 1233.94 230.041 1234.21 229.92C1234.47 229.799 1234.78 229.784 1235.06 229.88C1235.34 229.976 1235.57 230.175 1235.7 230.435C1236.34 231.931 1236.83 233.48 1237.19 235.065C1237.46 236.107 1237.74 237.125 1238.09 238.097C1238.92 240.412 1239.62 242.727 1240.4 244.903L1241.01 246.917C1242.21 251.547 1243.53 256.385 1245.08 261.269C1245.17 261.56 1245.15 261.878 1245.01 262.151C1244.87 262.425 1244.63 262.632 1244.34 262.727C1244.18 262.759 1244.01 262.751 1243.85 262.704Z" fill="black"/>
<path d="M1213.1 274.14C1211.64 274.154 1210.17 274.03 1208.73 273.77C1206.77 273.44 1204.82 272.984 1202.92 272.404C1200.79 271.758 1198.6 271.285 1196.39 270.992C1196.24 270.978 1196.09 270.933 1195.96 270.861C1195.82 270.789 1195.7 270.691 1195.61 270.573C1195.51 270.455 1195.44 270.318 1195.39 270.172C1195.35 270.025 1195.33 269.871 1195.35 269.719C1195.39 269.416 1195.54 269.14 1195.78 268.947C1196.02 268.753 1196.32 268.657 1196.62 268.677C1198.98 268.977 1201.3 269.48 1203.57 270.182C1205.4 270.723 1207.26 271.156 1209.15 271.478C1211.44 271.854 1213.78 271.924 1216.09 271.687C1217.17 271.629 1218.25 271.629 1219.33 271.687C1220.72 271.772 1222.12 271.718 1223.5 271.525C1228.59 270.437 1233.53 268.742 1238.22 266.478C1242.46 264.649 1246.56 262.522 1250.49 260.113C1252.8 258.631 1255.12 257.126 1257.43 255.483C1258.66 254.464 1259.98 253.168 1261.16 251.941C1261.38 251.729 1261.67 251.61 1261.97 251.61C1262.27 251.61 1262.56 251.729 1262.78 251.941C1262.89 252.049 1262.98 252.177 1263.03 252.318C1263.09 252.459 1263.12 252.61 1263.12 252.763C1263.12 252.916 1263.09 253.067 1263.03 253.208C1262.98 253.349 1262.89 253.477 1262.78 253.585C1261.58 254.788 1260.21 256.177 1258.87 257.312C1256.55 259.071 1254.03 260.599 1251.72 262.057C1247.67 264.541 1243.46 266.73 1239.1 268.608C1234.24 270.965 1229.11 272.722 1223.82 273.84C1222.29 274.051 1220.74 274.113 1219.19 274.025C1218.2 273.966 1217.2 273.966 1216.21 274.025C1215.17 274.14 1214.1 274.14 1213.1 274.14Z" fill="black"/>
<path d="M1141.65 371.361C1141.44 371.357 1141.23 371.294 1141.05 371.18C1140.87 371.066 1140.73 370.904 1140.63 370.713C1140.12 369.694 1139.71 368.606 1139.29 367.564C1138.93 366.555 1138.51 365.565 1138.04 364.601C1137.34 362.643 1136.5 360.74 1135.52 358.907C1135.05 357.842 1134.57 356.939 1134.06 356.013C1132.91 354.1 1132.06 352.024 1131.54 349.856C1131.5 349.707 1131.5 349.552 1131.53 349.402C1131.55 349.251 1131.61 349.108 1131.7 348.981C1131.78 348.853 1131.89 348.744 1132.02 348.66C1132.14 348.575 1132.29 348.518 1132.44 348.49C1132.59 348.46 1132.74 348.459 1132.89 348.488C1133.04 348.517 1133.18 348.575 1133.31 348.659C1133.44 348.743 1133.54 348.851 1133.63 348.977C1133.71 349.103 1133.77 349.244 1133.8 349.393C1134.29 351.344 1135.07 353.21 1136.12 354.925C1136.63 355.875 1137.14 356.847 1137.58 357.842C1138.59 359.738 1139.46 361.703 1140.19 363.722C1140.67 364.701 1141.08 365.705 1141.44 366.731C1141.86 367.773 1142.23 368.768 1142.69 369.671C1142.83 369.944 1142.85 370.261 1142.76 370.552C1142.66 370.842 1142.46 371.083 1142.18 371.222C1142.02 371.311 1141.84 371.359 1141.65 371.361Z" fill="black"/>
<path d="M1341.09 355.158C1340.88 355.159 1340.67 355.111 1340.49 355.019C1338.28 353.771 1336.27 352.211 1334.51 350.389C1333.84 349.718 1333.15 349.07 1332.43 348.422C1330.27 346.607 1327.94 344.996 1325.49 343.607L1316.55 337.843C1316.25 337.644 1316.03 337.334 1315.95 336.979C1315.88 336.624 1315.94 336.253 1316.13 335.945C1316.22 335.792 1316.34 335.659 1316.48 335.554C1316.62 335.449 1316.78 335.373 1316.95 335.332C1317.12 335.291 1317.3 335.285 1317.48 335.315C1317.65 335.344 1317.81 335.409 1317.96 335.505L1326.87 341.246C1329.41 342.72 1331.81 344.416 1334.05 346.315L1336.36 348.375C1337.93 350.056 1339.73 351.499 1341.71 352.658C1342.03 352.826 1342.27 353.11 1342.38 353.451C1342.49 353.792 1342.47 354.163 1342.31 354.487C1342.19 354.699 1342.01 354.873 1341.79 354.991C1341.58 355.109 1341.33 355.167 1341.09 355.158Z" fill="black"/>
<path d="M1398.95 504.812C1398.72 504.816 1398.49 504.746 1398.3 504.613C1398.11 504.48 1397.96 504.291 1397.88 504.071L1382.91 463.955C1382.85 463.814 1382.82 463.663 1382.83 463.512C1382.83 463.36 1382.87 463.211 1382.93 463.073C1382.99 462.935 1383.08 462.811 1383.19 462.708C1383.3 462.605 1383.44 462.525 1383.58 462.474C1383.72 462.418 1383.87 462.391 1384.03 462.395C1384.18 462.398 1384.33 462.433 1384.47 462.495C1384.61 462.557 1384.74 462.647 1384.84 462.759C1384.95 462.87 1385.03 463.002 1385.08 463.145L1400.01 503.308C1400.07 503.449 1400.1 503.6 1400.09 503.751C1400.09 503.903 1400.05 504.052 1399.99 504.19C1399.93 504.328 1399.84 504.452 1399.73 504.555C1399.62 504.658 1399.48 504.738 1399.34 504.789L1398.95 504.812Z" fill="black"/>
<path d="M1252.59 567.384C1241.83 567.39 1231.07 566.834 1220.37 565.717C1220.07 565.683 1219.79 565.529 1219.6 565.291C1219.41 565.052 1219.32 564.748 1219.35 564.444C1219.37 564.291 1219.42 564.143 1219.5 564.01C1219.58 563.877 1219.69 563.762 1219.81 563.673C1219.94 563.583 1220.08 563.522 1220.23 563.491C1220.39 563.46 1220.54 563.462 1220.69 563.495C1283.19 570.069 1353.36 556.551 1399.51 529.097C1399.64 529.017 1399.79 528.964 1399.94 528.94C1400.09 528.917 1400.25 528.924 1400.39 528.96C1400.54 528.997 1400.68 529.063 1400.81 529.154C1400.93 529.245 1401.03 529.359 1401.11 529.49C1401.27 529.755 1401.31 530.071 1401.24 530.369C1401.17 530.667 1400.98 530.925 1400.72 531.088C1361.9 554.074 1306.34 567.384 1252.59 567.384Z" fill="black"/>
<path d="M1399.92 605.161C1396.09 605.15 1392.29 604.363 1388.77 602.846C1371.64 595.6 1358.05 572.753 1352.68 554.72C1352.63 554.568 1352.62 554.409 1352.64 554.253C1352.66 554.096 1352.71 553.945 1352.79 553.807C1352.86 553.669 1352.97 553.548 1353.09 553.451C1353.22 553.353 1353.36 553.281 1353.51 553.239C1353.66 553.196 1353.82 553.184 1353.98 553.203C1354.13 553.222 1354.29 553.271 1354.42 553.349C1354.56 553.426 1354.68 553.53 1354.78 553.654C1354.88 553.778 1354.95 553.92 1354.99 554.072C1360.39 572.221 1374.07 594.073 1389.71 600.716C1393.32 602.31 1397.25 603.043 1401.19 602.859C1405.14 602.674 1408.98 601.576 1412.42 599.651C1412.7 599.51 1413.01 599.483 1413.31 599.577C1413.6 599.67 1413.84 599.876 1413.99 600.149C1414.13 600.422 1414.15 600.74 1414.06 601.033C1413.97 601.326 1413.76 601.57 1413.49 601.712C1409.31 603.945 1404.66 605.129 1399.92 605.161Z" fill="black"/>
<path d="M1420.6 634.652C1420.32 634.653 1420.04 634.546 1419.83 634.353C1419.62 634.16 1419.49 633.895 1419.47 633.61C1415.14 586.827 1390.9 538.031 1390.65 537.614C1390.58 537.477 1390.54 537.328 1390.53 537.176C1390.52 537.024 1390.54 536.872 1390.59 536.728C1390.64 536.584 1390.72 536.451 1390.82 536.337C1390.92 536.223 1391.05 536.13 1391.18 536.063C1391.32 535.992 1391.46 535.949 1391.62 535.936C1391.77 535.923 1391.92 535.941 1392.07 535.988C1392.21 536.036 1392.34 536.112 1392.46 536.212C1392.57 536.313 1392.67 536.435 1392.73 536.572C1392.96 537.058 1417.29 586.156 1421.76 633.402C1421.78 633.553 1421.76 633.705 1421.72 633.85C1421.67 633.996 1421.6 634.131 1421.5 634.247C1421.41 634.364 1421.29 634.459 1421.15 634.529C1421.02 634.599 1420.87 634.64 1420.72 634.652H1420.6Z" fill="black"/>
<path d="M858.675 196.15C857.566 196.141 856.472 195.888 855.472 195.407C854.472 194.927 853.589 194.233 852.888 193.373C850.834 190.603 849.621 187.3 849.393 183.859C849.046 177.632 852.263 170.826 855.018 166.22C855.097 166.089 855.201 165.975 855.324 165.884C855.447 165.794 855.587 165.729 855.735 165.692C855.883 165.655 856.038 165.648 856.189 165.671C856.34 165.694 856.485 165.747 856.615 165.826C856.746 165.905 856.86 166.009 856.95 166.132C857.041 166.255 857.106 166.395 857.143 166.543C857.179 166.691 857.186 166.846 857.163 166.997C857.14 167.148 857.088 167.293 857.009 167.423C854.416 171.752 851.384 178.095 851.708 183.789C851.927 186.712 852.971 189.514 854.717 191.868C855.343 192.638 856.181 193.208 857.127 193.508C858.073 193.808 859.086 193.825 860.041 193.558C860.348 193.469 860.678 193.505 860.958 193.659C861.238 193.814 861.445 194.073 861.534 194.38C861.623 194.686 861.587 195.016 861.433 195.296C861.279 195.576 861.02 195.784 860.713 195.873C860.051 196.066 859.365 196.159 858.675 196.15Z" fill="black"/>
<path d="M875.589 174.716C875.307 174.717 875.035 174.614 874.825 174.426C874.616 174.237 874.483 173.978 874.455 173.697C874.073 169.256 873.949 164.796 874.084 160.341C874.084 159.091 874.084 157.887 874.084 156.73C874.084 156.423 874.206 156.128 874.423 155.911C874.64 155.694 874.935 155.572 875.242 155.572C875.549 155.572 875.843 155.694 876.06 155.911C876.277 156.128 876.399 156.423 876.399 156.73C876.399 157.887 876.399 159.045 876.399 160.364C876.267 164.727 876.383 169.093 876.746 173.443C876.779 173.746 876.69 174.051 876.499 174.289C876.309 174.528 876.031 174.681 875.728 174.716H875.589Z" fill="black"/>
<path d="M1317.12 638.101C1312.81 638.026 1308.53 637.388 1304.39 636.203C1304.2 636.151 1304.04 636.054 1303.9 635.92C1303.77 635.786 1303.67 635.621 1303.62 635.439L1275.7 545.346C1275.62 545.054 1275.65 544.74 1275.79 544.471C1275.93 544.203 1276.18 544.001 1276.47 543.91C1276.76 543.823 1277.08 543.853 1277.35 543.996C1277.62 544.139 1277.83 544.382 1277.93 544.674L1305.7 634.143C1308.02 634.768 1316.63 636.828 1322.77 635.138C1317.09 615.439 1303.81 564.188 1303.67 563.679C1303.59 563.372 1303.63 563.046 1303.79 562.772C1303.95 562.499 1304.22 562.301 1304.52 562.221C1304.83 562.141 1305.16 562.186 1305.43 562.347C1305.7 562.507 1305.9 562.77 1305.98 563.077C1306.12 563.633 1319.87 616.781 1325.38 635.578C1325.46 635.86 1325.43 636.161 1325.29 636.422C1325.16 636.683 1324.94 636.885 1324.66 636.99C1322.23 637.803 1319.68 638.179 1317.12 638.101Z" fill="black"/>
<path d="M1132.73 611.343C1130.8 599.454 1127.76 587.774 1123.63 576.458C1121.06 569.815 1122.91 565.648 1112.96 559.861C1103.01 554.074 1090.78 543.796 1088.52 542.824C1086.25 541.852 1082.75 528.055 1069.56 540.254C1056.36 552.453 1041.94 553.449 1038.4 541.875C1031.64 540.578 1027.8 535.115 1029.72 531.273C1031.64 527.43 1047.08 516.805 1047.08 516.805C1039.35 520.972 1025.85 521.944 1023.93 516.157C1022.01 510.37 1028.42 505.879 1039.35 502.661C1050.27 499.444 1094 479.837 1105.88 487.221C1117.75 494.606 1136.73 510.694 1150.23 519.629C1163.73 528.564 1168.56 543.078 1174.98 560.116C1181.39 577.153 1186.55 595.139 1186.55 595.139C1186.55 595.139 1169.77 624.838 1132.73 611.343Z" fill="#315D80"/>
<path d="M1037.31 542.151C1035.77 542.181 1034.24 541.808 1032.89 541.069C1031.53 540.331 1030.39 539.252 1029.58 537.938C1029.41 537.689 1029.34 537.382 1029.39 537.083C1029.44 536.784 1029.61 536.518 1029.86 536.341C1029.98 536.253 1030.13 536.192 1030.28 536.159C1030.42 536.127 1030.58 536.125 1030.73 536.153C1030.88 536.181 1031.02 536.238 1031.15 536.322C1031.28 536.406 1031.39 536.515 1031.48 536.642C1035.69 542.753 1042.89 539.096 1050.51 534.489L1052.03 533.563L1053.7 532.73C1055.57 531.92 1057.3 530.844 1058.86 529.535C1059.09 529.324 1059.39 529.21 1059.69 529.218C1060 529.227 1060.29 529.358 1060.51 529.582C1060.72 529.806 1060.83 530.105 1060.82 530.413C1060.81 530.721 1060.68 531.013 1060.46 531.225C1058.73 532.694 1056.8 533.902 1054.72 534.813L1053.17 535.6L1051.71 536.48C1047.84 538.818 1042.31 542.151 1037.31 542.151Z" fill="black"/>
<path d="M1032.38 521.085C1031.05 521.089 1029.73 520.926 1028.44 520.599C1028.14 520.523 1027.87 520.327 1027.71 520.056C1027.55 519.784 1027.5 519.459 1027.57 519.153C1027.65 518.846 1027.85 518.582 1028.12 518.419C1028.39 518.256 1028.71 518.208 1029.02 518.284C1032.02 518.875 1035.11 518.78 1038.07 518.007L1040.39 517.613C1043.01 517.003 1045.58 516.174 1048.07 515.136L1049.86 514.28L1051.64 513.446C1052.05 513.238 1052.49 512.96 1052.93 512.683C1053.85 512.064 1054.85 511.574 1055.9 511.224C1056.2 511.138 1056.53 511.178 1056.81 511.334C1057.09 511.49 1057.29 511.751 1057.38 512.058C1057.46 512.364 1057.42 512.693 1057.27 512.971C1057.11 513.249 1056.85 513.453 1056.54 513.539C1055.73 513.848 1054.95 514.252 1054.23 514.743C1053.76 515.062 1053.28 515.349 1052.77 515.599C1052.1 515.946 1051.5 516.201 1050.9 516.479L1049.11 517.312C1046.46 518.432 1043.72 519.323 1040.92 519.974L1038.6 520.391C1036.55 520.812 1034.47 521.044 1032.38 521.085Z" fill="black"/>
<path d="M1117.31 492.059C1119.49 493.516 1121.01 495.778 1121.53 498.35C1122.05 500.922 1121.53 503.595 1120.09 505.786L1093.38 545.925C1091.92 548.107 1089.67 549.624 1087.1 550.144C1084.53 550.665 1081.86 550.147 1079.67 548.703L1039.51 522.036C1037.33 520.584 1035.81 518.326 1035.29 515.758C1034.77 513.19 1035.29 510.52 1036.73 508.333L1063.4 468.17C1064.86 465.987 1067.12 464.47 1069.69 463.949C1072.26 463.429 1074.94 463.948 1077.13 465.392L1117.31 492.059Z" fill="#F27481"/>
<path d="M1331.49 376.385C1271.93 379.556 1282.21 428.654 1286.95 444.719C1291.33 459.395 1271.09 471.664 1281.42 489.789C1291.74 507.914 1309.94 517.752 1338.22 519.049C1338.22 519.049 1336.84 550.554 1335.54 560.831L1394.68 556.966C1392.21 538.748 1386.86 500.97 1394.15 486.919C1397.11 481.178 1414.98 505.206 1433.99 475.993C1452.99 446.779 1391.05 373.237 1331.49 376.385Z" fill="#315D80"/>
<path d="M1338.18 519.927C1337.89 519.928 1337.6 519.815 1337.39 519.613C1337.17 519.411 1337.04 519.134 1337.03 518.839C1337.02 518.688 1337.04 518.537 1337.09 518.394C1337.14 518.252 1337.21 518.12 1337.32 518.008C1337.42 517.896 1337.54 517.805 1337.68 517.741C1337.81 517.677 1337.96 517.641 1338.11 517.635C1352.88 516.582 1367 511.159 1378.67 502.056C1378.91 501.863 1379.22 501.773 1379.52 501.805C1379.83 501.838 1380.11 501.991 1380.3 502.23C1380.49 502.47 1380.59 502.776 1380.55 503.082C1380.52 503.388 1380.37 503.669 1380.13 503.862C1368.08 513.26 1353.5 518.853 1338.25 519.927H1338.18Z" fill="black"/>
<path d="M1339.99 451.572C1345.91 451.271 1348.78 462.869 1343.04 463.609C1337.3 464.35 1335.15 451.827 1339.99 451.572Z" fill="black"/>
<path d="M1340.87 453.886C1340.7 453.881 1340.54 453.841 1340.38 453.77L1340.04 453.631C1337.96 452.908 1336.07 451.748 1334.48 450.229C1334.38 450.114 1334.31 449.981 1334.26 449.836C1334.21 449.692 1334.19 449.54 1334.21 449.389C1334.22 449.238 1334.26 449.091 1334.33 448.957C1334.4 448.823 1334.5 448.704 1334.62 448.608C1334.86 448.412 1335.16 448.317 1335.47 448.343C1335.78 448.369 1336.06 448.514 1336.26 448.747C1337.61 449.959 1339.18 450.895 1340.89 451.502L1341.24 451.664C1341.55 451.725 1341.82 451.906 1341.99 452.166C1342.16 452.427 1342.23 452.746 1342.17 453.053C1342.1 453.36 1341.92 453.63 1341.66 453.803C1341.4 453.977 1341.08 454.04 1340.78 453.979L1340.87 453.886Z" fill="black"/>
<path d="M1296.09 445.807C1302.02 445.807 1304.47 457.381 1298.71 457.936C1292.94 458.492 1291.23 445.876 1296.09 445.807Z" fill="black"/>
<path d="M1296.93 448.146C1296.76 448.181 1296.59 448.181 1296.42 448.146L1296.02 447.961C1293.99 447.158 1292.16 445.935 1290.63 444.373C1290.53 444.254 1290.45 444.115 1290.4 443.965C1290.35 443.814 1290.33 443.656 1290.35 443.498C1290.36 443.341 1290.41 443.189 1290.49 443.05C1290.56 442.912 1290.67 442.791 1290.79 442.694C1290.92 442.598 1291.06 442.528 1291.22 442.489C1291.37 442.45 1291.53 442.443 1291.68 442.468C1291.84 442.493 1291.99 442.549 1292.12 442.634C1292.26 442.719 1292.37 442.83 1292.46 442.961C1293.8 444.221 1295.37 445.211 1297.09 445.878L1297.48 446.063C1297.72 446.177 1297.91 446.368 1298.02 446.605C1298.14 446.842 1298.16 447.11 1298.11 447.366C1298.05 447.621 1297.9 447.849 1297.7 448.012C1297.49 448.175 1297.24 448.263 1296.97 448.262L1296.93 448.146Z" fill="black"/>
<path d="M1314.91 477.843C1311.01 478.186 1307.13 476.989 1304.1 474.51C1300 470.852 1302.41 466.408 1304.1 463.468C1306.86 459.056 1308.46 454.013 1308.73 448.815C1308.73 444.417 1306.97 442.38 1304.45 439.301L1303.38 438.005C1303.19 437.765 1303.1 437.459 1303.13 437.153C1303.16 436.847 1303.32 436.566 1303.56 436.373C1303.8 436.18 1304.1 436.089 1304.41 436.122C1304.71 436.154 1305 436.307 1305.19 436.547L1306.23 437.82C1308.87 441.037 1310.86 443.561 1311.05 448.769C1310.8 454.363 1309.12 459.799 1306.16 464.556C1304.26 468.051 1303.22 470.505 1305.74 472.774C1309.01 475.714 1313.08 475.621 1317.32 475.505H1319.31C1319.62 475.505 1319.91 475.627 1320.13 475.844C1320.34 476.061 1320.47 476.356 1320.47 476.663C1320.47 476.97 1320.34 477.264 1320.13 477.481C1319.91 477.698 1319.62 477.82 1319.31 477.82H1317.36L1314.91 477.843Z" fill="black"/>
<path d="M1321.52 495.601C1318.05 495.601 1314.9 492.545 1312.12 486.55C1312.02 486.37 1311.97 486.166 1311.97 485.96C1311.97 485.753 1312.02 485.55 1312.12 485.369C1312.25 485.207 1312.42 485.079 1312.61 484.998C1312.8 484.917 1313.01 484.886 1313.21 484.906C1316.94 485.369 1328.21 481.388 1331.98 477.244C1332.15 477.056 1332.38 476.93 1332.62 476.883C1332.87 476.837 1333.13 476.875 1333.35 476.99C1333.58 477.101 1333.76 477.284 1333.87 477.51C1333.99 477.735 1334.02 477.992 1333.98 478.24C1332.61 485.439 1327.77 495.601 1321.52 495.601ZM1315.02 487.106C1317.12 491.087 1319.35 493.194 1321.52 493.194C1325.41 493.194 1329.04 486.967 1330.9 481.133C1326.07 484.203 1320.67 486.237 1315.02 487.106Z" fill="white"/>
<path d="M1331.03 436.755C1329.43 432.75 1333.34 428.213 1340.59 431.269C1346.18 433.859 1350.81 438.143 1353.83 443.514C1356.4 448.329 1353.32 445.528 1350.29 443.121C1346.19 439.61 1340.9 437.804 1335.52 438.074C1332.88 438.121 1331.35 438.491 1331.03 436.755Z" fill="#000001"/>
<path d="M1354.57 447.313C1353.69 447.313 1352.72 446.572 1350.59 444.859L1349.57 444.049C1345.85 440.819 1341.06 439.093 1336.14 439.211H1334.71H1333.55C1332.51 439.211 1330.35 439.211 1329.89 436.896C1329.56 436.055 1329.43 435.143 1329.53 434.243C1329.64 433.342 1329.96 432.481 1330.47 431.734C1332.37 428.933 1336.56 428.216 1341.03 430.114C1346.9 432.782 1351.77 437.259 1354.91 442.892C1356.03 444.952 1356.23 445.855 1355.79 446.572C1355.66 446.758 1355.49 446.912 1355.29 447.024C1355.09 447.136 1354.87 447.203 1354.64 447.22L1354.57 447.313ZM1336.05 436.896C1341.49 436.788 1346.78 438.683 1350.91 442.22L1351.93 443.054L1352.3 443.331C1349.39 438.531 1345.12 434.704 1340.03 432.336C1336.6 430.878 1333.57 431.248 1332.3 433.123C1331.99 433.595 1331.81 434.136 1331.76 434.697C1331.71 435.258 1331.8 435.823 1332.02 436.341C1332.02 436.804 1332.16 436.966 1333.46 436.966H1334.54L1336.05 436.896Z" fill="#000001"/>
<path d="M1283.48 423.284C1288.64 414.487 1309.2 392.427 1337.9 380.205C1337.9 407.196 1352.25 449.187 1385.47 450.275C1384.4 461.409 1383.15 469.557 1385.91 470.622C1388.66 471.687 1397.9 465.692 1399.4 452.404C1407.32 443.84 1426.4 446.617 1430.68 460.136C1434.96 473.655 1421.9 494.627 1397.9 484.974C1394.03 484.326 1389.33 491.409 1390.19 506.826C1409.68 508.979 1431.12 502.197 1442.9 481.988C1454.68 461.78 1452.53 437.219 1440.33 417.497C1428.13 397.774 1425.75 389.858 1428.11 379.788C1463.69 387.057 1485.77 362.195 1480.96 330.69C1476.14 299.185 1445.86 279.764 1411.79 288.444C1377.71 297.125 1368.11 337.357 1402.53 360.783C1397.71 366.246 1382.9 360.922 1364.27 352.241C1345.63 343.561 1290.19 330.899 1262.71 373.793C1234.59 417.659 1276.25 446.409 1286.81 443.515C1284.53 437.018 1283.4 430.171 1283.48 423.284Z" fill="#000001"/>
<path d="M1558.4 763.287C1536.55 712.731 1529.26 682.731 1508.26 630.462C1487.27 578.193 1448.7 578.193 1425.55 575.6C1402.41 573.008 1394.95 562.498 1393.66 545.369C1346.11 562.938 1336.85 540.461 1335.99 542.197C1331.92 567.475 1324 567.475 1296.64 563.609C1269.28 559.744 1234.14 604.327 1205.81 640.74C1205.81 640.74 1188.65 592.545 1184.37 585.184C1161.87 604.79 1143.44 602.684 1129.62 598.193C1129.62 598.193 1135.64 619.466 1139.14 634.258C1111.52 643.518 1144.67 717.454 1159.3 745.88C1186.08 797.94 1232.75 782.454 1268.33 728.449C1276.94 737.384 1286.62 746.458 1287.03 750.741C1287.49 763.937 1286.83 777.147 1285.07 790.232C1282.94 803.079 1272.22 839.932 1272.22 841.159C1272.22 842.385 1285.92 875.881 1285.92 875.881C1285.92 875.881 1420.48 878.451 1420.18 897.733C1440.74 894.747 1509.3 899.029 1550.02 879.214C1590.74 859.399 1580.25 813.867 1558.4 763.287ZM1453.84 820.718L1459.42 759.861L1474.84 819.005L1453.84 820.718Z" fill="#6B5E7A"/>
<path d="M1559.38 762.708C1547.3 734.676 1537.23 705.925 1526.98 677.059C1521.62 661.982 1516.01 647.021 1510.15 632.175C1505.55 619.756 1498.62 608.331 1489.73 598.517C1476.84 584.883 1459.2 578.424 1440.96 576.04C1431.7 574.813 1422.14 574.674 1413.18 571.734C1400.96 567.73 1395.79 557.405 1394.66 545.276C1394.66 545.098 1394.62 544.923 1394.54 544.764C1394.46 544.605 1394.34 544.466 1394.2 544.357C1394.06 544.248 1393.9 544.172 1393.73 544.135C1393.55 544.097 1393.37 544.1 1393.2 544.141C1377.21 549.929 1353.69 556.595 1339.27 543.447C1338.29 542.544 1336.23 539.558 1334.84 541.502C1333.78 543.03 1333.78 546.896 1333.34 548.771C1332.8 551.202 1332.03 553.575 1331.02 555.854C1330.2 557.744 1328.95 559.42 1327.38 560.755C1325.8 562.091 1323.95 563.051 1321.95 563.563C1312.18 566.225 1301.81 561.943 1292 562.151C1282.18 562.359 1272.58 568.216 1264.8 573.933C1241 591.434 1222.81 616.735 1204.84 639.837L1206.79 640.346C1203.7 631.781 1200.61 623.247 1197.53 614.744C1193.82 604.767 1190.58 593.91 1185.31 584.651C1185.22 584.501 1185.09 584.372 1184.95 584.276C1184.8 584.18 1184.63 584.119 1184.46 584.096C1184.29 584.074 1184.11 584.092 1183.94 584.148C1183.78 584.204 1183.63 584.297 1183.5 584.42C1167.74 597.822 1149.87 603.471 1129.89 597.128C1129.69 597.072 1129.48 597.069 1129.29 597.12C1129.09 597.17 1128.91 597.273 1128.76 597.416C1128.61 597.56 1128.51 597.739 1128.45 597.937C1128.4 598.134 1128.4 598.342 1128.45 598.54C1131.83 610.508 1135.07 622.522 1137.97 634.605L1138.78 633.17C1123.48 638.795 1126.86 659.86 1129.52 672.245C1134.15 694.05 1143.18 715.092 1152.67 735.139C1161.69 754.12 1173.27 775.046 1196.02 778.658C1219.33 782.385 1240.61 764.421 1254.87 748.241C1260.1 742.19 1264.93 735.794 1269.31 729.097L1267.48 729.328C1271.23 733.171 1275.03 736.967 1278.71 740.903C1281.46 743.842 1285.65 747.616 1285.95 751.898C1286.26 759.701 1286.11 767.515 1285.51 775.301C1284.54 791.505 1280.26 806.852 1276.07 822.431C1274.52 828.149 1272.9 833.843 1271.44 839.584C1270.77 842.246 1272.09 844.445 1273.04 846.945C1276.83 856.783 1280.84 866.552 1284.84 876.297C1284.91 876.54 1285.06 876.755 1285.26 876.909C1285.46 877.063 1285.7 877.149 1285.95 877.154C1307.07 877.571 1328.18 878.728 1349.2 880.51C1364.82 881.618 1380.36 883.682 1395.72 886.691C1400.72 887.733 1418.87 890.395 1418.87 897.849C1418.87 898.026 1418.92 898.2 1418.99 898.359C1419.07 898.517 1419.19 898.655 1419.33 898.763C1419.47 898.87 1419.63 898.944 1419.81 898.978C1419.98 899.012 1420.16 899.006 1420.33 898.96C1439.36 896.321 1459.04 897.362 1478.2 895.997C1501.77 894.33 1526 891.205 1547.81 881.668C1597.39 859.955 1575.59 799.954 1559.38 762.708C1558.78 761.343 1556.79 762.523 1557.39 763.889C1566.98 786.204 1576.58 810.394 1576.4 835.07C1576.49 844.992 1573.63 854.718 1568.18 863.01C1561.56 872.802 1550.63 878.358 1539.87 882.362C1517.79 890.603 1493.57 892.825 1470.22 894.214C1453.46 895.21 1436.3 894.423 1419.66 896.737L1421.14 897.849C1420.98 889.191 1404.94 886.436 1398.85 885.048C1381.7 881.434 1364.31 879.074 1346.81 877.987C1330.61 876.645 1314.4 875.788 1298.2 875.209C1294.38 875.071 1290.54 874.955 1286.63 874.862C1284.96 874.862 1287.27 876.529 1286.63 874.631C1285.26 871.321 1283.92 867.987 1282.55 864.677C1280.31 859.152 1278.1 853.604 1275.91 848.033C1274.94 845.58 1273.13 842.339 1273.59 840.209C1276.56 828.241 1280.1 816.413 1283.08 804.445C1286.37 790.794 1288.11 776.817 1288.27 762.778C1288.27 758.704 1289.47 752.384 1287.53 748.542C1283.43 740.44 1275.33 734.028 1269.01 727.708C1268.89 727.585 1268.73 727.492 1268.57 727.436C1268.4 727.38 1268.23 727.363 1268.05 727.385C1267.88 727.407 1267.71 727.469 1267.56 727.565C1267.42 727.661 1267.29 727.789 1267.2 727.94C1253.32 748.657 1234.06 771.528 1208.2 776.25C1183.29 780.88 1167.3 759.769 1157.5 740.069C1147.99 721.454 1140.18 702.015 1134.17 681.99C1130.72 669.976 1122.6 641.596 1139.33 635.439C1139.62 635.347 1139.87 635.147 1140.02 634.88C1140.16 634.612 1140.2 634.298 1140.12 634.003C1137.23 621.92 1133.99 609.906 1130.63 597.961L1129.19 599.373C1150.03 605.994 1168.66 600.022 1185.05 586.063L1183.25 585.832C1188.62 595.322 1191.88 606.434 1195.65 616.619C1198.74 624.736 1201.7 632.885 1204.54 641.064C1204.82 641.781 1205.91 642.314 1206.49 641.573C1224.68 618.124 1243.08 592.846 1267.23 575.091C1277 567.915 1287.25 563.517 1299.47 565.183C1307.58 566.294 1317.02 568.169 1324.94 565.183C1331.44 562.66 1334.2 555.762 1335.7 549.535C1336.26 547.336 1337.51 544.743 1335.7 543.239C1336.06 543.555 1336.4 543.895 1336.72 544.257C1337.92 545.457 1339.21 546.556 1340.58 547.544C1355.7 558.54 1378.2 552.174 1393.94 546.549L1392.46 545.438C1393.22 554.118 1395.54 562.405 1402.21 568.378C1409.61 575.044 1420.26 576.341 1429.75 577.267C1449.13 579.211 1467.76 582.73 1483.13 595.6C1494.2 604.86 1501.65 617.637 1507.11 630.832C1513.46 646.318 1519.17 662.082 1524.78 677.846C1535.08 706.782 1545.19 735.717 1557.37 763.958C1557.97 765.255 1559.96 764.074 1559.38 762.708Z" fill="#F1D15B"/>
<path d="M1454.99 820.717C1456.84 800.439 1458.7 780.153 1460.57 759.86L1458.25 760.184L1473.69 819.305L1474.8 817.846L1453.81 819.559C1452.33 819.675 1452.33 821.99 1453.81 821.874L1474.8 820.161C1474.98 820.156 1475.15 820.111 1475.31 820.031C1475.46 819.951 1475.6 819.836 1475.71 819.697C1475.81 819.557 1475.89 819.395 1475.92 819.223C1475.96 819.051 1475.96 818.873 1475.91 818.703L1460.52 759.559C1460.48 759.252 1460.32 758.973 1460.08 758.784C1459.83 758.595 1459.52 758.512 1459.21 758.552C1458.91 758.592 1458.63 758.752 1458.44 758.997C1458.25 759.242 1458.17 759.553 1458.21 759.86C1456.32 780.168 1454.46 800.454 1452.63 820.717C1452.54 822.198 1454.85 822.198 1454.99 820.717Z" fill="#DA3A51"/>
<path d="M1195.44 852.431C1204.88 843.426 1227.57 827.57 1233.15 835.718C1235.14 834.009 1237.46 832.719 1239.97 831.924C1242.47 831.128 1245.11 830.844 1247.73 831.088C1254.14 824.144 1261.87 822.5 1269.58 831.505C1277.29 840.509 1300.42 859.792 1304.3 863.635C1308.19 867.477 1338.17 866.644 1405.44 852.061C1419.12 857.477 1419.79 896.366 1419.79 896.366C1394.81 897.964 1210.85 897.084 1210.85 897.084L1195.44 852.431Z" fill="#315D80"/>
<path d="M1273 876.297C1272.69 876.297 1272.39 876.172 1272.16 875.95L1271.84 875.626C1271.73 875.486 1271.63 875.33 1271.56 875.163C1270.56 873.595 1269.78 871.897 1269.25 870.117C1268.65 868.913 1268.07 867.802 1267.51 866.529C1266.96 865.256 1266.4 864.098 1265.73 862.802C1264.32 860.626 1263.02 858.172 1261.72 855.857C1260.73 853.982 1259.71 852.038 1258.6 850.209C1256.96 852.154 1255.17 854.006 1253.44 855.834C1250.86 858.437 1248.44 861.181 1246.17 864.052L1245.75 864.607C1242.88 868.45 1237.56 875.626 1230.84 871.737C1229.96 871.306 1229.17 870.691 1228.54 869.932C1227.91 869.174 1227.45 868.29 1227.19 867.339C1226.01 863.219 1228.39 858.496 1229.5 856.645C1231.15 854.029 1232.95 851.482 1234.71 849.005C1236.47 846.529 1238.21 844.052 1239.8 841.529C1240.66 840.232 1241.45 838.89 1242.12 837.547C1243.59 834.72 1245.43 832.098 1247.58 829.746C1247.8 829.532 1248.1 829.413 1248.4 829.413C1248.71 829.413 1249 829.532 1249.22 829.746C1249.33 829.854 1249.42 829.982 1249.48 830.123C1249.54 830.264 1249.57 830.415 1249.57 830.568C1249.57 830.721 1249.54 830.872 1249.48 831.013C1249.42 831.154 1249.33 831.282 1249.22 831.39C1247.22 833.599 1245.51 836.058 1244.13 838.705C1243.32 840.093 1242.53 841.459 1241.65 842.779C1240.06 845.348 1238.25 847.894 1236.49 850.348C1234.73 852.802 1232.97 855.302 1231.4 857.848C1230.68 859.052 1228.41 863.358 1229.36 866.691C1229.55 867.347 1229.87 867.957 1230.31 868.48C1230.75 869.002 1231.3 869.426 1231.91 869.723C1236.54 872.362 1240.17 868.149 1243.83 863.219L1244.27 862.64C1246.6 859.714 1249.08 856.909 1251.7 854.237C1253.88 851.922 1255.91 849.816 1257.79 847.501C1257.91 847.363 1258.06 847.254 1258.23 847.182C1258.4 847.11 1258.58 847.077 1258.76 847.084C1258.94 847.094 1259.12 847.147 1259.28 847.24C1259.44 847.333 1259.57 847.462 1259.66 847.617C1261.15 849.931 1262.47 852.362 1263.74 854.769C1265.01 857.177 1266.28 859.538 1267.7 861.714C1268.41 863.126 1268.99 864.376 1269.57 865.603C1270.15 866.83 1270.68 867.918 1271.31 869.214C1271.32 869.283 1271.32 869.353 1271.31 869.422C1271.78 871.225 1272.57 872.932 1273.62 874.469C1273.81 874.704 1273.89 874.998 1273.87 875.295C1273.84 875.591 1273.7 875.866 1273.48 876.066C1273.34 876.179 1273.18 876.258 1273 876.297Z" fill="white"/>
<path d="M1213.96 867.617C1212.56 867.667 1211.15 867.395 1209.87 866.822C1208.58 866.248 1207.44 865.388 1206.53 864.307C1202.3 858.381 1208.46 852.246 1210.47 850.209C1217.5 844.053 1225.27 838.811 1233.62 834.607C1233.75 834.523 1233.9 834.466 1234.05 834.441C1234.21 834.416 1234.37 834.422 1234.52 834.46C1234.67 834.498 1234.82 834.567 1234.94 834.663C1235.07 834.758 1235.17 834.878 1235.25 835.015C1235.33 835.152 1235.37 835.304 1235.39 835.46C1235.41 835.617 1235.39 835.775 1235.35 835.925C1235.3 836.075 1235.22 836.215 1235.12 836.334C1235.02 836.454 1234.89 836.552 1234.75 836.621C1226.62 840.745 1219.04 845.87 1212.18 851.876C1207.55 856.506 1206.37 860.001 1208.46 862.895C1211.02 866.02 1215.68 865.742 1218.9 864.145C1222.37 862.354 1225.62 860.154 1228.57 857.594L1230.1 859.33C1227 862.056 1223.57 864.389 1219.89 866.274C1218.05 867.174 1216.02 867.633 1213.96 867.617Z" fill="black"/>
<path d="M1199.71 867.293C1199.4 867.315 1199.1 867.213 1198.87 867.012C1198.64 866.81 1198.49 866.524 1198.47 866.217C1198.45 865.91 1198.55 865.607 1198.75 865.375C1198.96 865.142 1199.24 865 1199.55 864.978C1201.91 864.621 1204.13 863.62 1205.96 862.085C1206.18 861.871 1206.47 861.752 1206.78 861.752C1207.09 861.752 1207.38 861.871 1207.6 862.085C1207.71 862.192 1207.8 862.321 1207.86 862.462C1207.92 862.603 1207.95 862.754 1207.95 862.907C1207.95 863.059 1207.92 863.211 1207.86 863.352C1207.8 863.493 1207.71 863.621 1207.6 863.728C1205.41 865.608 1202.73 866.835 1199.87 867.27L1199.71 867.293Z" fill="black"/>
<path d="M1272.68 735.048C1272.39 735.041 1272.11 734.926 1271.9 734.724C1267.29 730.03 1263.77 724.39 1261.57 718.196C1254.77 696.922 1260.21 674.816 1267.1 654.075C1267.5 652.964 1265.65 650.88 1264.42 649.445C1263.96 648.913 1263.52 648.427 1263.15 647.964L1259.67 642.015C1259.52 641.747 1259.48 641.43 1259.56 641.133C1259.64 640.836 1259.83 640.582 1260.1 640.429C1260.37 640.275 1260.69 640.234 1260.98 640.315C1261.28 640.395 1261.53 640.59 1261.69 640.857C1262.8 642.802 1264 644.723 1265.07 646.667C1265.3 646.968 1265.71 647.431 1266.15 647.917C1267.91 649.885 1270.11 652.339 1269.3 654.746C1262.54 675.094 1257.17 696.784 1263.77 717.409C1265.86 723.225 1269.17 728.528 1273.47 732.964C1273.68 733.185 1273.8 733.48 1273.8 733.786C1273.8 734.093 1273.68 734.388 1273.47 734.608C1273.27 734.847 1272.99 735.004 1272.68 735.048Z" fill="black"/>
<path d="M1147.67 636.784C1143.75 637.044 1139.83 636.244 1136.33 634.469C1136.07 634.299 1135.9 634.036 1135.84 633.737C1135.77 633.438 1135.83 633.127 1136 632.872C1136.18 632.617 1136.44 632.44 1136.75 632.379C1137.05 632.318 1137.36 632.379 1137.62 632.548C1144.57 637.177 1169.04 634.238 1188.55 620.974C1188.68 620.888 1188.82 620.829 1188.97 620.799C1189.12 620.768 1189.27 620.768 1189.42 620.797C1189.57 620.826 1189.71 620.884 1189.84 620.968C1189.96 621.052 1190.07 621.16 1190.16 621.286C1190.24 621.412 1190.3 621.554 1190.33 621.703C1190.36 621.852 1190.36 622.006 1190.33 622.155C1190.31 622.305 1190.25 622.447 1190.16 622.574C1190.08 622.701 1189.97 622.81 1189.85 622.895C1177.39 631.437 1162.76 636.255 1147.67 636.784Z" fill="black"/>
<path d="M1215.26 670.462C1214.99 670.462 1214.73 670.37 1214.52 670.201C1214.32 670.032 1214.18 669.797 1214.12 669.536C1212.02 658.563 1210.26 652.892 1204.12 637.522C1204.01 637.236 1204.02 636.919 1204.14 636.639C1204.26 636.358 1204.49 636.135 1204.77 636.017C1204.91 635.961 1205.06 635.933 1205.22 635.935C1205.37 635.937 1205.52 635.969 1205.66 636.029C1205.8 636.089 1205.92 636.176 1206.03 636.285C1206.14 636.395 1206.22 636.524 1206.28 636.665C1212.46 652.198 1214.26 657.962 1216.39 669.073C1216.45 669.376 1216.38 669.689 1216.21 669.944C1216.03 670.2 1215.77 670.377 1215.47 670.439L1215.26 670.462Z" fill="black"/>
<path d="M1475.15 819.098C1474.9 819.102 1474.66 819.022 1474.46 818.871C1474.26 818.72 1474.11 818.507 1474.04 818.264C1472.24 811.991 1470.29 804.792 1468.26 797.176C1464.18 781.945 1459.55 764.769 1454.65 750.278C1447.7 729.444 1441.91 708.356 1435.78 684.86C1435.74 684.713 1435.73 684.559 1435.75 684.408C1435.77 684.258 1435.83 684.112 1435.9 683.981C1435.98 683.85 1436.08 683.736 1436.2 683.644C1436.33 683.553 1436.47 683.486 1436.61 683.448C1436.76 683.406 1436.91 683.394 1437.06 683.413C1437.21 683.431 1437.36 683.479 1437.49 683.555C1437.62 683.63 1437.74 683.731 1437.83 683.852C1437.92 683.973 1437.99 684.111 1438.02 684.259C1444.16 707.731 1449.81 728.842 1456.84 749.514C1461.75 764.005 1466.4 781.296 1470.5 796.574C1472.54 804.167 1474.46 811.366 1476.27 817.616C1476.35 817.911 1476.31 818.225 1476.16 818.492C1476.01 818.76 1475.77 818.96 1475.48 819.051L1475.15 819.098Z" fill="black"/>
<path d="M1404.43 851.876C1404.13 851.869 1403.84 851.754 1403.62 851.552C1403.45 851.365 1403.33 851.137 1403.27 850.889C1403.21 850.641 1403.22 850.383 1403.3 850.14C1403.43 849.916 1403.61 849.73 1403.84 849.6C1404.06 849.47 1404.31 849.401 1404.57 849.399H1404.89H1405.13C1405.63 849.26 1406.14 849.075 1406.68 848.89C1407.54 848.559 1408.43 848.288 1409.34 848.08C1411.07 847.808 1412.78 847.397 1414.45 846.853L1415.68 846.506C1416.77 846.32 1417.74 846.228 1418.64 846.158L1419.78 845.904C1419.71 845.761 1419.65 845.614 1419.59 845.464C1418.08 842.793 1417.43 839.722 1417.72 836.668C1418.57 831.158 1423.76 827.408 1425.96 825.927C1431.82 822.316 1438.71 821.297 1445.38 820.255C1446.65 820.07 1447.95 819.885 1449.2 819.653C1454.57 818.896 1459.98 818.417 1465.4 818.218C1468.07 818.079 1470.71 817.94 1473.37 817.732C1479.69 817.408 1486.17 817.084 1492.72 817.084H1506.86C1507.17 817.084 1507.46 817.206 1507.68 817.423C1507.9 817.64 1508.02 817.934 1508.02 818.241C1508.02 818.548 1507.9 818.843 1507.68 819.06C1507.46 819.277 1507.17 819.399 1506.86 819.399H1492.72C1486.24 819.399 1479.76 819.723 1473.51 820.024C1470.87 820.255 1468.21 820.394 1465.52 820.533C1460.17 820.719 1454.83 821.191 1449.52 821.945L1445.68 822.547C1439.25 823.519 1432.58 824.538 1427.16 827.894C1425.24 829.121 1420.68 832.524 1419.99 837.154C1419.79 839.759 1420.38 842.364 1421.68 844.631C1421.95 845.256 1422.23 845.881 1422.49 846.506C1422.56 846.658 1422.59 846.824 1422.59 846.992C1422.59 847.159 1422.56 847.325 1422.49 847.478C1422.41 847.627 1422.3 847.756 1422.16 847.856C1422.02 847.956 1421.87 848.025 1421.7 848.057C1420.76 848.235 1419.81 848.351 1418.85 848.404C1418 848.404 1417.09 848.566 1416.19 848.705L1415.13 849.029C1413.36 849.596 1411.56 850.03 1409.73 850.325C1408.95 850.509 1408.17 850.741 1407.42 851.02C1406.87 851.225 1406.31 851.403 1405.75 851.552C1405.52 851.662 1405.27 851.733 1405.01 851.76C1404.83 851.848 1404.63 851.888 1404.43 851.876Z" fill="black"/>
<path d="M1440.43 893.009C1440.12 893.009 1439.83 892.887 1439.61 892.67C1439.39 892.453 1439.27 892.159 1439.27 891.852C1439.36 883.661 1437.97 875.522 1435.17 867.824L1434.62 866.25C1433.44 862.359 1431.72 858.651 1429.53 855.231C1427.01 851.851 1423.74 849.114 1419.97 847.245C1419.83 847.172 1419.71 847.074 1419.62 846.955C1419.52 846.837 1419.45 846.7 1419.41 846.554C1419.36 846.408 1419.35 846.255 1419.37 846.103C1419.38 845.951 1419.43 845.805 1419.5 845.671C1419.57 845.535 1419.67 845.414 1419.79 845.316C1419.91 845.219 1420.04 845.146 1420.19 845.103C1420.34 845.059 1420.49 845.046 1420.64 845.065C1420.8 845.083 1420.94 845.131 1421.08 845.208C1425.18 847.257 1428.74 850.257 1431.45 853.958C1433.77 857.543 1435.57 861.44 1436.79 865.532L1437.35 867.083C1440.16 874.806 1441.59 882.962 1441.59 891.181V891.898C1441.57 892.197 1441.45 892.48 1441.23 892.687C1441.01 892.894 1440.73 893.01 1440.43 893.009Z" fill="black"/>
<path d="M1310.99 850.535C1310.68 850.517 1310.4 850.381 1310.2 850.156C1309.99 849.931 1309.89 849.635 1309.9 849.332C1311.2 841.921 1313.18 834.645 1315.8 827.595C1317.41 823.634 1318.74 819.565 1319.78 815.419C1320.27 813.637 1320.78 811.854 1321.33 810.026C1325.69 795.697 1329.39 782.734 1330.59 769.146C1331.44 764.947 1331.88 760.675 1331.89 756.391C1331.69 752.42 1330.84 748.51 1329.37 744.817C1328.6 742.363 1327.79 739.909 1327.05 737.456C1325.18 731.784 1323.23 725.881 1321.73 719.886C1319.42 711.718 1317.97 703.331 1317.4 694.863C1317.2 691.552 1317.36 688.23 1317.89 684.955C1318.02 683.89 1318.16 682.825 1318.26 681.761V680.696C1318.67 676.598 1319.09 672.362 1319.88 668.381C1320.55 666.066 1321.06 664.052 1321.59 661.922C1322.12 659.793 1322.68 657.594 1323.35 655.418C1324.25 652.278 1325.32 649.187 1326.54 646.158C1327.05 644.862 1327.56 643.543 1328.07 642.131C1329.51 637.617 1330.78 633.01 1332.15 628.126C1333.16 624.399 1334.21 620.672 1335.34 616.922C1335.73 614.862 1336.29 612.686 1336.82 610.579C1337.35 608.473 1337.89 606.297 1338.3 604.167C1338.58 603.195 1338.79 602.338 1339 601.505C1339.49 599.413 1340.14 597.362 1340.94 595.371C1341.07 595.1 1341.3 594.889 1341.58 594.782C1341.85 594.675 1342.16 594.681 1342.44 594.798C1342.72 594.915 1342.94 595.134 1343.05 595.409C1343.17 595.684 1343.18 595.994 1343.07 596.274C1342.31 598.161 1341.7 600.103 1341.24 602.084C1341.03 602.94 1340.83 603.797 1340.55 604.7C1340.15 606.806 1339.6 609.005 1339.07 611.135C1338.53 613.264 1338 615.371 1337.58 617.478C1336.43 621.32 1335.27 625.047 1334.37 628.751C1333.07 633.38 1331.73 638.265 1330.27 642.871C1329.74 644.33 1329.23 645.672 1328.72 646.992C1327.5 649.971 1326.45 653.016 1325.57 656.112C1324.92 658.288 1324.37 660.464 1323.83 662.571C1323.3 664.677 1322.77 666.853 1322.12 669.006C1321.38 672.779 1320.96 676.946 1320.57 680.997V682.061C1320.46 683.149 1320.32 684.237 1320.2 685.302C1319.69 688.407 1319.52 691.559 1319.71 694.7C1320.27 703.027 1321.69 711.274 1323.95 719.307C1325.46 725.326 1327.4 731.159 1329.25 736.807C1330.08 739.261 1330.89 741.715 1331.57 744.169C1333.12 748.107 1334.01 752.276 1334.21 756.507C1334.2 760.899 1333.76 765.281 1332.89 769.585C1331.59 783.289 1327.84 796.368 1323.44 810.813C1322.91 812.618 1322.42 814.401 1321.91 816.16C1320.85 820.401 1319.49 824.562 1317.84 828.614C1315.33 835.417 1313.41 842.427 1312.12 849.563C1312.08 849.833 1311.94 850.079 1311.73 850.257C1311.52 850.435 1311.26 850.533 1310.99 850.535Z" fill="black"/>
<path d="M1371.17 590.695C1369.29 590.639 1367.46 590.113 1365.85 589.167C1364.23 588.221 1362.87 586.884 1361.91 585.278C1357.53 579.677 1356.54 572.964 1355.56 566.482C1355.36 565.139 1355.15 563.797 1354.92 562.454C1353.16 565.463 1351.35 568.473 1349.36 571.436L1348.83 572.269C1346.05 576.459 1340.86 584.306 1334.94 585.024C1333.84 585.152 1332.72 585.027 1331.67 584.658C1330.62 584.289 1329.68 583.686 1328.9 582.894C1324.27 578.589 1324.59 573.126 1324.92 567.848V566.875C1324.92 566.723 1324.95 566.573 1325.02 566.435C1325.08 566.297 1325.17 566.172 1325.28 566.07C1325.39 565.968 1325.53 565.891 1325.67 565.842C1325.82 565.793 1325.97 565.775 1326.12 565.787C1326.27 565.793 1326.42 565.83 1326.56 565.895C1326.7 565.961 1326.82 566.054 1326.93 566.168C1327.03 566.283 1327.1 566.417 1327.15 566.562C1327.2 566.708 1327.22 566.862 1327.21 567.014V567.987C1326.91 572.963 1326.61 577.639 1330.43 581.204C1330.97 581.759 1331.63 582.185 1332.36 582.449C1333.09 582.714 1333.87 582.81 1334.64 582.732C1339.41 582.13 1344.38 574.607 1346.77 570.996L1347.32 570.163C1349.85 566.366 1352.09 562.524 1354.27 558.797C1354.39 558.585 1354.57 558.413 1354.79 558.298C1355.01 558.184 1355.25 558.132 1355.49 558.149C1355.72 558.175 1355.94 558.268 1356.12 558.416C1356.29 558.564 1356.42 558.761 1356.49 558.982C1357.02 561.297 1357.37 563.774 1357.72 566.135C1358.69 572.616 1359.62 578.727 1363.67 583.89C1364.66 585.701 1366.28 587.088 1368.22 587.791C1370.17 588.494 1372.3 588.465 1374.22 587.709C1378.96 586.05 1383.53 583.925 1387.86 581.366C1391.99 578.851 1395.7 575.686 1398.83 571.991C1398.92 571.872 1399.04 571.773 1399.17 571.701C1399.31 571.628 1399.45 571.582 1399.6 571.567C1399.76 571.552 1399.91 571.568 1400.05 571.613C1400.2 571.658 1400.33 571.731 1400.45 571.829C1400.68 572.031 1400.83 572.316 1400.85 572.623C1400.88 572.93 1400.78 573.235 1400.59 573.473C1397.29 577.375 1393.38 580.713 1389.01 583.357C1384.56 585.984 1379.86 588.171 1374.99 589.885C1373.77 590.386 1372.48 590.661 1371.17 590.695Z" fill="black"/>
<path d="M1350.33 592.915H1349.5C1348.7 592.777 1347.97 592.396 1347.4 591.824C1346.83 591.251 1346.46 590.516 1346.33 589.721C1346.04 588.627 1346.07 587.473 1346.43 586.4C1346.79 585.326 1347.45 584.381 1348.34 583.679C1349.21 583.029 1350.26 582.65 1351.34 582.588C1352.43 582.526 1353.51 582.785 1354.45 583.332C1354.67 583.462 1354.84 583.657 1354.94 583.89C1355.04 584.123 1355.06 584.381 1355.01 584.628C1355.28 585.025 1355.48 585.463 1355.61 585.925C1355.81 586.709 1355.84 587.525 1355.7 588.323C1355.57 589.12 1355.27 589.88 1354.82 590.554C1354.32 591.283 1353.65 591.879 1352.87 592.29C1352.09 592.702 1351.21 592.916 1350.33 592.915ZM1351.58 584.837C1350.91 584.835 1350.26 585.055 1349.73 585.462C1349.19 585.896 1348.8 586.481 1348.6 587.141C1348.39 587.8 1348.39 588.505 1348.59 589.165C1348.63 589.513 1348.78 589.839 1349.02 590.094C1349.25 590.349 1349.57 590.519 1349.91 590.577C1350.5 590.645 1351.09 590.546 1351.61 590.292C1352.14 590.038 1352.59 589.639 1352.9 589.142C1353.16 588.751 1353.33 588.31 1353.41 587.848C1353.49 587.386 1353.47 586.912 1353.36 586.457C1353.31 586.212 1353.21 585.983 1353.05 585.789C1352.89 585.595 1352.69 585.443 1352.46 585.346C1352.23 585.243 1352.04 585.074 1351.9 584.86L1351.58 584.837Z" fill="black"/>
<path d="M1339.8 653.772C1338.57 653.721 1337.39 653.209 1336.52 652.337C1335.93 651.758 1335.48 651.058 1335.2 650.286C1334.91 649.514 1334.8 648.689 1334.87 647.869C1334.96 646.814 1335.28 645.79 1335.79 644.865C1336.31 643.94 1337.01 643.133 1337.86 642.499C1338.49 642.005 1339.26 641.718 1340.06 641.676C1340.86 641.635 1341.65 641.841 1342.33 642.267C1342.53 642.349 1342.71 642.485 1342.84 642.661C1343.43 642.854 1343.94 643.22 1344.32 643.711C1344.7 644.202 1344.93 644.796 1344.97 645.415C1345.18 646.898 1344.98 648.41 1344.4 649.791C1343.82 651.173 1342.88 652.372 1341.68 653.263C1341.11 653.594 1340.46 653.77 1339.8 653.772ZM1340.06 643.98C1339.75 644.01 1339.47 644.14 1339.25 644.35C1338.66 644.784 1338.18 645.336 1337.82 645.971C1337.47 646.605 1337.25 647.307 1337.19 648.031C1337.13 648.507 1337.18 648.989 1337.34 649.442C1337.5 649.895 1337.75 650.306 1338.09 650.647C1339.48 651.851 1340.29 651.388 1340.57 651.249C1341.34 650.583 1341.94 649.736 1342.31 648.784C1342.69 647.831 1342.82 646.801 1342.7 645.786C1342.7 645.577 1342.53 644.952 1342.21 644.883C1341.91 644.827 1341.65 644.662 1341.47 644.42C1341.03 644.19 1340.55 644.041 1340.06 643.98Z" fill="black"/>
<path d="M1335.32 717.245C1334.7 717.213 1334.1 717.039 1333.56 716.738C1333.03 716.437 1332.57 716.017 1332.22 715.509C1331.11 713.864 1330.68 711.863 1330.99 709.907C1331.05 709.284 1331.24 708.679 1331.54 708.133C1331.85 707.587 1332.27 707.111 1332.77 706.736C1332.94 706.645 1333.13 706.597 1333.33 706.597C1333.52 706.597 1333.71 706.645 1333.88 706.736C1333.88 706.585 1333.92 706.436 1333.98 706.298C1334.05 706.161 1334.14 706.038 1334.25 705.938C1334.36 705.838 1334.5 705.762 1334.64 705.716C1334.78 705.67 1334.94 705.655 1335.09 705.671C1336.2 705.659 1337.29 706.05 1338.14 706.773C1338.99 707.496 1339.55 708.502 1339.72 709.606C1340.02 710.995 1339.91 712.443 1339.39 713.766C1338.87 715.09 1337.97 716.229 1336.8 717.037C1336.33 717.222 1335.82 717.293 1335.32 717.245ZM1334.58 707.801C1334.56 707.972 1334.5 708.137 1334.42 708.284C1334.33 708.432 1334.21 708.559 1334.07 708.657C1333.83 708.861 1333.65 709.11 1333.51 709.388C1333.37 709.666 1333.3 709.969 1333.28 710.278C1333.06 711.581 1333.32 712.919 1334 714.051C1334.62 714.815 1335.2 715.093 1335.69 714.861C1336.37 714.267 1336.88 713.501 1337.17 712.642C1337.46 711.784 1337.52 710.864 1337.33 709.977C1337.27 709.404 1337 708.873 1336.58 708.488C1336.15 708.102 1335.59 707.891 1335.02 707.893C1334.87 707.894 1334.72 707.862 1334.58 707.801Z" fill="black"/>
<path d="M1339.2 809.121C1338.61 809.114 1338.04 808.946 1337.55 808.635C1335.45 807.292 1335.01 803.519 1335.49 801.297C1335.96 800.756 1336.38 800.175 1336.74 799.561C1336.97 799.402 1337.17 799.197 1337.32 798.959L1337.74 798.473C1337.82 798.383 1337.92 798.312 1338.04 798.265C1338.87 797.897 1339.79 797.813 1340.67 798.027C1341.55 798.24 1342.33 798.739 1342.9 799.445C1343.9 800.67 1344.39 802.238 1344.25 803.815C1344.12 805.392 1343.38 806.856 1342.18 807.894C1341.35 808.621 1340.3 809.052 1339.2 809.121ZM1337.78 801.621C1337.78 801.621 1337.78 801.737 1337.78 801.806C1337.41 803.427 1337.78 806.042 1338.83 806.667C1339.36 807.038 1340.17 806.552 1340.77 806.089C1341.46 805.441 1341.88 804.565 1341.96 803.626C1342.04 802.687 1341.77 801.751 1341.21 800.996C1340.98 800.709 1340.68 800.489 1340.34 800.359C1340 800.228 1339.63 800.193 1339.27 800.255V800.371C1338.9 800.887 1338.43 801.315 1337.88 801.621H1337.78Z" fill="black"/>
<path d="M1142.3 526.132C1137.8 521.201 1126.44 515.183 1116.37 510.252C1107.83 506.085 1096.44 513.91 1108.66 526.965C1120.88 540.021 1143.8 546.479 1143.8 546.479" fill="#315D80"/>
<path d="M1143.8 547.637H1143.47C1142.52 547.359 1120.09 540.97 1107.8 527.822C1099.7 519.141 1102.22 513.608 1103.7 511.618C1105.3 509.781 1107.48 508.55 1109.88 508.128C1112.28 507.707 1114.75 508.122 1116.87 509.303C1126.6 514.048 1138.38 520.206 1143.15 525.507C1143.36 525.723 1143.48 526.014 1143.48 526.317C1143.48 526.62 1143.36 526.911 1143.15 527.127C1143.04 527.236 1142.91 527.322 1142.77 527.381C1142.63 527.439 1142.48 527.47 1142.33 527.47C1142.17 527.47 1142.02 527.439 1141.88 527.381C1141.74 527.322 1141.61 527.236 1141.5 527.127C1136.87 522.15 1124.72 515.854 1115.93 511.525C1114.27 510.614 1112.35 510.282 1110.49 510.584C1108.62 510.886 1106.91 511.804 1105.62 513.192C1103.31 516.34 1104.77 521.294 1109.56 526.41C1121.41 539.095 1143.93 545.53 1144.28 545.6C1144.59 545.639 1144.87 545.8 1145.06 546.045C1145.25 546.29 1145.33 546.6 1145.29 546.907C1145.25 547.214 1145.09 547.493 1144.84 547.682C1144.6 547.871 1144.29 547.954 1143.98 547.914L1143.8 547.637Z" fill="white"/>
<path d="M1304.27 437.197C1298.81 430.53 1290.64 424.72 1287.35 426.317C1284.06 427.914 1283.32 432.937 1285.66 433.979C1288 435.021 1288.83 430.785 1296.47 434.118C1303.16 437.035 1304.83 438.493 1304.27 437.197Z" fill="#000001"/>
<path d="M1304.26 438.794C1303.27 438.617 1302.33 438.248 1301.48 437.706C1300.26 437.104 1298.47 436.248 1296.02 435.183C1294.57 434.477 1293 434.068 1291.39 433.979C1290.4 433.988 1289.42 434.242 1288.54 434.72C1288.06 435.008 1287.51 435.187 1286.95 435.243C1286.38 435.299 1285.81 435.231 1285.28 435.044C1284.64 434.717 1284.1 434.215 1283.73 433.597C1283.37 432.978 1283.18 432.268 1283.2 431.549C1283.19 430.282 1283.54 429.039 1284.19 427.954C1284.84 426.868 1285.78 425.982 1286.9 425.391C1287.47 425.133 1288.08 425.006 1288.71 425.021C1293.34 425.021 1300.63 430.97 1305.23 436.595C1305.3 436.671 1305.36 436.756 1305.4 436.849C1305.52 437.08 1305.59 437.339 1305.59 437.602C1305.59 437.865 1305.52 438.123 1305.4 438.354C1305.25 438.506 1305.07 438.624 1304.88 438.7C1304.68 438.776 1304.47 438.808 1304.26 438.794ZM1291.3 431.664C1293.26 431.733 1295.18 432.206 1296.95 433.053C1298.29 433.632 1299.42 434.164 1300.4 434.627C1296.09 430.322 1291.3 427.22 1288.66 427.22C1288.38 427.211 1288.11 427.258 1287.85 427.359C1287.14 427.768 1286.55 428.359 1286.14 429.071C1285.74 429.783 1285.53 430.59 1285.53 431.41C1285.53 431.687 1285.53 432.66 1286.21 432.937H1286.48C1286.86 432.87 1287.22 432.737 1287.55 432.544C1288.71 431.966 1290 431.665 1291.3 431.664Z" fill="#000001"/>
<path d="M1416.39 373.976C1416.18 373.974 1415.98 373.918 1415.8 373.812C1415.62 373.706 1415.47 373.555 1415.37 373.374C1413.18 369.537 1411.41 365.479 1410.07 361.268C1408.43 357.104 1407.53 352.686 1407.41 348.212C1407.31 346.873 1407.59 345.534 1408.21 344.342C1408.82 343.15 1409.76 342.15 1410.9 341.453C1411.91 340.987 1413.03 340.826 1414.12 340.991C1415.22 341.155 1416.24 341.638 1417.06 342.379C1427.13 350.064 1421.9 366.129 1419.19 372.68C1419.14 372.821 1419.05 372.95 1418.95 373.058C1418.84 373.167 1418.71 373.253 1418.57 373.311C1418.43 373.369 1418.28 373.399 1418.13 373.398C1417.98 373.397 1417.83 373.365 1417.69 373.305L1417.48 373.189C1417.39 373.465 1417.2 373.697 1416.95 373.837C1416.77 373.927 1416.58 373.974 1416.39 373.976ZM1413.13 343.235C1412.72 343.228 1412.31 343.323 1411.95 343.513C1411.18 344.011 1410.57 344.702 1410.16 345.515C1409.76 346.328 1409.57 347.235 1409.63 348.143C1409.76 352.379 1410.62 356.561 1412.18 360.504C1413.4 364.363 1415.03 368.087 1417.02 371.615C1419.52 365.504 1424.31 350.782 1415.58 344.161C1414.87 343.613 1414.02 343.29 1413.13 343.235Z" fill="black"/>
<path d="M1441.94 383.84C1437.8 383.522 1433.75 382.43 1430.01 380.622L1428.42 379.974C1424.34 378.238 1419.94 376.455 1415.69 374.766C1415.44 374.66 1415.23 374.476 1415.1 374.241C1414.97 374.006 1414.93 373.734 1414.97 373.469C1415.02 373.204 1415.16 372.963 1415.36 372.79C1415.57 372.617 1415.83 372.521 1416.1 372.52C1416.15 372.353 1416.23 372.198 1416.34 372.066C1416.45 371.934 1416.59 371.828 1416.75 371.756L1419.07 370.715C1423.01 368.784 1427.14 367.271 1431.4 366.201C1437.4 364.997 1445.64 365.853 1449.16 372.266C1449.89 373.411 1450.3 374.734 1450.34 376.093C1450.38 377.452 1450.05 378.796 1449.39 379.983C1448.73 381.171 1447.75 382.156 1446.58 382.835C1445.4 383.514 1444.06 383.861 1442.7 383.84H1441.94ZM1418.67 373.469C1422.26 374.904 1425.92 376.386 1429.3 377.821L1430.87 378.469C1434.53 380.332 1438.55 381.367 1442.65 381.502C1443.63 381.556 1444.59 381.338 1445.45 380.872C1446.3 380.405 1447.01 379.71 1447.49 378.863C1447.98 378.016 1448.21 377.051 1448.17 376.078C1448.14 375.105 1447.83 374.161 1447.28 373.354C1444.37 368.076 1437.26 367.404 1432.03 368.446C1427.94 369.507 1423.97 370.973 1420.18 372.821L1418.67 373.469Z" fill="black"/>
<path d="M1429.98 385.251C1429.73 385.253 1429.49 385.172 1429.29 385.02C1428.24 384.228 1427.25 383.378 1426.3 382.473C1425.08 381.315 1423.78 380.247 1422.41 379.279C1420.65 378.186 1418.95 376.996 1417.32 375.714C1416.35 374.973 1415.35 374.233 1414.29 373.399C1409.97 369.833 1405.86 366.023 1401.97 361.987C1401.76 361.771 1401.64 361.48 1401.64 361.177C1401.64 360.874 1401.76 360.583 1401.97 360.367C1402.08 360.258 1402.21 360.172 1402.35 360.113C1402.49 360.055 1402.64 360.024 1402.79 360.024C1402.95 360.024 1403.1 360.055 1403.24 360.113C1403.38 360.172 1403.51 360.258 1403.62 360.367C1407.42 364.321 1411.45 368.054 1415.68 371.547C1416.72 372.288 1417.74 373.052 1418.73 373.862C1420.3 375.098 1421.94 376.249 1423.64 377.311C1425.13 378.337 1426.54 379.483 1427.85 380.737C1428.48 381.316 1429.1 381.872 1429.7 382.381C1429.87 382.343 1430.05 382.344 1430.22 382.382C1430.39 382.419 1430.54 382.494 1430.68 382.6C1430.82 382.706 1430.93 382.841 1431.01 382.995C1431.09 383.149 1431.13 383.319 1431.14 383.492V384.071C1431.14 384.286 1431.09 384.498 1430.98 384.682C1430.87 384.867 1430.71 385.016 1430.51 385.112C1430.35 385.205 1430.17 385.252 1429.98 385.251Z" fill="black"/>
<path d="M1441.07 226.802C1438.95 226.805 1436.86 226.29 1434.99 225.302C1433.11 224.313 1431.5 222.881 1430.31 221.13L1407.16 186.963C1405.24 184.111 1404.52 180.614 1405.17 177.237C1405.82 173.859 1407.77 170.873 1410.61 168.931L1444.78 145.782C1447.63 143.862 1451.12 143.147 1454.5 143.793C1457.88 144.439 1460.87 146.394 1462.81 149.231L1485.96 183.398C1487.89 186.247 1488.61 189.747 1487.96 193.129C1487.32 196.51 1485.36 199.496 1482.51 201.431L1448.36 224.579C1446.21 226.036 1443.67 226.81 1441.07 226.802ZM1451.97 145.782C1449.84 145.773 1447.76 146.41 1446 147.611L1411.84 170.759C1409.5 172.359 1407.89 174.817 1407.37 177.596C1406.84 180.376 1407.43 183.252 1409.01 185.598L1432.16 219.741C1433.76 222.079 1436.21 223.691 1438.99 224.224C1441.77 224.758 1444.65 224.17 1447 222.589L1481.14 199.44C1483.48 197.844 1485.09 195.388 1485.62 192.608C1486.16 189.828 1485.57 186.95 1483.99 184.602L1460.84 150.458C1459.86 149.014 1458.54 147.834 1456.99 147.022C1455.44 146.211 1453.72 145.793 1451.97 145.806V145.782Z" fill="#315D80"/>
<path d="M1316.98 119.67C1313.9 119.675 1310.89 118.766 1308.33 117.058C1305.76 115.351 1303.77 112.921 1302.59 110.078C1301.41 107.235 1301.1 104.105 1301.7 101.085C1302.3 98.0655 1303.78 95.2917 1305.95 93.1148C1308.13 90.9379 1310.91 89.4559 1313.92 88.8564C1316.94 88.2569 1320.07 88.5669 1322.92 89.7471C1325.76 90.9274 1328.19 92.9248 1329.9 95.4864C1331.61 98.0481 1332.51 101.059 1332.51 104.137C1332.5 108.255 1330.87 112.202 1327.95 115.114C1325.04 118.025 1321.09 119.664 1316.98 119.67ZM1316.98 90.8966C1314.36 90.892 1311.8 91.6647 1309.61 93.1168C1307.43 94.5689 1305.73 96.6353 1304.73 99.0543C1303.72 101.473 1303.46 104.136 1303.96 106.706C1304.47 109.276 1305.73 111.638 1307.58 113.492C1309.43 115.346 1311.79 116.609 1314.36 117.122C1316.93 117.635 1319.6 117.374 1322.02 116.373C1324.44 115.371 1326.51 113.674 1327.96 111.496C1329.42 109.318 1330.19 106.757 1330.19 104.137C1330.19 100.63 1328.8 97.2654 1326.32 94.7829C1323.85 92.3004 1320.49 90.9027 1316.98 90.8966Z" fill="#7DB3DB"/>
</svg>
