<svg width="21" height="20" viewBox="0 0 21 20" fill="none" xmlns="http://www.w3.org/2000/svg">
<path fill-rule="evenodd" clip-rule="evenodd" d="M5.01778 2.34928V3.96463L3.09074 4.12162C2.4287 4.1749 1.80365 4.44862 1.31552 4.89901C0.827391 5.3494 0.50437 5.95045 0.398105 6.60607C0.351465 6.89956 0.3071 7.19306 0.268422 7.48769C0.259214 7.55892 0.272872 7.63125 0.307425 7.69422C0.341978 7.75719 0.39564 7.80756 0.460672 7.83806L0.548265 7.87901C6.72414 10.8026 14.1195 10.8026 20.2942 7.87901L20.3818 7.83806C20.4466 7.80738 20.5001 7.75694 20.5344 7.69398C20.5687 7.63102 20.5822 7.5588 20.5729 7.48769C20.5344 7.1932 20.4915 6.8993 20.4444 6.60607C20.3381 5.95045 20.0151 5.3494 19.527 4.89901C19.0388 4.44862 18.4138 4.1749 17.7517 4.12162L15.8247 3.96577V2.35042C15.8248 1.87361 15.6538 1.41259 15.3427 1.05122C15.0317 0.689848 14.6012 0.452123 14.1297 0.381283L12.7419 0.173108C11.2034 -0.0577025 9.63908 -0.0577025 8.1006 0.173108L6.71276 0.381283C6.24144 0.452094 5.81116 0.689654 5.50012 1.05079C5.18909 1.41192 5.01794 1.87267 5.01778 2.34928ZM12.4882 1.86013C11.1179 1.6546 9.72459 1.6546 8.35428 1.86013L6.96644 2.0683C6.89911 2.07838 6.83762 2.11228 6.79316 2.16384C6.74869 2.2154 6.7242 2.2812 6.72414 2.34928V3.84519C9.18685 3.70411 11.6556 3.70411 14.1183 3.84519V2.34928C14.1183 2.2812 14.0938 2.2154 14.0493 2.16384C14.0049 2.11228 13.9434 2.07838 13.876 2.0683L12.4882 1.86013Z" fill="#51617C"/>
<path d="M20.7882 9.86788C20.786 9.8311 20.7748 9.79542 20.7557 9.7639C20.7366 9.73239 20.7101 9.70599 20.6786 9.68696C20.647 9.66794 20.6113 9.65687 20.5745 9.65469C20.5378 9.65252 20.501 9.65931 20.4674 9.67449C14.13 12.4809 6.70168 12.4809 0.364269 9.67449C0.330692 9.65931 0.293931 9.65252 0.257147 9.65469C0.220363 9.65687 0.184658 9.66794 0.1531 9.68696C0.121543 9.70599 0.0950787 9.73239 0.0759828 9.7639C0.056887 9.79542 0.0457309 9.8311 0.0434744 9.86788C-0.0727833 12.0457 0.0442943 14.2298 0.392709 16.3827C0.498742 17.0386 0.821663 17.6399 1.30981 18.0905C1.79797 18.5411 2.42314 18.815 3.08534 18.8683L5.21487 19.039C8.6765 19.3188 12.1541 19.3188 15.6168 19.039L17.7464 18.8683C18.4085 18.815 19.0337 18.5411 19.5219 18.0905C20.01 17.6399 20.333 17.0386 20.439 16.3827C20.7871 14.2271 20.9054 12.0429 20.7882 9.86902" fill="#51617C"/>
</svg>
