<svg width="20" height="24" viewBox="0 0 20 24" fill="none" xmlns="http://www.w3.org/2000/svg">
<path d="M9.75 0C12.3359 0 14.8158 1.02723 16.6443 2.85571C18.4728 4.68419 19.5 7.16414 19.5 9.75C19.5 13.87 16.605 18.36 10.89 23.268C10.5722 23.541 10.1671 23.6909 9.74813 23.6905C9.3292 23.6902 8.9243 23.5395 8.607 23.266L8.229 22.938C2.767 18.158 0 13.778 0 9.75C0 7.16414 1.02723 4.68419 2.85571 2.85571C4.68419 1.02723 7.16414 0 9.75 0ZM9.75 6C8.75544 6 7.80161 6.39509 7.09835 7.09835C6.39509 7.80161 6 8.75544 6 9.75C6 10.7446 6.39509 11.6984 7.09835 12.4017C7.80161 13.1049 8.75544 13.5 9.75 13.5C10.7446 13.5 11.6984 13.1049 12.4017 12.4017C13.1049 11.6984 13.5 10.7446 13.5 9.75C13.5 8.75544 13.1049 7.80161 12.4017 7.09835C11.6984 6.39509 10.7446 6 9.75 6Z" fill="white"/>
</svg>
