<svg width="319" height="51" viewBox="0 0 319 51" fill="none" xmlns="http://www.w3.org/2000/svg">
<g filter="url(#filter0_i_1390_10987)">
<rect width="319" height="51" rx="25.5" fill="#EDF2FA"/>
</g>
<path d="M95.7179 26.402V24.694H97.8459C98.1166 24.694 98.3639 24.638 98.5879 24.526C98.8119 24.414 98.9893 24.2507 99.1199 24.036C99.2506 23.8213 99.3159 23.56 99.3159 23.252C99.3159 22.9533 99.2506 22.6967 99.1199 22.482C98.9893 22.2673 98.8119 22.104 98.5879 21.992C98.3639 21.88 98.1166 21.824 97.8459 21.824H95.7179V20.116H98.1679C98.7933 20.116 99.3579 20.242 99.8619 20.494C100.366 20.746 100.763 21.11 101.052 21.586C101.351 22.0527 101.5 22.608 101.5 23.252C101.5 23.896 101.351 24.456 101.052 24.932C100.763 25.3987 100.366 25.7627 99.8619 26.024C99.3579 26.276 98.7933 26.402 98.1679 26.402H95.7179ZM94.0379 30V20.116H96.2359V30H94.0379ZM105.706 30.154C104.969 30.154 104.311 30.0047 103.732 29.706C103.163 29.398 102.715 28.9733 102.388 28.432C102.061 27.8907 101.898 27.2793 101.898 26.598C101.898 25.9167 102.057 25.31 102.374 24.778C102.701 24.2367 103.139 23.812 103.69 23.504C104.241 23.196 104.861 23.042 105.552 23.042C106.224 23.042 106.817 23.1867 107.33 23.476C107.843 23.7653 108.245 24.1667 108.534 24.68C108.833 25.1933 108.982 25.7813 108.982 26.444C108.982 26.5653 108.973 26.696 108.954 26.836C108.945 26.9667 108.921 27.1207 108.884 27.298L103.018 27.312V25.842L107.974 25.828L107.05 26.444C107.041 26.052 106.98 25.73 106.868 25.478C106.756 25.2167 106.588 25.0207 106.364 24.89C106.149 24.75 105.883 24.68 105.566 24.68C105.23 24.68 104.936 24.7593 104.684 24.918C104.441 25.0673 104.25 25.282 104.11 25.562C103.979 25.842 103.914 26.1827 103.914 26.584C103.914 26.9853 103.984 27.3307 104.124 27.62C104.273 27.9 104.479 28.1193 104.74 28.278C105.011 28.4273 105.328 28.502 105.692 28.502C106.028 28.502 106.331 28.446 106.602 28.334C106.873 28.2127 107.111 28.0353 107.316 27.802L108.492 28.978C108.156 29.37 107.75 29.664 107.274 29.86C106.798 30.056 106.275 30.154 105.706 30.154ZM110.016 30V23.196H112.158V30H110.016ZM112.158 26.262L111.262 25.562C111.439 24.7687 111.738 24.1527 112.158 23.714C112.578 23.2753 113.161 23.056 113.908 23.056C114.234 23.056 114.519 23.1073 114.762 23.21C115.014 23.3033 115.233 23.4527 115.42 23.658L114.146 25.268C114.052 25.1653 113.936 25.086 113.796 25.03C113.656 24.974 113.497 24.946 113.32 24.946C112.965 24.946 112.68 25.058 112.466 25.282C112.26 25.4967 112.158 25.8233 112.158 26.262ZM118.318 30.168C117.917 30.168 117.52 30.1167 117.128 30.014C116.745 29.9113 116.386 29.7667 116.05 29.58C115.723 29.384 115.443 29.16 115.21 28.908L116.428 27.676C116.652 27.9187 116.918 28.11 117.226 28.25C117.534 28.3807 117.87 28.446 118.234 28.446C118.486 28.446 118.677 28.4087 118.808 28.334C118.948 28.2593 119.018 28.1567 119.018 28.026C119.018 27.858 118.934 27.732 118.766 27.648C118.607 27.5547 118.402 27.4753 118.15 27.41C117.898 27.3353 117.632 27.256 117.352 27.172C117.072 27.088 116.806 26.9713 116.554 26.822C116.302 26.6727 116.097 26.4673 115.938 26.206C115.779 25.9353 115.7 25.5947 115.7 25.184C115.7 24.7453 115.812 24.3673 116.036 24.05C116.26 23.7233 116.577 23.4667 116.988 23.28C117.399 23.0933 117.879 23 118.43 23C119.009 23 119.541 23.1027 120.026 23.308C120.521 23.504 120.922 23.798 121.23 24.19L120.012 25.422C119.797 25.17 119.555 24.9927 119.284 24.89C119.023 24.7873 118.766 24.736 118.514 24.736C118.271 24.736 118.089 24.7733 117.968 24.848C117.847 24.9133 117.786 25.0113 117.786 25.142C117.786 25.282 117.865 25.394 118.024 25.478C118.183 25.562 118.388 25.6367 118.64 25.702C118.892 25.7673 119.158 25.8467 119.438 25.94C119.718 26.0333 119.984 26.1593 120.236 26.318C120.488 26.4767 120.693 26.6913 120.852 26.962C121.011 27.2233 121.09 27.5687 121.09 27.998C121.09 28.6607 120.838 29.188 120.334 29.58C119.839 29.972 119.167 30.168 118.318 30.168ZM125.528 30.154C124.828 30.154 124.193 30 123.624 29.692C123.064 29.3747 122.621 28.9453 122.294 28.404C121.967 27.8627 121.804 27.256 121.804 26.584C121.804 25.912 121.967 25.31 122.294 24.778C122.621 24.246 123.064 23.826 123.624 23.518C124.184 23.2007 124.819 23.042 125.528 23.042C126.237 23.042 126.872 23.196 127.432 23.504C127.992 23.812 128.435 24.2367 128.762 24.778C129.089 25.31 129.252 25.912 129.252 26.584C129.252 27.256 129.089 27.8627 128.762 28.404C128.435 28.9453 127.992 29.3747 127.432 29.692C126.872 30 126.237 30.154 125.528 30.154ZM125.528 28.208C125.836 28.208 126.107 28.1427 126.34 28.012C126.573 27.872 126.751 27.6807 126.872 27.438C127.003 27.186 127.068 26.9013 127.068 26.584C127.068 26.2667 127.003 25.9913 126.872 25.758C126.741 25.5153 126.559 25.3287 126.326 25.198C126.102 25.058 125.836 24.988 125.528 24.988C125.229 24.988 124.963 25.058 124.73 25.198C124.497 25.3287 124.315 25.5153 124.184 25.758C124.053 26.0007 123.988 26.2807 123.988 26.598C123.988 26.906 124.053 27.186 124.184 27.438C124.315 27.6807 124.497 27.872 124.73 28.012C124.963 28.1427 125.229 28.208 125.528 28.208ZM134.813 30V26.122C134.813 25.7673 134.701 25.4827 134.477 25.268C134.262 25.044 133.987 24.932 133.651 24.932C133.417 24.932 133.212 24.9833 133.035 25.086C132.857 25.1793 132.717 25.3193 132.615 25.506C132.512 25.6833 132.461 25.8887 132.461 26.122L131.635 25.716C131.635 25.184 131.751 24.7173 131.985 24.316C132.218 23.9147 132.54 23.6067 132.951 23.392C133.371 23.168 133.842 23.056 134.365 23.056C134.869 23.056 135.312 23.1773 135.695 23.42C136.087 23.6533 136.395 23.966 136.619 24.358C136.843 24.75 136.954 25.1793 136.954 25.646V30H134.813ZM130.319 30V23.196H132.461V30H130.319ZM141.172 30.14C140.547 30.14 139.987 29.986 139.492 29.678C139.007 29.37 138.62 28.95 138.33 28.418C138.05 27.886 137.91 27.2793 137.91 26.598C137.91 25.9167 138.05 25.31 138.33 24.778C138.62 24.246 139.007 23.826 139.492 23.518C139.987 23.21 140.547 23.056 141.172 23.056C141.63 23.056 142.04 23.1447 142.404 23.322C142.778 23.4993 143.081 23.7467 143.314 24.064C143.548 24.372 143.678 24.7267 143.706 25.128V28.068C143.678 28.4693 143.548 28.8287 143.314 29.146C143.09 29.454 142.792 29.6967 142.418 29.874C142.045 30.0513 141.63 30.14 141.172 30.14ZM141.606 28.208C142.064 28.208 142.432 28.0587 142.712 27.76C142.992 27.452 143.132 27.0647 143.132 26.598C143.132 26.2807 143.067 26.0007 142.936 25.758C142.815 25.5153 142.638 25.3287 142.404 25.198C142.18 25.058 141.919 24.988 141.62 24.988C141.322 24.988 141.056 25.058 140.822 25.198C140.598 25.3287 140.416 25.5153 140.276 25.758C140.146 26.0007 140.08 26.2807 140.08 26.598C140.08 26.906 140.146 27.1813 140.276 27.424C140.407 27.6667 140.589 27.858 140.822 27.998C141.056 28.138 141.317 28.208 141.606 28.208ZM143.048 30V28.166L143.37 26.514L143.048 24.862V23.196H145.148V30H143.048ZM146.656 30V19.836H148.798V30H146.656ZM153.169 30V20.116H155.367V30H153.169ZM161.568 30V26.122C161.568 25.7673 161.456 25.4827 161.232 25.268C161.018 25.044 160.742 24.932 160.406 24.932C160.173 24.932 159.968 24.9833 159.79 25.086C159.613 25.1793 159.473 25.3193 159.37 25.506C159.268 25.6833 159.216 25.8887 159.216 26.122L158.39 25.716C158.39 25.184 158.507 24.7173 158.74 24.316C158.974 23.9147 159.296 23.6067 159.706 23.392C160.126 23.168 160.598 23.056 161.12 23.056C161.624 23.056 162.068 23.1773 162.45 23.42C162.842 23.6533 163.15 23.966 163.374 24.358C163.598 24.75 163.71 25.1793 163.71 25.646V30H161.568ZM157.074 30V23.196H159.216V30H157.074ZM165.872 30V22.608C165.872 22.0573 165.993 21.5627 166.236 21.124C166.488 20.676 166.838 20.326 167.286 20.074C167.734 19.8127 168.266 19.682 168.882 19.682C169.349 19.682 169.755 19.7613 170.1 19.92C170.455 20.0693 170.763 20.2793 171.024 20.55L169.68 21.894C169.587 21.8007 169.479 21.7307 169.358 21.684C169.246 21.628 169.111 21.6 168.952 21.6C168.663 21.6 168.434 21.684 168.266 21.852C168.098 22.02 168.014 22.2487 168.014 22.538V30H165.872ZM164.374 25.016V23.196H169.974V25.016H164.374ZM174.077 30.154C173.377 30.154 172.742 30 172.173 29.692C171.613 29.3747 171.17 28.9453 170.843 28.404C170.516 27.8627 170.353 27.256 170.353 26.584C170.353 25.912 170.516 25.31 170.843 24.778C171.17 24.246 171.613 23.826 172.173 23.518C172.733 23.2007 173.368 23.042 174.077 23.042C174.786 23.042 175.421 23.196 175.981 23.504C176.541 23.812 176.984 24.2367 177.311 24.778C177.638 25.31 177.801 25.912 177.801 26.584C177.801 27.256 177.638 27.8627 177.311 28.404C176.984 28.9453 176.541 29.3747 175.981 29.692C175.421 30 174.786 30.154 174.077 30.154ZM174.077 28.208C174.385 28.208 174.656 28.1427 174.889 28.012C175.122 27.872 175.3 27.6807 175.421 27.438C175.552 27.186 175.617 26.9013 175.617 26.584C175.617 26.2667 175.552 25.9913 175.421 25.758C175.29 25.5153 175.108 25.3287 174.875 25.198C174.651 25.058 174.385 24.988 174.077 24.988C173.778 24.988 173.512 25.058 173.279 25.198C173.046 25.3287 172.864 25.5153 172.733 25.758C172.602 26.0007 172.537 26.2807 172.537 26.598C172.537 26.906 172.602 27.186 172.733 27.438C172.864 27.6807 173.046 27.872 173.279 28.012C173.512 28.1427 173.778 28.208 174.077 28.208ZM178.867 30V23.196H181.009V30H178.867ZM181.009 26.262L180.113 25.562C180.291 24.7687 180.589 24.1527 181.009 23.714C181.429 23.2753 182.013 23.056 182.759 23.056C183.086 23.056 183.371 23.1073 183.613 23.21C183.865 23.3033 184.085 23.4527 184.271 23.658L182.997 25.268C182.904 25.1653 182.787 25.086 182.647 25.03C182.507 24.974 182.349 24.946 182.171 24.946C181.817 24.946 181.532 25.058 181.317 25.282C181.112 25.4967 181.009 25.8233 181.009 26.262ZM184.801 30V23.196H186.943V30H184.801ZM189.155 30V26.024C189.155 25.6787 189.048 25.4127 188.833 25.226C188.628 25.03 188.371 24.932 188.063 24.932C187.848 24.932 187.657 24.9787 187.489 25.072C187.321 25.156 187.186 25.2773 187.083 25.436C186.99 25.5947 186.943 25.7907 186.943 26.024L186.117 25.66C186.117 25.1187 186.234 24.6567 186.467 24.274C186.7 23.882 187.018 23.5833 187.419 23.378C187.82 23.1633 188.273 23.056 188.777 23.056C189.253 23.056 189.678 23.1633 190.051 23.378C190.434 23.5927 190.737 23.8913 190.961 24.274C191.185 24.6567 191.297 25.114 191.297 25.646V30H189.155ZM193.509 30V26.024C193.509 25.6787 193.402 25.4127 193.187 25.226C192.982 25.03 192.725 24.932 192.417 24.932C192.202 24.932 192.011 24.9787 191.843 25.072C191.675 25.156 191.54 25.2773 191.437 25.436C191.344 25.5947 191.297 25.7907 191.297 26.024L190.065 25.856C190.084 25.2773 190.219 24.7827 190.471 24.372C190.732 23.952 191.073 23.63 191.493 23.406C191.922 23.1727 192.403 23.056 192.935 23.056C193.458 23.056 193.92 23.168 194.321 23.392C194.732 23.6067 195.054 23.9193 195.287 24.33C195.53 24.7313 195.651 25.2167 195.651 25.786V30H193.509ZM199.866 30.14C199.24 30.14 198.68 29.986 198.186 29.678C197.7 29.37 197.313 28.95 197.024 28.418C196.744 27.886 196.604 27.2793 196.604 26.598C196.604 25.9167 196.744 25.31 197.024 24.778C197.313 24.246 197.7 23.826 198.186 23.518C198.68 23.21 199.24 23.056 199.866 23.056C200.323 23.056 200.734 23.1447 201.098 23.322C201.471 23.4993 201.774 23.7467 202.008 24.064C202.241 24.372 202.372 24.7267 202.4 25.128V28.068C202.372 28.4693 202.241 28.8287 202.008 29.146C201.784 29.454 201.485 29.6967 201.112 29.874C200.738 30.0513 200.323 30.14 199.866 30.14ZM200.3 28.208C200.757 28.208 201.126 28.0587 201.406 27.76C201.686 27.452 201.826 27.0647 201.826 26.598C201.826 26.2807 201.76 26.0007 201.63 25.758C201.508 25.5153 201.331 25.3287 201.098 25.198C200.874 25.058 200.612 24.988 200.314 24.988C200.015 24.988 199.749 25.058 199.516 25.198C199.292 25.3287 199.11 25.5153 198.97 25.758C198.839 26.0007 198.774 26.2807 198.774 26.598C198.774 26.906 198.839 27.1813 198.97 27.424C199.1 27.6667 199.282 27.858 199.516 27.998C199.749 28.138 200.01 28.208 200.3 28.208ZM201.742 30V28.166L202.064 26.514L201.742 24.862V23.196H203.842V30H201.742ZM206.316 30V20.382H208.458V30H206.316ZM204.776 25.016V23.196H209.998V25.016H204.776ZM210.942 30V23.196H213.084V30H210.942ZM212.02 22.258C211.684 22.258 211.404 22.146 211.18 21.922C210.965 21.6887 210.858 21.4087 210.858 21.082C210.858 20.746 210.965 20.466 211.18 20.242C211.404 20.018 211.684 19.906 212.02 19.906C212.356 19.906 212.631 20.018 212.846 20.242C213.06 20.466 213.168 20.746 213.168 21.082C213.168 21.4087 213.06 21.6887 212.846 21.922C212.631 22.146 212.356 22.258 212.02 22.258ZM217.868 30.154C217.168 30.154 216.533 30 215.964 29.692C215.404 29.3747 214.961 28.9453 214.634 28.404C214.307 27.8627 214.144 27.256 214.144 26.584C214.144 25.912 214.307 25.31 214.634 24.778C214.961 24.246 215.404 23.826 215.964 23.518C216.524 23.2007 217.159 23.042 217.868 23.042C218.577 23.042 219.212 23.196 219.772 23.504C220.332 23.812 220.775 24.2367 221.102 24.778C221.429 25.31 221.592 25.912 221.592 26.584C221.592 27.256 221.429 27.8627 221.102 28.404C220.775 28.9453 220.332 29.3747 219.772 29.692C219.212 30 218.577 30.154 217.868 30.154ZM217.868 28.208C218.176 28.208 218.447 28.1427 218.68 28.012C218.913 27.872 219.091 27.6807 219.212 27.438C219.343 27.186 219.408 26.9013 219.408 26.584C219.408 26.2667 219.343 25.9913 219.212 25.758C219.081 25.5153 218.899 25.3287 218.666 25.198C218.442 25.058 218.176 24.988 217.868 24.988C217.569 24.988 217.303 25.058 217.07 25.198C216.837 25.3287 216.655 25.5153 216.524 25.758C216.393 26.0007 216.328 26.2807 216.328 26.598C216.328 26.906 216.393 27.186 216.524 27.438C216.655 27.6807 216.837 27.872 217.07 28.012C217.303 28.1427 217.569 28.208 217.868 28.208ZM227.152 30V26.122C227.152 25.7673 227.04 25.4827 226.816 25.268C226.602 25.044 226.326 24.932 225.99 24.932C225.757 24.932 225.552 24.9833 225.374 25.086C225.197 25.1793 225.057 25.3193 224.954 25.506C224.852 25.6833 224.8 25.8887 224.8 26.122L223.974 25.716C223.974 25.184 224.091 24.7173 224.324 24.316C224.558 23.9147 224.88 23.6067 225.29 23.392C225.71 23.168 226.182 23.056 226.704 23.056C227.208 23.056 227.652 23.1773 228.034 23.42C228.426 23.6533 228.734 23.966 228.958 24.358C229.182 24.75 229.294 25.1793 229.294 25.646V30H227.152ZM222.658 30V23.196H224.8V30H222.658Z" fill="#315D80"/>
<defs>
<filter id="filter0_i_1390_10987" x="0" y="0" width="323" height="56" filterUnits="userSpaceOnUse" color-interpolation-filters="sRGB">
<feFlood flood-opacity="0" result="BackgroundImageFix"/>
<feBlend mode="normal" in="SourceGraphic" in2="BackgroundImageFix" result="shape"/>
<feColorMatrix in="SourceAlpha" type="matrix" values="0 0 0 0 0 0 0 0 0 0 0 0 0 0 0 0 0 0 127 0" result="hardAlpha"/>
<feOffset dx="4" dy="5"/>
<feGaussianBlur stdDeviation="2.5"/>
<feComposite in2="hardAlpha" operator="arithmetic" k2="-1" k3="1"/>
<feColorMatrix type="matrix" values="0 0 0 0 0.221667 0 0 0 0 0.487936 0 0 0 0 0.933333 0 0 0 0.12 0"/>
<feBlend mode="normal" in2="shape" result="effect1_innerShadow_1390_10987"/>
</filter>
</defs>
</svg>
