<svg width="463" height="74" viewBox="0 0 463 74" fill="none" xmlns="http://www.w3.org/2000/svg">
<g filter="url(#filter0_i_1390_10983)">
<rect width="462.863" height="74" rx="36" fill="#EDF2FA"/>
</g>
<path d="M141.01 43.2158V29.0958H143.25L148.81 37.7558H147.67L153.21 29.0958H155.47V43.2158H152.33V34.3958L152.89 34.5358L149.27 40.1758H147.19L143.59 34.5358L144.13 34.3958V43.2158H141.01ZM161.958 43.4158C161.064 43.4158 160.264 43.1958 159.558 42.7558C158.864 42.3158 158.311 41.7158 157.898 40.9558C157.498 40.1958 157.298 39.3292 157.298 38.3558C157.298 37.3825 157.498 36.5158 157.898 35.7558C158.311 34.9958 158.864 34.3958 159.558 33.9558C160.264 33.5158 161.064 33.2958 161.958 33.2958C162.611 33.2958 163.198 33.4225 163.718 33.6758C164.251 33.9292 164.684 34.2825 165.018 34.7358C165.351 35.1758 165.538 35.6825 165.578 36.2558V40.4558C165.538 41.0292 165.351 41.5425 165.018 41.9958C164.698 42.4358 164.271 42.7825 163.738 43.0358C163.204 43.2892 162.611 43.4158 161.958 43.4158ZM162.578 40.6558C163.231 40.6558 163.758 40.4425 164.158 40.0158C164.558 39.5758 164.758 39.0225 164.758 38.3558C164.758 37.9025 164.664 37.5025 164.478 37.1558C164.304 36.8092 164.051 36.5425 163.718 36.3558C163.398 36.1558 163.024 36.0558 162.598 36.0558C162.171 36.0558 161.791 36.1558 161.458 36.3558C161.138 36.5425 160.878 36.8092 160.678 37.1558C160.491 37.5025 160.398 37.9025 160.398 38.3558C160.398 38.7958 160.491 39.1892 160.678 39.5358C160.864 39.8825 161.124 40.1558 161.458 40.3558C161.791 40.5558 162.164 40.6558 162.578 40.6558ZM164.638 43.2158V40.5958L165.098 38.2358L164.638 35.8758V33.4958H167.638V43.2158H164.638ZM169.792 43.2158V33.4958H172.852V43.2158H169.792ZM171.332 32.1558C170.852 32.1558 170.452 31.9958 170.132 31.6758C169.825 31.3425 169.672 30.9425 169.672 30.4758C169.672 29.9958 169.825 29.5958 170.132 29.2758C170.452 28.9558 170.852 28.7958 171.332 28.7958C171.812 28.7958 172.205 28.9558 172.512 29.2758C172.819 29.5958 172.972 29.9958 172.972 30.4758C172.972 30.9425 172.819 31.3425 172.512 31.6758C172.205 31.9958 171.812 32.1558 171.332 32.1558ZM181.427 43.2158V37.6758C181.427 37.1692 181.267 36.7625 180.947 36.4558C180.64 36.1358 180.247 35.9758 179.767 35.9758C179.434 35.9758 179.14 36.0492 178.887 36.1958C178.634 36.3292 178.434 36.5292 178.287 36.7958C178.14 37.0492 178.067 37.3425 178.067 37.6758L176.887 37.0958C176.887 36.3358 177.054 35.6692 177.387 35.0958C177.72 34.5225 178.18 34.0825 178.767 33.7758C179.367 33.4558 180.04 33.2958 180.787 33.2958C181.507 33.2958 182.14 33.4692 182.687 33.8158C183.247 34.1492 183.687 34.5958 184.007 35.1558C184.327 35.7158 184.487 36.3292 184.487 36.9958V43.2158H181.427ZM175.007 43.2158V33.4958H178.067V43.2158H175.007ZM187.715 43.2158V29.4758H190.775V43.2158H187.715ZM185.515 36.0958V33.4958H192.975V36.0958H185.515ZM198.928 43.4358C197.875 43.4358 196.935 43.2225 196.108 42.7958C195.295 42.3558 194.655 41.7492 194.188 40.9758C193.721 40.2025 193.488 39.3292 193.488 38.3558C193.488 37.3825 193.715 36.5158 194.168 35.7558C194.635 34.9825 195.261 34.3758 196.048 33.9358C196.835 33.4958 197.721 33.2758 198.708 33.2758C199.668 33.2758 200.515 33.4825 201.248 33.8958C201.981 34.3092 202.555 34.8825 202.968 35.6158C203.395 36.3492 203.608 37.1892 203.608 38.1358C203.608 38.3092 203.595 38.4958 203.568 38.6958C203.555 38.8825 203.521 39.1025 203.468 39.3558L195.088 39.3758V37.2758L202.168 37.2558L200.848 38.1358C200.835 37.5758 200.748 37.1158 200.588 36.7558C200.428 36.3825 200.188 36.1025 199.868 35.9158C199.561 35.7158 199.181 35.6158 198.728 35.6158C198.248 35.6158 197.828 35.7292 197.468 35.9558C197.121 36.1692 196.848 36.4758 196.648 36.8758C196.461 37.2758 196.368 37.7625 196.368 38.3358C196.368 38.9092 196.468 39.4025 196.668 39.8158C196.881 40.2158 197.175 40.5292 197.548 40.7558C197.935 40.9692 198.388 41.0758 198.908 41.0758C199.388 41.0758 199.821 40.9958 200.208 40.8358C200.595 40.6625 200.935 40.4092 201.228 40.0758L202.908 41.7558C202.428 42.3158 201.848 42.7358 201.168 43.0158C200.488 43.2958 199.741 43.4358 198.928 43.4358ZM211.505 43.2158V37.6758C211.505 37.1692 211.345 36.7625 211.025 36.4558C210.718 36.1358 210.325 35.9758 209.845 35.9758C209.512 35.9758 209.218 36.0492 208.965 36.1958C208.712 36.3292 208.512 36.5292 208.365 36.7958C208.218 37.0492 208.145 37.3425 208.145 37.6758L206.965 37.0958C206.965 36.3358 207.132 35.6692 207.465 35.0958C207.798 34.5225 208.258 34.0825 208.845 33.7758C209.445 33.4558 210.118 33.2958 210.865 33.2958C211.585 33.2958 212.218 33.4692 212.765 33.8158C213.325 34.1492 213.765 34.5958 214.085 35.1558C214.405 35.7158 214.565 36.3292 214.565 36.9958V43.2158H211.505ZM205.085 43.2158V33.4958H208.145V43.2158H205.085ZM220.59 43.4158C219.697 43.4158 218.897 43.1958 218.19 42.7558C217.497 42.3158 216.944 41.7158 216.53 40.9558C216.13 40.1958 215.93 39.3292 215.93 38.3558C215.93 37.3825 216.13 36.5158 216.53 35.7558C216.944 34.9958 217.497 34.3958 218.19 33.9558C218.897 33.5158 219.697 33.2958 220.59 33.2958C221.244 33.2958 221.83 33.4225 222.35 33.6758C222.884 33.9292 223.317 34.2825 223.65 34.7358C223.984 35.1758 224.17 35.6825 224.21 36.2558V40.4558C224.17 41.0292 223.984 41.5425 223.65 41.9958C223.33 42.4358 222.904 42.7825 222.37 43.0358C221.837 43.2892 221.244 43.4158 220.59 43.4158ZM221.21 40.6558C221.864 40.6558 222.39 40.4425 222.79 40.0158C223.19 39.5758 223.39 39.0225 223.39 38.3558C223.39 37.9025 223.297 37.5025 223.11 37.1558C222.937 36.8092 222.684 36.5425 222.35 36.3558C222.03 36.1558 221.657 36.0558 221.23 36.0558C220.804 36.0558 220.424 36.1558 220.09 36.3558C219.77 36.5425 219.51 36.8092 219.31 37.1558C219.124 37.5025 219.03 37.9025 219.03 38.3558C219.03 38.7958 219.124 39.1892 219.31 39.5358C219.497 39.8825 219.757 40.1558 220.09 40.3558C220.424 40.5558 220.797 40.6558 221.21 40.6558ZM223.27 43.2158V40.5958L223.73 38.2358L223.27 35.8758V33.4958H226.27V43.2158H223.27ZM234.845 43.2158V37.6758C234.845 37.1692 234.685 36.7625 234.365 36.4558C234.058 36.1358 233.665 35.9758 233.185 35.9758C232.852 35.9758 232.558 36.0492 232.305 36.1958C232.052 36.3292 231.852 36.5292 231.705 36.7958C231.558 37.0492 231.485 37.3425 231.485 37.6758L230.305 37.0958C230.305 36.3358 230.472 35.6692 230.805 35.0958C231.138 34.5225 231.598 34.0825 232.185 33.7758C232.785 33.4558 233.458 33.2958 234.205 33.2958C234.925 33.2958 235.558 33.4692 236.105 33.8158C236.665 34.1492 237.105 34.5958 237.425 35.1558C237.745 35.7158 237.905 36.3292 237.905 36.9958V43.2158H234.845ZM228.425 43.2158V33.4958H231.485V43.2158H228.425ZM244.57 43.4358C243.57 43.4358 242.664 43.2158 241.85 42.7758C241.037 42.3358 240.397 41.7292 239.93 40.9558C239.464 40.1825 239.23 39.3158 239.23 38.3558C239.23 37.3825 239.464 36.5158 239.93 35.7558C240.41 34.9825 241.057 34.3758 241.87 33.9358C242.684 33.4958 243.597 33.2758 244.61 33.2758C245.37 33.2758 246.064 33.4092 246.69 33.6758C247.33 33.9292 247.897 34.3158 248.39 34.8358L246.43 36.7958C246.204 36.5425 245.937 36.3558 245.63 36.2358C245.337 36.1158 244.997 36.0558 244.61 36.0558C244.17 36.0558 243.777 36.1558 243.43 36.3558C243.097 36.5425 242.83 36.8092 242.63 37.1558C242.444 37.4892 242.35 37.8825 242.35 38.3358C242.35 38.7892 242.444 39.1892 242.63 39.5358C242.83 39.8825 243.104 40.1558 243.45 40.3558C243.797 40.5558 244.184 40.6558 244.61 40.6558C245.01 40.6558 245.364 40.5892 245.67 40.4558C245.99 40.3092 246.264 40.1092 246.49 39.8558L248.43 41.8158C247.924 42.3492 247.35 42.7558 246.71 43.0358C246.07 43.3025 245.357 43.4358 244.57 43.4358ZM254.358 43.4358C253.304 43.4358 252.364 43.2225 251.538 42.7958C250.724 42.3558 250.084 41.7492 249.618 40.9758C249.151 40.2025 248.918 39.3292 248.918 38.3558C248.918 37.3825 249.144 36.5158 249.598 35.7558C250.064 34.9825 250.691 34.3758 251.478 33.9358C252.264 33.4958 253.151 33.2758 254.138 33.2758C255.098 33.2758 255.944 33.4825 256.678 33.8958C257.411 34.3092 257.984 34.8825 258.398 35.6158C258.824 36.3492 259.038 37.1892 259.038 38.1358C259.038 38.3092 259.024 38.4958 258.998 38.6958C258.984 38.8825 258.951 39.1025 258.898 39.3558L250.518 39.3758V37.2758L257.598 37.2558L256.278 38.1358C256.264 37.5758 256.178 37.1158 256.018 36.7558C255.858 36.3825 255.618 36.1025 255.298 35.9158C254.991 35.7158 254.611 35.6158 254.158 35.6158C253.678 35.6158 253.258 35.7292 252.898 35.9558C252.551 36.1692 252.278 36.4758 252.078 36.8758C251.891 37.2758 251.798 37.7625 251.798 38.3358C251.798 38.9092 251.898 39.4025 252.098 39.8158C252.311 40.2158 252.604 40.5292 252.978 40.7558C253.364 40.9692 253.818 41.0758 254.338 41.0758C254.818 41.0758 255.251 40.9958 255.638 40.8358C256.024 40.6625 256.364 40.4092 256.658 40.0758L258.338 41.7558C257.858 42.3158 257.278 42.7358 256.598 43.0158C255.918 43.2958 255.171 43.4358 254.358 43.4358ZM267.751 43.2158V29.2958H270.891V43.2158H267.751ZM263.331 31.8358V29.0958H275.311V31.8358H263.331ZM276.784 43.2158V33.4958H279.844V43.2158H276.784ZM278.324 32.1558C277.844 32.1558 277.444 31.9958 277.124 31.6758C276.818 31.3425 276.664 30.9425 276.664 30.4758C276.664 29.9958 276.818 29.5958 277.124 29.2758C277.444 28.9558 277.844 28.7958 278.324 28.7958C278.804 28.7958 279.198 28.9558 279.504 29.2758C279.811 29.5958 279.964 29.9958 279.964 30.4758C279.964 30.9425 279.811 31.3425 279.504 31.6758C279.198 31.9958 278.804 32.1558 278.324 32.1558ZM286.699 43.4358C285.699 43.4358 284.792 43.2158 283.979 42.7758C283.166 42.3358 282.526 41.7292 282.059 40.9558C281.592 40.1825 281.359 39.3158 281.359 38.3558C281.359 37.3825 281.592 36.5158 282.059 35.7558C282.539 34.9825 283.186 34.3758 283.999 33.9358C284.812 33.4958 285.726 33.2758 286.739 33.2758C287.499 33.2758 288.192 33.4092 288.819 33.6758C289.459 33.9292 290.026 34.3158 290.519 34.8358L288.559 36.7958C288.332 36.5425 288.066 36.3558 287.759 36.2358C287.466 36.1158 287.126 36.0558 286.739 36.0558C286.299 36.0558 285.906 36.1558 285.559 36.3558C285.226 36.5425 284.959 36.8092 284.759 37.1558C284.572 37.4892 284.479 37.8825 284.479 38.3358C284.479 38.7892 284.572 39.1892 284.759 39.5358C284.959 39.8825 285.232 40.1558 285.579 40.3558C285.926 40.5558 286.312 40.6558 286.739 40.6558C287.139 40.6558 287.492 40.5892 287.799 40.4558C288.119 40.3092 288.392 40.1092 288.619 39.8558L290.559 41.8158C290.052 42.3492 289.479 42.7558 288.839 43.0358C288.199 43.3025 287.486 43.4358 286.699 43.4358ZM298.141 43.2158L294.741 38.1758L298.121 33.4958H301.541L297.461 38.7558L297.561 37.4958L301.741 43.2158H298.141ZM291.921 43.2158V28.6958H294.981V43.2158H291.921ZM307.209 43.4358C306.156 43.4358 305.216 43.2225 304.389 42.7958C303.576 42.3558 302.936 41.7492 302.469 40.9758C302.003 40.2025 301.769 39.3292 301.769 38.3558C301.769 37.3825 301.996 36.5158 302.449 35.7558C302.916 34.9825 303.543 34.3758 304.329 33.9358C305.116 33.4958 306.003 33.2758 306.989 33.2758C307.949 33.2758 308.796 33.4825 309.529 33.8958C310.263 34.3092 310.836 34.8825 311.249 35.6158C311.676 36.3492 311.889 37.1892 311.889 38.1358C311.889 38.3092 311.876 38.4958 311.849 38.6958C311.836 38.8825 311.803 39.1025 311.749 39.3558L303.369 39.3758V37.2758L310.449 37.2558L309.129 38.1358C309.116 37.5758 309.029 37.1158 308.869 36.7558C308.709 36.3825 308.469 36.1025 308.149 35.9158C307.843 35.7158 307.463 35.6158 307.009 35.6158C306.529 35.6158 306.109 35.7292 305.749 35.9558C305.403 36.1692 305.129 36.4758 304.929 36.8758C304.743 37.2758 304.649 37.7625 304.649 38.3358C304.649 38.9092 304.749 39.4025 304.949 39.8158C305.163 40.2158 305.456 40.5292 305.829 40.7558C306.216 40.9692 306.669 41.0758 307.189 41.0758C307.669 41.0758 308.103 40.9958 308.489 40.8358C308.876 40.6625 309.216 40.4092 309.509 40.0758L311.189 41.7558C310.709 42.3158 310.129 42.7358 309.449 43.0158C308.769 43.2958 308.023 43.4358 307.209 43.4358ZM314.531 43.2158V29.4758H317.591V43.2158H314.531ZM312.331 36.0958V33.4958H319.791V36.0958H312.331ZM324.484 43.4558C323.911 43.4558 323.344 43.3825 322.784 43.2358C322.238 43.0892 321.724 42.8825 321.244 42.6158C320.778 42.3358 320.378 42.0158 320.044 41.6558L321.784 39.8958C322.104 40.2425 322.484 40.5158 322.924 40.7158C323.364 40.9025 323.844 40.9958 324.364 40.9958C324.724 40.9958 324.998 40.9425 325.184 40.8358C325.384 40.7292 325.484 40.5825 325.484 40.3958C325.484 40.1558 325.364 39.9758 325.124 39.8558C324.898 39.7225 324.604 39.6092 324.244 39.5158C323.884 39.4092 323.504 39.2958 323.104 39.1758C322.704 39.0558 322.324 38.8892 321.964 38.6758C321.604 38.4625 321.311 38.1692 321.084 37.7958C320.858 37.4092 320.744 36.9225 320.744 36.3358C320.744 35.7092 320.904 35.1692 321.224 34.7158C321.544 34.2492 321.998 33.8825 322.584 33.6158C323.171 33.3492 323.858 33.2158 324.644 33.2158C325.471 33.2158 326.231 33.3625 326.924 33.6558C327.631 33.9358 328.204 34.3558 328.644 34.9158L326.904 36.6758C326.598 36.3158 326.251 36.0625 325.864 35.9158C325.491 35.7692 325.124 35.6958 324.764 35.6958C324.418 35.6958 324.158 35.7492 323.984 35.8558C323.811 35.9492 323.724 36.0892 323.724 36.2758C323.724 36.4758 323.838 36.6358 324.064 36.7558C324.291 36.8758 324.584 36.9825 324.944 37.0758C325.304 37.1692 325.684 37.2825 326.084 37.4158C326.484 37.5492 326.864 37.7292 327.224 37.9558C327.584 38.1825 327.878 38.4892 328.104 38.8758C328.331 39.2492 328.444 39.7425 328.444 40.3558C328.444 41.3025 328.084 42.0558 327.364 42.6158C326.658 43.1758 325.698 43.4558 324.484 43.4558Z" fill="#315D80"/>
<defs>
<filter id="filter0_i_1390_10983" x="0" y="0" width="466.863" height="79" filterUnits="userSpaceOnUse" color-interpolation-filters="sRGB">
<feFlood flood-opacity="0" result="BackgroundImageFix"/>
<feBlend mode="normal" in="SourceGraphic" in2="BackgroundImageFix" result="shape"/>
<feColorMatrix in="SourceAlpha" type="matrix" values="0 0 0 0 0 0 0 0 0 0 0 0 0 0 0 0 0 0 127 0" result="hardAlpha"/>
<feOffset dx="4" dy="5"/>
<feGaussianBlur stdDeviation="2.5"/>
<feComposite in2="hardAlpha" operator="arithmetic" k2="-1" k3="1"/>
<feColorMatrix type="matrix" values="0 0 0 0 0.221667 0 0 0 0 0.487936 0 0 0 0 0.933333 0 0 0 0.12 0"/>
<feBlend mode="normal" in2="shape" result="effect1_innerShadow_1390_10983"/>
</filter>
</defs>
</svg>
