<svg width="319" height="51" viewBox="0 0 319 51" fill="none" xmlns="http://www.w3.org/2000/svg">
<g filter="url(#filter0_i_1390_10995)">
<rect width="319" height="51" rx="25.5" fill="#EDF2FA"/>
</g>
<path d="M124.42 32L128.34 22.116H130.328L134.206 32H131.882L128.914 23.796H129.712L126.702 32H124.42ZM126.646 30.208V28.416H132.036V30.208H126.646ZM139.085 32.14C138.628 32.14 138.208 32.0513 137.825 31.874C137.443 31.6967 137.13 31.454 136.887 31.146C136.645 30.8287 136.505 30.4693 136.467 30.068V27.198C136.505 26.7967 136.645 26.4327 136.887 26.106C137.13 25.7793 137.443 25.5227 137.825 25.336C138.208 25.1493 138.628 25.056 139.085 25.056C139.729 25.056 140.299 25.21 140.793 25.518C141.297 25.826 141.689 26.246 141.969 26.778C142.259 27.31 142.403 27.9167 142.403 28.598C142.403 29.2793 142.259 29.886 141.969 30.418C141.689 30.95 141.297 31.37 140.793 31.678C140.299 31.986 139.729 32.14 139.085 32.14ZM138.693 30.208C139.001 30.208 139.267 30.138 139.491 29.998C139.725 29.858 139.907 29.6667 140.037 29.424C140.168 29.1813 140.233 28.906 140.233 28.598C140.233 28.2807 140.168 28.0007 140.037 27.758C139.907 27.5153 139.725 27.3287 139.491 27.198C139.267 27.058 139.006 26.988 138.707 26.988C138.409 26.988 138.143 27.058 137.909 27.198C137.685 27.3287 137.508 27.5153 137.377 27.758C137.247 28.0007 137.181 28.2807 137.181 28.598C137.181 28.906 137.242 29.1813 137.363 29.424C137.494 29.6667 137.676 29.858 137.909 29.998C138.143 30.138 138.404 30.208 138.693 30.208ZM135.165 34.87V25.196H137.307V26.946L136.957 28.598L137.279 30.25V34.87H135.165ZM147.411 32.14C146.954 32.14 146.534 32.0513 146.151 31.874C145.769 31.6967 145.456 31.454 145.213 31.146C144.971 30.8287 144.831 30.4693 144.793 30.068V27.198C144.831 26.7967 144.971 26.4327 145.213 26.106C145.456 25.7793 145.769 25.5227 146.151 25.336C146.534 25.1493 146.954 25.056 147.411 25.056C148.055 25.056 148.625 25.21 149.119 25.518C149.623 25.826 150.015 26.246 150.295 26.778C150.585 27.31 150.729 27.9167 150.729 28.598C150.729 29.2793 150.585 29.886 150.295 30.418C150.015 30.95 149.623 31.37 149.119 31.678C148.625 31.986 148.055 32.14 147.411 32.14ZM147.019 30.208C147.327 30.208 147.593 30.138 147.817 29.998C148.051 29.858 148.233 29.6667 148.363 29.424C148.494 29.1813 148.559 28.906 148.559 28.598C148.559 28.2807 148.494 28.0007 148.363 27.758C148.233 27.5153 148.051 27.3287 147.817 27.198C147.593 27.058 147.332 26.988 147.033 26.988C146.735 26.988 146.469 27.058 146.235 27.198C146.011 27.3287 145.834 27.5153 145.703 27.758C145.573 28.0007 145.507 28.2807 145.507 28.598C145.507 28.906 145.568 29.1813 145.689 29.424C145.82 29.6667 146.002 29.858 146.235 29.998C146.469 30.138 146.73 30.208 147.019 30.208ZM143.491 34.87V25.196H145.633V26.946L145.283 28.598L145.605 30.25V34.87H143.491ZM151.818 32V21.836H153.96V32H151.818ZM155.468 32V25.196H157.61V32H155.468ZM156.546 24.258C156.21 24.258 155.93 24.146 155.706 23.922C155.491 23.6887 155.384 23.4087 155.384 23.082C155.384 22.746 155.491 22.466 155.706 22.242C155.93 22.018 156.21 21.906 156.546 21.906C156.882 21.906 157.157 22.018 157.372 22.242C157.587 22.466 157.694 22.746 157.694 23.082C157.694 23.4087 157.587 23.6887 157.372 23.922C157.157 24.146 156.882 24.258 156.546 24.258ZM162.408 32.154C161.708 32.154 161.074 32 160.504 31.692C159.935 31.384 159.487 30.9593 159.16 30.418C158.834 29.8767 158.67 29.27 158.67 28.598C158.67 27.9167 158.834 27.31 159.16 26.778C159.496 26.2367 159.949 25.812 160.518 25.504C161.088 25.196 161.727 25.042 162.436 25.042C162.968 25.042 163.454 25.1353 163.892 25.322C164.34 25.4993 164.737 25.77 165.082 26.134L163.71 27.506C163.552 27.3287 163.365 27.198 163.15 27.114C162.945 27.03 162.707 26.988 162.436 26.988C162.128 26.988 161.853 27.058 161.61 27.198C161.377 27.3287 161.19 27.5153 161.05 27.758C160.92 27.9913 160.854 28.2667 160.854 28.584C160.854 28.9013 160.92 29.1813 161.05 29.424C161.19 29.6667 161.382 29.858 161.624 29.998C161.867 30.138 162.138 30.208 162.436 30.208C162.716 30.208 162.964 30.1613 163.178 30.068C163.402 29.9653 163.594 29.8253 163.752 29.648L165.11 31.02C164.756 31.3933 164.354 31.678 163.906 31.874C163.458 32.0607 162.959 32.154 162.408 32.154ZM168.742 32.14C168.116 32.14 167.556 31.986 167.062 31.678C166.576 31.37 166.189 30.95 165.9 30.418C165.62 29.886 165.48 29.2793 165.48 28.598C165.48 27.9167 165.62 27.31 165.9 26.778C166.189 26.246 166.576 25.826 167.062 25.518C167.556 25.21 168.116 25.056 168.742 25.056C169.199 25.056 169.61 25.1447 169.974 25.322C170.347 25.4993 170.65 25.7467 170.884 26.064C171.117 26.372 171.248 26.7267 171.276 27.128V30.068C171.248 30.4693 171.117 30.8287 170.884 31.146C170.66 31.454 170.361 31.6967 169.988 31.874C169.614 32.0513 169.199 32.14 168.742 32.14ZM169.176 30.208C169.633 30.208 170.002 30.0587 170.282 29.76C170.562 29.452 170.702 29.0647 170.702 28.598C170.702 28.2807 170.636 28.0007 170.506 27.758C170.384 27.5153 170.207 27.3287 169.974 27.198C169.75 27.058 169.488 26.988 169.19 26.988C168.891 26.988 168.625 27.058 168.392 27.198C168.168 27.3287 167.986 27.5153 167.846 27.758C167.715 28.0007 167.65 28.2807 167.65 28.598C167.65 28.906 167.715 29.1813 167.846 29.424C167.976 29.6667 168.158 29.858 168.392 29.998C168.625 30.138 168.886 30.208 169.176 30.208ZM170.618 32V30.166L170.94 28.514L170.618 26.862V25.196H172.718V32H170.618ZM175.192 32V22.382H177.334V32H175.192ZM173.652 27.016V25.196H178.874V27.016H173.652ZM179.818 32V25.196H181.96V32H179.818ZM180.896 24.258C180.56 24.258 180.28 24.146 180.056 23.922C179.841 23.6887 179.734 23.4087 179.734 23.082C179.734 22.746 179.841 22.466 180.056 22.242C180.28 22.018 180.56 21.906 180.896 21.906C181.232 21.906 181.507 22.018 181.722 22.242C181.936 22.466 182.044 22.746 182.044 23.082C182.044 23.4087 181.936 23.6887 181.722 23.922C181.507 24.146 181.232 24.258 180.896 24.258ZM186.744 32.154C186.044 32.154 185.409 32 184.84 31.692C184.28 31.3747 183.837 30.9453 183.51 30.404C183.183 29.8627 183.02 29.256 183.02 28.584C183.02 27.912 183.183 27.31 183.51 26.778C183.837 26.246 184.28 25.826 184.84 25.518C185.4 25.2007 186.035 25.042 186.744 25.042C187.453 25.042 188.088 25.196 188.648 25.504C189.208 25.812 189.651 26.2367 189.978 26.778C190.305 27.31 190.468 27.912 190.468 28.584C190.468 29.256 190.305 29.8627 189.978 30.404C189.651 30.9453 189.208 31.3747 188.648 31.692C188.088 32 187.453 32.154 186.744 32.154ZM186.744 30.208C187.052 30.208 187.323 30.1427 187.556 30.012C187.789 29.872 187.967 29.6807 188.088 29.438C188.219 29.186 188.284 28.9013 188.284 28.584C188.284 28.2667 188.219 27.9913 188.088 27.758C187.957 27.5153 187.775 27.3287 187.542 27.198C187.318 27.058 187.052 26.988 186.744 26.988C186.445 26.988 186.179 27.058 185.946 27.198C185.713 27.3287 185.531 27.5153 185.4 27.758C185.269 28.0007 185.204 28.2807 185.204 28.598C185.204 28.906 185.269 29.186 185.4 29.438C185.531 29.6807 185.713 29.872 185.946 30.012C186.179 30.1427 186.445 30.208 186.744 30.208ZM196.028 32V28.122C196.028 27.7673 195.916 27.4827 195.692 27.268C195.478 27.044 195.202 26.932 194.866 26.932C194.633 26.932 194.428 26.9833 194.25 27.086C194.073 27.1793 193.933 27.3193 193.83 27.506C193.728 27.6833 193.676 27.8887 193.676 28.122L192.85 27.716C192.85 27.184 192.967 26.7173 193.2 26.316C193.434 25.9147 193.756 25.6067 194.166 25.392C194.586 25.168 195.058 25.056 195.58 25.056C196.084 25.056 196.528 25.1773 196.91 25.42C197.302 25.6533 197.61 25.966 197.834 26.358C198.058 26.75 198.17 27.1793 198.17 27.646V32H196.028ZM191.534 32V25.196H193.676V32H191.534Z" fill="#315D80"/>
<defs>
<filter id="filter0_i_1390_10995" x="0" y="0" width="323" height="56" filterUnits="userSpaceOnUse" color-interpolation-filters="sRGB">
<feFlood flood-opacity="0" result="BackgroundImageFix"/>
<feBlend mode="normal" in="SourceGraphic" in2="BackgroundImageFix" result="shape"/>
<feColorMatrix in="SourceAlpha" type="matrix" values="0 0 0 0 0 0 0 0 0 0 0 0 0 0 0 0 0 0 127 0" result="hardAlpha"/>
<feOffset dx="4" dy="5"/>
<feGaussianBlur stdDeviation="2.5"/>
<feComposite in2="hardAlpha" operator="arithmetic" k2="-1" k3="1"/>
<feColorMatrix type="matrix" values="0 0 0 0 0.221667 0 0 0 0 0.487936 0 0 0 0 0.933333 0 0 0 0.12 0"/>
<feBlend mode="normal" in2="shape" result="effect1_innerShadow_1390_10995"/>
</filter>
</defs>
</svg>
