<svg width="319" height="51" viewBox="0 0 319 51" fill="none" xmlns="http://www.w3.org/2000/svg">
<g filter="url(#filter0_i_1390_10991)">
<rect width="319" height="51" rx="25.5" fill="#EDF2FA"/>
</g>
<path d="M132.302 32L136.222 22.116H138.21L142.088 32H139.764L136.796 23.796H137.594L134.584 32H132.302ZM134.528 30.208V28.416H139.918V30.208H134.528ZM145.982 32.154C145.282 32.154 144.647 32 144.078 31.692C143.508 31.384 143.06 30.9593 142.734 30.418C142.407 29.8767 142.244 29.27 142.244 28.598C142.244 27.9167 142.407 27.31 142.734 26.778C143.07 26.2367 143.522 25.812 144.092 25.504C144.661 25.196 145.3 25.042 146.01 25.042C146.542 25.042 147.027 25.1353 147.466 25.322C147.914 25.4993 148.31 25.77 148.656 26.134L147.284 27.506C147.125 27.3287 146.938 27.198 146.724 27.114C146.518 27.03 146.28 26.988 146.01 26.988C145.702 26.988 145.426 27.058 145.184 27.198C144.95 27.3287 144.764 27.5153 144.624 27.758C144.493 27.9913 144.428 28.2667 144.428 28.584C144.428 28.9013 144.493 29.1813 144.624 29.424C144.764 29.6667 144.955 29.858 145.198 29.998C145.44 30.138 145.711 30.208 146.01 30.208C146.29 30.208 146.537 30.1613 146.752 30.068C146.976 29.9653 147.167 29.8253 147.326 29.648L148.684 31.02C148.329 31.3933 147.928 31.678 147.48 31.874C147.032 32.0607 146.532 32.154 145.982 32.154ZM152.763 32.154C152.063 32.154 151.428 32 150.859 31.692C150.289 31.384 149.841 30.9593 149.515 30.418C149.188 29.8767 149.025 29.27 149.025 28.598C149.025 27.9167 149.188 27.31 149.515 26.778C149.851 26.2367 150.303 25.812 150.873 25.504C151.442 25.196 152.081 25.042 152.791 25.042C153.323 25.042 153.808 25.1353 154.247 25.322C154.695 25.4993 155.091 25.77 155.437 26.134L154.065 27.506C153.906 27.3287 153.719 27.198 153.505 27.114C153.299 27.03 153.061 26.988 152.791 26.988C152.483 26.988 152.207 27.058 151.965 27.198C151.731 27.3287 151.545 27.5153 151.405 27.758C151.274 27.9913 151.209 28.2667 151.209 28.584C151.209 28.9013 151.274 29.1813 151.405 29.424C151.545 29.6667 151.736 29.858 151.979 29.998C152.221 30.138 152.492 30.208 152.791 30.208C153.071 30.208 153.318 30.1613 153.533 30.068C153.757 29.9653 153.948 29.8253 154.107 29.648L155.465 31.02C155.11 31.3933 154.709 31.678 154.261 31.874C153.813 32.0607 153.313 32.154 152.763 32.154ZM159.53 32.154C158.83 32.154 158.195 32 157.626 31.692C157.066 31.3747 156.623 30.9453 156.296 30.404C155.969 29.8627 155.806 29.256 155.806 28.584C155.806 27.912 155.969 27.31 156.296 26.778C156.623 26.246 157.066 25.826 157.626 25.518C158.186 25.2007 158.821 25.042 159.53 25.042C160.239 25.042 160.874 25.196 161.434 25.504C161.994 25.812 162.437 26.2367 162.764 26.778C163.091 27.31 163.254 27.912 163.254 28.584C163.254 29.256 163.091 29.8627 162.764 30.404C162.437 30.9453 161.994 31.3747 161.434 31.692C160.874 32 160.239 32.154 159.53 32.154ZM159.53 30.208C159.838 30.208 160.109 30.1427 160.342 30.012C160.575 29.872 160.753 29.6807 160.874 29.438C161.005 29.186 161.07 28.9013 161.07 28.584C161.07 28.2667 161.005 27.9913 160.874 27.758C160.743 27.5153 160.561 27.3287 160.328 27.198C160.104 27.058 159.838 26.988 159.53 26.988C159.231 26.988 158.965 27.058 158.732 27.198C158.499 27.3287 158.317 27.5153 158.186 27.758C158.055 28.0007 157.99 28.2807 157.99 28.598C157.99 28.906 158.055 29.186 158.186 29.438C158.317 29.6807 158.499 29.872 158.732 30.012C158.965 30.1427 159.231 30.208 159.53 30.208ZM167.344 32.154C166.719 32.154 166.164 32.028 165.678 31.776C165.202 31.5147 164.829 31.16 164.558 30.712C164.288 30.2547 164.152 29.732 164.152 29.144V25.196H166.294V29.116C166.294 29.3493 166.332 29.55 166.406 29.718C166.49 29.886 166.612 30.0167 166.77 30.11C166.929 30.2033 167.12 30.25 167.344 30.25C167.662 30.25 167.914 30.152 168.1 29.956C168.287 29.7507 168.38 29.4707 168.38 29.116V25.196H170.522V29.13C170.522 29.7273 170.387 30.2547 170.116 30.712C169.846 31.16 169.472 31.5147 168.996 31.776C168.52 32.028 167.97 32.154 167.344 32.154ZM176.361 32V28.122C176.361 27.7673 176.249 27.4827 176.025 27.268C175.811 27.044 175.535 26.932 175.199 26.932C174.966 26.932 174.761 26.9833 174.583 27.086C174.406 27.1793 174.266 27.3193 174.163 27.506C174.061 27.6833 174.009 27.8887 174.009 28.122L173.183 27.716C173.183 27.184 173.3 26.7173 173.533 26.316C173.767 25.9147 174.089 25.6067 174.499 25.392C174.919 25.168 175.391 25.056 175.913 25.056C176.417 25.056 176.861 25.1773 177.243 25.42C177.635 25.6533 177.943 25.966 178.167 26.358C178.391 26.75 178.503 27.1793 178.503 27.646V32H176.361ZM171.867 32V25.196H174.009V32H171.867ZM180.763 32V22.382H182.905V32H180.763ZM179.223 27.016V25.196H184.445V27.016H179.223ZM187.73 32.168C187.329 32.168 186.932 32.1167 186.54 32.014C186.157 31.9113 185.798 31.7667 185.462 31.58C185.135 31.384 184.855 31.16 184.622 30.908L185.84 29.676C186.064 29.9187 186.33 30.11 186.638 30.25C186.946 30.3807 187.282 30.446 187.646 30.446C187.898 30.446 188.089 30.4087 188.22 30.334C188.36 30.2593 188.43 30.1567 188.43 30.026C188.43 29.858 188.346 29.732 188.178 29.648C188.019 29.5547 187.814 29.4753 187.562 29.41C187.31 29.3353 187.044 29.256 186.764 29.172C186.484 29.088 186.218 28.9713 185.966 28.822C185.714 28.6727 185.509 28.4673 185.35 28.206C185.191 27.9353 185.112 27.5947 185.112 27.184C185.112 26.7453 185.224 26.3673 185.448 26.05C185.672 25.7233 185.989 25.4667 186.4 25.28C186.811 25.0933 187.291 25 187.842 25C188.421 25 188.953 25.1027 189.438 25.308C189.933 25.504 190.334 25.798 190.642 26.19L189.424 27.422C189.209 27.17 188.967 26.9927 188.696 26.89C188.435 26.7873 188.178 26.736 187.926 26.736C187.683 26.736 187.501 26.7733 187.38 26.848C187.259 26.9133 187.198 27.0113 187.198 27.142C187.198 27.282 187.277 27.394 187.436 27.478C187.595 27.562 187.8 27.6367 188.052 27.702C188.304 27.7673 188.57 27.8467 188.85 27.94C189.13 28.0333 189.396 28.1593 189.648 28.318C189.9 28.4767 190.105 28.6913 190.264 28.962C190.423 29.2233 190.502 29.5687 190.502 29.998C190.502 30.6607 190.25 31.188 189.746 31.58C189.251 31.972 188.579 32.168 187.73 32.168Z" fill="#315D80"/>
<defs>
<filter id="filter0_i_1390_10991" x="0" y="0" width="323" height="56" filterUnits="userSpaceOnUse" color-interpolation-filters="sRGB">
<feFlood flood-opacity="0" result="BackgroundImageFix"/>
<feBlend mode="normal" in="SourceGraphic" in2="BackgroundImageFix" result="shape"/>
<feColorMatrix in="SourceAlpha" type="matrix" values="0 0 0 0 0 0 0 0 0 0 0 0 0 0 0 0 0 0 127 0" result="hardAlpha"/>
<feOffset dx="4" dy="5"/>
<feGaussianBlur stdDeviation="2.5"/>
<feComposite in2="hardAlpha" operator="arithmetic" k2="-1" k3="1"/>
<feColorMatrix type="matrix" values="0 0 0 0 0.221667 0 0 0 0 0.487936 0 0 0 0 0.933333 0 0 0 0.12 0"/>
<feBlend mode="normal" in2="shape" result="effect1_innerShadow_1390_10991"/>
</filter>
</defs>
</svg>
