<svg width="319" height="51" viewBox="0 0 319 51" fill="none" xmlns="http://www.w3.org/2000/svg">
<g filter="url(#filter0_i_1390_11003)">
<rect width="319" height="51" rx="25.5" fill="#EDF2FA"/>
</g>
<path d="M113.118 32.154C112.38 32.154 111.694 32.028 111.06 31.776C110.434 31.5147 109.884 31.1507 109.408 30.684C108.941 30.2173 108.577 29.676 108.316 29.06C108.054 28.4347 107.924 27.7627 107.924 27.044C107.924 26.3253 108.054 25.658 108.316 25.042C108.577 24.4167 108.941 23.8753 109.408 23.418C109.874 22.9607 110.42 22.606 111.046 22.354C111.68 22.0927 112.366 21.962 113.104 21.962C113.888 21.962 114.583 22.088 115.19 22.34C115.806 22.592 116.342 22.9373 116.8 23.376L115.33 24.86C115.068 24.58 114.751 24.3607 114.378 24.202C114.014 24.0433 113.589 23.964 113.104 23.964C112.674 23.964 112.278 24.0387 111.914 24.188C111.559 24.328 111.251 24.5333 110.99 24.804C110.738 25.0747 110.537 25.4013 110.388 25.784C110.248 26.1667 110.178 26.5867 110.178 27.044C110.178 27.5107 110.248 27.9353 110.388 28.318C110.537 28.7007 110.738 29.0273 110.99 29.298C111.251 29.5687 111.559 29.7787 111.914 29.928C112.278 30.0773 112.674 30.152 113.104 30.152C113.608 30.152 114.046 30.0727 114.42 29.914C114.793 29.7553 115.115 29.536 115.386 29.256L116.87 30.74C116.394 31.1787 115.848 31.524 115.232 31.776C114.625 32.028 113.92 32.154 113.118 32.154ZM120.996 32.154C120.296 32.154 119.661 32 119.092 31.692C118.532 31.3747 118.089 30.9453 117.762 30.404C117.435 29.8627 117.272 29.256 117.272 28.584C117.272 27.912 117.435 27.31 117.762 26.778C118.089 26.246 118.532 25.826 119.092 25.518C119.652 25.2007 120.287 25.042 120.996 25.042C121.705 25.042 122.34 25.196 122.9 25.504C123.46 25.812 123.903 26.2367 124.23 26.778C124.557 27.31 124.72 27.912 124.72 28.584C124.72 29.256 124.557 29.8627 124.23 30.404C123.903 30.9453 123.46 31.3747 122.9 31.692C122.34 32 121.705 32.154 120.996 32.154ZM120.996 30.208C121.304 30.208 121.575 30.1427 121.808 30.012C122.041 29.872 122.219 29.6807 122.34 29.438C122.471 29.186 122.536 28.9013 122.536 28.584C122.536 28.2667 122.471 27.9913 122.34 27.758C122.209 27.5153 122.027 27.3287 121.794 27.198C121.57 27.058 121.304 26.988 120.996 26.988C120.697 26.988 120.431 27.058 120.198 27.198C119.965 27.3287 119.783 27.5153 119.652 27.758C119.521 28.0007 119.456 28.2807 119.456 28.598C119.456 28.906 119.521 29.186 119.652 29.438C119.783 29.6807 119.965 29.872 120.198 30.012C120.431 30.1427 120.697 30.208 120.996 30.208ZM125.786 32V25.196H127.928V32H125.786ZM130.14 32V28.024C130.14 27.6787 130.033 27.4127 129.818 27.226C129.613 27.03 129.356 26.932 129.048 26.932C128.834 26.932 128.642 26.9787 128.474 27.072C128.306 27.156 128.171 27.2773 128.068 27.436C127.975 27.5947 127.928 27.7907 127.928 28.024L127.102 27.66C127.102 27.1187 127.219 26.6567 127.452 26.274C127.686 25.882 128.003 25.5833 128.404 25.378C128.806 25.1633 129.258 25.056 129.762 25.056C130.238 25.056 130.663 25.1633 131.036 25.378C131.419 25.5927 131.722 25.8913 131.946 26.274C132.17 26.6567 132.282 27.114 132.282 27.646V32H130.14ZM134.494 32V28.024C134.494 27.6787 134.387 27.4127 134.172 27.226C133.967 27.03 133.71 26.932 133.402 26.932C133.188 26.932 132.996 26.9787 132.828 27.072C132.66 27.156 132.525 27.2773 132.422 27.436C132.329 27.5947 132.282 27.7907 132.282 28.024L131.05 27.856C131.069 27.2773 131.204 26.7827 131.456 26.372C131.718 25.952 132.058 25.63 132.478 25.406C132.908 25.1727 133.388 25.056 133.92 25.056C134.443 25.056 134.905 25.168 135.306 25.392C135.717 25.6067 136.039 25.9193 136.272 26.33C136.515 26.7313 136.636 27.2167 136.636 27.786V32H134.494ZM138.009 32V25.196H140.151V32H138.009ZM142.363 32V28.024C142.363 27.6787 142.256 27.4127 142.041 27.226C141.836 27.03 141.579 26.932 141.271 26.932C141.056 26.932 140.865 26.9787 140.697 27.072C140.529 27.156 140.394 27.2773 140.291 27.436C140.198 27.5947 140.151 27.7907 140.151 28.024L139.325 27.66C139.325 27.1187 139.442 26.6567 139.675 26.274C139.908 25.882 140.226 25.5833 140.627 25.378C141.028 25.1633 141.481 25.056 141.985 25.056C142.461 25.056 142.886 25.1633 143.259 25.378C143.642 25.5927 143.945 25.8913 144.169 26.274C144.393 26.6567 144.505 27.114 144.505 27.646V32H142.363ZM146.717 32V28.024C146.717 27.6787 146.61 27.4127 146.395 27.226C146.19 27.03 145.933 26.932 145.625 26.932C145.41 26.932 145.219 26.9787 145.051 27.072C144.883 27.156 144.748 27.2773 144.645 27.436C144.552 27.5947 144.505 27.7907 144.505 28.024L143.273 27.856C143.292 27.2773 143.427 26.7827 143.679 26.372C143.94 25.952 144.281 25.63 144.701 25.406C145.13 25.1727 145.611 25.056 146.143 25.056C146.666 25.056 147.128 25.168 147.529 25.392C147.94 25.6067 148.262 25.9193 148.495 26.33C148.738 26.7313 148.859 27.2167 148.859 27.786V32H146.717ZM153.256 32.154C152.63 32.154 152.075 32.028 151.59 31.776C151.114 31.5147 150.74 31.16 150.47 30.712C150.199 30.2547 150.064 29.732 150.064 29.144V25.196H152.206V29.116C152.206 29.3493 152.243 29.55 152.318 29.718C152.402 29.886 152.523 30.0167 152.682 30.11C152.84 30.2033 153.032 30.25 153.256 30.25C153.573 30.25 153.825 30.152 154.012 29.956C154.198 29.7507 154.292 29.4707 154.292 29.116V25.196H156.434V29.13C156.434 29.7273 156.298 30.2547 156.028 30.712C155.757 31.16 155.384 31.5147 154.908 31.776C154.432 32.028 153.881 32.154 153.256 32.154ZM162.272 32V28.122C162.272 27.7673 162.16 27.4827 161.936 27.268C161.722 27.044 161.446 26.932 161.11 26.932C160.877 26.932 160.672 26.9833 160.494 27.086C160.317 27.1793 160.177 27.3193 160.074 27.506C159.972 27.6833 159.92 27.8887 159.92 28.122L159.094 27.716C159.094 27.184 159.211 26.7173 159.444 26.316C159.678 25.9147 160 25.6067 160.41 25.392C160.83 25.168 161.302 25.056 161.824 25.056C162.328 25.056 162.772 25.1773 163.154 25.42C163.546 25.6533 163.854 25.966 164.078 26.358C164.302 26.75 164.414 27.1793 164.414 27.646V32H162.272ZM157.778 32V25.196H159.92V32H157.778ZM165.79 32V25.196H167.932V32H165.79ZM166.868 24.258C166.532 24.258 166.252 24.146 166.028 23.922C165.814 23.6887 165.706 23.4087 165.706 23.082C165.706 22.746 165.814 22.466 166.028 22.242C166.252 22.018 166.532 21.906 166.868 21.906C167.204 21.906 167.48 22.018 167.694 22.242C167.909 22.466 168.016 22.746 168.016 23.082C168.016 23.4087 167.909 23.6887 167.694 23.922C167.48 24.146 167.204 24.258 166.868 24.258ZM172.731 32.154C172.031 32.154 171.396 32 170.827 31.692C170.257 31.384 169.809 30.9593 169.483 30.418C169.156 29.8767 168.993 29.27 168.993 28.598C168.993 27.9167 169.156 27.31 169.483 26.778C169.819 26.2367 170.271 25.812 170.841 25.504C171.41 25.196 172.049 25.042 172.759 25.042C173.291 25.042 173.776 25.1353 174.215 25.322C174.663 25.4993 175.059 25.77 175.405 26.134L174.033 27.506C173.874 27.3287 173.687 27.198 173.473 27.114C173.267 27.03 173.029 26.988 172.759 26.988C172.451 26.988 172.175 27.058 171.933 27.198C171.699 27.3287 171.513 27.5153 171.373 27.758C171.242 27.9913 171.177 28.2667 171.177 28.584C171.177 28.9013 171.242 29.1813 171.373 29.424C171.513 29.6667 171.704 29.858 171.947 29.998C172.189 30.138 172.46 30.208 172.759 30.208C173.039 30.208 173.286 30.1613 173.501 30.068C173.725 29.9653 173.916 29.8253 174.075 29.648L175.433 31.02C175.078 31.3933 174.677 31.678 174.229 31.874C173.781 32.0607 173.281 32.154 172.731 32.154ZM179.064 32.14C178.438 32.14 177.878 31.986 177.384 31.678C176.898 31.37 176.511 30.95 176.222 30.418C175.942 29.886 175.802 29.2793 175.802 28.598C175.802 27.9167 175.942 27.31 176.222 26.778C176.511 26.246 176.898 25.826 177.384 25.518C177.878 25.21 178.438 25.056 179.064 25.056C179.521 25.056 179.932 25.1447 180.296 25.322C180.669 25.4993 180.972 25.7467 181.206 26.064C181.439 26.372 181.57 26.7267 181.598 27.128V30.068C181.57 30.4693 181.439 30.8287 181.206 31.146C180.982 31.454 180.683 31.6967 180.31 31.874C179.936 32.0513 179.521 32.14 179.064 32.14ZM179.498 30.208C179.955 30.208 180.324 30.0587 180.604 29.76C180.884 29.452 181.024 29.0647 181.024 28.598C181.024 28.2807 180.958 28.0007 180.828 27.758C180.706 27.5153 180.529 27.3287 180.296 27.198C180.072 27.058 179.81 26.988 179.512 26.988C179.213 26.988 178.947 27.058 178.714 27.198C178.49 27.3287 178.308 27.5153 178.168 27.758C178.037 28.0007 177.972 28.2807 177.972 28.598C177.972 28.906 178.037 29.1813 178.168 29.424C178.298 29.6667 178.48 29.858 178.714 29.998C178.947 30.138 179.208 30.208 179.498 30.208ZM180.94 32V30.166L181.262 28.514L180.94 26.862V25.196H183.04V32H180.94ZM185.514 32V22.382H187.656V32H185.514ZM183.974 27.016V25.196H189.196V27.016H183.974ZM190.14 32V25.196H192.282V32H190.14ZM191.218 24.258C190.882 24.258 190.602 24.146 190.378 23.922C190.163 23.6887 190.056 23.4087 190.056 23.082C190.056 22.746 190.163 22.466 190.378 22.242C190.602 22.018 190.882 21.906 191.218 21.906C191.554 21.906 191.829 22.018 192.044 22.242C192.258 22.466 192.366 22.746 192.366 23.082C192.366 23.4087 192.258 23.6887 192.044 23.922C191.829 24.146 191.554 24.258 191.218 24.258ZM197.066 32.154C196.366 32.154 195.732 32 195.162 31.692C194.602 31.3747 194.159 30.9453 193.832 30.404C193.506 29.8627 193.342 29.256 193.342 28.584C193.342 27.912 193.506 27.31 193.832 26.778C194.159 26.246 194.602 25.826 195.162 25.518C195.722 25.2007 196.357 25.042 197.066 25.042C197.776 25.042 198.41 25.196 198.97 25.504C199.53 25.812 199.974 26.2367 200.3 26.778C200.627 27.31 200.79 27.912 200.79 28.584C200.79 29.256 200.627 29.8627 200.3 30.404C199.974 30.9453 199.53 31.3747 198.97 31.692C198.41 32 197.776 32.154 197.066 32.154ZM197.066 30.208C197.374 30.208 197.645 30.1427 197.878 30.012C198.112 29.872 198.289 29.6807 198.41 29.438C198.541 29.186 198.606 28.9013 198.606 28.584C198.606 28.2667 198.541 27.9913 198.41 27.758C198.28 27.5153 198.098 27.3287 197.864 27.198C197.64 27.058 197.374 26.988 197.066 26.988C196.768 26.988 196.502 27.058 196.268 27.198C196.035 27.3287 195.853 27.5153 195.722 27.758C195.592 28.0007 195.526 28.2807 195.526 28.598C195.526 28.906 195.592 29.186 195.722 29.438C195.853 29.6807 196.035 29.872 196.268 30.012C196.502 30.1427 196.768 30.208 197.066 30.208ZM206.351 32V28.122C206.351 27.7673 206.239 27.4827 206.015 27.268C205.8 27.044 205.525 26.932 205.189 26.932C204.955 26.932 204.75 26.9833 204.573 27.086C204.395 27.1793 204.255 27.3193 204.153 27.506C204.05 27.6833 203.999 27.8887 203.999 28.122L203.173 27.716C203.173 27.184 203.289 26.7173 203.523 26.316C203.756 25.9147 204.078 25.6067 204.489 25.392C204.909 25.168 205.38 25.056 205.903 25.056C206.407 25.056 206.85 25.1773 207.233 25.42C207.625 25.6533 207.933 25.966 208.157 26.358C208.381 26.75 208.493 27.1793 208.493 27.646V32H206.351ZM201.857 32V25.196H203.999V32H201.857ZM212.346 32.168C211.945 32.168 211.548 32.1167 211.156 32.014C210.774 31.9113 210.414 31.7667 210.078 31.58C209.752 31.384 209.472 31.16 209.238 30.908L210.456 29.676C210.68 29.9187 210.946 30.11 211.254 30.25C211.562 30.3807 211.898 30.446 212.262 30.446C212.514 30.446 212.706 30.4087 212.836 30.334C212.976 30.2593 213.046 30.1567 213.046 30.026C213.046 29.858 212.962 29.732 212.794 29.648C212.636 29.5547 212.43 29.4753 212.178 29.41C211.926 29.3353 211.66 29.256 211.38 29.172C211.1 29.088 210.834 28.9713 210.582 28.822C210.33 28.6727 210.125 28.4673 209.966 28.206C209.808 27.9353 209.728 27.5947 209.728 27.184C209.728 26.7453 209.84 26.3673 210.064 26.05C210.288 25.7233 210.606 25.4667 211.016 25.28C211.427 25.0933 211.908 25 212.458 25C213.037 25 213.569 25.1027 214.054 25.308C214.549 25.504 214.95 25.798 215.258 26.19L214.04 27.422C213.826 27.17 213.583 26.9927 213.312 26.89C213.051 26.7873 212.794 26.736 212.542 26.736C212.3 26.736 212.118 26.7733 211.996 26.848C211.875 26.9133 211.814 27.0113 211.814 27.142C211.814 27.282 211.894 27.394 212.052 27.478C212.211 27.562 212.416 27.6367 212.668 27.702C212.92 27.7673 213.186 27.8467 213.466 27.94C213.746 28.0333 214.012 28.1593 214.264 28.318C214.516 28.4767 214.722 28.6913 214.88 28.962C215.039 29.2233 215.118 29.5687 215.118 29.998C215.118 30.6607 214.866 31.188 214.362 31.58C213.868 31.972 213.196 32.168 212.346 32.168Z" fill="#315D80"/>
<defs>
<filter id="filter0_i_1390_11003" x="0" y="0" width="323" height="56" filterUnits="userSpaceOnUse" color-interpolation-filters="sRGB">
<feFlood flood-opacity="0" result="BackgroundImageFix"/>
<feBlend mode="normal" in="SourceGraphic" in2="BackgroundImageFix" result="shape"/>
<feColorMatrix in="SourceAlpha" type="matrix" values="0 0 0 0 0 0 0 0 0 0 0 0 0 0 0 0 0 0 127 0" result="hardAlpha"/>
<feOffset dx="4" dy="5"/>
<feGaussianBlur stdDeviation="2.5"/>
<feComposite in2="hardAlpha" operator="arithmetic" k2="-1" k3="1"/>
<feColorMatrix type="matrix" values="0 0 0 0 0.221667 0 0 0 0 0.487936 0 0 0 0 0.933333 0 0 0 0.12 0"/>
<feBlend mode="normal" in2="shape" result="effect1_innerShadow_1390_11003"/>
</filter>
</defs>
</svg>
