<svg width="319" height="51" viewBox="0 0 319 51" fill="none" xmlns="http://www.w3.org/2000/svg">
<g filter="url(#filter0_i_1390_10999)">
<rect width="319" height="51" rx="25.5" fill="#EDF2FA"/>
</g>
<path d="M128.336 32V22.256H130.534V32H128.336ZM125.242 24.034V22.116H133.628V24.034H125.242ZM136.392 32.154C135.655 32.154 134.997 32.0047 134.418 31.706C133.849 31.398 133.401 30.9733 133.074 30.432C132.748 29.8907 132.584 29.2793 132.584 28.598C132.584 27.9167 132.743 27.31 133.06 26.778C133.387 26.2367 133.826 25.812 134.376 25.504C134.927 25.196 135.548 25.042 136.238 25.042C136.91 25.042 137.503 25.1867 138.016 25.476C138.53 25.7653 138.931 26.1667 139.22 26.68C139.519 27.1933 139.668 27.7813 139.668 28.444C139.668 28.5653 139.659 28.696 139.64 28.836C139.631 28.9667 139.608 29.1207 139.57 29.298L133.704 29.312V27.842L138.66 27.828L137.736 28.444C137.727 28.052 137.666 27.73 137.554 27.478C137.442 27.2167 137.274 27.0207 137.05 26.89C136.836 26.75 136.57 26.68 136.252 26.68C135.916 26.68 135.622 26.7593 135.37 26.918C135.128 27.0673 134.936 27.282 134.796 27.562C134.666 27.842 134.6 28.1827 134.6 28.584C134.6 28.9853 134.67 29.3307 134.81 29.62C134.96 29.9 135.165 30.1193 135.426 30.278C135.697 30.4273 136.014 30.502 136.378 30.502C136.714 30.502 137.018 30.446 137.288 30.334C137.559 30.2127 137.797 30.0353 138.002 29.802L139.178 30.978C138.842 31.37 138.436 31.664 137.96 31.86C137.484 32.056 136.962 32.154 136.392 32.154ZM145.196 32V28.122C145.196 27.7673 145.084 27.4827 144.86 27.268C144.646 27.044 144.37 26.932 144.034 26.932C143.801 26.932 143.596 26.9833 143.418 27.086C143.241 27.1793 143.101 27.3193 142.998 27.506C142.896 27.6833 142.844 27.8887 142.844 28.122L142.018 27.716C142.018 27.184 142.135 26.7173 142.368 26.316C142.602 25.9147 142.924 25.6067 143.334 25.392C143.754 25.168 144.226 25.056 144.748 25.056C145.252 25.056 145.696 25.1773 146.078 25.42C146.47 25.6533 146.778 25.966 147.002 26.358C147.226 26.75 147.338 27.1793 147.338 27.646V32H145.196ZM140.702 32V25.196H142.844V32H140.702ZM151.556 32.14C150.931 32.14 150.371 31.986 149.876 31.678C149.391 31.37 149.003 30.95 148.714 30.418C148.434 29.886 148.294 29.2793 148.294 28.598C148.294 27.9167 148.434 27.31 148.714 26.778C149.003 26.246 149.391 25.826 149.876 25.518C150.371 25.21 150.931 25.056 151.556 25.056C152.013 25.056 152.424 25.1447 152.788 25.322C153.161 25.4993 153.465 25.7467 153.698 26.064C153.931 26.372 154.062 26.7267 154.09 27.128V30.068C154.062 30.4693 153.931 30.8287 153.698 31.146C153.474 31.454 153.175 31.6967 152.802 31.874C152.429 32.0513 152.013 32.14 151.556 32.14ZM151.99 30.208C152.447 30.208 152.816 30.0587 153.096 29.76C153.376 29.452 153.516 29.0647 153.516 28.598C153.516 28.2807 153.451 28.0007 153.32 27.758C153.199 27.5153 153.021 27.3287 152.788 27.198C152.564 27.058 152.303 26.988 152.004 26.988C151.705 26.988 151.439 27.058 151.206 27.198C150.982 27.3287 150.8 27.5153 150.66 27.758C150.529 28.0007 150.464 28.2807 150.464 28.598C150.464 28.906 150.529 29.1813 150.66 29.424C150.791 29.6667 150.973 29.858 151.206 29.998C151.439 30.138 151.701 30.208 151.99 30.208ZM153.432 32V30.166L153.754 28.514L153.432 26.862V25.196H155.532V32H153.432ZM161.534 32V28.122C161.534 27.7673 161.422 27.4827 161.198 27.268C160.984 27.044 160.708 26.932 160.372 26.932C160.139 26.932 159.934 26.9833 159.756 27.086C159.579 27.1793 159.439 27.3193 159.336 27.506C159.234 27.6833 159.182 27.8887 159.182 28.122L158.356 27.716C158.356 27.184 158.473 26.7173 158.706 26.316C158.94 25.9147 159.262 25.6067 159.672 25.392C160.092 25.168 160.564 25.056 161.086 25.056C161.59 25.056 162.034 25.1773 162.416 25.42C162.808 25.6533 163.116 25.966 163.34 26.358C163.564 26.75 163.676 27.1793 163.676 27.646V32H161.534ZM157.04 32V25.196H159.182V32H157.04ZM165.936 32V22.382H168.078V32H165.936ZM164.396 27.016V25.196H169.618V27.016H164.396ZM174.908 32V30.068H177.358C177.955 30.068 178.478 29.9513 178.926 29.718C179.374 29.4753 179.719 29.1253 179.962 28.668C180.204 28.2107 180.326 27.6693 180.326 27.044C180.326 26.4187 180.2 25.882 179.948 25.434C179.705 24.986 179.36 24.6407 178.912 24.398C178.473 24.1553 177.955 24.034 177.358 24.034H174.838V22.116H177.386C178.132 22.116 178.818 22.2373 179.444 22.48C180.078 22.7133 180.629 23.054 181.096 23.502C181.572 23.9407 181.936 24.4633 182.188 25.07C182.449 25.6673 182.58 26.33 182.58 27.058C182.58 27.7767 182.449 28.4393 182.188 29.046C181.936 29.6527 181.576 30.1753 181.11 30.614C180.643 31.0527 180.092 31.3933 179.458 31.636C178.832 31.8787 178.151 32 177.414 32H174.908ZM173.424 32V22.116H175.622V32H173.424ZM187.058 32.154C186.358 32.154 185.724 32 185.154 31.692C184.594 31.3747 184.151 30.9453 183.824 30.404C183.498 29.8627 183.334 29.256 183.334 28.584C183.334 27.912 183.498 27.31 183.824 26.778C184.151 26.246 184.594 25.826 185.154 25.518C185.714 25.2007 186.349 25.042 187.058 25.042C187.768 25.042 188.402 25.196 188.962 25.504C189.522 25.812 189.966 26.2367 190.292 26.778C190.619 27.31 190.782 27.912 190.782 28.584C190.782 29.256 190.619 29.8627 190.292 30.404C189.966 30.9453 189.522 31.3747 188.962 31.692C188.402 32 187.768 32.154 187.058 32.154ZM187.058 30.208C187.366 30.208 187.637 30.1427 187.87 30.012C188.104 29.872 188.281 29.6807 188.402 29.438C188.533 29.186 188.598 28.9013 188.598 28.584C188.598 28.2667 188.533 27.9913 188.402 27.758C188.272 27.5153 188.09 27.3287 187.856 27.198C187.632 27.058 187.366 26.988 187.058 26.988C186.76 26.988 186.494 27.058 186.26 27.198C186.027 27.3287 185.845 27.5153 185.714 27.758C185.584 28.0007 185.518 28.2807 185.518 28.598C185.518 28.906 185.584 29.186 185.714 29.438C185.845 29.6807 186.027 29.872 186.26 30.012C186.494 30.1427 186.76 30.208 187.058 30.208ZM195.139 32.154C194.439 32.154 193.804 32 193.235 31.692C192.665 31.384 192.217 30.9593 191.891 30.418C191.564 29.8767 191.401 29.27 191.401 28.598C191.401 27.9167 191.564 27.31 191.891 26.778C192.227 26.2367 192.679 25.812 193.249 25.504C193.818 25.196 194.457 25.042 195.167 25.042C195.699 25.042 196.184 25.1353 196.623 25.322C197.071 25.4993 197.467 25.77 197.813 26.134L196.441 27.506C196.282 27.3287 196.095 27.198 195.881 27.114C195.675 27.03 195.437 26.988 195.167 26.988C194.859 26.988 194.583 27.058 194.341 27.198C194.107 27.3287 193.921 27.5153 193.781 27.758C193.65 27.9913 193.585 28.2667 193.585 28.584C193.585 28.9013 193.65 29.1813 193.781 29.424C193.921 29.6667 194.112 29.858 194.355 29.998C194.597 30.138 194.868 30.208 195.167 30.208C195.447 30.208 195.694 30.1613 195.909 30.068C196.133 29.9653 196.324 29.8253 196.483 29.648L197.841 31.02C197.486 31.3933 197.085 31.678 196.637 31.874C196.189 32.0607 195.689 32.154 195.139 32.154Z" fill="#315D80"/>
<defs>
<filter id="filter0_i_1390_10999" x="0" y="0" width="323" height="56" filterUnits="userSpaceOnUse" color-interpolation-filters="sRGB">
<feFlood flood-opacity="0" result="BackgroundImageFix"/>
<feBlend mode="normal" in="SourceGraphic" in2="BackgroundImageFix" result="shape"/>
<feColorMatrix in="SourceAlpha" type="matrix" values="0 0 0 0 0 0 0 0 0 0 0 0 0 0 0 0 0 0 127 0" result="hardAlpha"/>
<feOffset dx="4" dy="5"/>
<feGaussianBlur stdDeviation="2.5"/>
<feComposite in2="hardAlpha" operator="arithmetic" k2="-1" k3="1"/>
<feColorMatrix type="matrix" values="0 0 0 0 0.221667 0 0 0 0 0.487936 0 0 0 0 0.933333 0 0 0 0.12 0"/>
<feBlend mode="normal" in2="shape" result="effect1_innerShadow_1390_10999"/>
</filter>
</defs>
</svg>
