<svg width="130" height="130" viewBox="0 0 130 130" fill="none" xmlns="http://www.w3.org/2000/svg">
<rect width="130" height="130" rx="15" fill="#F8F9FF"/>
<path d="M100 54.0626C100 67.352 89.2268 78.125 75.9375 78.125C74.4035 78.125 72.9037 77.9798 71.4494 77.7054L68.1665 81.3987C67.8587 81.7451 67.481 82.0223 67.0583 82.2121C66.6356 82.4019 66.1775 82.5 65.7141 82.5H60.625V87.9688C60.625 89.781 59.156 91.25 57.3438 91.25H51.875V96.7188C51.875 98.531 50.406 100 48.5938 100H33.2812C31.469 100 30 98.531 30 96.7188V86.0466C30 85.1764 30.3458 84.3417 30.961 83.7264L53.0824 61.605C52.2999 59.2324 51.875 56.6972 51.875 54.0625C51.875 40.7732 62.648 30.0001 75.9374 30C89.2659 29.9999 100 40.7339 100 54.0626ZM75.9375 47.5C75.9375 51.1244 78.8756 54.0625 82.5 54.0625C86.1244 54.0625 89.0625 51.1244 89.0625 47.5C89.0625 43.8756 86.1244 40.9375 82.5 40.9375C78.8756 40.9375 75.9375 43.8756 75.9375 47.5Z" fill="#C06A87"/>
</svg>
