<svg xmlns="http://www.w3.org/2000/svg" width="92" height="37.69" viewBox="0 0 92 37.69"><defs><style>.a{fill:#004472;}.b{fill:#ffca00;}.c{fill:#aaa;}</style></defs><g transform="translate(13583 9375)"><path class="a" d="M3134.649,4046.736h-1.886v-.256q0-3.961-.007-7.923a3.078,3.078,0,0,0-.085-.68,1.22,1.22,0,0,0-.728-.9.874.874,0,0,1-.1-.054c-.009-.006-.012-.022-.041-.082l2.851-.013Z" transform="translate(-16625.648 -13400.162)"/><rect class="b" width="27" height="26" transform="translate(-13582 -9374)"/><path class="a" d="M2296.248,3928.49h28.581v.216q0,16.355,0,32.711a3.941,3.941,0,0,1-.1.878,2.021,2.021,0,0,1-1.3,1.474,29.927,29.927,0,0,1-4.187,1.3,36.317,36.317,0,0,1-4.186.739,38.58,38.58,0,0,1-11.119-.309,32.978,32.978,0,0,1-6.219-1.7,2.209,2.209,0,0,1-1.466-2.172c0-.118,0-.237,0-.355q0-16.247,0-32.494Zm11.859,8.146a.6.6,0,0,1,.426-.719,2.682,2.682,0,0,1,.773-.1c.585,0,1.17.045,1.755.045a1.8,1.8,0,0,0,1.058-.253,1.468,1.468,0,0,0,.589-1.29c.016-.934.023-1.867.032-2.8,0-.058-.006-.115-.011-.2h-.259q-3.484,0-6.969,0c-.386,0-.773-.014-1.159-.022q-.014-.578-.029-1.156c0-.089,0-.179,0-.272-.06-.007-.092-.013-.123-.013-.678,0-1.356-.018-2.033.008a3.223,3.223,0,0,0-.961.174,2.285,2.285,0,0,0-.741,3.907,2.228,2.228,0,0,0,1.552.5v-.852a1,1,0,0,1-.821-.283,1.328,1.328,0,0,1,.411-2.037,4.385,4.385,0,0,1,1.532-.107v1.464h2.972v.695h-.757c-.069.4-.065.408.271.534l.258.1,1.124.427v-1.736h4.407c0,.562.016,1.107-.006,1.651a.474.474,0,0,1-.487.475c-.215.021-.433.028-.649.037-.637.027-1.277.02-1.909.089a1.383,1.383,0,0,0-1.274.912,1.935,1.935,0,0,0,.244,1.8,2.386,2.386,0,0,0,3.028.54,1.473,1.473,0,0,1,.825-.122v1a3.961,3.961,0,0,0-1.892-.062c-.816.127-1.629.287-2.448.388a4.584,4.584,0,0,1-1.315,0,2.815,2.815,0,0,1-2.362-2.508c-.008-.055-.015-.133-.052-.157-.189-.125-.387-.236-.622-.375,0,.188,0,.329,0,.471a3.533,3.533,0,0,0,.717,2.245,5.691,5.691,0,0,0,1.76,1.34c.715.4,1.436.8,2.116,1.254a5.572,5.572,0,0,1,2.3,2.889c.051.152.138.119.264.107v-1.5a15.812,15.812,0,0,1,2.068,1.533,5.208,5.208,0,0,1,1.728,2.758c.086.383.15.77.225,1.16.186.032.2.028.224-.124a5.74,5.74,0,0,0-.027-2.156c-.088-.392-.228-.773-.345-1.163l1.766.077v2.255l-.6.031.014.212c.187.009.357.02.527.025.113,0,.158.055.172.167.026.208.075.413.1.621.018.143.083.171.231.121v-.877l3.137.18-.208,1.97c-.2.023-.357.034-.511.063a.735.735,0,0,0-.187.095.7.7,0,0,0,.178.078c.135.02.273.022.438.034l-.154.716.047.05a.821.821,0,0,0,.206-.161,2.927,2.927,0,0,0,.228-.435.181.181,0,0,1,.223-.13c.26.034.524.042.786.062l1.517.122a4.733,4.733,0,0,1-1.285,1.32.678.678,0,0,1-.268.1q-2.267.352-4.535.695c-.25.038-.5.069-.752.1a6.661,6.661,0,0,0-2.227-3.486c-.715-.6-1.458-1.167-2.225-1.7-1.956-1.352-3.937-2.668-5.9-4.012a26.168,26.168,0,0,1-3.9-3.138,5.245,5.245,0,0,1-1.43-2.142,3.4,3.4,0,0,1,.279-2.938,1.483,1.483,0,0,0,.127-.793,2.3,2.3,0,0,0-.941.943,4.271,4.271,0,0,0-.33,3.21,5.814,5.814,0,0,0,1.619,2.75c.7.708,1.429,1.378,2.145,2.067a9.746,9.746,0,0,1,2.5,3.431c.054.139.152.107.276.067v-1.628c.8.61,1.569,1.159,2.293,1.766a9.249,9.249,0,0,1,2.488,3.047c.065.135.149.142.288.078v-1.47c.279.193.535.355.773.539.509.394,1.026.781,1.51,1.2a7.494,7.494,0,0,1,2.59,4.834c.022.174.109.161.241.131a7.926,7.926,0,0,0-.086-2.379h.147c1.461,0,2.922-.014,4.383.009a5.6,5.6,0,0,1,1.339.194,1.625,1.625,0,0,1,1.311,1.427c.011.083.018.166.027.248h.257c.165-.564.331-1.122.486-1.684a.258.258,0,0,0-.052-.188,2.864,2.864,0,0,0-1.3-.993c-.056-.022-.11-.047-.176-.075a5.829,5.829,0,0,0,.651-8.444c.025-.044.051-.089.078-.134.306-.505.617-1.008.917-1.517a1.054,1.054,0,0,0-.447-1.56c-.811-.388-1.6-.83-2.395-1.241a.725.725,0,0,0-.317-.078q-2.507-.007-5.015,0a.7.7,0,0,0-.33.1c-.522.3-1.038.619-1.556.929-.058.035-.118.065-.209.116v-3.33h-.554c.332-.411.332-.411.238-.537a1.5,1.5,0,0,1-1.549.274c-.232-.07-.467-.132-.7-.2a1.822,1.822,0,0,0-1.254.04C2308.47,3936.429,2308.292,3936.54,2308.107,3936.635Zm-.794,18.938-.014.043c.037.022.072.048.111.067a.962.962,0,0,1,.564.713,3.923,3.923,0,0,1,.074.7c.006,1.788,0,3.576,0,5.364v.2c1.3,0,2.559.028,3.819-.012a2.7,2.7,0,0,0,1.713-.662,1.88,1.88,0,0,0-.42-3.06,7.312,7.312,0,0,0-.761-.233,4.668,4.668,0,0,0,.556-.274,1.458,1.458,0,0,0,.69-1.429,1.269,1.269,0,0,0-.927-1.176,3.574,3.574,0,0,0-1.016-.208c-1.427-.032-2.854-.03-4.281-.041C2307.387,3955.566,2307.35,3955.571,2307.313,3955.573Zm-8.158,0-.005.039c.043.026.084.054.129.076a.987.987,0,0,1,.554.7,3.084,3.084,0,0,1,.079.642c.006,1.808,0,3.615,0,5.423v.226h1.653v-3.143a2.943,2.943,0,0,0,.367,0,.36.36,0,0,1,.37.189c.683.941,1.377,1.873,2.063,2.813a.332.332,0,0,0,.307.16c.552-.009,1.1,0,1.657,0,.054,0,.109-.008.192-.014l-2.6-3.327c.06-.022.1-.035.142-.054a7.056,7.056,0,0,0,1-.5,1.672,1.672,0,0,0,.653-1.779,1.519,1.519,0,0,0-1.1-1.245,4.95,4.95,0,0,0-1.613-.213c-1.223-.007-2.447,0-3.67,0C2299.278,3955.566,2299.216,3955.574,2299.155,3955.578Zm10.427-.664.048-.063a5.452,5.452,0,0,0-1.006-2.405,11,11,0,0,0-2.7-2.513c-1.288-.885-2.613-1.715-3.914-2.581a13.9,13.9,0,0,1-2.573-2.043,2.853,2.853,0,0,1-.859-2.454c.038-.25.1-.5.145-.753l-.348-.223a.751.751,0,0,0-.057.074,3.342,3.342,0,0,0-.351,2.435,4.487,4.487,0,0,0,1.332,2.3,20.526,20.526,0,0,0,1.792,1.51,10.1,10.1,0,0,1,3.2,3.858c.064.143.152.134.286.094v-1.57c.047.022.071.031.092.044.716.44,1.448.854,2.143,1.326a7.231,7.231,0,0,1,2.57,2.826C2309.407,3954.841,2309.512,3954.869,2309.583,3954.914Zm12.277,6.533a3.323,3.323,0,0,1-2.372.5,2.219,2.219,0,0,1-1.914-1.465,4.333,4.333,0,0,1,.017-3.026,1.709,1.709,0,0,1,1.287-1.136,3.023,3.023,0,0,1,1.5.035,1.727,1.727,0,0,1,.875.542c.066.077.121.163.207.282l.373-1.264a3.487,3.487,0,0,0-.352-.16,5.466,5.466,0,0,0-3.834.083,3.062,3.062,0,0,0-1.9,2.23,4.867,4.867,0,0,0-.074,1.858,3.008,3.008,0,0,0,2.008,2.573,5.568,5.568,0,0,0,2.6.259,3.636,3.636,0,0,0,1.427-.408.288.288,0,0,0,.143-.18C2321.87,3961.944,2321.859,3961.714,2321.859,3961.447Z" transform="translate(-15879.248 -13303.38)"/><path class="a" d="M2713.2,3932.245c.178.039.365.07.545.122a2.087,2.087,0,0,1,1.625,1.776,2.378,2.378,0,0,1-1.213,2.477,4.23,4.23,0,0,1-2.007.5c-1.388.023-2.777.011-4.165.013-.031,0-.063-.005-.117-.01v-.239q0-3.295,0-6.589a4.81,4.81,0,0,0-.071-.8,1.219,1.219,0,0,0-.721-.948c-.051-.023-.1-.055-.2-.112a1.769,1.769,0,0,1,.194-.028c1.671,0,3.343-.014,5.014.017a5.512,5.512,0,0,1,1.429.247,1.576,1.576,0,0,1,1.223,1.454,1.788,1.788,0,0,1-.825,1.759A6.486,6.486,0,0,1,2713.2,3932.245Zm-3.319,4.1c.706-.04,1.39-.039,2.063-.13a1.433,1.433,0,0,0,1.278-1.075,2.855,2.855,0,0,0,.091-.894,1.335,1.335,0,0,0-1.183-1.382,3.291,3.291,0,0,0-.661-.091c-.523-.013-1.047,0-1.579,0,0,.038-.008.069-.008.1C2709.881,3934,2709.881,3935.14,2709.881,3936.344Zm.009-4.393c.516-.022,1.01-.018,1.5-.071a1.3,1.3,0,0,0,1.285-1.332,1.065,1.065,0,0,0-.956-1.244,1.98,1.98,0,0,0-.371-.044c-.484,0-.968,0-1.466,0,0,.849,0,1.683,0,2.516C2709.881,3931.818,2709.885,3931.863,2709.89,3931.951Z" transform="translate(-16246.06 -13303.304)"/><path class="a" d="M2619.606,3933.271v3.85h-2.02c0-.09,0-.173,0-.257q0-3.462-.011-6.924a2.475,2.475,0,0,0-.083-.583,1.148,1.148,0,0,0-.652-.794.393.393,0,0,1-.177-.142,1.6,1.6,0,0,1,.159-.015c1.7,0,3.4-.013,5.092.016a5.176,5.176,0,0,1,1.411.235,1.93,1.93,0,0,1,1.416,2.162,2,2,0,0,1-1.061,1.716c-.359.21-.756.357-1.147.538l3.165,4.063h-.407c-.632,0-1.263-.006-1.895,0a.366.366,0,0,1-.337-.177c-.859-1.171-1.727-2.336-2.585-3.508a.372.372,0,0,0-.372-.187C2619.948,3933.283,2619.79,3933.271,2619.606,3933.271Zm.01-.792a7.908,7.908,0,0,0,1.812-.092,1.487,1.487,0,0,0,1.174-1.1,2.6,2.6,0,0,0,.041-.935,1.041,1.041,0,0,0-1.024-1.038c-.649-.076-1.31-.048-1.966-.065-.01,0-.02.014-.037.026Z" transform="translate(-16165.477 -13303.302)"/><path class="a" d="M2905.254,4196.272v3.389h-1.86v-.227q0-3.659,0-7.319a5.259,5.259,0,0,0-.077-.861,1.235,1.235,0,0,0-.754-.989.2.2,0,0,1-.109-.116h2.792v.707c.145-.114.258-.206.375-.292a2.875,2.875,0,0,1,2.957-.268,2.651,2.651,0,0,1,1.651,2.214,3.357,3.357,0,0,1-2.808,3.805,4.423,4.423,0,0,1-2.07-.033A.642.642,0,0,0,2905.254,4196.272Zm0-2.983c0,.526,0,1.052,0,1.578a.81.81,0,0,0,.824.926,1.824,1.824,0,0,0,1.813-.947,3.338,3.338,0,0,0,.148-2.945,1.5,1.5,0,0,0-1.539-.947,1.986,1.986,0,0,0-1.125.52.354.354,0,0,0-.119.238C2905.243,4192.238,2905.249,4192.764,2905.249,4193.289Z" transform="translate(-16420.771 -13536.999)"/><path class="a" d="M2622.559,4170.887h2.843v3.256c-.69.128-1.382.274-2.08.382a7.717,7.717,0,0,1-2.708-.043,5.048,5.048,0,0,1-3.308-2,4.318,4.318,0,0,1,1.045-5.941,5.1,5.1,0,0,1,2.321-.916,6.5,6.5,0,0,1,3.08.176,5.357,5.357,0,0,1,1.335.653c-.172.346-.339.687-.512,1.025-.052.1-.122.093-.174,0a2.35,2.35,0,0,0-2.508-1.174,3.569,3.569,0,0,0-3.206,3.133,3.776,3.776,0,0,0,2.875,4.28,3.38,3.38,0,0,0,1.792-.039.187.187,0,0,0,.159-.222c-.027-.458-.024-.92-.074-1.376a1.314,1.314,0,0,0-.817-1.1.625.625,0,0,1-.076-.048Z" transform="translate(-16165.373 -13515.126)"/><path class="a" d="M2805.778,3929.545a2.032,2.032,0,0,0-1.29-.966,3.556,3.556,0,0,0-1.947-.018,2.126,2.126,0,0,0-1.5,1.442,5.439,5.439,0,0,0-.058,3.427,2.755,2.755,0,0,0,2.407,1.988,4.473,4.473,0,0,0,2.192-.23,7.114,7.114,0,0,0,.71-.343c0,.306.007.623-.007.938,0,.05-.09.106-.149.141a3.659,3.659,0,0,1-1.283.419,7.429,7.429,0,0,1-3.224-.1,3.774,3.774,0,0,1-2.926-3.411,5.666,5.666,0,0,1,.248-2.642,3.821,3.821,0,0,1,2.486-2.382,7,7,0,0,1,4.247-.046c.621.177.616.2.438.8-.1.324-.2.647-.3.971Z" transform="translate(-16328.05 -13302.461)"/><path class="a" d="M2882.474,4077.017h-1.852v-.219c0-1.355,0-2.709,0-4.064a2.626,2.626,0,0,0-.068-.6.628.628,0,0,0-.639-.51,1.717,1.717,0,0,0-1.149.335c-.24.172-.479.349-.7.541a.372.372,0,0,0-.091.255c-.005,1.342,0,2.683,0,4.025v.241h-1.87c0-.087,0-.165,0-.242,0-1.447.005-2.894-.014-4.341a1.444,1.444,0,0,0-.888-1.49.068.068,0,0,1-.029-.025.31.31,0,0,1-.019-.058h2.809v.995c.122-.1.2-.169.283-.24a3.2,3.2,0,0,1,3.019-.778,1.434,1.434,0,0,1,1.222,1.459c.021,1.545.01,3.091.011,4.636A.475.475,0,0,1,2882.474,4077.017Z" transform="translate(-16396.379 -13430.453)"/><path class="a" d="M2722.574,4070.823h2.808v1c.213-.173.392-.324.577-.467a3.108,3.108,0,0,1,2.857-.5,1.427,1.427,0,0,1,1.1,1.46c.005,1.552,0,3.1,0,4.671h-1.868v-.236c0-1.335,0-2.67,0-4a2.977,2.977,0,0,0-.061-.625.636.636,0,0,0-.648-.526,1.721,1.721,0,0,0-1.148.337c-.24.172-.479.348-.7.54a.368.368,0,0,0-.1.253c-.006,1.342,0,2.683,0,4.024v.243h-1.859v-.225c0-1.394.007-2.788-.007-4.182a3.6,3.6,0,0,0-.136-.87,1.131,1.131,0,0,0-.655-.746,1.312,1.312,0,0,1-.135-.075C2722.581,4070.884,2722.583,4070.864,2722.574,4070.823Z" transform="translate(-16260.087 -13430.425)"/><path class="a" d="M2841.087,4197.375h-1.845v-.981l-.271.224a3.238,3.238,0,0,1-1.65.828,3.753,3.753,0,0,1-1.488-.069,1.4,1.4,0,0,1-1.112-1.4c-.018-1.565-.007-3.13-.007-4.7a.35.35,0,0,1,.016-.068h1.864v.241q0,2.161.005,4.321a1.287,1.287,0,0,0,.011.2c.077.481.318.748,1.01.648a2.214,2.214,0,0,0,.757-.306c.26-.151.486-.358.733-.533a.3.3,0,0,0,.13-.284c0-1.349,0-2.7,0-4.045v-.242h1.849Z" transform="translate(-16360.259 -13538.067)"/><path class="a" d="M2809.921,4077v-.514a9.444,9.444,0,0,1-1.142.492,3.6,3.6,0,0,1-2.193-.043,1.475,1.475,0,0,1-1.122-1.264,1.578,1.578,0,0,1,.793-1.618,5.947,5.947,0,0,1,1.841-.669c.594-.136,1.19-.268,1.776-.4,0-.334.025-.657-.007-.975a.68.68,0,0,0-.554-.6,1.927,1.927,0,0,0-1.146.039.924.924,0,0,0-.645.992c.006.084.011.168.018.283-.328-.037-.638-.071-.948-.106-.189-.022-.377-.057-.567-.068-.153-.009-.2-.089-.217-.224a.935.935,0,0,1,.383-.9,2.928,2.928,0,0,1,1.294-.546,6.77,6.77,0,0,1,3.01.016,2.6,2.6,0,0,1,.715.315,1.136,1.136,0,0,1,.563.984c.01.519.009,1.039.009,1.558q0,1.5,0,3V4077Zm-.021-3.365c-.591.186-1.145.343-1.685.538a1.159,1.159,0,0,0-.692.667c-.306.759.014,1.589,1.048,1.5a2.5,2.5,0,0,0,1.265-.55.163.163,0,0,0,.061-.112C2809.9,4075.015,2809.9,4074.353,2809.9,4073.635Z" transform="translate(-16334.122 -13430.438)"/><path class="a" d="M3070.511,4077c-.07.005-.121.013-.172.013h-1.691v-.592c-.052.031-.079.045-.1.062a3.544,3.544,0,0,1-3.288.431,1.417,1.417,0,0,1-1.07-1.261,1.578,1.578,0,0,1,.778-1.589,5.877,5.877,0,0,1,1.858-.679c.595-.136,1.19-.268,1.773-.4a9.517,9.517,0,0,0-.008-.993.673.673,0,0,0-.549-.58,1.921,1.921,0,0,0-1.127.033.912.912,0,0,0-.663.977c0,.091.009.182.015.3-.327-.037-.637-.071-.946-.106-.189-.022-.377-.057-.567-.067-.154-.008-.2-.09-.219-.223a.935.935,0,0,1,.382-.9,2.918,2.918,0,0,1,1.294-.546,6.776,6.776,0,0,1,3.01.015,2.627,2.627,0,0,1,.715.315,1.154,1.154,0,0,1,.564.964c0,.085.011.171.011.256q0,2.171,0,4.34Zm-1.884-3.339c-.438.12-.849.229-1.257.347a2.8,2.8,0,0,0-.44.167,1.28,1.28,0,0,0-.714.75c-.264.8.151,1.482,1.032,1.421a2.513,2.513,0,0,0,1.322-.56.189.189,0,0,0,.054-.136C3068.629,4075,3068.627,4074.347,3068.627,4073.658Z" transform="translate(-16565.244 -13430.438)"/><path class="a" d="M2758.68,4196.552a4.185,4.185,0,0,1-2.726-.823,3.013,3.013,0,0,1,.11-4.826,4.4,4.4,0,0,1,5.178.213,3.013,3.013,0,0,1-.342,4.754A4.047,4.047,0,0,1,2758.68,4196.552Zm1.566-3.2a3.886,3.886,0,0,0-.276-1.482,1.519,1.519,0,0,0-1.454-1.02,1.46,1.46,0,0,0-1.427,1.018,4.406,4.406,0,0,0-.259,1.1,3.591,3.591,0,0,0,.249,1.873,1.5,1.5,0,0,0,1.432,1.019,1.517,1.517,0,0,0,1.457-1.014A3.866,3.866,0,0,0,2760.247,4193.354Z" transform="translate(-16288.875 -13537.135)"/><path class="a" d="M2617.646,4056.7v-.265q0-3.422-.007-6.843a2.884,2.884,0,0,0-.08-.622,1.185,1.185,0,0,0-.667-.83.337.337,0,0,1-.162-.14h6.7v.831h-3.748v2.984h2.92v.838h-2.935v4.047Z" transform="translate(-16165.536 -13410.144)"/><path class="a" d="M2963.358,4071.279l-1.009.807a1.428,1.428,0,0,0-1.026-.771,1.771,1.771,0,0,0-1.652.479,2.849,2.849,0,0,0-.013,3.886,2.286,2.286,0,0,0,2.354.461c.312-.089.608-.235.929-.362l.417.575a4.965,4.965,0,0,1-1.339.539,5.33,5.33,0,0,1-2.9-.041,2.909,2.909,0,0,1-2.172-2.428,3.007,3.007,0,0,1,1.51-3.139,4.038,4.038,0,0,1,2.072-.615,4.94,4.94,0,0,1,2.69.527Z" transform="translate(-16469.418 -13430.384)"/><path class="a" d="M2705.711,4190.381h2.849v.98c.257-.219.475-.417.7-.6a1.835,1.835,0,0,1,1.359-.476c.128.014.254.05.4.081l-.571,1.521c-.149-.085-.28-.173-.421-.238a.968.968,0,0,0-.989.083.911.911,0,0,0-.5.9c.039,1.222.014,2.446.014,3.669v.242h-1.871v-.241c0-1.46.006-2.92-.017-4.38a1.414,1.414,0,0,0-.881-1.451C2705.775,4190.464,2705.762,4190.437,2705.711,4190.381Z" transform="translate(-16245.023 -13537.237)"/><path class="a" d="M2681.938,4071.68c.062,0,.124-.011.186-.011.809,0,1.619,0,2.428,0,.145,0,.207.025.207.193-.006,1.94,0,3.88,0,5.819,0,.051-.006.1-.01.164h-1.868v-.229c0-1.335.005-2.67,0-4a4.736,4.736,0,0,0-.087-.9,1.2,1.2,0,0,0-.723-.9c-.045-.02-.087-.049-.131-.073Z" transform="translate(-16223.781 -13431.279)"/><path class="a" d="M3022.591,4071.855h2.783v6.151h-1.845v-.221c0-1.322.007-2.643,0-3.965a5.205,5.205,0,0,0-.107-.975,1.177,1.177,0,0,0-.707-.866,1.343,1.343,0,0,1-.134-.08Z" transform="translate(-16528.08 -13431.448)"/><path class="a" d="M3032.763,4044.351a1.011,1.011,0,0,1-2.022-.021,1.011,1.011,0,1,1,2.022.021Z" transform="translate(-16535.375 -13405.961)"/><path class="a" d="M2691.057,4045.32a.995.995,0,1,1,1.011-.994A1.015,1.015,0,0,1,2691.057,4045.32Z" transform="translate(-16231.026 -13405.968)"/><path class="a" d="M2444.639,4039.22l-.825,1.356-.646-.4.271-.837-1.318-.714a.864.864,0,0,0,.033.244,2.1,2.1,0,0,0,.184.255c.209.28.205.37-.052.612a.216.216,0,0,1-.173.023,5.79,5.79,0,0,0-3.892.254,5.665,5.665,0,0,0-2.328,1.83c-.035.046-.072.09-.087.11l-1.839-1.561c.027-.019.072-.054.12-.083q1.763-1.062,3.529-2.119a.683.683,0,0,1,.331-.091q2.181-.009,4.362,0a.815.815,0,0,1,.354.089C2443.317,4038.525,2443.966,4038.868,2444.639,4039.22Z" transform="translate(-16002.273 -13401.294)"/><path class="a" d="M2481.907,4087.592l-3.148.168c.12-.715.232-1.4.353-2.081a.169.169,0,0,1,.13-.1q1.144.038,2.287.1c.044,0,.118.053.124.09C2481.742,4086.368,2481.822,4086.97,2481.907,4087.592Z" transform="translate(-16042.286 -13443.711)"/><path class="a" d="M2511.54,4111.124l2.543.145a3.746,3.746,0,0,1-.3,1.307.2.2,0,0,1-.138.084c-.846.11-1.693.215-2.54.32a.661.661,0,0,1-.076,0Z" transform="translate(-16071.112 -13466.528)"/><path class="a" d="M2518.793,4088.822l-2.481.132v-1.8c.159,0,.341-.007.522,0,.46.02.92.042,1.378.076a.263.263,0,0,1,.178.133A4.466,4.466,0,0,1,2518.793,4088.822Z" transform="translate(-16075.832 -13445.117)"/><path class="a" d="M2405.779,4037.986c.793-.127,1.583-.284,2.381-.373a2.744,2.744,0,0,1,1.521.33,1.084,1.084,0,0,1-.108.087c-.624.375-1.247.751-1.874,1.121a.224.224,0,0,1-.188.02c-.582-.365-1.159-.739-1.738-1.111Z" transform="translate(-15977.086 -13400.849)"/><path class="a" d="M2485.408,4064.172l-2.216.125c.21-.619.406-1.207.614-1.791a.235.235,0,0,1,.165-.127,5.69,5.69,0,0,1,.629-.016.166.166,0,0,1,.118.077A8.829,8.829,0,0,1,2485.408,4064.172Z" transform="translate(-16046.246 -13422.968)"/><path class="a" d="M2460.326,4066.325l-.218,1.561-1.74.092A4.5,4.5,0,0,1,2460.326,4066.325Z" transform="translate(-16024.071 -13426.509)"/><path class="a" d="M2510.731,4065.355a4.942,4.942,0,0,1,1.916,1.349c-.517.026-.98.051-1.443.067-.033,0-.087-.053-.1-.091C2510.979,4066.247,2510.859,4065.813,2510.731,4065.355Z" transform="translate(-16070.847 -13425.643)"/><path class="c" d="M2413.687,4007.273a1.2,1.2,0,0,1-1.529.335A1.363,1.363,0,0,1,2413.687,4007.273Z" transform="translate(-15982.791 -13373.677)"/><path class="a" d="M2422.416,4218.334v-2.88a7.256,7.256,0,0,1,1.961.124c.647.192.893.68.822,1.448a1.31,1.31,0,0,1-1.359,1.3C2423.371,4218.358,2422.9,4218.334,2422.416,4218.334Z" transform="translate(-15991.954 -13559.721)"/><path class="a" d="M2422.4,4190.833v-2.18a6.753,6.753,0,0,1,1.649.086.782.782,0,0,1,.606.757,1.118,1.118,0,0,1-1.168,1.333C2423.129,4190.857,2422.773,4190.833,2422.4,4190.833Z" transform="translate(-15991.936 -13535.777)"/><path class="a" d="M2346.214,4191.357v-2.623c.418,0,.829,0,1.24,0a2.219,2.219,0,0,1,.41.044.946.946,0,0,1,.832.968,1.363,1.363,0,0,1-1.431,1.605C2346.92,4191.375,2346.572,4191.357,2346.214,4191.357Z" transform="translate(-15923.883 -13535.856)"/></g></svg>