<svg xmlns="http://www.w3.org/2000/svg" width="137.178" height="26.101" viewBox="0 0 137.178 26.101"><defs><style>.a{fill:#159825;}.b{fill:#aaa;}.c{fill:#5523c4;}</style></defs><g transform="translate(14376 9278)"><path class="a" d="M1665.117,5219.544c-.221,1.841,1.086,2.84,2.789,2.961.114.057.243,0,.358.048a5.746,5.746,0,0,0,1.08,0c.117-.045.246.008.362-.047a9.207,9.207,0,0,0,2.443-.5,47.173,47.173,0,0,0,6.429-2.628c2.661-1.277,5.254-2.678,7.8-4.162.494-.287,1-.561,1.475-.873.018-.011.046-.008.063-.02.105-.081.264-.128.33-.038.1.135-.082.208-.166.27-.739.55-1.477,1.1-2.232,1.631-1.307.917-2.607,1.846-3.944,2.718-1.1.718-2.23,1.386-3.377,2.026a33.44,33.44,0,0,1-6.373,2.866,12.876,12.876,0,0,1-2.952.594c-.23.061-.47-.022-.7.049h-.083c-.272-.074-.554.012-.827-.048a5.692,5.692,0,0,1-2.7-.766,3.773,3.773,0,0,1-1.875-2.593c-.054-.273-.034-.546-.083-.815a1.437,1.437,0,0,1,0-.532,8.6,8.6,0,0,1,.363-1.953c.02-.08.12-.157.033-.239s-.189.008-.27.048c-1.338.674-2.663,1.374-4.012,2.025-1.461.706-2.939,1.376-4.417,2.045-1.358.615-2.717,1.229-4.093,1.8-1.822.762-3.647,1.518-5.5,2.2-.039.015-.082.021-.175.043.322-.87.681-1.684.922-2.533a1.713,1.713,0,0,1,1.276-1.248,126.2,126.2,0,0,0,17.741-7.584,1.322,1.322,0,0,0,.513-.458,44.475,44.475,0,0,1,4.509-5.663c.083-.09.163-.184.244-.276a.292.292,0,0,1,.238-.163c.774-.174,1.539-.384,2.311-.567a.443.443,0,0,1,.231-.008c.124.064.057.15.019.225a1.637,1.637,0,0,1-.32.386,45.128,45.128,0,0,0-4.077,4.786,36.455,36.455,0,0,0,8.083-6.26,20.675,20.675,0,0,0,1.82-2.02,10.782,10.782,0,0,0,1.554-2.418c.062-.138.208-.321.09-.428-.137-.124-.276.076-.4.156a33.177,33.177,0,0,0-3.5,2.755,7.275,7.275,0,0,0-.665.613,7.439,7.439,0,0,1-1.359.337c-.411.1-.827.179-1.241.266-.126.026-.262.08-.379-.034,1.128-1.135,2.334-2.185,3.545-3.228a19.255,19.255,0,0,1,2.97-2.181,3.531,3.531,0,0,1,1.237-.494c.152-.075.327.026.477-.061h.067c.194.192.477.249.663.466a1.739,1.739,0,0,1,.183,1.718,8.205,8.205,0,0,1-.827,1.9c-.037.068-.1.122-.027.2a12.563,12.563,0,0,1-1.072,1.578.411.411,0,0,1-.206.165c-.333.373-.664.747-1,1.118a36.339,36.339,0,0,1-7.9,6.543c-1.248.772-2.516,1.513-3.778,2.264a.458.458,0,0,0-.171.148,10.57,10.57,0,0,0-1.455,3.247,1.652,1.652,0,0,0-.017.3C1665.1,5219.308,1665.17,5219.435,1665.117,5219.544Z" transform="translate(-16020.87 -14477.557)"/><path class="b" d="M2170.865,5199.557c-.145.128-.317.049-.477.061a.107.107,0,0,0,.006-.061Z" transform="translate(-16511.027 -14477.557)"/><path class="c" d="M3209.523,5276.536a4.139,4.139,0,0,1-2.878,3.032,9.85,9.85,0,0,1-2.447.537c-.14.05-.293-.013-.432.048h-1.491c-.183-.068-.378.009-.562-.049l-.322-.017c-.11-.064-.24,0-.351-.052a7.886,7.886,0,0,1-2.295-.616,3.993,3.993,0,0,1-2.32-2.519,5.036,5.036,0,0,1-.106-1.036.844.844,0,0,1-.02-.3q0-4.92,0-9.842c0-.105-.046-.224.048-.317l4.2,0c.092.108.045.236.045.354q0,4.5,0,9a1.024,1.024,0,0,0,.027.4c-.116,1.173.491,1.888,1.8,1.987.137.062.288,0,.426.048h.206c.137-.051.288.016.424-.047a2.049,2.049,0,0,0,1.591-.85,1.185,1.185,0,0,0,.208-.868,1.03,1.03,0,0,0,.028-.4q0-4.636,0-9.274c0-.117-.047-.245.045-.354,1.277,0,2.554.016,3.831,0,.3,0,.392.063.39.38-.016,3.408-.016,6.816-.019,10.225a.7.7,0,0,0,.014.1C3209.51,5276.246,3209.579,5276.4,3209.523,5276.536Z" transform="translate(-17467.9 -14538.974)"/><path class="c" d="M3491.408,5263.834c.016.437.323.638.667.791a8.751,8.751,0,0,0,1.683.472,18.217,18.217,0,0,1,3.409.948,3.831,3.831,0,0,1,2.415,2.449,4.347,4.347,0,0,1-1.491,4.615,7.025,7.025,0,0,1-3.428,1.377c-.166.023-.33.053-.495.079-.136.055-.287-.017-.421.049l-.521.019a15.519,15.519,0,0,1-1.745,0l-.387-.018c-.134-.067-.285.006-.42-.051a13.4,13.4,0,0,1-3.036-.685c-.327-.11-.648-.232-.972-.351a.222.222,0,0,1-.157-.326c.292-.828.583-1.655.855-2.489.062-.19.129-.179.279-.113a15.282,15.282,0,0,0,3.372,1.049,3.762,3.762,0,0,0,.5.026c.14.06.294,0,.435.049a5.048,5.048,0,0,0,.945,0c.138-.051.288.015.425-.048a1.871,1.871,0,0,0,1.794-1.075c.073-.1,0-.231.054-.338-.084-.849-.76-1.1-1.409-1.338-1.111-.4-2.3-.511-3.431-.833a4.536,4.536,0,0,1-3.121-2.282,3.031,3.031,0,0,1-.29-1.282,4.893,4.893,0,0,1,.312-2.075,4.14,4.14,0,0,1,1.707-1.974,8.275,8.275,0,0,1,3.153-.961c.141-.053.3.011.436-.05h1.886c.162.064.337-.007.5.049a12.94,12.94,0,0,1,3.522.883c.564.248.573.234.334.8-.274.647-.566,1.288-.819,1.944-.084.218-.176.194-.328.118a7.764,7.764,0,0,0-2.749-.85c-.1-.01-.169-.114-.28-.071-.133-.068-.283.005-.418-.051a3.654,3.654,0,0,0-2.237.365.916.916,0,0,0-.528.745A.7.7,0,0,0,3491.408,5263.834Z" transform="translate(-17738.568 -14533.435)"/><path class="c" d="M2712.689,5276.954c1.848,0,3.7.017,5.543.005.31,0,.389.081.38.384-.022.771-.016,1.542,0,2.313,0,.212-.062.258-.265.258q-4.772-.01-9.543,0c-.216,0-.257-.07-.257-.268q.008-6.973,0-13.944c0-.232.08-.271.288-.27q4.738.009,9.476,0c.272,0,.306.094.3.326-.013.827,0,1.653,0,2.48a.611.611,0,0,1-.36.036c-1.746,0-3.491.007-5.237,0-.264,0-.371.051-.361.342.022.68.02,1.362,0,2.042-.007.26.078.314.323.312,1.421-.011,2.842-.006,4.264,0a.9.9,0,0,1,.365.026q0,1.379,0,2.759a.793.793,0,0,1-.364.028c-1.421,0-2.843.007-4.264,0-.245,0-.328.053-.323.312.017.871.006,1.741.007,2.612A.415.415,0,0,0,2712.689,5276.954Z" transform="translate(-17012.973 -14538.997)"/><path class="c" d="M2440.018,5265.444c1.983,0,3.965.006,5.948-.006.286,0,.394.056.384.365-.023.726-.019,1.453,0,2.179.007.272-.087.335-.347.333-1.2-.013-2.4,0-3.6-.013-.274,0-.351.058-.35.342.011,3.632,0,7.263.013,10.895,0,.294-.058.393-.376.387-1.142-.022-2.285-.018-3.428,0-.262,0-.308-.078-.307-.319.008-3.643,0-7.285.013-10.927,0-.312-.086-.38-.385-.376-1.187.017-2.375,0-3.562.012-.246,0-.351-.037-.343-.32.022-.748.02-1.5,0-2.245-.006-.257.071-.312.318-.31C2436.007,5265.449,2438.012,5265.444,2440.018,5265.444Z" transform="translate(-16756.605 -14539.005)"/><path class="c" d="M2966.475,5265.422h4.067c.1.106.046.235.046.352q0,5.44,0,10.88a.674.674,0,0,0,.033.361c.436.008.871.022,1.306.023,1.534,0,3.068.006,4.6,0,.244,0,.335.059.33.316-.015.748-.017,1.5,0,2.245.006.256-.072.313-.32.312q-5.039-.012-10.078,0c-.082-.1-.042-.215-.042-.322q0-6.921,0-13.841C2966.426,5265.634,2966.379,5265.516,2966.475,5265.422Z" transform="translate(-17253.492 -14538.989)"/><path class="c" d="M1739.919,5272.246c-.966.188-1.918.439-2.87.688l-9.488,2.293-10.791,2.612a.306.306,0,0,1-.068,0c-.068-.091.009-.167.037-.244.253-.69.515-1.379.759-2.073a.445.445,0,0,1,.368-.325q10.665-2.279,21.327-4.567c.087-.019.172-.048.258-.071a30.359,30.359,0,0,0,2.99-.662.949.949,0,0,1,.372-.144c.735-.146,1.469-.294,2.2-.437.129-.025.265-.068.381.041a17.864,17.864,0,0,1-1.786,2,5.4,5.4,0,0,1-1.282.381c-.684.169-1.371.323-2.055.5A.461.461,0,0,1,1739.919,5272.246Z" transform="translate(-16087.844 -14542.593)"/><path class="c" d="M2159.372,5212.271c.388-.561.815-1.1,1.167-1.681.019-.032.073-.041.111-.061l4.96-.986,8.9-1.765q2.565-.51,5.128-1.022c.114-.022.253-.067.289.063.042.154-.13.191-.234.22q-1.728.476-3.461.936c-2.421.638-4.841,1.283-7.267,1.9-3,.767-6.007,1.513-9.012,2.264A1.9,1.9,0,0,1,2159.372,5212.271Z" transform="translate(-16500.752 -14484.247)"/><path class="b" d="M2966,5265.433c-.007.1-.02.2-.02.3q0,6.957,0,13.914c0,.089.009.178.014.268-.129-.09-.077-.225-.077-.34q0-6.9,0-13.807C2965.921,5265.654,2965.865,5265.517,2966,5265.433Z" transform="translate(-17253.021 -14539)"/><path class="b" d="M2774.04,5309.89c-.648-.007-1.3-.019-1.944-.021-.917,0-1.835-.006-2.752,0-.208,0-.292-.039-.287-.272.017-.725.016-1.451,0-2.176,0-.227.071-.274.284-.274,1.779.008,3.558,0,5.337,0,.123,0,.245-.009.368-.014-.106.126-.251.07-.378.07-1.724,0-3.447.01-5.17,0-.3,0-.387.076-.375.374.023.613.024,1.229,0,1.841-.013.316.071.419.4.415,1.387-.018,2.775-.008,4.163-.006C2773.807,5309.83,2773.937,5309.788,2774.04,5309.89Z" transform="translate(-17069.412 -14577.899)"/><path class="b" d="M3027.838,5277.014c-.123-.1-.055-.227-.055-.338q-.007-5.427,0-10.855c0-.134-.016-.267-.024-.4.151.108.081.268.081.4Q3027.84,5271.419,3027.838,5277.014Z" transform="translate(-17310.703 -14538.989)"/><path class="b" d="M3195.845,5265.427c-.008.133-.022.267-.022.4q0,4.946,0,9.892c0,.055-.006.111-.009.167-.094-.106-.054-.235-.054-.354q0-4.868,0-9.737C3195.764,5265.671,3195.7,5265.522,3195.845,5265.427Z" transform="translate(-17467.395 -14538.994)"/><path class="b" d="M3329.876,5265.405a1.083,1.083,0,0,0-.033.431q0,4.6-.007,9.2a.832.832,0,0,1-.036.395q0-4.876,0-9.755C3329.795,5265.58,3329.763,5265.47,3329.876,5265.405Z" transform="translate(-17592.418 -14538.974)"/><path class="b" d="M3259.733,5275.161a1.4,1.4,0,0,1-.041-.529q0-4.415,0-8.829a.965.965,0,0,0-.033-.4c.113.064.081.175.081.271Q3259.737,5270.419,3259.733,5275.161Z" transform="translate(-17527.002 -14538.974)"/><path class="b" d="M2769.061,5392.22c-.125-.062-.063-.175-.063-.262-.006-.873.006-1.745-.01-2.616,0-.247.053-.321.311-.319,1.434.014,2.869.008,4.3.006.123,0,.245-.012.368-.018-.1.106-.231.063-.349.063-1.409,0-2.818.008-4.227,0-.267,0-.344.076-.34.34C2769.069,5390.346,2769.061,5391.283,2769.061,5392.22Z" transform="translate(-17069.344 -14654.263)"/><path class="b" d="M3560.739,5484.869h1.745A5.65,5.65,0,0,1,3560.739,5484.869Z" transform="translate(-17807.826 -14743.671)"/><path class="b" d="M1982.615,5568.613a4.079,4.079,0,0,1,.827.048A2.37,2.37,0,0,1,1982.615,5568.613Z" transform="translate(-16335.889 -14821.78)"/><path class="b" d="M1996.151,5568.614a2.434,2.434,0,0,1,.7-.049C1996.624,5568.682,1996.384,5568.6,1996.151,5568.614Z" transform="translate(-16348.515 -14821.733)"/><path class="b" d="M3276.893,5483.831a1.681,1.681,0,0,1,.563.049C3277.268,5483.867,3277.072,5483.942,3276.893,5483.831Z" transform="translate(-17543.078 -14742.701)"/><path class="b" d="M1912.527,5498.669c0,.178,0,.355,0,.533A.572.572,0,0,1,1912.527,5498.669Z" transform="translate(-16270.455 -14756.542)"/><path class="b" d="M3604.733,5259.354a1.147,1.147,0,0,1-.5-.049C3604.4,5259.318,3604.576,5259.245,3604.733,5259.354Z" transform="translate(-17848.395 -14533.273)"/><path class="b" d="M3600.713,5301.341a.793.793,0,0,1,.418.051C3600.99,5301.381,3600.841,5301.444,3600.713,5301.341Z" transform="translate(-17845.109 -14572.487)"/><path class="b" d="M3558.909,5318.34a.48.48,0,0,1,0-.436Z" transform="translate(-17806.07 -14587.94)"/><path class="b" d="M3392.923,5424.918a1,1,0,0,1,.051-.425C3392.964,5424.635,3393.029,5424.787,3392.923,5424.918Z" transform="translate(-17651.299 -14687.357)"/><path class="b" d="M3287.924,5439.814a.754.754,0,0,1-.426-.047C3287.641,5439.775,3287.792,5439.713,3287.924,5439.814Z" transform="translate(-17552.971 -14701.593)"/><path class="b" d="M3297.308,5439.767a.768.768,0,0,1-.424.048C3297.016,5439.714,3297.166,5439.775,3297.308,5439.767Z" transform="translate(-17561.725 -14701.593)"/><path class="b" d="M3561.656,5440.812a.806.806,0,0,1-.435-.049C3561.367,5440.773,3561.522,5440.707,3561.656,5440.812Z" transform="translate(-17808.275 -14702.522)"/><path class="b" d="M3582.151,5440.764a.8.8,0,0,1-.425.048C3581.858,5440.71,3582.008,5440.772,3582.151,5440.764Z" transform="translate(-17827.4 -14702.522)"/><path class="b" d="M3307.408,5483.849a.889.889,0,0,1,.432-.048C3307.7,5483.9,3307.552,5483.839,3307.408,5483.849Z" transform="translate(-17571.539 -14742.67)"/><path class="b" d="M3548.742,5483.808a.946.946,0,0,1,.42.051C3549.021,5483.848,3548.871,5483.913,3548.742,5483.808Z" transform="translate(-17796.635 -14742.68)"/><path class="b" d="M3594.4,5483.848a.878.878,0,0,1,.421-.05C3594.7,5483.9,3594.546,5483.837,3594.4,5483.848Z" transform="translate(-17839.227 -14742.668)"/><path class="b" d="M3570.166,5259.32a.852.852,0,0,1-.436.05C3569.865,5259.266,3570.02,5259.333,3570.166,5259.32Z" transform="translate(-17816.211 -14533.289)"/><path class="b" d="M3266.894,5482.773a.606.606,0,0,1,.351.052C3267.126,5482.818,3267,5482.872,3266.894,5482.773Z" transform="translate(-17533.752 -14741.712)"/><path class="b" d="M1945.691,5491.832a.544.544,0,0,1,.052-.344C1945.733,5491.6,1945.786,5491.729,1945.691,5491.832Z" transform="translate(-16301.444 -14749.844)"/><path class="b" d="M1987.587,5540.524a.575.575,0,0,1-.357-.048C1987.35,5540.481,1987.479,5540.428,1987.587,5540.524Z" transform="translate(-16340.193 -14795.526)"/><path class="b" d="M2008.961,5540.476a.592.592,0,0,1-.362.047C2008.709,5540.428,2008.839,5540.481,2008.961,5540.476Z" transform="translate(-16360.125 -14795.526)"/><path class="b" d="M3614.7,5419.9a.455.455,0,0,1-.053.34C3614.66,5420.13,3614.608,5420.006,3614.7,5419.9Z" transform="translate(-17858.104 -14683.077)"/></g></svg>