<svg xmlns="http://www.w3.org/2000/svg" width="121" height="29.848" viewBox="0 0 121 29.848">
  <g id="Group_4529" data-name="Group 4529" transform="translate(13406 9279.999)">
    <path id="Path_857" data-name="Path 857" d="M6922.488,7313.126h-6.4c-1.379,0-2.758.012-4.136-.008-.375,0-.514.092-.506.488.025,1.106.032,2.214,0,3.318-.016.475.17.548.586.546,2.894-.015,5.786.008,8.68-.021.553-.007.67.166.659.681-.032,1.58-.027,3.161,0,4.74.008.448-.129.566-.568.563-2.893-.018-5.786,0-8.679-.021-.521-.006-.7.115-.679.663a26.126,26.126,0,0,1,0,2.979c-.044.646.208.721.763.718,4.091-.022,8.183,0,12.272-.025.582,0,.707.166.7.716-.035,1.761-.026,3.522,0,5.282,0,.424-.123.528-.536.528q-10.509-.019-21.02,0c-.511,0-.575-.187-.574-.627q.021-7.28.009-14.562c0-3.929.014-7.857-.015-11.786,0-.581.17-.7.718-.692,4.77.022,9.539.052,14.307-.019.973-.015,1.089.657,1.4,1.181.959,1.59,1.862,3.211,2.783,4.822C6922.317,7312.726,6922.371,7312.87,6922.488,7313.126Z" transform="translate(-20309.031 -16586.59)"/>
    <path id="Path_858" data-name="Path 858" d="M7037.381,7306.7h1.326c2.463,0,4.926,0,7.389,0a.672.672,0,0,1,.735.4c1.053,2.076,2.151,4.131,3.229,6.2.4.759.781,1.523,1.192,2.331.561-1.047,1.119-2.078,1.662-3.118.694-1.327,1.375-2.66,2.061-3.99a10.352,10.352,0,0,0,.533-1.061,1.119,1.119,0,0,1,1.279-.77c2.483.047,4.97.019,7.455.019h.818c-.7,1.232-1.339,2.359-1.988,3.477-1.132,1.949-2.275,3.89-3.41,5.837s-2.228,3.888-3.375,5.811a5.809,5.809,0,0,0-.951,3.281c.089,2.864.018,5.731.039,8.6,0,.482-.087.659-.621.652q-3.523-.048-7.049,0c-.522.007-.631-.151-.628-.645.024-2.912-.044-5.825.043-8.734a4.621,4.621,0,0,0-.76-2.751c-1.284-1.971-2.327-4.079-3.554-6.081-.914-1.488-1.758-3.018-2.627-4.532C7039.27,7310.025,7038.368,7308.433,7037.381,7306.7Z" transform="translate(-20425.131 -16586.67)"/>
    <path id="Path_859" data-name="Path 859" d="M7248.966,7473.244c.362-.265.19-.645.281-.955a12.646,12.646,0,0,0,.366-1.336c.1-.587.383-.774.992-.786.632-.014.619.467.719.77.234.708.353,1.454.63,2.207.172-.806.354-1.611.508-2.421.043-.227.011-.5.31-.512.377-.021.8-.145,1.121.071.175.118.031.436-.042.68-.307,1.007-.531,2.039-.856,3.039-.143.437-.255.882-.4,1.315-.168.5-.61.222-.929.3-.337.08-.414-.143-.481-.4-.235-.884-.479-1.767-.781-2.649a25.34,25.34,0,0,1-.693,2.633c-.165.61-.6.362-.954.415-.395.061-.553-.239-.595-.508-.234-1.538-.875-2.966-1.189-4.481-.077-.371,0-.419.324-.436.612-.033,1.177-.072,1.236.791C7248.582,7471.729,7248.958,7472.423,7248.966,7473.244Z" transform="translate(-20606.229 -16727.939)"/>
    <path id="Path_860" data-name="Path 860" d="M7532.047,7472.8a21.465,21.465,0,0,0,.842-2.51c.226-.571.621-.271.939-.327.37-.065.428.239.47.51.131.836.563,1.577.729,2.417a14.781,14.781,0,0,1,.518-2.416c.053-.419,1.143-.774,1.475-.5.142.119.015.3-.018.418-.186.725-.409,1.438-.613,2.159s-.4,1.442-.6,2.165c-.089.327-.148.673-.613.653-.422-.018-.891.135-1.013-.529-.156-.847-.388-1.678-.632-2.705-.225.883-.438,1.593-.579,2.317-.113.581-.267,1-1,.933-.374-.035-.55-.135-.647-.5-.341-1.28-.715-2.551-1.074-3.827-.012-.042,0-.091-.011-.134-.283-1.045-.284-1.036.821-.978.262.013.341.075.43.356C7531.726,7471.1,7531.8,7471.934,7532.047,7472.8Z" transform="translate(-20850.891 -16727.701)"/>
    <path id="Path_861" data-name="Path 861" d="M7376.847,7456.283c-.176.629-.684.953-1.007,1.412a.763.763,0,0,0-.075.9c.49,1.006.926,2.038,1.384,3.062-.06.023-.078.031-.1.037-1.468.428-1.832-.64-2.246-1.647-.09-.223-.063-.662-.375-.573a1.047,1.047,0,0,0-.6.733,2.909,2.909,0,0,0-.024.673c0,.776-.432,1.071-1.165.823-.219-.073-.188-.223-.189-.371,0-2.075-.032-4.149.015-6.224.018-.746.81-.677,1.321-1.043v4.1a8.35,8.35,0,0,0,1.252-1.518c.213-.393.573-.37.938-.359C7376.264,7456.291,7376.549,7456.283,7376.847,7456.283Z" transform="translate(-20714.68 -16714.029)"/>
    <path id="Path_862" data-name="Path 862" d="M7430.4,7472.389c0-.767.006-1.534,0-2.3,0-.264.042-.418.363-.417a16.957,16.957,0,0,0,2.393-.095,1.756,1.756,0,0,1,1.983,1.79c.045,1.1,0,2.211.015,3.316.01.667-.48.362-.771.4-.309.045-.625.079-.6-.443.041-.9.021-1.8.006-2.706a1.2,1.2,0,0,0-.608-1.033c-.373-.24-.655-.017-.909.15a1.111,1.111,0,0,0-.376,1.01c0,.835-.021,1.67.008,2.5.015.408-.1.551-.524.536-1.211-.042-.948.1-.974-.958C7430.389,7473.562,7430.4,7472.976,7430.4,7472.389Z" transform="translate(-20764.76 -16727.422)"/>
    <path id="Path_863" data-name="Path 863" d="M7303.235,7404.228v1.826c0,.817-.592,1.2-1.3.77-.189-.114-.231-.12-.418-.04-1.7.739-2.882-.161-3.013-1.856-.075-.963,0-1.937-.022-2.906-.011-.405.091-.554.523-.539,1.214.043.953-.1.974.954.017.789.012,1.579,0,2.367a.781.781,0,0,0,.709.889.837.837,0,0,0,1.048-.691,9.71,9.71,0,0,0,.128-2.877c-.017-.581.215-.643.7-.647.5-.006.731.088.688.656C7303.194,7402.826,7303.235,7403.528,7303.235,7404.228Z" transform="translate(-20650.754 -16668.586)"/>
    <path id="Path_864" data-name="Path 864" d="M7437.261,7403.287c0-.677-.013-1.354.008-2.029.006-.218-.154-.581.173-.627.373-.054.824-.2,1.142.1.118.116.085.229.29.1,1.492-.958,3.042-.078,3.127,1.861.043.969-.006,1.939.013,2.907.013.667-.476.368-.766.409-.31.044-.632.083-.605-.437.039-.743.014-1.487.009-2.231a2.712,2.712,0,0,0-.095-.65c-.138-.551-.4-.913-1-.864-.666.055-.888.583-.925,1.123a19.771,19.771,0,0,0,0,2.568c.037.613-.345.5-.688.5s-.736.122-.693-.5C7437.3,7404.777,7437.261,7404.031,7437.261,7403.287Z" transform="translate(-20770.672 -16667.691)"/>
    <path id="Path_865" data-name="Path 865" d="M7700.094,7386.72c0,.513.021,1-.008,1.482-.022.392.069.621.512.536.615-.118.733.156.741.732.008.593-.24.688-.714.623-.4-.057-.575.076-.54.512.038.471.008.946.009,1.42,0,.888.347,1.106,1.165.746l.221-.093c.2.186-.01.307-.031.446-.158,1.061-.317,1.2-1.229,1.17a1.45,1.45,0,0,1-1.474-1.413c-.033-.766-.017-1.533,0-2.3,0-.307-.02-.526-.423-.493-.617.053-.365-.434-.383-.708s-.174-.69.387-.641c.258.022.482-.037.409-.354C7698.482,7387.3,7699.244,7387.031,7700.094,7386.72Z" transform="translate(-20995.928 -16655.836)"/>
    <path id="Path_866" data-name="Path 866" d="M7672.057,7386.735c0,.491.029.956-.009,1.417s.093.691.585.6c.558-.1.67.162.66.669-.009.476-.054.8-.643.688-.465-.088-.655.1-.6.582a10.229,10.229,0,0,1,.008,1.081c0,1.219.177,1.352,1.339.989.006.115.016.228.017.339.017,1.221-.106,1-.914,1.188a1.419,1.419,0,0,1-1.665-.952,10.374,10.374,0,0,1-.124-2.677c-.012-.363-.029-.587-.5-.566-.569.024-.292-.452-.309-.7-.016-.231-.208-.641.316-.637.252,0,.556.027.474-.357C7670.466,7387.326,7671.179,7387.018,7672.057,7386.735Z" transform="translate(-20971.689 -16655.85)"/>
    <path id="Path_867" data-name="Path 867" d="M7770.222,7402.159a.985.985,0,0,0-.9-.36c-.622.023-.9.276-.909.891-.008.882-.019,1.762.006,2.642.012.4-.074.554-.516.549-.983-.01-.984.017-.984-.953,0-1.309.02-2.619-.01-3.928-.011-.451.134-.569.571-.564.614.008,1.245.255,1.854-.106a.775.775,0,0,1,.6,0c.333.135.852.176.534.8A4.93,4.93,0,0,0,7770.222,7402.159Z" transform="translate(-21055.564 -16667.543)"/>
    <path id="Path_868" data-name="Path 868" d="M7656.53,7453.213c0,2.51,0,4.921,0,7.332,0,.316-.093.419-.419.435-1.079.049-1.078.063-1.078-.99,0-1.759.024-3.518-.014-5.275a.922.922,0,0,1,.648-1.057A7.851,7.851,0,0,0,7656.53,7453.213Z" transform="translate(-20958.877 -16713.297)"/>
    <path id="Path_869" data-name="Path 869" d="M7360.97,7384.792c0,2.465-.01,4.854.01,7.244,0,.424-.194.545-.522.446s-.945.361-.96-.329c-.047-2.12-.018-4.242-.019-6.364,0-.164.017-.291.2-.372C7360.1,7385.232,7360.506,7385.019,7360.97,7384.792Z" transform="translate(-20703.469 -16654.17)"/>
    <path id="Path_870" data-name="Path 870" d="M7625.008,7472.176c0-.678-.013-1.355.008-2.031.007-.221-.153-.584.168-.634.373-.059.854-.221,1.138.1.159.182.135.134.267.028a1.263,1.263,0,0,1,.918-.312c.364.026.809-.018.954.336.133.323-.059.721-.163,1.077-.078.269-.222.149-.4.119-1.178-.2-1.508.084-1.525,1.28-.011.678-.032,1.356.007,2.031.03.517-.056.737-.67.751-.663.016-.736-.249-.705-.784C7625.037,7473.487,7625.008,7472.831,7625.008,7472.176Z" transform="translate(-20932.916 -16727.221)"/>
    <path id="Path_871" data-name="Path 871" d="M7345.679,7470.95c-1.166-.594-1.895-.3-1.862,1.03.02.766-.026,1.535.013,2.3.033.649-.416.437-.728.455s-.669.109-.651-.468c.042-1.352.014-2.706.014-4.06,0-.864.407-1.183,1.228-.844a.511.511,0,0,0,.6-.033,1.421,1.421,0,0,1,1.229-.085c.219.055.592.216.355.674A3.87,3.87,0,0,0,7345.679,7470.95Z" transform="translate(-20688.762 -16727.066)"/>
    <path id="Path_872" data-name="Path 872" d="M7412.4,7473.064c0-.742.02-1.486-.009-2.229-.016-.394.127-.525.5-.483a3.236,3.236,0,0,0,.607,0c.288-.021.4.086.395.384q-.016,2.329,0,4.66c0,.3-.116.368-.4.386-1.1.069-1.1.081-1.1-1.03Z" transform="translate(-20749.203 -16728.102)"/>
    <path id="Path_873" data-name="Path 873" d="M7342.85,7404.206c0,.743-.037,1.487.012,2.227.039.564-.3.51-.637.479-.3-.028-.752.216-.74-.44q.044-2.26,0-4.523c-.014-.655.433-.418.736-.443.331-.029.68-.095.641.474C7342.813,7402.717,7342.85,7403.463,7342.85,7404.206Z" transform="translate(-20687.926 -16668.594)"/>
    <path id="Path_874" data-name="Path 874" d="M7419.354,7404.14c0-.72.038-1.442-.013-2.159-.039-.564.3-.511.638-.479.3.028.752-.217.739.44q-.042,2.26,0,4.522c.013.654-.433.419-.736.445-.331.027-.679.094-.642-.475C7419.391,7405.673,7419.354,7404.9,7419.354,7404.14Z" transform="translate(-20755.205 -16668.59)"/>
    <path id="Path_875" data-name="Path 875" d="M7412.985,7456.681c-.58.13-.729-.088-.758-.692-.034-.738.374-.619.822-.658.546-.049.708.109.726.685C7413.8,7456.676,7413.521,7456.777,7412.985,7456.681Z" transform="translate(-20749.059 -16715.119)"/>
    <path id="Path_876" data-name="Path 876" d="M7419.964,7387.831c-.641.176-.65-.19-.685-.687-.044-.631.249-.646.743-.669.572-.026.641.205.649.692C7420.682,7387.714,7420.555,7387.987,7419.964,7387.831Z" transform="translate(-20755.15 -16655.621)"/>
    <path id="Path_877" data-name="Path 877" d="M7342.753,7387.122c.147.588-.069.753-.643.754-.555,0-.73-.138-.709-.705.019-.487.082-.735.653-.687C7342.513,7386.525,7342.973,7386.447,7342.753,7387.122Z" transform="translate(-20687.854 -16655.627)"/>
    <path id="Path_878" data-name="Path 878" d="M7255.572,7390.5c-.453-.47-.343-.647-.066-1.078a1.812,1.812,0,0,0-.957-2.6c-1.2-.461-2.444-.153-3.662-.26-.434-.039-.589.1-.573.552.032,1.035.01,2.072.01,3.108,0,.675-.006,1.351,0,2.026.006.56-.185,1.3.1,1.633.331.393,1.1.135,1.673.127a7.571,7.571,0,0,0,2.405-.129A2.155,2.155,0,0,0,7255.572,7390.5Zm-3.879-1.93c-.045-.208-.114-.528.307-.515.291.011.583,0,.875,0,.224,0,.449.007.673,0,.388-.019.665.109.7.532a.689.689,0,0,1-.625.8,6.753,6.753,0,0,1-1.679,0C7251.418,7389.321,7251.754,7388.849,7251.693,7388.567Zm2.692,3.385c-.037.541-.461.656-.9.7a7,7,0,0,1-.744,0c-1.063,0-1.064,0-1.063-1.062,0-.225.006-.45,0-.676,0-.188.069-.3.272-.291a8.359,8.359,0,0,1,1.8.111C7254.452,7390.94,7254.421,7391.437,7254.385,7391.952Z" transform="translate(-20609.1 -16655.691)"/>
    <path id="Path_879" data-name="Path 879" d="M7475.913,7469.85c.013-.391-.121-.5-.5-.5a6.058,6.058,0,0,1-1.734-.093,1.666,1.666,0,0,0-1.6.4,3.141,3.141,0,0,0-.875,3.1c.283,1.713,1.046,2.271,2.648,2.042.154-.021.439-.38.539.02a.623.623,0,0,1-.4.76,5.765,5.765,0,0,1-.644.149c-.218.059-.7-.126-.575.257.107.335.026.947.69.966a2.258,2.258,0,0,0,2.191-1.474c.44-1.075.143-2.18.252-3.093C7475.9,7471.43,7475.885,7470.64,7475.913,7469.85Zm-1.5,1.529c-.018.224,0,.449,0,.674s-.01.448,0,.671a.712.712,0,0,1-.52.819.824.824,0,0,1-1.036-.4,2.172,2.172,0,0,1-.019-2.133.832.832,0,0,1,.839-.5A.8.8,0,0,1,7474.415,7471.379Z" transform="translate(-20799.955 -16727.109)"/>
    <path id="Path_880" data-name="Path 880" d="M7482.769,7401.257c.012-.5-.191-.539-.619-.6s-.8.32-1.284.053a1.924,1.924,0,0,0-2.566,1.194,5.459,5.459,0,0,0-.019,2.779,2,2,0,0,0,1.241,1.427,2.265,2.265,0,0,0,1.865-.25c.019,1.271-1.029,1.11-1.724,1.385.315,1.147.605,1.262,1.787.8a2.088,2.088,0,0,0,1.3-2.187C7482.775,7404.325,7482.736,7402.79,7482.769,7401.257Zm-1.363,1.567a5.224,5.224,0,0,0,0,.661c-.13.336.229.808-.289,1.159-.534.361-1.044.354-1.339-.205a2.053,2.053,0,0,1-.051-2.029.829.829,0,0,1,.985-.481A.765.765,0,0,1,7481.406,7402.824Z" transform="translate(-20805.994 -16667.783)"/>
    <path id="Path_881" data-name="Path 881" d="M7676.229,7454.4c0-.17.062-.355-.055-.491-1.3.277-1.728,1.094-1.37,2.418-1.8-.732-2.633-.13-3.1.98a3.75,3.75,0,0,0,.177,3.388,1.534,1.534,0,0,0,1.217.911c.844.093,1.659-.3,2.5-.044.475.144.649-.081.642-.6C7676.214,7458.773,7676.233,7456.587,7676.229,7454.4Zm-1.489,4.506c0,.2-.006.406,0,.608.016.466-.166.792-.658.831a.839.839,0,0,1-1.024-.609,2.213,2.213,0,0,1,.039-1.9.8.8,0,0,1,.88-.492c.481.056.781.292.764.821C7674.733,7458.411,7674.74,7458.659,7674.74,7458.906Z" transform="translate(-20973.016 -16713.898)"/>
    <path id="Path_882" data-name="Path 882" d="M7598.527,7389.36a1.989,1.989,0,0,0-1.325-.979,1.613,1.613,0,0,0-1.642.535v-2.485a10.281,10.281,0,0,1-1.02.426c-.283.081-.332.256-.331.5q0,3.078,0,6.153c0,.171-.047.391.234.395a7.609,7.609,0,0,1,2.549.134c.035.013.086-.019.129-.025a2.054,2.054,0,0,0,1.691-1.692A3.839,3.839,0,0,0,7598.527,7389.36Zm-1.156,2.684c-.179.5-.521.809-1.061.627-.439-.147-.847-.408-.746-1.006a2.549,2.549,0,0,0,0-.405c.016-.519-.139-1.1.473-1.41a.924.924,0,0,1,1.373.6A2.747,2.747,0,0,1,7597.371,7392.043Z" transform="translate(-20906.324 -16655.586)"/>
    <path id="Path_883" data-name="Path 883" d="M7379.436,7386.035a5.15,5.15,0,0,0-.053,1.759c-1.257-.595-2.432-.371-2.953.654a4.08,4.08,0,0,0-.254,2.934,1.952,1.952,0,0,0,2.682,1.61,1.256,1.256,0,0,1,.723-.008c.958.218,1.114.065,1.115-.917v-6.685C7380.2,7385.62,7379.558,7385.726,7379.436,7386.035Zm-.092,3.7a4.345,4.345,0,0,0,0,.607c0,.158,0,.315,0,.474-.007.655-.277.977-.821.973a.964.964,0,0,1-.935-1,3.4,3.4,0,0,1,.093-1.456.806.806,0,0,1,.976-.508C7379.088,7388.94,7379.418,7389.188,7379.344,7389.731Z" transform="translate(-20717.768 -16654.68)"/>
    <path id="Path_884" data-name="Path 884" d="M7539.994,7402.573a1.968,1.968,0,0,0-1.25-1.938,3.47,3.47,0,0,0-2.532.129c-.212.08-.646.194-.358.622.207.309.284.773.888.419.84-.492,1.727-.072,1.736.794a2.315,2.315,0,0,0-2.1.025,1.807,1.807,0,0,0,.169,3.4c1.074.3,2.154-.245,3.242-.013.26.055.22-.225.222-.393C7540.013,7404.6,7540.062,7403.583,7539.994,7402.573Zm-1.47,1.56c-.031.5-.382.826-1.018.8-.415-.018-.811-.159-.878-.649-.051-.371.446-.789.887-.789C7537.823,7403.75,7538.576,7403.282,7538.524,7404.132Z" transform="translate(-20855.381 -16667.699)"/>
    <path id="Path_885" data-name="Path 885" d="M7729.479,7400.611a2.472,2.472,0,0,0-2.473,2.229c-.369,2.147,1.014,3.949,3.371,3.311.421-.114.945-.314,1.021-.793.072-.449-.808-.821-1.227-.57a1.084,1.084,0,0,1-1.592-.4c-.175-.327-.213-.549.279-.527.405.019.811,0,1.217,0,.429,0,.857,0,1.285,0,.158,0,.286,0,.348-.219A2.6,2.6,0,0,0,7729.479,7400.611Zm.692,1.953c-.068.442-.559.1-.786.213-.912,0-.951-.014-.885-.207a.994.994,0,0,1,.986-.739A.648.648,0,0,1,7730.171,7402.564Z" transform="translate(-21021.029 -16667.84)"/>
    <path id="Path_886" data-name="Path 886" d="M7305.124,7470.788a2.3,2.3,0,0,0-3.256-1.248,2.616,2.616,0,0,0-1.388,2.581,2.883,2.883,0,0,0,.339,1.549,2.086,2.086,0,0,0,2.071,1.283,2.051,2.051,0,0,0,1.9-.86A3.374,3.374,0,0,0,7305.124,7470.788Zm-1.536,2.569a.728.728,0,0,1-.837.244.983.983,0,0,1-.766-.835,4.8,4.8,0,0,1,0-1.274.934.934,0,0,1,.843-.826.845.845,0,0,1,.956.622c.1.272.034.58.249.779A4.284,4.284,0,0,1,7303.587,7473.357Z" transform="translate(-20652.471 -16727.172)"/>
    <path id="Path_887" data-name="Path 887" d="M7635.623,7400.653a2.432,2.432,0,0,0-2.415,2.127,2.953,2.953,0,0,0,1.352,3.291,2.619,2.619,0,0,0,2.191.056c.3-.1.821-.29.811-.672-.008-.271-.384-.55-.628-.793-.2-.2-.377.035-.529.122a1.085,1.085,0,0,1-1.65-.361c-.174-.328-.214-.551.28-.528.405.018.813,0,1.219,0s.814,0,1.221,0c.169,0,.34.04.41-.226A2.632,2.632,0,0,0,7635.623,7400.653Zm-.069,2.216c-.327-.17-.723.16-.888-.218-.117-.268.538-.77.925-.792a.674.674,0,0,1,.757.682C7636.326,7403.169,7635.742,7402.562,7635.554,7402.869Z" transform="translate(-20939.955 -16667.877)"/>
    <path id="Path_888" data-name="Path 888" d="M7588.083,7471.487a2.424,2.424,0,0,0-3.535-1.956,2.621,2.621,0,0,0-1.346,2.629,3.581,3.581,0,0,0,.461,1.727c.563,1.276,3.073,1.345,3.784.271A3.558,3.558,0,0,0,7588.083,7471.487Zm-1.717,1.751a.786.786,0,0,1-.624.376,1.109,1.109,0,0,1-.931-.6,1.809,1.809,0,0,1,0-1.828,1.006,1.006,0,0,1,.907-.57c.426-.014.584.27.765.607A1.976,1.976,0,0,1,7586.366,7473.238Z" transform="translate(-20896.805 -16727.143)"/>
  </g>
</svg>
