<svg xmlns="http://www.w3.org/2000/svg" width="134.389" height="20.153" viewBox="0 0 134.389 20.153"><defs><style>.a{fill:#0c639d;}</style></defs><g transform="translate(14182 9366)"><path class="a" d="M816.062,3079.951a9.2,9.2,0,0,0,5.3-2.615,11.259,11.259,0,0,0,2.358-3.473c-.2-.009-.321-.02-.445-.02-1.795,0-3.589,0-5.383,0a.6.6,0,0,0-.538.24,2.946,2.946,0,0,1-2.017,1.02,3.348,3.348,0,0,1-3.892-2.679c-.189-.833-.277-.76.591-.76,3.882,0,7.764-.006,11.646.009.347,0,.467-.117.528-.431a8.144,8.144,0,0,0-.614-4.961,10.153,10.153,0,0,0-7.641-5.984c-.009,0-.017-.01-.013-.008,4.2,0,8.408-.057,12.617.018a9.887,9.887,0,0,1,8.291,4.06,9.2,9.2,0,0,1,1.8,4.832,10.841,10.841,0,0,1-2.383,7.85,7.332,7.332,0,0,1-4.574,2.537,21.866,21.866,0,0,1-3.622.352C824.073,3079.977,820.074,3079.951,816.062,3079.951Zm12.285-14.694a10.084,10.084,0,0,1,1.2,4.86,9.541,9.541,0,0,1-1.288,4.932,4.842,4.842,0,0,0,3.862-1.954,5.057,5.057,0,0,0,.193-5.743C831.466,3065.857,829.986,3065.4,828.347,3065.257Z" transform="translate(-14992.873 -12426.145)"/><path class="a" d="M1230.6,3080.2c-1.478,0-2.956-.009-4.434.007-.331,0-.406-.12-.37-.414q.428-3.489.848-6.978.385-3.177.771-6.354c.227-1.852.468-3.7.684-5.554.032-.273.146-.318.381-.317,1.795.006,3.589,0,5.384,0,1.689,0,3.381-.057,5.066.022,3.655.172,6.451,2.2,7,6.23a12.4,12.4,0,0,1-1.857,8.684,10.038,10.038,0,0,1-6.913,4.46,25.176,25.176,0,0,1-4.52.211Zm-.308-3.163c.078.038.1.056.118.056,1.7-.02,3.406.063,5.092-.089a6.319,6.319,0,0,0,4.62-2.581,9.116,9.116,0,0,0,1.714-6.655,4.493,4.493,0,0,0-4.632-4.138c-1.63,0-3.261.008-4.891-.008-.336,0-.434.107-.468.432-.135,1.275-.306,2.546-.46,3.819-.15,1.238-.3,2.478-.446,3.716-.155,1.284-.315,2.568-.469,3.853C1230.408,3075.972,1230.353,3076.505,1230.293,3077.038Z" transform="translate(-15327.956 -12426.395)"/><path class="a" d="M973.6,3068.839c-.1.876-.209,1.672-.29,2.471-.031.3-.175.367-.46.366-2.592-.01-5.183-.006-7.775-.006-.493,0-.481,0-.541.5-.174,1.447-.36,2.892-.537,4.338-.024.194-.023.391-.036.621h9.887c-.034.392-.057.747-.1,1.1-.063.568-.144,1.133-.2,1.7-.026.24-.148.309-.374.307-1.008-.008-2.017,0-3.026,0h-10.52c-.45,0-.442,0-.389-.436.2-1.644.382-3.289.581-4.932s.413-3.285.611-4.928c.177-1.47.34-2.941.515-4.411.183-1.539.369-3.079.572-4.615.014-.1.165-.209.276-.274.07-.041.183-.01.277-.01h13.264c.51,0,.52,0,.467.491-.081.741-.194,1.48-.261,2.222-.026.3-.168.327-.411.327-1.888-.006-3.776,0-5.664,0-1.173,0-2.345.007-3.518-.005-.283,0-.4.055-.436.376-.158,1.46-.355,2.915-.534,4.373a3.953,3.953,0,0,0,0,.434Z" transform="translate(-15112.44 -12426.427)"/><path class="a" d="M1423.615,3099.8c.1-.813.194-1.633.293-2.452.128-1.053.26-2.105.387-3.159.152-1.261.3-2.523.452-3.785q.194-1.614.395-3.227c.07-.567.133-1.135.219-1.7.012-.082.133-.21.2-.211,1.264-.013,2.528-.009,3.843-.009-.088.816-.173,1.6-.259,2.384l.108.034c.077-.094.161-.183.23-.282a5.737,5.737,0,0,1,4.395-2.428,9.566,9.566,0,0,1,3.787.288,3.348,3.348,0,0,1,2.609,3.5c-.024,1.092-.191,2.181-.311,3.27s-.257,2.152-.388,3.229c-.154,1.261-.291,2.524-.469,3.781-.118.833-.144.83-.979.83-.926,0-1.853-.011-2.779.006-.315.006-.383-.116-.348-.4.214-1.723.418-3.448.63-5.171.154-1.249.308-2.5.474-3.746a2.02,2.02,0,0,0-1.26-2.134,4.628,4.628,0,0,0-4.639.783,5.459,5.459,0,0,0-1.43,2.732c-.256,1.182-.422,2.385-.6,3.584-.155,1.073-.266,2.151-.4,3.227-.035.29-.053.583-.111.867-.019.094-.139.236-.214.237-1.243.013-2.485.007-3.728,0C1423.7,3099.86,1423.672,3099.832,1423.615,3099.8Z" transform="translate(-15487.89 -12446.064)"/><path class="a" d="M1343.344,3084.713a8.82,8.82,0,0,1,4.228,1.015,5.716,5.716,0,0,1,2.941,4.7,8.967,8.967,0,0,1-1.128,5.394,8.065,8.065,0,0,1-5.84,4.028,10.011,10.011,0,0,1-5.126-.269,5.637,5.637,0,0,1-4.107-5.042,8.711,8.711,0,0,1,2.222-7.1,8.231,8.231,0,0,1,4.965-2.547C1342.107,3084.8,1342.728,3084.773,1343.344,3084.713Zm3.158,6.589c-.019-.214-.03-.59-.092-.956a3.132,3.132,0,0,0-1.537-2.352,3.866,3.866,0,0,0-2.1-.427,3.951,3.951,0,0,0-3.249,1.667,6.893,6.893,0,0,0-1.075,5.411,2.9,2.9,0,0,0,2.131,2.423,4.291,4.291,0,0,0,4.849-1.709A7.355,7.355,0,0,0,1346.5,3091.3Z" transform="translate(-15415.639 -12445.91)"/><path class="a" d="M1173.89,3088.2c-.742-.185-1.426-.388-2.122-.522a5.1,5.1,0,0,0-2.567-.031,2.346,2.346,0,0,0-.713.36,1.025,1.025,0,0,0-.219,1.5,20.928,20.928,0,0,0,1.646,1.713c.776.778,1.6,1.511,2.328,2.329a3.683,3.683,0,0,1,.93,2.482,3.372,3.372,0,0,1-1.417,2.8,6.928,6.928,0,0,1-3.178,1.225,16.063,16.063,0,0,1-5.942-.436.429.429,0,0,1-.28-.284c-.045-.9-.059-1.8-.081-2.7a.533.533,0,0,1,.044-.131c.308.121.608.241.91.357a7.417,7.417,0,0,0,3.383.647,4.418,4.418,0,0,0,1.468-.4,1.227,1.227,0,0,0,.544-1.811,6.686,6.686,0,0,0-1.615-1.738,24.3,24.3,0,0,1-2.416-2.289c-1.793-2.14-.77-4.741,1.5-5.75a7.835,7.835,0,0,1,2.827-.625,19.432,19.432,0,0,1,4.708.417c.1.02.253.157.254.242C1173.9,3086.431,1173.89,3087.307,1173.89,3088.2Z" transform="translate(-15276.606 -12446.044)"/><path class="a" d="M1052.3,3080.257c-.575,0-1.149,0-1.724,0-.232,0-.292-.064-.26-.312.19-1.469.353-2.94.532-4.41.176-1.447.362-2.892.538-4.338.154-1.273.294-2.548.448-3.821.151-1.25.313-2.5.467-3.747.105-.856.218-1.712.3-2.571.029-.317.145-.419.457-.415,1.079.014,2.158,0,3.237.006.418,0,.41.009.36.41-.156,1.261-.3,2.524-.45,3.786s-.314,2.521-.467,3.783c-.129,1.065-.248,2.13-.377,3.2-.153,1.261-.313,2.521-.467,3.783-.151,1.238-.3,2.477-.446,3.716-.014.116-.026.232-.046.347-.1.587-.1.587-.726.587Z" transform="translate(-15186.087 -12426.451)"/><path class="a" d="M1089.3,3080.252c.1-.827.183-1.59.274-2.353.13-1.088.264-2.175.4-3.263q.225-1.858.45-3.714.23-1.892.463-3.784.235-1.927.47-3.853c.082-.683.171-1.366.233-2.05.052-.574.049-.589.611-.589,1.032,0,2.064.01,3.1-.006.311,0,.426.088.386.4q-.276,2.15-.537,4.3c-.152,1.238-.3,2.477-.447,3.715-.156,1.285-.315,2.568-.47,3.853-.151,1.25-.3,2.5-.447,3.75-.135,1.111-.27,2.221-.42,3.33-.013.094-.133.249-.205.25C1091.89,3080.256,1090.626,3080.252,1089.3,3080.252Z" transform="translate(-15217.611 -12426.447)"/><path class="a" d="M1127.5,3101.343c-.563,0-1.126-.008-1.689,0-.266.006-.316-.114-.287-.347.213-1.723.416-3.448.627-5.172.226-1.839.463-3.677.688-5.517.13-1.064.247-2.13.365-3.2.028-.254.112-.393.414-.388,1.114.017,2.228.015,3.342,0,.3,0,.355.125.323.385-.19,1.515-.37,3.031-.557,4.546-.2,1.643-.414,3.284-.614,4.927q-.263,2.17-.506,4.342c-.032.291-.121.439-.452.424C1128.608,3101.325,1128.056,3101.344,1127.5,3101.343Z" transform="translate(-15246.894 -12447.537)"/><path class="a" d="M812.269,3087.209h-2.813c-.451,0-.52-.082-.409-.553a2.94,2.94,0,0,1,2.325-2.359,3.317,3.317,0,0,1,3.463,1.065,3,3,0,0,1,.661,1.6c.038.254-.134.252-.309.252Q813.728,3087.208,812.269,3087.209Z" transform="translate(-14991.001 -12445.48)"/><path class="a" d="M1140.55,3059.636c-.1.825-.177,1.6-.286,2.369a.372.372,0,0,1-.279.226c-1.194.016-2.388.008-3.582.012-.2,0-.285-.076-.261-.271.086-.7.166-1.41.27-2.111a.338.338,0,0,1,.244-.215C1137.93,3059.632,1139.205,3059.636,1140.55,3059.636Z" transform="translate(-15255.477 -12425.636)"/></g></svg>