<svg xmlns="http://www.w3.org/2000/svg" width="78.754" height="19.422" viewBox="0 0 78.754 19.422"><defs><style>.a{fill:#002843;}</style></defs><g transform="translate(13769.078 9365.006)"><path class="a" d="M3.77-18.564-.078,0H4L5.226-5.876,8.06-8.346,12.3,0h4.6L11.206-10.92l8.918-7.644H14.716L6.292-10.79H6.24l1.612-7.774Zm18.772,0L18.694,0H22.75l1.4-6.656H29.2A8.5,8.5,0,0,0,31.954-7.1a7.176,7.176,0,0,0,2.3-1.274,6.037,6.037,0,0,0,1.586-2.041,6.219,6.219,0,0,0,.585-2.743,6.12,6.12,0,0,0-.481-2.574,4.181,4.181,0,0,0-1.339-1.664,5.547,5.547,0,0,0-2.041-.9,11.5,11.5,0,0,0-2.587-.273ZM24.83-9.828l1.144-5.564h3.484a5.228,5.228,0,0,1,1.053.1,2.957,2.957,0,0,1,.923.351,1.787,1.787,0,0,1,.663.7,2.409,2.409,0,0,1,.247,1.157,3.114,3.114,0,0,1-.9,2.457,3.579,3.579,0,0,1-2.457.793Zm15.106-8.736L36.036,0h3.848l2.782-14.768h.052L44.512,0h3.12l7.852-14.768h.052L52.156,0h3.822L59.9-18.564H54.21L47.06-5.122h-.052l-1.43-13.442ZM73.632-1.9V0h2.574l2.132-10.036H70.46l-.65,3.042H74.1a8.28,8.28,0,0,1-.663,1.625,4.392,4.392,0,0,1-1.014,1.261,4.575,4.575,0,0,1-1.456.819,6.056,6.056,0,0,1-2.015.3,4.294,4.294,0,0,1-1.911-.39,3.617,3.617,0,0,1-1.3-1.053,4.548,4.548,0,0,1-.754-1.521,6.549,6.549,0,0,1-.247-1.82,10.709,10.709,0,0,1,.364-2.717,8.485,8.485,0,0,1,1.105-2.522,6.032,6.032,0,0,1,1.9-1.846,5.063,5.063,0,0,1,2.717-.715,4.531,4.531,0,0,1,2.7.715,2.979,2.979,0,0,1,1.066,2.431h4.082a6.476,6.476,0,0,0-.624-2.951,5.794,5.794,0,0,0-1.69-2.041,7.255,7.255,0,0,0-2.5-1.2,11.621,11.621,0,0,0-3.068-.39,9.593,9.593,0,0,0-4.225.91,9.633,9.633,0,0,0-3.2,2.457,11.051,11.051,0,0,0-2.015,3.575,13.022,13.022,0,0,0-.7,4.29A8.148,8.148,0,0,0,62.8-1.69,8.338,8.338,0,0,0,68.9.416a6.308,6.308,0,0,0,2.548-.533A5.239,5.239,0,0,0,73.58-1.9Z" transform="translate(-13769 -9346)"/></g></svg>