<svg xmlns="http://www.w3.org/2000/svg" width="135" height="24.052" viewBox="0 0 135 24.052"><defs><style>.a{fill:red;}</style></defs><g transform="translate(13412 9368)"><path class="a" d="M2901.135,4824.556c-.11.885-.783.682-1.344.686-1.883.011-1.894.006-1.9-1.845,0-3.527.019-7.055-.006-10.581,0-.68.169-.994.893-.928a9.9,9.9,0,0,0,1.605,0c.608-.044.774.218.757.792-.034,1.2-.01,2.412-.01,3.753,2.708-1.3,5.11-1.321,6.772,1.429a5.6,5.6,0,0,1-.724,6.322C2905.731,4825.684,2903.709,4825.819,2901.135,4824.556Zm-.051-3.965-.209.124a8.71,8.71,0,0,0,1.109,1.871,1.782,1.782,0,0,0,2.452-.13,2.922,2.922,0,0,0,.234-3.587,1.878,1.878,0,0,0-2.412-.555A2.4,2.4,0,0,0,2901.085,4820.591Z" transform="translate(-16221.726 -14174.875)"/><path class="a" d="M2399.82,4793.942a8.213,8.213,0,0,1-.17-6.521,7.619,7.619,0,0,1,7.027-5.021c3.948-.125,7.9-.038,11.854-.041.11,0,.219.028.489.063-.219.276-.363.493-.542.674-1.19,1.206-2.369,2.425-3.6,3.589a1.8,1.8,0,0,1-1.108.438c-2.144.042-4.29.014-6.435.024a7.255,7.255,0,0,0-7.322,6.213A5.61,5.61,0,0,1,2399.82,4793.942Z" transform="translate(-15807.371 -14150.332)"/><path class="a" d="M2377.321,4867.384c.27-.307.435-.518.623-.706.938-.936,1.961-1.8,2.8-2.819a3.236,3.236,0,0,1,2.952-1.183c1.8.088,3.608.021,5.413.018a7.285,7.285,0,0,0,7.285-6.251c.021-.138.037-.277.079-.6a4.386,4.386,0,0,1,.374.655,8.1,8.1,0,0,1-7.554,10.947c-3.693-.05-7.388-.013-11.082-.018C2377.969,4867.429,2377.725,4867.4,2377.321,4867.384Z" transform="translate(-15789.321 -14211.395)"/><path class="a" d="M2567.465,4817.519c-1.02-.2-1.922-.426-2.838-.533-1.129-.132-1.927.227-1.989.845-.107,1.058.821,1.148,1.477,1.452.843.39,1.746.661,2.559,1.1a3.247,3.247,0,0,1,1.771,3.223,3.373,3.373,0,0,1-1.98,3.117c-2.29,1.09-4.667.869-7.037.31-.153-.035-.327-.423-.316-.638.036-.758.149-1.512.246-2.4a7.027,7.027,0,0,0,1.353.484,18.637,18.637,0,0,0,3.068.242,1.239,1.239,0,0,0,.879-.829,1.578,1.578,0,0,0-.542-1.192,6.617,6.617,0,0,0-1.584-.776c-.568-.25-1.162-.447-1.712-.729a3.159,3.159,0,0,1-1.907-3.2,3.314,3.314,0,0,1,2.161-2.98,8.4,8.4,0,0,1,4.567-.587c2.569.324,2.141.06,1.93,2.407C2567.552,4817.051,2567.5,4817.269,2567.465,4817.519Z" transform="translate(-15940.153 -14176.92)"/><path class="a" d="M2828.663,4842.654c-2.736,1.643-4.909,1.475-6.461-.348a5.559,5.559,0,0,1,.02-6.887c1.453-1.715,3.806-1.94,6.2-.548.166-.919.876-.717,1.485-.713,1.917.014,1.917.019,1.918,1.919,0,2.229-.023,4.457.013,6.684.011.679-.228.914-.877.858-.448-.039-.9-.014-1.352-.017C2829.06,4843.6,2828.414,4843.734,2828.663,4842.654Zm.091-3.73c-.162-1.816-1.51-2.945-2.926-2.39a2.415,2.415,0,0,0-1.384,2.323,2.467,2.467,0,0,0,1.413,2.4,1.716,1.716,0,0,0,2.054-.557A9.846,9.846,0,0,0,2828.754,4838.924Z" transform="translate(-16157.873 -14193.218)"/><path class="a" d="M2976.029,4843.387l-.182-.8c-3.032,1.465-5.023,1.258-6.48-.647a5.659,5.659,0,0,1,.132-6.708c1.5-1.757,3.682-1.958,5.908-.736a6.4,6.4,0,0,1,1.561-.522c2.147-.057,2.147-.032,2.147,2.154,0,2.146-.021,4.294.013,6.441.01.626-.173.867-.812.827C2977.586,4843.353,2976.852,4843.387,2976.029,4843.387Zm-4.233-4.6a5.2,5.2,0,0,0,.1.757,2.04,2.04,0,0,0,1.741,1.607,1.984,1.984,0,0,0,2.067-1.4,3.514,3.514,0,0,0,.176-1.4,2.134,2.134,0,0,0-2.154-2.146C2972.564,4836.26,2971.775,4837.248,2971.8,4838.788Z" transform="translate(-16280.237 -14193.018)"/><path class="a" d="M3125.97,4825.293c-1.239,0-2.223.041-3.2-.026a1.286,1.286,0,0,1-.755-.563c-.69-.963-1.332-1.96-2-2.94a1.45,1.45,0,0,0-.694-.583c0,1.085-.033,2.171.012,3.253.027.651-.167.883-.848.887-2.381.016-2.38.04-2.382-2.3,0-3.388.012-6.775-.019-10.163-.006-.678.16-.937.886-.937,2.355,0,2.354-.026,2.358,2.335q0,2.539.014,5.08c0,.048.044.1.136.281.25-.3.473-.558.679-.826a5.784,5.784,0,0,0,.836-1.166c.948-2.274,2.845-1.759,4.817-1.7-1.011,1.312-1.88,2.515-2.833,3.646a.988.988,0,0,0-.024,1.46C3123.944,4822.359,3124.872,4823.73,3125.97,4825.293Z" transform="translate(-16402.971 -14174.909)"/><path class="a" d="M2678.258,4843.647a17.441,17.441,0,0,1-2.534-.589,4.323,4.323,0,0,1-2.887-3.667,4.614,4.614,0,0,1,1.929-4.674,6.457,6.457,0,0,1,6.891-.1,4.834,4.834,0,0,1-2.024,8.809c-.445.069-.9.088-1.347.131Zm-2.236-5.029a2.577,2.577,0,0,0,1.773,2.556,2.016,2.016,0,0,0,2.369-1.171,3.2,3.2,0,0,0-.169-3.083,1.887,1.887,0,0,0-1.864-.932,1.8,1.8,0,0,0-1.672,1.1A12.211,12.211,0,0,0,2676.022,4838.618Z" transform="translate(-16034.743 -14192.975)"/><path class="a" d="M3045.231,4833.908H3048c.057.264.112.522.189.885.318-.21.565-.375.813-.538a3.837,3.837,0,0,1,6.048,2.866c.137,1.825.044,3.667.068,5.5.006.467-.182.628-.648.66-2.493.171-2.491.183-2.489-2.26,0-.875.027-1.751-.014-2.625-.061-1.3-.731-2-1.832-1.983-1.042.018-1.722.821-1.736,2.082-.014,1.326-.031,2.653,0,3.979.012.567-.146.793-.752.812-2.418.071-2.417.09-2.416-2.333C3045.231,4838.643,3045.231,4836.333,3045.231,4833.908Z" transform="translate(-16344.113 -14192.891)"/><path class="a" d="M2740.967,4822.206c0-.46.033-.883-.008-1.3-.063-.642.139-.967.833-.884.505.061.613-.25.6-.683-.015-.563.021-1.129,0-1.693-.02-.514.2-.7.7-.688.836.022,1.673.006,2.58.006,0,.875.022,1.633-.008,2.389-.021.509.162.738.678.692.224-.021.453.007.676-.017.548-.057.772.166.73.725-.036.471-.008.949-.008,1.51l-2.043.138c0,1.236-.042,2.416.016,3.59a1.145,1.145,0,0,0,1.191,1.094c.3.026.608,0,1.04,0-.119.752-.2,1.441-.354,2.114a.639.639,0,0,1-.488.343,11.294,11.294,0,0,1-2.435-.028,2.582,2.582,0,0,1-2.156-2.412,28.55,28.55,0,0,1-.112-3.209C2742.391,4822.477,2742.4,4822.477,2740.967,4822.206Z" transform="translate(-16091.364 -14179.095)"/><path class="a" d="M2630.063,4836.493c-1.393-.49-2.625-.595-3.562.62a2.414,2.414,0,0,0-.021,2.708c.648.939,1.51,1.1,3.606.624.036.766.09,1.509.09,2.251,0,.139-.188.334-.337.406a5.526,5.526,0,0,1-6.25-1.712,5.217,5.217,0,0,1,.41-6.347,5.943,5.943,0,0,1,5.824-1.234.664.664,0,0,1,.362.46C2630.181,4834.991,2630.112,4835.712,2630.063,4836.493Z" transform="translate(-15993.146 -14192.829)"/><path class="a" d="M2792.525,4835.523h3.153c.021.32.053.594.054.869.007,2.569-.014,5.139.025,7.708.011.693-.241.852-.884.852-2.4,0-2.4.019-2.4-2.376q0-3.092,0-6.183C2792.473,4836.117,2792.5,4835.842,2792.525,4835.523Z" transform="translate(-16134.159 -14194.514)"/><path class="a" d="M2431.826,4855.859h5.238c-.146.771-.243,1.482-.436,2.167a.792.792,0,0,1-.606.4c-1.038.04-2.079.036-3.116-.006a.813.813,0,0,1-.627-.381C2432.08,4857.356,2431.979,4856.644,2431.826,4855.859Z" transform="translate(-15834.595 -14211.406)"/><path class="a" d="M2431.81,4838.793c.149-.772.244-1.464.438-2.128a.809.809,0,0,1,.622-.39c1.041-.042,2.085-.05,3.125,0a.865.865,0,0,1,.652.454,19.88,19.88,0,0,1,.405,2.066Z" transform="translate(-15834.582 -14195.11)"/><path class="a" d="M2795.006,4808.462a1.828,1.828,0,0,1-3.656-.007,1.875,1.875,0,0,1,1.836-1.836A1.853,1.853,0,0,1,2795.006,4808.462Z" transform="translate(-16133.23 -14170.506)"/><path class="a" d="M2468.2,4855.555c-.257.851-.448,1.545-.685,2.224-.055.157-.259.368-.4.373-.915.034-1.832.018-2.783.018.12-.809.194-1.507.344-2.187a.67.67,0,0,1,.485-.408C2466.088,4855.534,2467.015,4855.555,2468.2,4855.555Z" transform="translate(-15861.599 -14211.148)"/><path class="a" d="M2407.552,4855.561c1.173,0,2.1-.021,3.02.02a.675.675,0,0,1,.48.417c.162.677.25,1.371.386,2.176-.962,0-1.878.016-2.793-.017a.607.607,0,0,1-.411-.359C2408,4857.118,2407.808,4856.421,2407.552,4855.561Z" transform="translate(-15814.433 -14211.153)"/><path class="a" d="M2411.513,4836.338l-.451,2.539h-3.409c.238-.8.418-1.492.661-2.163a.669.669,0,0,1,.488-.359C2409.689,4836.318,2410.579,4836.338,2411.513,4836.338Z" transform="translate(-15814.517 -14195.187)"/><path class="a" d="M2464.479,4836.349c.917,0,1.786-.02,2.653.016a.679.679,0,0,1,.5.352c.247.671.43,1.365.687,2.217-1.19,0-2.166.017-3.14-.02-.139-.006-.353-.258-.386-.426C2464.664,4837.829,2464.592,4837.157,2464.479,4836.349Z" transform="translate(-15861.718 -14195.196)"/><path class="a" d="M2419.52,4877.6a6.552,6.552,0,0,1-4.865-2.917c1.035,0,1.838-.01,2.64.009a.6.6,0,0,1,.427.206C2418.307,4875.752,2418.868,4876.618,2419.52,4877.6Z" transform="translate(-15820.332 -14227.043)"/><path class="a" d="M2415.689,4818.1a5.756,5.756,0,0,1,4.669-2.871c-.569.849-1.142,1.733-1.752,2.591a.8.8,0,0,1-.552.267C2417.3,4818.117,2416.542,4818.1,2415.689,4818.1Z" transform="translate(-15821.191 -14177.656)"/><path class="a" d="M2451.646,4877.5c.589-.894,1.131-1.738,1.7-2.561a.7.7,0,0,1,.486-.251c.753-.027,1.509-.012,2.283-.012C2455.723,4876.125,2453.409,4877.567,2451.646,4877.5Z" transform="translate(-15851.059 -14227.028)"/><path class="a" d="M2451.11,4814.741a6.588,6.588,0,0,1,4.8,2.941c-1.009,0-1.835.009-2.661-.01a.5.5,0,0,1-.326-.222C2452.324,4816.576,2451.743,4815.693,2451.11,4814.741Z" transform="translate(-15850.613 -14177.252)"/><path class="a" d="M2438.212,4877.674c-.684-.895-1.219-1.595-1.881-2.462h3.684Z" transform="translate(-15838.337 -14227.481)"/><path class="a" d="M2436.2,4820.066l1.881-2.4,1.892,2.4Z" transform="translate(-15838.23 -14179.686)"/></g></svg>