<svg width="28" height="28" viewBox="0 0 28 28" fill="none" xmlns="http://www.w3.org/2000/svg">
<path d="M14 27C21.1797 27 27 21.1797 27 14C27 6.8203 21.1797 1 14 1C6.8203 1 1 6.8203 1 14C1 21.1797 6.8203 27 14 27Z" fill="white"/>
<path d="M14 19.2L19.2 14L14 8.8" fill="white"/>
<path d="M14 19.2L19.2 14M19.2 14L14 8.8M19.2 14H8.8M27 14C27 21.1797 21.1797 27 14 27C6.8203 27 1 21.1797 1 14C1 6.8203 6.8203 1 14 1C21.1797 1 27 6.8203 27 14Z" stroke="#315D80" stroke-width="2" stroke-linecap="round" stroke-linejoin="round"/>
</svg>
