<svg width="130" height="130" viewBox="0 0 130 130" fill="none" xmlns="http://www.w3.org/2000/svg">
<rect width="130" height="130" rx="15" fill="#F8F9FF"/>
<path d="M56.8842 74.375H56.8816C56.8816 72.4789 57.0537 73.352 45.9566 53.1043C43.6894 48.9688 37.1973 48.9605 34.9263 53.1043C23.7354 73.5254 24.0026 72.5387 24.0026 74.375H24C24 79.5523 31.3617 83.75 40.4421 83.75C49.5225 83.75 56.8842 79.5523 56.8842 74.375ZM40.4421 55.625L49.6908 72.5H31.1934L40.4421 55.625ZM106.208 74.375C106.208 72.4789 106.38 73.352 95.2829 53.1043C93.0157 48.9688 86.5236 48.9605 84.2526 53.1043C73.0617 73.5254 73.3288 72.5387 73.3288 74.375H73.3263C73.3263 79.5523 80.688 83.75 89.7684 83.75C98.8488 83.75 106.21 79.5523 106.21 74.375H106.208ZM80.5197 72.5L89.7684 55.625L99.0171 72.5H80.5197ZM91.8236 87.5H69.2158V52.959C72.2357 51.7531 74.5029 49.2699 75.1747 46.25H91.8236C92.3687 46.25 92.8915 46.0525 93.2769 45.7008C93.6624 45.3492 93.8789 44.8723 93.8789 44.375V40.625C93.8789 40.1277 93.6624 39.6508 93.2769 39.2992C92.8915 38.9475 92.3687 38.75 91.8236 38.75H73.28C71.4046 36.4859 68.4566 35 65.1052 35C61.7539 35 58.8059 36.4859 56.9304 38.75H38.3868C37.8417 38.75 37.319 38.9475 36.9335 39.2992C36.5481 39.6508 36.3316 40.1277 36.3316 40.625V44.375C36.3316 44.8723 36.5481 45.3492 36.9335 45.7008C37.319 46.0525 37.8417 46.25 38.3868 46.25H55.0357C55.7075 49.2688 57.9735 51.7531 60.9947 52.959V87.5H38.3868C37.8417 87.5 37.319 87.6975 36.9335 88.0492C36.5481 88.4008 36.3316 88.8777 36.3316 89.375V93.125C36.3316 93.6223 36.5481 94.0992 36.9335 94.4508C37.319 94.8025 37.8417 95 38.3868 95H91.8236C92.3687 95 92.8915 94.8025 93.2769 94.4508C93.6624 94.0992 93.8789 93.6223 93.8789 93.125V89.375C93.8789 88.8777 93.6624 88.4008 93.2769 88.0492C92.8915 87.6975 92.3687 87.5 91.8236 87.5Z" fill="#FFB6A3"/>
</svg>
