<svg width="130" height="130" viewBox="0 0 130 130" fill="none" xmlns="http://www.w3.org/2000/svg">
<rect width="130" height="130" rx="15" fill="#F8F9FF"/>
<g clip-path="url(#clip0_5637_4)">
<path d="M65.0002 39.1059L24.7846 74.4936C24.4865 74.7617 24.1055 74.8865 23.7779 75.1087V109.063C23.7779 109.842 24.0882 110.589 24.6404 111.14C25.1925 111.691 25.9415 112 26.7224 112H54.1849L47.3335 98.6326L66.4926 86.8826L55.4215 64.9945L82.6668 90.1065L63.5077 101.856L70.8541 112H103.278C104.059 112 104.808 111.691 105.36 111.14C105.912 110.589 106.222 109.842 106.222 109.063V75.116C105.91 74.9031 105.538 74.7819 105.254 74.5285L65.0002 39.1059ZM117.023 61.3795L106.222 51.8639V26.8125C106.222 26.0334 105.912 25.2863 105.36 24.7354C104.808 24.1845 104.059 23.875 103.278 23.875H91.5002C90.7193 23.875 89.9703 24.1845 89.4181 24.7354C88.8659 25.2863 88.5557 26.0334 88.5557 26.8125V36.3025L69.9229 19.8929C68.5188 18.6334 66.7595 18.0018 65.0002 18C63.1842 17.9968 61.4323 18.6691 60.0866 19.8855L12.9774 61.3795C11.7683 62.4646 11.6671 64.3207 12.7547 65.5288L16.6929 69.902C17.7786 71.1082 19.641 71.2092 20.8519 70.1241L63.0532 32.9868C64.1665 32.0082 65.8357 32.0082 66.949 32.9868L109.15 70.1223C110.359 71.2055 112.222 71.1063 113.309 69.9001L117.247 65.5269C118.333 64.3207 118.234 62.4627 117.023 61.3795Z" fill="#044D8C"/>
</g>
<defs>
<clipPath id="clip0_5637_4">
<rect width="106" height="94" fill="white" transform="translate(12 18)"/>
</clipPath>
</defs>
</svg>
