<svg width="130" height="130" viewBox="0 0 130 130" fill="none" xmlns="http://www.w3.org/2000/svg">
<rect width="130" height="130" rx="15" fill="#F8F9FF"/>
<g clip-path="url(#clip0_5640_6)">
<path d="M61.8481 19.7444C64.0194 18.727 66.5325 18.727 68.7038 19.7444L103.095 34.1362C103.095 34.1362 108.375 36.3997 107.978 41.8297C107.581 47.2598 108.092 66.6261 97.5236 83.1433C86.9548 99.6605 72.3533 108.497 68.7038 109.852C65.0542 111.208 65.3308 111.543 61.8481 109.852C53.5054 105.832 46.0725 100.154 40.0048 93.1644C33.937 86.1751 29.3622 78.0223 26.5605 69.2055C17.0869 40.5218 24.9154 34.4727 27.5874 33.6362C30.2594 32.7997 61.8481 19.7444 61.8481 19.7444Z" fill="#6B5E7A"/>
<path d="M59.85 77.1165C60.1928 77.4586 60.6576 77.6508 61.1423 77.6508C61.6269 77.6508 62.0918 77.4586 62.4346 77.1165L83.4561 56.1248C83.7987 55.7825 83.9912 55.3183 83.9912 54.8343C83.9912 54.3503 83.7987 53.8862 83.4561 53.5439L80.8715 50.9629C80.5287 50.6208 80.0639 50.4286 79.5792 50.4286C79.0946 50.4286 78.6297 50.6208 78.2869 50.9629L61.1423 68.0817L53.1374 60.0882C52.7946 59.746 52.3298 59.5538 51.8451 59.5538C51.3604 59.5538 50.8956 59.746 50.5528 60.0882L47.9682 62.6707C47.6256 63.013 47.4331 63.4772 47.4331 63.9611C47.4331 64.4451 47.6256 64.9093 47.9682 65.2516L59.85 77.1165Z" fill="white"/>
</g>
<defs>
<clipPath id="clip0_5640_6">
<rect width="86" height="92" fill="white" transform="translate(22 19)"/>
</clipPath>
</defs>
</svg>
