<svg width="118" height="23" viewBox="0 0 118 23" fill="none" xmlns="http://www.w3.org/2000/svg">
<path d="M105.592 2.70031C105.349 2.90782 105.227 3.01158 105.097 3.09874C104.799 3.29854 104.464 3.43721 104.112 3.50672C103.959 3.53705 103.799 3.54977 103.48 3.57522C102.679 3.63917 102.278 3.67115 101.944 3.78923C101.171 4.06233 100.562 4.67051 100.289 5.44371C100.171 5.778 100.139 6.17869 100.075 6.98007C100.05 7.29902 100.037 7.45851 100.007 7.6121C99.9372 7.96417 99.7985 8.29896 99.5987 8.59706C99.5116 8.7271 99.4078 8.84887 99.2003 9.09239C98.6788 9.70429 98.4181 10.0102 98.2652 10.3301C97.9116 11.07 97.9116 11.93 98.2652 12.6699C98.4181 12.9898 98.6788 13.2957 99.2003 13.9076C99.4078 14.1511 99.5116 14.2729 99.5987 14.4029C99.7985 14.701 99.9372 15.0358 100.007 15.3879C100.037 15.5415 100.05 15.701 100.075 16.0199C100.139 16.8213 100.171 17.222 100.289 17.5563C100.562 18.3295 101.171 18.9377 101.944 19.2108C102.278 19.3288 102.679 19.3608 103.48 19.4248C103.799 19.4502 103.959 19.463 104.112 19.4933C104.464 19.5628 104.799 19.7015 105.097 19.9013C105.227 19.9884 105.349 20.0922 105.592 20.2997C106.204 20.8212 106.51 21.0819 106.83 21.2348C107.57 21.5884 108.43 21.5884 109.17 21.2348C109.49 21.0819 109.796 20.8212 110.408 20.2997C110.651 20.0922 110.773 19.9884 110.903 19.9013C111.201 19.7015 111.536 19.5628 111.888 19.4933C112.042 19.463 112.201 19.4502 112.52 19.4248C113.321 19.3608 113.722 19.3288 114.056 19.2108C114.829 18.9377 115.438 18.3295 115.711 17.5563C115.829 17.222 115.861 16.8213 115.925 16.02C115.95 15.7011 115.963 15.5415 115.993 15.3879C116.063 15.0358 116.201 14.701 116.401 14.4029C116.488 14.2729 116.592 14.1511 116.8 13.9076C117.321 13.2957 117.582 12.9898 117.735 12.6699C118.088 11.93 118.088 11.07 117.735 10.3301C117.582 10.0102 117.321 9.7043 116.8 9.0924C116.592 8.84887 116.488 8.72711 116.401 8.59706C116.201 8.29896 116.063 7.96417 115.993 7.6121C115.963 7.45851 115.95 7.29903 115.925 6.98008C115.861 6.17875 115.829 5.77799 115.711 5.44371C115.438 4.67051 114.829 4.06233 114.056 3.78923C113.722 3.67115 113.321 3.63918 112.52 3.57523C112.201 3.54978 112.042 3.53705 111.888 3.50672C111.536 3.43721 111.201 3.29854 110.903 3.09874C110.773 3.01158 110.651 2.90781 110.408 2.70027C109.796 2.17883 109.49 1.91811 109.17 1.76522C108.43 1.41159 107.57 1.41159 106.83 1.76522C106.51 1.9181 106.204 2.17887 105.592 2.70031Z" fill="#9BB997"/>
<path d="M112.48 9.46905L112.48 9.46904C112.857 9.09264 112.857 8.48236 112.48 8.10595L112.48 8.10594C112.104 7.72954 111.493 7.72952 111.117 8.10595L106.373 12.8502L104.884 11.3613L104.884 11.3613C104.508 10.985 103.897 10.985 103.521 11.3613L103.521 11.3613C103.145 11.7378 103.145 12.3481 103.521 12.7245C103.521 12.7245 103.521 12.7245 103.521 12.7245L105.691 14.8948L105.691 14.8948C106.068 15.2711 106.678 15.2712 107.054 14.8948L112.48 9.46905Z" fill="white" stroke="white" stroke-width="0.3"/>
<path d="M3.17188 8.17383V10.8809H5.55762C6.03158 10.8809 6.38704 10.8262 6.62402 10.7168C7.04329 10.5254 7.25293 10.1471 7.25293 9.58203C7.25293 8.97135 7.05013 8.5612 6.64453 8.35156C6.41667 8.23307 6.07487 8.17383 5.61914 8.17383H3.17188ZM6.05664 6.42383C6.76302 6.4375 7.30534 6.52409 7.68359 6.68359C8.06641 6.8431 8.38997 7.0778 8.6543 7.3877C8.87305 7.6429 9.04622 7.92546 9.17383 8.23535C9.30143 8.54525 9.36523 8.89844 9.36523 9.29492C9.36523 9.77344 9.24447 10.2451 9.00293 10.71C8.76139 11.1702 8.36263 11.4961 7.80664 11.6875C8.27148 11.8743 8.59961 12.141 8.79102 12.4873C8.98698 12.8291 9.08496 13.3532 9.08496 14.0596V14.7363C9.08496 15.1966 9.10319 15.5088 9.13965 15.6729C9.19434 15.9326 9.32194 16.124 9.52246 16.2471V16.5H7.20508C7.14128 16.2767 7.0957 16.0967 7.06836 15.96C7.01367 15.6774 6.98405 15.388 6.97949 15.0918L6.96582 14.1553C6.95671 13.5127 6.83822 13.0843 6.61035 12.8701C6.38704 12.6559 5.96549 12.5488 5.3457 12.5488H3.17188V16.5H1.11426V6.42383H6.05664ZM16.4131 6.42383H18.7988L15.4287 12.7129V16.5H13.3232V12.7129L9.83691 6.42383H12.3184L14.4102 10.8125L16.4131 6.42383ZM25.6758 9.62988C25.6758 9.10579 25.5368 8.7321 25.2588 8.50879C24.9854 8.28548 24.6003 8.17383 24.1035 8.17383H22.1416V11.1406H24.1035C24.6003 11.1406 24.9854 11.0199 25.2588 10.7783C25.5368 10.5368 25.6758 10.154 25.6758 9.62988ZM27.7607 9.61621C27.7607 10.8057 27.46 11.6465 26.8584 12.1387C26.2568 12.6309 25.3978 12.877 24.2812 12.877H22.1416V16.5H20.0498V6.42383H24.4385C25.4502 6.42383 26.2568 6.68359 26.8584 7.20312C27.46 7.72266 27.7607 8.52702 27.7607 9.61621ZM36.0186 6.42383H39.0469V16.5H37.085V9.68457C37.085 9.48861 37.0872 9.21517 37.0918 8.86426C37.0964 8.50879 37.0986 8.23535 37.0986 8.04395L35.1914 16.5H33.1475L31.2539 8.04395C31.2539 8.23535 31.2562 8.50879 31.2607 8.86426C31.2653 9.21517 31.2676 9.48861 31.2676 9.68457V16.5H29.3057V6.42383H32.3682L34.2002 14.3467L36.0186 6.42383ZM50.7979 6.42383H52.9854L49.5469 16.5H47.5576L44.1533 6.42383H46.4023L48.5898 14.0732L50.7979 6.42383ZM56.2529 10.457C55.8018 10.457 55.4508 10.5983 55.2002 10.8809C54.9541 11.1634 54.7992 11.5462 54.7354 12.0293H57.7637C57.7318 11.5143 57.5745 11.1247 57.292 10.8604C57.014 10.5915 56.6676 10.457 56.2529 10.457ZM56.2529 8.85059C56.8727 8.85059 57.431 8.9668 57.9277 9.19922C58.4245 9.43164 58.8346 9.7985 59.1582 10.2998C59.4499 10.7419 59.639 11.2546 59.7256 11.8379C59.7757 12.1797 59.7962 12.6719 59.7871 13.3145H54.6875C54.7148 14.0618 54.9495 14.5859 55.3916 14.8867C55.6605 15.0736 55.984 15.167 56.3623 15.167C56.7633 15.167 57.0892 15.0531 57.3398 14.8252C57.4766 14.7021 57.5973 14.5312 57.7021 14.3125H59.6914C59.6413 14.7546 59.4111 15.2035 59.001 15.6592C58.363 16.3838 57.4697 16.7461 56.3213 16.7461C55.3734 16.7461 54.5371 16.4408 53.8125 15.8301C53.0879 15.2194 52.7256 14.2259 52.7256 12.8496C52.7256 11.5599 53.0514 10.571 53.7031 9.88281C54.3594 9.19466 55.2093 8.85059 56.2529 8.85059ZM65.1533 8.87109C65.1898 8.87109 65.2194 8.87337 65.2422 8.87793C65.2695 8.87793 65.3265 8.88021 65.4131 8.88477V10.8809C65.29 10.8672 65.1807 10.8581 65.085 10.8535C64.9893 10.849 64.9118 10.8467 64.8525 10.8467C64.0687 10.8467 63.5423 11.1019 63.2734 11.6123C63.123 11.8994 63.0479 12.3415 63.0479 12.9385V16.5H61.0859V9.04883H62.9453V10.3477C63.2461 9.85091 63.5081 9.51139 63.7314 9.3291C64.096 9.02376 64.57 8.87109 65.1533 8.87109ZM68.5645 8.16016H66.5889V6.3623H68.5645V8.16016ZM66.5889 9.04883H68.5645V16.5H66.5889V9.04883ZM75.2021 6.3623H77.1094V8.13965H75.2021V6.3623ZM75.2021 9.08301H77.1436V16.5H75.2021V9.08301ZM73.2539 6.32129C73.3724 6.32129 73.4932 6.32585 73.6162 6.33496C73.7393 6.34408 73.8669 6.35319 73.999 6.3623V7.94824C73.9079 7.94368 73.819 7.94141 73.7324 7.94141C73.6458 7.93685 73.541 7.93457 73.418 7.93457C73.1126 7.93457 72.9258 8.01888 72.8574 8.1875C72.7891 8.35612 72.7594 8.62044 72.7686 8.98047V9.11719H74.0469V10.4912H72.7686V16.5H70.8271V10.4912H69.7402V9.11719H70.8066V8.63867C70.8066 7.8457 70.9821 7.25553 71.333 6.86816C71.6475 6.50358 72.2878 6.32129 73.2539 6.32129ZM81.9561 10.457C81.5049 10.457 81.154 10.5983 80.9033 10.8809C80.6572 11.1634 80.5023 11.5462 80.4385 12.0293H83.4668C83.4349 11.5143 83.2777 11.1247 82.9951 10.8604C82.7171 10.5915 82.3708 10.457 81.9561 10.457ZM81.9561 8.85059C82.5758 8.85059 83.1341 8.9668 83.6309 9.19922C84.1276 9.43164 84.5378 9.7985 84.8613 10.2998C85.153 10.7419 85.3421 11.2546 85.4287 11.8379C85.4788 12.1797 85.4993 12.6719 85.4902 13.3145H80.3906C80.418 14.0618 80.6527 14.5859 81.0947 14.8867C81.3636 15.0736 81.6872 15.167 82.0654 15.167C82.4665 15.167 82.7923 15.0531 83.043 14.8252C83.1797 14.7021 83.3005 14.5312 83.4053 14.3125H85.3945C85.3444 14.7546 85.1143 15.2035 84.7041 15.6592C84.0661 16.3838 83.1729 16.7461 82.0244 16.7461C81.0765 16.7461 80.2402 16.4408 79.5156 15.8301C78.791 15.2194 78.4287 14.2259 78.4287 12.8496C78.4287 11.5599 78.7546 10.571 79.4062 9.88281C80.0625 9.19466 80.9124 8.85059 81.9561 8.85059ZM89.5576 8.87109C90.0088 8.87109 90.4098 8.97135 90.7607 9.17188C91.1117 9.36784 91.3965 9.64128 91.6152 9.99219V6.4375H93.5908V16.5H91.6973V15.4678C91.4193 15.9098 91.1025 16.2311 90.7471 16.4316C90.3916 16.6322 89.9495 16.7324 89.4209 16.7324C88.5505 16.7324 87.8167 16.3815 87.2197 15.6797C86.6273 14.9733 86.3311 14.0687 86.3311 12.9658C86.3311 11.6943 86.6227 10.694 87.2061 9.96484C87.7939 9.23568 88.5778 8.87109 89.5576 8.87109ZM89.9814 15.0918C90.5329 15.0918 90.9521 14.8867 91.2393 14.4766C91.5264 14.0664 91.6699 13.5355 91.6699 12.8838C91.6699 11.9723 91.4398 11.3206 90.9795 10.9287C90.6969 10.6917 90.3688 10.5732 89.9951 10.5732C89.4255 10.5732 89.0062 10.7897 88.7373 11.2227C88.473 11.651 88.3408 12.1842 88.3408 12.8223C88.3408 13.5104 88.4753 14.0618 88.7441 14.4766C89.0176 14.8867 89.43 15.0918 89.9814 15.0918Z" fill="#9BB997"/>
</svg>
