<svg width="75" height="23" viewBox="0 0 75 23" fill="none" xmlns="http://www.w3.org/2000/svg">
<path d="M62.5924 2.70031C62.3489 2.90782 62.2271 3.01158 62.0971 3.09874C61.799 3.29854 61.4642 3.43721 61.1121 3.50672C60.9585 3.53705 60.799 3.54977 60.4801 3.57522C59.6787 3.63917 59.278 3.67115 58.9437 3.78923C58.1705 4.06233 57.5623 4.67051 57.2892 5.44371C57.1712 5.778 57.1392 6.17869 57.0752 6.98007C57.0498 7.29902 57.0371 7.45851 57.0067 7.6121C56.9372 7.96417 56.7985 8.29896 56.5987 8.59706C56.5116 8.7271 56.4078 8.84887 56.2003 9.09239C55.6788 9.70429 55.4181 10.0102 55.2652 10.3301C54.9116 11.07 54.9116 11.93 55.2652 12.6699C55.4181 12.9898 55.6788 13.2957 56.2003 13.9076C56.4078 14.1511 56.5116 14.2729 56.5987 14.4029C56.7985 14.701 56.9372 15.0358 57.0067 15.3879C57.0371 15.5415 57.0498 15.701 57.0752 16.0199C57.1392 16.8213 57.1712 17.222 57.2892 17.5563C57.5623 18.3295 58.1705 18.9377 58.9437 19.2108C59.278 19.3288 59.6787 19.3608 60.48 19.4248C60.799 19.4502 60.9585 19.463 61.1121 19.4933C61.4642 19.5628 61.799 19.7015 62.0971 19.9013C62.2271 19.9884 62.3489 20.0922 62.5924 20.2997C63.2043 20.8212 63.5102 21.0819 63.8301 21.2348C64.57 21.5884 65.43 21.5884 66.1699 21.2348C66.4898 21.0819 66.7957 20.8212 67.4076 20.2997C67.6511 20.0922 67.7729 19.9884 67.9029 19.9013C68.201 19.7015 68.5358 19.5628 68.8879 19.4933C69.0415 19.463 69.201 19.4502 69.5199 19.4248C70.3212 19.3608 70.722 19.3288 71.0563 19.2108C71.8295 18.9377 72.4377 18.3295 72.7108 17.5563C72.8288 17.222 72.8608 16.8213 72.9248 16.02C72.9502 15.7011 72.963 15.5415 72.9933 15.3879C73.0628 15.0358 73.2015 14.701 73.4013 14.4029C73.4884 14.2729 73.5922 14.1511 73.7997 13.9076C74.3212 13.2957 74.5819 12.9898 74.7348 12.6699C75.0884 11.93 75.0884 11.07 74.7348 10.3301C74.5819 10.0102 74.3212 9.7043 73.7997 9.0924C73.5922 8.84887 73.4884 8.72711 73.4013 8.59706C73.2015 8.29896 73.0628 7.96417 72.9933 7.6121C72.963 7.45851 72.9502 7.29903 72.9248 6.98008C72.8608 6.17875 72.8288 5.77799 72.7108 5.44371C72.4377 4.67051 71.8295 4.06233 71.0563 3.78923C70.722 3.67115 70.3213 3.63918 69.5199 3.57523C69.201 3.54978 69.0415 3.53705 68.8879 3.50672C68.5358 3.43721 68.201 3.29854 67.9029 3.09874C67.7729 3.01158 67.6511 2.90781 67.4076 2.70027C66.7957 2.17883 66.4898 1.91811 66.1699 1.76522C65.43 1.41159 64.57 1.41159 63.8301 1.76522C63.5102 1.9181 63.2043 2.17887 62.5924 2.70031Z" fill="#315D80"/>
<path d="M69.4801 9.46905L69.4802 9.46904C69.8565 9.09264 69.8565 8.48236 69.4802 8.10595L69.4801 8.10594C69.1037 7.72954 68.4934 7.72952 68.117 8.10595L63.3728 12.8502L61.8841 11.3613L61.8841 11.3613C61.5077 10.985 60.8974 10.985 60.521 11.3613L60.521 11.3613C60.1446 11.7378 60.1446 12.3481 60.521 12.7245C60.521 12.7245 60.521 12.7245 60.521 12.7245L62.6913 14.8948L62.6913 14.8948C63.0677 15.2711 63.678 15.2712 64.0543 14.8948L69.4801 9.46905Z" fill="white" stroke="white" stroke-width="0.3"/>
<path d="M6.96582 6.42383H9.15332L5.71484 16.5H3.72559L0.321289 6.42383H2.57031L4.75781 14.0732L6.96582 6.42383ZM12.4209 10.457C11.9697 10.457 11.6188 10.5983 11.3682 10.8809C11.1221 11.1634 10.9671 11.5462 10.9033 12.0293H13.9316C13.8997 11.5143 13.7425 11.1247 13.46 10.8604C13.182 10.5915 12.8356 10.457 12.4209 10.457ZM12.4209 8.85059C13.0407 8.85059 13.599 8.9668 14.0957 9.19922C14.5924 9.43164 15.0026 9.7985 15.3262 10.2998C15.6178 10.7419 15.807 11.2546 15.8936 11.8379C15.9437 12.1797 15.9642 12.6719 15.9551 13.3145H10.8555C10.8828 14.0618 11.1175 14.5859 11.5596 14.8867C11.8285 15.0736 12.152 15.167 12.5303 15.167C12.9313 15.167 13.2572 15.0531 13.5078 14.8252C13.6445 14.7021 13.7653 14.5312 13.8701 14.3125H15.8594C15.8092 14.7546 15.5791 15.2035 15.1689 15.6592C14.5309 16.3838 13.6377 16.7461 12.4893 16.7461C11.5413 16.7461 10.7051 16.4408 9.98047 15.8301C9.25586 15.2194 8.89355 14.2259 8.89355 12.8496C8.89355 11.5599 9.2194 10.571 9.87109 9.88281C10.5273 9.19466 11.3773 8.85059 12.4209 8.85059ZM21.3213 8.87109C21.3577 8.87109 21.3874 8.87337 21.4102 8.87793C21.4375 8.87793 21.4945 8.88021 21.5811 8.88477V10.8809C21.458 10.8672 21.3486 10.8581 21.2529 10.8535C21.1572 10.849 21.0798 10.8467 21.0205 10.8467C20.2367 10.8467 19.7103 11.1019 19.4414 11.6123C19.291 11.8994 19.2158 12.3415 19.2158 12.9385V16.5H17.2539V9.04883H19.1133V10.3477C19.4141 9.85091 19.6761 9.51139 19.8994 9.3291C20.264 9.02376 20.738 8.87109 21.3213 8.87109ZM24.7324 8.16016H22.7568V6.3623H24.7324V8.16016ZM22.7568 9.04883H24.7324V16.5H22.7568V9.04883ZM31.3701 6.3623H33.2773V8.13965H31.3701V6.3623ZM31.3701 9.08301H33.3115V16.5H31.3701V9.08301ZM29.4219 6.32129C29.5404 6.32129 29.6611 6.32585 29.7842 6.33496C29.9072 6.34408 30.0348 6.35319 30.167 6.3623V7.94824C30.0758 7.94368 29.987 7.94141 29.9004 7.94141C29.8138 7.93685 29.709 7.93457 29.5859 7.93457C29.2806 7.93457 29.0938 8.01888 29.0254 8.1875C28.957 8.35612 28.9274 8.62044 28.9365 8.98047V9.11719H30.2148V10.4912H28.9365V16.5H26.9951V10.4912H25.9082V9.11719H26.9746V8.63867C26.9746 7.8457 27.1501 7.25553 27.501 6.86816C27.8154 6.50358 28.4557 6.32129 29.4219 6.32129ZM38.124 10.457C37.6729 10.457 37.3219 10.5983 37.0713 10.8809C36.8252 11.1634 36.6702 11.5462 36.6064 12.0293H39.6348C39.6029 11.5143 39.4456 11.1247 39.1631 10.8604C38.8851 10.5915 38.5387 10.457 38.124 10.457ZM38.124 8.85059C38.7438 8.85059 39.3021 8.9668 39.7988 9.19922C40.2956 9.43164 40.7057 9.7985 41.0293 10.2998C41.321 10.7419 41.5101 11.2546 41.5967 11.8379C41.6468 12.1797 41.6673 12.6719 41.6582 13.3145H36.5586C36.5859 14.0618 36.8206 14.5859 37.2627 14.8867C37.5316 15.0736 37.8551 15.167 38.2334 15.167C38.6344 15.167 38.9603 15.0531 39.2109 14.8252C39.3477 14.7021 39.4684 14.5312 39.5732 14.3125H41.5625C41.5124 14.7546 41.2822 15.2035 40.8721 15.6592C40.234 16.3838 39.3408 16.7461 38.1924 16.7461C37.2445 16.7461 36.4082 16.4408 35.6836 15.8301C34.959 15.2194 34.5967 14.2259 34.5967 12.8496C34.5967 11.5599 34.9225 10.571 35.5742 9.88281C36.2305 9.19466 37.0804 8.85059 38.124 8.85059ZM45.7256 8.87109C46.1768 8.87109 46.5778 8.97135 46.9287 9.17188C47.2796 9.36784 47.5645 9.64128 47.7832 9.99219V6.4375H49.7588V16.5H47.8652V15.4678C47.5872 15.9098 47.2705 16.2311 46.915 16.4316C46.5596 16.6322 46.1175 16.7324 45.5889 16.7324C44.7184 16.7324 43.9847 16.3815 43.3877 15.6797C42.7952 14.9733 42.499 14.0687 42.499 12.9658C42.499 11.6943 42.7907 10.694 43.374 9.96484C43.9619 9.23568 44.7458 8.87109 45.7256 8.87109ZM46.1494 15.0918C46.7008 15.0918 47.1201 14.8867 47.4072 14.4766C47.6943 14.0664 47.8379 13.5355 47.8379 12.8838C47.8379 11.9723 47.6077 11.3206 47.1475 10.9287C46.8649 10.6917 46.5368 10.5732 46.1631 10.5732C45.5934 10.5732 45.1742 10.7897 44.9053 11.2227C44.641 11.651 44.5088 12.1842 44.5088 12.8223C44.5088 13.5104 44.6432 14.0618 44.9121 14.4766C45.1855 14.8867 45.598 15.0918 46.1494 15.0918Z" fill="#315D80"/>
</svg>
