<svg width="588" height="566" viewBox="0 0 588 566" fill="none" xmlns="http://www.w3.org/2000/svg">
<g filter="url(#filter0_i_4155_44914)">
<path d="M0 40C0 17.9086 17.9086 0 40 0H548C570.091 0 588 17.9086 588 40V565H0V40Z" fill="url(#paint0_linear_4155_44914)" fill-opacity="0.14"/>
</g>
<path d="M210.322 270.793C206.742 272.687 202.924 274.09 198.97 274.966C197.993 275.114 194.427 247.779 194.427 247.779C210.958 241.726 219.083 235.939 223.464 223.404C227.845 210.868 215.753 208.604 215.073 195.905C214.525 185.738 216.553 152.986 178.813 157.914C141.073 162.842 110.585 216.314 125.933 232.446C141.28 248.578 155.251 250.798 154.97 254.913C154.689 259.027 140.17 281.478 139.356 282.574C138.542 283.669 149.716 305.869 161.275 310.516C172.834 315.163 236.621 312.987 210.322 270.793Z" fill="#315D80"/>
<path d="M40.7245 563.802C39.0817 539.974 39.0817 462.304 84.695 428.605C88.395 425.734 91.3994 417.105 91.3994 417.105C111.808 422.448 164.141 436.419 187.303 435.176C184.565 442.991 176.943 454.904 176.943 454.904L184.21 563.403L124.61 564.631L112.696 545.731L114.339 563.802H40.7245Z" fill="#F1D15B"/>
<path d="M41.4692 563.802C39.7592 539.623 41.8314 515.325 47.6111 491.785C51.1684 476.7 57.3502 462.358 65.8742 449.413C70.2938 442.917 75.5765 437.052 81.5769 431.979C84.1965 429.774 86.5645 428.146 88.4145 425.23C89.8892 422.799 91.1045 420.219 92.0405 417.534L92.1293 417.297L91.2117 417.815C106.796 421.885 122.395 425.896 138.127 429.315C153.86 432.734 170.924 436.715 187.308 435.916L186.582 434.983C183.908 441.735 180.524 448.185 176.489 454.223C175.897 455.17 176.252 456.414 176.311 457.479C176.824 465.215 177.347 472.965 177.88 480.73C179.39 503.423 180.904 526.116 182.424 548.809C182.749 553.743 183.08 558.632 183.415 563.476L184.155 562.736L138.497 563.683L128.137 563.891H125.325C124.053 563.891 125.325 564.438 124.955 563.891C121.078 557.724 117.19 551.557 113.293 545.391C112.938 544.799 111.813 544.976 111.917 545.761L113.56 563.831L114.3 563.091H40.744C40.5477 563.091 40.3595 563.169 40.2207 563.308C40.082 563.447 40.004 563.635 40.004 563.831C40.004 564.028 40.082 564.216 40.2207 564.355C40.3595 564.493 40.5477 564.571 40.744 564.571H114.3C114.496 564.571 114.684 564.493 114.823 564.355C114.962 564.216 115.04 564.028 115.04 563.831L113.397 545.761L112.02 546.131L123.683 564.631C124.349 565.696 125.325 565.385 126.495 565.356L136.647 565.149L184.17 564.172C184.364 564.164 184.548 564.084 184.685 563.947C184.822 563.81 184.903 563.626 184.91 563.432C182.542 528.178 180.184 492.93 177.836 457.686C177.836 456.946 177.732 456.206 177.688 455.466C177.643 454.726 177.466 455.466 178.161 454.327C182.096 448.361 185.399 442.002 188.018 435.353C188.047 435.243 188.051 435.128 188.029 435.016C188.007 434.904 187.96 434.799 187.892 434.708C187.824 434.617 187.736 434.542 187.634 434.49C187.533 434.438 187.421 434.409 187.308 434.406C171.028 435.176 154.333 431.269 138.468 427.865C122.602 424.461 107.122 420.465 91.5521 416.35C91.3619 416.304 91.1612 416.331 90.9907 416.428C90.8203 416.524 90.6929 416.681 90.6345 416.868C89.7931 419.221 88.7534 421.499 87.5265 423.676C85.5137 427.347 82.1689 429.433 79.0758 432.112C73.5685 437.001 68.7003 442.565 64.5866 448.673C56.0471 460.987 50.4823 475.224 46.6343 489.639C40.5653 513.304 38.2874 537.781 39.8856 562.159C39.8856 562.707 39.8856 563.254 39.9892 563.787C40.0484 564.749 41.5284 564.764 41.4692 563.802Z" fill="#F1D15B"/>
<path d="M126.755 445.505H126.622C109.794 442.545 94.2546 436.063 87.047 428.855C86.9777 428.787 86.9226 428.705 86.885 428.615C86.8475 428.524 86.8281 428.428 86.8281 428.33C86.8281 428.232 86.8475 428.136 86.885 428.045C86.9226 427.955 86.9777 427.873 87.047 427.805C87.1878 427.668 87.3763 427.592 87.5724 427.592C87.7686 427.592 87.957 427.668 88.0978 427.805C95.0982 434.82 110.298 441.125 126.874 444.085C126.97 444.101 127.062 444.136 127.145 444.188C127.228 444.24 127.299 444.308 127.356 444.387C127.412 444.467 127.452 444.557 127.474 444.653C127.495 444.748 127.497 444.847 127.48 444.943C127.443 445.106 127.35 445.251 127.218 445.353C127.086 445.456 126.922 445.51 126.755 445.505Z" fill="black"/>
<path d="M54.9676 564.113C54.7774 564.11 54.5956 564.035 54.4584 563.903C54.3212 563.772 54.2387 563.593 54.2276 563.403C53.532 547.7 52.1556 467.618 93.9505 432.942C94.1026 432.816 94.2977 432.756 94.494 432.772C94.6904 432.789 94.8724 432.882 95.0013 433.031C95.1213 433.186 95.1774 433.381 95.1582 433.577C95.1389 433.772 95.0457 433.952 94.8977 434.081C53.6504 468.328 55.012 547.834 55.7076 563.373C55.7136 563.47 55.7002 563.567 55.6683 563.658C55.6364 563.749 55.5866 563.833 55.5218 563.905C55.457 563.976 55.3785 564.034 55.2909 564.075C55.2034 564.116 55.1086 564.139 55.012 564.143L54.9676 564.113Z" fill="black"/>
<path d="M199.032 274.403C211.242 271.443 216.481 267.373 224.562 266.544C227.3 257.783 218.124 242.716 211.686 239.979C206.375 243.644 200.428 246.289 194.148 247.778C196.072 260.713 199.032 274.403 199.032 274.403Z" fill="#000001"/>
<path d="M199.216 275.128C207.726 272.982 215.807 268.32 224.554 267.284C224.714 267.284 224.87 267.233 224.998 267.136C225.126 267.04 225.22 266.905 225.264 266.752C227.396 258.863 222.719 250.117 217.864 244.182C217.124 243.279 212.862 238.262 211.278 239.327C206.04 242.995 200.147 245.622 193.918 247.068C193.729 247.123 193.569 247.25 193.472 247.421C193.376 247.593 193.35 247.795 193.4 247.985C194.747 256.865 196.36 265.745 198.284 274.625C198.476 275.558 199.912 275.158 199.764 274.226C197.87 265.346 196.227 256.466 194.895 247.586L194.377 248.489C196.92 247.968 199.4 247.179 201.777 246.135C203.257 245.484 204.737 244.789 206.217 244.049C206.986 243.649 211.219 240.571 211.841 240.867C217.184 243.397 220.839 250.427 222.822 255.667C223.924 258.384 224.428 261.306 224.302 264.236C224.154 266.87 219.862 266.633 217.716 267.314C211.367 269.312 205.358 272.065 198.876 273.693C198.699 273.75 198.55 273.872 198.458 274.034C198.367 274.196 198.34 274.387 198.383 274.568C198.426 274.749 198.536 274.907 198.69 275.011C198.845 275.115 199.033 275.157 199.216 275.128Z" fill="#000001"/>
<path d="M185.706 249.273C177.814 249.276 170.04 247.366 163.047 243.708C162.96 243.663 162.883 243.601 162.82 243.526C162.758 243.45 162.71 243.363 162.681 243.27C162.652 243.176 162.642 243.078 162.652 242.98C162.661 242.883 162.69 242.788 162.736 242.702C162.783 242.616 162.846 242.54 162.922 242.479C162.997 242.418 163.084 242.372 163.178 242.345C163.272 242.317 163.37 242.308 163.466 242.319C163.563 242.329 163.657 242.359 163.743 242.406C172.966 247.239 183.535 248.869 193.787 247.038C193.983 247.001 194.186 247.043 194.351 247.155C194.516 247.268 194.63 247.441 194.667 247.637C194.704 247.834 194.662 248.037 194.55 248.202C194.437 248.367 194.264 248.481 194.068 248.518C191.311 249.036 188.511 249.289 185.706 249.273Z" fill="black"/>
<path d="M146.758 218.193C150.384 229.633 157.799 232.682 155.904 215.573C188.153 196.259 189.293 169.694 184.764 160.458C204.7 163.122 218.064 172.165 214.971 194.765C236.135 189.215 234.699 153.473 216.451 146.887C216.051 121.002 187.813 114.46 159.945 130.252C147.454 137.326 143.014 145.955 125.994 152.614C106.043 160.429 99.117 185.914 99.117 207.374C99.117 240.023 98.9246 256.007 73.232 275.927C47.5393 295.848 23.4451 321.171 38.3042 352.576C47.3469 371.683 67.0752 370.454 67.0752 370.454C61.5252 396.132 77.3463 411.347 92.5458 410.311C92.5458 410.311 96.8674 356.898 102.417 333.469C107.967 310.041 118.845 300.377 137.138 291.142C155.431 281.907 160.122 278.636 158.302 260.935C157.501 252.845 156.196 244.813 154.395 236.885C138.115 243.678 130.108 234.266 128.302 227.443C125.387 216.55 140.379 208.129 146.758 218.193Z" fill="#000001"/>
<path d="M146.043 218.384C146.887 220.945 151.712 232.503 155.737 226.894C156.401 225.717 156.771 224.397 156.818 223.046C156.948 221.788 156.983 220.521 156.921 219.257C156.847 216.297 157.099 215.735 159.571 214.137C165.027 210.612 170.002 206.393 174.37 201.586C183.576 191.404 191.864 173.763 185.411 160.073C185.145 160.443 184.864 160.798 184.582 161.168C192.752 162.307 201.188 164.468 207.448 170.137C214.375 176.412 215.351 186.002 214.241 194.764C214.242 194.877 214.269 194.988 214.319 195.09C214.37 195.191 214.443 195.279 214.533 195.348C214.623 195.417 214.728 195.464 214.839 195.486C214.95 195.507 215.064 195.503 215.174 195.474C226.718 192.218 231.691 180.585 231.187 169.367C230.96 163.69 229.151 158.19 225.963 153.487C224.586 151.54 222.895 149.834 220.961 148.44C219.864 147.662 218.682 147.012 217.438 146.501C216.757 146.205 216.861 142.845 216.713 141.958C214.626 127.927 201.913 121.075 188.756 121.001C171.588 120.897 157.232 130.354 144.489 140.774C141.097 143.546 137.473 146.022 133.656 148.173C129.393 150.586 124.672 151.977 120.469 154.478C114.09 158.282 109.414 164.394 106.039 170.891C98.2397 185.987 98.5209 202.711 98.2693 219.213C98.0621 233.835 96.6413 248.295 87.8205 260.475C82.685 267.564 75.7438 272.863 68.9802 278.235C61.3467 284.212 54.2998 290.902 47.9348 298.215C41.4475 305.486 36.727 314.157 34.1412 323.552C31.6549 333.498 33.416 343.666 37.634 352.856C42.6808 363.853 54.7427 371.8 67.0415 371.105L66.3311 370.172C64.1851 380.665 64.8511 391.78 71.363 400.69C73.7627 404.018 76.9512 406.699 80.6424 408.492C84.3337 410.285 88.4122 411.133 92.5121 410.961C92.7084 410.961 92.8966 410.883 93.0354 410.744C93.1741 410.605 93.2521 410.417 93.2521 410.221C95.1761 386.541 97.3813 362.565 101.895 339.181C104.974 323.242 111.116 309.034 124.584 299.221C131.184 294.441 138.703 291.215 145.792 287.263C150.543 284.599 155.338 281.417 157.706 276.341C160.666 269.962 159.186 261.94 158.372 255.295C157.626 248.989 156.529 242.728 155.086 236.544C155.031 236.355 154.904 236.195 154.733 236.098C154.561 236.001 154.359 235.975 154.169 236.026C144.889 239.726 133.789 239.075 129.512 228.7C125.235 218.325 139.354 208.572 146.132 218.414C146.665 219.198 147.953 218.414 147.405 217.674C140.967 208.306 125.664 214.551 127.247 225.784C127.617 228.095 128.467 230.303 129.741 232.265C131.016 234.228 132.687 235.902 134.647 237.18C140.567 241.28 148.352 239.948 154.627 237.461L153.71 236.943C155.21 243.432 156.352 249.998 157.129 256.612C157.987 263.48 159.215 271.501 155.353 277.702C151.653 283.622 143.764 286.804 137.829 289.823C131.094 293.047 124.773 297.072 119.004 301.811C107.638 311.668 102.946 325.92 100.238 340.291C97.4701 354.899 95.7977 369.743 94.3177 384.528C93.4149 393.068 92.5861 401.637 91.8905 410.191C92.1421 409.954 92.3937 409.703 92.6305 409.451C88.8991 409.6 85.1861 408.857 81.799 407.284C78.412 405.712 75.4484 403.355 73.1538 400.408C66.3311 392.15 65.7539 380.562 67.8703 370.527C67.8997 370.418 67.9036 370.303 67.8818 370.192C67.86 370.081 67.813 369.977 67.7443 369.886C67.6757 369.796 67.5873 369.723 67.486 369.673C67.3847 369.622 67.2731 369.596 67.1599 369.595C56.0155 370.217 45.4484 363.497 40.0464 354.055C29.4941 335.659 35.8728 315.486 48.3788 300.095C54.6291 292.704 61.6162 285.97 69.2318 279.996C75.9066 274.55 82.6554 269.444 88.0721 262.651C96.5229 252.054 99.0241 239.193 99.6753 225.947C100.474 209.549 99.1277 193.52 104.781 177.729C107.314 170.236 111.763 163.537 117.687 158.297C121.109 155.661 124.918 153.569 128.979 152.095C133.157 150.283 137.126 148.026 140.819 145.361C146.887 141.084 152.185 135.83 158.49 131.864C166.496 126.783 175.557 123.599 184.982 122.555C192.379 121.573 199.888 123.195 206.22 127.143C212.761 131.583 215.514 139.175 215.736 146.767C215.743 146.93 215.799 147.086 215.897 147.215C215.995 147.345 216.13 147.442 216.284 147.493C234.991 154.641 234.443 188.4 214.804 193.935L215.736 194.645C216.846 185.765 215.736 176.885 209.565 170.033C203.393 163.181 193.67 160.827 184.997 159.673C184.854 159.638 184.705 159.645 184.566 159.693C184.428 159.741 184.307 159.829 184.217 159.945C184.128 160.061 184.074 160.201 184.063 160.347C184.051 160.493 184.083 160.64 184.153 160.768C187.454 167.783 186.018 176.604 183.561 183.619C178.825 197.25 167.577 207.551 155.545 214.877C155.435 214.942 155.344 215.035 155.282 215.147C155.219 215.259 155.188 215.385 155.19 215.513C155.367 217.333 156.67 226.569 153.429 226.791C150.187 227.013 148.13 219.864 147.509 217.911C147.168 217.097 145.733 217.481 146.043 218.384Z" fill="#000001"/>
<path d="M182.193 206.174C178.434 206.677 177.975 214.284 181.675 214.077C185.375 213.87 185.272 205.759 182.193 206.174Z" fill="black"/>
<path d="M181.787 207.728C181.668 207.73 181.55 207.703 181.444 207.649C181.339 207.595 181.248 207.515 181.18 207.418C181.124 207.337 181.084 207.246 181.064 207.151C181.043 207.055 181.041 206.956 181.059 206.859C181.077 206.763 181.114 206.671 181.168 206.589C181.222 206.507 181.291 206.437 181.372 206.382L181.52 206.278C182.558 205.682 183.476 204.9 184.229 203.969C184.275 203.884 184.338 203.808 184.414 203.747C184.49 203.685 184.577 203.64 184.67 203.612C184.764 203.585 184.862 203.576 184.959 203.586C185.056 203.597 185.149 203.626 185.235 203.673C185.403 203.772 185.525 203.932 185.578 204.12C185.63 204.307 185.608 204.508 185.516 204.68C184.678 205.832 183.604 206.79 182.364 207.492L182.201 207.595C182.081 207.683 181.935 207.729 181.787 207.728Z" fill="black"/>
<path d="M209.12 197.446C205.391 198.082 205.213 205.719 208.898 205.378C212.583 205.038 212.184 196.928 209.12 197.446Z" fill="black"/>
<path d="M208.74 199.026C208.585 199.026 208.433 198.977 208.307 198.886C208.181 198.795 208.087 198.667 208.038 198.52C207.989 198.373 207.987 198.214 208.034 198.065C208.08 197.917 208.172 197.787 208.296 197.694L208.488 197.546C209.493 196.926 210.368 196.117 211.064 195.163C211.155 194.992 211.309 194.862 211.494 194.801C211.679 194.741 211.88 194.754 212.055 194.838C212.143 194.881 212.222 194.942 212.286 195.017C212.351 195.092 212.399 195.179 212.43 195.272C212.46 195.366 212.471 195.465 212.463 195.563C212.454 195.661 212.427 195.757 212.381 195.844C211.625 197.037 210.614 198.048 209.421 198.804L209.228 198.952C209.08 199.036 208.906 199.062 208.74 199.026Z" fill="black"/>
<path d="M201.82 224.587C201.628 224.585 201.443 224.512 201.302 224.38C201.233 224.311 201.178 224.229 201.14 224.139C201.103 224.049 201.083 223.952 201.083 223.855C201.083 223.757 201.103 223.66 201.14 223.57C201.178 223.48 201.233 223.398 201.302 223.329L202.575 222.012C206.823 217.691 207.962 216.536 203.774 210.172L203.567 209.847C198.668 202.447 197.972 200.967 202.412 192.664C202.506 192.491 202.665 192.363 202.854 192.307C203.043 192.252 203.246 192.274 203.419 192.368C203.591 192.462 203.72 192.621 203.775 192.81C203.831 192.999 203.809 193.202 203.715 193.374C199.571 201.085 200.059 201.84 204.795 209.033L205.017 209.358C209.857 216.758 207.977 218.579 203.641 223.048L202.368 224.351C202.299 224.427 202.215 224.488 202.12 224.529C202.026 224.57 201.923 224.59 201.82 224.587Z" fill="black"/>
<path d="M171.721 199.9C169.087 204.651 169.56 207.093 172.949 204.118C176.288 201.226 179.984 198.774 183.946 196.822C186.713 195.594 184.034 192.116 179.624 192.915C177.36 193.329 173.867 195.993 171.721 199.9Z" fill="black"/>
<path d="M170.69 206.163C170.457 206.168 170.227 206.11 170.024 205.995C169.821 205.881 169.652 205.714 169.536 205.512C168.781 204.239 169.965 201.575 171.016 199.592C173.369 195.344 177.024 192.68 179.437 192.192C179.925 192.101 180.42 192.056 180.917 192.059C183.67 192.059 185.475 193.539 185.771 194.945C185.872 195.478 185.778 196.03 185.507 196.5C185.235 196.97 184.804 197.327 184.291 197.505C180.401 199.431 176.771 201.843 173.487 204.683C172.749 205.479 171.763 206 170.69 206.163ZM180.917 193.539C180.529 193.543 180.143 193.583 179.762 193.657C177.72 194.027 174.39 196.617 172.362 200.273C171.466 201.594 170.922 203.122 170.779 204.713C171.419 204.477 171.996 204.097 172.466 203.603C175.865 200.67 179.625 198.183 183.655 196.203C184.173 195.981 184.395 195.67 184.321 195.315C184.173 194.545 182.9 193.539 180.917 193.539Z" fill="black"/>
<path d="M202.427 193.538C205.106 188.714 209.516 183.874 211.781 184.496C214.045 185.117 215.066 188.195 213.734 189.113C212.402 190.031 211.366 187.47 206.956 190.46C203.078 193.065 202.22 194.352 202.427 193.538Z" fill="black"/>
<path d="M202.465 194.529H202.095L201.844 194.218C201.757 194.095 201.701 193.953 201.681 193.803C201.66 193.654 201.675 193.502 201.725 193.36V193.182C204.449 188.239 209.125 183.029 211.908 183.784C212.681 184.024 213.373 184.471 213.911 185.076C214.448 185.681 214.81 186.422 214.957 187.218C215.093 187.62 215.108 188.052 215.002 188.463C214.895 188.874 214.67 189.244 214.356 189.529C214.041 189.813 213.65 190 213.231 190.065C212.812 190.131 212.383 190.072 211.997 189.897C211.597 189.781 211.184 189.717 210.768 189.704C209.506 189.81 208.302 190.283 207.305 191.066C205.485 192.294 204.345 193.227 203.664 193.774C202.983 194.322 202.821 194.529 202.465 194.529ZM211.345 185.175C209.865 185.175 207.216 187.677 204.878 190.992C205.351 190.637 205.899 190.267 206.521 189.837C207.761 188.889 209.254 188.328 210.813 188.224C211.36 188.231 211.903 188.316 212.426 188.476C212.796 188.565 213.003 188.713 213.284 188.476C213.565 188.239 213.625 187.928 213.536 187.44C213.428 186.93 213.189 186.458 212.84 186.071C212.492 185.684 212.048 185.395 211.553 185.235L211.345 185.175Z" fill="black"/>
<path d="M194.414 234.076C192.143 234.025 189.969 233.146 188.301 231.604C186.458 230.003 184.905 228.096 183.713 225.965C183.663 225.882 183.63 225.79 183.617 225.693C183.603 225.597 183.609 225.499 183.634 225.406C183.658 225.312 183.702 225.224 183.761 225.147C183.821 225.07 183.895 225.006 183.98 224.959C184.151 224.861 184.354 224.834 184.545 224.884C184.735 224.934 184.899 225.056 185.001 225.225C186.105 227.203 187.542 228.975 189.248 230.464C190.096 231.283 191.125 231.891 192.251 232.238C193.377 232.585 194.569 232.662 195.731 232.462C196.811 232.25 197.826 231.783 198.691 231.101C198.763 231.032 198.848 230.978 198.942 230.942C199.035 230.907 199.135 230.891 199.234 230.895C199.334 230.899 199.432 230.924 199.522 230.967C199.612 231.01 199.693 231.071 199.759 231.146C199.825 231.221 199.875 231.308 199.906 231.403C199.938 231.498 199.949 231.598 199.941 231.698C199.932 231.797 199.904 231.894 199.857 231.982C199.81 232.07 199.745 232.148 199.668 232.211C198.626 233.063 197.391 233.648 196.071 233.913C195.525 234.019 194.97 234.073 194.414 234.076Z" fill="black"/>
<path d="M200.181 228.894C199.796 228.894 199.426 228.894 199.041 228.894C197.857 228.805 196.658 228.776 195.519 228.613C195.001 228.539 194.483 228.465 193.95 228.421C192.47 228.184 191.345 227.991 190.043 227.695L188.918 227.414C188.122 227.229 187.336 227.002 186.565 226.733C186.108 226.595 185.663 226.421 185.233 226.215C184.922 226.067 184.626 225.934 184.3 225.816C184.208 225.781 184.124 225.729 184.053 225.662C183.982 225.595 183.924 225.514 183.885 225.425C183.845 225.335 183.823 225.239 183.821 225.141C183.818 225.043 183.835 224.945 183.871 224.854C183.944 224.675 184.083 224.53 184.259 224.45C184.435 224.37 184.635 224.361 184.818 224.425C185.173 224.558 185.514 224.721 185.839 224.854C186.221 225.042 186.617 225.2 187.023 225.327C187.761 225.583 188.512 225.801 189.273 225.979L190.398 226.26C191.641 226.541 192.781 226.733 194.127 226.955L195.726 227.148C196.925 227.311 198.035 227.34 199.145 227.414C200.055 227.474 200.969 227.424 201.868 227.266L202.149 228.746C201.498 228.847 200.84 228.896 200.181 228.894Z" fill="black"/>
<path d="M196.962 203.999C197.786 202.743 198.974 201.767 200.366 201.202C201.846 200.595 203.074 201.35 204.332 202.09C204.499 202.166 204.688 202.176 204.863 202.121C205.037 202.065 205.185 201.946 205.277 201.788C205.369 201.629 205.399 201.442 205.361 201.263C205.324 201.084 205.221 200.925 205.072 200.817C204.358 200.264 203.526 199.882 202.641 199.7C201.756 199.517 200.841 199.54 199.966 199.767C198.19 200.425 196.68 201.653 195.675 203.259C195.142 204.044 196.415 204.739 196.962 203.999Z" fill="white"/>
<path d="M190.275 188.193C171.968 176.782 159.743 208.913 174.232 219.643C181.869 225.237 191.074 220.605 194.833 212.865C198.593 205.124 197.69 193.536 190.275 188.164C189.491 187.616 188.795 188.889 189.52 189.451C196.047 194.157 196.55 203.792 194.108 210.778C191.296 218.829 181.765 224.098 174.484 217.941C162.436 207.773 173.092 179.224 189.52 189.451C190.334 189.954 191.074 188.667 190.275 188.193Z" fill="white"/>
<path d="M156.201 218.193L170.483 213.975C170.58 213.949 170.671 213.904 170.751 213.842C170.83 213.781 170.897 213.704 170.947 213.617C170.997 213.53 171.03 213.434 171.043 213.334C171.056 213.234 171.049 213.133 171.023 213.035C170.997 212.938 170.951 212.847 170.89 212.767C170.829 212.688 170.752 212.621 170.665 212.571C170.577 212.521 170.481 212.488 170.381 212.475C170.282 212.462 170.18 212.469 170.083 212.495L155.801 216.698C155.704 216.725 155.613 216.77 155.533 216.831C155.453 216.893 155.387 216.969 155.336 217.056C155.286 217.144 155.254 217.24 155.241 217.34C155.228 217.44 155.235 217.541 155.261 217.638C155.287 217.735 155.332 217.826 155.394 217.906C155.455 217.986 155.532 218.053 155.619 218.103C155.706 218.153 155.802 218.186 155.902 218.199C156.002 218.211 156.103 218.205 156.201 218.178V218.193Z" fill="white"/>
<path d="M224.611 199.176C225.633 192.96 225.544 182.511 219.106 179.004C216.264 177.524 212.905 179.004 210.67 180.809C206.999 183.888 205.519 189.364 204.75 193.833C203.625 199.901 202.989 212.718 211.735 213.754C219.801 214.686 223.427 205.658 224.671 199.176C224.863 198.243 223.427 197.844 223.191 198.791C222.155 204.163 219.727 211.682 213.334 212.333C205.149 213.177 205.342 201.662 205.815 196.393C206.289 191.125 210.537 176.029 218.928 180.602C224.256 183.562 224.019 193.759 223.191 198.791C223.043 199.723 224.463 200.123 224.611 199.176Z" fill="white"/>
<path d="M221.909 558.667C223.596 555.974 220.71 551.815 219.245 550.246C214.893 545.643 210.365 541.618 201.914 541.203C198.806 541.055 191.835 542.447 188.757 541.751C183.799 540.626 181.771 505.861 181.771 505.861C162.043 508.54 140.953 511.618 140.953 511.618C140.953 511.618 152.068 556.27 155.057 559.289C158.787 563.048 162.827 564.543 167.534 563.403C173.036 562.068 178.617 561.08 184.243 560.443C188.964 559.966 193.732 560.527 198.214 562.086C200.197 562.752 200.464 564.439 204.238 563.048C205.718 562.486 209.521 564.632 211.09 564.143C212.153 563.574 213.146 562.884 214.05 562.086C214.509 561.405 219.082 563.255 221.909 558.667Z" fill="#315D80"/>
<path d="M93.0638 407.233L91.4062 417.105C91.4062 417.105 101.766 425.038 121.006 427.228C124.839 445.861 141.001 511.588 141.001 511.588C154.972 514.873 175.929 511.306 182.441 506.926C182.159 486.383 174.36 438.446 172.155 434.332C181.745 436.522 187.236 435.146 187.236 435.146C193.259 416.794 200.659 396.799 203.397 389.118C206.135 381.437 208.873 378.166 215.444 375.428C222.015 372.69 243.949 363.1 239.553 327.758C253.524 329.667 274.082 332.953 274.082 332.953L273.534 274.33C273.534 274.33 238.192 256.792 208.059 271.592C217.368 280.354 214.349 295.701 197.374 303.915C180.398 312.129 157.414 305.01 143.946 288.582C128.598 293.022 107.509 306.12 102.018 334.329C96.527 362.538 93.0638 407.233 93.0638 407.233Z" fill="#C06A87"/>
<path d="M92.3324 407.042L90.6896 416.899C90.656 417.057 90.6704 417.222 90.731 417.373C90.7917 417.523 90.8958 417.652 91.0301 417.742C93.5106 419.514 96.1813 421.004 98.9924 422.182C101.873 423.465 104.84 424.543 107.872 425.409C109.101 425.779 120.363 427.688 120.408 427.895C122.524 438.122 124.996 448.289 127.408 458.457C131.641 476.276 135.948 494.08 140.329 511.87C140.361 511.993 140.426 512.105 140.517 512.194C140.608 512.283 140.722 512.345 140.847 512.373C153.173 514.868 165.941 514.046 177.846 509.99C179.619 509.412 181.318 508.627 182.908 507.652C183.87 507.03 183.189 503.937 183.145 502.99C182.908 497.766 182.39 492.541 181.828 487.346C180.614 476.01 178.986 464.703 177.092 453.469C176.366 449.029 175.612 444.708 174.65 440.372C174.324 438.198 173.738 436.071 172.903 434.037L172.06 435.118C176.958 436.168 182.538 437.116 187.525 435.946C188.177 435.784 188.339 434.466 188.458 434.17C189.287 431.64 190.145 429.109 191.003 426.593C192.543 422.064 194.111 417.54 195.71 413.021C198.211 405.932 200.786 398.858 203.347 391.783C205.907 384.709 208.586 379.115 215.986 376.066C222.389 373.533 228.05 369.425 232.443 364.122C240.613 353.94 241.856 340.309 240.391 327.789L239.458 328.499C250.988 330.097 262.487 331.873 273.987 333.709C274.097 333.735 274.212 333.737 274.323 333.713C274.434 333.689 274.538 333.64 274.628 333.571C274.717 333.501 274.79 333.412 274.84 333.31C274.891 333.209 274.918 333.097 274.919 332.983C274.741 313.447 274.559 293.907 274.371 274.361C274.375 274.231 274.343 274.102 274.277 273.99C274.212 273.877 274.116 273.785 274.001 273.724C254.036 263.883 228.122 261.278 207.772 270.986C207.676 271.044 207.594 271.123 207.532 271.216C207.471 271.31 207.431 271.417 207.417 271.528C207.403 271.639 207.414 271.752 207.45 271.858C207.486 271.964 207.545 272.061 207.624 272.141C210.118 274.528 211.766 277.663 212.319 281.07C212.871 284.478 212.299 287.973 210.687 291.026C207.047 298.574 198.699 303.457 190.885 305.559C173.821 310.117 155.365 301.045 144.561 288.08C144.467 287.989 144.351 287.924 144.224 287.89C144.097 287.856 143.963 287.856 143.836 287.888C133.348 290.946 123.846 296.703 116.279 304.582C106.348 314.942 102.367 328.011 99.9988 341.863C96.3432 363.471 94.0788 385.39 92.3176 407.234C92.2288 408.196 93.7088 408.182 93.7976 407.234C94.582 397.304 95.5884 387.373 96.6836 377.472C97.6752 368.444 98.8 359.431 100.132 350.447C101.405 341.789 102.589 332.939 105.549 324.666C111.025 309.392 123.309 297.523 138.227 291.381C139.544 290.848 140.906 290.36 142.267 289.901C144.339 289.205 145.02 290.922 146.397 292.387C149.455 295.525 152.884 298.278 156.608 300.586C163.473 304.874 171.283 307.415 179.356 307.986C190.367 308.785 202.784 304.405 209.577 295.392C215.305 287.784 215.66 277.942 208.645 271.031L208.497 272.2C225.132 264.267 244.106 265.303 261.407 270.483C265.365 271.631 269.229 273.08 272.965 274.82C273.054 274.82 272.862 273.887 272.877 275.264C272.891 276.64 272.877 278.135 272.877 279.57C273.044 297.33 273.212 315.09 273.38 332.85L274.312 332.14C262.827 330.305 251.313 328.529 239.784 326.93C239.37 326.93 238.792 327.123 238.852 327.655C240.332 340.368 238.985 353.777 230.519 363.93C225.828 369.554 219.775 372.469 213.337 375.489C208.393 377.797 205.552 381.838 203.509 386.751C201.082 392.553 199.173 398.591 197.042 404.511C194.082 412.918 191.122 421.339 188.162 429.804C187.999 430.293 186.874 434.348 186.845 434.363C186.125 434.494 185.399 434.588 184.669 434.644C180.525 434.867 176.371 434.478 172.341 433.49C172.198 433.454 172.049 433.461 171.911 433.51C171.772 433.558 171.651 433.645 171.561 433.762C171.472 433.878 171.418 434.017 171.407 434.164C171.395 434.31 171.427 434.456 171.497 434.585C173.081 437.782 173.421 441.985 174.072 445.433C175.375 452.226 176.47 459.064 177.491 465.916C178.675 473.869 179.662 481.841 180.451 489.833C180.796 493.168 181.078 496.498 181.295 499.823C181.398 501.303 181.472 502.783 181.532 504.189C181.532 506.187 181.65 506.468 179.83 507.341C172.237 511.012 162.795 511.781 154.492 512.003C152.316 512.003 150.126 512.003 147.951 511.811C147.24 511.811 141.513 511.115 141.542 511.263C141.394 510.627 141.231 510.005 141.083 509.369C138.686 499.611 136.313 489.857 133.965 480.109C129.687 462.349 125.233 444.723 121.547 426.83C121.499 426.677 121.405 426.542 121.278 426.444C121.151 426.346 120.997 426.29 120.837 426.282C111.262 425.312 101.995 422.347 93.6348 417.58C93.0428 417.224 92.4508 416.84 91.8884 416.455C91.326 416.07 92.066 416.455 91.9624 417.017C92.0364 416.573 92.1104 416.129 92.1992 415.685C92.658 412.858 93.1316 410.046 93.6052 407.22C93.916 406.494 92.4952 406.095 92.3324 407.042Z" fill="white"/>
<path d="M121.002 427.954C120.83 427.957 120.664 427.899 120.531 427.791C120.398 427.682 120.308 427.53 120.276 427.362C115.718 404.91 110.775 383.303 108.229 374.822C108.178 374.634 108.202 374.433 108.296 374.262C108.39 374.091 108.546 373.963 108.733 373.905C108.826 373.877 108.924 373.869 109.02 373.879C109.117 373.89 109.21 373.919 109.296 373.966C109.381 374.013 109.456 374.076 109.517 374.152C109.578 374.228 109.623 374.315 109.65 374.408C112.211 382.918 117.168 404.57 121.727 427.081C121.746 427.176 121.746 427.274 121.726 427.37C121.707 427.465 121.668 427.555 121.613 427.635C121.558 427.716 121.487 427.784 121.405 427.836C121.323 427.888 121.231 427.923 121.135 427.939L121.002 427.954Z" fill="black"/>
<path d="M173.057 436.462C172.885 436.459 172.719 436.397 172.587 436.287C172.455 436.176 172.365 436.024 172.331 435.856C171.697 433.391 170.804 431 169.667 428.722C167.716 424.487 166.05 420.126 164.68 415.669C162.785 409.319 162.386 394.875 162.031 382.132C161.809 374.318 161.616 366.947 161.083 362.67C161.06 362.474 161.115 362.276 161.237 362.121C161.36 361.965 161.538 361.865 161.735 361.841C161.931 361.818 162.128 361.873 162.284 361.995C162.439 362.117 162.54 362.296 162.563 362.492C163.081 366.829 163.289 374.244 163.511 382.088C163.866 394.741 164.265 409.083 166.101 415.239C167.447 419.637 169.089 423.939 171.014 428.115C172.207 430.498 173.135 433.004 173.782 435.589C173.801 435.685 173.801 435.783 173.781 435.878C173.762 435.974 173.723 436.064 173.668 436.144C173.613 436.224 173.542 436.292 173.46 436.344C173.378 436.397 173.286 436.432 173.19 436.448L173.057 436.462Z" fill="black"/>
<path d="M239.905 329.621C239.722 329.619 239.546 329.55 239.41 329.427C239.273 329.305 239.187 329.137 239.165 328.955C239.165 328.881 238.336 320.963 237.522 315.561C237.496 315.367 237.547 315.171 237.663 315.014C237.779 314.857 237.951 314.75 238.144 314.717C238.24 314.703 238.338 314.707 238.433 314.73C238.527 314.754 238.616 314.796 238.695 314.853C238.773 314.911 238.839 314.984 238.889 315.067C238.94 315.15 238.973 315.243 238.987 315.339C239.801 320.771 240.63 328.659 240.645 328.807C240.661 329.001 240.601 329.194 240.476 329.343C240.351 329.493 240.173 329.587 239.979 329.606L239.905 329.621Z" fill="black"/>
<path d="M112.499 547.699C112.308 547.699 112.124 547.625 111.986 547.493C111.848 547.36 111.767 547.18 111.759 546.988L110.797 528.222C110.794 528.125 110.809 528.028 110.842 527.937C110.876 527.845 110.927 527.762 110.993 527.69C111.059 527.619 111.139 527.561 111.227 527.52C111.315 527.479 111.411 527.456 111.508 527.453C111.604 527.447 111.701 527.46 111.792 527.492C111.883 527.524 111.967 527.574 112.039 527.638C112.111 527.703 112.169 527.782 112.21 527.869C112.251 527.957 112.274 528.052 112.277 528.148L113.239 546.914C113.248 547.112 113.178 547.305 113.045 547.452C112.912 547.599 112.727 547.687 112.529 547.699H112.499Z" fill="black"/>
<path d="M111.962 535.651C111.792 535.651 111.626 535.592 111.494 535.484C111.362 535.377 111.271 535.226 111.237 535.059C111.216 534.965 111.213 534.867 111.23 534.772C111.246 534.676 111.282 534.585 111.334 534.504C111.387 534.423 111.455 534.353 111.535 534.298C111.615 534.243 111.705 534.205 111.8 534.186L124.261 531.433C124.455 531.394 124.657 531.432 124.823 531.54C124.989 531.648 125.106 531.817 125.149 532.01C125.171 532.105 125.173 532.202 125.157 532.298C125.14 532.393 125.104 532.484 125.052 532.566C125 532.647 124.931 532.717 124.852 532.772C124.772 532.826 124.682 532.864 124.587 532.884L112.11 535.622L111.962 535.651Z" fill="black"/>
<path d="M204.688 563.311C204.59 563.325 204.491 563.321 204.396 563.297C204.301 563.273 204.211 563.231 204.132 563.172C203.972 563.054 203.866 562.878 203.837 562.682C203.807 562.485 203.857 562.286 203.975 562.126C204.093 561.966 204.269 561.86 204.466 561.831C204.643 561.831 204.688 561.712 204.717 561.638C204.701 560.531 204.333 559.458 203.666 558.575C200.943 555.097 197.013 552.768 192.655 552.048C190.811 551.737 188.932 551.692 187.076 551.915C186.187 552.025 185.307 552.193 184.441 552.418L183.05 552.729C182.953 552.747 182.853 552.746 182.756 552.726C182.659 552.706 182.567 552.667 182.486 552.611C182.404 552.556 182.334 552.485 182.28 552.402C182.225 552.319 182.188 552.227 182.169 552.129C182.151 552.032 182.152 551.932 182.172 551.835C182.192 551.739 182.231 551.647 182.287 551.565C182.342 551.483 182.414 551.413 182.496 551.359C182.579 551.305 182.672 551.267 182.769 551.249L184.101 550.953C185.037 550.723 185.986 550.545 186.942 550.42C188.913 550.194 190.906 550.244 192.862 550.568C197.602 551.373 201.868 553.923 204.821 557.716C205.028 558.012 206.626 560.499 206.049 562.156C205.958 562.428 205.801 562.674 205.592 562.87C205.382 563.066 205.128 563.208 204.85 563.281C204.798 563.299 204.743 563.309 204.688 563.311Z" fill="black"/>
<path d="M212.648 563.458C212.51 563.455 212.375 563.415 212.258 563.342C212.141 563.269 212.045 563.166 211.982 563.044C211.939 562.957 211.913 562.862 211.907 562.764C211.901 562.667 211.914 562.57 211.946 562.478C211.977 562.385 212.027 562.3 212.092 562.227C212.156 562.155 212.234 562.095 212.322 562.052C213.417 561.505 213.802 560.972 213.965 560.158C214.243 559.146 214.212 558.074 213.876 557.08C213.21 554.712 211.005 552.64 209.436 551.16C207.481 549.524 205.237 548.269 202.82 547.46C200.635 546.615 198.257 546.395 195.953 546.823C194.915 546.906 193.883 547.044 192.86 547.238C191.839 547.4 190.773 547.578 189.708 547.652C189.61 547.66 189.512 547.648 189.419 547.617C189.326 547.586 189.24 547.537 189.167 547.472C189.093 547.407 189.034 547.328 188.992 547.239C188.95 547.151 188.927 547.054 188.923 546.956C188.917 546.859 188.931 546.762 188.962 546.67C188.994 546.578 189.044 546.493 189.108 546.42C189.173 546.347 189.251 546.288 189.339 546.245C189.426 546.203 189.522 546.178 189.619 546.172C190.612 546.089 191.6 545.955 192.579 545.772C193.626 545.574 194.683 545.436 195.746 545.358C198.29 544.887 200.915 545.139 203.324 546.083C205.913 546.96 208.317 548.31 210.413 550.064C212.144 551.663 214.527 553.853 215.282 556.576C215.707 557.802 215.753 559.127 215.415 560.38C215.31 561.047 215.028 561.673 214.598 562.194C214.169 562.714 213.608 563.11 212.973 563.34C212.878 563.409 212.765 563.45 212.648 563.458Z" fill="black"/>
<path d="M337.024 214.909L333.324 200.109C333.324 200.109 342.914 175.186 348.124 174.357C353.333 173.529 359.357 170.243 357.433 160.934C355.509 151.625 350.862 153.815 350.862 153.815C346.2 145.868 342.1 146.415 339.362 147.792C331.962 137.92 316.067 136.559 307.306 152.72C298.544 168.882 301.549 199.843 307.572 235.999C316.896 229.635 337.024 214.909 337.024 214.909Z" fill="#315D80"/>
<path d="M182.408 316.02C167.462 316.038 153.048 310.475 141.99 300.421C141.919 300.354 141.863 300.274 141.824 300.185C141.786 300.096 141.766 300 141.766 299.903C141.766 299.806 141.786 299.71 141.824 299.62C141.863 299.531 141.919 299.451 141.99 299.385C142.057 299.316 142.138 299.261 142.227 299.224C142.316 299.186 142.411 299.167 142.508 299.167C142.604 299.167 142.7 299.186 142.789 299.224C142.878 299.261 142.958 299.316 143.026 299.385C148.846 304.671 155.67 308.731 163.092 311.325C170.514 313.918 178.381 314.991 186.227 314.481C196.735 313.785 206.266 310.144 210.484 305.201C215.11 299.212 217.744 291.925 218.017 284.363C218.035 284.17 218.124 283.991 218.266 283.86C218.408 283.729 218.593 283.655 218.787 283.652C218.884 283.656 218.979 283.679 219.068 283.72C219.156 283.761 219.235 283.818 219.301 283.89C219.367 283.961 219.419 284.045 219.452 284.136C219.486 284.228 219.501 284.325 219.497 284.422C219.218 292.306 216.435 299.895 211.549 306.089C207.109 311.328 197.134 315.176 186.242 315.901C185.102 315.975 183.814 316.02 182.408 316.02Z" fill="black"/>
<path d="M315.662 193.063C310.319 191.095 309.535 186.507 313.901 182.866L337.507 163.197C341.873 159.556 346.239 161.169 347.215 166.764L352.454 197.074C353.416 202.683 349.85 205.658 344.507 203.704L315.662 193.063Z" fill="#F1D15B"/>
<path d="M339.933 163.835C340.199 168.734 343.055 169.829 345.098 168.601C344.284 174.047 349.182 175.143 350.559 173.914C351.935 172.686 350.144 156.761 340.613 157.989C339.793 159.822 339.555 161.863 339.933 163.835Z" fill="#315D80"/>
<path d="M330.462 141.029C318 137.551 306.353 147.363 302.682 165.952C300.995 174.432 301.454 185.873 302.564 197.032C304.616 197.229 306.653 197.56 308.661 198.023L309.416 183.505C312.894 184.526 328.212 186.568 330.462 178.192C332.711 169.815 322.692 167.18 313.664 170.436C314.685 165.996 316.935 158.389 322.647 156.347C328.36 154.305 331.853 169.016 338.38 165.33C344.906 161.645 342.923 144.492 330.462 141.029Z" fill="#315D80"/>
<path d="M317.697 185.235C314.839 185.255 311.989 184.912 309.217 184.213C309.031 184.155 308.874 184.027 308.78 183.856C308.687 183.685 308.663 183.484 308.714 183.296C308.741 183.203 308.786 183.115 308.847 183.04C308.908 182.964 308.983 182.901 309.068 182.854C309.154 182.807 309.247 182.778 309.344 182.767C309.44 182.757 309.538 182.765 309.631 182.793C312.221 183.547 321.471 184.835 326.518 181.964C327.303 181.563 327.996 181.003 328.554 180.32C329.112 179.638 329.522 178.847 329.759 177.997C330.127 176.983 330.192 175.884 329.948 174.834C329.704 173.783 329.16 172.826 328.383 172.077C325.541 169.487 319.621 169.117 313.968 171.16C313.844 171.209 313.709 171.223 313.579 171.199C313.448 171.176 313.326 171.116 313.228 171.027C313.126 170.939 313.05 170.825 313.009 170.697C312.967 170.569 312.961 170.432 312.991 170.301C314.871 162.073 317.964 157.278 322.463 155.679C325.63 154.54 328.042 157.544 330.381 160.46C333.267 164.026 335.354 166.246 338.077 164.722C338.849 164.225 339.51 163.575 340.02 162.811C340.529 162.047 340.875 161.186 341.037 160.282C341.861 155.919 340.925 151.406 338.432 147.732C338.325 147.568 338.287 147.37 338.325 147.178C338.364 146.987 338.477 146.819 338.639 146.71C338.802 146.606 338.998 146.567 339.188 146.603C339.378 146.639 339.547 146.746 339.66 146.903C341.009 148.892 341.951 151.128 342.434 153.482C342.916 155.837 342.929 158.263 342.472 160.622C342.269 161.721 341.84 162.765 341.214 163.689C340.587 164.614 339.776 165.399 338.832 165.995C334.806 168.259 331.861 164.603 329.256 161.362C327.154 158.743 325.171 156.286 322.981 157.056C319.236 158.402 316.543 162.413 314.782 169.339C320.539 167.608 326.414 168.229 329.404 170.967C330.39 171.893 331.086 173.085 331.407 174.399C331.728 175.713 331.659 177.092 331.21 178.367C330.928 179.408 330.432 180.379 329.754 181.217C329.077 182.055 328.231 182.743 327.273 183.237C324.294 184.679 321.005 185.365 317.697 185.235Z" fill="white"/>
<path d="M342.915 169.798C342.703 169.821 342.49 169.821 342.278 169.798C341.183 169.606 339.318 168.732 339.126 165.018C339.116 164.821 339.185 164.629 339.316 164.484C339.448 164.338 339.633 164.25 339.829 164.241C340.025 164.231 340.217 164.299 340.363 164.431C340.509 164.563 340.596 164.747 340.606 164.944C340.68 166.35 341.079 168.096 342.53 168.348C344.661 168.703 348.45 165.92 350.211 161.628C350.672 160.287 350.849 158.864 350.732 157.45C350.615 156.036 350.206 154.662 349.53 153.415C349.488 153.326 349.465 153.23 349.46 153.133C349.455 153.035 349.47 152.937 349.502 152.845C349.535 152.753 349.586 152.668 349.652 152.596C349.718 152.524 349.797 152.465 349.885 152.423C349.974 152.381 350.07 152.357 350.167 152.352C350.265 152.348 350.363 152.362 350.455 152.395C350.547 152.428 350.632 152.479 350.704 152.545C350.776 152.61 350.835 152.69 350.877 152.778C351.647 154.213 352.107 155.794 352.227 157.418C352.347 159.042 352.124 160.673 351.573 162.206C349.737 166.483 345.919 169.798 342.915 169.798Z" fill="black"/>
<path d="M348.81 175.024C347.806 175.044 346.829 174.702 346.057 174.062C344.666 172.878 344.162 170.821 344.651 168.261C344.667 168.165 344.702 168.073 344.754 167.991C344.806 167.909 344.874 167.838 344.954 167.782C345.034 167.727 345.125 167.689 345.22 167.669C345.315 167.65 345.414 167.649 345.509 167.669C345.702 167.708 345.872 167.821 345.983 167.985C346.094 168.148 346.136 168.348 346.101 168.542C345.841 169.296 345.789 170.106 345.95 170.888C346.112 171.669 346.481 172.392 347.019 172.982C347.495 173.326 348.054 173.538 348.64 173.595C349.225 173.653 349.815 173.553 350.349 173.307C350.531 173.24 350.733 173.247 350.91 173.327C351.088 173.408 351.226 173.555 351.296 173.736C351.359 173.923 351.348 174.127 351.266 174.306C351.183 174.485 351.035 174.626 350.852 174.699C350.195 174.923 349.504 175.033 348.81 175.024Z" fill="black"/>
<path d="M534.09 253.587L420.706 188.134C409.421 181.607 390.938 181.607 379.638 188.134L266.268 253.587C254.968 260.114 245.727 276.127 245.727 289.165V420.087C245.727 433.126 254.968 449.139 266.268 455.666L379.638 521.119C390.938 527.646 409.421 527.646 420.706 521.119L534.09 455.666C545.391 449.139 554.632 433.126 554.632 420.087V289.165C554.632 276.127 545.345 260.114 534.09 253.587Z" fill="#DCE7FA"/>
<path d="M479.462 329.287C479.463 315.441 475.748 301.847 468.705 289.926C461.661 278.005 451.547 268.192 439.418 261.513C427.289 254.833 413.589 251.531 399.749 251.952C385.909 252.372 372.435 256.5 360.733 263.903C349.032 271.307 339.532 281.715 333.225 294.042C326.919 306.369 324.036 320.163 324.878 333.984C325.719 347.805 330.255 361.147 338.012 372.617C345.769 384.087 356.461 393.265 368.975 399.194C377.423 404.333 377.439 410.997 377.073 422.893C376.768 432.927 376.097 440.994 380.702 445.234C384.393 449.275 392.582 452.096 402.052 452.096C411.523 452.096 419.758 449.275 423.402 445.234C427.977 440.994 427.337 432.927 427.032 422.893C426.666 410.997 426.681 404.333 435.13 399.194C448.384 392.94 459.588 383.048 467.437 370.672C475.285 358.295 479.456 343.943 479.462 329.287Z" fill="#F1D15B"/>
<path d="M480.218 329.288C480.082 312.948 474.888 297.053 465.349 283.786C455.81 270.52 442.395 260.534 426.95 255.203C395.077 244.268 359.301 256.209 339.247 282.897C318.232 310.896 319.544 350.47 340.894 377.813C346.29 384.607 352.772 390.46 360.078 395.138C363.769 397.532 368.1 399.087 371.455 401.954C374.81 404.821 375.938 408.985 376.289 413.224C377.052 422.176 374.764 431.524 376.991 440.293C378.775 447.415 386.491 450.526 392.942 451.944C403.816 454.354 423.183 453.21 427.224 440.293C431.266 427.376 421.124 406.85 436.603 399.377C463.23 386.506 480.005 358.644 480.218 329.227C480.218 329.024 480.138 328.83 479.995 328.687C479.852 328.544 479.658 328.464 479.456 328.464C479.254 328.464 479.06 328.544 478.917 328.687C478.774 328.83 478.693 329.024 478.693 329.227C478.687 343.551 474.668 357.587 467.091 369.743C459.514 381.9 448.683 391.69 435.825 398.005C429.649 401.055 426.95 406.484 426.386 413.163C425.608 422.313 428.932 433.461 424.861 442.138C420.53 451.288 405.219 451.837 396.816 450.999C391.618 450.647 386.624 448.84 382.404 445.783C378.363 442.596 377.753 437.761 377.601 432.942C377.341 424.479 379.324 415.359 376.686 407.124C374.368 399.819 366.712 397.501 360.826 393.796C348.779 386.088 339.129 375.163 332.968 362.256C326.807 349.35 324.381 334.977 325.964 320.763C329.685 284.3 360.551 255.569 396.74 252.854C407.222 252.122 417.743 253.554 427.648 257.062C437.554 260.57 446.631 266.078 454.317 273.245C462.002 280.411 468.131 289.082 472.322 298.718C476.513 308.354 478.677 318.749 478.678 329.257C478.674 329.461 478.751 329.659 478.893 329.806C479.035 329.953 479.229 330.038 479.433 330.042C479.637 330.047 479.835 329.969 479.982 329.828C480.129 329.686 480.214 329.492 480.218 329.288Z" fill="#F1D15B"/>
<path d="M427.253 412.078C410.677 415.74 393.502 415.74 376.927 412.078C377.204 415.676 377.245 419.288 377.049 422.89C376.744 432.925 376.073 440.992 380.679 445.232C384.369 449.273 392.559 452.094 402.029 452.094C411.499 452.094 419.734 449.273 423.379 445.232C427.954 440.992 427.314 432.925 427.009 422.89C426.861 419.285 426.942 415.673 427.253 412.078Z" fill="#000001"/>
<path d="M427.063 411.319C410.621 414.887 393.606 414.887 377.164 411.319C377.051 411.289 376.932 411.285 376.817 411.307C376.702 411.33 376.593 411.378 376.499 411.449C376.405 411.519 376.329 411.61 376.275 411.714C376.221 411.818 376.191 411.933 376.188 412.051C377.073 421.918 373.672 433.645 378.018 442.917C381.877 451.106 394.306 452.707 402.114 452.829C410.44 452.936 421.695 450.832 426.193 442.917C428.237 439.333 428.13 434.575 428.115 430.595C428.115 424.419 427.474 418.227 428.023 412.051C428.115 411.075 426.575 411.09 426.498 412.051C425.675 421.201 428.023 430.869 425.751 439.852C423.372 449.352 410.135 451.182 402.114 451.304C393.665 451.411 381.373 449.139 378.461 439.852C377.18 435.765 377.576 431.068 377.698 426.859C377.996 421.927 377.996 416.982 377.698 412.051L376.737 412.798C393.446 416.412 410.735 416.412 427.444 412.798C428.42 412.615 428.008 411.151 427.063 411.319Z" fill="#000001"/>
<path d="M393.074 417.281C392.67 417.281 392.282 417.121 391.996 416.835C391.71 416.549 391.549 416.161 391.549 415.756C392.022 401.818 389.902 383.274 384.641 368.481C383.007 368.68 381.36 368.757 379.715 368.71C364.846 368.268 356.337 360.46 353.561 353.887C351.823 349.754 352.143 345.804 354.43 343.318C355.879 341.793 359.448 339.43 366.905 341.793C375.948 344.737 382.308 353.826 386.639 365.004C391.857 363.859 396.647 361.264 400.455 357.516C392.286 349.327 387.403 338.427 386.73 326.879C386.273 314.206 393.181 308.579 399.815 307.618C403.313 307.01 406.913 307.71 409.928 309.586C412.943 311.462 415.163 314.382 416.163 317.79C418.618 326.864 415.156 344.31 406.082 355.823C405.655 356.357 405.228 356.876 404.801 357.348C406.289 358.609 407.898 359.717 409.605 360.658C411.362 361.649 413.23 362.427 415.172 362.976C420.738 346.201 428.897 338.987 433.472 336.075C435.336 334.784 437.514 334.02 439.776 333.861C442.038 333.703 444.301 334.157 446.327 335.175C447.943 336.033 449.297 337.313 450.245 338.878C451.192 340.443 451.699 342.236 451.711 344.066C451.711 347.787 449.926 355.152 437.071 362.564C431.203 366.208 424.226 367.636 417.398 366.59C414.089 377.631 411.862 392.683 412.411 413.133C412.411 413.538 412.251 413.926 411.965 414.212C411.679 414.498 411.291 414.658 410.886 414.658C410.482 414.658 410.094 414.498 409.808 414.212C409.522 413.926 409.361 413.538 409.361 413.133C408.812 392.5 410.993 377.158 414.333 365.858C412.207 365.243 410.16 364.383 408.233 363.296C406.304 362.227 404.486 360.97 402.804 359.544C398.671 363.664 393.468 366.543 387.782 367.856C393.41 384.112 395.087 403.861 394.691 415.711C394.697 415.923 394.66 416.134 394.58 416.33C394.501 416.527 394.381 416.705 394.229 416.853C394.077 417.001 393.896 417.115 393.697 417.189C393.498 417.263 393.286 417.294 393.074 417.281ZM360.957 343.822C360.176 343.76 359.39 343.864 358.652 344.126C357.913 344.389 357.239 344.805 356.672 345.347C355.223 346.872 355.147 349.662 356.367 352.651C358.792 358.386 366.371 365.218 379.791 365.614C381.038 365.651 382.286 365.61 383.528 365.492C379.395 355.198 373.615 347.192 365.959 344.706C364.348 344.154 362.661 343.856 360.957 343.822ZM418.283 363.647C424.286 364.438 430.38 363.146 435.546 359.987C443.964 355.137 448.737 349.312 448.661 344.172C448.664 342.884 448.313 341.619 447.646 340.516C446.979 339.413 446.022 338.515 444.879 337.92C443.331 337.163 441.607 336.838 439.89 336.977C438.172 337.117 436.524 337.716 435.119 338.713C431.672 340.863 423.818 347.375 418.283 363.708V363.647ZM401.995 310.546C401.404 310.547 400.813 310.588 400.226 310.668C394.889 311.476 389.338 316.143 389.734 326.818C390.343 337.575 394.879 347.733 402.483 355.366C402.895 354.893 403.276 354.436 403.642 353.978C412.914 342.205 415.141 325.888 413.174 318.629C412.467 316.235 410.986 314.143 408.963 312.681C406.941 311.218 404.49 310.467 401.995 310.546Z" fill="#000001"/>
<path d="M401.318 424.814C394.47 424.9 387.645 424.007 381.051 422.16C380.859 422.101 380.699 421.968 380.605 421.791C380.511 421.614 380.49 421.407 380.547 421.215C380.574 421.118 380.619 421.027 380.681 420.948C380.744 420.868 380.821 420.803 380.91 420.754C380.998 420.706 381.095 420.676 381.195 420.666C381.296 420.656 381.397 420.666 381.493 420.696C394.776 424.6 408.76 423.319 420.823 421.81C421.025 421.783 421.229 421.839 421.391 421.963C421.553 422.087 421.658 422.271 421.684 422.473C421.711 422.675 421.656 422.88 421.531 423.041C421.407 423.203 421.223 423.308 421.021 423.335C414.49 424.231 407.91 424.725 401.318 424.814Z" fill="black"/>
<path d="M284.825 401.754C280.25 405.353 275.782 403.569 274.973 397.789L270.551 366.541C269.727 360.762 273.479 357.818 278.908 359.999L308.173 371.787C313.587 373.968 314.273 378.696 309.698 382.295L284.825 401.754Z" fill="#F1D15B"/>
<path d="M387.939 497.331C387.04 497.346 386.148 497.159 385.332 496.782C384.051 496.202 381.931 494.54 382.022 490.179C382.114 486.092 384.6 482.553 389.007 480.22C389.754 479.832 390.523 479.486 391.31 479.183C388.243 476.505 384.402 474.876 380.345 474.532C377.84 474.209 375.296 474.683 373.076 475.888C370.856 477.092 369.072 478.966 367.977 481.242C367.932 481.332 367.87 481.412 367.793 481.478C367.717 481.544 367.629 481.595 367.533 481.627C367.438 481.659 367.337 481.671 367.236 481.664C367.136 481.657 367.038 481.63 366.948 481.585C366.857 481.54 366.777 481.478 366.711 481.402C366.645 481.325 366.595 481.237 366.563 481.141C366.531 481.046 366.518 480.945 366.525 480.844C366.533 480.744 366.559 480.646 366.604 480.556C367.84 478.009 369.84 475.913 372.325 474.559C374.811 473.205 377.658 472.663 380.467 473.007C385.138 473.423 389.532 475.4 392.941 478.619C400.566 476.286 410.342 477.353 416.777 481.547C416.861 481.602 416.934 481.673 416.99 481.756C417.047 481.839 417.087 481.933 417.107 482.031C417.128 482.13 417.129 482.231 417.11 482.33C417.091 482.429 417.053 482.523 416.998 482.607C416.943 482.691 416.872 482.763 416.789 482.82C416.706 482.877 416.613 482.916 416.514 482.937C416.416 482.957 416.314 482.958 416.216 482.94C416.117 482.921 416.023 482.883 415.938 482.828C410.052 478.985 401.253 477.933 394.116 479.87C395.378 481.305 396.338 482.98 396.937 484.795C397.521 486.56 397.562 488.459 397.057 490.247C396.551 492.036 395.521 493.632 394.1 494.83C392.412 496.374 390.226 497.261 387.939 497.331ZM392.514 480.357C391.55 480.693 390.612 481.101 389.708 481.578C386.948 483.026 383.608 485.71 383.608 490.209C383.608 492.847 384.386 494.647 386.033 495.409C388.016 496.34 390.944 495.623 393.155 493.686C394.354 492.683 395.223 491.342 395.65 489.838C396.077 488.334 396.042 486.736 395.549 485.253C394.917 483.418 393.886 481.746 392.53 480.357H392.514Z" fill="#F27481"/>
<path d="M509.874 418.06C509.874 421.679 508.8 425.217 506.79 428.227C504.779 431.236 501.921 433.582 498.577 434.967C495.233 436.352 491.553 436.714 488.003 436.008C484.454 435.302 481.193 433.559 478.633 431C476.074 428.441 474.331 425.18 473.625 421.63C472.919 418.08 473.281 414.401 474.666 411.057C476.052 407.713 478.397 404.855 481.407 402.844C484.416 400.833 487.954 399.76 491.574 399.76C496.427 399.76 501.082 401.688 504.514 405.12C507.946 408.552 509.874 413.206 509.874 418.06Z" fill="#F1D15B"/>
<path d="M511.331 282.641C510.624 283.57 509.741 284.351 508.732 284.939C507.723 285.527 506.609 285.911 505.452 286.068C504.295 286.225 503.118 286.153 501.989 285.855C500.86 285.558 499.801 285.041 498.871 284.334L485.055 273.826C484.125 273.12 483.345 272.237 482.757 271.228C482.169 270.219 481.785 269.104 481.628 267.947C481.471 266.79 481.543 265.614 481.84 264.485C482.138 263.356 482.655 262.296 483.362 261.367C484.069 260.438 484.952 259.657 485.961 259.069C486.969 258.481 488.084 258.098 489.241 257.94C490.398 257.783 491.575 257.855 492.704 258.153C493.833 258.45 494.892 258.967 495.821 259.674L509.638 270.182C510.567 270.889 511.348 271.772 511.936 272.78C512.524 273.789 512.908 274.904 513.065 276.061C513.222 277.218 513.15 278.394 512.852 279.523C512.555 280.652 512.038 281.712 511.331 282.641Z" fill="#EA4B62"/>
<path d="M319.789 427.653C322.034 426.932 324.473 427.131 326.571 428.206C328.669 429.281 330.256 431.144 330.983 433.387L336.305 449.918C337.025 452.162 336.826 454.601 335.751 456.7C334.676 458.798 332.813 460.384 330.571 461.111C329.459 461.47 328.288 461.606 327.124 461.512C325.96 461.418 324.825 461.096 323.786 460.563C322.746 460.031 321.822 459.299 321.066 458.409C320.309 457.519 319.735 456.489 319.377 455.377L314.055 438.846C313.696 437.735 313.56 436.563 313.654 435.399C313.748 434.235 314.07 433.101 314.603 432.061C315.135 431.022 315.867 430.097 316.757 429.341C317.647 428.585 318.677 428.011 319.789 427.653Z" fill="#EA4B62"/>
<path d="M295.465 300.33C292.925 300.333 290.441 299.582 288.327 298.173C286.214 296.764 284.565 294.759 283.591 292.413C282.617 290.067 282.361 287.485 282.854 284.993C283.348 282.501 284.57 280.212 286.365 278.415C288.16 276.617 290.448 275.393 292.939 274.896C295.43 274.4 298.013 274.653 300.36 275.624C302.708 276.596 304.714 278.242 306.125 280.354C307.537 282.466 308.291 284.949 308.291 287.489C308.286 290.891 306.934 294.152 304.531 296.559C302.127 298.966 298.867 300.322 295.465 300.33ZM295.465 276.189C293.226 276.186 291.036 276.847 289.173 278.089C287.31 279.332 285.857 281.099 284.999 283.167C284.14 285.235 283.915 287.512 284.351 289.708C284.787 291.904 285.865 293.922 287.449 295.506C289.032 297.089 291.05 298.167 293.246 298.603C295.443 299.039 297.719 298.814 299.787 297.956C301.856 297.097 303.623 295.644 304.865 293.781C306.107 291.918 306.769 289.728 306.765 287.489C306.761 284.493 305.57 281.621 303.451 279.503C301.333 277.385 298.461 276.193 295.465 276.189Z" fill="#F1D15B"/>
<path d="M363.619 241.358C360.776 241.302 357.953 240.855 355.232 240.031C355.037 239.974 354.872 239.843 354.772 239.667C354.673 239.49 354.646 239.282 354.698 239.086C354.726 238.989 354.772 238.9 354.835 238.822C354.898 238.744 354.975 238.679 355.063 238.63C355.151 238.582 355.247 238.552 355.347 238.541C355.446 238.53 355.547 238.539 355.643 238.567C363.68 240.855 369.155 240.092 374.553 236.005C376.218 234.721 377.792 233.325 379.266 231.827C376.559 230.504 374.296 228.421 372.754 225.833C371.744 224.113 371.121 222.193 370.929 220.207C370.736 218.221 370.979 216.217 371.641 214.335C372.072 213.205 372.772 212.198 373.681 211.401C374.59 210.603 375.68 210.04 376.856 209.76C380.592 209.287 385.213 211.086 386.647 214.884C389.468 220.541 385.808 226.748 381.919 231.186C383.768 231.71 385.708 231.83 387.607 231.537C390.637 231.089 393.468 229.76 395.749 227.716C398.029 225.671 399.658 223.001 400.433 220.038C400.486 219.845 400.614 219.68 400.788 219.58C400.962 219.48 401.169 219.453 401.363 219.504C401.46 219.529 401.552 219.573 401.632 219.633C401.712 219.694 401.78 219.769 401.831 219.856C401.882 219.942 401.915 220.038 401.929 220.137C401.943 220.236 401.937 220.338 401.912 220.435C401.057 223.686 399.266 226.615 396.761 228.857C394.256 231.1 391.147 232.556 387.821 233.047C385.458 233.412 383.041 233.202 380.775 232.436C379.128 234.162 377.354 235.763 375.468 237.225C372.109 239.92 367.926 241.379 363.619 241.358ZM378.061 211.193C377.751 211.177 377.441 211.177 377.131 211.193C376.203 211.422 375.347 211.875 374.637 212.513C373.926 213.152 373.385 213.955 373.059 214.853C372.486 216.513 372.277 218.277 372.449 220.024C372.62 221.772 373.166 223.462 374.05 224.979C375.524 227.454 377.73 229.409 380.364 230.576C384.451 226.001 387.653 220.252 385.244 215.433C384.191 212.688 380.897 211.193 378.061 211.193Z" fill="#EA4B62"/>
<defs>
<filter id="filter0_i_4155_44914" x="0" y="0" width="592" height="570" filterUnits="userSpaceOnUse" color-interpolation-filters="sRGB">
<feFlood flood-opacity="0" result="BackgroundImageFix"/>
<feBlend mode="normal" in="SourceGraphic" in2="BackgroundImageFix" result="shape"/>
<feColorMatrix in="SourceAlpha" type="matrix" values="0 0 0 0 0 0 0 0 0 0 0 0 0 0 0 0 0 0 127 0" result="hardAlpha"/>
<feOffset dx="4" dy="5"/>
<feGaussianBlur stdDeviation="2.5"/>
<feComposite in2="hardAlpha" operator="arithmetic" k2="-1" k3="1"/>
<feColorMatrix type="matrix" values="0 0 0 0 0.816667 0 0 0 0 0.885259 0 0 0 0 1 0 0 0 0.1 0"/>
<feBlend mode="normal" in2="shape" result="effect1_innerShadow_4155_44914"/>
</filter>
<linearGradient id="paint0_linear_4155_44914" x1="385.099" y1="-335.17" x2="385.099" y2="619.785" gradientUnits="userSpaceOnUse">
<stop offset="0.224084" stop-color="#AACAFF"/>
<stop offset="0.699839" stop-color="#94A5C2"/>
<stop offset="0.990578" stop-color="#94A5C2" stop-opacity="0.25"/>
</linearGradient>
</defs>
</svg>
