<svg width="18" height="13" viewBox="0 0 18 13" fill="none" xmlns="http://www.w3.org/2000/svg">
<path d="M8.82152 1C3.86602 1 1.46174 5.46521 1.03509 6.34914C1.01201 6.39608 1 6.44769 1 6.5C1 6.55231 1.01201 6.60392 1.03509 6.65086C1.46095 7.53479 3.86524 12 8.82152 12C13.7778 12 16.1813 7.53479 16.608 6.65086C16.631 6.60392 16.643 6.55231 16.643 6.5C16.643 6.44769 16.631 6.39608 16.608 6.34914C16.1821 5.46521 13.7778 1 8.82152 1Z" stroke="#315D80" stroke-width="1.5" stroke-linecap="round" stroke-linejoin="round"/>
<path d="M8.82199 8.85686C10.1238 8.85686 11.1791 7.80154 11.1791 6.49972C11.1791 5.19791 10.1238 4.14258 8.82199 4.14258C7.52017 4.14258 6.46484 5.19791 6.46484 6.49972C6.46484 7.80154 7.52017 8.85686 8.82199 8.85686Z" stroke="#315D80" stroke-width="1.5" stroke-linecap="round" stroke-linejoin="round"/>
</svg>
