<svg xmlns="http://www.w3.org/2000/svg" width="67.256" height="24.153" viewBox="0 0 67.256 24.153"><defs><style>.a{fill:#aaa;}.b{fill:#ffca00;}</style></defs><g transform="translate(-445 -6738)"><g transform="translate(-1163.311 4256.371)"><path class="a" d="M1617.463,2502.828a10.074,10.074,0,0,0,8.169-.218.771.771,0,0,1,.887.037c.32.278-.1.484-.161.729a2.18,2.18,0,0,1-1.641,1.581,13.693,13.693,0,0,1-10.1-.31,10.225,10.225,0,0,1-5.987-8.01,14.338,14.338,0,0,1,.65-8.278c1.868-4.4,5.468-6.316,10.032-6.684a21.4,21.4,0,0,1,6.555.689c.644.149.846.418.751,1.074-.2,1.387-.353,2.783-.471,4.18-.042.491-.257.594-.682.6-.456,0-.8-.062-.776-.634a6.519,6.519,0,0,0-.046-.841c-.2-2.134-1.035-2.957-3.241-3.183-4.146-.425-7.1,1.858-7.953,6.295a16.657,16.657,0,0,0,.764,9.227c.5,1.315,1.554,2.2,2.293,3.324A2.155,2.155,0,0,0,1617.463,2502.828Z" transform="translate(0)"/><path class="a" d="M1951.481,2481.778a26.409,26.409,0,0,1,4.668.727c.59.136.778.4.694,1-.194,1.389-.359,2.783-.47,4.181-.043.546-.271.654-.749.657-.514,0-.736-.195-.717-.7a6.293,6.293,0,0,0-.038-.721c-.178-2.293-.823-2.954-3.154-3.229a6.754,6.754,0,0,0-7.767,5.245,15.559,15.559,0,0,0,.823,10.917c1.2,2.57,3.38,3.657,6.091,3.827a9.718,9.718,0,0,0,4.917-.9c.3-.146.593-.27.893-.045.421.315-.038.573-.106.829a2.064,2.064,0,0,1-1.457,1.456,13.4,13.4,0,0,1-11.079-.642,9.539,9.539,0,0,1-4.517-5.252,15.689,15.689,0,0,1-.649-8.53C1940.005,2485.05,1944.457,2481.756,1951.481,2481.778Z" transform="translate(-281.295 -0.128)"/><path class="a" d="M1749.122,2505.612c.556-.032,1.032-.04.995.774-.039.876-.592.515-1.017.515-2.085,0-4.17,0-6.254-.009-.378,0-.92.381-1.03-.376-.083-.568.084-.873.732-.95a1.219,1.219,0,0,0,1.128-1.319c.008-.44.069-.879.07-1.319q.008-7.458,0-14.917a14.148,14.148,0,0,0-.128-1.8c-.094-.72-.372-1.327-1.23-1.365-.571-.025-.733-.308-.717-.853.02-.669.469-.535.843-.511a48.309,48.309,0,0,0,6.731.005c.354-.027.844-.21.865.476.015.5-.051.912-.671.87-.876-.06-1.094.5-1.166,1.19a16.328,16.328,0,0,0-.087,1.678q-.01,7.7-.007,15.4a7.326,7.326,0,0,0,.226,2.021C1748.571,2505.393,1748.677,2505.753,1749.122,2505.612Z" transform="translate(-113.593 -1.551)"/><path class="a" d="M1896.085,2629.479a4.172,4.172,0,0,1,2.324-1.37A4.909,4.909,0,0,1,1896.085,2629.479Z" transform="translate(-245.128 -124.773)"/><path class="a" d="M1890.315,2551.423c-.295.271-.578.3-.676-.144-.058-.262-.1-.711.441-.39C1889.647,2551.293,1890.107,2551.3,1890.315,2551.423Z" transform="translate(-239.609 -58.902)"/><path class="a" d="M1664.529,2622.188c-.481.222-.729-.084-.964-.424A1.1,1.1,0,0,1,1664.529,2622.188Z" transform="translate(-47.066 -119.36)"/><path class="a" d="M1787.822,2630.208c-.582.343-.743.063-.72-.487Z" transform="translate(-152.293 -126.146)"/><path class="a" d="M1916.574,2564.919a.954.954,0,0,1-.814-.768A1.582,1.582,0,0,1,1916.574,2564.919Z" transform="translate(-261.887 -70.293)"/><path class="a" d="M1826.379,2496.159a3.983,3.983,0,0,1-.813-.769,6.092,6.092,0,0,0-3.167-1.337c-.234.128-.468.145-.556-.149-.067-.222-.06-.486.321-.384a5.011,5.011,0,0,0,2.307-1.186c2.321-1.586,2.764-5.421,1.052-7.208a5.315,5.315,0,0,0-4.041-1.7c-2.607-.024-5.216.108-7.824.137-1.042.012-2.085-.075-3.128-.115-.339-.013-.674,0-.639.475.022.3-.151.78.266.821,1.892.188,1.6,1.616,1.6,2.806.028,5.138.013,10.276.01,15.414,0,.441,0,.884-.046,1.322-.065.684-.316,1.264-1.116,1.285-.7.018-.766.424-.705.96.074.665.585.43.929.405a47.993,47.993,0,0,1,6.617.018,11.7,11.7,0,0,0,5.2-.721c.708-.569,1.572-.875,2.324-1.37.271-.295.538-.592.812-.884A6.188,6.188,0,0,0,1826.379,2496.159Zm-10.208-9.962a.807.807,0,0,1,.825-.932,5.391,5.391,0,0,1,4.188.855c.374.071.384.411.5.674a17.4,17.4,0,0,1,.387,1.871,4.292,4.292,0,0,1-5.394,4.541c-.456-.122-.541-.36-.537-.768Q1816.171,2489.319,1816.171,2486.2Zm6.292,16.11a4.852,4.852,0,0,1-5.863,2.886c-.405-.142-.459-.362-.458-.706,0-2.93.016-5.86-.01-8.79-.005-.614.256-.718.791-.732a10.268,10.268,0,0,1,3.548.525,1.868,1.868,0,0,1,1.227.939A6.756,6.756,0,0,1,1822.463,2502.307Z" transform="translate(-171.693 -1.533)"/><path class="a" d="M1882.617,2565.62l-1.227-.939C1882.138,2564.552,1882.489,2564.94,1882.617,2565.62Z" transform="translate(-232.611 -70.724)"/><path class="a" d="M1886.692,2502.13l-.5-.674C1886.846,2501.321,1886.731,2501.754,1886.692,2502.13Z" transform="translate(-236.702 -16.868)"/></g><g transform="translate(14786 16106)"><path class="a" d="M1896.085,2629.479a4.172,4.172,0,0,1,2.324-1.37A4.909,4.909,0,0,1,1896.085,2629.479Z" transform="translate(-16194.438 -11974.402)"/><path class="a" d="M1890.315,2551.423c-.295.271-.578.3-.676-.144-.058-.262-.1-.711.441-.39C1889.647,2551.293,1890.107,2551.3,1890.315,2551.423Z" transform="translate(-16188.92 -11908.531)"/><path class="a" d="M1664.529,2622.188c-.481.222-.729-.084-.964-.424A1.1,1.1,0,0,1,1664.529,2622.188Z" transform="translate(-15996.376 -11968.989)"/><path class="a" d="M1787.822,2630.208c-.582.343-.743.063-.72-.487Z" transform="translate(-16101.604 -11975.775)"/><path class="a" d="M1916.574,2564.919a.954.954,0,0,1-.814-.768A1.582,1.582,0,0,1,1916.574,2564.919Z" transform="translate(-16211.198 -11919.922)"/><path class="b" d="M1617.463,2502.828a10.074,10.074,0,0,0,8.169-.218.771.771,0,0,1,.887.037c.32.278-.1.484-.161.729a2.18,2.18,0,0,1-1.641,1.581,13.693,13.693,0,0,1-10.1-.31,10.225,10.225,0,0,1-5.987-8.01,14.338,14.338,0,0,1,.65-8.278c1.868-4.4,5.468-6.316,10.032-6.684a21.4,21.4,0,0,1,6.555.689c.644.149.846.418.751,1.074-.2,1.387-.353,2.783-.471,4.18-.042.491-.257.594-.682.6-.456,0-.8-.062-.776-.634a6.519,6.519,0,0,0-.046-.841c-.2-2.134-1.035-2.957-3.241-3.183-4.146-.425-7.1,1.858-7.953,6.295a16.657,16.657,0,0,0,.764,9.227c.5,1.315,1.554,2.2,2.293,3.324A2.155,2.155,0,0,0,1617.463,2502.828Z" transform="translate(-15949.311 -11849.629)"/><path class="b" d="M1951.481,2481.778a26.409,26.409,0,0,1,4.668.727c.59.136.778.4.694,1-.194,1.389-.359,2.783-.47,4.181-.043.546-.271.654-.749.657-.514,0-.736-.195-.717-.7a6.293,6.293,0,0,0-.038-.721c-.178-2.293-.823-2.954-3.154-3.229a6.754,6.754,0,0,0-7.767,5.245,15.559,15.559,0,0,0,.823,10.917c1.2,2.57,3.38,3.657,6.091,3.827a9.718,9.718,0,0,0,4.917-.9c.3-.146.593-.27.893-.045.421.315-.038.573-.106.829a2.064,2.064,0,0,1-1.457,1.456,13.4,13.4,0,0,1-11.079-.642,9.539,9.539,0,0,1-4.517-5.252,15.689,15.689,0,0,1-.649-8.53C1940.005,2485.05,1944.457,2481.756,1951.481,2481.778Z" transform="translate(-16230.605 -11849.757)"/><path class="b" d="M1749.122,2505.612c.556-.032,1.032-.04.995.774-.039.876-.592.515-1.017.515-2.085,0-4.17,0-6.254-.009-.378,0-.92.381-1.03-.376-.083-.568.084-.873.732-.95a1.219,1.219,0,0,0,1.128-1.319c.008-.44.069-.879.07-1.319q.008-7.458,0-14.917a14.148,14.148,0,0,0-.128-1.8c-.094-.72-.372-1.327-1.23-1.365-.571-.025-.733-.308-.717-.853.02-.669.469-.535.843-.511a48.309,48.309,0,0,0,6.731.005c.354-.027.844-.21.865.476.015.5-.051.912-.671.87-.876-.06-1.094.5-1.166,1.19a16.328,16.328,0,0,0-.087,1.678q-.01,7.7-.007,15.4a7.326,7.326,0,0,0,.226,2.021C1748.571,2505.393,1748.677,2505.753,1749.122,2505.612Z" transform="translate(-16062.903 -11851.18)"/><path class="b" d="M1826.379,2496.159a3.983,3.983,0,0,1-.813-.769,6.092,6.092,0,0,0-3.167-1.337c-.234.128-.468.145-.556-.149-.067-.222-.06-.486.321-.384a5.011,5.011,0,0,0,2.307-1.186c2.321-1.586,2.764-5.421,1.052-7.208a5.315,5.315,0,0,0-4.041-1.7c-2.607-.024-5.216.108-7.824.137-1.042.012-2.085-.075-3.128-.115-.339-.013-.674,0-.639.475.022.3-.151.78.266.821,1.892.188,1.6,1.616,1.6,2.806.028,5.138.013,10.276.01,15.414,0,.441,0,.884-.046,1.322-.065.684-.316,1.264-1.116,1.285-.7.018-.766.424-.705.96.074.665.585.43.929.405a47.993,47.993,0,0,1,6.617.018,11.7,11.7,0,0,0,5.2-.721c.708-.569,1.572-.875,2.324-1.37.271-.295.538-.592.812-.884A6.188,6.188,0,0,0,1826.379,2496.159Zm-10.208-9.962a.807.807,0,0,1,.825-.932,5.391,5.391,0,0,1,4.188.855c.374.071.384.411.5.674a17.4,17.4,0,0,1,.387,1.871,4.292,4.292,0,0,1-5.394,4.541c-.456-.122-.541-.36-.537-.768Q1816.171,2489.319,1816.171,2486.2Zm6.292,16.11a4.852,4.852,0,0,1-5.863,2.886c-.405-.142-.459-.362-.458-.706,0-2.93.016-5.86-.01-8.79-.005-.614.256-.718.791-.732a10.268,10.268,0,0,1,3.548.525,1.868,1.868,0,0,1,1.227.939A6.756,6.756,0,0,1,1822.463,2502.307Z" transform="translate(-16121.003 -11851.161)"/><path class="a" d="M1882.617,2565.62l-1.227-.939C1882.138,2564.552,1882.489,2564.94,1882.617,2565.62Z" transform="translate(-16181.921 -11920.353)"/><path class="a" d="M1886.692,2502.13l-.5-.674C1886.846,2501.321,1886.731,2501.754,1886.692,2502.13Z" transform="translate(-16186.013 -11866.497)"/></g></g></svg>