<svg xmlns="http://www.w3.org/2000/svg" width="80.346" height="32.101" viewBox="0 0 80.346 32.101"><defs><style>.a{fill:#004dc7;}</style></defs><g transform="translate(14155 9281)"><path class="a" d="M1951.271,6438.895q7.656,0,15.312-.005c.272,0,.386.046.368.351a13.2,13.2,0,0,0,0,1.5c.017.3-.1.353-.368.351-2.447-.009-4.895-.005-7.342-.005h-7.97Z" transform="translate(-16106.271 -15719.888)"/><path class="a" d="M1951.271,6506.746q7.657,0,15.314,0c.276,0,.382.053.367.353-.027.521-.021,1.045,0,1.567.009.243-.075.292-.3.291-1.579-.01-3.159,0-4.739,0h-10.261c-.125,0-.251,0-.376-.008Z" transform="translate(-16106.271 -15783.477)"/><path class="a" d="M3051.059,6916.775c0-.646,0-1.293-.006-1.939,0-.187.027-.274.25-.274q5.373.01,10.746,0c.224,0,.251.087.249.274-.009.646,0,1.293,0,1.939Z" transform="translate(-17136.955 -16165.674)"/><path class="a" d="M2933.737,6916.792q-.369-.994-.738-1.988c-.052-.138-.072-.23.137-.224.427.012.856.011,1.284,0,.221-.005.2.081.145.243-.241.654-.469,1.312-.7,1.968Z" transform="translate(-17026.285 -16165.691)"/><path class="a" d="M2252.588,6916.948a.09.09,0,0,0-.009.056h-17.763c0-.649,0-1.3,0-1.948,0-.084-.047-.189.062-.25a.586.586,0,0,1,.1.415c0,.428.006.855,0,1.284,0,.24.1.345.336.334.125-.005.251,0,.376,0q8.149,0,16.3,0C2252.192,6916.842,2252.411,6916.786,2252.588,6916.948Z" transform="translate(-16371.991 -16165.902)"/><path class="a" d="M1968.9,6914.98c.1.081.052.193.053.29.008.633.009,1.265.012,1.9h-15.691l.009-.065c.172-.143.379-.1.572-.1q7.128,0,14.257,0c.762,0,.684.039.689-.7,0-.313,0-.626,0-.939A.522.522,0,0,1,1968.9,6914.98Z" transform="translate(-16108.144 -16166.065)"/><path class="a" d="M2661.546,6947.332l.01-.065a.547.547,0,0,1,.416-.1q5.16,0,10.32,0a.551.551,0,0,1,.416.1l.01.065Z" transform="translate(-16771.92 -16196.231)"/><path class="a" d="M2744.631,6644.417c.207-.581.405-1.106.579-1.639a.311.311,0,0,1,.357-.248q6.072.009,12.144,0c.207,0,.3.042.293.273-.015.553-.011,1.107,0,1.661,0,.193-.038.274-.258.273q-3.122-.013-6.245,0c-.2,0-.278-.052-.264-.261a2.943,2.943,0,0,0-.049-.777c-.1.269-.207.534-.293.807a.276.276,0,0,1-.308.231q-5.993-.008-11.987,0a.275.275,0,0,1-.313-.225,3.821,3.821,0,0,0-.35-.8c0,.263-.009.528,0,.791.008.17-.037.237-.223.236q-3.169-.009-6.339,0c-.206,0-.24-.08-.237-.258.009-.543.019-1.087,0-1.629-.011-.275.09-.321.339-.32q4.629.012,9.257.005c.952,0,1.9.015,2.855-.009a.43.43,0,0,1,.5.363C2744.243,6643.385,2744.434,6643.869,2744.631,6644.417Z" transform="translate(-16837.137 -15910.729)"/><path class="a" d="M2259.773,6508.873a.716.716,0,0,1-.354.036q-12.062,0-24.123.008c-.3,0-.392-.072-.375-.376a13.3,13.3,0,0,0,0-1.5c-.017-.294.09-.335.352-.334,2.907.009,5.814.006,8.721.006q7.325,0,14.649-.008a.555.555,0,0,1,.578.357A7.685,7.685,0,0,1,2259.773,6508.873Z" transform="translate(-16372.098 -15783.438)"/><path class="a" d="M2247.4,6846.638q6.041,0,12.081-.007c.294,0,.349.068.277.343a7.729,7.729,0,0,1-.521,1.569.481.481,0,0,1-.487.3q-11.736-.012-23.473,0c-.243,0-.325-.057-.315-.31.02-.521.02-1.045,0-1.566-.01-.258.06-.335.325-.333,1.359.013,2.719.006,4.079.006Z" transform="translate(-16372.138 -16102.011)"/><path class="a" d="M2257.136,6441.073h-.307q-10.774,0-21.547.007c-.277,0-.355-.066-.343-.344.025-.521.019-1.044,0-1.565-.008-.229.047-.306.29-.3.627.019,1.254.006,1.882.006,4.966,0,9.932-.015,14.9.008a7.858,7.858,0,0,1,5.1,2.1C2257.123,6441,2257.122,6441.023,2257.136,6441.073Z" transform="translate(-16372.116 -15719.871)"/><path class="a" d="M2253.645,6916.794c-.177,0-.355-.007-.532-.007h-16.749c-.431,0-.431,0-.431-.444q0-.845,0-1.691c.115,0,.229-.01.344-.01h21.861a7.1,7.1,0,0,1-1.316,1A7.682,7.682,0,0,1,2253.645,6916.794Z" transform="translate(-16373.048 -16165.749)"/><path class="a" d="M2325.808,6642.613a3.719,3.719,0,0,1-.729,1.1c-.97,1.1-.971,1.1-2.421,1.1q-7.8,0-15.594,0c-.5,0-.419.063-.424-.437s.01-1-.006-1.5c-.007-.215.072-.264.27-.26.543.012,1.088,0,1.631,0h17.273Z" transform="translate(-16439.307 -15910.807)"/><path class="a" d="M2325.723,6712.715h-.4q-9.192,0-18.384.006c-.3,0-.423-.055-.4-.387a12.116,12.116,0,0,0,0-1.44c-.015-.293.055-.391.37-.386,1.286.02,2.572.008,3.859.008q6.337,0,12.674-.006a.875.875,0,0,1,.645.241A6.829,6.829,0,0,1,2325.723,6712.715Z" transform="translate(-16439.219 -15974.44)"/><path class="a" d="M1960.954,6848.856c-2.488,0-4.976-.006-7.464.008-.3,0-.364-.091-.353-.366.021-.512.02-1.023,0-1.534-.01-.249.067-.311.312-.311q5.9.012,11.792.006c1.1,0,2.2.006,3.293,0,.221,0,.287.065.281.282-.014.533-.019,1.066,0,1.6.01.267-.079.328-.335.328C1965.972,6848.853,1963.463,6848.856,1960.954,6848.856Z" transform="translate(-16108.019 -16102.032)"/><path class="a" d="M1968.8,6914.616c0,.6-.014,1.21,0,1.816.007.252-.074.314-.318.313-2-.009-3.993,0-5.989-.005l-9.313,0c0-.637,0-1.275-.015-1.912-.005-.209.081-.235.258-.234.941.006,1.883,0,2.824,0h12.176C1968.552,6914.595,1968.677,6914.608,1968.8,6914.616Z" transform="translate(-16108.05 -16165.701)"/><path class="a" d="M2667,6508.976c-2.395,0-4.79,0-7.185,0-.234,0-.328-.043-.318-.3.021-.553.015-1.107,0-1.66,0-.195.053-.246.246-.246q6.9.008,13.8,0a.257.257,0,0,1,.285.214c.195.572.393,1.144.613,1.706.093.238.061.291-.2.29-1.788-.01-3.577-.005-5.365-.005Z" transform="translate(-16769.998 -15783.505)"/><path class="a" d="M2992.271,6508.946c.253-.712.5-1.386.731-2.065.06-.179.188-.134.3-.134q1.506,0,3.012,0,5.223,0,10.446-.005c.256,0,.342.054.33.321-.022.532-.02,1.066,0,1.6.009.239-.065.293-.3.292-2.165-.009-4.329,0-6.494,0h-8.031Z" transform="translate(-17081.865 -15783.476)"/><path class="a" d="M2672.984,6441.116h-.345q-6.412,0-12.824.005c-.26,0-.366-.04-.351-.333.028-.542.017-1.085,0-1.628-.005-.2.06-.243.248-.243q6.13.008,12.26.006c.1,0,.21-.039.26.1C2672.478,6439.711,2672.725,6440.395,2672.984,6441.116Z" transform="translate(-16769.967 -15719.914)"/><path class="a" d="M3016.332,6441.093c.253-.711.5-1.386.731-2.062a.16.16,0,0,1,.179-.132c.063,0,.125,0,.188,0q5.926,0,11.851-.006c.279,0,.376.059.362.353a15.49,15.49,0,0,0,0,1.565c.015.287-.124.285-.333.285q-5.674-.006-11.349,0Z" transform="translate(-17104.414 -15719.892)"/><path class="a" d="M2743.213,6576.92h-.34q-5.69,0-11.38.007c-.292,0-.369-.081-.357-.362.022-.532.013-1.064,0-1.6,0-.188.05-.25.246-.25q5.408.008,10.815,0c.111,0,.22-.022.274.134C2742.709,6575.535,2742.956,6576.207,2743.213,6576.92Z" transform="translate(-16837.137 -15847.184)"/><path class="a" d="M2968.423,6576.848c.243-.683.486-1.357.723-2.034a.161.161,0,0,1,.181-.129c.063,0,.125,0,.188,0q5.252,0,10.5-.006c.286,0,.378.07.365.361-.024.531-.01,1.064,0,1.6,0,.156-.015.25-.214.25q-5.832-.01-11.663-.009A.452.452,0,0,1,2968.423,6576.848Z" transform="translate(-17059.516 -15847.145)"/><path class="a" d="M3056.6,6848.876c-1.756,0-3.513-.006-5.269.006-.266,0-.333-.076-.324-.332.019-.542.014-1.086,0-1.628,0-.192.052-.248.246-.248q5.379.008,10.757,0c.2,0,.247.061.243.249-.011.553-.016,1.107,0,1.66.007.232-.054.3-.293.3C3060.171,6848.871,3058.383,6848.876,3056.6,6848.876Z" transform="translate(-17136.906 -16102.052)"/><path class="a" d="M2667.022,6848.865c-1.756,0-3.512,0-5.268,0-.236,0-.329-.045-.318-.3.022-.542.013-1.086,0-1.628,0-.187.027-.275.25-.274q5.346.01,10.692,0c.206,0,.24.076.236.256-.01.554-.017,1.106,0,1.659.008.242-.071.294-.3.292C2670.555,6848.861,2668.788,6848.865,2667.022,6848.865Z" transform="translate(-16771.816 -16102.041)"/><path class="a" d="M2672.607,6916.674h-11.152c0-.6.008-1.19-.016-1.785-.011-.278.057-.366.353-.364,2.353.013,4.706.007,7.059.007,1.15,0,2.3.009,3.451-.007.269,0,.33.078.321.333C2672.6,6915.462,2672.611,6916.068,2672.607,6916.674Z" transform="translate(-16771.818 -16165.639)"/><path class="a" d="M2858.233,6710.561h.322q5.145,0,10.291-.005c.274,0,.344.042.234.317-.216.542-.407,1.094-.591,1.647a.3.3,0,0,1-.331.243q-4.44-.009-8.879-.005c-.106,0-.232.042-.289-.115C2858.745,6711.959,2858.494,6711.278,2858.233,6710.561Z" transform="translate(-16956.248 -15974.484)"/><path class="a" d="M2887.6,6778.488c1.212,0,2.424.006,3.636,0,.228,0,.29.037.2.27-.219.574-.419,1.154-.62,1.735a.263.263,0,0,1-.29.212q-2.931-.007-5.861,0c-.186,0-.251-.082-.305-.237-.2-.569-.4-1.138-.622-1.7-.083-.217-.054-.283.194-.281C2885.154,6778.5,2886.376,6778.488,2887.6,6778.488Z" transform="translate(-16980.111 -16038.145)"/><path class="a" d="M2522.409,6780.7c-1.1,0-2.2-.006-3.294,0-.231,0-.31-.058-.3-.3.018-.543.013-1.087,0-1.629,0-.208.042-.294.273-.293q3.137.012,6.274,0a.254.254,0,0,1,.292.206,9.5,9.5,0,0,1,.361,1.71c.028.231-.036.3-.281.3C2524.626,6780.7,2523.518,6780.7,2522.409,6780.7Z" transform="translate(-16638.154 -16038.151)"/><path class="a" d="M2522.238,6576.915c-1.045,0-2.091,0-3.137,0-.2,0-.275-.046-.27-.259.014-.563.011-1.128,0-1.691,0-.184.04-.255.242-.254q3.372.01,6.744,0c.189,0,.229.068.215.238a8.6,8.6,0,0,1-.368,1.8c-.058.188-.19.159-.323.159Z" transform="translate(-16638.172 -15847.178)"/><path class="a" d="M2734.6,6778.443c1,0,2.007.013,3.01-.008.3-.006.363.093.352.368-.021.532-.012,1.065,0,1.6,0,.181-.031.258-.237.257q-3.167-.01-6.334,0c-.183,0-.231-.065-.228-.237.008-.574.014-1.148,0-1.722-.006-.223.084-.257.275-.256C2732.493,6778.447,2733.548,6778.443,2734.6,6778.443Z" transform="translate(-16837.162 -16038.1)"/><path class="a" d="M2026.159,6780.72c-1.035,0-2.071-.006-3.106,0-.226,0-.314-.048-.305-.293.018-.553.014-1.107,0-1.66-.005-.21.068-.265.27-.264q3.137.01,6.275,0c.2,0,.271.048.266.261-.016.563-.015,1.128,0,1.692.005.207-.057.266-.262.264C2028.25,6780.715,2027.2,6780.72,2026.159,6780.72Z" transform="translate(-16173.257 -16038.167)"/><path class="a" d="M3054.42,6780.72c-1.044,0-2.089,0-3.133,0-.2,0-.273-.045-.268-.26.015-.573.01-1.147,0-1.721,0-.171.041-.237.226-.236q3.149.008,6.3,0c.169,0,.245.043.242.228-.009.584-.01,1.167,0,1.751,0,.209-.092.237-.266.236C3056.488,6780.718,3055.454,6780.72,3054.42,6780.72Z" transform="translate(-17136.922 -16038.168)"/><path class="a" d="M2310,6778.5c1.034,0,2.068.006,3.1,0,.217,0,.289.058.283.28-.014.563-.012,1.126,0,1.69,0,.194-.062.248-.251.247q-3.133-.008-6.267,0c-.177,0-.236-.052-.233-.231.009-.574.012-1.148,0-1.721-.005-.21.064-.266.266-.264C2307.936,6778.5,2308.97,6778.5,2310,6778.5Z" transform="translate(-16439.309 -16038.155)"/><path class="a" d="M2734.579,6710.554c1.035,0,2.071.008,3.106-.006.241,0,.3.069.292.3-.017.553-.013,1.107,0,1.66,0,.192-.054.249-.246.248q-3.154-.01-6.307,0c-.194,0-.251-.06-.248-.25.011-.563.013-1.128,0-1.691,0-.21.064-.267.267-.265C2732.487,6710.559,2733.533,6710.554,2734.579,6710.554Z" transform="translate(-16837.172 -15974.479)"/><path class="a" d="M2026.152,6712.8c-1.034,0-2.069-.006-3.1,0-.221,0-.287-.064-.281-.283.014-.563.01-1.126,0-1.69,0-.177.057-.234.234-.233q3.181.007,6.362,0c.169,0,.212.062.21.219-.007.574-.015,1.148,0,1.722.007.239-.093.266-.293.265C2028.241,6712.793,2027.2,6712.8,2026.152,6712.8Z" transform="translate(-16173.276 -15974.523)"/><path class="a" d="M2026.183,6644.8c-1.045,0-2.09-.006-3.135,0-.214,0-.291-.051-.285-.276.016-.553.012-1.106,0-1.659,0-.2.046-.271.26-.271q3.151.012,6.3,0c.193,0,.251.054.247.246-.012.574-.014,1.148,0,1.722.005.206-.076.238-.255.237C2028.273,6644.8,2027.228,6644.8,2026.183,6644.8Z" transform="translate(-16173.271 -15910.802)"/><path class="a" d="M2026.182,6576.927c-1.045,0-2.09-.006-3.135,0-.217,0-.289-.054-.283-.278.015-.563.01-1.127,0-1.691,0-.171.044-.237.229-.236q3.183.008,6.365,0c.166,0,.215.053.212.215-.008.584-.013,1.169,0,1.754.005.208-.079.235-.256.234C2028.273,6576.923,2027.228,6576.927,2026.182,6576.927Z" transform="translate(-16173.272 -15847.19)"/><path class="a" d="M3054.381,6712.781c-1.024,0-2.048-.008-3.072.006-.24,0-.3-.068-.293-.3.016-.553.012-1.106,0-1.659,0-.187.047-.251.244-.251q3.135.01,6.27,0c.189,0,.256.056.253.25-.011.563-.012,1.127,0,1.69,0,.207-.063.267-.268.266C3056.471,6712.776,3055.426,6712.781,3054.381,6712.781Z" transform="translate(-17136.918 -15974.506)"/><path class="a" d="M2310.044,6574.712c1.015,0,2.029.006,3.043,0,.22,0,.317.035.308.286-.02.553-.011,1.107,0,1.66,0,.174-.024.261-.234.26q-3.137-.012-6.274,0c-.2,0-.245-.068-.241-.252.01-.563.012-1.128,0-1.691-.005-.21.064-.263.266-.262C2307.952,6574.717,2309,6574.712,2310.044,6574.712Z" transform="translate(-16439.313 -15847.173)"/><path class="a" d="M2910.8,6846.7c.71,0,1.42,0,2.13,0,.2,0,.256.043.178.25-.218.574-.419,1.154-.617,1.735a.279.279,0,0,1-.317.219c-.919-.009-1.838-.008-2.757,0a.26.26,0,0,1-.295-.2c-.2-.59-.413-1.179-.64-1.76-.088-.226,0-.242.186-.241C2909.375,6846.7,2910.085,6846.7,2910.8,6846.7Z" transform="translate(-17003.305 -16102.07)"/></g></svg>