<svg xmlns="http://www.w3.org/2000/svg" width="127.151" height="22.148" viewBox="0 0 127.151 22.148"><defs><style>.a{fill:#c3004a;}</style></defs><g transform="translate(14001 8898.999)"><g transform="translate(-15 377)"><path class="a" d="M2235.85,7865.153a9.6,9.6,0,0,1,1.293-5.1,6.935,6.935,0,0,1,5.363-3.373,8.323,8.323,0,0,1,4.448.582,7,7,0,0,1,3.99,4.639,10.437,10.437,0,0,1-.5,7.763,6.869,6.869,0,0,1-5.681,3.944,8.266,8.266,0,0,1-4.7-.689,7.155,7.155,0,0,1-3.813-4.728A10.564,10.564,0,0,1,2235.85,7865.153Zm3.1.007c.106.788.155,1.588.33,2.36a4.419,4.419,0,0,0,8.488.761,9.512,9.512,0,0,0,.052-6.126,3.961,3.961,0,0,0-3.6-2.976,4.178,4.178,0,0,0-4.691,2.764A11.046,11.046,0,0,0,2238.946,7865.16Z" transform="translate(-16177.83 -17130.08)"/><path class="a" d="M3176.828,7860.407a1.635,1.635,0,0,1,.2-.024c1.864.011,3.728,0,5.591.044a5.775,5.775,0,0,1,3,.881,4.717,4.717,0,0,1,2.225,4.778,4.623,4.623,0,0,1-2.857,3.88.842.842,0,0,0-.119.066c-.012.009-.014.032-.021.049s.005.044.016.049a3.393,3.393,0,0,1,1.544,1.478c1.03,1.763,2.034,3.542,3.047,5.315a.444.444,0,0,1,.023.1c-.085.007-.164.02-.242.02-.955,0-1.91,0-2.865,0a.36.36,0,0,1-.365-.215q-1.257-2.24-2.534-4.469a9.329,9.329,0,0,0-.72-1.069,1.845,1.845,0,0,0-1.43-.719c-.5-.021-1.005,0-1.535,0v6.445h-2.958Zm2.955,7.631c.923,0,1.821.035,2.715-.012a2.4,2.4,0,0,0,1.625-.72,2.568,2.568,0,0,0,.606-2.671,2.262,2.262,0,0,0-2.01-1.679c-.95-.114-1.919-.074-2.88-.1-.015,0-.031.019-.057.036Z" transform="translate(-17066.941 -17133.648)"/><path class="a" d="M1989.138,7870.06a4.235,4.235,0,0,1,.754.521,7.715,7.715,0,0,1,1,1.265c.985,1.673,1.93,3.368,2.889,5.056.018.031.028.065.053.125-.093.008-.172.02-.25.02-.955,0-1.909,0-2.864.006a.383.383,0,0,1-.385-.229q-1.244-2.215-2.5-4.422a10.181,10.181,0,0,0-.66-1.011,1.961,1.961,0,0,0-1.552-.816c-.4-.018-.808-.009-1.21-.033-.242-.016-.312.063-.311.308.01,1.941.005,3.884.005,5.825v.351h-2.917V7860.4a1.813,1.813,0,0,1,.2-.022c1.854.011,3.709-.018,5.561.046a5.708,5.708,0,0,1,3.792,1.469,4.956,4.956,0,0,1-1.3,8.018C1989.351,7869.955,1989.263,7870,1989.138,7870.06Zm-5.015-1.968a18.379,18.379,0,0,0,3.068-.126,2.434,2.434,0,0,0,1.255-.642,2.57,2.57,0,0,0,.632-2.665,2.266,2.266,0,0,0-2.016-1.706c-.886-.115-1.792-.075-2.688-.116-.233-.012-.272.087-.271.289.006,1.565,0,3.131,0,4.7C1984.107,7867.894,1984.115,7867.966,1984.123,7868.092Z" transform="translate(-15937.206 -17133.646)"/><path class="a" d="M2584.068,7860.239a7.7,7.7,0,0,0-2.444-.978,6.461,6.461,0,0,0-3.131.1,4.406,4.406,0,0,0-2.979,2.608,8.026,8.026,0,0,0-.035,6.311,4.418,4.418,0,0,0,3.851,2.786,6.047,6.047,0,0,0,3-.327.375.375,0,0,0,.29-.413c-.016-1.054-.007-2.107-.007-3.161v-.292h-2.545l.78-2.392h4.739c.006.11.015.208.015.306q0,3.628,0,7.256c0,.16,0,.291-.188.378a11.768,11.768,0,0,1-8.037.915,6.952,6.952,0,0,1-5.355-5.47,9.8,9.8,0,0,1,.947-7.415,7.423,7.423,0,0,1,5.493-3.732,10.6,10.6,0,0,1,6.151.841c.216.1.277.193.193.431C2584.552,7858.725,2584.321,7859.467,2584.068,7860.239Z" transform="translate(-16495.168 -17130.057)"/><path class="a" d="M2911.915,7860.688h10.224a1.923,1.923,0,0,1-.044.207c-.217.67-.446,1.336-.65,2.01-.058.191-.155.229-.334.229q-2.892-.008-5.785,0h-.376v4.476h6.362v2.456h-6.385v.309c0,1.4.006,2.8-.006,4.206,0,.249.075.3.312.3,2.195-.008,4.389,0,6.583,0h.365v2.438h-10.265Z" transform="translate(-16816.631 -17133.936)"/><path class="a" d="M3438.316,7872.6l.776-2.368c.682.232,1.336.5,2.014.674a6.29,6.29,0,0,0,2.943.145,3.359,3.359,0,0,0,.99-.391,1.885,1.885,0,0,0,.345-3.029,7.533,7.533,0,0,0-1.394-.968c-.917-.537-1.884-.994-2.775-1.568a6.688,6.688,0,0,1-1.547-1.344,4.175,4.175,0,0,1,1.152-6.216,5.834,5.834,0,0,1,2.726-.865,14.016,14.016,0,0,1,4.4.363c.244.061.313.167.308.411-.017.8-.006,1.592-.006,2.432-.135-.044-.243-.076-.348-.114a9.241,9.241,0,0,0-3.5-.588,3.282,3.282,0,0,0-1.53.4,1.675,1.675,0,0,0-.44,2.63,4.873,4.873,0,0,0,1.106.847c1,.584,2.028,1.106,3.02,1.7a5.807,5.807,0,0,1,2.116,2,4.382,4.382,0,0,1-.678,5.137,5.75,5.75,0,0,1-3.566,1.731,10.849,10.849,0,0,1-5.831-.875C3438.506,7872.7,3438.427,7872.654,3438.316,7872.6Z" transform="translate(-17314.018 -17130.1)"/><path class="a" d="M1437.221,7873.595c.074-.551.125-1.106.228-1.651a8.031,8.031,0,0,1,1.72-3.752,5.8,5.8,0,0,1,6.573-1.762,6.011,6.011,0,0,1,1.79.894c-.295.141-.559.259-.817.39a13.821,13.821,0,0,0-6.4,6.234,9.428,9.428,0,0,0-.531,7.025.17.17,0,0,1-.011.133c-.058-.065-.12-.128-.174-.2a10.858,10.858,0,0,1-2.322-6.031,2.709,2.709,0,0,0-.051-.292Z" transform="translate(-15423.221 -17139.023)"/><path class="a" d="M1653.428,7897.525c.436-.216.84-.4,1.233-.613a14.187,14.187,0,0,0,5.152-4.573,9.622,9.622,0,0,0,1.351-8.506.158.158,0,0,1,.006-.125c.114.143.236.281.342.43a10.792,10.792,0,0,1,1.581,10.209,6.431,6.431,0,0,1-3.35,3.9,6.071,6.071,0,0,1-4.867.05A5.369,5.369,0,0,1,1653.428,7897.525Z" transform="translate(-15627.511 -17155.688)"/><path class="a" d="M1508.06,8033.774a10.135,10.135,0,0,1-2.023,1.354,10.86,10.86,0,0,1-8.743.616,6.651,6.651,0,0,1-3.546-2.739,5.89,5.89,0,0,1-.36-5.481,15.374,15.374,0,0,1,.69-1.417l.084.026c.125.263.246.528.377.788a14.073,14.073,0,0,0,5.5,5.991,9.531,9.531,0,0,0,7.715.947Z" transform="translate(-15475.816 -17290.236)"/><path class="a" d="M1525.25,7821.061a15.283,15.283,0,0,0-1.95-3.337,12.713,12.713,0,0,0-5.871-4.37,9.477,9.477,0,0,0-5.58-.118,1.18,1.18,0,0,1-.395.049c.072-.061.141-.125.216-.183a11,11,0,0,1,7.7-2.292,9.027,9.027,0,0,1,3.927,1.139,5.891,5.891,0,0,1,2.757,7.567,11.785,11.785,0,0,1-.552,1.163A3.839,3.839,0,0,1,1525.25,7821.061Z" transform="translate(-15493.363 -17086.777)"/><path class="a" d="M3709.643,8129.753c0,.383.007.766-.006,1.147,0,.084-.08.166-.123.248-.037-.078-.1-.155-.1-.233-.009-.521,0-1.041,0-1.569.256-.073.415-.041.5.24.116.373.28.731.452,1.167.166-.424.331-.781.446-1.154.08-.26.216-.335.5-.255v1.206a2.869,2.869,0,0,1-.006.41c-.01.068-.081.127-.125.189-.04-.066-.111-.133-.113-.2a11.662,11.662,0,0,0-.062-1.242c-.164.409-.324.82-.493,1.228a1.209,1.209,0,0,1-.146.212.991.991,0,0,1-.174-.215c-.165-.394-.316-.791-.472-1.188Z" transform="translate(-17570.162 -17387.754)"/><path class="a" d="M3678.379,8129.583c-.161,0-.306.008-.449,0-.044,0-.083-.065-.125-.1.043-.034.085-.1.129-.1q.591-.011,1.183,0c.039,0,.076.072.114.111-.037.03-.073.083-.112.086-.145.011-.29,0-.477,0v1.109a.6.6,0,0,1-.132.517c-.039-.077-.108-.152-.111-.23-.011-.366,0-.732-.006-1.1C3678.393,8129.791,3678.385,8129.7,3678.379,8129.583Z" transform="translate(-17540.307 -17387.814)"/></g></g></svg>