<svg xmlns="http://www.w3.org/2000/svg" width="79.89" height="29.919" viewBox="0 0 79.89 29.919"><defs><style>.a{fill:#aaa;}.b{fill:#c3004a;}</style></defs><g transform="translate(-1016 -6825.999)"><g transform="translate(-3929.811 281.197)"><path class="a" d="M5381.712,6579.7a15.4,15.4,0,0,0-.061-3.514,19.357,19.357,0,0,1-.278-3.078c-.044-.539.1-.754.691-.724,1.015.051,2.035.033,3.052.007.408-.011.593.088.549.527-.109,1.094.251,2.229-.385,3.284a2.3,2.3,0,0,0-.108,1.1c0,3.936-.017,7.871.015,11.805.006.646-.181.83-.8.8a25.919,25.919,0,0,0-2.649,0c-.5.023-.677-.173-.822-.636-.664-2.112-1.376-4.208-2.073-6.31-.047-.142-.054-.313-.238-.4a9.791,9.791,0,0,0,.071,3.235,12.491,12.491,0,0,1,.365,3.522c.036.379-.045.6-.508.583-1.07-.029-2.142-.015-3.212,0-.315,0-.5-.052-.495-.432a9.7,9.7,0,0,1,.041-2.479c.979-3.229.207-6.515.45-9.761a3.9,3.9,0,0,0-.363-1.756,7.907,7.907,0,0,1-.106-2.855c0-.292.261-.208.428-.209,1.231-.007,2.464.013,3.695-.017.449-.011.511.253.606.578q.923,3.15,1.868,6.295c.044.149.111.292.167.438Z" transform="translate(-359.972 -23.141)"/><path class="a" d="M5239.611,6580.414c0-1.706-.025-2.992,0-4.275.08-3.434,1.854-5.037,5.281-4.775a8.021,8.021,0,0,1,4.209,1.615.866.866,0,0,1,.406.8c-.022,1.1-.018,2.194,0,3.292,0,.377-.061.6-.524.584-1.017-.03-2.035-.024-3.052,0-.4.009-.515-.149-.51-.513a7.282,7.282,0,0,0-.05-1.121c-.061-.426-.16-.925-.693-.938s-.665.471-.764.892a3.986,3.986,0,0,0-.091.875c-.007,2.383-.014,4.766,0,7.147,0,.627-.032,1.463.816,1.478s.795-.823.759-1.413c-.031-.546.4-1.29-.536-1.592-.105-.033-.062-.6-.049-.917.028-.744-.317-1.7.129-2.172s1.418-.117,2.158-.146c.642-.025,1.286.007,1.928-.009.343-.009.47.116.469.466q-.015,3.775,0,7.55c0,.52-.368.764-.729.972a8.108,8.108,0,0,1-6.5.785c-1.9-.55-2.385-2.134-2.57-3.866C5239.518,6583.42,5239.65,6581.705,5239.611,6580.414Z" transform="translate(-246.551 -22.267)"/><path class="a" d="M5016.187,6700.375c-1.018,0-2.036-.019-3.052.009-.443.012-.612-.109-.6-.58.026-1.526.028-3.053,0-4.579-.009-.5.146-.64.638-.634,2.009.025,4.018.02,6.026,0,.425,0,.628.079.626.567,0,.47-.167.582-.609.575-1.606-.023-3.214-.016-4.821,0-.26,0-.655-.155-.682.317-.032.539.4.391.689.395,1.125.013,2.25-.01,3.374.014.39.007.941-.251.926.567-.013.763-.521.525-.891.532-1.151.021-2.305.052-3.454-.006-.744-.038-.653.4-.659.862s-.065.874.666.849c1.6-.056,3.214,0,4.82-.029.494-.01.636.133.641.628.005.546-.291.52-.662.517C5018.168,6700.367,5017.178,6700.374,5016.187,6700.375Z" transform="translate(-55.991 -125.704)"/><path class="a" d="M4948.654,6699.233h2.246c.531,0,.817-.176.835-.8.02-.682-.327-.81-.873-.841-1.254-.074-2.515.074-3.764-.122-1.032-.162-1.33-.553-1.282-1.561.037-.779.533-1.053,1.184-1.18a17.265,17.265,0,0,1,3.12-.124c.669-.009,1.338.021,2.005-.011.439-.02.541.163.538.564,0,.384-.065.586-.521.577-1.31-.026-2.62-.009-3.931-.009a1.2,1.2,0,0,0-.241,0c-.336.069-.9-.075-.884.41.011.411.535.3.863.311,1.1.021,2.2-.027,3.287.054a2.013,2.013,0,0,1,1.478,3.1,1.873,1.873,0,0,1-1.624.726c-1.6.055-3.208.025-4.812.052-.426.007-.472-.207-.469-.547,0-.365.048-.614.518-.6.774.03,1.55.008,2.326.008Z" transform="translate(0 -125.71)"/><path class="a" d="M5404.512,6696.975c0,.59-.039,1.182.009,1.767a1.152,1.152,0,0,1-.934,1.3c-1.6.477-3.245.182-4.87.23-.423.012-.246-.391-.277-.624-.041-.316.063-.5.435-.5,1.1.015,2.2.019,3.293,0,.433-.009,1.112.094,1.118-.452,0-.388-.662-.164-1.023-.191a21.712,21.712,0,0,1-3.6-.149c-1.142-.277-1.387-.607-1.389-1.79,0-.455.013-.911,0-1.365-.015-.4-.033-.712.556-.706.54,0,.63.225.6.674-.027.373.03.754-.013,1.123-.085.731.262,1.048.946,1.057,1.178.015,2.356,0,3.534.025.4.008.5-.163.487-.527-.021-.534,0-1.07-.008-1.606-.008-.42-.046-.764.6-.752.6.012.555.328.549.717C5404.507,6695.8,5404.513,6696.386,5404.512,6696.975Z" transform="translate(-378.865 -125.62)"/><path class="a" d="M5088.58,6700.371a15.3,15.3,0,0,1-3.027-.155,1.355,1.355,0,0,1-1.174-1.545c.047-.827.028-1.658,0-2.487a1.209,1.209,0,0,1,.885-1.274,4.6,4.6,0,0,1,1.568-.3c1.418-.018,2.837.014,4.255-.018.5-.011.554.206.565.62.013.448-.171.529-.567.524q-2.046-.031-4.094,0c-1.266.019-1.45.2-1.424,1.442.04,1.946-.52,2.1,2.088,2.073,1.1-.01,2.194,0,3.291-.005.394,0,.7-.042.715.547.021.651-.33.594-.746.588C5090.194,6700.364,5089.472,6700.371,5088.58,6700.371Z" transform="translate(-116.284 -125.701)"/><path class="a" d="M5163.8,6697.066c0,.588-.024,1.178.006,1.765a1.1,1.1,0,0,1-.952,1.278,12.794,12.794,0,0,1-5.322-.071,1.206,1.206,0,0,1-.985-1.354c.04-1.149.017-2.3.009-3.45,0-.4-.03-.721.556-.722.553,0,.593.259.585.69-.019,1.042.017,2.086-.015,3.129-.017.555.235.808.744.814,1.176.016,2.353.011,3.53,0,.54,0,.725-.3.708-.83-.032-1.015,0-2.033-.011-3.049,0-.419-.048-.765.593-.761.677,0,.548.413.551.795C5163.8,6695.889,5163.8,6696.478,5163.8,6697.066Z" transform="translate(-176.851 -125.632)"/><path class="a" d="M5333.812,6694.552c1.042,0,2.085.021,3.126-.009.465-.014.508.207.517.583.008.4-.075.585-.524.561-.639-.036-1.283.019-1.923-.019-.484-.028-.653.117-.637.624.038,1.148,0,2.3.021,3.446.009.433-.087.614-.567.6-.44-.009-.6-.113-.59-.579.033-1.068-.047-2.141.029-3.2.055-.779-.245-.97-.94-.891a5.109,5.109,0,0,1-1.2,0c-.364-.045-.94.319-.953-.526-.013-.812.52-.57.916-.579C5332,6694.538,5332.9,6694.552,5333.812,6694.552Z" transform="translate(-322.557 -125.653)"/><path class="a" d="M5298.194,6697.449c0,.8-.024,1.6.009,2.4.021.485-.241.486-.6.5-.395.014-.572-.079-.565-.524.024-1.574.021-3.148,0-4.723,0-.419.135-.547.551-.552.438,0,.628.1.607.578C5298.169,6695.9,5298.193,6696.675,5298.194,6697.449Z" transform="translate(-294.756 -125.67)"/><path class="a" d="M4958.787,6550.064c-.315-3.448-1.9-5.34-5.713-5.254-.775.017-1.551,0-2.328,0-1.177,0-2.354.014-3.532-.009-.419-.008-.566.128-.558.55.022,1.07,0,2.14.011,3.21,0,.154,0,.368.091.452a2.234,2.234,0,0,1,.506,1.87c.009,2.943,0,5.886.008,8.829,0,1.026.284,2.1-.554,2.974-.086.091-.05.31-.05.468,0,.963.022,1.927-.009,2.889-.015.451.106.61.576.595,1.016-.033,2.034.01,3.05-.014.714-.017,1.66.312,2.072-.147.352-.393.13-1.321.12-2.012a4.753,4.753,0,0,0-.4-2.463c-.552-.988-.1-1.544,1.038-1.551.268,0,.536.009.8,0,2.854-.127,4.458-1.577,4.806-4.377A28,28,0,0,0,4958.787,6550.064Zm-4.769,5.03a1.352,1.352,0,0,1-.613,1.158,1.416,1.416,0,0,1-1.219.23c-.378-.156-.158-.623-.169-.947-.028-.828-.009-1.657-.008-2.486,0-.962.023-1.925-.008-2.887-.016-.487.178-.6.618-.542a1.39,1.39,0,0,1,1.387,1.388A29.478,29.478,0,0,1,4954.018,6555.094Z" transform="translate(-0.709 0)"/><path class="a" d="M5103.568,6588.936a8.79,8.79,0,0,0-.383-2.952,6.15,6.15,0,0,1-.107-2.459c.009-1.129-.231-2.091-1.646-2.468a3.2,3.2,0,0,0,1.812-2.914,19.159,19.159,0,0,0,.033-1.924c-.077-2.6-1.284-3.7-3.92-3.932-2.046-.18-4.12-.042-6.182-.043-.175,0-.44-.061-.443.2a9.982,9.982,0,0,0,.11,3.18,5.458,5.458,0,0,1,.375,1.682q.015,3.814,0,7.628a2.016,2.016,0,0,1-.121.944c-.586,1.029-.287,2.138-.388,3.21-.054.574.209.662.7.652,1.285-.025,2.571-.036,3.855.007.557.019.712-.185.657-.691a11.241,11.241,0,0,0-.346-2.958,9.8,9.8,0,0,1-.074-3.2,1.28,1.28,0,0,1,1.234,1.377,31.348,31.348,0,0,0,.279,4.56c.114.736.408.973,1.141.915a18.321,18.321,0,0,1,2.568,0C5103.354,6589.788,5103.653,6589.647,5103.568,6588.936Zm-4.8-10.061a.959.959,0,0,1-1.134.545c-.394-.1-.161-.539-.194-.824a8.219,8.219,0,0,1-.009-.957h0a5.139,5.139,0,0,1,.011-.876c.048-.272-.247-.717.221-.793a.994.994,0,0,1,1.13.578A2.9,2.9,0,0,1,5098.768,6578.875Z" transform="translate(-123.235 -22.987)"/><path class="a" d="M5317.521,6579.985c0-2.021.035-3.575-.008-5.126-.065-2.376-1.145-3.871-3.03-4.26a9.214,9.214,0,0,0-2.556-.166c-2.758.2-4.252,1.586-4.4,4.336a82.7,82.7,0,0,0,.014,9.471,4.178,4.178,0,0,0,4.075,4.248,9.509,9.509,0,0,0,2.242-.023,3.676,3.676,0,0,0,3.537-3.334A42.014,42.014,0,0,0,5317.521,6579.985Zm-4.2,3.287a3.858,3.858,0,0,1-.069.795c-.071.33-.247.614-.631.622a.681.681,0,0,1-.705-.541,3.27,3.27,0,0,1-.156-.86q-.02-3.849,0-7.7a2.716,2.716,0,0,1,.119-.7.731.731,0,0,1,.834-.586c.489.039.6.394.608.793.01,1.47,0,2.94,0,4.41h0C5313.322,6580.76,5313.325,6582.017,5313.319,6583.272Z" transform="translate(-303.443 -21.488)"/><path class="a" d="M5176.974,6585.89a15.309,15.309,0,0,1-.686-3.771q-.677-4.561-1.317-9.125c-.067-.489-.28-.6-.738-.577-.774.04-1.552.011-2.329.01-.83,0-1.662.024-2.49-.011-.436-.019-.619.117-.676.553q-.482,3.7-1,7.393a38.029,38.029,0,0,1-.851,5.376,13.993,13.993,0,0,0-.406,3.605c-.01.311-.007.586.442.581,1.232-.015,2.464-.006,3.7,0,.24,0,.473-.043.438-.327-.129-1.067.282-2.165-.312-3.215-.431-.761-.17-1.09.7-1.09.161,0,.321,0,.482,0,.766.007.979.211.61.886-.575,1.052-.3,2.134-.367,3.206-.029.434.137.549.549.542q2.088-.031,4.177,0c.413.007.581-.108.558-.537A9.494,9.494,0,0,0,5176.974,6585.89Zm-5.471-3.982c-.438.014-.563-.149-.508-.563.174-1.32.331-2.642.495-3.963l.136.021c.155,1.319.294,2.641.474,3.957C5172.172,6581.892,5171.9,6581.9,5171.5,6581.908Z" transform="translate(-185.187 -23.172)"/><path class="a" d="M5029.132,6586.695a4.78,4.78,0,0,1-.582-1.646c-.243-1.611-.468-3.226-.7-4.838-.345-2.38-.686-4.761-1.047-7.138-.041-.264.064-.657-.478-.648-1.74.029-3.48.016-5.221.005-.323,0-.468.087-.513.438-.308,2.386-.634,4.77-.964,7.152a42.006,42.006,0,0,1-.865,5.616,15.059,15.059,0,0,0-.434,3.768c-.01.365.094.538.494.533,1.205-.018,2.41-.008,3.615-.01.189,0,.429.015.426-.237a8.785,8.785,0,0,0-.1-2.943c-.542-1.478-.613-1.452.965-1.444.776,0,1.029.234.667.858-.56.968-.313,1.969-.415,2.958-.073.707.22.875.86.819.585-.05,1.177-.011,1.766-.011a14,14,0,0,1,1.766.014c.805.1,1.047-.208.939-.969S5029.526,6587.4,5029.132,6586.695Zm-5.686-4.781c-.38-.018-.682.007-.606-.541.183-1.315.324-2.635.481-3.953l.141,0c.164,1.309.322,2.619.5,3.927C5024.011,6581.761,5023.886,6581.935,5023.446,6581.914Z" transform="translate(-60.853 -23.181)"/><path class="a" d="M5232.3,6699.383q-.788-.418-1.574-.841a1.76,1.76,0,0,1,.753-.127c2.212-.051,2.281-.547,2.2-2.227-.047-.978-.324-1.357-1.291-1.484-1.839-.242-3.688-.059-5.532-.119-.374-.012-.44.175-.438.492.008,1.606.019,3.211-.005,4.817-.008.51.291.458.621.472.346.015.578-.039.529-.467a6.036,6.036,0,0,1-.005-.722c0-.856.21-1,.992-.613a20.153,20.153,0,0,1,2.4,1.281,4.936,4.936,0,0,0,3.145.488C5233.359,6699.942,5232.83,6699.664,5232.3,6699.383Zm-3.912-2.107c-.272-.013-.693.174-.785-.158a3.711,3.711,0,0,1,0-1.266c.012-.14.2-.145.336-.141,1.3.033,2.609-.064,3.913.055.592.055.722.363.7.907-.024.592-.378.615-.806.611-.587,0-1.173,0-1.759,0C5229.455,6697.285,5228.92,6697.3,5228.389,6697.276Z" transform="translate(-235.485 -125.69)"/></g><g transform="translate(14786 16106)"><path class="a" d="M5016.187,6700.375c-1.018,0-2.036-.019-3.052.009-.443.012-.612-.109-.6-.58.026-1.526.028-3.053,0-4.579-.009-.5.146-.64.638-.634,2.009.025,4.018.02,6.026,0,.425,0,.628.079.626.567,0,.47-.167.582-.609.575-1.606-.023-3.214-.016-4.821,0-.26,0-.655-.155-.682.317-.032.539.4.391.689.395,1.125.013,2.25-.01,3.374.014.39.007.941-.251.926.567-.013.763-.521.525-.891.532-1.151.021-2.305.052-3.454-.006-.744-.038-.653.4-.659.862s-.065.874.666.849c1.6-.056,3.214,0,4.82-.029.494-.01.636.133.641.628.005.546-.291.52-.662.517C5018.168,6700.367,5017.178,6700.374,5016.187,6700.375Z" transform="translate(-18771.803 -15950.507)"/><path class="a" d="M4948.654,6699.233h2.246c.531,0,.817-.176.835-.8.02-.682-.327-.81-.873-.841-1.254-.074-2.515.074-3.764-.122-1.032-.162-1.33-.553-1.282-1.561.037-.779.533-1.053,1.184-1.18a17.265,17.265,0,0,1,3.12-.124c.669-.009,1.338.021,2.005-.011.439-.02.541.163.538.564,0,.384-.065.586-.521.577-1.31-.026-2.62-.009-3.931-.009a1.2,1.2,0,0,0-.241,0c-.336.069-.9-.075-.884.41.011.411.535.3.863.311,1.1.021,2.2-.027,3.287.054a2.013,2.013,0,0,1,1.478,3.1,1.873,1.873,0,0,1-1.624.726c-1.6.055-3.208.025-4.812.052-.426.007-.472-.207-.469-.547,0-.365.048-.614.518-.6.774.03,1.55.008,2.326.008Z" transform="translate(-18715.811 -15950.513)"/><path class="a" d="M5404.512,6696.975c0,.59-.039,1.182.009,1.767a1.152,1.152,0,0,1-.934,1.3c-1.6.477-3.245.182-4.87.23-.423.012-.246-.391-.277-.624-.041-.316.063-.5.435-.5,1.1.015,2.2.019,3.293,0,.433-.009,1.112.094,1.118-.452,0-.388-.662-.164-1.023-.191a21.712,21.712,0,0,1-3.6-.149c-1.142-.277-1.387-.607-1.389-1.79,0-.455.013-.911,0-1.365-.015-.4-.033-.712.556-.706.54,0,.63.225.6.674-.027.373.03.754-.013,1.123-.085.731.262,1.048.946,1.057,1.178.015,2.356,0,3.534.025.4.008.5-.163.487-.527-.021-.534,0-1.07-.008-1.606-.008-.42-.046-.764.6-.752.6.012.555.328.549.717C5404.507,6695.8,5404.513,6696.386,5404.512,6696.975Z" transform="translate(-19094.676 -15950.423)"/><path class="a" d="M5088.58,6700.371a15.3,15.3,0,0,1-3.027-.155,1.355,1.355,0,0,1-1.174-1.545c.047-.827.028-1.658,0-2.487a1.209,1.209,0,0,1,.885-1.274,4.6,4.6,0,0,1,1.568-.3c1.418-.018,2.837.014,4.255-.018.5-.011.554.206.565.62.013.448-.171.529-.567.524q-2.046-.031-4.094,0c-1.266.019-1.45.2-1.424,1.442.04,1.946-.52,2.1,2.088,2.073,1.1-.01,2.194,0,3.291-.005.394,0,.7-.042.715.547.021.651-.33.594-.746.588C5090.194,6700.364,5089.472,6700.371,5088.58,6700.371Z" transform="translate(-18832.094 -15950.504)"/><path class="a" d="M5163.8,6697.066c0,.588-.024,1.178.006,1.765a1.1,1.1,0,0,1-.952,1.278,12.794,12.794,0,0,1-5.322-.071,1.206,1.206,0,0,1-.985-1.354c.04-1.149.017-2.3.009-3.45,0-.4-.03-.721.556-.722.553,0,.593.259.585.69-.019,1.042.017,2.086-.015,3.129-.017.555.235.808.744.814,1.176.016,2.353.011,3.53,0,.54,0,.725-.3.708-.83-.032-1.015,0-2.033-.011-3.049,0-.419-.048-.765.593-.761.677,0,.548.413.551.795C5163.8,6695.889,5163.8,6696.478,5163.8,6697.066Z" transform="translate(-18892.662 -15950.436)"/><path class="a" d="M5333.812,6694.552c1.042,0,2.085.021,3.126-.009.465-.014.508.207.517.583.008.4-.075.585-.524.561-.639-.036-1.283.019-1.923-.019-.484-.028-.653.117-.637.624.038,1.148,0,2.3.021,3.446.009.433-.087.614-.567.6-.44-.009-.6-.113-.59-.579.033-1.068-.047-2.141.029-3.2.055-.779-.245-.97-.94-.891a5.109,5.109,0,0,1-1.2,0c-.364-.045-.94.319-.953-.526-.013-.812.52-.57.916-.579C5332,6694.538,5332.9,6694.552,5333.812,6694.552Z" transform="translate(-19038.367 -15950.456)"/><path class="a" d="M5298.194,6697.449c0,.8-.024,1.6.009,2.4.021.485-.241.486-.6.5-.395.014-.572-.079-.565-.524.024-1.574.021-3.148,0-4.723,0-.419.135-.547.551-.552.438,0,.628.1.607.578C5298.169,6695.9,5298.193,6696.675,5298.194,6697.449Z" transform="translate(-19010.566 -15950.473)"/><path class="b" d="M5381.712,6579.7a15.4,15.4,0,0,0-.061-3.514,19.357,19.357,0,0,1-.278-3.078c-.044-.539.1-.754.691-.724,1.015.051,2.035.033,3.052.007.408-.011.593.088.549.527-.109,1.094.251,2.229-.385,3.284a2.3,2.3,0,0,0-.108,1.1c0,3.936-.017,7.871.015,11.805.006.646-.181.83-.8.8a25.919,25.919,0,0,0-2.649,0c-.5.023-.677-.173-.822-.636-.664-2.112-1.376-4.208-2.073-6.31-.047-.142-.054-.313-.238-.4a9.791,9.791,0,0,0,.071,3.235,12.491,12.491,0,0,1,.365,3.522c.036.379-.045.6-.508.583-1.07-.029-2.142-.015-3.212,0-.315,0-.5-.052-.495-.432a9.7,9.7,0,0,1,.041-2.479c.979-3.229.207-6.515.45-9.761a3.9,3.9,0,0,0-.363-1.756,7.907,7.907,0,0,1-.106-2.855c0-.292.261-.208.428-.209,1.231-.007,2.464.013,3.695-.017.449-.011.511.253.606.578q.923,3.15,1.868,6.295c.044.149.111.292.167.438Z" transform="translate(-19075.783 -15847.943)"/><path class="b" d="M5239.611,6580.414c0-1.706-.025-2.992,0-4.275.08-3.434,1.854-5.037,5.281-4.775a8.021,8.021,0,0,1,4.209,1.615.866.866,0,0,1,.406.8c-.022,1.1-.018,2.194,0,3.292,0,.377-.061.6-.524.584-1.017-.03-2.035-.024-3.052,0-.4.009-.515-.149-.51-.513a7.282,7.282,0,0,0-.05-1.121c-.061-.426-.16-.925-.693-.938s-.665.471-.764.892a3.986,3.986,0,0,0-.091.875c-.007,2.383-.014,4.766,0,7.147,0,.627-.032,1.463.816,1.478s.795-.823.759-1.413c-.031-.546.4-1.29-.536-1.592-.105-.033-.062-.6-.049-.917.028-.744-.317-1.7.129-2.172s1.418-.117,2.158-.146c.642-.025,1.286.007,1.928-.009.343-.009.47.116.469.466q-.015,3.775,0,7.55c0,.52-.368.764-.729.972a8.108,8.108,0,0,1-6.5.785c-1.9-.55-2.385-2.134-2.57-3.866C5239.518,6583.42,5239.65,6581.705,5239.611,6580.414Z" transform="translate(-18962.361 -15847.07)"/><path class="b" d="M4958.787,6550.064c-.315-3.448-1.9-5.34-5.713-5.254-.775.017-1.551,0-2.328,0-1.177,0-2.354.014-3.532-.009-.419-.008-.566.128-.558.55.022,1.07,0,2.14.011,3.21,0,.154,0,.368.091.452a2.234,2.234,0,0,1,.506,1.87c.009,2.943,0,5.886.008,8.829,0,1.026.284,2.1-.554,2.974-.086.091-.05.31-.05.468,0,.963.022,1.927-.009,2.889-.015.451.106.61.576.595,1.016-.033,2.034.01,3.05-.014.714-.017,1.66.312,2.072-.147.352-.393.13-1.321.12-2.012a4.753,4.753,0,0,0-.4-2.463c-.552-.988-.1-1.544,1.038-1.551.268,0,.536.009.8,0,2.854-.127,4.458-1.577,4.806-4.377A28,28,0,0,0,4958.787,6550.064Zm-4.769,5.03a1.352,1.352,0,0,1-.613,1.158,1.416,1.416,0,0,1-1.219.23c-.378-.156-.158-.623-.169-.947-.028-.828-.009-1.657-.008-2.486,0-.962.023-1.925-.008-2.887-.016-.487.178-.6.618-.542a1.39,1.39,0,0,1,1.387,1.388A29.478,29.478,0,0,1,4954.018,6555.094Z" transform="translate(-18716.52 -15824.803)"/><path class="b" d="M5103.568,6588.936a8.79,8.79,0,0,0-.383-2.952,6.15,6.15,0,0,1-.107-2.459c.009-1.129-.231-2.091-1.646-2.468a3.2,3.2,0,0,0,1.812-2.914,19.159,19.159,0,0,0,.033-1.924c-.077-2.6-1.284-3.7-3.92-3.932-2.046-.18-4.12-.042-6.182-.043-.175,0-.44-.061-.443.2a9.982,9.982,0,0,0,.11,3.18,5.458,5.458,0,0,1,.375,1.682q.015,3.814,0,7.628a2.016,2.016,0,0,1-.121.944c-.586,1.029-.287,2.138-.388,3.21-.054.574.209.662.7.652,1.285-.025,2.571-.036,3.855.007.557.019.712-.185.657-.691a11.241,11.241,0,0,0-.346-2.958,9.8,9.8,0,0,1-.074-3.2,1.28,1.28,0,0,1,1.234,1.377,31.348,31.348,0,0,0,.279,4.56c.114.736.408.973,1.141.915a18.321,18.321,0,0,1,2.568,0C5103.354,6589.788,5103.653,6589.647,5103.568,6588.936Zm-4.8-10.061a.959.959,0,0,1-1.134.545c-.394-.1-.161-.539-.194-.824a8.219,8.219,0,0,1-.009-.957h0a5.139,5.139,0,0,1,.011-.876c.048-.272-.247-.717.221-.793a.994.994,0,0,1,1.13.578A2.9,2.9,0,0,1,5098.768,6578.875Z" transform="translate(-18839.045 -15847.79)"/><path class="b" d="M5317.521,6579.985c0-2.021.035-3.575-.008-5.126-.065-2.376-1.145-3.871-3.03-4.26a9.214,9.214,0,0,0-2.556-.166c-2.758.2-4.252,1.586-4.4,4.336a82.7,82.7,0,0,0,.014,9.471,4.178,4.178,0,0,0,4.075,4.248,9.509,9.509,0,0,0,2.242-.023,3.676,3.676,0,0,0,3.537-3.334A42.014,42.014,0,0,0,5317.521,6579.985Zm-4.2,3.287a3.858,3.858,0,0,1-.069.795c-.071.33-.247.614-.631.622a.681.681,0,0,1-.705-.541,3.27,3.27,0,0,1-.156-.86q-.02-3.849,0-7.7a2.716,2.716,0,0,1,.119-.7.731.731,0,0,1,.834-.586c.489.039.6.394.608.793.01,1.47,0,2.94,0,4.41h0C5313.322,6580.76,5313.325,6582.017,5313.319,6583.272Z" transform="translate(-19019.254 -15846.291)"/><path class="b" d="M5176.974,6585.89a15.309,15.309,0,0,1-.686-3.771q-.677-4.561-1.317-9.125c-.067-.489-.28-.6-.738-.577-.774.04-1.552.011-2.329.01-.83,0-1.662.024-2.49-.011-.436-.019-.619.117-.676.553q-.482,3.7-1,7.393a38.029,38.029,0,0,1-.851,5.376,13.993,13.993,0,0,0-.406,3.605c-.01.311-.007.586.442.581,1.232-.015,2.464-.006,3.7,0,.24,0,.473-.043.438-.327-.129-1.067.282-2.165-.312-3.215-.431-.761-.17-1.09.7-1.09.161,0,.321,0,.482,0,.766.007.979.211.61.886-.575,1.052-.3,2.134-.367,3.206-.029.434.137.549.549.542q2.088-.031,4.177,0c.413.007.581-.108.558-.537A9.494,9.494,0,0,0,5176.974,6585.89Zm-5.471-3.982c-.438.014-.563-.149-.508-.563.174-1.32.331-2.642.495-3.963l.136.021c.155,1.319.294,2.641.474,3.957C5172.172,6581.892,5171.9,6581.9,5171.5,6581.908Z" transform="translate(-18900.998 -15847.976)"/><path class="b" d="M5029.132,6586.695a4.78,4.78,0,0,1-.582-1.646c-.243-1.611-.468-3.226-.7-4.838-.345-2.38-.686-4.761-1.047-7.138-.041-.264.064-.657-.478-.648-1.74.029-3.48.016-5.221.005-.323,0-.468.087-.513.438-.308,2.386-.634,4.77-.964,7.152a42.006,42.006,0,0,1-.865,5.616,15.059,15.059,0,0,0-.434,3.768c-.01.365.094.538.494.533,1.205-.018,2.41-.008,3.615-.01.189,0,.429.015.426-.237a8.785,8.785,0,0,0-.1-2.943c-.542-1.478-.613-1.452.965-1.444.776,0,1.029.234.667.858-.56.968-.313,1.969-.415,2.958-.073.707.22.875.86.819.585-.05,1.177-.011,1.766-.011a14,14,0,0,1,1.766.014c.805.1,1.047-.208.939-.969S5029.526,6587.4,5029.132,6586.695Zm-5.686-4.781c-.38-.018-.682.007-.606-.541.183-1.315.324-2.635.481-3.953l.141,0c.164,1.309.322,2.619.5,3.927C5024.011,6581.761,5023.886,6581.935,5023.446,6581.914Z" transform="translate(-18776.664 -15847.983)"/><path class="a" d="M5232.3,6699.383q-.788-.418-1.574-.841a1.76,1.76,0,0,1,.753-.127c2.212-.051,2.281-.547,2.2-2.227-.047-.978-.324-1.357-1.291-1.484-1.839-.242-3.688-.059-5.532-.119-.374-.012-.44.175-.438.492.008,1.606.019,3.211-.005,4.817-.008.51.291.458.621.472.346.015.578-.039.529-.467a6.036,6.036,0,0,1-.005-.722c0-.856.21-1,.992-.613a20.153,20.153,0,0,1,2.4,1.281,4.936,4.936,0,0,0,3.145.488C5233.359,6699.942,5232.83,6699.664,5232.3,6699.383Zm-3.912-2.107c-.272-.013-.693.174-.785-.158a3.711,3.711,0,0,1,0-1.266c.012-.14.2-.145.336-.141,1.3.033,2.609-.064,3.913.055.592.055.722.363.7.907-.024.592-.378.615-.806.611-.587,0-1.173,0-1.759,0C5229.455,6697.285,5228.92,6697.3,5228.389,6697.276Z" transform="translate(-18951.295 -15950.492)"/></g></g></svg>