<svg xmlns="http://www.w3.org/2000/svg" width="124.973" height="30.153" viewBox="0 0 124.973 30.153"><defs><style>.a{fill:#d6a439;}.b{fill:#002843;}</style></defs><g transform="translate(13984.001 9371)"><path class="a" d="M1291.4,3521.66c.054-.444.1-.889.165-1.332a11.934,11.934,0,0,1,.665-2.556,2.5,2.5,0,0,0,2.116,1.56c.147.03.269.03.261.249a14.956,14.956,0,0,0,1.137,6.3c.01.024.014.051.029.106a5.824,5.824,0,0,1-3.81-1.432,1.492,1.492,0,0,1-.515-1.17.513.513,0,0,0-.047-.315Z" transform="translate(-15275.398 -12876.545)"/><path class="a" d="M1391.074,3436.429a.231.231,0,0,1,.048.252,6.974,6.974,0,0,0,.038,3.078c.046.256.049.519.077.779.017.156-.037.182-.184.136a12.292,12.292,0,0,0-2.057-.443c-.173-.023-.2-.079-.17-.24a5.684,5.684,0,0,1,1.327-2.677,11.113,11.113,0,0,1,.867-.885Z" transform="translate(-15358.175 -12807.429)"/><path class="a" d="M1365.334,3436.429c.119.237.033.495.073.742a7.023,7.023,0,0,0,.7,2.056,2.974,2.974,0,0,1,.285.725c.026.119.005.16-.123.16a10.745,10.745,0,0,0-1.91.148c-.132.023-.172-.029-.191-.149a3.426,3.426,0,0,1,.077-1.39,6.029,6.029,0,0,1,1.031-2.292Z" transform="translate(-15337.201 -12807.429)"/><path class="a" d="M1319.851,3501.637c0-.243-.079-.528.022-.717.11-.205.426-.083.648-.1a16.366,16.366,0,0,0,4.054-.991,18.851,18.851,0,0,0,6.137-3.548c.122-.107.235-.223.358-.33.053-.046.116-.1.191-.039s.052.142,0,.214a6.424,6.424,0,0,1-.7.89,16.264,16.264,0,0,1-5.635,3.781c-.373.16-.375.156-.222.541a40.273,40.273,0,0,0,2.12,4.542c.107.194.079.254-.124.328a19.434,19.434,0,0,1-5.31,1.17.254.254,0,0,1-.3-.182A16.676,16.676,0,0,1,1319.851,3501.637Z" transform="translate(-15299.55 -12857.944)"/><path class="a" d="M1332.975,3541.13a23.865,23.865,0,0,0,13.915-6.8c.072-.073.148-.2.265-.11s0,.195-.053.279a15.28,15.28,0,0,1-4.112,4.022,20.7,20.7,0,0,1-3.459,1.94c-.244.108-.222.184-.1.373a30.819,30.819,0,0,0,2.669,3.534c.126.142.124.193-.059.269a21.784,21.784,0,0,1-4.607,1.339.335.335,0,0,1-.276-.063,14.487,14.487,0,0,1-4.168-4.728A.221.221,0,0,1,1332.975,3541.13Z" transform="translate(-15310.726 -12890.495)"/><path class="a" d="M1294.638,3570.664a5.09,5.09,0,0,0,2.793,1.32,7.864,7.864,0,0,0,1.479.139.27.27,0,0,1,.283.147,15.253,15.253,0,0,0,4.091,4.8.585.585,0,0,1,.055.07c-.266.015-.512.04-.758.041a10.353,10.353,0,0,1-3.719-.571,4.5,4.5,0,0,1-2.286-1.718,14.131,14.131,0,0,1-1.917-3.995c-.015-.052-.028-.1-.037-.157C1294.619,3570.722,1294.629,3570.7,1294.638,3570.664Z" transform="translate(-15278.137 -12921.486)"/><path class="a" d="M1375.387,3587a24.953,24.953,0,0,0,2.258,1.931,12.1,12.1,0,0,1-1.64.721,1.074,1.074,0,0,1-.559-.043,15.068,15.068,0,0,1-4.96-1.677c-.038-.021-.074-.047-.129-.081.566-.154,1.116-.286,1.655-.452a20.509,20.509,0,0,0,8.155-4.72c.086-.082.179-.287.314-.162s-.059.236-.132.332a15.062,15.062,0,0,1-4.592,3.922l-.3.176A.806.806,0,0,0,1375.387,3587Z" transform="translate(-15342.489 -12931.523)"/><path class="a" d="M1322.534,3473.63c.172.75.34,1.5.517,2.249q.485,2.046,1.168,4.035c.066.194.035.25-.161.307a13.12,13.12,0,0,1-3.5.6c-.17,0-.259-.01-.24-.228a16.987,16.987,0,0,1,2.039-6.735c.039-.071.08-.14.124-.208C1322.486,3473.636,1322.51,3473.637,1322.534,3473.63Z" transform="translate(-15299.968 -12839.038)"/><path class="a" d="M1335.579,3618.639a12.613,12.613,0,0,1-5.429.163,12.75,12.75,0,0,1-5.767-2.653,11.287,11.287,0,0,0,2.334.536,12.694,12.694,0,0,0,2.942,0,.761.761,0,0,1,.51.1A14.4,14.4,0,0,0,1335.579,3618.639Z" transform="translate(-15303.426 -12960.135)"/><path class="a" d="M1455.66,3490.035c0,.093-.066.129-.132.161a9.1,9.1,0,0,0-3.028,2.645,6.843,6.843,0,0,1-.826.854c-.113.1-.161.088-.219-.057a11.741,11.741,0,0,0-1.341-2.458c-.128-.18-.073-.249.083-.349a6.429,6.429,0,0,1,2.633-.912,9.341,9.341,0,0,1,2.588,0C1455.513,3489.927,1455.623,3489.918,1455.66,3490.035Z" transform="translate(-15410.197 -12852.8)"/><path class="a" d="M1304.748,3476.9c-.377.69-.749,1.375-1.063,2.09a15.839,15.839,0,0,0-1.228,4.317c-.023.176-.068.217-.245.17a2.562,2.562,0,0,1-1.434-.805.956.956,0,0,1-.134-1.18A13.186,13.186,0,0,1,1304.748,3476.9Z" transform="translate(-15283.132 -12841.82)"/><path class="a" d="M1463.641,3518.46a8.447,8.447,0,0,1,3.071.745c.078.036.2.049.194.158-.009.128-.139.116-.234.135a7.576,7.576,0,0,0-2.913,1.294,8.261,8.261,0,0,1-1.342.805c-.135.06-.186.049-.2-.112a11.608,11.608,0,0,0-.548-2.524c-.059-.178-.01-.232.15-.278A6.093,6.093,0,0,1,1463.641,3518.46Z" transform="translate(-15420.053 -12877.129)"/><path class="a" d="M1438.146,3465.117a1.37,1.37,0,0,1-.121.132,7.672,7.672,0,0,0-1.939,2.795,8.076,8.076,0,0,1-.6,1.144c-.082.126-.138.127-.234.01a12.153,12.153,0,0,0-1.836-1.828c-.155-.124-.089-.189,0-.291a6.183,6.183,0,0,1,2.53-1.6,7.974,7.974,0,0,1,1.964-.47C1438.01,3464.994,1438.113,3464.959,1438.146,3465.117Z" transform="translate(-15395.987 -12831.7)"/><path class="a" d="M1465.092,3546.558c0-.216.013-.433,0-.648-.014-.187.045-.247.237-.247a5.111,5.111,0,0,1,1.922.386,7.879,7.879,0,0,1,2.216,1.326c.052.044.138.088.109.169s-.132.076-.211.066a6.51,6.51,0,0,0-2.844.378,10.167,10.167,0,0,1-1.377.386c-.17.03-.26.032-.217-.2A13.18,13.18,0,0,0,1465.092,3546.558Z" transform="translate(-15422.832 -12900.243)"/><path class="a" d="M1416.234,3446.369c-.024.044-.047.093-.076.137a6.952,6.952,0,0,0-.955,2.921,8.933,8.933,0,0,1-.212,1.112c-.048.176-.084.261-.287.121a10.822,10.822,0,0,0-1.966-1.068c-.188-.079-.215-.158-.125-.336a6.039,6.039,0,0,1,2.1-2.247,7.3,7.3,0,0,1,1.3-.712C1416.1,3446.26,1416.2,3446.2,1416.234,3446.369Z" transform="translate(-15378.351 -12815.778)"/><path class="a" d="M1457.394,3573.724c.2-.473.42-.927.571-1.406.079-.248.165-.494.233-.746.037-.138.089-.161.227-.12a4.62,4.62,0,0,1,1.568.825,7.225,7.225,0,0,1,1.605,1.739c.04.061.135.122.06.208-.058.067-.139.022-.2-.005a6.663,6.663,0,0,0-2.917-.419A3.681,3.681,0,0,1,1457.394,3573.724Z" transform="translate(-15416.443 -12922.141)"/><path class="a" d="M1443.929,3596.929a13.6,13.6,0,0,0,1.248-1.661c.075-.121.142-.1.238-.034a4.209,4.209,0,0,1,.55.434,5.852,5.852,0,0,1,1.524,2.535c.021.068.1.153,0,.217-.076.05-.137-.022-.188-.063a6.162,6.162,0,0,0-2.418-1.078A3.713,3.713,0,0,1,1443.929,3596.929Z" transform="translate(-15405.002 -12942.318)"/><path class="a" d="M1428.492,3617.829c0,.073,0,.127,0,.181s0,.114-.069.127-.078-.039-.1-.074a4.748,4.748,0,0,0-.438-.548,7.379,7.379,0,0,0-1.417-1.072c-.182-.115-.352-.249-.526-.376-.088-.064-.119-.124,0-.2a11.677,11.677,0,0,0,1.358-1.021c.126-.11.17-.009.229.061a3.986,3.986,0,0,1,.8,1.662A6.508,6.508,0,0,1,1428.492,3617.829Z" transform="translate(-15389.648 -12958.985)"/><path class="a" d="M1339.7,3445.077c.225,1.22,1.109,1.976,1.781,2.893a13.848,13.848,0,0,0-1.762.659c-.119.058-.161-.014-.2-.1a2.564,2.564,0,0,1-.206-.778,5.709,5.709,0,0,1,.2-2.371,1.314,1.314,0,0,1,.071-.174A.985.985,0,0,1,1339.7,3445.077Z" transform="translate(-15316.075 -12814.776)"/><path class="b" d="M1546.979,3492.053a7.642,7.642,0,0,1,3.623.839.43.43,0,0,1,.264.357,27.148,27.148,0,0,1,.249,3.581c0,.139-.037.182-.18.188-.723.03-.72.033-.9-.646a7.27,7.27,0,0,0-.72-1.823,3.189,3.189,0,0,0-3.911-1.311,2.342,2.342,0,0,0-1.489,2.079,2.949,2.949,0,0,0,1.386,2.754,18.489,18.489,0,0,0,2.455,1.464,16.135,16.135,0,0,1,2.788,1.792,4.816,4.816,0,0,1,.884,6.39,5.1,5.1,0,0,1-2.94,1.939,10.163,10.163,0,0,1-7.041-.553.553.553,0,0,1-.306-.341,12.566,12.566,0,0,1-.682-4.51c0-.15.068-.181.181-.2.291-.06.583-.115.87-.188.161-.041.211.006.248.166a10.723,10.723,0,0,0,.854,2.518,4.2,4.2,0,0,0,2.472,2.312,3.542,3.542,0,0,0,2,.071,2.593,2.593,0,0,0,1.879-2.237,3.317,3.317,0,0,0-1.148-3.046,12.666,12.666,0,0,0-2.356-1.567,19.142,19.142,0,0,1-2.9-1.866,4.675,4.675,0,0,1-1.016-5.946,4.384,4.384,0,0,1,2.741-1.916A9.531,9.531,0,0,1,1546.979,3492.053Z" transform="translate(-15487.018 -12854.691)"/><path class="b" d="M1730.334,3528.859a5.824,5.824,0,0,1,2.64-1.353,6.557,6.557,0,0,1,2.527-.067,3.185,3.185,0,0,1,2.683,2.615,8.368,8.368,0,0,1,.213,2.009q0,2.69,0,5.38a3.653,3.653,0,0,0,.053.672.762.762,0,0,0,.727.709,5.91,5.91,0,0,0,.619.061c.157.006.217.056.219.224,0,.48.012.48-.455.48-1.886,0-3.773-.005-5.66.006-.232,0-.306-.064-.271-.283a.756.756,0,0,0,0-.216c-.02-.153.047-.207.2-.211.171,0,.342-.027.511-.049.617-.078.85-.322.872-.954.067-1.919.053-3.837,0-5.756a5.729,5.729,0,0,0-.255-1.593,2.218,2.218,0,0,0-2.047-1.65,2.9,2.9,0,0,0-2.4.821.385.385,0,0,0-.146.3q.014,3.893.022,7.786a1.84,1.84,0,0,0,.045.347.744.744,0,0,0,.716.688,5.548,5.548,0,0,0,.619.059c.162.005.213.064.214.228,0,.477.01.477-.454.477-1.869,0-3.737-.005-5.606.006-.234,0-.287-.065-.275-.284.025-.436-.075-.405.4-.433a3.5,3.5,0,0,0,.456-.058c.452-.087.658-.361.689-.927.018-.333.022-.667.022-1,0-1.875-.008-3.749.007-5.623a8.085,8.085,0,0,0-.022-1.45c-.01-.062-.018-.125-.033-.186-.15-.624-.393-.789-1.022-.7-.167.022-.422.168-.475.078-.088-.149-.026-.382-.041-.579-.009-.116.051-.157.144-.187a18.2,18.2,0,0,1,4.275-.877c.233-.018.311.033.3.28C1730.316,3528.026,1730.334,3528.413,1730.334,3528.859Z" transform="translate(-15644.35 -12884.681)"/><path class="b" d="M1636.378,3532.546c.026,1.288-.048,2.856.048,4.422a2.915,2.915,0,0,0,.144.766.708.708,0,0,0,.708.52c.126,0,.254-.008.379.007s.284-.094.32,0a1.845,1.845,0,0,1,.065.586c0,.083-.1.086-.167.108a32.45,32.45,0,0,1-3.623.959c-.129.027-.175-.026-.226-.124-.167-.318-.351-.628-.509-.95-.081-.167-.15-.176-.3-.079a7.31,7.31,0,0,1-2.482,1.082,6.73,6.73,0,0,1-3.159-.1,2.933,2.933,0,0,1-2.2-2.5,10.316,10.316,0,0,1-.162-1.908q0-2.3,0-4.595a5.25,5.25,0,0,0-.094-1.1c-.146-.681-.438-.867-1.124-.722-.407.086-.389.085-.414-.328-.016-.263.076-.366.323-.442a19,19,0,0,1,4.151-.814c.226-.017.3.023.3.277q-.014,3.784,0,7.568a5.167,5.167,0,0,0,.2,1.412,2.383,2.383,0,0,0,2.293,1.835,3.65,3.65,0,0,0,2.241-.551.261.261,0,0,0,.147-.254c-.006-2.478-.005-4.955-.014-7.433a2.381,2.381,0,0,0-.141-.821.685.685,0,0,0-.859-.5c-.089.014-.178.029-.266.047-.349.075-.328.075-.355-.291-.021-.29.073-.407.361-.5a18.242,18.242,0,0,1,4.179-.808c.2-.013.235.034.234.22C1636.375,3529.114,1636.378,3530.69,1636.378,3532.546Z" transform="translate(-15557.648 -12884.653)"/><path class="b" d="M1859.018,3511.657c-1.932,0-3.864,0-5.8.006-.236,0-.313-.052-.3-.3.021-.407.006-.4.421-.452.267-.034.531-.1.8-.152a.69.69,0,0,0,.561-.615,8.53,8.53,0,0,0,.091-1.535q.008-5.529,0-11.058a8.693,8.693,0,0,0-.089-1.482.879.879,0,0,0-.736-.79c-.283-.056-.566-.114-.852-.143-.155-.016-.187-.073-.189-.216-.005-.479-.011-.479.461-.479q3.182,0,6.364,0c.123,0,.333-.078.29.178-.033.2.174.513-.251.546a7.4,7.4,0,0,0-.747.113.9.9,0,0,0-.77.822,8.6,8.6,0,0,0-.073,1.456q-.008,6.232-.01,12.463c0,.212.062.287.268.334a8.915,8.915,0,0,0,3.512.189,2.943,2.943,0,0,0,2.475-2.02q.284-.8.537-1.609c.049-.156.12-.2.269-.163.114.028.23.042.345.065.393.08.4.082.361.488a19.086,19.086,0,0,1-.8,4.122.276.276,0,0,1-.318.23C1862.9,3511.655,1860.959,3511.657,1859.018,3511.657Z" transform="translate(-15752.518 -12856.716)"/><path class="b" d="M1996.47,3500.645c-1.056,0-2.112-.006-3.168,0-.211,0-.3-.051-.264-.266a.619.619,0,0,0,0-.189c-.028-.188.053-.257.238-.257a3.171,3.171,0,0,0,.748-.1.729.729,0,0,0,.574-.609,3.069,3.069,0,0,0,.063-.644c0-3.3-.017-6.6,0-9.894a8.079,8.079,0,0,1,1.7-5.261,5.225,5.225,0,0,1,4.606-1.9,4.476,4.476,0,0,1,2.241.7.289.289,0,0,1,.146.373,3.5,3.5,0,0,1-.827,1.554c-.218.232-.273.236-.5.033a5.406,5.406,0,0,0-2.066-1.289,1.346,1.346,0,0,0-1.778.877,5.288,5.288,0,0,0-.318,1.553c-.091,1.1-.054,2.2-.064,3.3,0,.143.042.176.181.184.946.053,1.892.1,2.835.2.187.02.24.066.238.252-.007.477,0,.474-.466.509-.863.066-1.726.139-2.589.2-.14.01-.2.035-.2.2q.01,4.244.01,8.489a3.567,3.567,0,0,0,.046.457.8.8,0,0,0,.785.778,7.564,7.564,0,0,0,1.053.06c.193,0,.267.054.261.262-.013.436,0,.437-.445.437Z" transform="translate(-15871.566 -12845.735)"/><path class="b" d="M1948.5,3533.167c.024,1.36-.043,3.045.031,4.729.033.756.224.958.971,1.071a2.638,2.638,0,0,0,.378.027c.178,0,.244.067.239.258-.012.451,0,.451-.453.451-1.877,0-3.754,0-5.631,0-.221,0-.325-.027-.308-.287.025-.391.006-.392.409-.429.116-.011.234-.015.349-.036.62-.115.841-.347.851-.982.042-2.594.037-5.188,0-7.783,0-.009,0-.018,0-.027-.123-1.061-.419-1.325-1.409-1.047-.172.048-.2-.007-.2-.161-.011-.542-.017-.545.5-.709a17.916,17.916,0,0,1,4.021-.778c.2-.017.256.032.255.239C1948.5,3529.42,1948.5,3531.132,1948.5,3533.167Z" transform="translate(-15829.674 -12884.782)"/><path class="b" d="M1953.489,3492.484a1.822,1.822,0,1,1,.014-3.644,1.825,1.825,0,0,1,1.822,1.819A1.8,1.8,0,0,1,1953.489,3492.484Z" transform="translate(-15836.412 -12851.961)"/><path class="b" d="M2052.346,3534.116c.3-.065.6-.139.892-.213a41.462,41.462,0,0,0,6.331-2.04c.483-.208.485-.214.364-.724a4.535,4.535,0,0,0-1.793-2.885,5.038,5.038,0,0,0-2.379-.8,5.834,5.834,0,0,0-5.633,2.392,6.764,6.764,0,0,0-1.212,4.729,5.8,5.8,0,0,0,1.144,3.177,5.884,5.884,0,0,0,4.779,2.309,8.329,8.329,0,0,0,4.76-1.4c.371-.258.357-.254.2-.671-.077-.2-.151-.205-.328-.116a5.84,5.84,0,0,1-3.164.629,4.017,4.017,0,0,1-3.02-1.567,6.374,6.374,0,0,1-1.077-2.649C2052.179,3534.15,2052.247,3534.138,2052.346,3534.116Zm-.151-1.2c-.163.028-.186-.027-.175-.161.008-.1,0-.2,0-.307a8.433,8.433,0,0,1,.438-2.45,3.954,3.954,0,0,1,.217-.493,1.9,1.9,0,0,1,3.178-.431,3.925,3.925,0,0,1,.941,2.083c.124.672.113.67-.544.862A36.309,36.309,0,0,1,2052.2,3532.913Z" transform="translate(-15919.027 -12884.733)"/></g></svg>