<svg xmlns="http://www.w3.org/2000/svg" width="48.731" height="43.024" viewBox="0 0 48.731 43.024">
  <g id="Group_6505" data-name="Group 6505" transform="translate(11758.999 2841)">
    <g id="Group_4527" data-name="Group 4527" transform="translate(1802 6446)">
      <path id="Path_851" data-name="Path 851" d="M6591.542,6619.313c0-3.471-.012-6.94,0-10.411a9.65,9.65,0,0,1,3.994-8.213,8.731,8.731,0,0,1,7.277-1.4c.061.013.119.04.179.056,1.769.479,1.639.176,1.148,2.05-.773,2.944-2.849,4.742-5.5,5.99a5.58,5.58,0,0,0-2.528,1.619,4.72,4.72,0,0,0-.88,2.732c-.025,4.967,0,9.935-.017,14.9,0,.453.157.553.577.549,2.1-.018,4.2.009,6.3-.022a.91.91,0,0,1,.953.612,2.743,2.743,0,0,1,.108,1.887,1.02,1.02,0,0,1-1.155.852c-3.307-.04-6.614-.03-9.921,0-.491,0-.584-.153-.583-.6.015-3.534.008-7.067.008-10.6Z" transform="translate(-20116.729 -15875.105)" fill="#82ba51"/>
      <path id="Path_852" data-name="Path 852" d="M6319.363,6700.887h3.433c.857,0,.856,0,.825.834a14.208,14.208,0,0,1-.9,4.862,6.708,6.708,0,0,1-5.654,4.257,10.55,10.55,0,0,1-4.878-.15,9.63,9.63,0,0,1-6.592-7.51,10.673,10.673,0,0,1,1.252-8.16c2.3-3.824,5.69-5.2,10.054-4.443a9.48,9.48,0,0,1,3.917,1.515c1.407.989,1.3,2.35-.252,3.164a1.76,1.76,0,0,1-1.957-.121,6.213,6.213,0,0,0-8.005.892,5.863,5.863,0,0,0-1.333,3.286,8.881,8.881,0,0,0,.964,5.656,4.818,4.818,0,0,0,3.143,2.235,6.155,6.155,0,0,0,4.483-.482,3.566,3.566,0,0,0,1.551-1.626c.16-.334.076-.442-.29-.437-1.165.013-2.33-.015-3.495.013a1,1,0,0,1-1.094-.792,3.125,3.125,0,0,1,.1-2.3,1.024,1.024,0,0,1,1.054-.693C6316.909,6700.895,6318.136,6700.887,6319.363,6700.887Z" transform="translate(-19866.279 -15955.027)" fill="#82ba51"/>
      <path id="Path_853" data-name="Path 853" d="M6474.428,6705.374c0-2.993.013-5.987-.012-8.981,0-.525.093-.715.671-.71q4.93.042,9.861,0a1.027,1.027,0,0,1,1.106.789,2.787,2.787,0,0,1,.065,1.537c-.2.863-.45,1.046-1.338,1.046-2.039,0-4.079.01-6.117-.009-.388,0-.568.074-.56.5.024,1.226.033,2.453.015,3.679-.006.453.177.559.595.553,1.352-.02,2.705.01,4.057-.014a.74.74,0,0,1,.767.483,2.672,2.672,0,0,1,.2,1.761c-.205.946-.417,1.108-1.381,1.112-1.228.006-2.456.017-3.683,0-.434-.008-.568.121-.563.569.026,2.266,0,4.532.029,6.8.006.485-.154.6-.6.585-.873-.028-1.748-.027-2.622,0-.419.015-.5-.132-.5-.53C6474.437,6711.486,6474.428,6708.431,6474.428,6705.374Z" transform="translate(-20014.281 -15959.671)" fill="#82ba51"/>
      <path id="Path_854" data-name="Path 854" d="M6491.444,6607.74c-3.976.164-8.061-3.224-8.837-7.407-.114-.614.034-.908.622-1.084a9.265,9.265,0,0,1,11.907,7.058c.088.513-.019.754-.584.927A9.743,9.743,0,0,1,6491.444,6607.74Z" transform="translate(-20021.418 -15874.931)" fill="#82ba51"/>
      <path id="Path_855" data-name="Path 855" d="M6561.221,6518.543a8.688,8.688,0,0,1,2.824-6.527c.7-.66.723-.659,1.439.025a8.71,8.71,0,0,1,2.723,5.5,8.206,8.206,0,0,1-2.445,7.13c-1.154,1.113-.982.971-1.983-.019A7.892,7.892,0,0,1,6561.221,6518.543Z" transform="translate(-20090.24 -15798.525)" fill="#82ba51"/>
    </g>
  </g>
</svg>
