<svg width="22" height="22" viewBox="0 0 22 22" fill="none" xmlns="http://www.w3.org/2000/svg">
<path d="M2.53908 2.0625H9.79907L11.0573 7.72326L9.48346 9.29711C10.4084 10.7376 11.633 11.9619 13.0737 12.8865L14.6475 11.3135L20.3083 12.5717V19.8317H19.4621C16.2048 19.8368 13.0158 18.8974 10.2814 17.1274C8.2652 15.8226 6.54821 14.1056 5.24339 12.0894C3.47336 9.35495 2.53401 6.16599 2.53908 2.90865V2.0625ZM4.25423 3.75481C4.39655 6.39478 5.22767 8.95147 6.66492 11.1705C7.8397 12.9854 9.38537 14.5311 11.2003 15.7059C13.4193 17.1432 15.976 17.9743 18.616 18.1166V13.9289L15.1865 13.1674L13.347 15.0078L12.786 14.6888C10.656 13.4782 8.89255 11.7148 7.682 9.5848L7.363 9.0238L9.20338 7.18426L8.44184 3.75481H4.25423Z" fill="#A5C4DD"/>
</svg>
