<svg width="19" height="18" viewBox="0 0 19 18" fill="none" xmlns="http://www.w3.org/2000/svg">
<path d="M0.539083 0.0625H7.79907L9.0573 5.72326L7.48346 7.29711C8.40842 8.73761 9.63296 9.96186 11.0737 10.8865L12.6475 9.31349L18.3083 10.5717V17.8317H17.4621C14.2048 17.8368 11.0158 16.8974 8.28138 15.1274C6.2652 13.8226 4.54821 12.1056 3.24339 10.0894C1.47336 7.35495 0.534014 4.16599 0.539083 0.908653V0.0625ZM2.25423 1.75481C2.39655 4.39478 3.22767 6.95147 4.66492 9.17049C5.8397 10.9854 7.38537 12.5311 9.2003 13.7059C11.4193 15.1432 13.976 15.9743 16.616 16.1166V11.9289L13.1865 11.1674L11.347 13.0078L10.786 12.6888C8.656 11.4782 6.89255 9.7148 5.682 7.5848L5.363 7.0238L7.20338 5.18426L6.44184 1.75481H2.25423Z" fill="white"/>
</svg>
