<svg width="22" height="22" viewBox="0 0 22 22" fill="none" xmlns="http://www.w3.org/2000/svg">
<path d="M12.6799 13.4031L19 6.81896V16.125V16.1253C19.0001 16.3581 18.9153 16.5757 18.7729 16.7356C18.6358 16.8896 18.4571 16.9781 18.2739 16.9968L18.1826 17H3.8H3.79967C3.61047 17.0001 3.42078 16.926 3.27027 16.7806C3.12218 16.6376 3.02341 16.4354 3.00323 16.2101L3 16.109V6.81146L9.32707 13.4029C9.32714 13.403 9.32721 13.403 9.32727 13.4031C9.73525 13.8283 10.288 14.0879 10.8811 14.1196C11.4746 14.1513 12.0523 13.9518 12.5026 13.5699L12.5224 13.5531L12.5413 13.5354L12.6439 13.4388L12.6623 13.4214L12.6799 13.4031ZM5.619 4H16.3893L11.0045 9.60919L5.619 4Z" stroke="white" stroke-width="2"/>
</svg>
