<svg width="22" height="22" viewBox="0 0 22 22" fill="none" xmlns="http://www.w3.org/2000/svg">
<path d="M8.39108 1.46733C8.12728 1.69213 7.99538 1.80454 7.8545 1.89896C7.53156 2.11541 7.16887 2.26564 6.78746 2.34094C6.62107 2.3738 6.4483 2.38758 6.10277 2.41515C5.23461 2.48443 4.80052 2.51907 4.43837 2.64699C3.60074 2.94285 2.94188 3.60171 2.64602 4.43935C2.5181 4.8015 2.48346 5.23558 2.41418 6.10374C2.38661 6.44927 2.37282 6.62205 2.33997 6.78844C2.26466 7.16985 2.11444 7.53254 1.89799 7.85548C1.80356 7.99635 1.69115 8.12827 1.46632 8.39208C0.901428 9.05498 0.61896 9.38638 0.45334 9.73294C0.0702408 10.5345 0.0702408 11.4662 0.45334 12.2677C0.618971 12.6143 0.901418 12.9457 1.46631 13.6086C1.69109 13.8724 1.80357 14.0043 1.89799 14.1451C2.11444 14.4681 2.26466 14.8308 2.33997 15.2122C2.37282 15.3786 2.3866 15.5514 2.41417 15.8969C2.48345 16.7651 2.5181 17.1992 2.64602 17.5613C2.94188 18.399 3.60074 19.0578 4.43837 19.3537C4.80051 19.4815 5.23458 19.5162 6.10268 19.5855C6.44821 19.613 6.62107 19.6269 6.78746 19.6597C7.16887 19.735 7.53156 19.8853 7.8545 20.1017C7.99539 20.1961 8.12729 20.3085 8.39112 20.5333C9.05401 21.0983 9.3854 21.3807 9.73196 21.5464C10.5335 21.9294 11.4652 21.9294 12.2667 21.5464C12.6133 21.3807 12.9447 21.0983 13.6076 20.5333C13.8714 20.3085 14.0033 20.1961 14.1442 20.1017C14.4671 19.8853 14.8298 19.735 15.2112 19.6597C15.3776 19.6269 15.5504 19.613 15.8959 19.5855C16.764 19.5162 17.1982 19.4815 17.5603 19.3537C18.398 19.0578 19.0569 18.399 19.3527 17.5613C19.4806 17.1992 19.5152 16.7651 19.5846 15.897C19.6121 15.5515 19.6259 15.3786 19.6588 15.2122C19.7341 14.8308 19.8843 14.4681 20.1008 14.1451C20.1951 14.0043 20.3076 13.8724 20.5324 13.6086C21.0973 12.9457 21.3797 12.6143 21.5454 12.2677C21.9285 11.4662 21.9285 10.5345 21.5454 9.73294C21.3797 9.38638 21.0973 9.05499 20.5324 8.39209C20.3076 8.12827 20.1951 7.99636 20.1008 7.85548C19.8843 7.53254 19.7341 7.16985 19.6588 6.78844C19.6259 6.62205 19.6121 6.44928 19.5846 6.10375C19.5152 5.23564 19.4806 4.80148 19.3527 4.43935C19.0569 3.60171 18.398 2.94285 17.5603 2.64699C17.1982 2.51907 16.7641 2.48444 15.8959 2.41516C15.5504 2.38759 15.3776 2.3738 15.2112 2.34094C14.8298 2.26564 14.4671 2.11541 14.1442 1.89896C14.0033 1.80454 13.8714 1.69212 13.6076 1.46729C12.9447 0.902394 12.6133 0.619947 12.2667 0.454317C11.4652 0.0712174 10.5335 0.0712174 9.73196 0.454317C9.3854 0.619937 9.05397 0.902438 8.39108 1.46733Z" fill="#9BB997"/>
<path d="M15.8442 8.79088L15.8442 8.79088C16.247 8.38798 16.247 7.73476 15.8442 7.33187L15.8442 7.33186C15.4412 6.92898 14.788 6.92895 14.3851 7.33187C14.3851 7.33187 14.3851 7.33187 14.3851 7.33187L9.2367 12.4803L7.6151 10.8585L7.61509 10.8585C7.21219 10.4557 6.55898 10.4557 6.15608 10.8585L6.15607 10.8585C5.7532 11.2615 5.75317 11.9147 6.15608 12.3176C6.15608 12.3176 6.15608 12.3176 6.15608 12.3176L8.50722 14.6687L8.50723 14.6688C8.91014 15.0716 9.56335 15.0716 9.96622 14.6687L15.8442 8.79088Z" fill="white" stroke="white" stroke-width="0.3"/>
</svg>
