<svg width="71" height="71" viewBox="0 0 71 71" fill="none" xmlns="http://www.w3.org/2000/svg">
<path d="M51.4688 24.0938H43.8596L50.1981 16.8485C51.0171 15.9132 51.4688 14.7121 51.4688 13.4688V13.2578C51.4688 10.4279 49.1658 8.125 46.3359 8.125C43.506 8.125 41.2031 10.4279 41.2031 13.2578V14.9688H43.4844V13.2578C43.4844 11.6849 44.763 10.4062 46.3359 10.4062C47.9089 10.4062 49.1875 11.6849 49.1875 13.2578V13.4688C49.1875 14.16 48.9366 14.8262 48.4815 15.3463L41.2031 23.6649V26.375H51.4688V24.0938Z" fill="#6B5E7A"/>
<path d="M60.5938 26.375H62.875V22.9531H65.1562V20.6719H62.875V8.125H59.8888L53.75 20.4027V22.9531H60.5938V26.375ZM56.1658 20.6719L60.5938 11.8161V20.6719H56.1658Z" fill="#6B5E7A"/>
<path d="M56.4932 36.2152C64.6954 34.429 70.8594 27.1198 70.8594 18.3906C70.8594 8.32803 62.672 0.140625 52.6094 0.140625C43.8802 0.140625 36.571 6.30456 34.7848 14.5068C32.7716 14.0642 30.7174 13.8281 28.6562 13.8281C12.9327 13.8281 0.140625 26.6202 0.140625 42.3438C0.140625 58.0673 12.9327 70.8594 28.6562 70.8594C44.3798 70.8594 57.1719 58.0673 57.1719 42.3438C57.1719 40.2826 56.9358 38.2284 56.4932 36.2152ZM52.6094 2.42188C61.415 2.42188 68.5781 9.585 68.5781 18.3906C68.5781 27.1962 61.415 34.3594 52.6094 34.3594C43.8037 34.3594 36.6406 27.1962 36.6406 18.3906C36.6406 9.585 43.8037 2.42188 52.6094 2.42188ZM50.2836 41.2031H48.0469V43.4844H50.27C50.0019 48.5989 47.9613 53.2401 44.7413 56.816L43.173 55.2476L41.5601 56.8605L43.1285 58.4288C39.5526 61.65 34.9114 63.6894 29.7969 63.9575V61.7344H27.5156V63.9575C22.4011 63.6894 17.7599 61.6488 14.184 58.4288L15.7524 56.8605L14.1395 55.2476L12.5712 56.816C9.35003 53.2401 7.31059 48.5989 7.04255 43.4844H9.26562V41.2031H7.04255C7.31059 36.0886 9.35117 31.4474 12.5712 27.8715L14.1395 29.4399L15.7524 27.827L14.184 26.2587C17.7599 23.0375 22.4011 20.9981 27.5156 20.73V22.9531H29.7969V20.7164C31.4371 20.803 33.0613 21.0791 34.6502 21.5376C35.9688 29.0783 41.9206 35.0301 49.4624 36.3498C49.9198 37.9387 50.1958 39.5629 50.2836 41.2031ZM28.6562 68.5781C14.1897 68.5781 2.42188 56.8103 2.42188 42.3438C2.42188 27.8772 14.1897 16.1094 28.6562 16.1094C30.6022 16.1094 32.5424 16.3386 34.4415 16.7675C34.3936 17.3036 34.3594 17.8431 34.3594 18.3906C34.3594 18.629 34.3856 18.8617 34.3947 19.099C32.5127 18.6324 30.5896 18.3906 28.6562 18.3906C15.449 18.3906 4.70312 29.1365 4.70312 42.3438C4.70312 55.551 15.449 66.2969 28.6562 66.2969C41.8635 66.2969 52.6094 55.551 52.6094 42.3438C52.6094 40.4104 52.3676 38.4873 51.9011 36.6053C52.1383 36.6144 52.371 36.6406 52.6094 36.6406C53.1569 36.6406 53.6964 36.6064 54.2325 36.5585C54.6614 38.4576 54.8906 40.3978 54.8906 42.3438C54.8906 56.8103 43.1228 68.5781 28.6562 68.5781Z" fill="#6B5E7A"/>
<path d="M32.0781 42.3438C32.0781 40.8587 31.1211 39.604 29.7969 39.1317V25.2344H27.5156V39.1317C26.1914 39.604 25.2344 40.8587 25.2344 42.3438C25.2344 44.2303 26.7697 45.7656 28.6562 45.7656C29.1832 45.7656 29.676 45.6367 30.122 45.4223L38.1155 53.4158L39.7283 51.803L31.7348 43.8095C31.9492 43.3635 32.0781 42.8707 32.0781 42.3438ZM27.5156 42.3438C27.5156 41.7141 28.0266 41.2031 28.6562 41.2031C29.2859 41.2031 29.7969 41.7141 29.7969 42.3438C29.7969 42.9734 29.2859 43.4844 28.6562 43.4844C28.0266 43.4844 27.5156 42.9734 27.5156 42.3438Z" fill="#6B5E7A"/>
<path d="M62.8777 38.9219C60.9911 38.9219 59.4558 40.4572 59.4558 42.3438C59.4558 43.7707 60.3352 44.9946 61.5796 45.5067C60.8645 53.0166 57.5886 60.085 52.2812 65.4984L53.9101 67.0953C59.612 61.2804 63.1195 53.6781 63.862 45.6037C65.2673 45.1782 66.2995 43.887 66.2995 42.3438C66.2995 40.4572 64.7643 38.9219 62.8777 38.9219ZM62.8777 43.4844C62.248 43.4844 61.737 42.9734 61.737 42.3438C61.737 41.7141 62.248 41.2031 62.8777 41.2031C63.5073 41.2031 64.0183 41.7141 64.0183 42.3438C64.0183 42.9734 63.5073 43.4844 62.8777 43.4844Z" fill="#6B5E7A"/>
<path d="M6.1673 18.0861C11.4803 13.1574 18.3161 10.1268 25.4998 9.44128C26.0176 10.6766 27.2369 11.5469 28.657 11.5469C30.5436 11.5469 32.0789 10.0116 32.0789 8.125C32.0789 6.23841 30.5436 4.70312 28.657 4.70312C27.1149 4.70312 25.8225 5.73539 25.3971 7.14064C17.6739 7.85239 10.3249 11.1203 4.61719 16.4139L6.1673 18.0861ZM28.657 6.98438C29.2866 6.98438 29.7976 7.49537 29.7976 8.125C29.7976 8.75462 29.2866 9.26562 28.657 9.26562C28.0274 9.26562 27.5164 8.75462 27.5164 8.125C27.5164 7.49537 28.0274 6.98438 28.657 6.98438Z" fill="#6B5E7A"/>
</svg>
