<svg width="23" height="28" viewBox="0 0 23 28" fill="none" xmlns="http://www.w3.org/2000/svg">
<path d="M11.5 0C14.55 0 17.4751 1.21409 19.6317 3.37518C21.7884 5.53627 23 8.46734 23 11.5236C23 16.393 19.5854 21.6998 12.8446 27.5006C12.4698 27.8232 11.9919 28.0004 11.4978 28C11.0037 27.9996 10.5261 27.8215 10.1518 27.4982L9.706 27.1106C3.26364 21.461 0 16.2843 0 11.5236C0 8.46734 1.2116 5.53627 3.36827 3.37518C5.52494 1.21409 8.45001 0 11.5 0ZM11.5 7.09144C10.3269 7.09144 9.2019 7.55839 8.37241 8.38958C7.54292 9.22077 7.07692 10.3481 7.07692 11.5236C7.07692 12.6991 7.54292 13.8264 8.37241 14.6576C9.2019 15.4888 10.3269 15.9557 11.5 15.9557C12.6731 15.9557 13.7981 15.4888 14.6276 14.6576C15.4571 13.8264 15.9231 12.6991 15.9231 11.5236C15.9231 10.3481 15.4571 9.22077 14.6276 8.38958C13.7981 7.55839 12.6731 7.09144 11.5 7.09144Z" fill="white"/>
</svg>
