<svg width="74" height="68" viewBox="0 0 74 68" fill="none" xmlns="http://www.w3.org/2000/svg">
<path d="M72.3281 9.71429C72.9984 9.71429 73.5424 9.17029 73.5424 8.5V6.07143C73.5424 2.72243 70.82 0 67.471 0H65.0424C64.3721 0 63.8281 0.544 63.8281 1.21429C63.8281 1.88457 64.3721 2.42857 65.0424 2.42857H67.471C69.4794 2.42857 71.1138 4.063 71.1138 6.07143V8.5C71.1138 9.17029 71.6578 9.71429 72.3281 9.71429Z" fill="#C06A87"/>
<path d="M0.6875 61.928V59.4994C0.6875 58.8292 1.2315 58.2852 1.90179 58.2852H52.9018C53.5721 58.2852 54.1161 58.8292 54.1161 59.4994V61.928C54.1161 63.9364 55.7505 65.5709 57.7589 65.5709C58.4292 65.5709 58.9732 66.1149 58.9732 66.7852C58.9732 67.4554 58.4292 67.9994 57.7589 67.9994H6.75893C3.40993 67.9994 0.6875 65.277 0.6875 61.928ZM51.6875 61.928V60.7137H3.11607V61.928C3.11607 63.9364 4.7505 65.5709 6.75893 65.5709H52.9042C52.1416 64.5557 51.6875 63.2953 51.6875 61.928Z" fill="#C06A87"/>
<path d="M51.6989 38.8746C51.2254 39.3506 51.2254 40.118 51.6989 40.594L55.1329 44.028C55.6065 44.5016 56.3764 44.5016 56.8499 44.028C57.3235 43.5544 57.3235 42.7846 56.8499 42.311L53.4159 38.8746C52.9399 38.3986 52.1725 38.3986 51.6989 38.8746Z" fill="#C06A87"/>
<path d="M39.5301 46.1364C28.8177 46.1364 20.1016 37.4203 20.1016 26.7079C20.1016 15.9954 28.8177 7.2793 39.5301 7.2793C43.5616 7.2793 47.4278 8.5033 50.7137 10.8202C51.2626 11.2039 51.3937 11.964 51.0076 12.5104C50.6214 13.0593 49.8613 13.1929 49.3148 12.8019C46.4418 10.7764 43.0588 9.70787 39.5301 9.70787C30.1558 9.70787 22.5301 17.336 22.5301 26.7079C22.5301 36.0797 30.1558 43.7079 39.5301 43.7079C48.9044 43.7079 56.5301 36.0797 56.5301 26.7079C56.5301 24.9617 56.2678 23.2423 55.7481 21.5957C55.5466 20.9546 55.9011 20.2722 56.5423 20.073C57.1834 19.8763 57.8634 20.226 58.065 20.8647C58.6576 22.7493 58.9587 24.7164 58.9587 26.7079C58.9587 37.4203 50.2426 46.1364 39.5301 46.1364Z" fill="#C06A87"/>
<path d="M58.9587 43.7098C59.5804 43.7098 60.2021 43.9478 60.6757 44.4214L70.39 54.1357C71.3396 55.0852 71.3396 56.6201 70.39 57.5697C69.9164 58.0433 69.2947 58.2812 68.673 58.2812C68.0513 58.2812 67.4296 58.0433 66.956 57.5697L57.2417 47.8554C56.2921 46.9058 56.2921 45.371 57.2417 44.4214C57.7153 43.9478 58.337 43.7098 58.9587 43.7098ZM58.9587 41.2812C57.6618 41.2812 56.4427 41.7864 55.5247 42.7044C54.6067 43.6224 54.1016 44.8415 54.1016 46.1384C54.1016 47.4352 54.6067 48.6544 55.5247 49.5724L65.239 59.2867C66.157 60.2047 67.3761 60.7098 68.673 60.7098C69.9698 60.7098 71.189 60.2047 72.107 59.2867C73.025 58.3687 73.5301 57.1495 73.5301 55.8527C73.5301 54.5558 73.025 53.3367 72.107 52.4187L62.3927 42.7044C61.4747 41.7864 60.2556 41.2812 58.9587 41.2812Z" fill="#C06A87"/>
<path d="M38.3097 33.9993C38.3 33.9993 38.2902 33.9993 38.2805 33.9993C37.9284 33.9896 37.6005 33.8317 37.3747 33.5621L31.3032 26.2764C30.8758 25.7591 30.9462 24.9941 31.4587 24.5643C31.976 24.1369 32.7385 24.2073 33.1708 24.7197L38.351 30.9393L55.6278 12.5356C56.0844 12.0401 56.8518 12.011 57.3424 12.4603C57.8354 12.9144 57.8694 13.6819 57.4152 14.1773L39.2034 33.6059C38.9727 33.856 38.6521 33.9993 38.3097 33.9993Z" fill="#C06A87"/>
<path d="M67.4554 2.42857C68.1256 2.42857 68.6696 1.88457 68.6696 1.21429C68.6696 0.544 68.1256 0 67.4554 0H18.8839C15.5349 0 12.8125 2.72243 12.8125 6.07143V54.6429C12.8125 55.3131 13.3565 55.8571 14.0268 55.8571C14.6971 55.8571 15.2411 55.3131 15.2411 54.6429V6.07143C15.2411 4.063 16.8755 2.42857 18.8839 2.42857H62.6006C61.8381 3.44371 61.3839 4.70657 61.3839 6.07143V37.6429C61.3839 38.3131 61.9279 38.8571 62.5982 38.8571C63.2685 38.8571 63.8125 38.3131 63.8125 37.6429V6.07143C63.8125 4.063 65.4469 2.42857 67.4554 2.42857Z" fill="#C06A87"/>
<path d="M57.7422 65.57H53.4922V67.9986H57.7422C61.0912 67.9986 63.8136 65.2762 63.8136 61.9272C63.8136 61.2569 63.2696 60.7129 62.5993 60.7129C61.929 60.7129 61.385 61.2569 61.385 61.9272C61.385 63.9356 59.7506 65.57 57.7422 65.57Z" fill="#C06A87"/>
</svg>
