<svg width="53" height="48" viewBox="0 0 53 48" fill="none" xmlns="http://www.w3.org/2000/svg">
<g filter="url(#filter0_i_1956_12433)">
<path d="M0 24C0 10.7452 10.7452 0 24 0H29C42.2548 0 53 10.7452 53 24C53 37.2548 42.2548 48 29 48H24C10.7452 48 0 37.2548 0 24Z" fill="#376990"/>
</g>
<path d="M26.5 10C29.55 10 32.4751 11.2141 34.6317 13.3752C36.7884 15.5363 38 18.4673 38 21.5236C38 26.393 34.5854 31.6998 27.8446 37.5006C27.4698 37.8232 26.9919 38.0004 26.4978 38C26.0037 37.9996 25.5261 37.8215 25.1518 37.4982L24.706 37.1106C18.2636 31.461 15 26.2843 15 21.5236C15 18.4673 16.2116 15.5363 18.3683 13.3752C20.5249 11.2141 23.45 10 26.5 10ZM26.5 17.0914C25.3269 17.0914 24.2019 17.5584 23.3724 18.3896C22.5429 19.2208 22.0769 20.3481 22.0769 21.5236C22.0769 22.6991 22.5429 23.8264 23.3724 24.6576C24.2019 25.4888 25.3269 25.9557 26.5 25.9557C27.6731 25.9557 28.7981 25.4888 29.6276 24.6576C30.4571 23.8264 30.9231 22.6991 30.9231 21.5236C30.9231 20.3481 30.4571 19.2208 29.6276 18.3896C28.7981 17.5584 27.6731 17.0914 26.5 17.0914Z" fill="white"/>
<defs>
<filter id="filter0_i_1956_12433" x="0" y="0" width="57" height="52" filterUnits="userSpaceOnUse" color-interpolation-filters="sRGB">
<feFlood flood-opacity="0" result="BackgroundImageFix"/>
<feBlend mode="normal" in="SourceGraphic" in2="BackgroundImageFix" result="shape"/>
<feColorMatrix in="SourceAlpha" type="matrix" values="0 0 0 0 0 0 0 0 0 0 0 0 0 0 0 0 0 0 127 0" result="hardAlpha"/>
<feOffset dx="4" dy="4"/>
<feGaussianBlur stdDeviation="5"/>
<feComposite in2="hardAlpha" operator="arithmetic" k2="-1" k3="1"/>
<feColorMatrix type="matrix" values="0 0 0 0 0.158958 0 0 0 0 0.262905 0 0 0 0 0.454167 0 0 0 0.48 0"/>
<feBlend mode="normal" in2="shape" result="effect1_innerShadow_1956_12433"/>
</filter>
</defs>
</svg>
