<svg width="72" height="72" viewBox="0 0 72 72" fill="none" xmlns="http://www.w3.org/2000/svg">
<path d="M62.9995 16.8223V3.37503C62.9995 3.07666 62.881 2.79051 62.67 2.57953C62.459 2.36855 62.1729 2.25003 61.8745 2.25003H50.6245C50.3261 2.25003 50.04 2.36855 49.829 2.57953C49.618 2.79051 49.4995 3.07666 49.4995 3.37503V6.53358C45.2694 4.55342 40.8041 3.12062 36.2116 2.26983C36.0714 2.24339 35.9276 2.24339 35.7875 2.26983C6.10467 7.9783 2.2979 29.9785 2.26381 30.1993C2.23842 30.3599 2.24812 30.524 2.29226 30.6805C2.3364 30.8369 2.41391 30.982 2.51947 31.1056C2.62504 31.2292 2.75613 31.3285 2.90374 31.3966C3.05135 31.4647 3.21196 31.5 3.37452 31.5H8.99952V60.75H6.74952C6.45115 60.75 6.165 60.8686 5.95403 61.0795C5.74305 61.2905 5.62452 61.5767 5.62452 61.875V68.625C5.62452 68.9234 5.74305 69.2095 5.95403 69.4205C6.165 69.6315 6.45115 69.75 6.74952 69.75H65.2495C65.5479 69.75 65.834 69.6315 66.045 69.4205C66.256 69.2095 66.3745 68.9234 66.3745 68.625V61.875C66.3745 61.5767 66.256 61.2905 66.045 61.0795C65.834 60.8686 65.5479 60.75 65.2495 60.75H62.9995V31.5H68.6245C68.7872 31.5001 68.948 31.4649 69.0958 31.3968C69.2436 31.3286 69.3748 31.2293 69.4804 31.1055C69.586 30.9817 69.6635 30.8365 69.7075 30.6798C69.7515 30.5232 69.7609 30.3588 69.7352 30.1982C68.6384 25.2484 66.3232 20.6507 62.9995 16.8223ZM64.1245 67.5H7.87452V63H64.1245V67.5ZM61.8745 29.25C61.5761 29.25 61.29 29.3686 61.079 29.5795C60.868 29.7905 60.7495 30.0767 60.7495 30.375V60.75H11.2495V30.375C11.2495 30.0767 11.131 29.7905 10.92 29.5795C10.709 29.3686 10.4229 29.25 10.1245 29.25H4.77852C6.02007 24.6204 11.9033 9.23729 35.9995 4.52095C40.9096 5.43616 45.6596 7.06355 50.0994 9.35159C50.2709 9.44211 50.4628 9.48676 50.6566 9.48122C50.8505 9.47569 51.0396 9.42015 51.2056 9.31999C51.3716 9.21984 51.509 9.07847 51.6043 8.9096C51.6996 8.74073 51.7496 8.5501 51.7495 8.35619V4.50003H60.7495V17.2321C60.7498 17.4993 60.8448 17.7578 61.0176 17.9616C63.8539 21.2446 65.9614 25.0922 67.2007 29.25H61.8745Z" fill="#6B5E7A"/>
<path d="M35.5 39.1875C39.2107 39.1875 42.2188 36.1794 42.2188 32.4688C42.2188 28.7581 39.2107 25.75 35.5 25.75C31.7893 25.75 28.7812 28.7581 28.7812 32.4688C28.7812 36.1794 31.7893 39.1875 35.5 39.1875Z" stroke="#6B5E7A" stroke-width="2" stroke-linecap="round" stroke-linejoin="round"/>
<path d="M44.9062 52.625C44.9062 50.1303 43.9152 47.7378 42.1512 45.9738C40.3872 44.2098 37.9947 43.2188 35.5 43.2188C33.0053 43.2188 30.6128 44.2098 28.8488 45.9738C27.0848 47.7378 26.0938 50.1303 26.0938 52.625H44.9062Z" stroke="#6B5E7A" stroke-width="2" stroke-linecap="round" stroke-linejoin="round"/>
<path d="M46.25 33.8125C47.3953 33.8125 48.5215 33.5198 49.5218 32.9621C50.5221 32.4044 51.3632 31.6002 51.9653 30.626C52.5674 29.6518 52.9105 28.5398 52.962 27.3957C53.0134 26.2516 52.7716 25.1134 52.2594 24.089C51.7473 23.0647 50.9817 22.1883 50.0356 21.543C49.0894 20.8977 47.994 20.505 46.8534 20.4022C45.7128 20.2993 44.5648 20.4897 43.5184 20.9553C42.4721 21.4209 41.5622 22.1463 40.875 23.0625" stroke="#6B5E7A" stroke-width="2" stroke-linecap="round" stroke-linejoin="round"/>
<path d="M47.5938 47.25H55.6562C55.6562 44.7553 54.6652 42.3628 52.9012 40.5988C51.1372 38.8348 48.7447 37.8438 46.25 37.8438" stroke="#6B5E7A" stroke-width="2" stroke-linecap="round" stroke-linejoin="round"/>
<path d="M30.125 23.0625C29.4378 22.1463 28.5279 21.4209 27.4816 20.9553C26.4352 20.4897 25.2872 20.2993 24.1466 20.4022C23.006 20.505 21.9106 20.8977 20.9644 21.543C20.0183 22.1883 19.2527 23.0647 18.7406 24.089C18.2284 25.1134 17.9866 26.2516 18.038 27.3957C18.0895 28.5398 18.4326 29.6518 19.0347 30.626C19.6368 31.6002 20.4779 32.4044 21.4782 32.9621C22.4785 33.5198 23.6047 33.8125 24.75 33.8125" stroke="#6B5E7A" stroke-width="2" stroke-linecap="round" stroke-linejoin="round"/>
<path d="M24.75 37.8438C22.2553 37.8438 19.8628 38.8348 18.0988 40.5988C16.3348 42.3628 15.3438 44.7553 15.3438 47.25H23.4062" stroke="#6B5E7A" stroke-width="2" stroke-linecap="round" stroke-linejoin="round"/>
</svg>
