<svg width="72" height="71" viewBox="0 0 72 71" fill="none" xmlns="http://www.w3.org/2000/svg">
<path d="M20.3125 65.0703H51.6909V70.3H20.3125V65.0703Z" stroke="#315D80" stroke-width="2" stroke-linejoin="round"/>
<path d="M32.0781 65.0704V54.611C32.0781 53.1668 33.2488 51.9961 34.693 51.9961H37.3079C38.752 51.9961 39.9227 53.1668 39.9227 54.611V65.0704" stroke="#315D80" stroke-width="2" stroke-linejoin="round"/>
<path d="M39.9226 8.85198C39.9226 9.36707 39.8212 9.8773 39.6241 10.3532C39.427 10.829 39.1381 11.2613 38.7738 11.6255C38.4096 11.9897 37.9772 12.2787 37.5014 12.4758C37.0255 12.6729 36.5155 12.7743 36.0004 12.7743C35.4853 12.7743 34.9753 12.6729 34.4994 12.4758C34.0235 12.2787 33.5911 11.9897 33.2269 11.6255C32.8627 11.2613 32.5738 10.829 32.3767 10.3532C32.1796 9.8773 32.0781 9.36707 32.0781 8.85198C32.0781 8.3369 32.1796 7.82699 32.3767 7.35112C32.5738 6.87524 32.8627 6.4427 33.2269 6.07848C33.5911 5.71426 34.0235 5.42557 34.4994 5.22846C34.9753 5.03134 35.4853 4.92969 36.0004 4.92969C36.5155 4.92969 37.0255 5.03134 37.5014 5.22846C37.9772 5.42557 38.4096 5.71426 38.7738 6.07848C39.1381 6.4427 39.427 6.87524 39.6241 7.35112C39.8212 7.82699 39.9226 8.3369 39.9226 8.85198Z" stroke="#315D80" stroke-width="2" stroke-linejoin="round"/>
<path d="M36 36.9609V51.3242" stroke="#315D80" stroke-width="2" stroke-linecap="round" stroke-linejoin="round"/>
<path d="M36 1.02344V4.90967" stroke="#315D80" stroke-width="2" stroke-linecap="round" stroke-linejoin="round"/>
<path d="M32.0815 8.84961H9.85515M9.85515 8.84961L0.703125 37.6131V39.5743C0.703125 41.8282 1.59848 43.9897 3.19222 45.5835C4.78597 47.1772 6.94754 48.0726 9.20144 48.0726C10.3174 48.0726 11.4225 47.853 12.4536 47.4259C13.4847 46.9988 14.4215 46.3726 15.2107 45.5835C15.9998 44.7943 16.6258 43.8576 17.0529 42.8266C17.4799 41.7955 17.6997 40.6903 17.6997 39.5743V37.6131L9.85515 8.84961Z" stroke="#315D80" stroke-width="2" stroke-linejoin="round"/>
<path d="M0.703125 38.9219H17.6997" stroke="#315D80" stroke-width="2"/>
<path d="M39.9219 8.85156H62.1482M62.1482 8.85156L71.3003 37.6151V39.5762C71.3003 41.8301 70.4049 43.9917 68.8112 45.5854C67.2174 47.1792 65.0558 48.0745 62.8019 48.0745C60.5481 48.0745 58.3865 47.1792 56.7927 45.5854C55.199 43.9917 54.3036 41.8301 54.3036 39.5762V37.6151L62.1482 8.85156Z" stroke="#315D80" stroke-width="2" stroke-linejoin="round"/>
<path d="M54.3125 38.9219H71.3091" stroke="#315D80" stroke-width="2"/>
<path d="M36 13.4453V27.8086" stroke="#315D80" stroke-width="2" stroke-linecap="round" stroke-linejoin="round"/>
<path d="M37.3102 32.3856C37.3102 32.7323 37.1724 33.0648 36.9272 33.31C36.682 33.5551 36.3495 33.693 36.0027 33.693C35.656 33.693 35.3234 33.5551 35.0782 33.31C34.8331 33.0648 34.6953 32.7323 34.6953 32.3856C34.6953 32.0388 34.8331 31.7064 35.0782 31.4612C35.3234 31.216 35.656 31.0781 36.0027 31.0781C36.3495 31.0781 36.682 31.216 36.9272 31.4612C37.1724 31.7064 37.3102 32.0388 37.3102 32.3856Z" fill="#315D80"/>
</svg>
