<svg width="74" height="74" viewBox="0 0 74 74" fill="none" xmlns="http://www.w3.org/2000/svg">
<path d="M69.5341 68.4797H60.4087V41.5484H69.5341C69.7401 41.5484 69.9377 41.4665 70.0835 41.3208C70.2292 41.1751 70.311 40.9775 70.311 40.7714C70.311 40.5653 70.2292 40.3677 70.0835 40.222C69.9377 40.0763 69.7401 39.9944 69.5341 39.9944H59.6317C59.4257 39.9944 59.228 40.0763 59.0823 40.222C58.9366 40.3677 58.8548 40.5653 58.8548 40.7714V48.1738H51.2269C51.2556 48.0915 51.2705 48.005 51.2711 47.9178V25.0312H57.959C58.1194 25.0314 58.2758 24.9819 58.407 24.8895C58.5381 24.7972 58.6374 24.6665 58.6913 24.5155C58.7452 24.3644 58.7511 24.2004 58.7081 24.0459C58.665 23.8914 58.5753 23.754 58.4511 23.6525L47.8845 15.0146V4.52121C47.8845 4.31515 47.8026 4.11752 47.6569 3.97182C47.5112 3.82611 47.3136 3.74425 47.1075 3.74425H39.2451C39.039 3.74425 38.8414 3.82611 38.6957 3.97182C38.55 4.11752 38.4681 4.31515 38.4681 4.52121V7.31062L32.1474 2.1416C32.0083 2.02853 31.8345 1.9668 31.6553 1.9668C31.4761 1.9668 31.3023 2.02853 31.1632 2.1416L4.85957 23.6464C4.73293 23.7472 4.64093 23.8851 4.59643 24.0407C4.55192 24.1963 4.55713 24.362 4.61132 24.5145C4.66552 24.667 4.766 24.7988 4.89872 24.8914C5.03144 24.9841 5.18979 25.033 5.35164 25.0312H12.038V43.2348L6.87203 41.9825C5.56986 41.6639 4.20009 41.7678 2.96084 42.2791C1.72159 42.7904 0.677111 43.6826 -0.0215219 44.8268C-0.280195 45.2493 -0.365961 45.7552 -0.260965 46.2393C-0.155969 46.7235 0.131698 47.1484 0.54215 47.4258L24.5561 63.6671C26.536 65.0039 28.8703 65.7185 31.2592 65.7192C31.6401 65.7192 32.0209 65.7009 32.4033 65.6628L50.878 63.8789H58.8548V69.2566C58.8548 69.4627 58.9366 69.6603 59.0823 69.806C59.228 69.9517 59.4257 70.0336 59.6317 70.0336H69.5341C69.7401 70.0336 69.9377 69.9517 70.0835 69.806C70.2292 69.6603 70.311 69.4627 70.311 69.2566C70.311 69.0506 70.2292 68.853 70.0835 68.7072C69.9377 68.5615 69.7401 68.4797 69.5341 68.4797ZM12.815 23.4712H7.52864L31.6507 3.7473L38.75 9.55007C38.8634 9.64722 39.0025 9.70953 39.1505 9.72953C39.2985 9.74953 39.4491 9.72636 39.5843 9.6628C39.7195 9.59925 39.8334 9.49801 39.9124 9.37126C39.9914 9.24452 40.0321 9.09765 40.0297 8.94832V5.29207H46.3382V15.3696C46.338 15.4848 46.3635 15.5985 46.4128 15.7026C46.4621 15.8067 46.5339 15.8985 46.6231 15.9714L55.7896 23.4652H50.4941C50.2881 23.4652 50.0905 23.547 49.9448 23.6927C49.799 23.8384 49.7172 24.036 49.7172 24.2421V46.92C46.6827 44.5023 42.9713 43.0882 39.0973 42.8737V31.2027C39.0953 29.2471 38.3174 27.3722 36.9345 25.9895C35.5515 24.6068 33.6764 23.8293 31.7208 23.8277H31.5883C29.6329 23.8297 27.7583 24.6074 26.3756 25.99C24.993 27.3727 24.2153 29.2473 24.2133 31.2027V42.8448C23.3337 42.8555 22.4674 43.0614 21.6771 43.4476C20.8867 43.8339 20.192 44.3908 19.643 45.0782L13.5919 43.6172V24.2482C13.5919 24.0421 13.5101 23.8445 13.3644 23.6988C13.2186 23.5531 13.021 23.4712 12.815 23.4712ZM37.5434 42.8448H25.7672V31.2027C25.7688 29.6593 26.3826 28.1797 27.474 27.0884C28.5653 25.9971 30.0449 25.3833 31.5883 25.3816H31.7208C33.2643 25.3833 34.7441 25.997 35.8357 27.0883C36.9272 28.1795 37.5414 29.6592 37.5434 31.2027V42.8448ZM50.8049 62.325L32.2601 64.1166C29.8516 64.3463 27.4381 63.7324 25.4321 62.3798L1.41356 46.1446C1.33344 46.0908 1.27727 46.0081 1.25681 45.9138C1.23636 45.8195 1.25323 45.7209 1.30387 45.6388C1.83161 44.7739 2.62113 44.0995 3.55795 43.7136C4.49477 43.3276 5.53018 43.2501 6.51402 43.4923L18.8264 46.4782C18.597 47.134 18.6345 47.8538 18.9309 48.4822C19.2273 49.1106 19.7588 49.5973 20.4108 49.8374L36.4739 55.7437C36.5599 55.775 36.6506 55.791 36.7421 55.791C36.924 55.7903 37.1 55.7258 37.2393 55.6088C37.3786 55.4917 37.4723 55.3294 37.5042 55.1503C37.5362 54.9711 37.5042 54.7865 37.4139 54.6285C37.3236 54.4705 37.1807 54.3493 37.0102 54.2858L20.9395 48.3779C20.7971 48.3253 20.6672 48.2436 20.558 48.1381C20.4489 48.0325 20.363 47.9054 20.3057 47.7649C20.2483 47.6243 20.2209 47.4733 20.2251 47.3216C20.2293 47.1698 20.2651 47.0206 20.3301 46.8834C20.6857 46.1413 21.2434 45.5144 21.9392 45.0749C22.635 44.6354 23.4406 44.401 24.2636 44.3987H38.0598C42.2493 44.3972 46.2942 45.9297 49.4308 48.707L50.3631 49.5327C50.5052 49.6584 50.6884 49.7277 50.878 49.7277H58.8548V62.3219L50.8049 62.325Z" fill="#C06A87"/>
</svg>
