<svg width="80" height="70" viewBox="0 0 80 70" fill="none" xmlns="http://www.w3.org/2000/svg">
<g clip-path="url(#clip0_1956_12554)">
<path d="M44.8169 57.5832C44.7177 57.583 44.6196 57.562 44.529 57.5216C44.4384 57.4811 44.3573 57.4222 44.2908 57.3485L43.3807 56.3453C42.9507 55.8682 42.4254 55.4867 41.8387 55.2256C41.252 54.9645 40.6171 54.8296 39.975 54.8296C39.3329 54.8296 38.698 54.9645 38.1113 55.2256C37.5247 55.4867 36.9993 55.8682 36.5693 56.3453L35.6593 57.3485C35.5608 57.4563 35.4316 57.5312 35.2891 57.5631C35.1467 57.5949 34.9979 57.5821 34.8629 57.5263L31.0591 55.954C30.9212 55.8961 30.8051 55.7962 30.7272 55.6685C30.6494 55.5408 30.6137 55.3917 30.6254 55.2426L30.6894 53.8909C30.722 53.2497 30.6199 52.6089 30.3895 52.0097C30.1592 51.4105 29.8058 50.8664 29.3521 50.4125C28.8985 49.9585 28.3547 49.6049 27.7559 49.3744C27.1571 49.1439 26.5166 49.0417 25.8759 49.0744L24.5179 49.1384C24.3688 49.1501 24.2199 49.1144 24.0923 49.0365C23.9646 48.9586 23.8648 48.8424 23.8069 48.7044L22.2569 44.9125C22.2012 44.7774 22.1884 44.6285 22.2202 44.486C22.252 44.3434 22.3269 44.2141 22.4347 44.1156L23.4372 43.205C23.914 42.7747 24.2952 42.2491 24.5562 41.662C24.8171 41.075 24.9519 40.4397 24.9519 39.7972C24.9519 39.1547 24.8171 38.5194 24.5562 37.9323C24.2952 37.3453 23.914 36.8196 23.4372 36.3894L22.4347 35.4787C22.3269 35.3802 22.252 35.2509 22.2202 35.1084C22.1884 34.9658 22.2012 34.8169 22.2569 34.6819L23.8282 30.8757C23.8861 30.7378 23.9859 30.6216 24.1136 30.5436C24.2412 30.4657 24.3902 30.4301 24.5392 30.4417L25.8972 30.5058C26.538 30.5384 27.1784 30.4362 27.7772 30.2057C28.376 29.9753 28.9198 29.6216 29.3735 29.1677C29.8271 28.7137 30.1805 28.1696 30.4109 27.5704C30.6412 26.9713 30.7434 26.3304 30.7107 25.6893L30.6467 24.3376C30.6351 24.1884 30.6707 24.0394 30.7486 23.9116C30.8264 23.7839 30.9426 23.684 31.0804 23.6261L34.8843 22.0538C35.0192 21.9981 35.168 21.9853 35.3105 22.0171C35.4529 22.0489 35.5822 22.1238 35.6806 22.2317L36.5907 23.2348C37.0207 23.712 37.546 24.0934 38.1327 24.3545C38.7193 24.6156 39.3543 24.7505 39.9964 24.7505C40.6384 24.7505 41.2734 24.6156 41.86 24.3545C42.4467 24.0934 42.972 23.712 43.402 23.2348L44.3121 22.2317C44.4106 22.1238 44.5398 22.0489 44.6822 22.0171C44.8247 21.9853 44.9735 21.9981 45.1084 22.0538L48.9123 23.6261C49.0502 23.684 49.1663 23.7839 49.2441 23.9116C49.322 24.0394 49.3576 24.1884 49.346 24.3376L49.282 25.6893C49.2493 26.3304 49.3515 26.9713 49.5818 27.5704C49.8122 28.1696 50.1656 28.7137 50.6192 29.1677C51.0729 29.6216 51.6167 29.9753 52.2155 30.2057C52.8143 30.4362 53.4547 30.5384 54.0955 30.5058L55.4535 30.4417C55.6025 30.4301 55.7515 30.4657 55.8791 30.5436C56.0068 30.6216 56.1066 30.7378 56.1645 30.8757L57.7358 34.6819C57.7915 34.8169 57.8043 34.9658 57.7725 35.1084C57.7407 35.2509 57.6658 35.3802 57.558 35.4787L56.5555 36.3894C56.0787 36.8196 55.6975 37.3453 55.4365 37.9323C55.1756 38.5194 55.0408 39.1547 55.0408 39.7972C55.0408 40.4397 55.1756 41.075 55.4365 41.662C55.6975 42.2491 56.0787 42.7747 56.5555 43.205L57.558 44.1156C57.6658 44.2141 57.7407 44.3434 57.7725 44.486C57.8043 44.6285 57.7915 44.7774 57.7358 44.9125L56.1645 48.7187C56.1066 48.8566 56.0068 48.9728 55.8791 49.0507C55.7515 49.1286 55.6025 49.1643 55.4535 49.1526L54.0955 49.0886C53.4547 49.0559 52.8143 49.1581 52.2155 49.3886C51.6167 49.6191 51.0729 49.9728 50.6192 50.4267C50.1656 50.8806 49.8122 51.4248 49.5818 52.0239C49.3515 52.6231 49.2493 53.2639 49.282 53.9051L49.346 55.2568C49.3576 55.406 49.322 55.555 49.2441 55.6827C49.1663 55.8105 49.0502 55.9104 48.9123 55.9683L45.1084 57.5405C45.0164 57.5789 44.9161 57.5936 44.8169 57.5832ZM32.0687 54.83L34.9127 56.0252L35.4815 55.392C36.0455 54.7668 36.7343 54.267 37.5034 53.9249C38.2726 53.5828 39.1049 53.4061 39.9466 53.4061C40.7883 53.4061 41.6206 53.5828 42.3897 53.9249C43.1589 54.267 43.8477 54.7668 44.4117 55.392L44.9805 56.0252L47.8245 54.83L47.7818 53.9762C47.7378 53.1359 47.8708 52.2957 48.1722 51.5102C48.4735 50.7246 48.9366 50.0112 49.5312 49.4162C50.1258 48.8212 50.8388 48.3579 51.6239 48.0564C52.4089 47.7548 53.2486 47.6217 54.0884 47.6657L54.9416 47.7084L56.136 44.8627L55.5032 44.2935C54.8784 43.7292 54.379 43.0399 54.0371 42.2703C53.6952 41.5007 53.5186 40.6679 53.5186 39.8256C53.5186 38.9834 53.6952 38.1506 54.0371 37.381C54.379 36.6114 54.8784 35.9221 55.5032 35.3578L56.136 34.7886L54.9416 31.9429L54.0884 31.9856C53.2486 32.0296 52.4089 31.8965 51.6239 31.5949C50.8388 31.2934 50.1258 30.8301 49.5312 30.2351C48.9366 29.6401 48.4735 28.9267 48.1722 28.1411C47.8708 27.3555 47.7378 26.5154 47.7818 25.6751L47.8245 24.8213L44.9805 23.6261L44.4117 24.2593C43.8477 24.8845 43.1589 25.3843 42.3897 25.7264C41.6206 26.0685 40.7883 26.2452 39.9466 26.2452C39.1049 26.2452 38.2726 26.0685 37.5034 25.7264C36.7343 25.3843 36.0455 24.8845 35.4815 24.2593L34.9127 23.6261L32.0687 24.8213L32.1114 25.6751C32.1554 26.5154 32.0224 27.3555 31.721 28.1411C31.4196 28.9267 30.9566 29.6401 30.362 30.2351C29.7674 30.8301 29.0544 31.2934 28.2693 31.5949C27.4842 31.8965 26.6446 32.0296 25.8048 31.9856L24.9516 31.9429L23.7571 34.7886L24.3899 35.3578C25.0147 35.9221 25.5142 36.6114 25.8561 37.381C26.1979 38.1506 26.3746 38.9834 26.3746 39.8256C26.3746 40.6679 26.1979 41.5007 25.8561 42.2703C25.5142 43.0399 25.0147 43.7292 24.3899 44.2935L23.7571 44.8627L24.9516 47.7084L25.8048 47.6657C26.6446 47.6217 27.4842 47.7548 28.2693 48.0564C29.0544 48.3579 29.7674 48.8212 30.362 49.4162C30.9566 50.0112 31.4196 50.7246 31.721 51.5102C32.0224 52.2957 32.1554 53.1359 32.1114 53.9762L32.0687 54.83Z" fill="#315D80" stroke="#315D80" stroke-width="0.8"/>
<path d="M10.1549 63.384H16.941L63.3353 63.384L70.1214 63.384V26.279L40.1381 6.23469L10.1549 26.279L10.1549 63.384ZM9 64.5347L9 25.5L40.1381 5L71.2763 25.5L71.2763 64.5347H62.1804H18.0959H9Z" fill="#315D80" stroke="#315D80"/>
<path d="M40 47.8711C38.4178 47.8711 36.871 47.4019 35.5554 46.5229C34.2398 45.6438 33.2145 44.3944 32.609 42.9326C32.0035 41.4708 31.845 39.8622 32.1537 38.3104C32.4624 36.7585 33.2243 35.3331 34.3431 34.2142C35.462 33.0954 36.8874 32.3335 38.4393 32.0248C39.9911 31.7161 41.5997 31.8746 43.0615 32.4801C44.5233 33.0856 45.7727 34.1109 46.6518 35.4265C47.5308 36.7421 48 38.2888 48 39.8711C48 41.9928 47.1571 44.0277 45.6569 45.5279C44.1566 47.0282 42.1217 47.8711 40 47.8711ZM40 33.2044C38.6815 33.2044 37.3925 33.5954 36.2962 34.328C35.1999 35.0605 34.3454 36.1017 33.8408 37.3199C33.3362 38.538 33.2042 39.8785 33.4614 41.1717C33.7187 42.4649 34.3536 43.6528 35.286 44.5851C36.2183 45.5175 37.4062 46.1524 38.6994 46.4097C39.9926 46.6669 41.3331 46.5349 42.5512 46.0303C43.7694 45.5257 44.8106 44.6712 45.5431 43.5749C46.2757 42.4786 46.6667 41.1896 46.6667 39.8711C46.6667 38.103 45.9643 36.4073 44.714 35.1571C43.4638 33.9068 41.7681 33.2044 40 33.2044Z" fill="#315D80" stroke="#315D80" stroke-width="0.8"/>
</g>
<defs>
<clipPath id="clip0_1956_12554">
<rect width="80" height="70" fill="white"/>
</clipPath>
</defs>
</svg>
