<svg width="520" height="345" viewBox="0 0 520 345" fill="none" xmlns="http://www.w3.org/2000/svg">
<path d="M175.519 161.272C175.519 161.272 226.658 117.76 224.766 109.49C223.419 103.578 208.932 112.244 208.932 112.244C208.932 112.244 229.245 88.1311 228.212 85.1955C226.369 79.9693 212.312 89.7187 212.312 89.7187C212.312 89.7187 221.815 76.0414 217.27 73.817C212.725 71.5925 202.833 80.0189 202.833 80.0189C202.833 80.0189 208.618 72.4195 205.899 70.4266C203.18 68.4337 191.461 76.6285 191.461 76.6285C191.461 76.6285 195.668 67.0527 186.726 70.6829C177.784 74.3131 115.133 131.875 115.133 131.875L175.519 161.272Z" fill="#315D80"/>
<path d="M196.445 109.665C196.187 109.664 195.939 109.567 195.75 109.392C186.974 101.371 183.098 99.4194 173.437 96.4342C173.298 96.4026 173.167 96.3427 173.053 96.258C172.938 96.1734 172.842 96.066 172.771 95.9425C172.7 95.819 172.655 95.6821 172.639 95.5404C172.623 95.3988 172.637 95.2554 172.679 95.1193C172.722 94.9832 172.792 94.8573 172.885 94.7496C172.978 94.6418 173.093 94.5545 173.221 94.4932C173.35 94.4318 173.49 94.3978 173.632 94.3931C173.774 94.3885 173.916 94.4133 174.049 94.4661C184.081 97.5505 188.098 99.5682 197.188 107.862C197.345 108.003 197.454 108.187 197.503 108.392C197.552 108.596 197.537 108.811 197.461 109.007C197.384 109.203 197.25 109.371 197.076 109.488C196.902 109.606 196.696 109.667 196.486 109.665H196.445Z" fill="white"/>
<path d="M181.035 133.264H180.886C180.615 133.225 180.372 133.08 180.207 132.862C180.043 132.643 179.972 132.369 180.01 132.098C181.01 124.904 183.316 120.405 186.927 118.346C190.051 116.593 194.117 116.775 199.001 118.884C199.253 118.993 199.451 119.199 199.552 119.455C199.653 119.71 199.648 119.996 199.538 120.248C199.429 120.5 199.223 120.699 198.968 120.799C198.712 120.9 198.427 120.895 198.175 120.786C193.91 118.942 190.464 118.727 187.935 120.149C184.927 121.803 182.977 125.937 182.043 132.379C182.009 132.623 181.889 132.847 181.704 133.009C181.518 133.172 181.281 133.262 181.035 133.264Z" fill="white"/>
<path d="M178.622 89.7688C178.481 89.7671 178.341 89.7371 178.212 89.6802C178.083 89.6234 177.966 89.5411 177.87 89.4382C177.678 89.2446 177.57 88.983 177.57 88.7105C177.57 88.4379 177.678 88.1763 177.87 87.9828L190.704 75.8766C190.903 75.688 191.17 75.5864 191.444 75.5942C191.718 75.6019 191.978 75.7183 192.167 75.9179C192.355 76.1175 192.457 76.3838 192.449 76.6583C192.441 76.9328 192.325 77.1929 192.125 77.3816L179.291 89.4794C179.111 89.6548 178.873 89.7578 178.622 89.7688Z" fill="white"/>
<path d="M190.509 93.9022C190.307 93.9005 190.109 93.8399 189.941 93.7279C189.773 93.6159 189.641 93.4572 189.561 93.2713C189.481 93.0854 189.457 92.8804 189.492 92.6811C189.527 92.4818 189.619 92.297 189.757 92.1491L202.087 79.2988C202.179 79.1927 202.291 79.1064 202.417 79.0452C202.543 78.9839 202.681 78.9489 202.821 78.9425C202.961 78.936 203.101 78.9582 203.232 79.0076C203.363 79.057 203.483 79.1327 203.584 79.2299C203.685 79.3271 203.765 79.4438 203.82 79.5731C203.875 79.7023 203.902 79.8413 203.901 79.9816C203.9 80.1219 203.871 80.2606 203.815 80.3891C203.759 80.5177 203.677 80.6335 203.575 80.7294L191.253 93.5797C191.157 93.6809 191.042 93.7616 190.914 93.817C190.786 93.8724 190.648 93.9014 190.509 93.9022Z" fill="white"/>
<path d="M202.638 101.172C202.377 101.168 202.127 101.068 201.935 100.89C201.736 100.702 201.619 100.443 201.61 100.169C201.601 99.8948 201.7 99.6282 201.886 99.4267L211.555 89.0488C211.744 88.8613 211.999 88.7543 212.265 88.7501C212.531 88.7459 212.789 88.8449 212.984 89.0263C213.179 89.2078 213.297 89.4577 213.312 89.7238C213.328 89.99 213.24 90.2518 213.067 90.4546L203.398 100.841C203.3 100.945 203.182 101.028 203.052 101.084C202.921 101.141 202.78 101.171 202.638 101.172Z" fill="white"/>
<path d="M368.701 452.317L181.723 459.552L161.062 288.999C161.062 288.999 223.656 229.585 247.738 207.713L288.397 205.629C414.567 262.993 393.907 334.645 368.701 452.317Z" fill="#6B5E7A"/>
<path d="M288.398 205.629C288.398 205.629 432.749 217.975 478.203 316.908C522.722 413.708 339.777 448.182 339.777 448.182L288.398 205.629Z" fill="#6B5E7A"/>
<path d="M123.442 226.864L183.077 154.252L127.31 120.439C104.046 136.622 59.064 173.28 20.9412 214.791C12.5283 223.954 5.94994 234.638 2.64426 246.438C-0.122328 256.091 -0.72062 266.237 0.89225 276.149C5.02435 301.494 24.9576 321.059 51.5601 324.177C74.2784 326.831 161.061 320.042 231.307 299.369L251.967 219.579C241.348 213.518 162.449 212.468 123.442 226.864Z" fill="#6B5E7A"/>
<g opacity="0.8">
<path d="M408.828 244.884L409.762 244.669L407.804 243.528C397.225 245.967 386.317 248.489 375.573 249.755C369.102 250.532 347.475 251.962 341.194 237.566C338.054 230.405 340.434 222.433 343.987 216.843L342.434 216.396C338.797 222.326 336.467 230.636 339.781 238.186C346.516 253.567 369.02 252.111 375.755 251.293C386.812 249.961 398.044 247.381 408.828 244.884Z" fill="black"/>
<path d="M111.934 307.152C102.926 299.71 88.9264 297.709 73.5302 301.687C59.8116 305.242 48.0433 312.271 39.9609 321.582C40.4898 321.748 41.0105 321.946 41.5477 322.103C49.4152 313.272 60.7454 306.598 73.9186 303.192C88.7941 299.33 102.323 301.215 110.95 308.352C114.915 311.768 118.028 316.063 120.041 320.896L121.644 320.714C119.528 315.487 116.2 310.838 111.934 307.152Z" fill="black"/>
<path d="M30.4844 204.605C47.3682 200.412 63.847 194.516 79.0366 185.759C84.7802 182.452 91.2594 178.234 95.8212 172.041C100.672 165.425 102.284 157.594 100.135 151.045C99.2864 148.533 97.8433 146.263 95.9286 144.43L94.7386 145.405C96.533 147.097 97.8791 149.208 98.6559 151.549C100.656 157.619 99.1269 164.946 94.5733 171.131C90.185 177.093 83.8298 181.203 78.268 184.428C63.9296 192.697 48.4342 198.403 32.5091 202.529L30.4844 204.605Z" fill="white"/>
</g>
<path d="M301.609 167.706V170.352L301.187 211.475L301.137 215.932C300.847 222.529 298.024 228.76 293.256 233.325C288.488 237.891 282.143 240.439 275.543 240.439C268.944 240.439 262.599 237.891 257.831 233.325C253.063 228.76 250.239 222.529 249.949 215.932L249.453 165.109L301.609 167.706Z" fill="#315D80"/>
<path d="M301.574 170.354L301.152 211.476C278.31 202.174 268.922 177.432 268.922 177.432L301.574 170.354Z" fill="#000001"/>
<path d="M310.609 98.5922C318.799 108.424 342.699 164.118 318.468 183.12C291.197 204.504 249.71 169.36 249.71 169.36L244.148 104.48L280.164 94.9785L310.609 98.5922Z" fill="#315D80"/>
<path d="M225.795 95.0195C225.795 95.0195 145.913 136.713 211.051 256.89C219.415 272.32 237.943 279.059 253.794 271.526C257.81 269.608 261.389 266.883 264.306 263.52C267.224 260.157 269.418 256.229 270.751 251.981C272.085 247.732 272.529 243.255 272.058 238.827C271.586 234.399 270.207 230.115 268.008 226.244C257.356 207.307 247.067 182.921 251.48 164.77L225.795 95.0195Z" fill="#000001"/>
<path d="M248.625 130.044C257.064 121.6 257.064 107.908 248.625 99.4634C240.185 91.0187 226.502 91.0187 218.062 99.4634C209.623 107.908 209.623 121.6 218.062 130.044C226.502 138.489 240.185 138.489 248.625 130.044Z" fill="#EA4B62"/>
<path d="M259.931 140.732C257.592 127.245 256.171 117.992 269.798 111.037C269.798 111.037 317.822 119.778 326.987 101.652C336.152 83.5256 322.185 54.9058 292.938 74.785C218.064 60.1485 208.023 130.263 230.725 153.632L253.129 150.192C254.201 150.027 255.229 149.649 256.153 149.082C257.077 148.515 257.879 147.77 258.512 146.889C259.145 146.008 259.597 145.01 259.84 143.953C260.084 142.896 260.115 141.801 259.931 140.732Z" fill="#000001"/>
<path d="M297.104 143.964C298.866 143.964 300.294 142.535 300.294 140.772C300.294 139.009 298.866 137.58 297.104 137.58C295.342 137.58 293.914 139.009 293.914 140.772C293.914 142.535 295.342 143.964 297.104 143.964Z" fill="#000001"/>
<path d="M318.713 133.315C320.475 133.315 321.903 131.886 321.903 130.124C321.903 128.361 320.475 126.932 318.713 126.932C316.952 126.932 315.523 128.361 315.523 130.124C315.523 131.886 316.952 133.315 318.713 133.315Z" fill="#000001"/>
<path d="M316.504 150.605C316.273 150.606 316.051 150.517 315.884 150.357C315.715 150.187 315.62 149.957 315.62 149.716C315.62 149.476 315.715 149.246 315.884 149.076C317.165 147.728 318.57 145.834 317.983 144.461C317.397 143.089 314.777 142.419 313.595 142.419C311.05 142.419 309.827 137.879 309.604 136.97C309.563 136.85 309.547 136.723 309.558 136.596C309.569 136.47 309.606 136.348 309.667 136.237C309.728 136.126 309.812 136.029 309.913 135.952C310.013 135.875 310.129 135.82 310.252 135.791C310.375 135.761 310.503 135.758 310.628 135.781C310.752 135.803 310.871 135.852 310.975 135.923C311.08 135.995 311.169 136.087 311.235 136.194C311.302 136.302 311.346 136.422 311.364 136.548C311.827 138.466 312.876 140.608 313.595 140.608C314.81 140.608 318.554 141.179 319.636 143.742C320.421 145.578 319.636 147.786 317.157 150.357C317.07 150.44 316.967 150.504 316.855 150.547C316.743 150.589 316.624 150.609 316.504 150.605Z" fill="#000001"/>
<path d="M316.674 162.728C316.494 162.728 316.318 162.673 316.17 162.571C310.162 158.51 304.087 161.917 304.029 161.95C303.927 162.01 303.814 162.048 303.696 162.064C303.579 162.079 303.46 162.071 303.345 162.04C303.231 162.01 303.124 161.957 303.03 161.885C302.936 161.812 302.857 161.722 302.798 161.62C302.68 161.411 302.649 161.164 302.711 160.932C302.772 160.7 302.923 160.502 303.129 160.379C303.418 160.214 310.244 156.385 317.178 161.074C317.277 161.14 317.362 161.225 317.429 161.324C317.495 161.423 317.541 161.534 317.564 161.651C317.587 161.768 317.587 161.888 317.563 162.005C317.539 162.121 317.493 162.232 317.426 162.331C317.342 162.453 317.23 162.554 317.099 162.623C316.968 162.692 316.822 162.728 316.674 162.728Z" fill="white"/>
<path d="M295.714 126.94C297.532 130.355 294.367 131.074 290.656 133.018C286.945 134.961 283.152 135.714 282.284 134.076C281.417 132.439 283.722 129.528 287.433 127.552C291.144 125.575 294.309 124.327 295.714 126.94Z" fill="#000001"/>
<path d="M309.232 120.762C310.058 123.813 312.306 122.482 315.62 121.589C318.934 120.696 321.603 119.058 321.215 117.603C320.827 116.148 317.843 115.668 314.538 116.536C311.232 117.405 308.612 118.405 309.232 120.762Z" fill="#000001"/>
<path opacity="0.4" d="M288.777 162.522C292.598 158.995 292.838 153.037 289.314 149.213C285.789 145.39 279.834 145.149 276.013 148.676C272.191 152.203 271.951 158.162 275.476 161.986C279.001 165.809 284.956 166.049 288.777 162.522Z" fill="#3D6E95"/>
<path d="M258.088 164.616C262.391 159.038 260.744 150.55 254.41 145.658C248.076 140.767 239.453 141.324 235.15 146.903C230.848 152.481 232.494 160.969 238.828 165.861C245.162 170.752 253.785 170.195 258.088 164.616Z" fill="#315D80"/>
<path d="M252.223 160.437C251.984 160.437 251.755 160.342 251.586 160.173C251.417 160.004 251.322 159.775 251.322 159.536C251.33 158.232 251.017 156.946 250.41 155.792C249.803 154.638 248.921 153.652 247.843 152.92C246.992 152.313 246.005 151.924 244.969 151.787C243.933 151.65 242.88 151.769 241.901 152.135C241.692 152.18 241.475 152.151 241.285 152.053C241.096 151.954 240.948 151.792 240.866 151.595C240.785 151.398 240.775 151.178 240.838 150.975C240.902 150.771 241.035 150.596 241.215 150.481C242.469 150.004 243.822 149.844 245.153 150.012C246.485 150.181 247.754 150.674 248.851 151.448C250.175 152.344 251.258 153.551 252.004 154.965C252.751 156.378 253.138 157.954 253.132 159.552C253.127 159.79 253.029 160.016 252.859 160.182C252.689 160.348 252.46 160.439 252.223 160.437Z" fill="#000001"/>
<path d="M122.693 226.088L90.0781 261.393L91.5953 262.796L124.21 227.492L122.693 226.088Z" fill="#000001"/>
<path d="M352.47 377.851L351.875 375.875C375.618 368.631 398.659 359.965 419.542 333.834L421.195 335.124C399.907 361.718 376.552 370.508 352.47 377.851Z" fill="#000001"/>
<g clip-path="url(#clip0_1956_13014)">
<path d="M342.187 98.0222C341.101 92.2133 344.914 86.6213 350.704 85.5321C356.493 84.4429 362.066 88.269 363.152 94.0778C364.237 99.8867 360.424 105.479 354.635 106.568C348.845 107.657 343.272 103.831 342.187 98.0222Z" fill="#F2727F"/>
<path d="M337.123 118.063C336.513 114.795 338.676 111.647 341.955 111.03C345.234 110.414 348.387 112.564 348.997 115.831C349.607 119.099 347.444 122.248 344.165 122.864C340.886 123.48 337.733 121.331 337.123 118.063Z" fill="#F2727F"/>
<path d="M349.305 71.9375C332.906 55.4833 332.906 28.8058 349.305 12.3516C365.703 -4.10255 392.291 -4.10255 408.69 12.3516C425.089 28.8058 425.089 55.4833 408.69 71.9375C392.291 88.3916 365.704 88.3916 349.305 71.9375Z" fill="#F2727F"/>
<path d="M395.124 47.4492C392.203 47.4492 389.835 45.0729 389.835 42.1416C389.835 39.2103 392.203 36.834 395.124 36.834C398.046 36.834 400.414 39.2103 400.414 42.1416C400.414 45.0729 398.046 47.4492 395.124 47.4492Z" fill="white"/>
<path d="M378.999 47.4492C376.078 47.4492 373.71 45.0729 373.71 42.1416C373.71 39.2103 376.078 36.834 378.999 36.834C381.921 36.834 384.289 39.2103 384.289 42.1416C384.289 45.0729 381.921 47.4492 378.999 47.4492Z" fill="white"/>
<path d="M362.874 47.4492C359.953 47.4492 357.585 45.0729 357.585 42.1416C357.585 39.2103 359.953 36.834 362.874 36.834C365.796 36.834 368.164 39.2103 368.164 42.1416C368.164 45.0729 365.796 47.4492 362.874 47.4492Z" fill="white"/>
</g>
<defs>
<clipPath id="clip0_1956_13014">
<rect width="84" height="123" fill="white" transform="matrix(-1 0 0 1 421 0)"/>
</clipPath>
</defs>
</svg>
