<svg width="245" height="42" viewBox="0 0 245 42" fill="none" xmlns="http://www.w3.org/2000/svg">
<mask id="mask0_1390_8838" style="mask-type:luminance" maskUnits="userSpaceOnUse" x="0" y="0" width="245" height="42">
<path d="M244.998 0.0449219H0.515625V41.0127H244.998V0.0449219Z" fill="white"/>
</mask>
<g mask="url(#mask0_1390_8838)">
<path d="M150.669 41.0096C149.526 39.7325 147.825 39.8101 146.372 39.5231C143.053 38.8613 142.784 37.2766 143.733 34.3915C144.617 31.708 145.754 31.3202 148.249 32.3828C151.107 33.7279 154.262 34.3206 157.414 34.1045C159.285 33.9158 160.852 33.1712 160.96 31.1781C161.077 29.0246 159.125 29.0349 157.626 28.7247C156.592 28.5127 155.557 28.4093 154.539 28.1896C147.468 26.6824 145.824 22.9235 149.539 16.7759C152.556 11.7813 159.272 9.24777 166.485 10.4034C167.519 10.5688 168.553 10.7782 169.562 11.0264C173.899 12.0837 174.895 14.8628 172.353 18.4433C171.433 19.7359 170.567 19.0276 169.647 18.6812C166.628 17.3922 163.363 16.7798 160.082 16.887C158.223 17.0189 156.602 17.6885 156.333 19.6325C156.012 21.9463 158.202 21.724 159.575 22.1117C161.201 22.5693 162.936 22.6624 164.562 23.107C169.474 24.4384 170.857 27.171 169.055 31.8425C168.383 33.6068 167.34 35.2061 165.996 36.5318C164.652 37.8575 163.039 38.8786 161.266 39.5257C159.844 40.0996 158.119 39.7842 156.951 41.0122L150.669 41.0096Z" fill="#58B5C1"/>
<path d="M178.184 41.0116C173.968 38.2015 173.097 36.0299 174.511 30.9293C175.467 27.4729 176.693 24.0863 177.796 20.6686C178.208 19.3941 178.748 18.1041 176.525 17.9697C175.617 17.9154 173.916 18.267 174.456 16.6357C175.043 14.8804 174.529 11.8764 177.334 11.8764C180.239 11.8764 181.175 10.6561 181.729 8.21312C182.168 6.28198 187.933 3.99666 189.885 4.78773C191.498 5.44437 190.402 6.49913 190.19 7.34708C189.055 11.7419 189.032 11.7419 193.729 11.7419C196.18 11.7419 198.641 11.7419 201.867 11.7419C198.062 15.2578 195.513 19.314 189.875 18.0136C187.747 17.5224 186.529 18.4971 185.966 20.6583C185.092 24.0036 183.867 27.2583 182.931 30.5881C182.243 33.0285 182.993 34.59 185.927 34.6029C187.32 34.6029 189.502 32.7312 189.908 35.5C190.239 37.7568 189.97 40.2748 186.62 40.5411C186.416 40.5566 186.232 40.8513 186.038 41.0168L178.184 41.0116Z" fill="#58B5C1"/>
<path d="M244.994 12.4529C243.986 13.0837 243.942 14.2393 243.745 15.157C243.707 15.6058 243.572 16.0409 243.349 16.4325C243.126 16.8241 242.821 17.1628 242.455 17.4253C242.089 17.6879 241.671 17.8682 241.229 17.9536C240.786 18.0391 240.331 18.0279 239.893 17.9206C238.988 17.7131 238.049 17.703 237.14 17.8911C236.231 18.0791 235.372 18.4609 234.624 19.0104C233.876 19.56 233.254 20.2643 232.802 21.0755C232.351 21.8867 232.079 22.7858 232.006 23.7115C230.788 29.3007 228.63 34.6934 226.877 40.1689C224.632 40.7272 222.302 40.8526 220.011 40.5386C218.814 40.5386 218.514 39.7475 218.977 38.6927C221.127 32.0125 223.371 25.3608 225.385 18.6419C225.78 16.9466 226.686 15.4135 227.981 14.2498C229.276 13.086 230.896 12.3478 232.624 12.1349C236.707 11.3944 240.843 10.9854 244.991 10.9121L244.994 12.4529Z" fill="#58B5C2"/>
<path d="M75.9888 40.2188L66.558 40.2886C65.4826 34.4667 66.2995 28.5957 66.1133 22.7506C66.0332 20.3696 65.2137 19.2709 62.6569 19.2605C60.1001 19.2502 59.6839 20.4963 59.6917 22.6213C59.7149 28.4949 59.5728 34.3711 59.4952 40.2446C49.8033 40.2162 49.7826 40.2162 49.8136 30.7957C49.8317 25.4495 49.9403 20.1059 50.0101 14.7674C54.5239 10.1141 67.1914 9.02571 72.3127 12.8725C73.4852 13.6931 74.4412 14.7858 75.099 16.0568C75.7568 17.3278 76.0967 18.7394 76.0896 20.1705C76.1103 26.8533 76.0276 33.5386 75.9862 40.2214" fill="#6B6C6E"/>
<path d="M106.573 10.9954C109.693 2.22375 115.836 -1.44465 124.188 0.595074C125.222 0.853595 127.549 0.468399 126.83 2.40472C126.179 4.21436 126.174 7.02448 123.074 7.0736C121.523 7.09686 119.928 6.81508 118.387 6.99087C117.927 7.01593 117.476 7.13386 117.062 7.33756C116.648 7.54126 116.28 7.82653 115.98 8.17621C115.679 8.52589 115.452 8.93276 115.313 9.37236C115.173 9.81196 115.124 10.2752 115.169 10.7342C115.329 12.5439 117.356 11.1711 118.4 11.6623C119.915 12.3707 122.914 9.99229 122.976 13.2367C123.028 15.9408 121.973 18.6657 118.03 17.8901C114 17.1145 111.942 18.5984 111.022 22.7399C109.89 27.8535 107.956 32.799 106.312 37.8013C105.645 39.8281 99.4815 41.4827 98.0596 39.9962C97.2039 39.1017 98.0467 38.065 98.3181 37.1525C100.459 30.2913 102.682 23.4509 104.823 16.5897C105.522 15.0676 105.891 13.4148 105.906 11.7399C105.947 11.5678 106.028 11.4078 106.142 11.2731C106.257 11.1383 106.402 11.0325 106.565 10.9643" fill="#58B5C1"/>
<path d="M106.573 10.996L105.913 11.7715C99.5864 14.7411 93.2596 17.7115 86.9327 20.6827C86.7026 20.7913 86.4958 20.9412 85.3583 21.6703C92.0799 20.5328 90.6839 24.6381 90.7252 27.7481C90.7769 31.8327 90.7407 35.9199 90.7433 40.0071L81.5141 40.2217C81.465 34.0792 81.4004 27.9368 81.3745 21.7944C81.3745 20.1967 81.5012 18.9015 79.1073 18.6921C76.1679 18.4336 77.7475 15.9027 77.6337 14.4265C77.5433 13.2011 76.5092 10.996 79.2081 10.952C80.9687 10.9262 81.6253 10.1558 81.3435 8.60723C80.8265 5.80487 82.4732 5.07325 84.818 4.83283C85.9855 4.73057 87.1414 4.52378 88.2719 4.21497C90.5986 3.53764 91.4904 4.47349 91.1156 6.64506C90.4641 10.3367 92.1936 11.2105 95.6371 10.9701C99.2564 10.7116 102.933 10.9701 106.583 10.9934" fill="#6B6C6E"/>
<path d="M10.595 39.9885L0.590266 40.1384C0.574754 32.9516 0.605777 25.7673 0.512709 18.583C0.406805 16.6549 0.96524 14.7487 2.09485 13.1825C6.65516 10.7757 11.6446 10.817 16.6159 10.6438C18.6841 10.5714 19.2839 11.7322 18.8599 13.273C18.3429 15.1783 20.76 18.1539 16.9081 18.9113C10.5588 20.1626 10.5511 20.1522 10.5588 26.5092C10.5588 31.0075 10.5847 35.5032 10.5976 39.9988" fill="#6B6C6E"/>
<path d="M42.6113 28.889C45.4989 28.889 46.8148 27.4982 46.9079 24.6131C47.0915 22.4974 46.7652 20.3686 45.9563 18.405C45.1475 16.4415 43.8796 14.7005 42.259 13.3281C40.6385 11.9557 38.7125 10.9919 36.6425 10.5174C34.5726 10.0429 32.4191 10.0717 30.3626 10.6013C28.8321 10.8908 27.3379 11.3587 25.8255 11.7465C24.4826 11.9801 23.22 12.5476 22.1539 13.3969C21.0877 14.2462 20.2523 15.35 19.7245 16.6067C18.3128 18.8271 17.4687 21.3605 17.2663 23.9839C17.0639 26.6073 17.5096 29.2402 18.564 31.6509C19.6184 34.0615 21.2492 36.176 23.313 37.8082C25.3767 39.4405 27.81 40.5403 30.3988 41.011H36.686C38.0846 39.6383 40.0467 39.933 41.722 39.4366C47.0449 37.8622 47.0216 37.9398 45.8971 32.6194C45.517 30.8098 45.0672 29.9076 42.8569 30.7659C40.0749 31.922 37.0784 32.472 34.0672 32.379C32.9317 32.5059 31.788 32.2248 30.8408 31.5859C29.8936 30.947 29.2045 29.9919 28.8968 28.8916C33.7621 28.8916 38.1828 28.8916 42.5983 28.8916M32.8676 22.139C31.575 21.1049 29.1475 23.1007 29.1062 20.6189C29.0777 18.8584 30.9701 17.9639 32.8392 18.0079C34.6643 18.0518 36.6213 18.8558 36.4998 20.681C36.337 23.0852 33.8733 20.9162 32.8676 22.139Z" fill="#6B6C6E"/>
<path d="M140.181 10.902C136.272 10.627 132.344 10.9355 128.527 11.8172C127.183 11.9989 125.942 12.6343 125.01 13.6179C124.077 14.6015 123.508 15.8743 123.398 17.2254C123.056 19.004 123.294 19.7124 125.269 19.079C128.242 18.0774 131.364 17.5904 134.501 17.6391C136.259 17.6882 138.056 17.7761 138.048 20.1777C138.048 22.5044 136.43 22.6725 134.558 22.7164C130.64 22.5098 126.722 23.1263 123.056 24.5261C121.09 25.3753 119.392 26.743 118.144 28.483C116.895 30.2229 116.143 32.2697 115.968 34.4041C115.508 38.1604 118.196 39.5021 120.802 40.9912H127.089C131.226 39.6521 135.546 41.3144 139.7 40.2725C141.934 33.3183 144.335 26.4132 146.341 19.397C147.735 14.5187 145.307 11.3829 140.181 10.8839M131.965 34.2412C131.073 34.3317 130.205 34.7738 129.323 34.7764C127.513 34.7764 125.016 35.6786 124.742 32.8142C124.517 30.4617 126.252 29.1484 128.488 28.6779C129.545 28.5357 130.612 28.4734 131.678 28.4918C132.785 28.9959 135.039 27.6567 135.15 29.4095C135.264 31.2915 135.067 33.9233 131.968 34.2412" fill="#58B4C1"/>
<path d="M221.549 15.8146C220.959 14.284 219.894 12.982 218.512 12.0985C217.129 11.2149 215.501 10.796 213.864 10.9028C209.687 10.562 205.516 11.6123 201.999 13.8901C198.482 16.1678 195.817 19.545 194.42 23.4953C190.589 32.7245 191.817 36.4523 200.185 41.0075H206.475C208.067 39.7149 210.128 39.9734 211.953 39.4563C216.948 38.0552 217.535 37.4295 217.607 32.0988C215.554 32.5383 213.517 32.9468 211.493 33.4173C208.858 34.2193 206.052 34.2694 203.391 33.5621C202.621 33.3905 201.942 32.9412 201.483 32.3001C201.025 31.659 200.818 30.8713 200.904 30.0876C201.075 27.7609 202.954 28.5726 204.19 28.5364C207.974 28.4356 211.764 28.4821 215.565 28.5054C217.173 28.5054 218.949 28.5054 219.869 27.1353C221.045 25.5235 221.813 23.651 222.108 21.6778C222.403 19.7046 222.215 17.6894 221.562 15.8043M210.583 23.0868C209.807 23.0377 209.032 23.0868 208.256 23.0868C207.998 23.1053 207.739 23.1053 207.481 23.0868C206.007 22.8516 203.618 23.8624 203.231 22.5181C202.695 20.6567 204.707 19.2168 206.227 18.0379C207.517 17.1386 209.095 16.749 210.655 16.9444C211.143 16.9245 211.629 17.011 212.08 17.198C212.531 17.385 212.935 17.6679 213.266 18.0271C213.596 18.3863 213.844 18.8132 213.993 19.278C214.142 19.7428 214.188 20.2345 214.127 20.7188C214.127 23.0455 212.434 23.2238 210.593 23.1075" fill="#58B5C1"/>
</g>
</svg>
