<svg width="165" height="88" viewBox="0 0 165 88" fill="none" xmlns="http://www.w3.org/2000/svg">
<path d="M46.2727 73.1439C47.174 72.2329 48.2796 71.5499 49.4976 71.1515C50.7157 70.7531 52.0111 70.6508 53.2766 70.853C54.366 70.9235 55.3874 71.4078 56.1316 72.2066C56.8757 73.0054 57.2865 74.0584 57.2798 75.1502C57.4079 78.9446 57.332 82.7312 57.3541 86.5209C57.3541 86.9952 57.2339 87.3019 56.6837 87.2497C56.5942 87.2438 56.5045 87.2438 56.415 87.2497C53.0047 87.3936 53.0046 87.3936 53.0046 84.0229C53.0046 81.928 53.0173 79.83 53.0046 77.7351C52.992 75.996 52.358 74.9952 51.1422 74.6901C50.3075 74.5275 49.4446 74.5868 48.64 74.8624C47.8353 75.1379 47.1171 75.6199 46.5572 76.2601C46.3715 76.6669 46.3047 77.118 46.3643 77.5613C46.3643 80.415 46.3327 83.2703 46.3802 86.1241C46.3928 86.9699 46.1874 87.2687 45.2735 87.2719C42.015 87.2845 42.015 87.3209 42.015 84.1478C42.015 80.3122 42.0783 76.4735 41.9802 72.6411C41.947 71.351 42.3881 70.9952 43.5534 71.1644C43.8653 71.2016 44.1805 71.2016 44.4925 71.1644C45.7035 71.0569 46.8007 71.0648 46.2727 73.1439Z" fill="#24A6C2"/>
<path d="M111.093 87.7051C108.715 87.7495 106.378 87.0893 104.374 85.8079C103.742 85.4047 103.425 85.0063 104.025 84.347C104.052 84.3123 104.077 84.2752 104.099 84.2364C104.507 83.6039 104.779 82.6775 105.364 82.3976C106.028 82.0814 106.6 83.0301 107.274 83.3463C108.671 84.0715 110.241 84.3954 111.811 84.2822C112.662 84.1858 113.571 83.996 113.656 82.8909C113.735 81.849 112.93 81.5375 112.132 81.3257C110.795 80.97 109.428 80.7154 108.099 80.336C105.264 79.5281 104.123 78.2063 104.132 75.8522C104.146 74.6994 104.563 73.5878 105.311 72.7106C106.059 71.8335 107.091 71.2461 108.227 71.0506C109.617 70.6865 111.067 70.6108 112.487 70.8283C113.908 71.0458 115.269 71.5519 116.486 72.3154C117.175 72.7265 117.462 73.106 116.886 73.8522C116.451 74.4103 116.27 75.3146 115.729 75.6008C115.097 75.9391 114.554 75.0348 113.931 74.7439C112.706 74.1759 111.345 73.9676 110.006 74.1431C109.27 74.2301 108.549 74.4799 108.425 75.3368C108.29 76.2696 109.043 76.5763 109.731 76.7597C111.024 77.1138 112.353 77.3257 113.648 77.6735C116.556 78.453 117.898 79.9818 117.9 82.4292C117.9 85.0079 116.216 86.8561 113.25 87.4537C112.415 87.6166 111.56 87.6514 111.093 87.7051Z" fill="#28A7C3"/>
<path d="M131.073 79.1939C131.003 77.5642 131.433 75.9521 132.306 74.5742C133.179 73.1963 134.453 72.1187 135.957 71.4864C137.456 70.7461 139.14 70.461 140.799 70.6664C142.459 70.8718 144.022 71.5586 145.296 72.6421C146.161 73.3378 146.286 73.918 145.315 74.5742C145.203 74.6485 145.102 74.7373 145.013 74.8382C144.161 75.8311 143.498 76.4904 142.091 75.2414C140.588 73.9038 137.938 74.62 136.607 76.3244C135.899 77.2319 135.55 78.3683 135.627 79.5167C135.703 80.6652 136.2 81.7451 137.023 82.5504C137.739 83.3111 138.722 83.7648 139.765 83.8164C140.809 83.868 141.832 83.5134 142.619 82.8271C143.359 82.1394 143.772 82.2548 144.313 82.903C144.461 83.0706 144.619 83.229 144.787 83.3773C146.431 84.914 146.442 85.1291 144.471 86.3812C143.151 87.2502 141.619 87.7414 140.041 87.8013C138.462 87.8612 136.897 87.4876 135.516 86.7211C134.123 86.035 132.961 84.9573 132.172 83.6202C131.383 82.2831 131.001 80.7448 131.073 79.1939Z" fill="#27A7C3"/>
<path d="M63.6272 79.6415C63.6272 78.3925 63.5876 77.1435 63.6414 75.8961C63.673 75.1229 63.3758 74.8052 62.6359 74.9364C61.1829 75.1988 60.7166 74.5475 60.93 73.1973C60.9715 72.8867 60.9715 72.5719 60.93 72.2613C60.8335 71.4107 61.1386 70.9744 62.0477 71.1356C63.3742 71.3712 63.6984 70.7925 63.6557 69.523C63.5624 66.7103 63.6335 66.7957 66.4351 66.6771C67.8422 66.6171 68.3134 67.0645 68.0778 68.3846C68.074 68.4293 68.074 68.4743 68.0778 68.519C68.0778 70.9665 68.0778 70.9918 70.5062 71.1214C71.1387 71.1546 71.4169 71.3395 71.3458 71.9751C71.335 72.1531 71.335 72.3316 71.3458 72.5095C71.3553 74.832 71.3568 74.87 69.0201 74.9127C68.2201 74.9269 68.054 75.221 68.0714 75.9356C68.1094 77.9909 68.0714 80.0462 68.092 82.0905C68.1109 83.4565 68.8825 84.1079 70.1979 83.6889C71.0881 83.4059 71.1592 83.8186 71.3347 84.4209C72.0604 86.9 71.5529 87.583 68.8762 87.7C65.3063 87.8502 63.6478 86.277 63.6351 82.7213C63.624 81.6936 63.6272 80.6676 63.6272 79.6415Z" fill="#2AA8C4"/>
<path d="M99.5105 76.1227C99.5105 79.465 99.4852 82.8073 99.5279 86.1495C99.5374 87.0144 99.2923 87.2816 98.3943 87.2847C95.1042 87.2927 95.1042 87.3306 95.1042 84.0357C95.1042 78.1085 95.1263 72.1781 95.082 66.254C95.082 65.258 95.3414 64.9702 96.3564 64.9891C99.5184 65.0287 99.5184 64.9892 99.5184 68.1069L99.5105 76.1227Z" fill="#2FAAC5"/>
<path d="M127.312 84.9277C127.311 85.6472 127.03 86.3381 126.528 86.8536C126.026 87.369 125.343 87.6685 124.624 87.6882C124.253 87.6988 123.884 87.6348 123.539 87.4998C123.194 87.3649 122.879 87.162 122.614 86.903C122.349 86.644 122.138 86.3343 121.995 85.9923C121.852 85.6503 121.779 85.283 121.781 84.9123C121.783 84.5416 121.859 84.175 122.006 83.8344C122.152 83.4938 122.366 83.1862 122.633 82.9298C122.901 82.6734 123.218 82.4734 123.564 82.3419C123.911 82.2104 124.28 82.1499 124.651 82.1641C125.008 82.1676 125.361 82.2421 125.689 82.3835C126.017 82.5249 126.313 82.7303 126.561 82.9876C126.809 83.2449 127.003 83.549 127.132 83.8821C127.261 84.2152 127.322 84.5707 127.312 84.9277Z" fill="#28A8C3"/>
<path d="M14.038 79.8074C13.6111 79.1118 13.6443 78.7797 14.4712 78.4556C15.3608 78.133 16.1562 77.5941 16.7857 76.8875C17.4152 76.181 17.8592 75.329 18.0775 74.4082C19.2649 69.7015 16.7415 65.2462 11.2332 65.0438C8.01109 64.9253 4.78107 65.058 1.55736 64.9932C0.570806 64.9742 0.270438 65.2114 0.279924 66.2359C0.332098 72.0351 0.300449 77.8343 0.309935 83.6272C0.309935 84.7781 -0.0662958 86.3149 0.521844 86.9805C1.20959 87.771 2.79688 87.1291 3.98265 87.2556C4.84746 87.3489 5.16529 87.0643 5.13367 86.1584C5.06885 84.2865 5.10842 82.4113 5.11949 80.5378C5.11949 80.1916 5.00241 79.7979 5.29174 79.5181C5.92181 79.3245 6.58944 79.2862 7.23752 79.4065C7.8856 79.5268 8.49487 79.8021 9.01347 80.209C10.1634 82.2749 11.306 84.3444 12.4412 86.4177C12.7099 86.911 12.9772 87.2825 13.6507 87.2619C15.17 87.2145 16.6894 87.2461 18.5091 87.2461C16.9234 84.6042 15.5052 82.1916 14.038 79.8074ZM10.2578 75.1956C9.92421 75.2035 9.58902 75.205 9.25384 75.2035C8.91867 75.2019 8.58348 75.2035 8.24988 75.2035C6.19455 75.2035 5.48147 75.2035 5.2459 74.3339C5.11943 73.6034 5.07706 72.8607 5.11949 72.1205C5.11949 69.1292 5.11947 69.1292 8.10127 69.1292C8.81589 69.1292 9.52416 69.1055 10.2435 69.1292C10.6535 69.1091 11.0633 69.1722 11.4482 69.3148C11.8331 69.4575 12.1851 69.6767 12.4829 69.9591C12.7807 70.2416 13.0182 70.5816 13.1809 70.9584C13.3437 71.3352 13.4283 71.7411 13.4298 72.1516C13.4313 72.562 13.3496 72.9686 13.1896 73.3466C13.0296 73.7246 12.7946 74.0662 12.4989 74.3509C12.2031 74.6355 11.8528 74.8572 11.469 75.0027C11.0851 75.1482 10.6757 75.2143 10.2656 75.1971L10.2578 75.1956Z" fill="#25A6C3"/>
<path d="M164.319 76.0948C164.306 74.9159 163.888 73.7773 163.136 72.8699C162.383 71.9626 161.341 71.3417 160.185 71.1114C157.533 70.34 154.686 70.6092 152.226 71.864C149.854 73.0387 149.896 73.0861 151.22 75.3501C151.654 76.09 151.957 76.0078 152.528 75.5746C153.609 74.7613 154.922 74.3178 156.275 74.3098C159.23 74.2371 160.386 75.6363 159.771 78.7051C158.921 78.0434 157.94 77.571 156.893 77.3199C155.847 77.0687 154.758 77.0446 153.701 77.249C153.052 77.3073 152.422 77.4931 151.845 77.7957C151.269 78.0983 150.758 78.5118 150.341 79.0124C149.925 79.5129 149.611 80.0908 149.419 80.7128C149.226 81.3349 149.158 81.9888 149.219 82.6371C149.318 84.0122 149.933 85.2989 150.941 86.2395C151.949 87.1801 153.276 87.705 154.654 87.709C156.567 87.7775 158.437 87.131 159.899 85.8956C159.758 87.2837 160.509 87.3596 161.446 87.2758C162.161 87.2316 162.879 87.2316 163.594 87.2758C164.129 87.2932 164.422 87.1509 164.416 86.5375C164.384 83.0466 164.471 79.5651 164.319 76.0948ZM158.444 84.4284C157.531 84.8258 156.505 84.8819 155.554 84.5865C155.038 84.5175 154.563 84.269 154.213 83.8847C153.862 83.5004 153.658 83.0048 153.636 82.4849C153.614 81.965 153.776 81.4541 154.094 81.0419C154.411 80.6296 154.864 80.3425 155.372 80.2307C155.839 80.069 156.332 79.9987 156.825 80.0237C158.604 80.0411 159.731 80.7936 159.997 82.011C160.036 82.1913 160.056 82.3751 160.057 82.5596C160.074 83.7216 159.252 84.071 158.444 84.4284Z" fill="#28A8C3"/>
<path d="M34.7822 72.5953C33.3147 71.3974 31.4883 70.7257 29.5943 70.6873C27.7004 70.6489 25.8481 71.2461 24.3333 72.3835C22.8101 73.5766 21.7285 75.2437 21.2594 77.1208C20.7904 78.9978 20.9607 80.9778 21.7435 82.7471C23.5838 87.1186 29.217 88.9969 34.1198 86.8688C36.7158 85.7416 36.7506 85.5439 35.0684 83.291C34.6842 82.7756 34.4597 82.6728 33.9301 83.0775C32.9314 83.7714 31.7594 84.1737 30.5451 84.2396C29.9873 84.3248 29.4181 84.2962 28.8716 84.1555C28.3252 84.0147 27.8129 83.7648 27.3657 83.4207C26.9185 83.0766 26.5456 82.6455 26.2695 82.1534C25.9934 81.6613 25.8199 81.1184 25.7593 80.5574H27.0763C30.2573 80.5574 33.4373 80.5574 36.6162 80.5574C37.1569 80.5574 37.6866 80.6522 37.6803 79.7906C37.7651 78.4509 37.5488 77.1094 37.0473 75.8643C36.5458 74.6192 35.7719 73.5022 34.7822 72.5953ZM32.5419 77.6546C32.2858 77.6441 32.0286 77.6372 31.7703 77.6341C30.9972 77.6262 30.2241 77.6451 29.451 77.6451C28.6779 77.6451 27.9064 77.6325 27.1332 77.6451C26.8755 77.6451 26.6178 77.6451 26.3601 77.6578C25.6518 77.6783 25.5127 77.4222 25.7277 76.774C26.0083 76.014 26.5139 75.3578 27.1772 74.8928C27.8405 74.4278 28.6299 74.1762 29.4399 74.1716C30.2483 74.1294 31.0494 74.3438 31.7287 74.7843C32.4079 75.2247 32.9305 75.8685 33.2218 76.6238C33.5095 77.3558 33.4289 77.6989 32.5419 77.6562V77.6546Z" fill="#27A7C3"/>
<path d="M89.5834 76.0429C89.5863 74.9522 89.2286 73.8912 88.5657 73.025C87.9029 72.1588 86.9721 71.5361 85.9186 71.254C84.2787 70.6942 82.5285 70.5365 80.815 70.794C79.1015 71.0515 77.4749 71.7168 76.072 72.7338C75.8238 72.9046 75.3605 73.0801 75.4965 73.3852C75.8157 74.264 76.2813 75.0823 76.8735 75.8057C77.4142 76.3654 77.8222 75.4452 78.2791 75.2065C79.1175 74.6787 80.0727 74.3651 81.0608 74.2932C82.0488 74.2212 83.0395 74.3932 83.9455 74.7939C85.6008 75.6034 85.3273 77.216 85.264 78.9046C84.1635 78.0184 82.8594 77.4207 81.4696 77.1654C80.1717 76.8766 78.8145 77.0299 77.6137 77.6008C76.4129 78.1717 75.4373 79.1275 74.842 80.3164C74.5064 81.2365 74.4201 82.2291 74.592 83.1933C74.7639 84.1575 75.1879 85.0592 75.8207 85.8067C76.4536 86.5542 77.2729 87.121 78.1956 87.4495C79.1182 87.7781 80.1115 87.8568 81.0744 87.6776C82.627 87.4128 84.0938 86.7808 85.3526 85.8342C85.0949 87.0658 85.5502 87.3472 86.4593 87.2681C87.2647 87.2158 88.0728 87.2158 88.8783 87.2681C89.468 87.295 89.653 87.0642 89.6482 86.4918C89.6198 83.0041 89.7004 79.5196 89.5834 76.0429ZM82.0909 84.778C81.7795 84.7631 81.47 84.7207 81.1661 84.6515C79.6388 84.3527 78.8372 83.5306 78.8846 82.3259C78.9499 81.7223 79.2278 81.1615 79.6687 80.7441C80.1096 80.3267 80.6846 80.0798 81.2909 80.0476C81.4619 80.027 81.6341 80.017 81.8063 80.0176C83.8284 79.9986 85.2451 80.8903 85.3051 82.1235C85.3779 83.6919 84.0499 84.8034 82.0831 84.7796L82.0909 84.778Z" fill="#26A7C3"/>
<path d="M60.6406 19.9973C61.015 19.1158 61.1955 18.1641 61.1702 17.2068C61.6594 13.1046 63.5171 9.28709 66.4431 6.37076C69.3692 3.45443 73.1929 1.60956 77.2966 1.13408C82.8251 0.0814272 88.5439 0.76341 93.6697 3.08665C99.8041 6.1064 102.621 11.3696 103.697 17.8723C104.865 24.9316 102.297 30.9853 98.8855 36.8446C94.5337 43.9842 89.4879 50.677 83.8215 56.8256C82.9077 57.8595 81.9337 57.9323 81.0863 56.971C74.6927 49.7711 68.6168 42.3402 64.1868 33.73C62.5917 30.7928 61.4893 27.6139 60.9236 24.3198C60.8951 24.1285 60.843 23.964 60.6406 23.8945V19.9973ZM63.9797 21.504C64.0702 25.603 65.292 29.5972 67.5101 33.0454C71.5212 40.16 76.9504 46.2311 81.8816 52.6706C82.3038 53.2224 82.5457 53.1133 82.9077 52.6248C83.6808 51.5813 84.4887 50.5695 85.3013 49.5513C89.6365 44.4688 93.5679 39.0552 97.0594 33.3601C99.8117 29.0917 101.079 24.0345 100.664 18.9727C99.8342 11.5704 95.491 6.22812 88.2373 4.54275C84.0537 3.54133 79.6831 3.62952 75.5433 4.79888C72.9339 5.44573 70.5524 6.79702 68.6587 8.70521C66.765 10.6134 65.4319 13.0052 64.805 15.6194C64.2684 17.5359 63.9892 19.5154 63.9749 21.5055L63.9797 21.504Z" fill="#27A7C3"/>
<path d="M74.7098 16.5811C75.6015 17.5961 76.4109 18.5305 77.2394 19.4522C77.505 19.7479 77.7485 20.2427 78.2323 20.0182C78.7161 19.7937 78.479 19.2894 78.4094 18.8989C78.0442 16.8167 77.6663 14.7345 77.2758 12.5621C79.9018 13.4538 79.8892 13.4475 81.1145 11.0601C81.4353 10.2383 81.8852 9.47296 82.4473 8.79297C83.0338 9.91866 83.5888 10.9669 84.1263 12.0246C84.9516 13.6467 84.9469 13.6483 86.6022 12.8151C86.7654 12.7253 86.9333 12.644 87.105 12.5716C87.2297 12.56 87.3553 12.5664 87.4781 12.5906C87.1477 14.4609 86.822 16.317 86.4931 18.1732C86.4399 18.3503 86.4023 18.5318 86.3809 18.7155C86.3809 19.1502 86.0346 19.721 86.539 19.9803C87.086 20.2633 87.3295 19.6498 87.6172 19.3321C88.4078 18.453 89.1762 17.5423 90.0568 16.5242C90.2251 16.9165 90.3641 17.3208 90.4726 17.7336C90.6086 18.5336 91.0259 18.6348 91.7706 18.4878C92.7366 18.2981 93.9951 17.5076 94.6022 18.1415C95.1224 18.6823 94.286 19.9344 94.0726 20.8767C93.7184 22.434 93.6773 22.4261 95.3374 23.5138C93.4797 25.0949 91.6852 26.6996 89.8038 28.1937C88.9864 28.8419 88.6623 29.4585 89.1224 30.4308C89.5825 31.4032 89.0765 31.5138 88.2591 31.3984C86.8789 31.204 85.4923 31.0632 84.1137 30.8656C83.1208 30.7217 82.6244 30.9826 82.7082 32.1067C82.8268 33.7194 82.8457 35.3399 82.8663 36.9589C82.8663 37.3794 83.0243 38.0134 82.3034 37.9928C81.5398 37.9723 81.8291 37.3098 81.8291 36.9225C81.8291 35.4427 81.905 33.9612 81.9492 32.4798C81.9998 30.7834 81.8718 30.6917 80.1311 30.9431C78.8916 31.1233 77.641 31.2371 76.3983 31.4016C75.5999 31.5059 75.2078 31.3257 75.5951 30.4529C75.7863 30.0536 75.8189 29.5967 75.6866 29.1743C75.5543 28.7518 75.2669 28.3953 74.8821 28.1763C73.0165 26.6633 71.2063 25.0806 69.2031 23.3826C71.1462 22.9921 71.075 21.8854 70.5786 20.5368C70.2798 19.7241 70.1295 18.8578 69.894 17.9455C70.7923 17.9312 71.6855 18.084 72.528 18.3961C73.6062 18.7123 74.2386 18.5668 74.3556 17.3415C74.4403 17.0738 74.5594 16.8182 74.7098 16.5811Z" fill="#26A7C3"/>
</svg>
