<svg width="113" height="122" viewBox="0 0 113 122" fill="none" xmlns="http://www.w3.org/2000/svg">
<path d="M51.9871 22.3926C49.9025 22.5174 47.8277 22.7735 45.7753 23.1594C44.9352 23.4303 44.0294 23.4184 43.1968 23.1255C42.3641 22.8325 41.6504 22.2746 41.165 21.5373C38.746 18.4353 36.3571 15.3097 33.8622 12.2709C33.1539 11.4093 33.3706 10.9129 33.8876 10.1065C35.7121 7.26069 38.6528 5.86619 41.4512 4.44486C46.0213 2.10218 51.065 0.831529 56.1996 0.729349C61.3341 0.627169 66.4244 1.69616 71.0841 3.85516C75.7437 6.01416 79.8503 9.20643 83.0919 13.1896C86.3335 17.1728 88.6251 21.8421 89.7925 26.8432C91.2613 33.2872 90.8311 40.0188 88.5541 46.2235C86.2772 52.4282 82.2509 57.84 76.9625 61.8043C76.3588 62.1746 75.8944 62.7343 75.6419 63.396C75.3893 64.0577 75.3629 64.7845 75.5665 65.4628C76.5467 70.1727 78.2984 74.4509 82.5609 77.2509C83.3735 77.7853 84.3159 78.4351 83.9127 79.6873C83.7291 80.2563 83.3489 80.7413 82.8401 81.0554C82.3314 81.3694 81.7273 81.492 81.1364 81.4011C76.4396 81.0905 71.8538 79.8354 67.6535 77.711C62.4551 75.3584 57.3294 72.8193 53.2899 68.6075C52.8119 68.1341 52.1766 67.8528 51.5048 67.817C37.6851 66.1063 26.1058 54.5221 23.5367 41.0676C22.7649 36.6826 22.7744 32.1956 23.565 27.8139C23.6994 26.9966 23.8813 25.9799 24.7683 25.7681C25.4971 25.5926 26.1611 26.2709 26.6544 26.8575C29.2936 29.7657 32.1474 32.4715 35.1919 34.9523C37.1511 36.5844 38.4134 38.903 38.7207 41.4345L37.3658 44.2234C35.5998 39.0265 31.4654 35.9404 27.1161 32.5428C26.837 34.9622 26.8822 37.408 27.2505 39.8155C28.4189 46.1448 31.5855 51.9328 36.2855 56.33C40.9854 60.7272 46.9712 63.502 53.3642 64.247C54.2018 64.3035 54.9847 64.6834 55.5475 65.3063C58.0894 68.0001 61.1024 70.2065 64.4377 71.8169C67.994 73.8823 71.8325 75.4178 75.8321 76.375C73.8082 73.2985 72.4058 69.8557 71.704 66.2407C71.0431 63.096 71.2582 60.5379 74.4518 58.4937C79.1281 55.2773 82.7259 50.7257 84.7756 45.4331C86.8252 40.1405 87.2314 34.3528 85.9411 28.8258C86.0807 28.4285 86.1208 28.0029 86.0579 27.5865C85.9951 27.1701 85.8313 26.7754 85.5807 26.4369C85.4268 26.0912 85.2723 25.7454 85.1174 25.3997C85.1415 25.2044 85.1098 25.0063 85.0258 24.8283C84.9418 24.6503 84.8092 24.4998 84.6431 24.3942L84.1071 22.8812L84.047 22.3579C84.0667 22.284 84.0682 22.2064 84.0514 22.1318C84.0346 22.0572 84 21.9878 83.9506 21.9294C83.9811 21.7992 83.9841 21.6641 83.9594 21.5328C83.9347 21.4014 83.8827 21.2766 83.8069 21.1664C83.7312 21.0563 83.6332 20.9632 83.5194 20.8931C83.4055 20.823 83.2783 20.7775 83.1458 20.7594L82.6858 19.8029C81.0163 16.8954 79.3783 13.9531 76.3854 12.1381C71.4469 7.76445 65.1919 5.16111 58.6086 4.73937C52.0253 4.31762 45.4892 6.10153 40.033 9.80927C38.3112 10.9365 37.739 12.0227 39.3105 13.8013C40.7643 15.5294 42.1249 17.3338 43.3864 19.2069C43.7988 19.8341 44.3993 20.3145 45.1017 20.5792C45.8041 20.8439 46.5724 20.8794 47.2962 20.6804C49.8353 20.3136 52.3555 19.3523 54.9989 20.048C54.7196 20.6502 54.3007 21.1771 53.7769 21.5849C53.2531 21.9927 52.6395 22.2696 51.9871 22.3926Z" fill="#BCBBB7"/>
<path d="M52.7737 116.928C52.7467 116.861 52.7002 116.805 52.6404 116.765C52.5806 116.726 52.5103 116.705 52.4386 116.706C50.0513 111.62 49.8346 106.6 52.9129 101.687L56.8986 98.2779L59.3603 97.4146L60.4955 97.1759L60.9445 97.1221L62.867 97.1601C64.8695 97.6406 66.7794 98.4466 68.5207 99.5459V93.2329C68.5207 87.3831 68.5208 87.383 74.4891 87.4969L74.6125 90.0266V118.275C75.2891 120.294 74.8528 121.484 72.4638 120.886C69.6065 120.2 66.6063 120.421 63.8804 121.519L62.4007 121.547C60.2978 121.358 58.2394 120.83 56.3057 119.982L55.2686 119.313L52.7737 116.928ZM68.4685 109.435C68.5531 107.788 67.9974 106.172 66.9177 104.925C65.838 103.678 64.318 102.898 62.6757 102.746C59.2733 102.672 56.6805 105.554 56.6678 109.423C56.5926 110.24 56.6888 111.065 56.9502 111.843C57.2115 112.622 57.6324 113.338 58.1858 113.945C58.7392 114.551 59.4131 115.036 60.1644 115.368C60.9157 115.7 61.728 115.871 62.5493 115.871C63.367 115.858 64.1735 115.678 64.9196 115.343C65.6658 115.008 66.336 114.525 66.8896 113.923C67.4433 113.321 67.8687 112.613 68.1402 111.841C68.4116 111.07 68.5233 110.251 68.4685 109.435Z" fill="#EB6915"/>
<path d="M89.0003 106.668C92.2398 97.6704 99.3797 94.8468 107.762 99.2499L110.86 102.606L110.875 102.628L112.531 107.699C112.563 108.556 112.595 109.413 112.627 110.27C112.618 111.719 111.628 111.724 110.564 111.721C105.873 111.704 101.181 111.756 96.4928 111.693C94.8312 111.67 94.8596 112.186 95.5884 113.398C96.0427 114.154 96.6567 114.801 97.3874 115.293C98.1182 115.786 98.9481 116.113 99.8186 116.251C100.689 116.389 101.579 116.335 102.427 116.092C103.274 115.85 104.058 115.424 104.724 114.847C105.791 113.955 111.124 113.057 111.402 113.836C112.097 115.786 110.216 116.84 109.388 118.271C109.312 118.42 109.247 118.574 109.192 118.731C103.748 122.35 98.3078 122.709 92.8738 118.709L89.7718 114.712L89.0967 112.739C88.7955 110.729 88.7631 108.687 89.0003 106.668ZM100.7 106.787V106.796C102.123 106.796 103.536 106.775 104.953 106.796C106.485 106.824 106.418 106.097 105.756 105.122C105.213 104.276 104.456 103.589 103.563 103.129C102.669 102.668 101.67 102.452 100.667 102.5C99.6623 102.464 98.6675 102.705 97.7912 103.197C96.9149 103.689 96.1911 104.413 95.6991 105.289C95.1078 106.251 95.0841 106.813 96.4453 106.787C97.8683 106.764 99.288 106.787 100.706 106.787H100.7Z" fill="#EB6915"/>
<path d="M16.5019 120.84C9.76203 122.308 5.43478 120.895 2.3344 116.211C0.880515 113.931 0.188861 111.248 0.359374 108.55C0.529887 105.851 1.5537 103.277 3.28297 101.199C4.9504 99.2885 7.19203 97.9701 9.6719 97.4414C12.1518 96.9126 14.7363 97.202 17.0379 98.266C17.3462 98.394 17.6702 98.4873 17.9865 98.5996L20.524 100.562L20.5541 100.601L21.0031 101.113C26.1714 108.252 24.2679 116.979 16.5019 120.84ZM17.8648 109.546C17.8853 105.633 15.3588 102.628 12.0782 102.658C8.83392 102.686 6.40077 105.539 6.38654 109.335C6.3644 113.162 8.72483 116.003 12.0039 116.1C12.821 116.061 13.6221 115.859 14.3606 115.507C15.0991 115.155 15.7602 114.66 16.3054 114.05C16.8505 113.44 17.2689 112.728 17.5361 111.955C17.8033 111.181 17.9139 110.363 17.8616 109.546H17.8648Z" fill="#EB6915"/>
<path d="M48.2389 113.75C48.0554 113.937 47.9126 114.16 47.8196 114.405C47.7265 114.65 47.6852 114.912 47.6982 115.173L45.061 118.731C44.9892 118.729 44.9187 118.749 44.8582 118.787C44.7976 118.826 44.7499 118.882 44.7211 118.947L42.6815 120.299C42.483 120.287 42.2849 120.329 42.1078 120.419C41.9307 120.51 41.7811 120.647 41.6745 120.814C41.4714 120.783 41.2635 120.806 41.0724 120.882C40.8814 120.958 40.7142 121.084 40.5883 121.246L40.5994 121.222L39.6507 121.404L37.6556 121.646L36.1093 121.595L35.1053 121.467L34.6121 121.399L34.3907 121.297L34.1473 121.308C29.1433 119.369 25.9497 116.013 25.469 110.435C25.2459 106.894 26.3812 103.401 28.6437 100.667L29.6271 99.8153L30.5204 99.1055L30.9678 98.7892C33.3368 97.5738 35.9866 97.0107 38.6452 97.1577L40.6705 97.5797C47.9432 101.362 49.9669 105.687 48.2389 113.75ZM31.4611 109.226C31.3198 110.524 31.5832 111.835 32.2151 112.978C32.847 114.122 33.8167 115.042 34.9915 115.613C36.3079 116.186 37.7977 116.213 39.1338 115.688C40.4699 115.163 41.5429 114.129 42.1171 112.813C43.7171 109.543 42.6089 104.976 39.8436 103.431C35.8105 101.178 31.567 104.111 31.4611 109.226Z" fill="#EB6915"/>
<path d="M78.3308 113.785C78.2749 112.907 78.2222 112.028 78.1727 111.148L78.2802 110.974L78.168 110.802C78.4446 103.886 78.4336 96.9709 78.168 90.0539C78.5095 88.9472 77.8027 87.1132 80.0651 87.3582H81.0502H81.5782H82.5932C83.341 87.4989 84.2406 87.374 84.4588 88.4318C84.171 95.7045 84.2217 102.961 84.481 110.226C84.3352 110.547 84.2621 110.897 84.267 111.25C84.2719 111.603 84.3547 111.95 84.5094 112.267C84.492 113.142 84.2407 114.062 85.0027 114.783C85.1055 115.206 85.3315 115.655 85.7631 115.64C87.5022 115.572 87.858 116.569 87.5908 117.975C87.3679 119.143 88.3814 120.683 86.609 121.412L85.1086 121.398C83.8495 121.221 82.6497 120.75 81.6061 120.024C80.5624 119.298 79.7042 118.336 79.1007 117.217L79.1165 117.232L78.3308 113.785Z" fill="#EB6915"/>
<path d="M37.3635 44.2166C37.8136 43.288 38.2652 42.3589 38.7184 41.4293C39.8821 40.5154 40.3469 38.4791 42.3959 38.9834C43.2555 39.1441 44.04 39.5786 44.6321 40.2221C45.2243 40.8656 45.5924 41.6834 45.6812 42.5534L45.7144 42.5359L45.207 42.5644C44.7548 42.9091 44.4497 43.5873 44.9097 43.8071C45.7968 44.3747 46.8209 44.6913 47.8735 44.7233C48.9261 44.7553 49.9676 44.5015 50.8875 43.9889C51.082 44.2022 51.2152 44.4641 51.2728 44.7469C51.3304 45.0298 51.3104 45.3229 51.2148 45.5952C50.75 45.9114 50.7768 46.4363 50.6567 46.898C50.4093 47.156 50.2215 47.4652 50.1065 47.8036C49.9915 48.1421 49.9522 48.5016 49.9911 48.8569L55.5974 49.2126C54.3689 52.0585 57.0599 51.4719 58.2298 52.2166L59.1784 55.0118C58.6488 55.7122 59.2448 57.0213 57.9421 57.3043L57.7839 56.3145C56.3341 56.9248 54.7579 56.4727 53.2875 56.8616C53.1442 56.9468 53.0351 57.0792 52.9786 57.236C52.9221 57.3929 52.9218 57.5645 52.9778 57.7215C53.0339 57.8785 53.1427 58.0112 53.2857 58.0969C53.4287 58.1825 53.597 58.2159 53.7619 58.1912C55.0979 58.2007 56.4353 58.1723 57.7713 58.158L57.9042 58.6513C57.5739 59.0848 57.156 59.4438 56.6776 59.7048C56.1992 59.9657 55.6711 60.1229 55.1278 60.1659C52.9144 60.4078 52.8986 57.9825 51.7034 57.3533C50.3279 56.6292 47.9342 57.7707 47.1531 55.679C46.6124 54.2308 45.8488 54.1833 44.6156 54.0616C41.9073 53.7928 41.0836 52.5707 41.6765 50.1454C41.6465 50.8853 42.3453 51.1288 42.6742 51.6253C43.4505 53.3407 45.0062 52.4158 46.2125 52.6672C46.325 52.8373 46.4817 52.9735 46.6658 53.0613C46.8499 53.149 47.0545 53.1849 47.2575 53.1652C47.3477 53.9557 46.9034 55.0134 48.2299 55.2205C49.95 55.6948 51.7998 56.7478 52.8385 54.1849L53.335 53.6916C53.735 53.2078 54.3579 52.8094 53.6907 52.0521C53.2021 51.4972 52.9001 51.7849 52.312 51.9557C51.6482 52.1802 50.9458 52.2679 50.2472 52.2135C49.5486 52.1592 48.8683 51.9639 48.2472 51.6395L48.7705 50.1296C48.7326 49.4087 49.8772 47.9952 47.7175 48.5486C46.7637 48.8741 45.7225 48.8307 44.7991 48.4268C43.4046 47.4482 42.9018 48.5423 42.1113 49.1209C40.5477 48.0553 37.9801 48.9802 37.082 46.5913C37.7856 46.6276 38.4481 46.1929 39.2086 46.7494C39.6862 47.0078 40.2114 47.1665 40.7522 47.2157C41.2931 47.2649 41.8383 47.2036 42.3548 47.0355C43.4473 46.8458 43.7097 45.8751 43.6418 44.917C43.6351 44.7459 43.5835 44.5797 43.4924 44.4348C43.4012 44.2899 43.2736 44.1715 43.1223 44.0914C42.971 44.0114 42.8013 43.9725 42.6303 43.9786C42.4592 43.9848 42.2929 44.0358 42.1477 44.1265C40.6679 45.0134 38.8971 44.2609 37.4631 45.1352C36.9176 44.898 37.2607 44.5454 37.3635 44.2166Z" fill="#EC682D"/>
<path d="M76.3774 12.1348C79.3719 13.9545 81.0082 16.892 82.6777 19.7995C81.6232 19.9687 80.975 21.0296 79.7071 20.8936C75.4826 20.4399 71.2454 21.5498 67.0035 20.8826C66.1957 20.699 65.3739 20.5848 64.5467 20.5411C61.7008 20.617 58.5751 19.632 56.3253 22.3782C55.5348 22.3245 55.3087 23.0944 54.7933 23.4407L51.7593 25.3553C49.8036 25.458 49.5095 27.1735 48.7554 28.4446C48.0581 29.4375 46.9056 30.1015 46.6495 31.4074L44.1088 31.994C44.0282 31.7774 43.8132 31.4391 43.8859 31.3616C46.5736 28.3576 47.8384 24.0731 51.9886 22.3972C52.6406 22.2728 53.2533 21.9944 53.7759 21.5852C54.2984 21.176 54.7155 20.6478 54.9925 20.0447C57.1645 18.5975 59.7892 17.9911 62.3758 18.3387C68.5766 19.6462 73.0288 17.1782 76.3774 12.1348Z" fill="#F09463"/>
<path d="M57.8984 58.661L57.7656 58.1693L57.9348 57.314C59.2391 57.031 58.6414 55.7219 59.1727 55.0231C59.4493 56.495 59.9285 58.1156 61.7719 57.5638C63.4873 57.05 63.5631 55.4689 63.0272 53.8342C62.5285 52.5082 61.6023 51.3861 60.3948 50.6452C60.5671 49.8879 59.3339 49.4089 59.8304 48.7796C60.2146 48.2911 60.8312 48.9631 61.3292 49.1765L63.8763 52.1899C63.9083 52.5744 64.0165 52.9487 64.1945 53.2909C64.3726 53.6332 64.617 53.9366 64.9134 54.1836C64.5419 55.4958 64.8786 56.1741 66.281 55.4642C68.0628 54.5614 68.0991 52.8903 67.9047 51.1828C67.6264 50.5122 67.1186 49.9625 66.4722 49.6318C66.0264 48.9204 65.8398 48.0176 64.9703 47.6192L63.4889 44.9457C64.2921 44.4145 64.7537 45.246 65.3624 45.2192C65.7154 46.2521 66.4565 47.1072 67.4288 47.6034L67.9363 48.1251L69.4651 50.1441C69.5726 50.7575 69.1331 51.635 69.9394 51.9053C70.6113 52.1314 71.1015 51.5085 71.5647 50.9994C72.081 50.5034 72.4061 49.8413 72.4827 49.1294C72.5593 48.4175 72.3826 47.7014 71.9837 47.1069C71.9964 46.7842 71.909 46.4655 71.7335 46.1944C71.558 45.9232 71.3031 45.713 71.0035 45.5923C70.9365 45.1532 70.7594 44.7382 70.4888 44.386C70.2181 44.0338 69.8627 43.7558 69.4557 43.5781C68.9542 42.7602 68.2749 42.0658 67.4683 41.5465L65.1679 38.0998C67.2675 38.4477 67.9521 40.2216 69.4367 40.6137C70.1252 41.5883 70.9818 42.4326 71.9664 43.1069L73.5331 45.0974C73.9442 46.9393 74.7237 47.1354 75.9885 45.7077C76.4545 45.2417 76.7558 44.6365 76.8471 43.9837C76.9384 43.331 76.8145 42.6664 76.4943 42.0904C75.9473 41.3157 75.677 40.288 74.5861 40.0129C73.9361 38.5688 72.8839 37.3426 71.5553 36.4809C70.4211 35.0423 69.0333 33.8232 67.4604 32.884L66.9861 31.7773C68.7492 31.9876 70.4439 32.5853 71.9489 33.5275L78.5481 41.0943C78.4263 42.7686 79.7323 44.5726 78.2019 46.1109C76.1352 47.876 74.3852 49.9811 73.0272 52.3354C72.8457 52.6706 72.5943 52.9629 72.2898 53.1924C71.9854 53.4218 71.6351 53.583 71.2628 53.665C70.8908 53.7411 70.542 53.9037 70.2445 54.1397C69.9471 54.3756 69.7093 54.6782 69.5505 55.0231C68.0723 58.2563 64.2272 57.616 61.9616 59.6333C61.4273 60.1077 60.1609 59.7915 59.4494 59.0215C59.2893 58.7706 59.0373 58.5924 58.7474 58.525C58.4575 58.4576 58.1527 58.5064 57.8984 58.661Z" fill="#BCBBB7"/>
<path d="M71.9339 33.5297C70.4296 32.5876 68.7352 31.9904 66.9726 31.7811C65.7083 31.1598 64.4867 30.4552 63.3157 29.672C62.7007 29.1526 61.9848 28.7662 61.2131 28.5371C60.4413 28.308 59.6305 28.2413 58.8317 28.3412C58.0329 28.441 57.2634 28.7051 56.5718 29.1171C55.8801 29.529 55.2813 30.0797 54.813 30.7345C54.0387 32.0254 52.9157 33.0714 51.5731 33.7522C50.2305 34.433 48.7231 34.7209 47.2241 34.5827C45.9973 33.9503 44.3688 33.7921 44.1016 31.9945L46.6423 31.408C46.8781 31.7305 47.1855 31.9941 47.5404 32.1778C47.8952 32.3616 48.2879 32.4605 48.6874 32.467C49.087 32.4734 49.4826 32.3872 49.8432 32.2149C50.2038 32.0427 50.5195 31.7892 50.7656 31.4744C53.1213 29.7764 54.7656 27.0823 57.8628 26.4325C59.5014 26.0195 61.191 25.8454 62.8794 25.9155C64.7377 28.0923 67.1903 29.6802 69.937 30.4847C70.0145 31.8965 72.3735 31.7179 72.0051 33.4428L71.9339 33.5297Z" fill="#C06514"/>
<path d="M47.2285 34.5822C48.7275 34.7203 50.2349 34.4324 51.5775 33.7516C52.92 33.0709 54.0431 32.0248 54.8174 30.7339C55.2855 30.0789 55.8843 29.5281 56.576 29.116C57.2676 28.704 58.0372 28.4397 58.8361 28.3399C59.6349 28.2401 60.4458 28.3068 61.2175 28.536C61.9893 28.7652 62.7052 29.1518 63.3201 29.6715C64.4911 30.4547 65.7127 31.1593 66.977 31.7806L67.4514 32.8873C65.7014 32.832 63.9829 32.4063 62.4095 31.6383C61.2671 30.9648 59.915 30.7407 58.6164 31.0096C57.3179 31.2784 56.166 32.0211 55.385 33.0928C54.7184 34.0086 53.8441 34.7532 52.8337 35.2652C51.8233 35.7773 50.7058 36.0422 49.5731 36.0383C49.0768 36.0855 48.5788 35.9686 48.1553 35.7056C47.7318 35.4426 47.4062 35.048 47.2285 34.5822Z" fill="#D4D4D4"/>
<path d="M60.3953 50.6406C61.6028 51.3815 62.5291 52.5035 63.0278 53.8295C63.5638 55.4643 63.4879 57.0454 61.7725 57.5592C59.929 58.111 59.4499 56.4904 59.1732 55.0185C58.857 54.0857 58.5408 53.1534 58.2246 52.2216C58.9345 51.6699 59.4752 50.8952 60.3953 50.6406Z" fill="#E8E7E6"/>
<path d="M71.9593 43.1042C70.9747 42.4299 70.1182 41.5856 69.4297 40.6109C69.8728 39.1149 70.5877 37.7134 71.5387 36.4766C72.8681 37.3374 73.9206 38.5639 74.5696 40.0086C73.3348 40.7295 73.2352 42.4149 71.9593 43.1042Z" fill="#FAF7F1"/>
<path d="M67.4277 47.6022C66.4554 47.106 65.7143 46.2509 65.3613 45.218L67.4641 41.5469C68.2707 42.0662 68.95 42.7606 69.4515 43.5785C68.9424 44.3548 69.6095 45.3666 68.9471 46.1081C68.7451 46.0897 68.5416 46.1154 68.3505 46.1836C68.1595 46.2518 67.9857 46.3608 67.8411 46.503C67.6965 46.6452 67.5846 46.8172 67.5132 47.007C67.4418 47.1969 67.4127 47.4 67.4277 47.6022Z" fill="#FAF7F1"/>
<path d="M50.8886 43.9962C49.9688 44.5088 48.9272 44.7626 47.8746 44.7305C46.822 44.6985 45.7978 44.3819 44.9108 43.8143C44.4507 43.5945 44.7527 42.9163 45.208 42.5717L45.6302 42.8973L45.7156 42.5432L45.6824 42.5606C47.695 42.0372 49.8214 41.1092 50.8886 43.9962Z" fill="#F18551"/>
<path d="M64.9692 47.618C65.8356 48.0165 66.0253 48.9192 66.4712 49.6307L63.8751 52.1872L61.3281 49.1738C62.6989 49.0236 63.5162 47.5769 64.9692 47.618Z" fill="#E8E7E6"/>
<path d="M55.5975 49.2152L49.9912 48.8595C49.9521 48.5044 49.9916 48.1451 50.1066 47.8069C50.2216 47.4687 50.4094 47.1599 50.6568 46.9022C50.7004 46.9697 50.731 47.0447 50.7469 47.1235C51.9137 47.5393 53.0899 46.2239 54.2662 47.1567C54.9508 47.6927 55.8995 48.0453 55.5975 49.2152Z" fill="#F09463"/>
<path d="M50.7444 47.1214C50.7285 47.0427 50.6979 46.9676 50.6543 46.9001C50.7745 46.4368 50.7476 45.9103 51.2124 45.5957C51.273 45.8688 51.2618 46.1529 51.1797 46.4203C51.0977 46.6877 50.9477 46.9293 50.7444 47.1214Z" fill="#F18551"/>
<path d="M60.9382 97.1267L60.4922 97.1801C60.6325 97.1192 60.7875 97.1007 60.9382 97.1267Z" fill="#FAF7F1"/>
<path d="M78.1606 110.801L78.2716 110.971L78.1652 111.143C78.1413 111.122 78.122 111.096 78.1087 111.066C78.0954 111.037 78.0884 111.005 78.0879 110.973C78.0875 110.941 78.0936 110.909 78.1061 110.879C78.1187 110.85 78.1372 110.823 78.1606 110.801Z" fill="#F7F1E8"/>
<path d="M57.8979 58.6577C58.1513 58.5078 58.453 58.4619 58.7396 58.5297C59.0261 58.5975 59.2752 58.7737 59.4346 59.0213C60.1461 59.7945 61.4141 60.1091 61.9469 59.6332C64.2109 57.6158 68.0575 58.2577 69.5357 55.0229C69.6945 54.6781 69.9323 54.3754 70.2298 54.1395C70.5272 53.9036 70.876 53.7409 71.248 53.6648C71.6203 53.5828 71.9706 53.4216 72.275 53.1922C72.5795 52.9628 72.831 52.6705 73.0125 52.3352C74.3705 49.9809 76.1204 47.8759 78.1871 46.1107C79.7175 44.5661 78.4101 42.7684 78.5334 41.0941C79.5554 39.6441 80.1706 37.9469 80.3151 36.1787C80.4094 35.2612 80.6904 34.3727 81.141 33.5679C81.5915 32.7631 82.2021 32.0589 82.935 31.4989C83.9484 30.6215 84.9381 29.7171 85.9388 28.8223C87.2291 34.3493 86.823 40.1369 84.7733 45.4295C82.7237 50.7221 79.1259 55.2737 74.4496 58.4901C71.2559 60.5344 71.0409 63.094 71.7017 66.2371C72.4036 69.8521 73.806 73.2949 75.8298 76.3715C71.8302 75.4143 67.9916 73.8787 64.4353 71.8134C61.1 70.203 58.0872 67.9965 55.5453 65.3028C54.9824 64.6798 54.1996 64.3 53.3619 64.2435C46.969 63.4984 40.9832 60.7236 36.2832 56.3264C31.5833 51.9292 28.4166 46.1412 27.2481 39.8119C26.8799 37.4045 26.8348 34.9586 27.1138 32.5392C31.4616 35.9368 35.5975 39.0214 37.3635 44.2198C37.2608 44.5471 36.9192 44.8997 37.4631 45.1574L37.1723 45.7186C36.7312 45.8151 36.875 46.0348 37.0631 46.253C37.0256 46.305 37.0073 46.3682 37.011 46.4322C37.0148 46.4961 37.0404 46.5568 37.0837 46.604C37.9817 48.9929 40.5493 48.068 42.113 49.1336C41.9654 49.473 41.8184 49.8124 41.6719 50.1518C41.079 52.5771 41.901 53.7992 44.6109 54.068C45.8457 54.1897 46.6078 54.2388 47.1485 55.6854C47.9295 57.7771 50.3232 56.634 51.6987 57.3597C52.8939 57.9921 52.9129 60.4142 55.1232 60.1723C55.6662 60.129 56.1939 59.9718 56.672 59.7108C57.1501 59.4498 57.5678 59.091 57.8979 58.6577Z" fill="#FCFBFA"/>
<path d="M76.3759 12.134C73.0257 17.1775 68.5735 19.6455 62.3712 18.3332C59.7845 17.9856 57.1598 18.592 54.9878 20.0392C52.3539 19.3482 49.8274 20.3095 47.2867 20.6716C46.5629 20.8705 45.7946 20.8351 45.0922 20.5704C44.3897 20.3057 43.7893 19.8252 43.3768 19.198C42.1153 17.325 40.7548 15.5206 39.301 13.7926C37.7294 12.0139 38.3033 10.9278 40.0234 9.80049C45.4801 6.09338 52.0166 4.31025 58.5999 4.73285C65.1831 5.15546 71.438 7.75968 76.3759 12.134Z" fill="#FEFEFE"/>
<path d="M69.9424 30.483C67.1957 29.6785 64.7431 28.0907 62.8848 25.9139C63.272 26.0719 63.6818 26.1674 64.099 26.1969C70.4579 25.5645 76.8341 26.0973 83.1961 25.8933C83.8524 25.8006 84.4962 25.6346 85.1155 25.3984L85.5788 26.4356L81.0792 29.9707C79.8833 30.2785 78.6345 30.3206 77.4206 30.0941C74.9239 29.7966 72.3948 29.9281 69.9424 30.483Z" fill="#EC5F22"/>
<path d="M81.0802 29.9707L85.5798 26.4355C85.8304 26.774 85.9943 27.1687 86.0571 27.5852C86.12 28.0016 86.0799 28.4271 85.9403 28.8244C84.9411 29.7177 83.9513 30.6236 82.9363 31.5011C82.2034 32.0611 81.593 32.7652 81.1424 33.5701C80.6919 34.3749 80.4108 35.2634 80.3166 36.181C80.172 37.9491 79.5568 39.6463 78.5347 41.0963L71.9355 33.5296L72.0115 33.4426C72.5685 33.0374 73.2002 32.7465 73.8701 32.5867C74.5401 32.4268 75.2351 32.4013 75.915 32.5114C78.4715 33.2624 79.8675 31.8521 81.0802 29.9707Z" fill="#C06514"/>
<path d="M54.791 23.4421C55.308 23.0958 55.5294 22.3259 56.3231 22.3796C57.0551 23.2128 58.0385 22.8729 58.9112 22.8745C67.308 22.8967 75.7017 22.884 84.0985 22.8745C84.2766 23.3794 84.4553 23.8837 84.6344 24.3876C83.5784 24.6306 82.5055 24.7933 81.4249 24.8745C73.7744 24.9172 66.1238 24.9409 58.4748 24.8571C57.1705 24.8476 55.6131 24.9519 54.791 23.4421Z" fill="#F0733B"/>
<path d="M84.0976 22.8762C75.7008 22.8762 67.3071 22.8921 58.9103 22.8762C58.0376 22.8762 57.0543 23.2145 56.3223 22.3814C58.5752 19.6351 61.7071 20.6185 64.5435 20.5442C65.3707 20.588 66.1927 20.7022 67.0004 20.8857C71.2423 21.5529 75.4795 20.443 79.704 20.8968C80.9688 21.0327 81.6186 19.9719 82.6747 19.8027C82.8328 20.1189 82.9814 20.4351 83.1348 20.7608C83.0806 20.9874 83.1014 21.2255 83.194 21.4393C83.2867 21.6532 83.4462 21.8312 83.6486 21.9466L84.036 22.3577L84.0976 22.8762Z" fill="#F18551"/>
<path d="M54.7919 23.4414C55.614 24.9513 57.1635 24.8469 58.4757 24.8643C66.1247 24.9481 73.7752 24.9244 81.4258 24.8817C82.5064 24.8006 83.5793 24.6378 84.6353 24.3948C84.8015 24.5002 84.9344 24.6507 85.0183 24.8287C85.1023 25.0067 85.1339 25.205 85.1096 25.4003C84.4903 25.6365 83.8465 25.8025 83.1903 25.8952C76.8282 26.0991 70.4519 25.5663 64.093 26.1987C63.6759 26.1692 63.266 26.0737 62.8788 25.9157C61.1905 25.8462 59.501 26.0203 57.8623 26.4327C56.5366 25.9225 55.0973 25.7816 53.6978 26.0248C53.3462 26.1568 52.9596 26.1624 52.6042 26.0407C52.2488 25.919 51.9469 25.6775 51.75 25.3576L54.7919 23.4414Z" fill="#EC682D"/>
<path d="M83.6546 21.9455C83.4522 21.8301 83.2927 21.6522 83.2 21.4383C83.1074 21.2245 83.0867 20.9864 83.1409 20.7598C83.2732 20.7777 83.4002 20.823 83.5139 20.8928C83.6277 20.9626 83.7257 21.0554 83.8016 21.1652C83.8775 21.275 83.9296 21.3994 83.9547 21.5305C83.9797 21.6616 83.9771 21.7965 83.9471 21.9266C83.8491 21.9313 83.7495 21.936 83.6546 21.9455Z" fill="#F09463"/>
<path d="M83.6523 21.943C83.7481 21.9336 83.8471 21.9289 83.9429 21.9258C83.9917 21.9839 84.0258 22.0529 84.0422 22.127C84.0586 22.2011 84.0569 22.2781 84.0371 22.3514L83.6523 21.943Z" fill="#F0733B"/>
<path d="M41.6709 50.1527C41.8174 49.8133 41.9644 49.4739 42.112 49.1346C42.9025 48.5559 43.3973 47.4618 44.7997 48.4404C45.7232 48.8443 46.7644 48.8877 47.7183 48.5622C49.8795 48.0025 48.7333 49.4159 48.7713 50.1432C46.6449 50.108 44.5454 50.6227 42.6764 51.6373C42.3396 51.1361 41.6408 50.8926 41.6709 50.1527Z" fill="#E05F17"/>
<path d="M37.1727 45.7164L37.4636 45.1552C38.8992 44.2825 40.6699 45.0335 42.1482 44.1465C42.2934 44.0558 42.4597 44.0048 42.6308 43.9987C42.8018 43.9925 42.9715 44.0314 43.1228 44.1115C43.2741 44.1915 43.4017 44.3099 43.4929 44.4548C43.584 44.5997 43.6356 44.766 43.6423 44.937C43.7118 45.8951 43.4478 46.8659 42.3553 47.0556C41.8388 47.2236 41.2936 47.2849 40.7527 47.2357C40.2119 47.1865 39.6867 47.0279 39.2091 46.7694C38.4486 46.2082 37.7861 46.6429 37.0825 46.6113C37.0392 46.5641 37.0136 46.5032 37.0102 46.4392C37.0067 46.3752 37.0256 46.3119 37.0636 46.2603L37.1727 45.7164Z" fill="#D35E11"/>
<path d="M42.6699 51.6325C44.539 50.6179 46.6384 50.1033 48.7647 50.1384C48.5908 50.6422 48.4164 51.1455 48.2414 51.6483C47.5489 51.9645 47.092 52.7392 46.2082 52.676C45.0019 52.4167 43.4462 53.3463 42.6699 51.6325Z" fill="#C06514"/>
<path d="M46.209 52.6761C47.0928 52.7394 47.5497 51.9599 48.2422 51.6484C48.8633 51.9729 49.5436 52.1682 50.2422 52.2225C50.9408 52.2768 51.6432 52.1891 52.307 51.9647C52.8904 51.7939 53.1971 51.5062 53.6856 52.0627C54.3528 52.82 53.7299 53.2184 53.33 53.7006C51.3869 52.5939 49.2714 53.4414 47.2541 53.1678C47.0517 53.1883 46.8476 53.1533 46.6635 53.0667C46.4794 52.9801 46.3223 52.8451 46.209 52.6761Z" fill="#E05F17"/>
<path d="M47.253 53.1726C49.2704 53.4462 51.3858 52.594 53.3289 53.7055L52.8324 54.2003C51.4221 55.111 49.457 53.5379 48.2238 55.2359C46.8989 55.0209 47.3431 53.9695 47.253 53.1726Z" fill="#D35E11"/>
<path d="M57.9322 57.31L57.7631 58.1654C56.4271 58.178 55.0895 58.2064 53.7536 58.197C53.5887 58.2216 53.4204 58.1883 53.2774 58.1026C53.1344 58.0169 53.0255 57.8842 52.9695 57.7272C52.9135 57.5702 52.9138 57.3986 52.9703 57.2418C53.0268 57.0849 53.136 56.9526 53.2793 56.8674C54.7496 56.4768 56.3259 56.9306 57.7757 56.3203L57.9322 57.31Z" fill="#D35E11"/>
<path d="M48.2227 55.2367C49.4559 53.5387 51.421 55.1118 52.8313 54.2012C51.7926 56.764 49.9428 55.7095 48.2227 55.2367Z" fill="#C06514"/>
<path d="M45.711 42.5391L45.6259 42.8921L45.2051 42.5674L45.711 42.5391Z" fill="#FEFEFE"/>
<path d="M51.7559 25.3555C51.9528 25.6754 52.2548 25.9169 52.6101 26.0386C52.9655 26.1603 53.3521 26.1547 53.7037 26.0227C55.1032 25.7794 56.5425 25.9204 57.8682 26.4306C54.771 27.0819 53.1251 29.776 50.771 31.474C50.9101 29.9246 49.865 29.161 48.752 28.4448C49.5061 27.1737 49.8002 25.4582 51.7559 25.3555Z" fill="#EC5F22"/>
<path d="M48.7543 28.4453C49.861 29.1615 50.9108 29.9252 50.7717 31.4746C50.5256 31.7894 50.2099 32.0429 49.8493 32.2151C49.4887 32.3873 49.0931 32.4736 48.6935 32.4672C48.294 32.4607 47.9014 32.3617 47.5465 32.178C47.1917 31.9942 46.8843 31.7308 46.6484 31.4082C46.903 30.1023 48.0602 29.4366 48.7543 28.4453Z" fill="#E05F17"/>
<path d="M71.957 43.1073C73.2329 42.4164 73.3325 40.7358 74.5752 40.0117C75.6677 40.2868 75.9381 41.3145 76.4851 42.0892C75.5902 42.1113 75.5807 42.7769 75.4495 43.4235C75.2424 44.4417 74.7729 45.2401 73.5239 45.0978L71.957 43.1073Z" fill="#D4D4D4"/>
<path d="M63.877 52.1854L66.473 49.6289C67.1194 49.9595 67.6272 50.5093 67.9055 51.1799C66.5205 51.7934 66.9568 54.2234 64.9141 54.1838C64.6171 53.9364 64.3725 53.6322 64.1944 53.2891C64.0164 52.9459 63.9084 52.5707 63.877 52.1854Z" fill="#D4D4D4"/>
<path d="M70.9957 45.5898C71.2953 45.7105 71.5503 45.9208 71.7257 46.1919C71.9012 46.463 71.9886 46.7818 71.976 47.1045C70.7886 47.827 70.9657 49.6815 69.4606 50.1416L67.9316 48.1226C69.2803 47.9645 68.8487 46.9037 68.9435 46.11C69.6648 46.1517 70.3814 45.97 70.9957 45.5898Z" fill="#D4D4D4"/>
<path d="M69.4669 50.1407C70.972 49.6806 70.7949 47.8276 71.9823 47.1035C72.3812 47.6981 72.5579 48.4142 72.4813 49.126C72.4046 49.8379 72.0796 50.5 71.5633 50.996C71.1 51.5067 70.6146 52.128 69.938 51.9019C69.1348 51.6316 69.5744 50.7541 69.4669 50.1407Z" fill="#E8E7E6"/>
<path d="M73.5234 45.0907C74.7724 45.233 75.242 44.4362 75.4491 43.4164C75.5804 42.7698 75.5899 42.1042 76.4848 42.082C76.805 42.6581 76.9288 43.3228 76.8375 43.9755C76.7462 44.6282 76.4448 45.2333 75.9788 45.6994C74.7156 47.1302 73.9361 46.9342 73.5234 45.0907Z" fill="#E8E7E6"/>
<path d="M64.9157 54.1778C66.9599 54.2204 66.5219 51.7904 67.9069 51.1738C68.0998 52.8813 68.0651 54.5525 66.2833 55.4552C64.8809 56.1699 64.5441 55.4916 64.9157 54.1778Z" fill="#E8E7E6"/>
<path d="M70.9967 45.5911C70.3813 45.9715 69.6636 46.1526 68.9414 46.1097C69.6102 45.365 68.9415 44.3532 69.4458 43.5801C69.8531 43.757 70.2089 44.0342 70.4802 44.3859C70.7514 44.7375 70.9291 45.1522 70.9967 45.5911Z" fill="#E8E7E6"/>
<path d="M68.9468 46.1073C68.852 46.8979 69.282 47.9572 67.9349 48.12L67.4275 47.5982C67.4129 47.3962 67.4424 47.1935 67.514 47.0041C67.5856 46.8146 67.6976 46.643 67.8421 46.5012C67.9867 46.3593 68.1604 46.2506 68.3511 46.1826C68.5419 46.1146 68.7451 46.0889 68.9468 46.1073Z" fill="#E8E7E6"/>
<path d="M81.0777 29.9691C79.8667 31.8505 78.4706 33.2608 75.9109 32.5082C75.231 32.3981 74.536 32.4237 73.866 32.5835C73.1961 32.7434 72.5644 33.0343 72.0074 33.4395C72.3758 31.7146 70.0185 31.8932 69.9395 30.4814C72.3918 29.9265 74.921 29.795 77.4177 30.0924C78.632 30.3192 79.8814 30.2771 81.0777 29.9691Z" fill="#E05F17"/>
<path d="M37.1705 45.7207L37.0633 46.2535C36.8742 46.0297 36.7307 45.8168 37.1705 45.7207Z" fill="#EC682D"/>
</svg>
