<svg width="188" height="117" viewBox="0 0 188 117" fill="none" xmlns="http://www.w3.org/2000/svg">
<path d="M59.8926 32.9482C60.8412 31.5474 60.446 29.8905 60.6989 28.3632C62.1391 19.9319 66.7232 12.3605 73.5264 7.17621C80.3296 1.99189 88.8458 -0.419621 97.3571 0.428211C105.868 1.27604 113.742 5.32011 119.388 11.7446C125.035 18.1691 128.036 26.496 127.784 35.0458C127.533 43.5955 124.049 51.7318 118.034 57.8136C112.02 63.8953 103.923 67.47 95.3764 67.8165C86.83 68.1629 78.4702 65.2555 71.9832 59.6805C65.4962 54.1056 61.3647 46.278 60.4222 37.7767C60.2941 36.7806 60.8491 35.6376 59.8926 34.7822V32.9482ZM90.8806 19.9838C90.8806 16.2336 90.8238 12.4835 90.9091 8.73649C90.9392 7.33096 90.49 7.09219 89.1778 7.33408C70.4015 10.7823 61.0056 33.051 71.7012 48.7331C72.5597 49.9979 73.0703 50.194 74.2308 49.0066C79.3375 43.8066 84.5265 38.6857 89.7249 33.579C90.1182 33.2284 90.4277 32.7939 90.6304 32.3076C90.8332 31.8214 90.9241 31.2957 90.8964 30.7696C90.83 27.1712 90.8742 23.5743 90.8742 19.9791L90.8806 19.9838ZM97.8228 19.9332C97.8228 23.4573 97.8767 26.9799 97.7944 30.5008C97.7545 31.1011 97.8513 31.7026 98.0778 32.26C98.3043 32.8173 98.6546 33.3159 99.102 33.7182C104.212 38.7089 109.274 43.7471 114.289 48.8327C115.522 50.0975 116.099 50.1798 117.135 48.613C119.537 44.8949 120.99 40.6448 121.369 36.2346C121.747 31.8245 121.039 27.3887 119.306 23.3158C117.573 19.2428 114.868 15.6567 111.428 12.8714C107.988 10.0861 103.918 8.18648 99.5731 7.33881C98.0348 7.04632 97.7564 7.49692 97.7896 8.90719C97.8734 12.5767 97.8228 16.2542 97.8228 19.93V19.9332ZM110.371 55.5758L97.8228 43.1537C97.8228 48.33 97.8418 53.8082 97.807 59.2802C97.807 60.2762 98.079 60.6809 99.1194 60.4596C103.202 59.7416 107.055 58.0663 110.365 55.5711L110.371 55.5758ZM90.8775 42.6399L78.1091 55.405C81.428 57.931 85.2906 59.6477 89.3897 60.4184C90.1486 60.5765 90.9028 60.7711 90.8948 59.4904C90.8506 53.9379 90.8663 48.3916 90.8663 42.6351L90.8775 42.6399Z" fill="#583087"/>
<path d="M84.8142 98.4448L84.2259 98.078C83.1358 97.51 82.2205 96.6564 81.578 95.6085C80.9355 94.5605 80.59 93.3577 80.5781 92.1286C80.5662 90.8994 80.8886 89.6901 81.5108 88.6299C82.1331 87.5698 83.0315 86.6987 84.1105 86.1097C85.5891 85.1798 87.2698 84.6196 89.0107 84.4762C90.7515 84.3328 92.5013 84.6105 94.1121 85.286C95.5802 85.853 97.1481 86.116 98.7209 86.0591C99.4908 86.0307 100.265 86.0765 101.039 86.048C101.812 86.0196 102.373 86.0481 102.37 87.0868C102.367 88.1256 101.728 88.1303 101.01 88.1335H97.8481C98.7632 89.4761 99.2038 91.0858 99.1003 92.7074C98.8763 94.3524 98.1142 95.8771 96.9331 97.0439C95.7521 98.2107 94.2183 98.954 92.5707 99.158C90.7509 99.4793 88.888 99.4691 87.0718 99.1278C86.4437 99.1266 85.837 99.3563 85.3671 99.7731C84.8972 100.19 84.5968 100.765 84.5231 101.389C84.5879 102.113 85.1699 102.337 85.7676 102.495C87.0327 102.732 88.3199 102.829 89.6062 102.786C92.2214 102.792 94.834 102.951 97.4307 103.261C98.4427 103.277 99.4246 103.607 100.24 104.206C101.056 104.806 101.664 105.644 101.982 106.605C102.299 107.567 102.309 108.603 102.01 109.57C101.712 110.537 101.12 111.387 100.316 112.002C98.7993 113.433 97.0042 114.537 95.0426 115.244C93.0809 115.951 90.9947 116.247 88.9138 116.113C86.1118 116.193 83.3359 115.554 80.8504 114.258C78.3935 112.911 78.1233 111.531 79.8656 109.343C80.7042 108.315 81.6367 107.368 82.6513 106.513C83.1493 106.084 83.1888 105.82 82.5754 105.39C80.5501 103.967 80.4173 102.861 82.0757 101C82.8726 100.1 83.8244 99.3555 84.8142 98.4448ZM91.5414 113.275C94.0268 113.461 96.5038 112.82 98.5863 111.45C99.584 110.671 100.564 109.738 100.147 108.339C99.7469 107.003 98.4268 106.902 97.279 106.829C93.8134 106.609 90.313 106.684 86.8885 106.197C86.1254 106.038 85.331 106.15 84.6407 106.511C83.9503 106.872 83.4066 107.462 83.1019 108.179C81.9952 109.983 82.3115 111.046 84.2276 111.994C86.5345 112.976 89.038 113.415 91.5414 113.275ZM94.5786 92.8117C94.6639 90.8798 94.0908 88.9762 92.9532 87.4125C92.4568 86.7569 91.7788 86.2615 91.0033 85.9877C90.2279 85.714 89.3891 85.674 88.5911 85.8726C87.8468 85.9995 87.1557 86.3399 86.6013 86.8524C86.0469 87.365 85.6534 88.0275 85.4686 88.7595C84.974 90.4452 84.974 92.2375 85.4686 93.9231C86.2591 96.9128 88.2734 98.467 90.8663 98.1223C93.2679 97.7998 94.5689 95.9389 94.5769 92.8117H94.5786Z" fill="#593187"/>
<path d="M62.5013 101.88C62.6033 102.185 62.6148 102.514 62.5343 102.826C62.4538 103.138 62.2848 103.42 62.0476 103.638C61.1035 104.75 59.9049 105.618 58.5536 106.167C56.1204 106.991 54.7164 106.074 54.2548 103.236C53.0722 103.989 51.948 104.729 50.7986 105.428C49.2581 106.396 47.4032 106.732 45.6207 106.367C44.6593 106.234 43.7581 105.821 43.0303 105.179C42.3025 104.537 41.7803 103.695 41.529 102.757C41.1976 101.8 41.1648 100.765 41.435 99.7882C41.7052 98.8119 42.2657 97.9406 43.0421 97.29C44.7999 95.8486 46.8096 94.7454 48.9694 94.0363C50.4429 93.4671 51.9369 92.9295 53.4421 92.4552C53.7305 92.4023 53.9868 92.2388 54.1563 91.9996C54.3259 91.7603 54.3952 91.4643 54.3495 91.1746C54.3495 88.4236 53.5512 86.8695 51.7188 86.2735C50.7321 85.9586 49.6756 85.9338 48.6753 86.2023C47.1575 86.5849 46.62 87.4797 46.6073 89.3928C46.5947 91.3058 45.79 92.139 44.1267 91.9936C43.6494 91.9875 43.1918 91.8016 42.8454 91.4731C42.4991 91.1446 42.2893 90.6977 42.258 90.2213C42.1841 89.7113 42.2249 89.1912 42.3772 88.699C42.5296 88.2067 42.7896 87.7546 43.1386 87.3754C44.0751 86.2472 45.3364 85.4351 46.7511 85.0497C49.4077 84.303 52.2196 84.3091 54.8729 85.0672C55.9369 85.2766 56.8895 85.8631 57.5556 86.7188C58.2216 87.5746 58.5563 88.642 58.4982 89.7248C58.6563 93.5999 58.3796 97.4829 58.6562 101.356C58.71 102.095 58.5171 102.993 59.4135 103.371C60.31 103.748 60.8366 103.013 61.4421 102.58C61.7852 102.346 62.0333 101.965 62.5013 101.88ZM54.3306 97.6931C54.3306 96.626 54.3306 95.5604 54.3306 94.4916C54.3306 94.1074 54.3764 93.622 53.7424 93.8592C51.341 94.5109 49.0808 95.6006 47.0753 97.0734C46.4943 97.5214 46.0585 98.1311 45.8228 98.8258C45.5871 99.5206 45.5619 100.269 45.7504 100.979C45.9578 101.864 46.4886 102.64 47.2386 103.154C47.9886 103.668 48.9037 103.883 49.8041 103.756C52.3701 103.413 54.3322 101.728 54.3322 99.8687L54.3306 97.6931Z" fill="#593087"/>
<path d="M12.0672 84.51C14.2779 84.4172 16.4468 85.1327 18.1684 86.5226C18.6295 86.9025 19.0354 87.3447 19.3746 87.8364C19.7183 88.2242 19.9273 88.7129 19.97 89.2294C20.0128 89.7458 19.8871 90.2622 19.6118 90.7013C19.2748 91.0948 18.8297 91.3807 18.3317 91.5235C17.8336 91.6663 17.3046 91.6596 16.8103 91.5044C16.3092 91.4882 15.83 91.2951 15.4576 90.9594C15.0852 90.6237 14.8436 90.1672 14.7755 89.6705C14.5526 87.9914 14.1431 86.4973 12.1985 86.1811C11.2087 85.9554 10.1753 86.0123 9.2163 86.3453C8.25725 86.6782 7.41101 87.2737 6.77394 88.0641C4.2443 91.1518 4.3391 96.4878 6.99048 100.138C7.573 100.934 8.3151 101.599 9.16921 102.091C10.0233 102.583 10.9707 102.891 11.9509 102.997C12.931 103.102 13.9223 103.001 14.8614 102.702C15.8005 102.402 16.6667 101.91 17.4047 101.256C18.2284 100.446 18.9175 99.5102 19.4458 98.483C19.6245 98.1763 19.7019 97.6752 20.2568 97.906C20.8118 98.1368 20.4672 98.5573 20.385 98.8846C19.8508 101.267 18.4614 103.37 16.4799 104.796C14.4984 106.223 12.0624 106.872 9.63394 106.622C7.27871 106.325 5.10321 105.209 3.48915 103.468C1.87508 101.727 0.925534 99.4737 0.807084 97.1028C0.332778 90.5764 3.76988 85.8681 9.8995 84.7029C10.6182 84.6012 11.3419 84.5368 12.0672 84.51Z" fill="#593087"/>
<path d="M105.941 102.602C105.941 101.662 105.924 100.722 105.95 99.7842C105.96 99.4506 105.753 98.9779 106.387 98.9083C106.905 98.8514 107.019 99.1676 107.166 99.5581C107.401 100.288 107.69 100.998 108.031 101.685C108.736 102.97 109.835 103.995 111.166 104.609C112.497 105.223 113.99 105.394 115.426 105.096C116.046 104.996 116.621 104.71 117.076 104.276C117.53 103.842 117.842 103.28 117.97 102.665C118.099 102.05 118.037 101.41 117.794 100.831C117.551 100.251 117.138 99.7588 116.61 99.419C115.131 98.3909 113.54 97.5347 111.867 96.8672C110.685 96.3639 109.545 95.7682 108.456 95.0854C107.676 94.6142 107.028 93.9539 106.571 93.1655C106.114 92.3772 105.863 91.4863 105.841 90.5752C105.82 89.6642 106.029 88.7625 106.448 87.9536C106.868 87.1446 107.484 86.4545 108.241 85.9471C109.338 85.2241 110.582 84.755 111.883 84.5742C113.184 84.3934 114.509 84.5054 115.761 84.902C116.393 85.0411 117.003 85.2293 117.634 85.3447C117.817 85.4142 118.014 85.4341 118.207 85.4025C118.4 85.3708 118.581 85.2887 118.732 85.1645C119.048 84.804 119.364 84.3408 119.881 84.6301C120.371 84.902 120.098 85.4807 120.107 85.9171C120.137 87.5803 120.129 89.2467 120.107 90.91C120.107 91.2088 120.283 91.6404 119.753 91.7258C119.223 91.8111 119.136 91.4665 118.988 91.0712C118.694 90.2263 118.334 89.4059 117.911 88.6175C117.207 87.4772 116.123 86.6217 114.851 86.2017C113.578 85.7818 112.199 85.8243 110.954 86.3218C110.476 86.4625 110.045 86.7339 109.712 87.1054C109.379 87.4768 109.155 87.9337 109.067 88.425C108.979 88.9162 109.029 89.4223 109.212 89.8866C109.395 90.3509 109.704 90.7552 110.104 91.0539C111.139 91.8889 112.305 92.546 113.555 92.9985C114.997 93.6514 116.486 94.2127 117.887 94.9431C121.087 96.6127 122.361 98.8324 121.807 101.555C121.365 102.951 120.513 104.181 119.361 105.083C118.208 105.986 116.81 106.52 115.35 106.614C113.208 106.772 111.056 106.558 108.988 105.982C108.67 105.859 108.328 105.813 107.989 105.849C107.65 105.884 107.325 106.001 107.04 106.187C106.423 106.619 105.905 106.489 105.933 105.555C105.966 104.565 105.941 103.582 105.941 102.602Z" fill="#593187"/>
<path d="M155.331 102.579C155.331 101.64 155.315 100.701 155.331 99.7619C155.34 99.4267 155.146 98.954 155.785 98.9081C156.346 98.8686 156.362 99.2686 156.474 99.6353C156.805 101.065 157.558 102.362 158.637 103.356C159.716 104.351 161.07 104.997 162.521 105.21C163.156 105.332 163.808 105.323 164.439 105.183C165.083 105.113 165.692 104.853 166.189 104.437C166.686 104.022 167.048 103.468 167.231 102.846C167.4 102.175 167.349 101.467 167.084 100.827C166.82 100.187 166.357 99.6491 165.764 99.2923C164.481 98.4365 163.121 97.7008 161.702 97.0947C160.544 96.5445 159.389 95.9785 158.259 95.3714C157.225 94.928 156.366 94.1565 155.814 93.1762C155.261 92.1958 155.047 91.061 155.204 89.9469C155.369 88.7301 155.897 87.5914 156.719 86.6795C157.542 85.7676 158.62 85.1249 159.813 84.8355C161.875 84.3743 164.023 84.4792 166.03 85.139C166.907 85.3794 167.706 85.6133 168.496 84.7501C168.931 84.2758 169.516 84.4433 169.506 85.3145C169.487 87.1927 169.506 89.0726 169.495 90.9493C169.495 91.256 169.628 91.6528 169.09 91.7287C168.553 91.8046 168.442 91.4615 168.3 91.0868C168.084 90.4417 167.834 89.8084 167.551 89.1895C166.98 87.9482 165.98 86.9555 164.734 86.3951C163.488 85.8346 162.081 85.7445 160.774 86.1414C160.213 86.2151 159.688 86.4582 159.269 86.8384C158.849 87.2185 158.556 87.7175 158.428 88.2688C158.3 88.82 158.343 89.3973 158.551 89.9234C158.76 90.4495 159.124 90.8996 159.595 91.2133C160.409 91.843 161.308 92.3541 162.265 92.7311C164.264 93.4991 166.209 94.4018 168.087 95.4331C170.932 97.1927 171.979 99.8267 170.803 102.5C170.244 103.668 169.382 104.664 168.305 105.383C167.229 106.102 165.978 106.517 164.686 106.586C162.592 106.791 160.478 106.6 158.455 106.021C158.103 105.868 157.718 105.808 157.336 105.846C156.954 105.885 156.589 106.021 156.275 106.241C155.816 106.608 155.293 106.45 155.315 105.651C155.351 104.628 155.332 103.596 155.331 102.579Z" fill="#593187"/>
<path d="M133.432 88.575C133.432 92.9671 133.462 97.3624 133.418 101.756C133.397 103.701 133.909 105.174 136.404 105.095C136.814 105.081 137.22 105.143 137.203 105.682C137.185 106.221 136.728 106.072 136.425 106.074C133.077 106.084 129.73 106.084 126.384 106.074C126.08 106.074 125.631 106.232 125.606 105.679C125.585 105.233 125.887 105.149 126.27 105.084C128.613 104.697 129.062 104.191 129.076 101.716C129.104 96.6825 129.104 91.649 129.076 86.6161C129.172 83.9738 129.129 81.3282 128.945 78.6905C128.739 76.8438 128.243 76.515 126.415 76.8439C125.984 76.9213 125.525 77.0684 125.354 76.4929C125.173 75.8779 125.762 75.9537 126.063 75.8399C127.903 75.1411 129.747 74.4518 131.596 73.7972C133.155 73.247 133.418 73.4384 133.419 75.0067L133.432 88.575Z" fill="#593087"/>
<path d="M181.442 94.2591C181.442 96.3049 181.417 98.354 181.451 100.4C181.474 101.642 181.486 103.002 182.953 103.491C183.568 103.709 184.241 103.707 184.854 103.483C185.468 103.26 185.984 102.83 186.315 102.267C186.607 101.856 186.998 101.635 187.39 101.925C187.756 102.196 187.333 102.544 187.197 102.808C186.593 104.098 185.557 105.136 184.268 105.743C182.979 106.349 181.518 106.485 180.139 106.128C179.368 105.926 178.677 105.491 178.162 104.883C177.647 104.274 177.332 103.521 177.26 102.727C177.076 100.39 177.029 98.0438 177.121 95.701C177.086 93.1003 177.077 90.4963 177.134 87.8955C177.154 86.9833 176.846 86.6718 175.959 86.762C175.359 86.7961 174.758 86.7961 174.158 86.762C173.866 86.762 173.526 86.8046 173.466 86.3824C173.443 86.2562 173.466 86.126 173.531 86.0156C173.597 85.9053 173.7 85.8222 173.821 85.7816C176.78 84.3551 179.099 81.8739 180.323 78.8252C180.471 78.479 180.667 78.2102 181.078 78.2782C181.583 78.3635 181.434 78.792 181.437 79.1019C181.45 80.7651 181.478 82.422 181.428 84.0916C181.404 84.8568 181.614 85.1635 182.427 85.1193C183.581 85.0576 184.743 85.1193 185.905 85.0987C186.482 85.0861 186.869 85.1256 186.882 85.8892C186.895 86.694 186.514 86.7936 185.861 86.7746C184.703 86.743 183.543 86.7983 182.383 86.754C181.643 86.7272 181.42 87.0101 181.434 87.7247C181.47 89.9081 181.442 92.0836 181.442 94.2591Z" fill="#5B3388"/>
<path d="M30.7788 88.9458C31.5468 87.7507 32.4799 86.6702 33.5504 85.7363C34.1528 85.1794 34.896 84.7977 35.6996 84.6324C36.5032 84.4672 37.3368 84.5247 38.1101 84.7988C38.4459 84.8722 38.761 85.0202 39.032 85.2316C39.3031 85.443 39.5232 85.7125 39.6763 86.0203C39.8293 86.3282 39.9112 86.6664 39.9162 87.0101C39.9211 87.3538 39.8488 87.6943 39.7046 88.0064C39.5605 88.3184 39.3481 88.5942 39.0832 88.8133C38.8183 89.0324 38.5076 89.1892 38.174 89.2722C37.8404 89.3553 37.4924 89.3623 37.1557 89.293C36.819 89.2236 36.5022 89.0796 36.2286 88.8715C36.1148 88.813 36.0073 88.7402 35.8982 88.6738C33.7654 87.3711 33.3685 87.4549 31.8302 89.4438C31.0086 90.4288 30.584 91.6849 30.6396 92.9664C30.7519 95.6541 30.6539 98.3418 30.6776 101.03C30.7029 103.899 31.3386 104.633 34.1402 105.085C34.5101 105.143 34.8278 105.178 34.8199 105.651C34.8088 106.206 34.3819 106.073 34.0736 106.075C30.511 106.082 26.9475 106.082 23.3828 106.075C23.0666 106.075 22.6572 106.163 22.6888 105.6C22.7172 105.126 23.0539 105.126 23.4096 105.079C25.9898 104.728 26.3299 104.334 26.3267 101.722C26.3267 97.8391 26.3393 93.9545 26.2903 90.0715C26.2634 87.9498 25.5757 87.4375 23.4808 87.809C23.0935 87.877 22.6999 88.0256 22.5481 87.4833C22.4042 86.9711 22.8357 86.9474 23.1377 86.8384C25.1472 86.1032 27.1488 85.3395 29.1773 84.6581C30.4137 84.2454 30.6665 84.4811 30.6728 85.7759C30.6728 86.715 30.6825 87.6525 30.6904 88.5916C30.7118 88.7116 30.7412 88.8299 30.7788 88.9458Z" fill="#593087"/>
<path d="M147.906 93.8617C147.906 96.5905 147.877 99.3209 147.917 102.05C147.95 104.24 148.478 104.79 150.651 105.084C151.011 105.133 151.354 105.145 151.383 105.609C151.417 106.156 151.003 106.083 150.674 106.083C147.371 106.083 144.068 106.083 140.765 106.083C140.448 106.083 140.017 106.179 140.043 105.631C140.066 105.174 140.412 105.145 140.771 105.095C143.049 104.766 143.534 104.265 143.547 101.983C143.569 98.1463 143.534 94.3091 143.517 90.4704C143.518 90.1294 143.491 89.7889 143.436 89.4523C143.168 87.8396 142.573 87.438 140.94 87.7637C140.491 87.8538 139.971 88.1558 139.805 87.4475C139.647 86.7661 140.326 86.8863 140.647 86.7645C142.482 86.0583 144.33 85.3843 146.19 84.7424C147.648 84.2412 147.903 84.4404 147.903 85.9424C147.905 88.5784 147.906 91.2182 147.906 93.8617Z" fill="#583087"/>
<path d="M72.4556 94.2751C72.5616 96.7605 72.2596 99.8356 72.5948 102.896C72.764 104.432 73.3758 104.944 74.9237 105.088C75.3505 105.129 76.002 104.917 75.9498 105.674C75.9024 106.357 75.2905 106.063 74.9316 106.066C71.8423 106.091 68.754 106.091 65.6668 106.066C65.3174 106.066 64.7182 106.368 64.6692 105.66C64.6281 105.001 65.1799 105.126 65.5894 105.088C67.3602 104.93 67.9941 104.376 68.0526 102.626C68.1965 98.2798 68.2282 93.9304 68.01 89.5858C67.9278 87.9384 67.1799 87.4546 65.523 87.7581C65.142 87.8293 64.666 88.1787 64.432 87.5558C64.1791 86.8807 64.8003 86.9044 65.1513 86.7653C66.9948 86.0775 68.8384 85.3914 70.6945 84.7431C72.2107 84.2151 72.4556 84.4095 72.4556 86.0079C72.4572 88.5739 72.4556 91.1352 72.4556 94.2751Z" fill="#593187"/>
<path d="M70.1839 78.2523C69.8516 78.2621 69.5211 78.2022 69.2133 78.0766C68.9056 77.9509 68.6275 77.7622 68.3972 77.5226C68.1668 77.2829 67.989 76.9977 67.8755 76.6853C67.762 76.3728 67.7152 76.04 67.7381 75.7084C67.7772 75.3901 67.8786 75.0827 68.0366 74.8036C68.1947 74.5246 68.4062 74.2795 68.659 74.0823C68.9119 73.8851 69.2012 73.7397 69.5104 73.6544C69.8195 73.569 70.1424 73.5455 70.4607 73.5851C70.7815 73.576 71.1009 73.6313 71.4 73.7479C71.699 73.8644 71.9716 74.0398 72.2017 74.2635C72.4318 74.4873 72.6147 74.755 72.7396 75.0507C72.8644 75.3464 72.9286 75.6641 72.9285 75.9851C72.9028 76.3163 72.8106 76.639 72.6575 76.9338C72.5044 77.2287 72.2936 77.4897 72.0374 77.7013C71.7813 77.9129 71.4853 78.0707 71.1668 78.1653C70.8484 78.26 70.514 78.2896 70.1839 78.2523Z" fill="#593187"/>
<path d="M145.765 78.2499C145.313 78.198 144.885 78.0159 144.535 77.7255C144.184 77.4352 143.925 77.0492 143.79 76.6145C143.655 76.1798 143.648 75.7151 143.772 75.277C143.896 74.8389 144.144 74.4462 144.487 74.1466C144.83 73.8471 145.253 73.6535 145.703 73.5896C146.154 73.5258 146.614 73.5943 147.026 73.7868C147.439 73.9793 147.787 74.2875 148.027 74.674C148.268 75.0605 148.391 75.5086 148.382 75.9638C148.333 76.6121 148.032 77.2152 147.542 77.6429C147.052 78.0707 146.414 78.2887 145.765 78.2499Z" fill="#5B3388"/>
</svg>
