<svg width="137" height="101" viewBox="0 0 137 101" fill="none" xmlns="http://www.w3.org/2000/svg">
<path d="M42.2416 28.9542C41.7179 25.5662 41.9136 22.106 42.8162 18.7987C43.7187 15.4915 45.3078 12.4114 47.4799 9.75921C49.652 7.10697 52.3585 4.94208 55.423 3.4054C58.4874 1.86872 61.8413 0.994758 65.266 0.840486C75.0684 0.14958 83.3181 3.212 89.1394 11.3321C90.9571 13.771 92.259 16.5545 92.9657 19.513C93.6725 22.4715 93.7693 25.5429 93.2501 28.54C92.8011 28.8167 92.3473 29.0807 91.9077 29.3716C87.4809 32.3218 83.2122 35.5218 78.5529 38.1099C77.2328 38.8419 75.8652 39.4869 74.1355 40.3676C74.5202 39.4417 75.13 38.6266 75.9095 37.996C78.7883 35.0865 81.1751 31.7283 82.9766 28.053C83.5462 27.0049 83.8453 25.8312 83.8467 24.6382C83.8481 23.4453 83.5517 22.2709 82.9845 21.2214C81.2865 17.4665 78.6099 15.7574 75.0194 16.2886C71.1601 16.861 69.394 19.8475 67.7102 23.0506C66.5462 20.667 64.7391 18.6561 62.4929 17.2451C61.5862 16.6655 60.5507 16.3183 59.4779 16.234C58.4051 16.1497 57.3281 16.3311 56.342 16.762C55.3559 17.1929 54.4912 17.86 53.8243 18.7046C53.1574 19.5491 52.7088 20.5449 52.5183 21.604C52.1652 23.1506 52.2146 24.7619 52.6621 26.2839C53.6591 29.2865 55.2604 32.0531 57.3672 34.4135C59.1917 36.6079 61.1395 38.6965 63.0335 40.834C61.8023 40.8534 60.5926 40.5097 59.5554 39.8459C53.4834 36.7168 47.691 33.0729 42.2416 28.9542Z" fill="#F9A310"/>
<path d="M42.2441 28.953C47.6925 33.0711 53.4838 36.7145 59.5547 39.843C60.5919 40.5068 61.8017 40.8505 63.033 40.8312H62.9887C63.0393 41.1158 63.1626 41.1268 63.3413 40.9213C64.4069 41.8225 65.5373 42.6605 66.5175 43.6454C67.4661 44.5941 68.0891 44.3285 68.9903 43.5411C72.448 40.5796 75.6034 37.2823 78.41 33.6977C81.2242 30.0423 84.0921 26.338 82.9949 21.2266C83.5619 22.2758 83.8581 23.45 83.8567 24.6426C83.8554 25.8352 83.5564 27.0087 82.987 28.0566C81.1856 31.732 78.7988 35.0901 75.9199 37.9996C75.1403 38.6301 74.5306 39.4453 74.146 40.3712C75.874 39.4905 77.2432 38.8454 78.5634 38.1134C83.2305 35.5269 87.493 32.3269 91.9198 29.3751C92.3578 29.0842 92.8131 28.8202 93.2621 28.5435C92.4276 33.3894 90.6727 38.0306 88.0921 42.2162C82.5914 51.7541 76.1248 60.7012 68.7942 68.9165C68.1728 69.639 67.7602 70.1955 66.8353 69.1062C59.1357 60.0217 51.7555 50.7237 46.2662 40.1008C44.3351 36.6251 42.9771 32.8609 42.2441 28.953Z" fill="#F17A55"/>
<path d="M82.9863 21.2195C84.093 26.331 81.2219 30.0353 78.4014 33.6906C75.5948 37.2753 72.4394 40.5726 68.9816 43.5341C68.0804 44.3246 67.4559 44.5886 66.5089 43.6384C65.5286 42.6518 64.3982 41.817 63.3326 40.9143L62.98 40.8241H63.0243C61.1271 38.6882 59.1825 36.5981 57.358 34.4036C55.2512 32.0433 53.65 29.2765 52.6528 26.274C52.2049 24.7522 52.1547 23.1409 52.5073 21.5942C52.6979 20.5351 53.1465 19.5393 53.8134 18.6947C54.4803 17.8502 55.3451 17.183 56.3311 16.7521C57.3172 16.3211 58.3942 16.1398 59.467 16.2241C60.5398 16.3084 61.5753 16.6557 62.482 17.2353C64.7283 18.6463 66.5354 20.6572 67.6993 23.0408C69.3831 19.8377 71.1492 16.8495 75.0085 16.2772C78.6116 15.7554 81.2882 17.4693 82.9863 21.2195Z" fill="#FFFEFD"/>
<path d="M62.9902 40.8242L63.3391 40.9134C63.1623 41.1167 63.0403 41.1058 62.9902 40.8242Z" fill="#F9A310"/>
<path d="M0.820312 83.4712C0.983223 83.1016 1.06148 82.7003 1.0495 82.2966C1.07953 81.9803 1.15383 81.8223 1.5317 81.8223C3.3172 81.8423 5.1027 81.8423 6.8882 81.8223C7.22496 81.8223 7.3278 81.944 7.36258 82.2428C7.41001 82.7171 7.47792 83.1914 7.54274 83.6752C7.55348 83.7735 7.53243 83.8726 7.48263 83.958C7.43282 84.0433 7.3569 84.1105 7.26608 84.1495C6.95639 84.3737 6.61478 84.5501 6.25266 84.6728C6.22104 84.3329 6.53723 84.2823 6.72695 84.1337C7.22655 83.7321 7.31825 83.3432 7.06054 82.5638C6.90244 82.0736 6.47719 82.1875 6.11988 82.1875C4.76495 82.1875 3.40994 82.1875 2.055 82.1875C1.86212 82.1875 1.65666 82.1432 1.50014 82.3092C1.33687 82.588 1.26872 82.9123 1.30608 83.2332C1.34345 83.554 1.48427 83.8541 1.70722 84.0878C2.25364 84.3524 2.6731 84.8225 2.87398 85.3954C3.54275 87.895 4.26056 90.3804 4.95621 92.872C5.53487 94.9527 6.1167 97.0332 6.67638 99.117C6.68705 99.223 6.71981 99.3257 6.77259 99.4183C6.82538 99.5108 6.89704 99.5913 6.98286 99.6545C7.06868 99.7177 7.16674 99.7621 7.27081 99.785C7.37488 99.8079 7.48263 99.8087 7.58704 99.7874C8.23209 99.7415 8.8819 99.7764 9.53012 99.7764C10.4266 99.7764 10.4598 99.7763 10.6369 98.9067C11.4511 94.9162 12.6368 91.0017 13.108 86.9368C13.1364 86.695 13.089 86.3045 13.5238 86.2681C13.3717 87.9141 13.1002 89.5468 12.7112 91.1534C12.3749 92.6954 12.0345 94.2364 11.6898 95.7763C11.3863 97.1234 11.0337 98.4641 10.8107 99.8238C10.8076 99.8716 10.7946 99.9182 10.7723 99.9607C10.7501 100.003 10.7192 100.04 10.6816 100.07C10.6441 100.1 10.6007 100.122 10.5543 100.134C10.508 100.146 10.4596 100.148 10.4123 100.14C9.25657 100.129 8.09926 100.126 6.94195 100.14C6.88959 100.146 6.8365 100.142 6.78581 100.128C6.73512 100.113 6.68785 100.088 6.64686 100.055C6.60586 100.022 6.57199 99.9809 6.54717 99.9343C6.52236 99.8878 6.50719 99.8368 6.5025 99.7843C6.18629 98.5764 5.86057 97.3684 5.52381 96.1637C5.16492 94.872 4.78388 93.5866 4.41708 92.2965C4.07242 91.0618 3.74674 89.8206 3.40366 88.5843C3.07481 87.4017 2.78387 86.2128 2.38387 85.046C2.36603 84.9633 2.32775 84.8864 2.27251 84.8223C2.21727 84.7582 2.14691 84.709 2.06774 84.6792C1.62455 84.4794 1.20595 84.229 0.820312 83.933V83.4712Z" fill="#237BAF"/>
<path d="M13.5148 86.2668C13.0816 86.3031 13.1274 86.6937 13.099 86.9356C12.6247 90.9988 11.4405 94.915 10.6279 98.9055C10.4492 99.7829 10.416 99.775 9.52113 99.775C8.87291 99.775 8.22311 99.7403 7.57805 99.7861C7.47364 99.8074 7.3659 99.8066 7.26183 99.7837C7.15775 99.7608 7.0597 99.7163 6.97388 99.6531C6.88806 99.59 6.8164 99.5095 6.76361 99.4169C6.71082 99.3243 6.67807 99.2218 6.6674 99.1157C6.10772 97.0304 5.52746 94.9497 4.94723 92.8707C4.25316 90.379 3.53377 87.8936 2.865 85.394C2.66432 84.8206 2.24487 84.35 1.69824 84.0849C1.47529 83.8512 1.33447 83.5511 1.2971 83.2303C1.25973 82.9094 1.32779 82.585 1.49106 82.3063C1.64916 82.1403 1.85314 82.1846 2.04602 82.1846C3.40096 82.1846 4.75596 82.1846 6.1109 82.1846C6.46821 82.1846 6.88713 82.0707 7.05156 82.5608C7.30927 83.3403 7.20966 83.7293 6.71797 84.1309C6.53457 84.2795 6.21838 84.33 6.24368 84.6699C6.03656 84.9403 6.24365 85.1964 6.29424 85.443C6.99147 88.4233 7.71712 91.4004 8.40803 94.379C8.53767 94.9292 8.60413 95.4858 8.70216 96.0502C8.72745 96.1925 8.67528 96.3916 8.92034 96.3869C9.11638 96.3869 9.11165 96.213 9.12588 96.0849C9.60809 91.4525 10.9946 87.0003 11.8816 82.4502C11.9685 82.0012 12.1108 81.7973 12.631 81.8178C13.6491 81.8716 14.6721 81.8463 15.6919 81.8257C16.0081 81.8257 16.1409 81.9237 16.2041 82.2241C17.129 86.632 18.2736 90.994 19.0499 95.4351C19.091 95.6644 19.0926 95.9095 19.121 96.134C19.1558 96.4091 19.2792 96.5261 19.559 96.368C19.8626 96.3142 19.8862 96.0739 19.9115 95.8367C20.0131 94.8723 20.1891 93.9171 20.438 92.9798C21.1042 90.4818 21.7693 87.9848 22.4333 85.4889C22.4934 85.2596 22.6658 84.9893 22.2753 84.8707C22.3179 84.5545 22.0966 84.4407 21.8642 84.3095C21.5613 84.1352 21.3342 83.8544 21.2269 83.5219C21.1197 83.1893 21.14 82.8287 21.2839 82.5103C21.3239 82.4 21.4 82.3065 21.4999 82.245C21.5998 82.1836 21.7176 82.1578 21.8341 82.172C23.2665 82.172 24.6973 82.172 26.1281 82.172C26.3289 82.172 26.5092 82.1798 26.6167 82.4075C26.7152 82.5746 26.7762 82.7611 26.7956 82.9542C26.815 83.1472 26.7923 83.3422 26.729 83.5255C26.6657 83.7089 26.5634 83.8763 26.4291 84.0163C26.2948 84.1563 26.1317 84.2655 25.9511 84.3363C25.7107 84.4628 25.3471 84.4834 25.3503 84.885C25.0088 84.9056 24.9661 85.2106 24.9013 85.4272C24.1677 87.8873 23.4547 90.3553 22.729 92.8169C22.1134 94.907 21.4932 96.9956 20.8681 99.0825C20.7575 99.4525 20.6167 99.7813 20.1297 99.775C19.2665 99.7624 18.4032 99.775 17.54 99.775C17.4569 99.7831 17.3731 99.7746 17.2933 99.75C17.2135 99.7255 17.1392 99.6854 17.075 99.632C17.0108 99.5786 16.9577 99.5132 16.919 99.4392C16.8802 99.3652 16.8565 99.2843 16.8492 99.2011C16.767 98.7426 16.6689 98.2873 16.5756 97.8304C15.8104 94.1276 14.7923 90.4755 14.3622 86.7063C14.3369 86.4897 14.3432 86.1608 13.9606 86.1672C13.7551 85.968 13.5986 85.96 13.5148 86.2668Z" fill="#2580B5"/>
<path d="M107.953 93.2337C107.984 94.2071 107.842 95.1782 107.533 96.1017C107.155 97.3208 106.39 98.3835 105.354 99.1285C104.317 99.8735 103.066 100.26 101.791 100.23C100.789 100.282 99.7864 100.165 98.8245 99.8819C98.0926 99.6806 97.4222 99.3008 96.8734 98.7766C96.3245 98.2523 95.9143 97.5998 95.6798 96.878C94.9724 94.8727 94.9171 92.6952 95.5217 90.6566C95.8485 89.463 96.5604 88.4108 97.5467 87.6635C98.5331 86.9161 99.7388 86.5155 100.976 86.5239C101.875 86.4541 102.779 86.5072 103.664 86.682C104.759 86.8576 105.763 87.3953 106.516 88.209C107.27 89.0227 107.728 90.0654 107.819 91.1705C107.915 91.8539 107.96 92.5436 107.953 93.2337ZM98.9842 93.2195C98.9525 94.1569 99.0956 95.0919 99.4062 95.9769C99.5509 96.4397 99.8442 96.8419 100.241 97.1211C100.637 97.4004 101.115 97.5411 101.599 97.5215C102.105 97.5413 102.602 97.3842 103.005 97.0771C103.407 96.7701 103.69 96.3323 103.805 95.8393C104.083 94.8638 104.183 93.8462 104.099 92.8354C104.099 91.9939 103.908 91.1633 103.539 90.4069C103.324 89.9944 102.985 89.6601 102.569 89.4515C102.153 89.2429 101.682 89.1705 101.223 89.2448C100.789 89.2622 100.371 89.4168 100.03 89.6864C99.6893 89.9559 99.4427 90.3267 99.3257 90.7452C99.0852 91.5475 98.97 92.3821 98.9842 93.2195Z" fill="#2580B4"/>
<path d="M27.1407 89.2172C27.0907 88.9465 27.0907 88.6689 27.1407 88.3982C27.5059 88.4314 27.5439 88.0156 27.8254 87.9096C28.8188 87.4434 29.8919 87.1709 30.9874 87.1065C31.1724 87.0844 31.419 87.1871 31.4617 86.8725C32.1289 87.0843 32.7976 86.7966 33.4632 86.8725C33.4743 87.1112 33.6466 87.1081 33.8174 87.1065C34.5844 87.1438 35.3102 87.4644 35.8544 88.0062C36.3985 88.548 36.7222 89.2724 36.7628 90.0393L36.8814 90.7428V96.4898C36.9683 96.8709 37.1043 97.2061 37.5881 97.1934H37.8237C37.8204 97.2251 37.8243 97.257 37.835 97.287C37.8457 97.317 37.8631 97.3442 37.8856 97.3666C37.9082 97.3891 37.9355 97.4062 37.9655 97.4167C37.9956 97.4272 38.0276 97.4309 38.0592 97.4274C38.0908 97.4242 38.1227 97.4281 38.1527 97.4387C38.1826 97.4493 38.2097 97.4664 38.2323 97.4888C38.2548 97.5112 38.2721 97.5383 38.2829 97.5681C38.2937 97.598 38.2979 97.6298 38.2949 97.6614C38.3809 98.2968 38.2996 98.9437 38.0592 99.5381C37.6023 99.8875 37.0174 99.6962 36.5257 99.8906C36.1684 99.6551 35.672 99.8907 35.3478 99.5381V99.1871C35.2814 98.9088 35.2339 98.6132 34.8482 98.61H34.8166H34.7834C34.355 98.5594 34.1272 98.8835 33.8348 99.0954C33.1059 99.5575 32.2672 99.8173 31.4047 99.848C30.737 99.9487 30.0553 99.9018 29.4076 99.7106C28.76 99.5194 28.1622 99.1885 27.6562 98.7412C27.3057 98.3888 27.0412 97.9602 26.8835 97.4888C26.7258 97.0174 26.6792 96.5159 26.7471 96.0235C26.744 95.3756 26.9586 94.7455 27.3566 94.2343C27.7545 93.7231 28.3127 93.3604 28.9415 93.2045C30.2906 92.8812 31.6804 92.7619 33.0648 92.8503C33.332 92.8503 33.6403 92.9183 33.7146 92.5341L33.7652 92.3902C34.0466 92.3981 34.0609 92.2147 34.064 92.0029C34.0549 91.6743 34.0713 91.3456 34.1131 91.0196C34.2307 90.6889 34.2448 90.3302 34.1536 89.9913C34.0624 89.6524 33.8701 89.3493 33.6024 89.1223C33.2203 88.9327 32.7987 88.8363 32.3722 88.8409C31.9457 88.8456 31.5265 88.9512 31.1486 89.1492C31.0564 89.2039 30.9817 89.284 30.9335 89.3798C30.8854 89.4756 30.8656 89.5832 30.8767 89.6899C30.5336 89.9745 30.3438 90.4093 29.928 90.629C29.8819 90.6241 29.8354 90.6324 29.7939 90.6532C29.7524 90.6739 29.7178 90.7061 29.6941 90.746C29.0242 90.8023 28.3497 90.763 27.6909 90.629C27.6909 90.4583 27.691 90.2875 27.4554 90.2764C27.4348 90.082 27.5328 89.8164 27.1818 89.818C27.1503 89.7637 27.131 89.7032 27.125 89.6407C27.119 89.5782 27.1265 89.5152 27.1471 89.4559C27.2435 89.4354 27.4016 89.4876 27.3984 89.3358C27.3953 89.184 27.2356 89.2346 27.1407 89.2172ZM33.7241 95.6993C33.7241 95.4242 33.7241 95.1523 33.7241 94.8788C33.7241 94.6828 33.6941 94.5247 33.4459 94.5294C32.7018 94.4798 31.9545 94.519 31.2198 94.6464C30.9378 94.7028 30.6827 94.8516 30.4946 95.0692C30.3065 95.2868 30.1962 95.5607 30.1811 95.8479C30.139 96.1506 30.1945 96.4588 30.3395 96.7277C30.4845 96.9967 30.7115 97.2125 30.9874 97.3437C31.3439 97.4822 31.7271 97.5385 32.1084 97.5084C32.4897 97.4783 32.8594 97.3625 33.1898 97.1697C33.8838 96.8329 33.7004 96.2448 33.7225 95.701L33.7241 95.6993Z" fill="#2581B5"/>
<path d="M90.2908 97.2031C91.1741 97.2098 92.0552 97.1154 92.9169 96.9216C93.2173 96.8536 93.3438 96.9216 93.4402 97.1888C93.5983 97.6489 93.7738 98.1074 93.973 98.5532C94.1011 98.8378 94.0157 98.9834 93.7564 99.1051C91.6348 100.221 89.1757 100.516 86.8505 99.9319C86.0312 99.7089 85.2902 99.2624 84.7103 98.6423C84.1303 98.0221 83.7344 97.2528 83.5668 96.4204C83.0899 94.6572 83.067 92.8021 83.5004 91.0276C83.7638 89.7793 84.4407 88.6562 85.4217 87.8405C86.4027 87.0248 87.6304 86.564 88.9059 86.5328C90.437 86.4073 91.9761 86.6434 93.3991 87.222C93.5664 87.2704 93.7101 87.3784 93.8033 87.5254C93.8965 87.6725 93.9328 87.8486 93.9051 88.0205C93.8697 88.8606 93.6905 89.6884 93.3754 90.4679C93.3393 90.5984 93.2556 90.7104 93.1409 90.7821C93.0261 90.8539 92.8887 90.88 92.7557 90.8553C92.3649 90.8089 91.9701 90.8089 91.5794 90.8553C90.8758 90.977 90.6466 90.5928 90.509 90.0205C90.3003 89.1478 90.2908 89.1509 89.4023 89.23C88.8877 89.2627 88.4003 89.4723 88.0225 89.8232C87.6448 90.1742 87.4 90.6449 87.3296 91.1557C86.9964 92.4675 86.9645 93.8377 87.2363 95.1635C87.2666 95.4634 87.3561 95.7543 87.4994 96.0195C87.6428 96.2846 87.8372 96.5188 88.0715 96.7084C88.3058 96.898 88.5753 97.0393 88.8645 97.1242C89.1537 97.2091 89.4568 97.236 89.7564 97.2031H90.2908Z" fill="#2580B4"/>
<path d="M114.165 87.9278C114.287 88.127 114.399 87.8646 114.519 87.9278C115.16 87.8298 115.539 87.199 116.186 87.112C116.538 86.9792 116.952 86.9429 117.134 86.5271H117.724C117.882 86.5855 118.04 86.7405 118.198 86.5271H118.673C118.669 86.5587 118.673 86.5907 118.684 86.6207C118.695 86.6506 118.712 86.6778 118.734 86.7003C118.757 86.7227 118.784 86.7398 118.814 86.7503C118.845 86.7609 118.877 86.7645 118.908 86.7611C119.213 86.7611 119.645 86.8037 119.46 87.1879C119.1 88.063 118.595 88.8712 117.966 89.5784C117.65 89.629 117.313 89.4598 117.017 89.6954H116.192C116.146 89.6899 116.099 89.698 116.057 89.7188C116.015 89.7396 115.98 89.7721 115.956 89.8124H115.721C115.251 89.8594 114.814 90.0718 114.486 90.4116C114.312 90.5839 114.054 90.7926 114.306 91.1025C114.156 92.8985 114.19 94.6977 114.19 96.4969C114.233 96.7135 114.262 96.9397 114.556 96.9602C114.584 97.4155 114.979 97.3713 115.256 97.4345C115.713 97.5353 116.158 97.682 116.586 97.8725C117.183 98.127 117.06 98.6377 116.992 99.0804C116.924 99.5231 116.609 99.6922 116.137 99.6859C114.371 99.6622 112.606 99.6669 110.84 99.6859C110.391 99.6859 109.963 99.6495 109.892 99.142C109.82 98.6345 109.623 98.0938 110.268 97.7507C110.577 97.5881 110.829 97.3335 110.987 97.022C111.146 96.7105 111.204 96.3575 111.153 96.0116C111.098 94.1966 111.112 92.3753 111.153 90.565C111.191 90.265 111.124 89.9612 110.964 89.7045C110.804 89.4478 110.561 89.2538 110.276 89.1547C109.904 88.9966 109.485 88.8385 109.496 88.3168C109.491 87.9941 109.584 87.6774 109.763 87.4092C109.943 87.141 110.2 86.9341 110.5 86.8164C111.355 86.5392 112.25 86.4015 113.149 86.4085C113.681 86.4243 113.909 86.5666 113.858 87.112C113.809 87.4029 113.74 87.7729 114.165 87.9278Z" fill="#2581B5"/>
<path d="M55.3714 89.4503L55.3619 89.2274C55.5057 88.81 55.1453 88.4368 55.256 88.0163C55.3667 87.5957 55.3619 87.0978 56.0149 87.1041C57.3682 87.1152 58.7231 87.1041 60.0765 87.1041C60.174 87.095 60.2723 87.1105 60.3624 87.1492C60.4524 87.1878 60.5314 87.2485 60.5919 87.3255C60.6918 87.4664 60.7608 87.6267 60.7947 87.7961C60.8285 87.9654 60.8263 88.14 60.7883 88.3085C60.7503 88.477 60.6773 88.6356 60.574 88.774C60.4707 88.9124 60.3395 89.0276 60.1888 89.112C59.6286 89.288 59.1028 89.5591 58.6346 89.9135C57.9152 90.6819 57.2117 91.4693 56.5255 92.263C56.4212 92.3831 56.2093 92.5602 56.4701 92.7531V92.9554C56.1539 93.2163 56.4338 93.4203 56.5603 93.6021C57.0947 94.3673 57.667 95.1088 58.1903 95.8787C58.4514 96.2722 58.8391 96.5644 59.2891 96.7072C59.6781 96.8337 60.0796 96.9364 60.4638 97.0645C61.9974 97.5673 61.9974 97.6021 61.3065 99.0266C61.2255 99.2352 61.077 99.4106 60.8848 99.5252C60.6926 99.6398 60.4676 99.6868 60.2456 99.659C59.5807 99.6176 58.9138 99.6176 58.2488 99.659C57.9881 99.6912 57.7237 99.6449 57.4895 99.5257C57.2554 99.4065 57.0623 99.22 56.935 98.9902C55.7587 97.2511 54.5872 95.512 53.3682 93.7902C53.2061 93.6124 53.1204 93.378 53.1296 93.1375C53.1387 92.8971 53.242 92.6699 53.4172 92.5049C54.0591 91.7001 54.6821 90.8749 55.2892 90.0464C55.4062 89.8915 55.6339 89.6922 55.3714 89.4503Z" fill="#2481B5"/>
<path d="M79.0324 86.653H78.8553C77.6221 86.653 77.3407 86.4174 77.3138 85.1557C77.3044 84.6814 77.1352 84.4854 76.7004 84.4491C75.8448 84.2445 74.9476 84.2995 74.1233 84.6071C73.8177 84.762 73.5646 85.0037 73.3958 85.3018C73.2271 85.6 73.1501 85.9413 73.1747 86.283C73.1452 86.6299 73.2215 86.9776 73.3933 87.2804C73.5652 87.5832 73.8246 87.8269 74.1375 87.9795C75.297 88.4739 76.4932 88.8772 77.7154 89.1858C79.0428 89.5549 80.2325 90.3059 81.1367 91.3455C81.6796 92.0411 81.951 92.9104 81.9004 93.7913C81.9295 94.5422 81.8764 95.2939 81.7422 96.0332C81.5608 96.6942 81.2482 97.312 80.8228 97.8496C80.3974 98.3871 79.8681 98.8335 79.2664 99.162C77.1661 100.29 74.7144 100.572 72.4126 99.9525C71.3622 99.735 70.337 99.4097 69.3533 98.9818C69.2502 98.9545 69.1539 98.9061 69.0704 98.8397C68.9869 98.7733 68.9182 98.6903 68.8684 98.596C68.8187 98.5016 68.789 98.398 68.7813 98.2916C68.7736 98.1852 68.7881 98.0783 68.8238 97.9778C69.0419 97.1509 69.2981 96.332 69.54 95.5114C69.6443 95.1557 69.8877 95.0529 70.2545 95.075C70.7842 95.1078 71.3154 95.1078 71.845 95.075C71.9209 95.0589 71.9994 95.0585 72.0755 95.074C72.1515 95.0894 72.2237 95.1204 72.2873 95.1649C72.3509 95.2094 72.4046 95.2664 72.4452 95.3326C72.4858 95.3988 72.5124 95.4726 72.5233 95.5494C72.6182 95.7835 72.684 96.0282 72.7194 96.2783C72.7123 96.5188 72.7947 96.7532 72.9507 96.9364C73.1067 97.1195 73.3251 97.2383 73.5636 97.2695C74.1394 97.4698 74.7556 97.5255 75.358 97.4318C75.9604 97.3381 76.5305 97.0978 77.0182 96.732C77.295 96.518 77.5147 96.2389 77.6576 95.9195C77.8004 95.6001 77.8621 95.2504 77.8371 94.9013C77.812 94.5523 77.7011 94.2149 77.5141 93.9192C77.3271 93.6235 77.0698 93.3786 76.7653 93.2064C75.8498 92.8198 74.9037 92.5104 73.9368 92.2814C73.5495 92.1549 73.1462 92.0553 72.7699 91.9209C72.0179 91.6805 71.3288 91.2755 70.753 90.7352C70.1773 90.195 69.7292 89.5331 69.4414 88.7979C69.1537 88.0626 69.0336 87.2724 69.0897 86.4848C69.1459 85.6972 69.3769 84.9321 69.7661 84.2451C70.1979 83.5149 70.7945 82.8958 71.5082 82.4374C72.222 81.9789 73.0331 81.6938 73.8767 81.6048C76.224 81.2738 78.6171 81.6175 80.7763 82.596C80.8806 82.622 80.9711 82.6865 81.0298 82.7766C81.0884 82.8666 81.1109 82.9755 81.0925 83.0814C81.0091 84.1351 80.8307 85.1792 80.5596 86.2008C80.4316 86.6862 80.0854 86.6751 79.7027 86.6593C79.464 86.6435 79.2458 86.653 79.0324 86.653ZM75.4451 81.8309C74.9352 81.8016 74.4237 81.8404 73.9241 81.9463C72.6747 82.1299 71.5184 82.7127 70.6277 83.6079C69.959 84.4502 69.5623 85.476 69.4903 86.5491C69.4183 87.6221 69.6744 88.6917 70.2245 89.6158C71.141 90.8303 72.4841 91.6519 73.9826 91.9146C74.9967 92.1341 75.983 92.466 76.9233 92.9043C77.2306 93.0381 77.5 93.2458 77.7075 93.509C77.9149 93.7722 78.054 94.0826 78.1123 94.4126C78.1963 94.7477 78.2124 95.0962 78.1595 95.4376C78.1067 95.779 77.9861 96.1063 77.8047 96.4003C77.6233 96.6943 77.3848 96.949 77.1034 97.1494C76.8219 97.3497 76.5032 97.4917 76.166 97.5668C75.1926 97.8915 74.1336 97.8452 73.1921 97.4371C72.457 97.1731 72.43 96.5059 72.2608 95.9225C72.2487 95.8393 72.2192 95.7597 72.1741 95.6888C72.129 95.6179 72.0693 95.5574 71.9991 95.5112C71.9289 95.465 71.8497 95.4343 71.7668 95.421C71.6838 95.4077 71.5989 95.4121 71.5178 95.434C70.9297 95.5431 70.1834 95.0766 69.7787 95.8782C69.7159 96.0417 69.6677 96.2105 69.6348 96.3826C69.5273 96.7573 69.4277 97.1336 69.3075 97.5035C69.0482 98.294 69.1605 98.528 69.94 98.8363C71.2931 99.3417 72.7072 99.6654 74.1454 99.7992C75.8811 100.04 77.6477 99.6953 79.1652 98.819C80.0102 98.332 80.6946 97.6087 81.1339 96.7379C81.5732 95.8671 81.7484 94.8868 81.6379 93.9177C81.6296 93.0306 81.3475 92.1677 80.8302 91.4469C80.3129 90.7261 79.5856 90.1827 78.7478 89.8909C78.079 89.619 77.3771 89.4292 76.6925 89.2111C75.6197 88.9848 74.5897 88.5894 73.6411 88.0396C73.3844 87.8238 73.1781 87.5544 73.0365 87.2504C72.8949 86.9464 72.8215 86.6152 72.8215 86.2798C72.8215 85.9445 72.8949 85.6132 73.0365 85.3093C73.1781 85.0053 73.3844 84.736 73.6411 84.5202C74.0533 84.2594 74.5133 84.083 74.9942 84.0016C75.4752 83.9202 75.9676 83.9353 76.4427 84.0459C77.2095 84.1629 77.5178 84.3827 77.6553 85.1368C77.8482 86.1898 77.9715 86.2862 79.0213 86.2862C79.2173 86.2862 79.4134 86.2783 79.6111 86.2862C79.7573 86.3025 79.9045 86.2647 80.0248 86.18C80.1451 86.0952 80.2301 85.9693 80.264 85.8261C80.4475 85.151 80.5854 84.4644 80.6767 83.7708C80.7182 83.6603 80.7354 83.5423 80.7271 83.4246C80.7188 83.3069 80.6852 83.1923 80.6286 83.0888C80.5721 82.9852 80.4938 82.8951 80.3993 82.8245C80.3047 82.754 80.196 82.7046 80.0806 82.6799C78.6043 82.1099 77.0339 81.8225 75.4513 81.8324L75.4451 81.8309Z" fill="#257CAF"/>
<path d="M123.669 94.2493C123.689 94.824 123.805 95.3913 124.01 95.9284C124.251 96.3674 124.615 96.7265 125.057 96.9618C125.499 97.1971 126 97.2984 126.499 97.2532C127.71 97.3347 128.922 97.0936 130.01 96.5545C130.208 96.4565 130.288 96.5134 130.356 96.6984C130.56 97.2486 130.767 97.7955 130.989 98.3394C131.099 98.6145 130.902 98.7426 130.745 98.8738C129.963 99.4688 129.047 99.8654 128.078 100.03C126.714 100.348 125.293 100.325 123.94 99.9632C122.816 99.6867 121.809 99.0623 121.06 98.179C120.312 97.2958 119.862 96.1988 119.775 95.0446C119.4 92.9733 119.807 90.8365 120.916 89.0477C121.725 87.8501 122.976 87.0223 124.394 86.7458C125.739 86.3791 127.164 86.4304 128.48 86.8928C129.266 87.1821 129.956 87.6826 130.476 88.3392C130.996 88.9959 131.324 89.7832 131.425 90.6146C131.501 91.2818 131.543 91.9525 131.552 92.624C131.61 93.1537 130.949 93.8888 130.303 94.0896C130.041 94.1739 129.769 94.2202 129.495 94.2271C127.571 94.2271 125.645 94.2272 123.721 94.2193C123.8 93.8731 124.075 93.9126 124.329 93.9126C125.488 93.9126 126.646 93.9126 127.808 93.9126C128.531 93.9304 129.255 93.8914 129.972 93.7956C130.264 93.7682 130.539 93.6447 130.753 93.4445C130.968 93.2442 131.109 92.9784 131.156 92.6889C131.317 91.5306 131.141 90.3504 130.649 89.2896C130.462 88.8144 130.174 88.3859 129.804 88.0343C129.434 87.6827 128.991 87.4167 128.506 87.2549C127.359 86.8497 126.123 86.764 124.93 87.0067C124.093 87.1097 123.293 87.4134 122.599 87.8922C121.904 88.3709 121.336 89.0104 120.941 89.7561C119.973 91.6748 119.766 93.8889 120.363 95.9537C120.545 96.7594 120.931 97.5047 121.485 98.1176C122.039 98.7304 122.741 99.1902 123.525 99.4525C125.504 100.133 127.668 100.031 129.574 99.1663C130.655 98.6999 130.717 98.5639 130.304 97.5189C130.289 97.4372 130.254 97.3604 130.203 97.295C130.151 97.2296 130.085 97.1777 130.009 97.1434C129.934 97.1091 129.851 97.0935 129.768 97.0981C129.685 97.1026 129.604 97.1271 129.533 97.1695C128.375 97.591 127.133 97.7277 125.912 97.5679C125.243 97.4563 124.631 97.1253 124.171 96.6272C123.712 96.1292 123.431 95.4923 123.373 94.8169C123.373 94.5624 123.371 94.3252 123.669 94.2493Z" fill="#257CAF"/>
<path d="M44.8129 89.0183C44.8129 91.5385 44.8129 94.057 44.8129 96.5772C44.7905 96.736 44.825 96.8976 44.9104 97.0333C44.9958 97.1691 45.1264 97.2702 45.2793 97.3187C45.4931 97.4 45.6865 97.5274 45.8456 97.6917C46.0046 97.8561 46.1256 98.0535 46.1998 98.2699C46.274 98.4862 46.2997 98.7163 46.2751 98.9437C46.2504 99.1711 46.176 99.3904 46.0572 99.5858C45.9966 99.7197 45.8974 99.8325 45.7723 99.9097C45.6473 99.9868 45.5021 100.025 45.3552 100.019C43.8643 99.9985 42.3734 100.011 40.8809 100.01C40.7459 100.016 40.6117 99.9851 40.4936 99.9194C39.9007 99.5763 39.7963 97.7819 40.424 97.5669C41.4153 97.2254 41.4264 96.555 41.4201 95.7107C41.3869 92.0744 41.3948 88.4381 41.4201 84.8112C41.4201 84.3369 41.3504 83.9844 40.8461 83.8421C40.8088 83.8298 40.7732 83.8127 40.7402 83.7914C40.2122 83.5052 39.7616 83.1812 40.0604 82.4681C40.0945 82.3556 40.1074 82.2376 40.0983 82.1203C40.0983 81.5574 40.3639 81.3203 40.9441 81.1811C42.0332 80.9378 43.1494 80.8379 44.2643 80.8839C44.6912 80.895 44.8335 81.0168 44.8303 81.4594C44.8018 83.9796 44.8129 86.4982 44.8129 89.0183ZM44.4224 89.08C44.4224 86.6974 44.4082 84.3131 44.4335 81.9305C44.4335 81.3835 44.258 81.2207 43.7205 81.2286C42.8994 81.2136 42.0796 81.2991 41.2794 81.4832C40.8304 81.6018 40.473 81.7883 40.4176 82.3037C40.3485 82.54 40.3672 82.7933 40.47 83.017C40.5729 83.2407 40.753 83.4197 40.9773 83.5211C41.2478 83.6397 41.4747 83.8393 41.6266 84.0926C41.7784 84.3458 41.8476 84.6401 41.8248 84.9345C41.8322 88.6847 41.8322 92.4354 41.8248 96.1867C41.8399 96.4603 41.7796 96.7327 41.6505 96.9744C41.5214 97.2161 41.3285 97.4178 41.0927 97.5574C40.945 97.6207 40.8113 97.7126 40.6993 97.8279C40.5874 97.9432 40.4994 98.0797 40.4406 98.2292C40.3818 98.3788 40.3533 98.5386 40.3567 98.6993C40.36 98.86 40.3953 99.0183 40.4604 99.1653C40.4693 99.2419 40.4935 99.3159 40.5317 99.383C40.5699 99.45 40.6213 99.5086 40.6827 99.5553C40.7442 99.602 40.8144 99.6358 40.8892 99.6546C40.964 99.6734 41.0419 99.677 41.1181 99.6649C42.3924 99.6444 43.6683 99.6507 44.9442 99.6649C45.3331 99.6649 45.673 99.6871 45.79 99.1795C45.9481 98.4855 45.8658 97.97 45.3915 97.7566C45.0678 97.618 44.7977 97.3783 44.6216 97.0734C44.4454 96.7684 44.3728 96.4146 44.4145 96.0649C44.435 93.7297 44.4224 91.4041 44.4224 89.08Z" fill="#237BAF"/>
<path d="M47.8189 97.6225C47.8742 97.5671 47.9216 97.4755 47.9849 97.4644C48.8971 97.281 48.894 96.6312 48.8893 95.8834C48.864 92.1348 48.8734 88.3861 48.8893 84.6375C48.8893 84.2628 48.8292 84.0415 48.415 83.915C48.0912 83.7826 47.7952 83.5905 47.5422 83.349C47.1675 83.0328 47.4963 82.6533 47.5042 82.3166C47.5295 81.2683 47.5675 81.2763 48.611 81.0834C49.6548 80.903 50.7173 80.8557 51.773 80.9427C52.2204 80.9743 52.3011 81.1514 52.2995 81.5577C52.2853 86.5174 52.2995 91.4771 52.2758 96.4352C52.2758 96.9901 52.4197 97.2968 52.9619 97.4217C53.231 97.4873 53.4657 97.6515 53.6197 97.8818L53.7114 98.013C53.6673 98.5248 53.5971 99.034 53.5011 99.5386L53.1422 99.6557C53.1596 99.5403 53.1706 99.4248 53.1975 99.3125C53.4173 98.3876 53.3082 98.1078 52.535 97.5735C52.3478 97.4546 52.1955 97.2883 52.0936 97.0914C51.9916 96.8944 51.9438 96.674 51.9548 96.4525C51.9722 93.8565 51.9627 91.2588 51.9627 88.6612C51.9627 86.5142 51.9627 84.3667 51.9627 82.2186C51.9627 81.4771 51.7225 81.2573 50.9762 81.2352C50.1377 81.2365 49.301 81.3143 48.4766 81.4676C48.3194 81.478 48.1724 81.5496 48.0671 81.6668C47.9573 81.8128 47.8804 81.9808 47.8417 82.1593C47.803 82.3378 47.8034 82.5226 47.8429 82.7009C47.8824 82.8792 47.9601 83.0468 48.0706 83.1923C48.181 83.3377 48.3217 83.4575 48.4829 83.5434C48.7279 83.6421 48.935 83.8165 49.0739 84.0413C49.2127 84.266 49.276 84.5292 49.2545 84.7925C49.2545 88.6397 49.2545 92.4868 49.2545 96.3339C49.2715 96.5252 49.2469 96.7179 49.1825 96.8988C49.1181 97.0797 49.0153 97.2445 48.8811 97.3819C48.747 97.5193 48.5848 97.6261 48.4055 97.695C48.2262 97.7638 48.0343 97.7929 47.8426 97.7805L47.8189 97.6225Z" fill="#237BAF"/>
<path d="M114.167 87.9301C113.74 87.772 113.81 87.4052 113.838 87.0921C113.889 86.5419 113.661 86.4044 113.128 86.3886C112.229 86.3816 111.335 86.5193 110.48 86.7965C110.179 86.9142 109.922 87.1211 109.743 87.3893C109.563 87.6576 109.47 87.9742 109.476 88.2969C109.462 88.8186 109.884 88.9767 110.255 89.1348C110.541 89.2339 110.784 89.428 110.944 89.6846C111.103 89.9413 111.17 90.2451 111.133 90.5451C111.097 92.3601 111.082 94.1815 111.133 95.9917C111.184 96.3376 111.126 96.6907 110.967 97.0022C110.808 97.3137 110.557 97.5682 110.248 97.7308C109.602 98.0723 109.795 98.632 109.871 99.1221C109.947 99.6123 110.377 99.6692 110.82 99.666C112.586 99.6486 114.35 99.6454 116.116 99.666C116.591 99.666 116.907 99.5079 116.972 99.0605C117.036 98.613 117.163 98.1119 116.565 97.8526C116.138 97.6622 115.692 97.5154 115.236 97.4146C114.959 97.3593 114.564 97.402 114.535 96.9403C115.478 96.971 116.395 97.2521 117.193 97.7546C117.307 97.8226 117.479 97.8827 117.462 98.0376C117.397 98.6558 117.319 99.2755 117.22 99.8906C117.191 100.066 116.992 100.001 116.867 100.001C114.554 100.001 112.24 100.001 109.927 100.001C109.693 100.001 109.571 99.9475 109.546 99.685C109.495 99.1854 109.373 98.689 109.356 98.1894C109.335 97.576 109.901 97.3988 110.319 97.2407C110.736 97.0826 110.782 96.8739 110.779 96.5087C110.766 94.4012 110.763 92.2921 110.779 90.1846C110.804 90.027 110.767 89.8657 110.674 89.7353C110.582 89.605 110.443 89.516 110.285 89.4874C108.88 88.9799 108.921 88.9656 109.316 87.5206C109.365 87.264 109.489 87.0274 109.671 86.84C109.853 86.6526 110.086 86.5226 110.341 86.4661C111.464 86.123 112.637 85.9749 113.81 86.0281C114.082 86.0281 114.197 86.104 114.184 86.3902C114.168 86.9151 114.175 87.4226 114.167 87.9301Z" fill="#237BAF"/>
<path d="M13.957 86.1651C14.3396 86.1651 14.3334 86.4813 14.3587 86.7042C14.7903 90.4734 15.81 94.1254 16.572 97.8282C16.6653 98.2835 16.765 98.7405 16.8456 99.199C16.8529 99.2821 16.8766 99.3631 16.9154 99.437C16.9541 99.511 17.0072 99.5766 17.0714 99.6299C17.1356 99.6833 17.2099 99.7234 17.2897 99.7479C17.3695 99.7725 17.4533 99.781 17.5364 99.7729C18.3997 99.7729 19.2629 99.765 20.1261 99.7729C20.6131 99.7729 20.7586 99.4567 20.8645 99.0805C21.4875 96.9924 22.1078 94.9039 22.7254 92.8148C23.4511 90.3532 24.1625 87.8852 24.8977 85.4251C24.9625 85.2069 25.0052 84.9034 25.3467 84.8828C24.6015 87.442 23.8558 90.0022 23.1096 92.5635C22.4065 94.9592 21.6977 97.3523 20.983 99.7428C20.9493 99.8333 20.9086 99.9211 20.8614 100.005L20.7333 100.094C19.5159 100.094 18.3001 100.094 17.0843 100.114C16.7824 100.114 16.6669 100.034 16.5958 99.7002C15.8843 96.3152 15.1301 92.9397 14.4108 89.5563C14.1707 88.4395 14.019 87.3057 13.957 86.1651Z" fill="#237BAF"/>
<path d="M55.3734 89.4492C55.6358 89.6911 55.4082 89.8904 55.2864 90.0564C54.6746 90.8848 54.058 91.7085 53.4145 92.5149C53.2393 92.6798 53.136 92.907 53.1268 93.1475C53.1176 93.388 53.2033 93.6224 53.3655 93.8002C54.5828 95.514 55.756 97.2579 56.9323 99.0002C57.0596 99.23 57.2528 99.4165 57.4869 99.5357C57.721 99.6548 57.9854 99.7012 58.2461 99.6689C58.9111 99.6276 59.578 99.6276 60.243 99.6689C60.465 99.6968 60.69 99.6498 60.8822 99.5352C61.0744 99.4206 61.2227 99.2451 61.3038 99.0366C61.9962 97.6137 61.9963 97.5772 60.4611 97.0745C60.0722 96.9464 59.6706 96.8436 59.2864 96.7172C58.8363 96.5744 58.4486 96.2821 58.1876 95.8887C57.6595 95.1188 57.092 94.3773 56.5576 93.612C56.4295 93.4286 56.1592 93.2247 56.4675 92.9654C57.1853 93.9773 57.9025 94.9886 58.6192 95.9994C58.8002 96.2085 59.0552 96.3394 59.3307 96.3646C60.2252 96.5786 61.0936 96.8898 61.9204 97.2927C62.2856 97.4697 62.4073 97.6689 62.1765 98.0594C61.8113 98.6792 61.6405 99.5314 61.114 99.9061C60.5876 100.281 59.7007 99.9156 58.9955 100.034C58.4302 100.15 57.842 100.067 57.3308 99.7994C56.8197 99.5314 56.4169 99.0949 56.1908 98.5638C55.1426 96.8247 53.9283 95.193 52.7647 93.5266C52.7149 93.477 52.6757 93.4178 52.6493 93.3527C52.623 93.2875 52.6101 93.2177 52.6114 93.1474C52.6128 93.0771 52.6283 93.0077 52.6571 92.9436C52.6858 92.8795 52.7273 92.8219 52.7789 92.7742C53.6627 91.6722 54.5117 90.5559 55.3734 89.4492Z" fill="#257CAF"/>
<path d="M33.7017 92.5309C33.6274 92.923 33.3191 92.8471 33.0519 92.8471C31.6675 92.7586 30.2776 92.878 28.9286 93.2013C28.2998 93.3572 27.7416 93.7199 27.3436 94.2311C26.9456 94.7423 26.731 95.3724 26.7341 96.0203C26.6662 96.5127 26.7129 97.0141 26.8706 97.4855C27.0283 97.9569 27.2927 98.3856 27.6432 98.738C28.1492 99.1853 28.747 99.5161 29.3947 99.7074C30.0423 99.8986 30.724 99.9454 31.3918 99.8447C32.2542 99.814 33.0931 99.5543 33.8219 99.0922C34.1223 98.8803 34.3499 98.5562 34.7705 98.6068C34.3661 99.0979 33.8596 99.495 33.2862 99.7705C32.7129 100.046 32.0864 100.193 31.4504 100.202C30.7133 100.326 29.9574 100.275 29.2435 100.054C28.5295 99.8324 27.8775 99.4468 27.3396 98.9278C26.855 98.4376 26.5196 97.8197 26.3726 97.1462C26.2257 96.4727 26.2732 95.7713 26.5097 95.1238C26.6907 94.5075 27.0439 93.9556 27.5279 93.5332C28.0119 93.1109 28.6065 92.8356 29.2416 92.7396C30.7174 92.5195 32.2117 92.4495 33.7017 92.5309Z" fill="#257CAF"/>
<path d="M133.618 86.8755C133.295 86.8775 132.975 86.8159 132.676 86.6941C132.377 86.5724 132.105 86.3928 131.875 86.1658C131.646 85.9388 131.463 85.6687 131.338 85.3711C131.213 85.0734 131.148 84.754 131.147 84.4312C131.142 83.9422 131.283 83.4628 131.551 83.054C131.819 82.6451 132.202 82.325 132.653 82.1345C133.103 81.944 133.6 81.8915 134.08 81.9838C134.56 82.0761 135.002 82.3089 135.35 82.6528C135.698 82.9967 135.935 83.4361 136.033 83.9153C136.13 84.3945 136.083 84.8917 135.898 85.3441C135.712 85.7965 135.396 86.1836 134.99 86.4563C134.584 86.7289 134.107 86.8748 133.618 86.8755ZM133.64 86.4169C133.904 86.4149 134.165 86.3605 134.408 86.257C134.651 86.1535 134.871 86.0028 135.055 85.8138C135.24 85.6247 135.384 85.401 135.482 85.1556C135.579 84.9101 135.627 84.6478 135.622 84.3838C135.604 83.8612 135.385 83.3656 135.011 82.9998C134.637 82.634 134.137 82.4259 133.615 82.4185C133.081 82.4206 132.57 82.6344 132.193 83.0128C131.817 83.3913 131.606 83.9037 131.607 84.4375C131.607 84.702 131.66 84.9638 131.763 85.2074C131.866 85.451 132.016 85.6716 132.206 85.8561C132.395 86.0405 132.62 86.1852 132.866 86.2815C133.112 86.3779 133.375 86.4239 133.64 86.4169Z" fill="#3482B4"/>
<path d="M56.4697 92.7546C56.2105 92.5617 56.4207 92.3847 56.525 92.2645C57.2159 91.474 57.9147 90.6835 58.6341 89.9151C59.1023 89.5607 59.6281 89.2896 60.1883 89.1136C60.339 89.0292 60.4702 88.914 60.5735 88.7755C60.6768 88.6371 60.7498 88.4785 60.7878 88.31C60.8259 88.1415 60.828 87.967 60.7942 87.7976C60.7604 87.6283 60.6913 87.4679 60.5915 87.327C60.5309 87.25 60.4519 87.1894 60.3619 87.1507C60.2719 87.112 60.1736 87.0965 60.0761 87.1056C58.7227 87.1056 57.3677 87.1151 56.0144 87.1056C55.3614 87.1056 55.3678 87.5879 55.2555 88.0179C55.1433 88.448 55.5068 88.8084 55.3614 89.229C54.8776 89.0566 54.729 88.7689 54.8682 88.2408C54.9836 87.7808 54.8333 87.1341 55.1543 86.8654C55.5053 86.5665 56.1298 86.7784 56.6357 86.772C57.8895 86.7578 59.1432 86.772 60.3986 86.7641C60.7148 86.7641 60.9092 86.7641 60.9772 87.1815C61.0452 87.5989 61.0784 88.0543 61.1748 88.4843C61.2011 88.6099 61.1842 88.7407 61.1268 88.8555C61.0694 88.9703 60.975 89.0623 60.8587 89.1167C60.6876 89.2424 60.499 89.3427 60.299 89.414C58.6595 89.8535 57.8578 91.2463 56.8428 92.3973C56.7321 92.5206 56.65 92.693 56.4697 92.7546Z" fill="#257CAF"/>
<path d="M25.3358 84.8946C25.3358 84.493 25.6963 84.4725 25.9366 84.346C26.1171 84.2749 26.28 84.1656 26.4141 84.0256C26.5483 83.8856 26.6505 83.7182 26.7137 83.5349C26.777 83.3516 26.7998 83.1568 26.7805 82.9638C26.7613 82.7709 26.7004 82.5844 26.6022 82.4172C26.4963 82.1911 26.3161 82.1832 26.1137 82.1832C24.6908 82.1832 23.2521 82.1832 21.8197 82.1832C21.7032 82.169 21.5853 82.1948 21.4854 82.2562C21.3855 82.3177 21.3093 82.4112 21.2694 82.5215C21.1255 82.8399 21.1051 83.2005 21.2124 83.5331C21.3196 83.8656 21.5468 84.1464 21.8497 84.3207C22.0821 84.4519 22.305 84.5626 22.2607 84.8819C20.1928 83.9128 20.7951 84.0424 20.9658 82.0567C20.9848 81.8337 21.1398 81.8337 21.3011 81.8337C23.0608 81.8337 24.822 81.8337 26.5833 81.8337C26.631 81.8246 26.6803 81.8266 26.7272 81.8396C26.774 81.8526 26.8172 81.8762 26.8535 81.9086C26.8897 81.9411 26.9181 81.9814 26.9362 82.0266C26.9543 82.0717 26.9618 82.1204 26.958 82.1689C26.988 82.4598 27.0338 82.7476 27.0702 83.0369C27.1967 84.0061 27.1176 84.1642 26.2037 84.5926C25.92 84.7085 25.6303 84.8093 25.3358 84.8946Z" fill="#237BAF"/>
<path d="M22.2709 84.877C22.663 84.9939 22.4922 85.2643 22.429 85.4951C21.766 87.9931 21.1009 90.4901 20.4337 92.986C20.1848 93.9227 20.0089 94.8774 19.9073 95.8413C19.882 96.0785 19.8598 96.3156 19.5547 96.3726C19.6704 94.6251 20.0061 92.8992 20.5539 91.2358C21.1199 89.1151 21.6923 86.9955 22.2709 84.877Z" fill="#237BAF"/>
<path d="M36.8809 96.4892V90.7422H37.1306C37.2634 90.8118 37.235 90.9398 37.235 91.0505C37.235 92.8655 37.2286 94.68 37.216 96.4939L36.8809 96.4892Z" fill="#2179AD"/>
<path d="M30.8681 89.6874C30.8573 89.5809 30.8771 89.4736 30.9253 89.3781C30.9735 89.2826 31.048 89.2028 31.14 89.1482C31.5178 88.9503 31.9371 88.8447 32.3636 88.84C32.7901 88.8353 33.2117 88.9318 33.5938 89.1214C33.8615 89.3484 34.0537 89.6514 34.145 89.9904C34.2362 90.3293 34.2221 90.688 34.1044 91.0186C34.0627 91.3447 34.0463 91.6734 34.0554 92.002C34.0554 92.2138 34.038 92.3988 33.7566 92.3893C33.6922 91.8425 33.7002 91.2897 33.7803 90.7451C34.0333 90.5585 33.9874 90.3593 33.8056 90.1554C33.6941 89.9142 33.5281 89.7023 33.3206 89.5363C33.1131 89.3704 32.8698 89.255 32.6101 89.1992C32.3503 89.1434 32.0811 89.1487 31.8238 89.2148C31.5665 89.2809 31.3281 89.4058 31.1274 89.5799L30.8681 89.6874Z" fill="#237BAF"/>
<path d="M53.0242 99.9955H48.191L47.957 99.5449C48.2556 99.6301 48.5651 99.6711 48.8756 99.6666C50.2985 99.6571 51.7215 99.6666 53.1444 99.6666L53.0242 99.9955Z" fill="#237BAF"/>
<path d="M114.183 96.4882C114.183 94.689 114.15 92.8898 114.298 91.0938H114.515V96.4882H114.183Z" fill="#2179AD"/>
<path d="M116.773 89.6859H117.009C117.349 89.855 117.678 89.9231 117.958 89.5689C118.586 88.8616 119.092 88.0535 119.452 87.1784C119.638 86.7958 119.205 86.7515 118.9 86.7515V86.3926C120.165 86.5855 120.165 86.5855 119.561 87.6147C119.205 88.2234 118.824 88.821 118.505 89.4487C118.429 89.6642 118.277 89.8442 118.076 89.9534C117.876 90.0627 117.642 90.0935 117.42 90.04C117.207 90.0166 116.992 90.0086 116.778 90.0163L116.773 89.6859Z" fill="#2179AD"/>
<path d="M30.8718 89.6869L31.1296 89.5762C30.9715 90.2086 30.339 90.4995 30.037 91.0291C29.9611 91.1572 29.7841 91.0924 29.6529 91.094C29.128 91.094 28.5983 91.056 28.0718 91.1082C27.4616 91.1667 27.2308 90.8932 27.2102 90.3382C27.2102 90.1643 27.1865 89.9905 27.1738 89.8165C27.5264 89.8165 27.4267 90.0805 27.4473 90.275C27.4433 90.3513 27.4641 90.4269 27.5066 90.4905C27.549 90.554 27.6109 90.6021 27.683 90.6276C28.3417 90.7615 29.0162 90.8008 29.6861 90.7446C29.8742 90.9216 29.8979 90.7762 29.9201 90.6276C30.339 90.4079 30.5272 89.9778 30.8718 89.6869Z" fill="#2179AD"/>
<path d="M36.7618 90.0397C36.7212 89.2729 36.3975 88.5485 35.8534 88.0067C35.3092 87.4649 34.5834 87.1442 33.8164 87.1069V86.748C34.6576 86.8425 35.4418 87.2192 36.0414 87.8168C36.6409 88.4143 37.0203 89.1973 37.1176 90.0381L36.7618 90.0397Z" fill="#2179AD"/>
<path d="M30.9834 87.1072C29.888 87.1717 28.8148 87.4444 27.8214 87.9105C27.5399 88.0164 27.5052 88.4337 27.1368 88.399C27.1145 88.3447 27.1032 88.2866 27.1035 88.228C27.1039 88.1693 27.1158 88.1112 27.1387 88.0573C27.1617 88.0033 27.1952 87.9544 27.2372 87.9135C27.2792 87.8725 27.3289 87.8403 27.3835 87.8187C28.5451 87.2385 29.8034 86.8763 31.0957 86.75L30.9834 87.1072Z" fill="#2179AD"/>
<path d="M116.186 87.1067C115.539 87.1936 115.16 87.8244 114.52 87.9225C114.518 87.8645 114.53 87.8069 114.556 87.755C114.582 87.7031 114.621 87.6586 114.668 87.6252C115.432 87.0721 116.259 86.6115 117.132 86.2529C117.239 86.1892 117.364 86.1602 117.489 86.1698C117.614 86.1794 117.733 86.2272 117.83 86.3067L117.716 86.5217H117.127C116.776 86.6624 116.362 86.6909 116.186 87.1067Z" fill="#2179AD"/>
<path d="M38.0547 99.5404C38.2951 98.946 38.3762 98.2992 38.2902 97.6639L38.6713 97.6543C38.753 98.1659 38.753 98.6873 38.6713 99.1989C38.3788 99.1563 38.3551 99.5879 38.0547 99.5404Z" fill="#237BAF"/>
<path d="M114.518 91.0948H114.299C114.048 90.7786 114.299 90.5762 114.48 90.4038C114.807 90.064 115.245 89.8517 115.714 89.8047V90.1398C115.188 90.2995 114.592 90.3722 114.518 91.0948Z" fill="#237BAF"/>
<path d="M38.0593 99.5398C38.355 99.5872 38.3834 99.1556 38.6775 99.1983C38.7044 99.3928 38.7486 99.5825 38.4846 99.6726C37.8693 99.9556 37.2042 100.114 36.5273 100.139V99.8939C37.0175 99.6916 37.6024 99.8892 38.0593 99.5398Z" fill="#2179AD"/>
<path d="M35.3498 99.1891V99.5401C35.3498 99.8358 35.5917 99.9053 35.8067 99.9844C35.9759 100.049 36.2051 99.9512 36.3142 100.174C35.1253 100.313 35.2612 100.419 35.002 99.1875L35.3498 99.1891Z" fill="#2179AD"/>
<path d="M33.4605 86.8735C32.7934 86.7976 32.1246 87.0853 31.459 86.8735V86.7739C32.1086 86.5571 32.811 86.5571 33.4605 86.7739V86.8735Z" fill="#2179AD"/>
<path d="M47.6228 99.5419L47.4473 98.2675L47.8393 98.1348C47.8343 98.6065 47.8741 99.0777 47.9579 99.5419H47.6228Z" fill="#237BAF"/>
<path d="M36.3122 100.175C36.2015 99.9521 35.9737 100.049 35.8046 99.9853C35.5896 99.9062 35.3556 99.8351 35.3477 99.541C35.6639 99.8888 36.1682 99.6565 36.5255 99.8936V100.139L36.3122 100.175Z" fill="#237BAF"/>
<path d="M36.8809 96.4902H37.2175C37.2413 96.6831 37.2381 96.8886 37.4721 96.9645L37.5875 97.1874C37.1085 97.2127 36.9694 96.8713 36.8809 96.4902Z" fill="#237BAF"/>
<path d="M38.6694 97.6529L38.2895 97.6624C38.2925 97.6309 38.2884 97.5991 38.2776 97.5693C38.2668 97.5396 38.2496 97.5126 38.2272 97.4903C38.2047 97.468 38.1776 97.4509 38.1478 97.4403C38.118 97.4298 38.0862 97.4259 38.0547 97.4291V97.0918C38.3542 97.1785 38.7325 97.1769 38.6694 97.6529Z" fill="#2179AD"/>
<path d="M47.6225 99.541H47.9566L48.1899 99.9902C47.8305 100.055 47.5437 100.028 47.6225 99.541Z" fill="#2179AD"/>
<path d="M35.3485 99.1869H35.0033L34.8457 98.6133C35.235 98.6149 35.2807 98.9095 35.3485 99.1869Z" fill="#237BAF"/>
<path d="M47.8375 98.1349L47.4455 98.2678C47.2257 97.8536 47.5673 97.7618 47.8218 97.6211L47.8392 97.7793L47.8375 98.1349Z" fill="#2179AD"/>
<path d="M36.7637 90.0391H37.1194L37.132 90.7379H36.8822L36.7637 90.0391Z" fill="#237BAF"/>
<path d="M53.0195 99.9941L53.1361 99.6615L53.494 99.5449C53.557 99.9216 53.4136 100.087 53.0195 99.9941Z" fill="#2179AD"/>
<path d="M33.8026 90.1523C33.9854 90.3572 34.0312 90.5543 33.7774 90.7419C33.7177 90.5483 33.7266 90.3401 33.8026 90.1523Z" fill="#257CAF"/>
<path d="M114.186 96.4902H114.517L114.548 96.9504C114.256 96.9299 114.228 96.7054 114.186 96.4902Z" fill="#237BAF"/>
<path d="M117.717 86.5204L117.83 86.3068L118.185 86.2754V86.5204C118.028 86.7324 117.872 86.5769 117.717 86.5204Z" fill="#237BAF"/>
<path d="M31.4612 86.7737V86.8729C31.4218 87.1882 31.1758 87.0842 30.9883 87.1062L31.1065 86.75L31.4612 86.7737Z" fill="#237BAF"/>
<path d="M116.184 89.6895H116.532V90.018L116.184 90.0351V89.6895Z" fill="#2179AD"/>
<path d="M33.4609 86.871V86.772C33.5149 86.7446 33.5738 86.7281 33.6343 86.7238C33.6947 86.7195 33.7554 86.7273 33.8127 86.7468V87.1034C33.6353 87.105 33.4782 87.1081 33.4609 86.871Z" fill="#237BAF"/>
<path d="M118.189 86.5195V86.2736C118.274 86.2588 118.362 86.2646 118.444 86.2904C118.526 86.3161 118.601 86.3612 118.662 86.4218V86.5195H118.189Z" fill="#2179AD"/>
<path d="M118.659 86.5181V86.4211L118.892 86.3945V86.7496C118.861 86.753 118.829 86.7494 118.8 86.739C118.77 86.7286 118.743 86.7117 118.721 86.6895C118.698 86.6673 118.681 86.6404 118.67 86.6108C118.66 86.5811 118.656 86.5494 118.659 86.5181Z" fill="#237BAF"/>
<path d="M38.0545 97.0907V97.4254C38.0232 97.4288 37.9916 97.4253 37.9618 97.4149C37.9321 97.4045 37.905 97.3875 37.8827 97.3653C37.8604 97.3431 37.8433 97.3162 37.8327 97.2866C37.8221 97.2569 37.8182 97.2253 37.8214 97.194V97.0625L38.0545 97.0907Z" fill="#237BAF"/>
<path d="M115.713 90.1363V89.8047H115.946L115.96 90.0752C115.896 90.166 115.805 90.1519 115.713 90.1363Z" fill="#2179AD"/>
<path d="M116.541 90.016V89.6875H116.774V90.0175L116.541 90.016Z" fill="#237BAF"/>
<path d="M115.961 90.079L115.947 89.8073C115.971 89.7673 116.005 89.735 116.047 89.7143C116.089 89.6937 116.135 89.6857 116.181 89.6911V90.0381L115.961 90.079Z" fill="#237BAF"/>
<path d="M27.1406 89.2188C27.2364 89.2376 27.3935 89.1873 27.395 89.3334C27.3966 89.4795 27.238 89.4323 27.1453 89.4527L27.1406 89.2188Z" fill="#2179AD"/>
<path d="M37.8218 97.0607V97.1921H37.5888L37.4746 96.9715C37.6076 96.9277 37.7389 96.8996 37.8218 97.0607Z" fill="#2179AD"/>
<path d="M20.7344 100.097L20.8611 100.01C20.8564 100.091 20.8079 100.113 20.7344 100.097Z" fill="#4A8DB4"/>
<path d="M27.6827 90.6223C27.6115 90.5971 27.5502 90.5495 27.5082 90.4866C27.4662 90.4238 27.4457 90.3489 27.4497 90.2734C27.6875 90.2844 27.6843 90.4534 27.6827 90.6223Z" fill="#237BAF"/>
<path d="M29.9247 90.6323C29.9026 90.7804 29.8774 90.9271 29.6914 90.749C29.715 90.7092 29.7495 90.677 29.7909 90.6563C29.8322 90.6356 29.8787 90.6273 29.9247 90.6323Z" fill="#237BAF"/>
<path d="M116.184 87.1065C116.359 86.6906 116.773 86.6543 117.132 86.5215C116.95 86.9373 116.536 86.9736 116.184 87.1065Z" fill="#237BAF"/>
<path d="M117.954 89.5707C117.681 89.9249 117.352 89.8568 117.006 89.6877C117.302 89.4521 117.641 89.6213 117.954 89.5707Z" fill="#237BAF"/>
<path d="M75.4475 81.8301C77.0328 81.8223 78.6052 82.113 80.083 82.687C80.1983 82.7118 80.307 82.7611 80.4016 82.8317C80.4962 82.9022 80.5744 82.9923 80.631 83.0959C80.6876 83.1994 80.7211 83.314 80.7294 83.4317C80.7377 83.5494 80.7205 83.6675 80.679 83.7779C80.5878 84.4715 80.4499 85.1581 80.2664 85.8332C80.2326 85.9764 80.1475 86.1023 80.0272 86.1871C79.9069 86.2718 79.7597 86.3096 79.6134 86.2933C79.4174 86.2838 79.2213 86.2933 79.0237 86.2933C77.966 86.2933 77.8506 86.1953 77.6577 85.1439C77.5201 84.3898 77.2119 84.17 76.4451 84.053C75.97 83.9424 75.4776 83.9273 74.9967 84.0087C74.5157 84.0902 74.0557 84.2665 73.6435 84.5273C73.3868 84.7431 73.1804 85.0124 73.0388 85.3164C72.8972 85.6204 72.8239 85.9516 72.8239 86.287C72.8239 86.6223 72.8972 86.9536 73.0388 87.2575C73.1804 87.5615 73.3868 87.8309 73.6435 88.0467C74.5921 88.5965 75.622 88.9919 76.6948 89.2182C77.3857 89.4364 78.0878 89.6261 78.7502 89.898C79.5881 90.1898 80.3154 90.7333 80.8327 91.454C81.35 92.1748 81.6321 93.0377 81.6404 93.9249C81.7509 94.8939 81.5757 95.8742 81.1363 96.745C80.697 97.6158 80.0127 98.3392 79.1676 98.8261C77.6501 99.7025 75.8836 100.047 74.1479 99.8063C72.7097 99.6726 71.2955 99.3488 69.9423 98.8435C69.1518 98.5352 69.0443 98.309 69.3099 97.5106C69.4301 97.1407 69.5297 96.7644 69.6372 96.3897C69.6701 96.2177 69.7182 96.0489 69.7811 95.8854C70.1842 95.0854 70.9305 95.5502 71.5202 95.4411C71.6014 95.4193 71.6862 95.4148 71.7692 95.4281C71.8522 95.4414 71.9313 95.4722 72.0016 95.5183C72.0718 95.5645 72.1314 95.625 72.1765 95.6959C72.2216 95.7668 72.2512 95.8464 72.2633 95.9296C72.4324 96.513 72.4593 97.1802 73.1945 97.4442C74.1359 97.8524 75.195 97.8986 76.1684 97.5739C76.5056 97.4988 76.8243 97.3568 77.1057 97.1565C77.3872 96.9562 77.6257 96.7016 77.8071 96.4076C77.9885 96.1136 78.1092 95.7862 78.162 95.4448C78.2148 95.1034 78.1987 94.7549 78.1146 94.4198C78.0563 94.0898 77.9173 93.7793 77.7098 93.5161C77.5023 93.2529 77.233 93.0452 76.9258 92.9114C75.9854 92.4731 74.999 92.1412 73.985 91.9218C72.4864 91.659 71.1434 90.8375 70.227 89.623C69.6768 88.6989 69.4207 87.6292 69.4927 86.5562C69.5647 85.4831 69.9614 84.4573 70.63 83.615C71.5207 82.7199 72.6772 82.137 73.9265 81.9534C74.4258 81.8449 74.9373 81.8034 75.4475 81.8301Z" fill="#2481B5"/>
<path d="M123.671 94.25C123.367 94.3259 123.369 94.5662 123.37 94.8065C123.428 95.4819 123.709 96.1188 124.169 96.6169C124.628 97.115 125.241 97.4459 125.909 97.5575C127.131 97.7173 128.373 97.5808 129.53 97.1592C129.601 97.1168 129.682 97.0923 129.765 97.0877C129.848 97.0832 129.931 97.0987 130.007 97.133C130.082 97.1673 130.149 97.2193 130.2 97.2847C130.251 97.3501 130.286 97.4268 130.301 97.5085C130.716 98.5519 130.652 98.6896 129.571 99.156C127.665 100.02 125.501 100.123 123.522 99.4421C122.739 99.1798 122.036 98.72 121.482 98.1071C120.929 97.4943 120.542 96.749 120.36 95.9433C119.763 93.8785 119.97 91.6643 120.939 89.7457C121.333 88.9999 121.901 88.3604 122.596 87.8816C123.29 87.4029 124.09 87.0991 124.928 86.9963C126.12 86.7535 127.356 86.8394 128.504 87.2446C128.988 87.4064 129.431 87.6724 129.801 88.024C130.171 88.3756 130.46 88.8041 130.646 89.2793C131.138 90.3401 131.314 91.5202 131.154 92.6785C131.107 92.968 130.965 93.2338 130.75 93.434C130.536 93.6343 130.261 93.7578 129.969 93.7852C129.252 93.881 128.528 93.9201 127.805 93.9022C126.646 93.9022 125.489 93.9022 124.327 93.9022C124.072 93.9022 123.797 93.8642 123.718 94.2105L123.709 94.2421L123.671 94.25ZM124.327 91.9939C124.833 91.9718 125.342 91.9465 125.848 91.9275C126.354 91.9085 126.902 91.9006 127.429 91.8832C127.618 91.8832 127.86 91.937 127.919 91.6793C128.048 91.217 128.005 90.7233 127.797 90.2904C127.59 89.8576 127.232 89.515 126.79 89.3267C125.285 88.8903 124.192 89.6081 123.802 91.3267C123.644 92.024 123.644 92.0239 124.327 91.9939Z" fill="#2581B5"/>
<path d="M44.4194 89.079C44.4194 91.4031 44.4321 93.7287 44.4194 96.0528C44.3777 96.4025 44.4503 96.7563 44.6264 97.0613C44.8026 97.3662 45.0727 97.6059 45.3965 97.7445C45.8708 97.9627 45.9578 98.4781 45.7949 99.1674C45.6779 99.675 45.338 99.656 44.9491 99.6528C43.6748 99.6433 42.3989 99.637 41.123 99.6528C41.0468 99.6649 40.9689 99.6613 40.8941 99.6425C40.8193 99.6237 40.7491 99.5899 40.6877 99.5432C40.6262 99.4965 40.5749 99.438 40.5366 99.371C40.4984 99.3039 40.4741 99.2298 40.4652 99.1532C40.4002 99.0062 40.365 98.8479 40.3616 98.6872C40.3582 98.5265 40.3867 98.3667 40.4456 98.2171C40.5044 98.0676 40.5923 97.9311 40.7043 97.8158C40.8162 97.7005 40.9499 97.6086 41.0977 97.5453C41.3334 97.4057 41.5264 97.2041 41.6554 96.9624C41.7845 96.7207 41.8448 96.4482 41.8297 96.1746C41.8297 92.4244 41.8297 88.6737 41.8297 84.9224C41.8526 84.628 41.7833 84.3338 41.6314 84.0806C41.4796 83.8273 41.2527 83.6276 40.9823 83.509C40.7579 83.4076 40.5777 83.2286 40.4749 83.0049C40.372 82.7812 40.3535 82.5279 40.4226 82.2916C40.4763 81.7762 40.8336 81.5897 41.2842 81.4711C42.0845 81.287 42.9043 81.2015 43.7253 81.2165C44.2629 81.2165 44.4431 81.3746 44.4383 81.9184C44.4051 84.3121 44.4194 86.6964 44.4194 89.079Z" fill="#2481B5"/>
<path d="M47.8401 98.1327V97.7817C48.0317 97.7941 48.2238 97.7649 48.4031 97.6961C48.5824 97.6273 48.7446 97.5205 48.8787 97.383C49.0128 97.2456 49.1157 97.0809 49.1801 96.9C49.2445 96.7191 49.269 96.5263 49.252 96.3351C49.252 92.4879 49.252 88.6408 49.252 84.7936C49.2735 84.5304 49.2102 84.2671 49.0713 84.0424C48.9325 83.8177 48.7255 83.6433 48.4805 83.5447C48.3193 83.4588 48.1786 83.339 48.0681 83.1935C47.9577 83.048 47.88 82.8804 47.8405 82.702C47.801 82.5237 47.8006 82.3389 47.8393 82.1604C47.878 81.9819 47.9549 81.8139 48.0647 81.668C48.1699 81.5507 48.3169 81.4791 48.4741 81.4687C49.2985 81.3154 50.1353 81.2376 50.9738 81.2363C51.72 81.2585 51.9587 81.4782 51.9603 82.2197C51.9603 84.3668 51.9603 86.5143 51.9603 88.6624C51.9603 91.26 51.9682 93.8576 51.9524 96.4537C51.9413 96.6751 51.9892 96.8956 52.0911 97.0925C52.1931 97.2894 52.3454 97.4557 52.5326 97.5746C53.3042 98.1074 53.4148 98.3857 53.1951 99.3138C53.1682 99.426 53.1572 99.543 53.1398 99.6568C51.7169 99.6568 50.2939 99.6568 48.871 99.6568C48.5605 99.6613 48.2511 99.6202 47.9524 99.535C47.871 99.0722 47.8333 98.6027 47.8401 98.1327Z" fill="#2481B5"/>
<path d="M133.642 86.4204C133.378 86.4273 133.115 86.3812 132.869 86.2849C132.622 86.1885 132.398 86.0439 132.208 85.8594C132.019 85.6749 131.868 85.4544 131.765 85.2108C131.663 84.9671 131.609 84.7054 131.609 84.4409C131.609 83.9071 131.819 83.3947 132.196 83.0162C132.572 82.6377 133.083 82.424 133.617 82.4219C134.14 82.4293 134.64 82.6374 135.014 83.0032C135.388 83.369 135.607 83.8645 135.625 84.3872C135.63 84.6512 135.582 84.9135 135.485 85.1589C135.387 85.4044 135.242 85.6281 135.058 85.8172C134.873 86.0062 134.653 86.1568 134.411 86.2604C134.168 86.3639 133.907 86.4183 133.642 86.4204ZM132.545 84.4313V85.4274C132.545 85.448 132.545 85.467 132.545 85.486C132.56 85.6156 132.523 85.7784 132.722 85.8021C132.922 85.8258 132.99 85.6836 132.993 85.5081C132.993 85.3911 132.993 85.2725 132.993 85.1571C133.012 84.999 132.907 84.7729 133.132 84.7002C133.228 84.6747 133.33 84.6802 133.423 84.7159C133.516 84.7517 133.596 84.8159 133.65 84.8994C133.76 85.0369 133.859 85.1823 133.948 85.3342C134.095 85.5792 134.239 85.9903 134.564 85.7721C134.844 85.5824 134.474 85.2978 134.34 85.1207C134.12 84.8235 134.001 84.6464 134.381 84.3491C134.46 84.2749 134.52 84.1822 134.554 84.0792C134.589 83.9763 134.598 83.8663 134.58 83.7592C134.562 83.6521 134.517 83.5512 134.45 83.4654C134.384 83.3796 134.297 83.3118 134.197 83.2678C133.709 83.0498 133.154 83.0322 132.653 83.2188C132.363 83.3405 132.583 83.8638 132.541 84.2037C132.537 84.2796 132.539 84.3557 132.545 84.4313Z" fill="#FAFBFC"/>
<path d="M132.546 84.4276C132.54 84.3497 132.54 84.2716 132.546 84.1937C132.589 83.8538 132.369 83.332 132.658 83.2086C133.16 83.0216 133.715 83.0392 134.204 83.2577C134.304 83.3016 134.391 83.3695 134.457 83.4553C134.524 83.541 134.569 83.642 134.587 83.7491C134.605 83.8562 134.596 83.9662 134.561 84.0691C134.527 84.1721 134.467 84.2648 134.388 84.3391C134.008 84.6395 134.127 84.8134 134.347 85.1106C134.481 85.294 134.851 85.5722 134.571 85.762C134.246 85.9786 134.097 85.5691 133.955 85.3241C133.867 85.1722 133.768 85.0269 133.659 84.8892C133.604 84.8057 133.525 84.7416 133.432 84.7058C133.339 84.67 133.237 84.6645 133.14 84.6901C132.916 84.7628 133.019 84.9857 133.001 85.147C132.987 85.2624 133.001 85.381 133.001 85.498C133.001 85.6734 132.943 85.8142 132.731 85.7921C132.519 85.7699 132.573 85.6118 132.554 85.4759C132.554 85.4569 132.554 85.4379 132.554 85.4174L132.546 84.4276ZM133.539 83.5486C133.275 83.5612 132.993 83.4791 132.992 83.8933C132.992 84.1921 133.08 84.3233 133.39 84.2916C133.7 84.26 134.038 84.2916 134.067 83.9122C134.092 83.5739 133.774 83.5644 133.539 83.5486Z" fill="#3482B4"/>
<path d="M133.539 83.5488C133.773 83.5646 134.091 83.5725 134.067 83.9124C134.039 84.2998 133.678 84.2618 133.391 84.2919C133.103 84.3219 132.991 84.1938 132.992 83.8934C132.995 83.4792 133.275 83.5615 133.539 83.5488Z" fill="#FAFBFC"/>
</svg>
