<svg width="146" height="101" viewBox="0 0 146 101" fill="none" xmlns="http://www.w3.org/2000/svg">
<path d="M83.5288 11.1669L99.1256 43.6553H104.027L83.5288 0.955078L63.0293 43.6553H67.9305L83.5288 11.1669Z" fill="#EC008C"/>
<path d="M92.7403 5.06445L89.6699 8.13318H90.5189V11.2415L93.4043 17.0138H94.9584V8.13318H95.8074L92.7403 5.06445Z" fill="#EC008C"/>
<path d="M68.2022 27.668L70.6528 22.5613L60.4409 0.955078L39.9414 43.6553H44.8426L60.4394 11.1669L68.2022 27.668Z" fill="black"/>
<path d="M73.3203 37.8801L76.0397 43.6556H80.9408L75.7693 32.7734L73.3203 37.8801Z" fill="black"/>
<path d="M0.548828 85.7825L6.016 57.8649L14.9282 78.045L24.1614 57.8633L29.072 85.781H25.0531L22.5472 70.1083L14.8618 86.9762L7.39465 70.0909L4.60257 85.7825H0.548828ZM50.5091 79.4758H39.3977L36.5044 85.7825H32.2831L45.1321 58.1842L57.5273 85.7825H53.2395L50.5091 79.4758ZM48.9107 75.7921L45.0593 66.9621L41.023 75.7921H48.9107ZM67.181 63.4996V85.7841H63.2616V63.4996H57.2854V59.8158H73.1272V63.4996H67.181ZM91.6505 63.4996H81.2394V69.7383H91.3469V73.4221H81.2394V82.1003H91.6505V85.7841H77.3217V59.8158H91.6505V63.4996ZM111.815 63.4996H101.404V69.7383H111.514V73.4221H101.404V82.1003H111.815V85.7841H97.486V59.8158H111.815V63.4996ZM116.741 85.7841L122.207 57.8664L131.119 78.045L140.352 57.8633L145.263 85.781H141.238L138.74 70.1083L131.054 86.9762L123.587 70.0909L120.795 85.7825L116.741 85.7841Z" fill="black"/>
<path d="M3.98755 94.9753V95.3136H0.966218V97.633H3.47372V97.9697H0.966218V100.373H3.98755V100.718H0.548828V94.9753H3.98755ZM6.79386 97.7689L4.81442 94.9753H5.22391C5.25362 94.972 5.2835 94.9799 5.3077 94.9974C5.32545 95.0143 5.34087 95.0334 5.35355 95.0543L7.09268 97.5682C7.10111 97.546 7.11007 97.5249 7.11955 97.5049C7.12985 97.4831 7.14146 97.462 7.15434 97.4417L8.84919 95.0607C8.86207 95.0383 8.87689 95.0172 8.89346 94.9974C8.9122 94.9796 8.9372 94.97 8.96303 94.9705H9.35986L7.37726 97.7484L9.44208 100.713H9.03259C9.01622 100.714 8.99988 100.711 8.98463 100.705C8.96938 100.699 8.95555 100.69 8.94405 100.678C8.92456 100.658 8.90708 100.635 8.89188 100.612L7.08161 97.9682C7.06986 98.0103 7.05057 98.0499 7.02469 98.0852L5.24921 100.615C5.22978 100.64 5.20808 100.663 5.18438 100.684C5.16116 100.706 5.13065 100.718 5.09901 100.718H4.72114L6.79386 97.7689ZM11.0626 98.4014V100.713H10.65V94.9753H12.1298C12.674 94.9356 13.2143 95.0927 13.6523 95.418C13.8268 95.5772 13.9633 95.7734 14.0519 95.9923C14.1406 96.2111 14.1791 96.4471 14.1646 96.6828C14.1676 96.9214 14.1202 97.1579 14.0255 97.3769C13.9333 97.5864 13.7956 97.7727 13.6223 97.9223C13.4343 98.0821 13.2167 98.2035 12.982 98.2796C12.7068 98.3686 12.419 98.4118 12.1298 98.4077L11.0626 98.4014ZM11.0626 98.0693H12.1298C12.3613 98.0727 12.5917 98.0368 12.8112 97.9634C12.9985 97.9004 13.1715 97.801 13.3203 97.6709C13.4562 97.549 13.5641 97.399 13.6365 97.2314C13.7123 97.0568 13.7505 96.8683 13.7488 96.678C13.7604 96.4887 13.7299 96.2992 13.6594 96.1231C13.5888 95.947 13.48 95.7888 13.3409 95.6599C12.9928 95.3975 12.5613 95.2705 12.1267 95.3026H11.0626V98.0693ZM18.9409 94.9753V95.3136H15.9211V97.633H18.4349V97.9697H15.9211V100.373H18.9424V100.718H15.5037V94.9753H18.9409ZM20.9962 98.1184V100.713H20.5804V94.9753H22.0444C22.5678 94.9364 23.0895 95.0708 23.529 95.3579C23.6944 95.4929 23.8252 95.6655 23.9105 95.8613C23.9957 96.0571 24.033 96.2705 24.0191 96.4836C24.0217 96.6894 23.9829 96.8937 23.9053 97.0844C23.8305 97.2632 23.7196 97.4247 23.5796 97.5587C23.4301 97.7004 23.2567 97.8144 23.0673 97.8954C22.8519 97.9872 22.6237 98.0454 22.3906 98.0678C22.4577 98.1096 22.5166 98.1631 22.5646 98.2259L24.5393 100.708H24.1851C24.1463 100.709 24.1078 100.701 24.0729 100.684C24.037 100.664 24.0057 100.637 23.9812 100.604L22.1377 98.2796C22.0991 98.2261 22.0481 98.1826 21.9891 98.1531C21.9107 98.1246 21.8273 98.1122 21.744 98.1168L20.9962 98.1184ZM20.9962 97.8101H21.9938C22.2247 97.813 22.4548 97.7821 22.6768 97.7184C22.8625 97.6658 23.036 97.5771 23.1875 97.4575C23.3232 97.3473 23.4314 97.2071 23.5037 97.048C23.5786 96.8783 23.6158 96.6944 23.6128 96.5089C23.6257 96.336 23.5958 96.1626 23.5258 96.0041C23.4557 95.8455 23.3477 95.7066 23.2112 95.5998C22.8627 95.3803 22.4537 95.2768 22.0428 95.3041H20.993L20.9962 97.8101ZM26.3084 100.713H25.891V94.9753H26.3084V100.713ZM31.7661 94.9753V95.3136H28.7432V97.633H31.257V97.9697H28.7432V100.373H31.7645V100.718H28.3258V94.9753H31.7661ZM33.4847 94.9753C33.5148 94.9741 33.5449 94.9789 33.5732 94.9895C33.6013 95.0044 33.6253 95.0262 33.6428 95.0527L37.3566 100.023C37.3482 99.9402 37.3439 99.8617 37.3439 99.7879V94.9753H37.7092V100.713H37.51C37.4801 100.713 37.4507 100.706 37.4244 100.692C37.3981 100.678 37.3759 100.657 37.3598 100.632L33.6285 95.652C33.637 95.7331 33.6412 95.8101 33.6412 95.8828V100.713H33.2807V94.9753H33.4847ZM43.7423 99.7405C43.7553 99.7401 43.7681 99.7425 43.7801 99.7474C43.7921 99.7523 43.8029 99.7596 43.8119 99.7689L43.97 99.9429C43.8518 100.07 43.7215 100.184 43.5811 100.286C43.4376 100.389 43.2833 100.476 43.121 100.545C42.945 100.62 42.7617 100.675 42.574 100.711C42.3582 100.752 42.139 100.771 41.9194 100.77C41.545 100.774 41.1734 100.703 40.8269 100.561C40.5036 100.428 40.2129 100.226 39.9748 99.9697C39.7303 99.701 39.5421 99.3859 39.4214 99.0432C39.2845 98.6555 39.2171 98.2466 39.2222 97.8353C39.2175 97.4288 39.2871 97.0248 39.4277 96.6433C39.5549 96.2987 39.7507 95.9835 40.0032 95.7168C40.2538 95.4562 40.5566 95.2515 40.8918 95.116C41.2545 94.9704 41.6424 94.8979 42.0333 94.9026C42.225 94.9009 42.4165 94.9162 42.6056 94.9484C42.7708 94.9776 42.9328 95.0226 43.0894 95.0828C43.2378 95.14 43.3798 95.2126 43.5131 95.2994C43.6501 95.3896 43.7801 95.49 43.902 95.5998L43.7755 95.7816C43.7644 95.7978 43.7492 95.8109 43.7314 95.8195C43.7137 95.8281 43.694 95.8319 43.6744 95.8306C43.6397 95.8262 43.6071 95.8113 43.5811 95.7879L43.4372 95.682C43.3792 95.6398 43.3091 95.594 43.2269 95.5444C43.1335 95.4894 43.035 95.4433 42.9329 95.4069C42.8048 95.3609 42.6731 95.3255 42.5392 95.301C42.3717 95.2709 42.2018 95.2566 42.0317 95.2583C41.7025 95.2544 41.3758 95.3157 41.0704 95.4385C40.7851 95.5544 40.5279 95.7302 40.3163 95.9539C40.0984 96.188 39.9306 96.4639 39.823 96.765C39.7009 97.1079 39.6409 97.4698 39.6459 97.8338C39.64 98.2032 39.6988 98.5708 39.8198 98.9199C39.9257 99.2243 40.0931 99.5036 40.3115 99.7405C40.5149 99.9597 40.7629 100.133 41.0388 100.248C41.3274 100.368 41.6371 100.428 41.9495 100.425C42.1337 100.427 42.3177 100.413 42.4997 100.384C42.6517 100.359 42.8006 100.319 42.9439 100.262C43.0747 100.207 43.1993 100.138 43.3155 100.057C43.4373 99.974 43.5525 99.8821 43.6601 99.7816L43.6981 99.7547C43.7113 99.746 43.7266 99.7411 43.7423 99.7405ZM48.8807 94.9674V95.3136H45.8593V97.633H48.3747V97.9697H45.8609V100.373H48.8807V100.718H45.4419V94.9753L48.8807 94.9674ZM55.8719 94.9674V95.3199H53.8561V100.705H53.4419V95.3278H51.415V94.9753L55.8719 94.9674ZM61.4561 100.705H61.0387V97.9634H57.4451V100.713H57.0277V94.9753H57.4451V97.6519H61.0371V94.9753H61.4545L61.4561 100.705ZM66.7604 94.9674V95.3136H63.7375V97.633H66.2514V97.9697H63.7375V100.373H66.7589V100.718H63.3201V94.9753L66.7604 94.9674ZM72.7683 99.0353C72.8101 99.1135 72.8456 99.1949 72.8743 99.2788C72.8901 99.2356 72.9069 99.1929 72.9248 99.1508C72.9419 99.1096 72.9614 99.0694 72.9833 99.0306L75.2379 95.0448C75.252 95.0169 75.2747 94.9942 75.3027 94.98C75.3313 94.9708 75.3612 94.9665 75.3912 94.9674H75.679V100.705H75.3138V95.8227C75.3142 95.7482 75.3184 95.6738 75.3264 95.5998L73.0608 99.6108C73.0473 99.6417 73.0252 99.6681 72.9972 99.6868C72.9692 99.7056 72.9364 99.716 72.9027 99.7168H72.8331C72.7996 99.7153 72.7672 99.7046 72.7393 99.6859C72.7114 99.6672 72.6892 99.6413 72.675 99.6108L70.3509 95.595C70.3591 95.6707 70.3633 95.7467 70.3636 95.8227V100.713H70.0031V94.9753H70.2877C70.3188 94.9744 70.3497 94.9787 70.3794 94.9879C70.4081 95.0016 70.4314 95.0244 70.4458 95.0527L72.7683 99.0353ZM81.8639 100.706H81.5477C81.5141 100.708 81.4809 100.697 81.4545 100.676C81.4293 100.655 81.4097 100.628 81.3975 100.597L80.7209 98.931H77.8908L77.2173 100.597C77.206 100.628 77.1863 100.655 77.1604 100.675C77.1324 100.697 77.0979 100.708 77.0624 100.708H76.7462L79.094 94.9753H79.5082L81.8639 100.706ZM78.0157 98.6338H80.5865L79.4149 95.7342C79.396 95.6878 79.377 95.6351 79.358 95.5761C79.3391 95.517 79.3201 95.4554 79.3011 95.3911C79.2821 95.4564 79.2632 95.5181 79.2442 95.5761C79.2252 95.634 79.2062 95.6867 79.1873 95.7342L78.0157 98.6338ZM86.207 94.98V95.3326H84.1912V100.718H83.777V95.3278H81.7501V94.9753L86.207 94.98ZM90.8015 94.98V95.3136H87.7801V97.633H90.2939V97.9697H87.7801V100.373H90.8015V100.718H87.3627V94.9753L90.8015 94.98ZM95.7564 94.98V95.3136H92.7351V97.633H95.2489V97.9697H92.7351V100.373H95.7564V100.718H92.3177V94.9753L95.7564 94.98ZM100.025 99.048C100.067 99.1262 100.102 99.2076 100.131 99.2915C100.147 99.2483 100.164 99.2056 100.182 99.1634C100.199 99.1222 100.218 99.0821 100.24 99.0432L102.495 95.0575C102.509 95.0295 102.532 95.0068 102.56 94.9927C102.588 94.9834 102.618 94.9791 102.648 94.98H102.936V100.718H102.571V95.8227C102.571 95.7482 102.575 95.6738 102.583 95.5998L100.33 99.6108C100.317 99.6417 100.295 99.6681 100.267 99.6868C100.239 99.7056 100.206 99.716 100.172 99.7168H100.107C100.074 99.7153 100.041 99.7046 100.013 99.6859C99.9856 99.6672 99.9634 99.6413 99.9492 99.6108L97.622 95.595C97.6301 95.6707 97.6344 95.7467 97.6346 95.8227V100.713H97.2742V94.9753H97.5587C97.5898 94.9744 97.6208 94.9787 97.6504 94.9879C97.6791 95.0016 97.7025 95.0244 97.7168 95.0527L100.025 99.048ZM106.944 100.367H109.665V100.719H106.534V94.9753H106.948L106.944 100.367ZM111.408 100.719H110.991V94.9753H111.408V100.719ZM116.866 94.9816V95.3136H113.85V97.7326H116.465V98.0772H113.85V100.713H113.432V94.9753L116.866 94.9816ZM121.668 94.9816V95.3136H118.651V97.633H121.165V97.9697H118.651V100.373H121.672V100.718H118.234V94.9753L121.668 94.9816ZM125.959 95.6788C125.95 95.6996 125.935 95.7173 125.916 95.7297C125.897 95.7421 125.875 95.7486 125.853 95.7484C125.8 95.7398 125.752 95.7136 125.717 95.6741C125.646 95.6129 125.571 95.5574 125.492 95.5081C125.381 95.4394 125.262 95.3832 125.138 95.3405C124.969 95.2848 124.791 95.2586 124.613 95.263C124.426 95.2592 124.24 95.2892 124.063 95.3516C123.915 95.4047 123.78 95.4876 123.666 95.595C123.561 95.6957 123.478 95.8174 123.423 95.9524C123.367 96.0872 123.339 96.2317 123.339 96.3776C123.332 96.547 123.375 96.7146 123.462 96.8599C123.548 96.9872 123.66 97.0954 123.789 97.1776C123.933 97.2708 124.088 97.3462 124.25 97.4021C124.421 97.4633 124.598 97.5234 124.779 97.5824C124.96 97.6414 125.137 97.7068 125.309 97.7784C125.474 97.8466 125.629 97.9376 125.769 98.0488C125.904 98.1578 126.015 98.2941 126.095 98.4488C126.183 98.6326 126.225 98.8349 126.218 99.0385C126.22 99.2708 126.178 99.5014 126.095 99.7183C126.015 99.926 125.893 100.115 125.736 100.272C125.571 100.434 125.375 100.56 125.16 100.643C124.912 100.738 124.648 100.784 124.382 100.779C124.046 100.788 123.711 100.719 123.405 100.578C123.132 100.444 122.888 100.257 122.688 100.028L122.801 99.8496C122.814 99.8313 122.831 99.8164 122.851 99.8059C122.871 99.7955 122.893 99.7899 122.915 99.7895C122.951 99.7947 122.984 99.812 123.008 99.8385L123.146 99.9587C123.2 100.006 123.265 100.059 123.34 100.117C123.423 100.178 123.512 100.231 123.604 100.275C123.715 100.326 123.831 100.366 123.949 100.395C124.094 100.429 124.243 100.446 124.392 100.444C124.599 100.448 124.806 100.413 125.001 100.341C125.169 100.279 125.322 100.183 125.453 100.06C125.576 99.9405 125.672 99.7959 125.734 99.6361C125.8 99.469 125.833 99.2908 125.832 99.1112C125.839 98.9359 125.797 98.7621 125.709 98.61C125.626 98.4779 125.514 98.3656 125.383 98.2812C125.239 98.189 125.085 98.1147 124.923 98.0599C124.751 98.0008 124.575 97.9429 124.393 97.8859C124.212 97.829 124.036 97.7621 123.864 97.6852C123.698 97.6181 123.543 97.527 123.404 97.4148C123.267 97.3031 123.156 97.1635 123.078 97.0053C122.989 96.8127 122.947 96.6021 122.955 96.3903C122.954 96.2 122.991 96.0114 123.064 95.8354C123.135 95.657 123.243 95.4955 123.38 95.361C123.531 95.2182 123.708 95.1065 123.902 95.0322C124.128 94.9463 124.368 94.9045 124.61 94.9089C124.884 94.9046 125.156 94.9529 125.412 95.0512C125.654 95.1499 125.875 95.2973 126.058 95.4844L125.959 95.6788ZM131.334 94.9816V95.3342H129.323V100.719H128.909V95.3278H126.879V94.9753L131.334 94.9816ZM134.278 98.3508V100.722H133.861V98.3508L131.74 94.9753H132.101C132.134 94.9738 132.166 94.9832 132.193 95.0022C132.219 95.0233 132.241 95.0483 132.259 95.0765L133.908 97.712C133.944 97.7703 133.977 97.8304 134.006 97.8923C134.033 97.9502 134.058 98.0093 134.079 98.0693C134.101 98.0103 134.125 97.9513 134.151 97.8923C134.181 97.8304 134.214 97.7702 134.25 97.712L135.881 95.0765C135.896 95.0483 135.916 95.0236 135.941 95.0037C135.968 94.9839 136.001 94.9739 136.034 94.9753H136.4L134.278 98.3508ZM137.927 100.367H140.648V100.719H137.514V94.9753H137.929L137.927 100.367ZM145.263 94.9816V95.3136H142.243V97.633H144.757V97.9697H142.243V100.373H145.264V100.718H141.826V94.9753L145.263 94.9816Z" fill="#088FFA"/>
</svg>
