<svg width="101" height="101" viewBox="0 0 101 101" fill="none" xmlns="http://www.w3.org/2000/svg">
<path d="M50.5111 100.766C40.5565 100.766 30.8254 97.8144 22.5485 92.2839C14.2715 86.7535 7.82042 78.8928 4.01096 69.6959C0.201495 60.4991 -0.795234 50.3791 1.14681 40.6158C3.08886 30.8524 7.88246 21.8842 14.9214 14.8453C21.9604 7.80629 30.9286 3.01269 40.6919 1.07064C50.4553 -0.871406 60.5752 0.125324 69.7721 3.93479C78.9689 7.74425 86.8296 14.1953 92.3601 22.4723C97.8906 30.7493 100.842 40.4803 100.842 50.4349C100.828 63.7791 95.5201 76.5724 86.0843 86.0081C76.6486 95.4439 63.8552 100.751 50.5111 100.766ZM50.5111 2.29407C40.9896 2.29438 31.682 5.11811 23.7654 10.4082C15.8487 15.6983 9.67853 23.2171 6.03506 32.0139C2.39159 40.8107 1.43849 50.4904 3.29629 59.8289C5.15408 69.1674 9.73932 77.7452 16.4722 84.4778C23.205 91.2103 31.7831 95.7952 41.1217 97.6525C50.4603 99.5098 60.1399 98.5563 68.9365 94.9124C77.7332 91.2685 85.2517 85.0979 90.5414 77.181C95.8311 69.2641 98.6544 59.9564 98.6543 50.4349C98.6404 37.6708 93.5637 25.4335 84.5381 16.4079C75.5125 7.3823 63.2752 2.30563 50.5111 2.29176V2.29407Z" fill="#1D3968"/>
<path d="M41.0993 98.7625C40.7663 98.5043 40.4257 98.2568 40.0973 97.9917C36.8107 95.3788 33.7516 92.5038 30.5459 89.7992C29.6549 88.9916 28.7182 88.236 27.7403 87.5362C27.547 87.383 27.3082 87.2988 27.0616 87.2968C26.815 87.2948 26.5748 87.3753 26.3791 87.5254C26.1895 87.6681 26.0522 87.8694 25.9885 88.0981C25.9248 88.3267 25.9383 88.57 26.0269 88.7902C26.1474 89.3755 26.306 89.9522 26.5017 90.5168C26.5946 90.6982 26.6369 90.9013 26.6241 91.1048C26.6114 91.3082 26.544 91.5045 26.4292 91.6729C21.3895 86.2613 17.027 80.2565 13.4379 73.791C13.4032 74.3753 13.3608 74.7869 13.3546 75.2023C13.3353 75.6429 13.4075 76.0827 13.5667 76.4939C13.7259 76.9052 13.9686 77.2789 14.2795 77.5917C17.6676 80.9027 19.986 85.1528 20.9359 89.7938C26.8876 94.2778 33.7836 97.3452 41.0993 98.7625Z" fill="#1D3968"/>
<path d="M84.1978 40.9145C84.1829 40.4229 84.0219 39.9469 83.7354 39.5471C83.6891 39.4701 83.639 39.3876 83.5889 39.309C82.7598 38.0073 81.7784 36.8093 80.6654 35.7403C78.8951 34.0818 76.9742 32.5916 74.9278 31.2891C74.2158 30.8786 73.6039 30.315 73.1366 29.639C72.6692 28.963 72.358 28.1916 72.2254 27.3805C72.0549 26.0087 71.3493 24.7599 70.2623 23.9059C64.0231 18.5658 57.1921 13.9589 49.9031 10.1753C49.7407 10.1214 49.5962 10.0238 49.4854 9.89336C49.3746 9.76287 49.3018 9.60445 49.275 9.4354C49.8041 9.3025 50.3435 9.21458 50.8874 9.17257C53.0838 9.09268 55.2822 9.26595 57.439 9.68898C58.7349 9.93683 60.0505 10.0679 61.3699 10.0805C58.6152 7.52003 51.3106 3.77177 45.1421 1.49414C32.6611 2.85462 21.1748 8.94215 13.0417 18.5066C14.228 17.456 15.4381 16.4302 16.6852 15.4451C16.8583 15.272 17.0769 15.1515 17.3157 15.0975C17.4174 15.0745 17.5232 15.0776 17.6234 15.1062C17.7236 15.1349 17.815 15.1884 17.8891 15.2617C18.0433 15.4651 17.7666 15.5638 17.681 15.7056C17.5538 15.9114 17.3858 16.0949 17.2409 16.2899C14.8368 19.2262 12.7262 22.3909 10.9391 25.7388C10.2664 27.0376 9.72887 28.4021 9.33511 29.8107C9.25396 30.0729 9.25856 30.3541 9.34825 30.6135C9.43794 30.8728 9.60804 31.0968 9.8338 31.2529C10.0559 31.4312 10.33 31.5324 10.6147 31.541C10.8994 31.5496 11.1791 31.4652 11.4116 31.3006C11.7226 31.0913 12.0073 30.8451 12.2594 30.5676C13.5501 29.2494 14.7382 27.8345 15.8134 26.3353C18.0487 23.2453 20.2361 20.116 22.7065 17.2017C23.8604 15.6816 25.4252 14.5235 27.2162 13.8643C27.3565 13.8203 27.5091 13.6955 27.7111 13.8881C27.1245 14.2034 26.9827 14.7961 26.7091 15.2886C25.7556 16.8165 24.9859 18.4515 24.416 20.1599C23.629 23.1963 23.8088 26.4026 24.9301 29.3321C26.0184 32.1693 27.4399 34.8672 29.1648 37.3689C29.2804 37.5439 29.3837 37.7281 29.5386 37.9817C27.809 37.5958 26.229 36.7153 24.991 35.4474C24.8731 35.3333 24.7899 35.0404 24.5116 35.2308C24.415 35.2861 24.3398 35.3722 24.2979 35.4753C24.256 35.5784 24.2498 35.6926 24.2804 35.7996C24.4938 37.2607 24.8269 38.7017 25.2762 40.1083C26.2412 43.2268 27.6132 46.185 28.7578 49.2288C28.9257 49.5289 29.018 49.8654 29.0268 50.2092C27.3329 48.7946 25.8633 47.1314 24.6681 45.2763C23.3097 43.1187 22.1257 40.8563 21.1271 38.5104C21.0593 38.3563 21.0462 38.1251 20.7641 38.1667C20.6513 38.179 20.5446 38.2239 20.4567 38.2957C20.3689 38.3675 20.3038 38.4633 20.2693 38.5713C20.2275 38.7357 20.2328 38.9085 20.2847 39.07C20.6523 40.6886 20.983 42.3242 21.3722 43.9436C22.3681 48.1058 24.0175 51.8826 27.7118 54.4192C27.9011 54.5449 28.0475 54.7254 28.1315 54.9365C28.2155 55.1476 28.2332 55.3794 28.182 55.6008C27.9386 57.2394 27.8959 58.9017 28.0548 60.5507C28.3356 63.332 29.0742 66.0478 30.2407 68.5883C33.2868 75.4947 37.5132 81.8174 42.7303 87.2725C42.933 87.424 43.0879 87.6306 43.1766 87.8676C42.3017 87.6858 41.4645 87.3549 40.7017 86.8895C39.9687 86.427 39.2488 85.9507 38.5196 85.4959C35.3819 83.6025 32.3609 81.522 29.4731 79.2658C25.4381 76.0285 21.8424 72.4059 19.2781 67.8499C17.126 63.8165 15.5868 59.485 14.7112 54.998C14.2865 53.0965 13.9297 51.1881 13.3547 49.3236C13.2123 48.6968 12.8806 48.1289 12.4047 47.6968C11.9288 47.2647 11.3316 46.9894 10.694 46.908C10.3965 46.8602 10.1028 46.7924 9.80374 46.77C9.54553 46.7523 9.48387 46.6606 9.55401 46.4155C9.76212 45.7349 9.93939 45.0481 10.1514 44.3714C11.0593 41.5334 12.3635 38.8457 13.3986 36.0625C13.5933 35.6716 13.7234 35.2517 13.784 34.8192C13.589 34.793 13.5127 34.9202 13.4187 35.0027C11.0157 37.2028 8.95899 39.7533 7.318 42.5678C7.25369 42.6903 7.21792 42.8258 7.21338 42.964C7.20885 43.1023 7.23565 43.2398 7.29179 43.3663C8.01325 46.0422 8.2549 48.8248 8.00553 51.585C7.93451 52.2547 8.00542 52.9317 8.21364 53.5721C8.44904 54.2035 8.63762 54.8514 8.77784 55.5106C8.97901 56.5897 9.81299 57.2394 10.3757 58.0865C10.1482 56.7491 10.223 55.3778 10.5945 54.0731C10.6578 54.3883 10.7017 54.6072 10.7487 54.8169C10.9191 56.0013 11.1675 57.1731 11.4925 58.3247C13.7158 63.9799 16.8703 69.2229 20.825 73.8364C28.2676 82.7974 36.8848 90.5807 45.603 98.2576C45.9476 98.6022 46.2082 99.0215 46.3645 99.4831C47.7303 99.5972 49.1108 99.6689 50.5066 99.6689C53.4796 99.665 56.4463 99.3934 59.3705 98.8572C59.5563 98.4372 59.7729 98.0209 59.9417 97.5947C61.6713 93.5409 61.9676 89.0186 60.7818 84.7737C59.3717 80.2384 56.8624 76.1219 53.4772 72.7905C53.4487 72.7666 53.3878 72.7728 53.3177 72.7574C56.0986 80.3109 57.1075 87.9416 54.8037 95.7711C54.8353 92.1238 54.1445 88.5064 52.7712 85.1275C51.4267 81.9092 49.781 78.8252 47.856 75.9168C45.2785 71.864 42.6147 67.8684 40.2669 63.673C37.0497 58.1524 34.6596 52.1897 33.1728 45.9754C32.9348 45.1708 32.964 44.3108 33.256 43.5243C35.112 47.2641 36.7199 51.0694 39.6018 54.1001C42.507 57.0121 45.9344 59.3513 49.705 60.9954C45.4234 55.0342 41.4146 48.9382 39.0075 41.9427C40.2182 42.9346 41.3306 44.0406 42.3295 45.2454C45.6839 49.1425 49.927 51.7816 54.5077 53.9698C54.5362 53.9305 54.5694 53.8927 54.5956 53.8519C54.2387 53.4665 53.8865 53.0749 53.5234 52.6957C49.9518 49.082 46.8579 45.0256 44.3174 40.6254C44.2295 40.4613 44.0638 40.3171 44.1116 40.0674C44.2657 40.1375 44.3829 40.1853 44.5008 40.2447C46.1055 41.1873 47.598 42.3091 48.9497 43.5883C49.8813 44.4372 50.9202 45.1605 52.0397 45.7395C52.2301 45.8335 52.4182 45.98 52.624 45.7025C52.6644 45.659 52.6959 45.6078 52.7165 45.5521C52.7371 45.4963 52.7465 45.437 52.744 45.3776C52.7416 45.3182 52.7274 45.2598 52.7023 45.2059C52.6772 45.152 52.6417 45.1036 52.5977 45.0635C51.9387 44.1463 51.3152 43.2075 50.6462 42.3019C50.3856 41.9427 50.5544 41.8533 50.8774 41.8271C51.0754 41.8172 51.2734 41.8475 51.4595 41.9159C51.6456 41.9844 51.8159 42.0897 51.9603 42.2256C53.1999 43.1997 54.5645 44.0034 56.0177 44.615C58.3297 45.6267 60.6916 46.5207 63.0941 47.2934C64.1208 47.6541 64.2017 48.0549 63.5034 48.8927C62.634 49.9291 61.9555 51.1116 61.4994 52.3851C61.1141 53.2699 61 54.2491 61.1713 55.1988C61.3427 56.1485 61.7919 57.026 62.4621 57.7204C63.2638 58.5439 64.2232 59.1974 65.2831 59.6419C65.8226 59.8847 66.373 60.1044 66.9749 60.3618C66.6574 60.5499 66.4061 60.7079 66.1456 60.8605C64.4883 61.7553 62.988 62.9143 61.7036 64.292C61.1945 64.8198 60.7911 65.4401 60.5151 66.1195C60.352 66.4823 60.3207 66.8906 60.4265 67.2741C60.5323 67.6575 60.7687 67.992 61.0947 68.2198C61.4688 68.5059 61.8804 68.7393 62.3179 68.9135C65.4129 70.148 68.7452 70.6729 72.0697 70.4497C72.6142 70.4265 73.1472 70.2856 73.6319 70.0367C74.1167 69.7877 74.5417 69.4366 74.8777 69.0076C76.4452 67.1548 77.6367 65.0143 78.3855 62.7057C78.6501 61.9113 78.888 61.1054 79.0992 60.2878C79.3682 59.2812 79.0907 58.8719 78.0556 58.7733C77.1923 58.7668 76.3329 58.8908 75.5066 59.1409C74.6544 59.3899 73.7436 59.3484 72.9176 59.023C74.2495 57.8853 75.8879 57.1666 77.627 56.9573C78.4645 56.9267 79.2785 56.6723 79.9843 56.2205C80.6901 55.7687 81.262 55.1361 81.6404 54.3883C82.5216 52.7799 83.2281 51.0817 83.7477 49.3228C84.1454 47.9403 84.3406 46.5075 84.3273 45.0689C84.4087 44.5099 84.4563 43.9465 84.4699 43.3817C84.4815 42.6208 84.406 41.861 84.2449 41.1172C84.2279 41.0409 84.2125 40.98 84.1978 40.9145ZM34.4738 17.3528C33.1042 18.8712 32.7935 20.7334 32.6617 22.6618C32.6212 23.9155 32.689 25.1704 32.8645 26.4124C31.8993 25.524 31.1259 24.4476 30.5919 23.2494C30.0578 22.0511 29.7744 20.7564 29.759 19.4446C29.6981 16.8626 31.4678 15.8991 33.3261 15.8382C33.6272 15.8335 33.9241 15.9091 34.1863 16.0571C34.8299 16.3901 34.9548 16.8194 34.4738 17.3528ZM59.1046 29.494C58.1026 29.857 57.8791 30.2447 58.0564 31.2883C58.1612 31.8857 58.3431 32.4676 58.5188 33.1875C54.4544 31.3089 50.1814 29.9192 45.7895 29.0477C49.9016 26.6668 57.1885 26.3739 61.0785 28.8881C60.4172 29.0908 59.7482 29.2658 59.1046 29.494ZM83.6583 44.5687C83.0617 45.0493 82.548 45.6245 82.1376 46.2713C81.7381 46.8866 81.2712 47.4553 80.7456 47.967C80.4804 48.2052 80.3386 48.2052 80.2137 47.8399C80.0018 47.2232 79.7605 46.612 79.5069 46.0062C79.4193 45.7263 79.2466 45.4806 79.0128 45.3034C78.7791 45.1262 78.496 45.0262 78.2028 45.0173C77.623 44.9864 77.0452 44.9257 76.4716 44.8354C75.3887 44.6558 74.4214 42.9493 74.6094 41.5982C74.8068 41.6459 75.0102 41.6876 75.2068 41.7361C77.6168 42.3477 80.1281 42.4483 82.5792 42.0313C82.9823 41.977 83.3706 41.8431 83.7215 41.6375C83.6776 42.1693 83.6645 42.7859 83.6359 43.384C83.6198 43.7848 83.6306 44.1903 83.6583 44.5687Z" fill="#1D3968"/>
</svg>
