<svg width="138" height="106" viewBox="0 0 138 106" fill="none" xmlns="http://www.w3.org/2000/svg">
<mask id="mask0_1390_8807" style="mask-type:luminance" maskUnits="userSpaceOnUse" x="0" y="0" width="180" height="106">
<path d="M179.791 0.830078H0.533203V105.206H179.791V0.830078Z" fill="white"/>
</mask>
<g mask="url(#mask0_1390_8807)">
<path d="M66.8752 25.9909C65.808 26.168 65.1614 26.2328 64.5337 26.383C63.8613 26.6146 63.1485 26.7055 62.4396 26.6499C61.7306 26.5943 61.0407 26.3934 60.4126 26.0597C59.7846 25.7261 59.232 25.2668 58.7891 24.7104C58.3462 24.154 58.0224 23.5125 57.8381 22.8257C57.5618 22.2107 57.4103 21.547 57.3924 20.873C57.3745 20.199 57.4905 19.5282 57.7338 18.8994C57.977 18.2705 58.3426 17.6963 58.8094 17.2098C59.2762 16.7233 59.8349 16.3342 60.4531 16.0652C69.6404 11.1072 78.9305 6.34037 88.2063 1.54671C89.2542 1.02622 90.4194 0.786948 91.5877 0.852358C92.7559 0.917768 93.8871 1.28561 94.8703 1.91984C103.006 6.39729 111.133 10.8906 119.288 15.3253C122.029 16.8115 123.792 18.8289 123.082 22.1047C122.986 22.8105 122.743 23.4883 122.368 24.0943C121.994 24.7004 121.497 25.2213 120.909 25.6235C120.321 26.0257 119.655 26.3002 118.955 26.4294C118.254 26.5585 117.535 26.5395 116.842 26.3735C114.986 26.1237 115.017 27.0628 114.932 28.3102C114.413 35.8438 110.888 41.779 105.419 46.8382C101.645 50.3307 98.1114 54.0841 94.5699 57.8105C92.1526 60.356 89.9423 60.6058 87.3968 57.9607C82.6759 53.0596 77.721 48.3782 73.0902 43.3916C70.9452 41.0549 69.2903 38.312 68.2231 35.3249C67.1559 32.3379 66.6981 29.1673 66.8768 26.0004" fill="#4C61BB"/>
<path d="M81.0168 91.4578C80.9781 90.9593 80.9818 90.4584 81.0279 89.9606C81.6477 86.3242 78.9916 81.0863 82.5726 79.3345C86.854 77.2397 92.4097 78.0144 97.2603 79.1764C101.804 80.2657 103.317 85.0863 100.495 89.0989C99.3203 90.7653 99.2634 91.3123 100.669 92.9218C101.567 93.8081 102.198 94.9294 102.488 96.1575C102.779 97.3855 102.717 98.6706 102.311 99.8653C101.905 101.06 101.17 102.116 100.191 102.913C99.2123 103.709 98.0288 104.214 96.7765 104.368C92.4899 104.901 88.1636 105.04 83.8516 104.784C81.4421 104.768 80.9868 102.979 81.0058 100.942C81.0406 97.7803 81.0058 94.6183 81.0058 91.4562" fill="#4B61B9"/>
<path d="M0.957968 91.7141C0.925205 91.2166 0.925205 90.7175 0.957968 90.22C1.46548 86.5157 -0.986689 81.2651 2.17061 79.409C6.11368 77.0991 11.6156 78.1441 16.3192 79.0011C17.6632 79.3093 18.8969 79.9802 19.886 80.9408C20.8752 81.9014 21.582 83.115 21.9294 84.4493C22.2768 85.7837 22.2515 87.1878 21.8564 88.5089C21.4613 89.8299 20.7114 91.0173 19.6883 91.9417C17.1698 94.1868 17.8591 95.2619 19.4037 97.1812C20.1467 98.2795 20.7931 99.4401 21.3358 100.65C22.0788 102.013 22.8599 103.622 21.2093 104.615C20.8202 104.869 20.3814 105.036 19.9224 105.106C19.4634 105.176 18.9947 105.147 18.5477 105.021C18.1008 104.896 17.6858 104.676 17.3307 104.377C16.9755 104.078 16.6883 103.706 16.4883 103.287C15.2836 101.308 14.1627 99.2634 13.154 97.1765C12.7403 96.2577 12.0126 95.5165 11.1015 95.0862C10.1903 94.6558 9.15563 94.5645 8.18324 94.8287C5.53503 95.1907 6.68601 97.3267 6.48522 98.7717C6.39401 99.9288 6.36815 101.09 6.40775 102.25C6.35716 104.021 5.54609 105.069 3.66626 105.026C3.29103 105.06 2.91312 105.008 2.5609 104.874C2.20869 104.74 1.89133 104.529 1.63268 104.255C1.37402 103.981 1.18078 103.652 1.06748 103.293C0.954186 102.933 0.92377 102.553 0.978521 102.18C0.967454 98.6879 0.978521 95.2002 0.978521 91.7077L0.957968 91.7141Z" fill="#4A61BA"/>
<path d="M143.515 97.5248C143.515 99.1849 143.584 100.845 143.491 102.499C143.426 103.716 142.663 105.386 141.581 104.87C138.032 103.172 134.713 105.56 131.312 104.975C129.969 104.857 128.711 104.265 127.764 103.304C126.818 102.343 126.245 101.076 126.149 99.7303C125.833 96.5003 127.92 94.9446 130.873 94.4244C132.335 94.1667 133.834 94.0782 135.3 93.8078C136.274 93.6276 137.926 94.4545 137.886 92.4908C137.852 90.7817 136.408 90.2774 135.091 90.2774C133.603 90.3403 132.131 90.6122 130.718 91.0853C129.275 91.5169 127.926 91.6197 127.496 89.9501C127.091 88.3833 128.351 87.6323 129.626 87.0505C137.95 83.2561 143.594 87.4853 143.521 97.5185" fill="#4D62BA"/>
<path d="M124.16 95.912C124.115 101.814 120.477 105.221 114.3 105.145C108.277 105.068 104.801 101.48 104.897 95.4393C104.841 94.1493 105.062 92.8624 105.546 91.6653C106.03 90.4681 106.765 89.3887 107.701 88.4998C108.637 87.6108 109.754 86.9331 110.974 86.5124C112.195 86.0916 113.492 85.9376 114.777 86.0607C120.657 86.1998 124.206 89.9247 124.16 95.912Z" fill="#4C62BA"/>
<path d="M44.8674 95.5876C44.8674 94.0935 44.8405 92.6042 44.8674 91.1101C44.948 85.839 45.4224 85.3615 49.9836 87.6872C51.7085 88.5694 51.9662 87.1908 52.8026 86.8714C58.2776 84.7623 62.1164 86.8477 62.7124 92.6548C62.9182 95.6328 62.9488 98.6202 62.8041 101.602C62.7772 103.365 62.3298 104.96 60.0895 105.006C57.5788 105.056 57.1093 103.425 57.1172 101.379C57.1282 99.0579 57.1172 96.7354 57.0871 94.4145C57.0634 92.4398 56.6871 90.6959 54.1796 90.6643C53.7181 90.6282 53.254 90.6851 52.8149 90.8315C52.3758 90.978 51.9705 91.2111 51.623 91.517C51.2755 91.8228 50.993 92.1953 50.792 92.6124C50.5911 93.0294 50.4759 93.4825 50.4532 93.9449C50.2602 96.589 50.2022 99.2411 50.2793 101.891C50.2634 103.788 49.7132 105.153 47.4413 105.022C45.5314 104.914 44.888 103.766 44.8769 102.057C44.8769 99.9006 44.8769 97.7457 44.8769 95.5892" fill="#4B61BA"/>
<path d="M29.7195 96.8383C30.94 102.016 34.4894 101.082 37.6435 100.522C39.272 100.237 41.1218 99.0328 41.6704 101.453C42.1447 103.543 40.0799 104.275 38.5178 104.595C34.3898 105.442 30.1779 105.904 26.8436 102.465C25.5306 101.175 24.6256 99.5272 24.2408 97.7269C23.856 95.9267 24.0084 94.0531 24.6792 92.3387C25.1807 90.6484 26.187 89.1519 27.5632 88.0498C28.9394 86.9477 30.6197 86.2927 32.3787 86.1727C34.1143 85.8438 35.9098 86.0921 37.4909 86.8798C39.072 87.6675 40.3517 88.9512 41.1344 90.5348C43.4902 94.8936 42.3202 96.8257 37.4001 96.8367C34.9352 96.8367 32.4673 96.8367 29.7147 96.8367" fill="#4D62B9"/>
<path d="M74.3955 105.081C69.4627 104.773 67.7852 102.678 67.3568 97.0337C67.1639 94.5278 68.7544 91.3088 64.6343 90.1072C63.4991 89.7768 63.6762 87.2472 64.4651 87.2424C68.8461 87.2424 65.9165 79.2456 71.5038 81.0021C71.9954 81.141 72.4216 81.4499 72.7066 81.8738C72.9915 82.2978 73.1166 82.8091 73.0595 83.3167C72.805 85.9808 74.0255 86.8582 76.5378 86.6669C76.8297 86.6126 77.1303 86.6292 77.4145 86.7153C77.6986 86.8014 77.958 86.9544 78.1707 87.1615C78.3834 87.3687 78.5433 87.6239 78.6369 87.9056C78.7305 88.1874 78.755 88.4875 78.7085 88.7808C78.5741 90.4898 77.2382 90.8946 75.8216 90.7634C72.9757 90.5057 72.9647 92.3618 73.1575 94.2701C73.3852 96.5641 72.0366 99.5254 75.4864 100.585C76.9804 101.043 79.714 99.8179 79.0627 103.029C78.4966 105.816 75.9718 104.831 74.3892 105.084" fill="#4C61BA"/>
<path d="M77.8868 28.0609C77.7982 25.2937 78.5977 22.5708 80.1684 20.2908C81.7391 18.0109 83.9985 16.2937 86.6156 15.3906C89.3201 14.4975 92.2399 14.4974 94.9444 15.3905C97.6488 16.2835 99.9945 18.0223 101.635 20.3502C103.204 22.6246 104.011 25.3372 103.943 28.0991C103.874 30.8609 102.933 33.5301 101.254 35.7241C100.714 36.5642 100.035 37.3063 99.2464 37.9185C95.9579 40.0324 93.9215 46.6742 89.7603 44.1588C84.0892 40.728 78.1176 36.1193 77.8789 28.0609" fill="#FDFDFD"/>
<path d="M89.9862 100.733C88.0685 101.03 86.255 100.652 86.2598 96.967C86.2598 93.1441 88.6155 93.7212 90.8305 93.8176C93.2795 93.9251 96.7214 92.8516 96.8937 96.8437C97.074 101.005 93.64 100.548 89.9862 100.733Z" fill="#F5F6FA"/>
<path d="M90.7664 82.752C93.4969 82.7899 96.2573 82.733 96.115 85.982C95.9348 90.1053 92.3917 89.2168 89.7625 89.5203C86.7364 89.8713 86.3238 88.1496 86.2842 85.6247C86.2194 81.5282 89.2328 83.2073 90.7664 82.752Z" fill="#F0F1F8"/>
<path d="M9.89094 82.8637C13.064 82.9491 16.1628 82.8053 16.2751 86.5207C16.3984 90.5665 13.1131 90.3625 10.2672 90.644C7.12099 90.9602 6.36368 89.5372 6.31466 86.6092C6.25617 83.4598 7.38185 82.3404 9.89884 82.8637" fill="#F2F3F8"/>
<path d="M138.017 98.1652C137.975 99.0005 137.637 99.7936 137.063 100.402C136.489 101.011 135.717 101.395 134.886 101.485C133.247 101.748 131.868 100.97 131.871 99.1755C131.871 97.2783 133.515 96.9225 135.013 96.9115C136.129 96.9115 137.757 96.1383 138.017 98.1763" fill="#F2F4FA"/>
<path d="M118.761 95.8457C118.329 98.3216 117.871 100.943 114.503 100.889C111.072 100.839 110.696 98.252 110.634 95.618C110.569 92.8307 111.412 90.4006 114.639 90.4702C117.823 90.535 118.484 93.1263 118.761 95.8457Z" fill="#F9FAFB"/>
<path d="M29.7285 93.7325C30.3752 90.5989 32.0842 89.5048 34.7878 90.0013C36.2107 90.2637 37.7095 91.7404 37.0202 92.689C35.1909 95.2028 32.4036 93.5586 29.7285 93.7325Z" fill="#F4F5FA"/>
<path d="M91.1057 33.0636C87.9436 32.7553 85.9579 31.1268 85.8883 27.7703C85.8074 27.0228 85.8968 26.2667 86.1499 25.5588C86.4029 24.8508 86.8131 24.2093 87.3495 23.6825C87.8859 23.1557 88.5346 22.7572 89.2471 22.5169C89.9595 22.2766 90.7171 22.2009 91.463 22.2952C92.1743 22.2706 92.8827 22.3999 93.5394 22.6744C94.1961 22.9489 94.7858 23.3621 95.2681 23.8856C95.7503 24.4091 96.1138 25.0307 96.3335 25.7077C96.5532 26.3848 96.6241 27.1013 96.5412 27.8083C96.4179 31.092 94.5049 32.8486 91.112 33.0636" fill="#05AB9C"/>
</g>
</svg>
