<svg width="120" height="119" viewBox="0 0 120 119" fill="none" xmlns="http://www.w3.org/2000/svg">
<mask id="mask0_1390_8767" style="mask-type:luminance" maskUnits="userSpaceOnUse" x="0" y="0" width="120" height="119">
<path d="M119.675 0.263672H0.453125V118.56H119.675V0.263672Z" fill="white"/>
</mask>
<g mask="url(#mask0_1390_8767)">
<path d="M31.0789 71.5417C28.4575 70.4808 25.7982 69.5907 23.2623 68.3796C22.0043 67.8407 20.8352 67.1142 19.7951 66.2247C18.4686 64.9915 18.5192 64.0113 20.0101 63.0042C22.7436 61.3236 25.7875 60.2106 28.9603 59.7314C29.9089 59.5386 30.4227 59.4042 30.1334 58.1789C29.93 57.292 30.0018 56.3643 30.3394 55.5193C30.677 54.6744 31.2642 53.9525 32.0227 53.45C33.107 52.5753 34.3862 51.9749 35.7518 51.6997C37.1175 51.4245 38.5293 51.4825 39.8678 51.869C43.0055 52.8104 46.0574 54.0174 48.9903 55.4769C50.7294 56.2469 50.7547 56.2579 51.8076 54.7481C53.3686 52.5051 54.9043 50.2464 56.4147 47.9718C57.1125 46.9837 57.6134 45.8704 57.8898 44.6928C58.0653 43.8327 57.8582 43.2335 56.7831 43.2445C53.5373 43.29 50.3099 42.7496 47.2559 41.6493C46.1752 41.317 45.0682 41.0774 43.9468 40.9331C40.5128 40.3197 36.7247 34.5758 38.2314 30.7402C38.774 29.1934 39.481 27.7093 40.3405 26.3134C40.5941 26.0192 40.721 25.6365 40.6935 25.2491C40.6659 24.8616 40.4862 24.5008 40.1935 24.2454C38.7994 22.7107 38.043 20.7022 38.0783 18.6292C38.1135 16.5562 38.9378 14.5746 40.3832 13.0881C41.8602 11.5266 43.86 10.5628 46.0017 10.3803C48.1434 10.1978 50.2774 10.8093 51.9974 12.0984C53.0415 13.0495 53.8252 14.2517 54.274 15.5909C54.5507 16.2502 54.8622 16.4731 55.6037 16.1648C58.4613 15.0104 61.2548 13.7032 63.972 12.2486C64.6412 11.9855 65.1973 11.4965 65.5438 10.8665C65.8904 10.2364 66.0055 9.50489 65.8692 8.79882C65.4202 4.94429 68.8147 1.14826 73.0249 0.395693C74.0243 0.199146 75.0529 0.204213 76.0503 0.410598C77.0477 0.616983 77.9938 1.02053 78.8331 1.59754C79.6724 2.17456 80.388 2.91342 80.9379 3.77076C81.4878 4.62811 81.8608 5.58665 82.0352 6.59014C82.1056 7.43054 82.4955 8.212 83.1245 8.77371C83.7536 9.33543 84.574 9.63468 85.417 9.60989C87.4503 9.79637 89.3984 10.5163 91.0644 11.6968C93.3695 13.4186 94.6027 16.2612 92.2944 19.1055C92.1181 19.3119 91.9887 19.5541 91.915 19.8154C89.8597 28.0588 84.5474 33.76 77.5546 38.1094C76.6518 38.6722 76.4257 39.0991 76.8368 40.0888C77.2561 41.2688 77.4741 42.5109 77.4818 43.7631C77.5277 44.5694 77.5925 45.3758 77.6573 46.3623C78.1991 45.7847 78.8851 45.362 79.6446 45.1377C80.4041 44.9134 81.2097 44.8957 81.9783 45.0864C82.372 45.1136 82.7563 45.2187 83.109 45.3958C83.4617 45.5729 83.7756 45.8184 84.0325 46.1179C84.2894 46.4175 84.4841 46.7652 84.6054 47.1407C84.7266 47.5163 84.772 47.9122 84.7387 48.3054C84.9939 51.5207 84.2638 54.7375 82.6455 57.5275C82.5443 57.6856 82.4621 57.8674 82.3735 58.0429C82.3625 58.0682 82.3878 58.1172 82.4131 58.25C85.1469 58.453 87.8618 58.8605 90.5348 59.469C91.671 59.747 92.7764 60.1385 93.8344 60.6374C95.3612 61.2044 96.6011 62.3533 97.2827 63.8325C97.9642 65.3118 98.0318 67.0008 97.4707 68.5298C96.6376 71.4868 94.8367 74.0788 92.3561 75.8911C87.9598 79.165 82.9228 81.4755 77.5735 82.6721C67.8153 85.0827 57.7468 85.9933 47.7144 85.3725C41.2658 85.2091 34.8788 84.0738 28.769 82.0049C26.2524 81.1493 23.8794 79.9185 21.7303 78.3543C21.0715 77.8671 20.452 77.3289 19.8773 76.7448C18.4386 75.2634 18.652 74.0571 20.5334 73.1923C22.905 72.2783 25.4143 71.7726 27.9548 71.6966C28.9919 71.6002 30.0385 71.5859 31.0804 71.5385" fill="#2F292B"/>
<path d="M43.6087 102.136C43.419 105.403 43.1739 108.666 43.0775 111.938C43.0459 113.004 42.7186 113.327 41.7336 113.169C41.4625 113.13 41.1874 113.13 40.9162 113.169C40.2269 113.255 40.0672 112.968 40.1099 112.305C40.3534 108.408 40.5542 104.511 40.7692 100.606C40.8309 99.4373 40.9162 98.2674 40.9479 97.099C40.9621 96.503 41.1771 96.3085 41.7826 96.2958C44.4245 96.1994 44.4182 96.1773 45.3352 98.5899C46.345 101.251 47.361 103.91 48.3834 106.565C48.4625 106.773 48.5874 106.969 48.7391 107.268C50.0403 103.973 51.3526 100.81 52.5225 97.5939C52.5628 97.3816 52.6444 97.1794 52.7628 96.9988C52.8812 96.8181 53.034 96.6626 53.2126 96.541C53.3911 96.4194 53.5918 96.3343 53.8033 96.2903C54.0148 96.2463 54.2329 96.2444 54.445 96.2848C56.4609 96.3781 56.4498 96.3101 56.5541 98.3496C56.7881 102.95 57.0174 107.553 57.3004 112.15C57.3541 113.001 57.1107 113.194 56.2933 113.176C54.3597 113.134 54.3723 113.176 54.2775 111.279C54.1194 108.166 53.9502 105.052 53.6008 101.885C52.9684 103.448 52.3217 105.01 51.6925 106.574C51.1834 107.839 50.6285 109.091 50.2 110.383C50.1643 110.541 50.0975 110.69 50.0035 110.822C49.9095 110.954 49.7901 111.066 49.6524 111.152C49.5147 111.237 49.3614 111.295 49.2013 111.32C49.0413 111.346 48.8777 111.339 48.7202 111.301C48.0166 111.259 47.4411 111.355 47.1059 110.422C46.0909 107.605 44.9305 104.843 43.8285 102.057L43.6087 102.136Z" fill="#3B4048"/>
<path d="M114.559 102.103C114.94 101.347 115.568 100.745 116.339 100.397C117.11 100.048 117.978 99.9746 118.796 100.188C119.147 100.285 119.696 100.275 119.671 100.783C119.671 101.524 119.5 102.255 119.173 102.92C119.054 103.135 118.754 102.873 118.54 102.816C116.456 102.25 115.181 103.186 115.155 105.358C115.127 107.62 115.113 109.883 115.166 112.145C115.187 112.966 114.954 113.203 114.129 113.189C112.121 113.152 112.153 113.189 112.113 111.16C112.049 107.809 112.325 104.452 111.941 101.11C111.879 100.572 112.066 100.42 112.573 100.446C113.566 100.5 114.901 99.9968 114.561 102.109" fill="#3B4048"/>
<path d="M84.0645 104.403C83.9041 103.186 83.301 102.071 82.3703 101.271C81.4396 100.47 80.2467 100.041 79.0194 100.065C77.4584 100.04 75.9003 100.205 74.3791 100.557C73.4795 100.715 73.2345 101.138 73.2424 102.049C73.2819 107.553 73.2424 113.059 73.2424 118.561H76.2874V112.909L77.187 113.217C77.8428 113.482 78.5476 113.602 79.2539 113.572C79.9603 113.541 80.6519 113.36 81.2825 113.04C81.913 112.72 82.4678 112.269 82.9098 111.717C83.3517 111.166 83.6705 110.526 83.8447 109.84C84.3859 108.077 84.4627 106.204 84.0676 104.402M80.9056 109.187C80.7712 109.599 80.5433 109.974 80.2398 110.283C79.9362 110.591 79.5653 110.826 79.1561 110.967C78.7468 111.108 78.3104 111.153 77.881 111.098C77.4516 111.042 77.0409 110.888 76.6811 110.647C76.2937 110.413 76.2937 110.115 76.2937 109.764V106.602C76.2937 105.587 76.3617 104.569 76.2732 103.562C76.1973 102.702 76.6005 102.508 77.323 102.443C77.7378 102.364 78.1642 102.369 78.5772 102.457C78.9902 102.545 79.3815 102.714 79.7281 102.955C80.0748 103.197 80.3697 103.505 80.5958 103.861C80.8219 104.218 80.9745 104.616 81.0447 105.032C81.4053 106.4 81.3569 107.844 80.9056 109.184" fill="#3B4048"/>
<path d="M97.4912 103.939C97.2919 102.975 96.7975 102.097 96.0765 101.426C95.3555 100.756 94.4436 100.326 93.4675 100.197C91.4118 99.9385 89.3246 100.117 87.3426 100.72C86.7197 100.868 86.8114 101.29 86.8114 101.707C86.8167 107.324 86.8235 112.942 86.8319 118.562H89.8801V112.921L90.6216 113.184C91.2903 113.468 92.0131 113.601 92.7391 113.576C93.4651 113.55 94.1767 113.366 94.8237 113.036C95.4708 112.705 96.0376 112.237 96.4842 111.664C96.9309 111.092 97.2465 110.428 97.409 109.72C97.9688 107.838 97.9973 105.839 97.4912 103.943M94.4572 109.101C94.3376 109.517 94.1233 109.899 93.8311 110.217C93.5389 110.535 93.1768 110.782 92.7732 110.936C92.3697 111.091 91.9358 111.15 91.5056 111.108C91.0755 111.067 90.6608 110.926 90.2944 110.697C89.8454 110.456 89.8311 110.137 89.8327 109.739C89.8327 108.689 89.8327 107.637 89.8327 106.586C89.8327 105.495 89.8643 104.403 89.8217 103.313C89.7995 102.757 90.0303 102.592 90.5347 102.496C90.9799 102.376 91.4455 102.352 91.9007 102.426C92.3559 102.499 92.7902 102.669 93.175 102.923C93.5597 103.177 93.8861 103.51 94.1325 103.9C94.3789 104.29 94.5397 104.727 94.6042 105.184C94.9151 106.479 94.8642 107.833 94.4572 109.101Z" fill="#3B4048"/>
<path d="M42.4414 24.2441C42.0838 24.352 41.6988 24.3235 41.3609 24.164C41.023 24.0046 40.7563 23.7255 40.6122 23.3808C39.5923 21.6908 39.2167 19.6893 39.5545 17.7445C39.7321 16.7724 40.0995 15.8449 40.6357 15.0149C41.1719 14.1849 41.8664 13.4687 42.6795 12.9072C43.4927 12.3458 44.4085 11.95 45.3746 11.7427C46.3407 11.5353 47.3383 11.5203 48.3102 11.6987C49.6192 12.053 50.7833 12.8107 51.6373 13.8642C52.4913 14.9177 52.9917 16.2134 53.0675 17.5674C53.088 17.7998 53.0849 18.0417 53.0991 18.2694C53.1133 18.4971 53.0596 18.7579 53.3363 18.8749C53.6129 18.9919 53.7805 18.8354 53.9307 18.6378C55.0845 17.3507 56.5864 16.4254 58.2548 15.9737C61.3965 14.7854 64.389 13.235 67.1718 11.354C67.2927 11.3005 67.4016 11.2233 67.4921 11.127C67.5826 11.0306 67.6529 10.9171 67.6987 10.7931C67.7445 10.6691 67.7651 10.5372 67.759 10.4052C67.753 10.2731 67.7205 10.1436 67.6635 10.0244C66.5346 6.2884 68.9441 2.65522 73.099 1.74138C73.943 1.58386 74.8102 1.60105 75.6473 1.79189C76.4843 1.98273 77.2733 2.34318 77.9656 2.85096C78.6578 3.35873 79.2386 4.00306 79.672 4.74412C80.1055 5.48519 80.3823 6.30726 80.4856 7.15955C80.8935 9.8125 80.8871 9.83463 83.5006 10.4228C84.8302 10.7232 86.1978 10.8497 87.5164 11.1864C91.1243 12.1113 92.2104 14.8544 90.3622 18.0844C89.337 19.7536 87.9727 21.1891 86.3577 22.2978C84.7427 23.4065 82.9129 24.1638 80.9868 24.5207C76.7379 25.5267 72.5542 26.7902 68.4587 28.3041C64.8226 29.9423 61.5042 32.2095 58.6564 35.0013C56.4679 37.0922 53.7405 38.5325 50.7798 39.161C48.6622 39.5669 46.4789 39.4711 44.4051 38.8812C42.7046 38.3088 41.2753 37.1289 40.3913 35.5676C39.5072 34.0064 39.2306 32.1737 39.6146 30.4211C40.1357 28.1907 41.0991 26.0875 42.4478 24.2362" fill="#56C47F"/>
<path d="M77.1927 68.3362C78.6915 66.7409 78.4227 65.8334 76.0702 64.8152C76.8907 64.0658 77.6876 63.3591 78.4591 62.624C79.0453 62.167 79.5633 61.6288 79.9974 61.0255C80.3957 60.2711 81.0609 59.6922 81.8631 59.4019C82.6653 59.1116 83.5469 59.1307 84.3358 59.4556C86.7193 59.8676 89.0409 60.5805 91.2448 61.5773C91.746 61.8398 92.2061 62.1734 92.8733 62.5923C90.6598 63.3481 88.5286 63.4018 86.4796 64.0374C86.9779 64.3117 87.5498 64.4224 88.1144 64.3536C89.95 64.3852 91.7855 64.4279 93.6211 64.4042C93.9314 64.3745 94.2422 64.4553 94.4987 64.6323C94.7553 64.8093 94.9411 65.0712 95.0235 65.3718C95.3657 66.2518 95.426 67.2165 95.1958 68.1322C95.0269 68.8545 94.7843 69.5575 94.4717 70.2302C93.2069 72.9955 93.0488 73.0619 90.0575 72.4168C89.9428 72.4198 89.8298 72.4439 89.7239 72.4879C89.7982 73.054 90.2725 73.2484 90.6345 73.503C91.4061 74.0437 91.4709 74.4516 90.6567 75.084C87.4711 77.4229 83.8659 79.1281 80.037 80.1069C74.2782 81.6766 68.3699 82.6347 62.4102 82.9654C58.0829 83.2705 53.7588 83.4397 49.4236 83.3701C44.7415 83.3407 40.0686 82.9474 35.4474 82.1938C35.2292 82.1418 35.0139 82.0785 34.8023 82.0041C35.3842 81.3448 36.2648 81.3338 36.9636 80.6191C35.928 80.7772 35.1249 80.8705 34.3359 81.0286C29.9723 81.8998 26.5889 79.6689 23.1771 77.5188C22.5936 77.1257 22.0683 76.6526 21.6166 76.1132C20.7344 75.1061 20.921 74.3741 22.2048 73.9219C23.8188 73.3351 25.5056 72.9723 27.2182 72.8437C28.7771 72.7425 30.3375 72.7219 31.8964 72.6113C32.7312 72.5512 33.8332 72.6113 34.0308 71.5931C34.2142 70.6445 33.1881 70.235 32.4719 69.9409C31.1802 69.4097 29.819 69.0382 28.4767 68.635C26.834 68.137 25.1961 67.6279 23.6103 66.9686C22.916 66.7018 22.2646 66.3348 21.6767 65.8793C20.6807 65.065 20.6838 64.4026 21.6988 63.6026C22.6688 62.8731 23.7434 62.2943 24.8862 61.8856C25.9012 61.4951 26.951 61.1789 28.0024 60.888C28.763 60.5854 29.5727 60.4246 30.3913 60.4137C31.2877 60.5133 31.3273 61.639 31.8364 62.2493C32.6943 63.2659 33.7025 64.1456 34.8261 64.8579C34.2158 66.167 34.3138 66.4896 35.5897 67.2595C36.6544 67.8347 37.7754 68.2988 38.9351 68.6445C39.2893 68.7662 39.7462 68.8516 39.7778 69.3338C39.8063 69.7528 39.4126 69.8967 39.1217 70.0769C35.528 72.2745 36.2996 74.8358 39.3509 76.8531C40.9217 77.8519 42.8171 78.2064 44.6426 77.8429C46.622 77.5653 48.5084 76.826 50.1493 75.6848C50.4641 75.4523 50.7919 75.2379 51.1311 75.0429C51.4252 74.8753 51.7446 74.5543 52.0798 74.763C52.4639 75.0002 52.1873 75.3954 52.1224 75.7116C52.0441 75.9749 52.021 76.2515 52.0544 76.5241C52.0879 76.7968 52.1772 77.0596 52.3168 77.2961C52.4565 77.5326 52.6434 77.7378 52.8659 77.8988C53.0885 78.0598 53.3418 78.1732 53.6102 78.2318C54.5742 78.5663 55.5964 78.7008 56.6141 78.6271C58.3167 78.6501 60.0043 78.3061 61.5621 77.6186C63.1199 76.9311 64.5113 75.9162 65.6418 74.6429C65.8445 74.3801 66.1209 74.1838 66.4358 74.0791C66.7507 73.9743 67.0896 73.9658 67.4093 74.0547C69.6309 74.5069 71.9176 74.5385 74.1508 74.148C75.816 73.8849 77.3853 73.1972 78.7073 72.1512C79.9453 71.1156 79.8947 70.3757 78.5492 69.5204C78.037 69.2042 77.354 69.0619 77.1927 68.3362Z" fill="#56C47F"/>
<path d="M74.3578 39.9848C74.9807 39.3761 75.1784 39.8267 75.3697 40.3721C75.9762 42.152 76.2589 44.0261 76.2044 45.9057C76.2368 51.1431 75.3048 56.3416 73.4551 61.2416C72.8053 62.8226 71.9594 64.3293 71.2258 65.8851C70.5491 67.327 70.2772 68.7183 71.8282 69.8471C71.9258 69.8956 72.0109 69.966 72.077 70.0528C72.143 70.1395 72.1882 70.2403 72.209 70.3474C72.2298 70.4544 72.2256 70.5648 72.1969 70.67C72.1681 70.7751 72.1156 70.8723 72.0432 70.9538C71.9765 71.0637 71.8878 71.1585 71.7827 71.2324C71.6776 71.3063 71.5583 71.3576 71.4323 71.3831C71.3064 71.4087 71.1766 71.4079 71.051 71.3808C70.9253 71.3537 70.8067 71.3009 70.7025 71.2258C70.2282 70.9175 69.8993 70.7926 69.4519 71.3017C69.2878 71.448 69.0741 71.5261 68.8543 71.5203C68.6346 71.5144 68.4253 71.4249 68.2693 71.27C68.0303 71.0906 67.8608 70.834 67.7896 70.5438C67.7184 70.2535 67.7499 69.9476 67.8788 69.6779C69.3918 65.2811 70.0148 60.5602 72.557 56.527C72.5776 56.4985 72.557 56.4511 72.5649 56.4116C72.8644 55.3723 73.1036 54.3165 73.2811 53.2495C73.4557 51.6961 73.2768 50.1233 72.7578 48.6488C72.5398 47.8211 72.0106 47.1096 71.2807 46.6627C70.5507 46.2158 69.6763 46.0681 68.84 46.2504C67.2506 46.5915 65.7633 47.3006 64.4975 48.3206C63.2317 49.3406 62.2227 50.6433 61.5515 52.1239C61.3644 52.5987 61.2976 53.1125 61.3571 53.6195C61.3957 54.4747 61.355 55.3316 61.2353 56.1792C61.3112 60.0025 61.112 63.8263 60.6393 67.621C60.4158 68.7412 60.5833 69.9042 61.1136 70.9159C61.2189 71.0724 61.291 71.2489 61.3253 71.4344C61.3596 71.6199 61.3554 71.8104 61.313 71.9943C61.2706 72.1781 61.1909 72.3512 61.0788 72.503C60.9667 72.6547 60.8247 72.7818 60.6614 72.8763C60.5403 72.9792 60.3973 73.0532 60.2434 73.0928C60.0895 73.1324 59.9286 73.1365 59.7729 73.1048C59.6171 73.0731 59.4706 73.0065 59.3443 72.91C59.2181 72.8134 59.1154 72.6895 59.044 72.5475C58.81 72.1886 58.6361 72.3009 58.4116 72.519C58.1528 72.7574 57.8149 72.8915 57.463 72.8953C57.2297 72.9282 56.992 72.8842 56.7858 72.7702C56.5796 72.6561 56.4161 72.4781 56.3199 72.2629C56.2724 72.1759 56.2429 72.0801 56.2331 71.9814C56.2234 71.8828 56.2335 71.7831 56.263 71.6884C56.2925 71.5937 56.3407 71.5059 56.4048 71.4303C56.4689 71.3546 56.5476 71.2926 56.6361 71.2479C58.3041 70.1934 58.3753 68.8384 57.8725 67.0392C57.3701 64.8631 57.3164 62.6075 57.7144 60.41C57.8913 59.4869 57.8886 58.5384 57.7065 57.6163C57.6164 57.2606 57.5342 56.7594 57.0425 56.7768C56.5935 56.7942 56.6045 57.2511 56.5444 57.591C56.1638 59.7446 56.066 61.9386 56.2535 64.1175C56.3004 65.2482 56.4674 66.3707 56.7516 67.4661C56.9271 68.0289 56.6551 68.176 56.1634 68.1222C49.0646 67.3586 41.9247 66.7562 35.6101 62.9238C34.9725 62.5454 34.3699 62.1111 33.8094 61.6258C33.0128 61.0439 32.4379 60.2083 32.1793 59.2564C31.9207 58.3044 31.9937 57.2928 32.3864 56.3879C32.842 55.4548 33.5688 54.681 34.4715 54.1679C35.3742 53.6547 36.4109 53.4261 37.4457 53.512C41.5895 54.0948 45.5788 55.4844 49.188 57.6021C50.7769 58.4274 52.2868 59.4092 53.8488 60.2898C54.1571 60.4622 54.5476 60.8353 54.886 60.4479C55.1611 60.1396 55.0109 59.6922 54.8607 59.3302C54.4825 58.5059 53.8405 57.8311 53.0362 57.4124C52.535 57.1215 52.5445 56.9634 52.9034 56.4906C55.3739 53.0763 57.5338 49.4476 59.3571 45.648C59.6553 45.1864 59.8195 44.6511 59.8314 44.1018C59.6733 42.9192 60.4195 42.9255 61.1832 42.8575C61.9183 42.7927 62.6504 42.7215 63.3855 42.6535C63.365 42.8401 63.3286 42.9903 63.6084 43.0583C66.7057 43.814 69.6827 43.8298 72.2598 41.5879C72.9302 41.0061 73.7507 40.6267 74.3673 39.9816" fill="#56C47F"/>
<path d="M77.1935 68.3397C77.7627 68.6764 78.3366 69.0037 78.8995 69.3468C80.2971 70.1958 80.4014 71.0037 79.2157 72.1215C77.8221 73.3872 76.0815 74.2066 74.2181 74.474C71.8754 74.8852 69.4745 74.8283 67.1541 74.3064C66.9347 74.233 66.697 74.2358 66.4794 74.3145C66.2619 74.3931 66.0773 74.5429 65.9556 74.7396C64.1758 76.9513 61.5977 78.3743 58.7778 78.7017C57.291 79.0178 55.7557 79.0302 54.264 78.738C51.9557 78.2353 51.2885 77.157 52.0869 74.7586C50.4335 76.0308 48.588 77.0315 46.6197 77.723C45.4436 78.1401 44.1948 78.3131 42.9496 78.2316C41.7043 78.15 40.4888 77.8156 39.3771 77.2487C38.4175 76.7216 37.5966 75.9744 36.9818 75.0685C35.7945 73.3578 36.4664 71.3136 38.5455 70.0456C38.9044 69.8242 39.2775 69.6329 39.7961 69.3436C38.4411 68.8061 37.2285 68.3507 36.0348 67.8416C35.5682 67.6431 35.1335 67.3767 34.7447 67.0511C33.5731 66.0677 33.5969 65.8179 34.8269 64.8535C38.3209 66.4074 41.9347 67.6763 45.6332 68.648C43.962 69.2307 42.3288 69.9172 40.7431 70.7033C39.2364 71.6171 39.015 73.214 40.2941 74.1594C40.6865 74.3793 41.121 74.5134 41.5691 74.553C42.0171 74.5925 42.4685 74.5365 42.8933 74.3887C43.1744 74.3057 43.4458 74.1928 43.7028 74.0519C43.7423 74.5357 43.7391 74.9831 43.8166 75.4116C43.8696 75.8041 44.0635 76.164 44.3623 76.4241C44.661 76.6841 45.0442 76.8266 45.4403 76.825C46.2223 76.9264 47.0169 76.7972 47.7266 76.4535C48.4363 76.1097 49.0303 75.5663 49.4355 74.8898C50.4901 73.2772 51.777 71.7483 51.7517 69.6488C51.7517 69.1744 52.1106 69.3041 52.3399 69.3231C53.3834 69.4242 54.4268 69.5555 55.4671 69.6851C56.2576 69.7847 56.1517 70.1041 55.6932 70.5499C54.9027 71.331 54.2561 72.1847 55.0703 73.3072C55.4528 73.7838 55.9943 74.1064 56.5955 74.2158C57.1966 74.3253 57.8171 74.2143 58.343 73.9033C58.8015 73.6408 58.9754 73.7784 59.3248 74.014C59.7265 74.3383 60.2334 74.5037 60.7491 74.4787C61.2648 74.4536 61.7533 74.2398 62.1217 73.878C62.4897 73.5474 62.7364 73.1031 62.8224 72.6159C62.9083 72.1288 62.8286 71.6268 62.596 71.1902C61.9968 69.7879 62.09 69.6883 63.6505 69.5444C64.46 69.4701 65.2631 69.3041 66.0663 69.1539C66.6402 69.0464 67.045 69.0148 66.6513 69.8021C66.415 70.1939 66.3327 70.6595 66.4203 71.1085C66.508 71.5575 66.7593 71.958 67.1256 72.2321C67.4664 72.5333 67.9078 72.6955 68.3625 72.6867C68.8172 72.6779 69.252 72.4988 69.5809 72.1847C69.6252 72.1345 69.6789 72.0936 69.7391 72.0644C69.7993 72.0352 69.8647 72.0183 69.9315 72.0146C69.9983 72.0109 70.0652 72.0206 70.1282 72.043C70.1913 72.0654 70.2492 72.1002 70.2987 72.1452C70.5071 72.3212 70.7677 72.4235 71.0402 72.4361C72.697 72.2627 74.3175 71.8362 75.8449 71.1713C76.7841 70.7618 76.3192 69.6187 75.8054 68.7412L77.1888 68.3223" fill="#00A159"/>
<path d="M89.4535 22.0218C88.27 24.9572 86.6356 27.69 84.6092 30.1213C81.8287 33.3855 78.4291 36.0665 74.6066 38.0094C70.7842 39.9524 66.6147 41.1189 62.339 41.4414C58.6987 41.9023 55.0201 41.9808 51.3635 41.6754C51.0331 41.6327 50.6394 41.715 50.377 41.296C52.8598 40.5926 55.1629 39.365 57.1311 37.696C57.7847 37.1744 58.5471 36.8063 59.362 36.6188C60.1769 36.4314 61.0236 36.4294 61.8394 36.613C64.1614 36.9887 66.5388 36.8244 68.7871 36.1329C71.0354 35.4415 73.0942 34.2413 74.8037 32.6257C75.3945 32.1389 75.881 31.538 76.2342 30.8588C76.5873 30.1797 76.7999 29.4363 76.8591 28.6731C76.8575 28.1596 77.0333 27.6614 77.3569 27.2627C77.6804 26.8639 78.1318 26.5892 78.6346 26.485C82.3637 25.5999 85.9135 24.0817 89.1294 21.9965C89.1721 21.968 89.259 21.9965 89.4456 22.0139" fill="#93E99B"/>
<path d="M61.233 56.1819C60.9434 55.2372 60.8698 54.2396 61.0175 53.2626C61.1653 52.2856 61.5307 51.3544 62.0868 50.5376C63.4905 48.4528 65.5488 46.8952 67.9366 46.1108C68.5452 45.8856 69.1985 45.8078 69.843 45.8836C70.4875 45.9595 71.1049 46.1868 71.6447 46.5471C72.1844 46.9073 72.6312 47.3902 72.9485 47.9563C73.2658 48.5224 73.4446 49.1556 73.4701 49.804C73.703 51.4181 73.6923 53.058 73.4385 54.6688C73.3393 55.3267 73.0331 55.9359 72.5642 56.408C71.0513 57.3551 69.8991 58.7817 69.2915 60.4601C68.8172 61.5068 68.482 62.6214 68.0868 63.706C67.3925 64.4795 66.5084 65.0586 65.5219 65.3861C64.5354 65.7135 63.4805 65.778 62.4615 65.5732C62.6059 63.1677 62.5991 60.7556 62.4409 58.351C62.4226 57.7284 62.2924 57.1142 62.0567 56.5376C61.8986 56.2214 61.7595 55.7123 61.2315 56.1756" fill="#93E99B"/>
<path d="M73.5391 64.3388C75.8962 59.5237 77.2153 54.2671 77.411 48.9096C77.3979 48.6971 77.4465 48.4853 77.5508 48.2996C77.6551 48.114 77.8108 47.9624 77.9991 47.863C78.5333 47.5436 79.0854 47.2554 79.6529 46.9998C81.6782 46.1903 83.0774 47.0962 83.0948 49.2654C83.1377 52.8099 81.9106 56.2528 79.6355 58.9713C77.8979 61.07 75.8424 62.8838 73.5438 64.3467" fill="#56C47F"/>
<path d="M49.8419 71.0752C49.427 72.7095 48.4033 74.1234 46.9802 75.0278C46.1549 75.5843 45.1952 74.9266 45.162 73.6539C45.1336 72.4491 44.6877 72.4128 43.8024 72.7827C43.6538 72.8266 43.5013 72.8557 43.347 72.8697C42.7146 72.9914 41.9051 73.344 41.6079 72.5282C41.3391 71.7724 42.1107 71.3487 42.6625 71.0436C44.5346 70.0792 46.5825 69.5037 48.683 69.3519C49.6411 69.2523 49.8656 69.8942 49.8371 71.0736" fill="#56C47F"/>
<path d="M74.3585 39.9844C74.4012 40.046 74.4913 40.1425 74.4803 40.1646C73.1166 41.828 71.2519 43.0062 69.1641 43.5236C67.0763 44.041 64.8772 43.8699 62.8945 43.0357C62.9056 42.7195 63.2993 42.8855 63.3783 42.6563C67.147 42.2904 70.8446 41.3907 74.3601 39.9844" fill="#93E89B"/>
<path d="M62.4651 65.5781C64.4902 65.5652 66.4594 64.9116 68.0903 63.7109C68.0255 64.0129 67.9718 64.3196 67.8974 64.6184C67.1955 67.5196 67.1955 67.5196 64.2896 67.8959C62.2247 68.1647 62.2247 68.1647 62.4176 66.0414C62.4319 65.8833 62.4492 65.7331 62.4651 65.5781Z" fill="#56C47F"/>
<path d="M65.2453 35.6472C64.8421 35.643 64.4519 35.5041 64.1367 35.2526C63.8216 35.001 63.5996 34.6513 63.5062 34.2591C63.3793 33.9268 63.3731 33.5606 63.4886 33.2242C63.6042 32.8879 63.8342 32.6028 64.1386 32.4188C64.7552 31.9445 65.2453 32.2243 65.5868 32.7887C65.8477 33.2109 66.0168 33.2298 66.333 32.8393C66.6239 32.4773 67.0113 32.0962 67.5093 32.5231C67.7521 32.6952 67.9179 32.9555 67.9714 33.2482C68.0249 33.541 67.9617 33.8431 67.7955 34.0899C67.5063 34.5158 67.1292 34.8748 66.6895 35.1426C66.2499 35.4104 65.758 35.5809 65.2469 35.6425" fill="#F76974"/>
<path d="M73.905 68.2266C73.9477 68.8227 75.0702 69.0298 74.3667 69.6322C73.7753 70.1349 73.1682 69.7903 72.6275 69.2638C72.3645 69.0305 72.1732 68.7272 72.076 68.3893C71.9789 68.0514 71.9799 67.6929 72.0789 67.3555C72.2512 66.584 72.9422 66.6567 73.4765 66.5381C74.113 66.3462 74.7779 66.2659 75.4417 66.301C75.758 66.3373 76.0868 66.4116 76.2164 66.731C76.3856 67.1389 76.0694 67.3871 75.8006 67.6085C75.2407 67.9927 74.5822 68.2078 73.9034 68.2282" fill="#55C37F"/>
<path d="M12.2438 100.653C12.1306 99.5717 11.6429 98.5636 10.8652 97.8035C10.0874 97.0434 9.06847 96.5789 7.98456 96.4905C5.80768 96.3014 3.62171 96.238 1.43755 96.3007C0.656521 96.258 0.441502 96.5189 0.455731 97.2873C0.50158 99.7489 0.473122 102.215 0.473122 104.669V110.993C0.473122 113.276 0.473122 113.249 2.81145 113.173C3.44386 113.151 3.61777 112.952 3.60196 112.353C3.55928 111.341 3.5909 110.323 3.5909 109.308C3.5909 107.283 3.5909 107.278 5.56717 107.268C6.82124 107.298 8.06709 107.058 9.22092 106.566C10.3106 106.055 11.1994 105.196 11.7477 104.125C12.2961 103.053 12.4728 101.83 12.2502 100.647M6.46203 104.729C3.58299 105.117 3.58299 105.117 3.58299 102.266C3.58299 101.488 3.64307 100.705 3.5656 99.9355C3.47548 99.0217 3.77746 98.6375 4.70552 98.7956C4.89914 98.8111 5.09371 98.8111 5.28733 98.7956V98.8383C5.63516 98.8383 5.98931 98.813 6.33397 98.8383C8.2312 98.9885 9.02171 99.8138 9.06281 101.624C9.12036 102.003 9.09665 102.389 8.99328 102.758C8.8899 103.127 8.70922 103.47 8.46323 103.764C8.21724 104.057 7.91158 104.295 7.56655 104.462C7.22151 104.628 6.84501 104.719 6.46203 104.729Z" fill="#3B4048"/>
<path d="M37.1384 112.483C37.0451 111.512 36.9597 110.536 36.955 109.564C36.936 105.583 36.9455 101.6 36.9455 97.6083C36.9455 95.4454 36.9455 95.4723 34.7431 95.5435C34.1107 95.564 33.9526 95.7838 33.9716 96.3672C34.008 97.3822 33.94 98.4004 33.9937 99.4122C34.0332 100.179 33.8261 100.287 33.0657 100.147C31.715 99.8368 30.2972 100.035 29.0835 100.704C27.8698 101.373 26.9454 102.466 26.487 103.774C25.6417 105.944 25.6013 108.344 26.3732 110.541C26.6138 111.333 27.0857 112.036 27.7282 112.558C28.3708 113.08 29.1547 113.399 29.9795 113.472C30.8182 113.604 31.6769 113.51 32.4672 113.2C33.2575 112.89 33.9509 112.375 34.4759 111.708C34.2498 113.883 35.6696 112.995 36.5202 113.156C37.0435 113.252 37.1905 112.987 37.1431 112.483M33.9811 106.196H33.97C33.97 107.169 34.0032 108.144 33.9589 109.115C33.9426 109.646 33.7383 110.153 33.3824 110.548C33.0265 110.942 32.5422 111.197 32.0159 111.267C31.5014 111.412 30.9513 111.364 30.4701 111.131C29.9889 110.898 29.6101 110.496 29.4056 110.002C28.9882 109.012 28.7855 107.945 28.8109 106.871C28.8362 105.797 29.089 104.74 29.5526 103.771C29.9294 103.099 30.5444 102.593 31.2763 102.353C32.0081 102.112 32.8035 102.155 33.5052 102.473C33.6693 102.527 33.8087 102.638 33.8982 102.786C33.9878 102.934 34.0216 103.109 33.9937 103.279C33.9795 104.255 33.9937 105.227 33.9937 106.201" fill="#3B4048"/>
<path d="M23.5196 112.281C23.2914 109.52 23.2328 106.747 23.3441 103.978C23.3109 100.499 23.3362 100.499 19.8485 100.095C16.1773 99.6615 13.39 101.401 12.5758 104.665C12.1703 106.261 12.1384 107.928 12.4825 109.538C12.5503 110.134 12.7372 110.71 13.0321 111.232C13.3271 111.754 13.724 112.211 14.1992 112.576C14.6745 112.942 15.2184 113.208 15.7987 113.359C16.3789 113.509 16.9835 113.542 17.5765 113.454C18.2072 113.404 18.8209 113.225 19.3805 112.93C19.9401 112.635 20.4339 112.229 20.8319 111.737C20.7212 113.57 21.8358 113.078 22.6421 113.16C23.3441 113.236 23.6239 113.045 23.5196 112.275M20.3402 109.078C20.344 109.608 20.1577 110.122 19.8151 110.526C19.4725 110.93 18.9963 111.198 18.473 111.28C17.9435 111.443 17.3724 111.4 16.8725 111.162C16.3726 110.924 15.9801 110.507 15.7726 109.994C15.3588 108.983 15.1672 107.895 15.2105 106.804C15.2539 105.713 15.5313 104.644 16.024 103.669C16.4222 103.038 17.0287 102.566 17.7385 102.335C18.4483 102.104 19.2166 102.129 19.9101 102.405C20.3402 102.574 20.3591 102.879 20.3576 103.239C20.3576 104.251 20.3576 105.262 20.3576 106.273C20.3576 107.206 20.386 108.141 20.3576 109.073" fill="#3B4048"/>
<path d="M70.3058 112.59C70.0007 109.744 70.1809 106.899 70.1588 104.053C70.1256 100.442 70.1509 100.442 66.494 100.083C65.0991 99.8094 63.6526 100.031 62.4038 100.71C61.155 101.389 60.1821 102.482 59.6529 103.801C58.8544 105.899 58.7909 108.206 59.4727 110.345C59.7182 111.239 60.2504 112.028 60.9876 112.59C61.7248 113.152 62.6262 113.456 63.5533 113.457C64.2944 113.534 65.0431 113.425 65.7314 113.139C66.4198 112.854 67.0259 112.401 67.4948 111.822C67.7493 112.454 67.4473 113.267 68.4434 113.166C69.0236 113.106 69.6117 113.155 70.1825 113.087C70.4228 113.058 70.3264 112.77 70.3074 112.589M67.1374 109.003C67.1178 109.537 66.9228 110.049 66.5825 110.461C66.2422 110.873 65.7758 111.161 65.2552 111.281C64.7346 111.401 64.189 111.347 63.7027 111.125C63.2164 110.904 62.8166 110.529 62.5651 110.057C62.1155 109.016 61.9103 107.886 61.9651 106.753C62.0199 105.62 62.3333 104.514 62.8813 103.521C63.3083 102.932 63.9201 102.503 64.6193 102.303C65.3186 102.102 66.0648 102.142 66.739 102.415C67.1738 102.598 67.1469 102.921 67.1469 103.272C67.1469 104.244 67.1469 105.218 67.1469 106.19C67.1469 107.126 67.1675 108.062 67.1469 108.995" fill="#3B4048"/>
<path d="M109.924 111.85C109.76 111.293 109.48 110.778 109.104 110.337C108.816 110.082 108.379 110.624 107.997 110.792C105.701 111.799 103.647 111.108 102.949 109.089C102.705 108.386 102.632 107.982 103.647 107.946C105.378 107.979 107.075 107.465 108.498 106.479C109.08 106.039 109.515 105.433 109.744 104.741C109.973 104.048 109.987 103.302 109.782 102.602C109.651 101.985 109.332 101.423 108.87 100.993C108.408 100.563 107.825 100.286 107.2 100.199C106.363 100 105.492 99.9889 104.65 100.166C101.587 100.798 99.717 103.415 99.7059 107.641C99.6369 108.663 99.8528 109.684 100.33 110.59C100.806 111.496 101.525 112.252 102.406 112.774C103.488 113.334 104.694 113.609 105.911 113.574C107.127 113.538 108.315 113.194 109.363 112.574C109.628 112.438 110.133 112.352 109.919 111.853M102.674 105.687C102.66 104.818 102.975 103.977 103.554 103.33C104.133 102.683 104.935 102.277 105.799 102.194C106.067 102.193 106.328 102.27 106.553 102.415C106.778 102.56 106.955 102.767 107.064 103.012C107.213 103.291 107.268 103.611 107.22 103.925C107.173 104.238 107.026 104.528 106.802 104.751C105.753 105.642 104.407 106.105 103.032 106.049C102.811 106.071 102.716 105.919 102.674 105.69" fill="#3B4048"/>
<path d="M44.1639 27.1648C44.3853 26.1893 45.1568 25.7166 45.4952 24.896C44.2989 24.5375 43.2207 23.8649 42.3726 22.9482C41.4407 21.8737 40.9633 20.4788 41.0415 19.0586C41.1197 17.6385 41.7473 16.3044 42.7916 15.3387C43.6464 14.3836 44.8402 13.7996 46.119 13.711C47.3978 13.6224 48.6606 14.0362 49.639 14.8644C50.919 15.7133 51.8349 17.0105 52.2066 18.5008C52.2908 18.7555 52.3093 19.0275 52.2604 19.2913C51.9441 20.1055 52.1022 20.5972 53.0161 20.768C53.239 20.8107 53.5173 20.9624 53.4904 21.2154C53.454 21.5948 53.0856 21.4873 52.8343 21.5237C51.6695 21.6668 50.5497 22.0612 49.5523 22.6794C48.5548 23.2977 47.7035 24.1252 47.0572 25.1047C46.7617 25.6431 46.3482 26.1077 45.8477 26.4636C45.3472 26.8195 44.7727 27.0576 44.1671 27.16" fill="#2F292B"/>
<path d="M70.2758 15.1738C71.9785 13.9438 71.3825 13.1738 70.2394 11.89C69.5549 11.047 69.1581 10.0071 69.1072 8.92233C69.0562 7.83758 69.3538 6.76502 69.9564 5.8616C70.5083 4.98385 71.2947 4.27796 72.2268 3.82368C73.1588 3.3694 74.1993 3.18484 75.2307 3.29086C79.3935 3.62762 80.0813 6.89717 79.6797 10.0703C79.5864 10.8307 79.3746 11.4015 80.3469 11.6513C80.6267 11.7224 80.9635 12.0023 80.9066 12.3248C80.8354 12.7232 80.4038 12.6015 80.1161 12.6189C77.0684 12.7433 74.0942 13.5914 71.4394 15.0932C71.2732 15.2161 71.0755 15.2896 70.8694 15.305C70.6632 15.3203 70.4568 15.2771 70.2742 15.1801" fill="#2F292B"/>
<path d="M47.4272 36.5021C45.7102 36.5021 45.1711 35.7384 45.6486 34.3503C45.8844 33.561 46.3094 32.8412 46.8866 32.2535C47.4639 31.6658 48.1759 31.228 48.9608 30.978C49.3252 30.8243 49.728 30.7862 50.1148 30.8687C50.5016 30.9513 50.8537 31.1506 51.1237 31.4396C51.3603 31.7308 51.4925 32.093 51.4991 32.4681C51.5057 32.8433 51.3863 33.2099 51.16 33.5092C50.817 34.2676 50.3005 34.9347 49.652 35.4565C49.0036 35.9784 48.2414 36.3403 47.4272 36.5131" fill="#93E99B"/>
<path d="M86.4251 14.2526C86.696 14.2251 86.9692 14.2288 87.2393 14.2636C87.5508 14.3086 87.8451 14.4345 88.0928 14.6287C88.3405 14.8228 88.533 15.0786 88.6511 15.3703C88.7135 15.6607 88.6842 15.9633 88.5673 16.2363C88.4503 16.5093 88.2514 16.7393 87.9982 16.8944C87.391 17.3859 86.6775 17.7287 85.9144 17.8956C85.1513 18.0625 84.3598 18.0488 83.6029 17.8557C83.3461 17.8228 83.1083 17.7031 82.9288 17.5165C82.7494 17.3299 82.6392 17.0875 82.6164 16.8296C82.5443 16.5467 82.557 16.2489 82.6529 15.9731C82.7487 15.6974 82.9235 15.4559 83.1555 15.2786C84.1035 14.5849 85.2556 14.2267 86.4298 14.2605" fill="#93E99B"/>
<path d="M58.4371 19.4031C58.2601 19.4314 58.0787 19.407 57.9154 19.3331C57.7521 19.2592 57.6141 19.139 57.5185 18.9873C57.3146 18.6427 57.5185 18.4134 57.7842 18.1968C57.9106 18.0925 58.2063 18.0103 57.9913 17.7731C57.0268 16.7091 58.1351 16.6395 58.6759 16.4925C59.622 16.1308 60.6578 16.0755 61.6371 16.3344C62.0071 16.464 62.3897 16.6348 62.0466 17.0474C61.1996 18.2763 59.903 19.1226 58.4371 19.4031Z" fill="#01A259"/>
<path d="M67.3803 13.8195C67.3849 14.2543 67.2749 14.6826 67.0615 15.0614C66.8481 15.4402 66.5387 15.7562 66.1645 15.9776C65.8784 16.1989 65.374 16.2653 65.1922 16.0171C64.8384 15.6205 64.3698 15.3442 63.8515 15.2266C63.3108 15.0005 63.4958 14.5057 63.8294 14.1768C64.6205 13.4849 65.604 13.0508 66.6483 12.9325C67.2143 12.8282 67.4388 13.2993 67.3803 13.8195Z" fill="#00A259"/>
<path d="M65.5217 17.2535C65.9486 17.2757 66.328 17.1745 66.4703 17.5302C66.6126 17.8859 66.241 18.0614 66.0371 18.2717C65.4066 19.0216 64.5621 19.5611 63.6166 19.818C63.2482 19.897 62.796 19.9761 62.5589 19.5602C62.4637 19.3629 62.4448 19.1374 62.5058 18.927C62.5668 18.7166 62.7034 18.5362 62.8893 18.4203C63.6363 17.791 64.5462 17.3859 65.5138 17.252" fill="#00A259"/>
<path d="M61.4294 24.1977C61.6871 24.438 62.1725 24.378 62.2199 24.8112C62.2286 24.8897 62.2213 24.9693 62.1982 25.0449C62.1752 25.1205 62.137 25.1906 62.0859 25.251C62.0349 25.3114 61.9721 25.3607 61.9013 25.396C61.8306 25.4313 61.7534 25.4518 61.6745 25.4562C61.1765 25.4847 61.0421 25.0863 61.0263 24.6657C61.012 24.3938 61.1733 24.2531 61.431 24.1914" fill="#333832"/>
<path d="M68.8681 21.6577C69.208 21.615 69.276 21.8363 69.276 22.0735C69.276 22.4181 69.2555 22.8165 68.8017 22.8403C68.6443 22.8453 68.4909 22.7897 68.3733 22.685C68.2556 22.5803 68.1826 22.4344 68.1693 22.2774C68.1361 21.8332 68.7258 21.9723 68.865 21.6577" fill="#323430"/>
<path d="M43.6501 16.7402C43.7212 19.6256 44.3852 20.5726 46.4295 20.8509C48.2366 21.0944 49.2232 20.2738 49.9299 17.9402C50.9623 19.6066 50.7868 20.3829 49.1742 21.2319C48.4288 21.5754 47.7661 22.0753 47.2311 22.6975C47.074 22.9161 46.8514 23.0788 46.5955 23.1621C46.3396 23.2455 46.0638 23.245 45.8082 23.1608C45.1914 22.946 44.6319 22.593 44.1726 22.1286C43.7133 21.6643 43.3664 21.101 43.1584 20.4819C42.9504 19.8628 42.8868 19.2043 42.9726 18.5568C43.0584 17.9094 43.2912 17.2901 43.6532 16.7466" fill="#FCFCFC"/>
<path d="M47.662 17.1558C47.232 17.1131 46.8162 16.9977 46.8304 16.5234C46.8415 16.0791 47.1893 15.8815 47.6399 15.891C48.0336 15.891 48.353 16.0491 48.3925 16.4538C48.4399 16.955 48.0368 17.0767 47.6636 17.1637" fill="#EEEEEE"/>
<path d="M78.2966 8.89929C78.0531 10.9894 77.9709 11.0574 76.0626 11.4843C75.3352 11.6137 74.6268 11.8331 73.9535 12.1372C73.5574 12.352 73.0985 12.4208 72.6569 12.3315C72.2153 12.2422 71.8191 12.0005 71.5377 11.6487C69.9424 10.1689 69.9646 6.39496 72.2112 5.5918C71.7495 7.82894 72.3899 9.56174 73.9424 10.2953C74.7149 10.6249 75.5801 10.6653 76.38 10.4093C77.1798 10.1532 77.8607 9.61777 78.2981 8.90088" fill="#FCFCFC"/>
<path d="M76.6209 5.85417C76.6236 5.95135 76.607 6.0481 76.5719 6.13878C76.5368 6.22946 76.4841 6.31224 76.4167 6.3823C76.3492 6.45236 76.2686 6.50829 76.1793 6.54682C76.09 6.58535 75.994 6.60572 75.8968 6.60673C75.8 6.61931 75.7016 6.61078 75.6084 6.58175C75.5151 6.55271 75.4293 6.50384 75.3568 6.43851C75.2842 6.37317 75.2267 6.29291 75.1881 6.20323C75.1495 6.11356 75.1307 6.01659 75.1332 5.91899C75.1302 5.82205 75.1467 5.72551 75.1818 5.63508C75.2168 5.54466 75.2697 5.4622 75.3372 5.3926C75.4048 5.323 75.4856 5.26767 75.5749 5.2299C75.6643 5.19214 75.7603 5.1727 75.8573 5.17275C75.9533 5.16132 76.0508 5.17045 76.1431 5.19951C76.2354 5.22858 76.3204 5.27693 76.3926 5.34136C76.4648 5.40579 76.5225 5.48483 76.5619 5.57323C76.6012 5.66164 76.6213 5.7574 76.6209 5.85417Z" fill="#EFEFEF"/>
</g>
</svg>
