<svg width="122" height="45" viewBox="0 0 122 45" fill="none" xmlns="http://www.w3.org/2000/svg">
<mask id="mask0_1390_8755" style="mask-type:luminance" maskUnits="userSpaceOnUse" x="0" y="0" width="122" height="45">
<path d="M121.239 0.560547H0.3125V44.2616H121.239V0.560547Z" fill="white"/>
</mask>
<g mask="url(#mask0_1390_8755)">
<path d="M121.24 44.0018C118.744 44.3808 116.197 44.2642 113.746 43.6587C112.202 43.2869 110.805 42.4615 109.734 41.2888C108.663 40.1161 107.968 38.6497 107.738 37.0785C107.502 35.8278 107.392 34.5567 107.409 33.284C107.409 24.8719 107.405 16.4604 107.396 8.04935C107.396 7.72366 107.483 7.58453 107.809 7.50864C110.271 6.92893 112.73 6.33552 115.185 5.72841C115.588 5.62722 115.624 5.76003 115.623 6.09995C115.613 8.61377 115.623 11.1276 115.608 13.6398C115.608 14.0319 115.705 14.1458 116.106 14.141C117.819 14.1205 119.531 14.141 121.245 14.141V21.0801C121.034 21.2222 120.776 21.2787 120.525 21.2382C119.151 21.2382 117.776 21.2382 116.402 21.2382C115.806 21.2382 115.76 21.2809 115.76 21.8564C115.76 25.7868 115.76 29.7178 115.76 33.6492C115.767 34.1017 115.825 34.5519 115.932 34.9915C116.056 35.65 116.408 36.2438 116.926 36.6683C117.444 37.0929 118.096 37.321 118.766 37.3125C119.37 37.3299 119.972 37.3125 120.576 37.3125C120.811 37.2788 121.05 37.3353 121.245 37.4706L121.24 44.0018Z" fill="#3C4761"/>
<path d="M99.173 0.560547C99.4576 0.645922 99.7469 0.718649 100.027 0.818253C101.038 1.16709 101.895 1.86085 102.446 2.77794C102.998 3.69503 103.209 4.77694 103.043 5.83403C102.876 6.89113 102.343 7.85596 101.537 8.55943C100.73 9.2629 99.7022 9.66012 98.6323 9.68146C97.5682 9.6959 96.5319 9.34163 95.6993 8.67879C94.8667 8.01595 94.2892 7.08539 94.0648 6.04511C93.8287 4.87244 94.0604 3.65397 94.7102 2.64969C95.36 1.64542 96.3766 0.934857 97.543 0.669637C97.6521 0.644341 97.7849 0.679124 97.8592 0.560547L99.173 0.560547Z" fill="#3C4761"/>
<path d="M76.8543 33.0045C78.761 26.8385 80.6582 20.731 82.5459 14.6125C82.6566 14.2536 82.791 14.116 83.1878 14.1192C86.0337 14.1397 88.8953 14.1303 91.7506 14.1303C91.8234 14.3058 91.719 14.4322 91.6716 14.5603C88.4663 23.2127 85.2584 31.8641 82.0479 40.5144C81.7849 41.3811 81.3009 42.1644 80.6434 42.7873C79.9858 43.4102 79.1774 43.8512 78.2977 44.0669C77.6153 44.2842 76.8963 44.363 76.183 44.2985C75.4697 44.2341 74.7764 44.0278 74.144 43.6917C73.5116 43.3556 72.9527 42.8965 72.5001 42.3413C72.0476 41.7862 71.7106 41.1462 71.5088 40.459C68.848 33.4772 66.3057 26.4512 63.7144 19.4425C63.1231 17.8441 62.5444 16.2393 61.9278 14.6504C61.7555 14.203 61.863 14.1445 62.2994 14.1477C65.0187 14.1656 67.7386 14.1656 70.459 14.1477C70.5301 14.137 70.6025 14.1406 70.6721 14.1583C70.7417 14.176 70.807 14.2074 70.8643 14.2507C70.9216 14.294 70.9697 14.3483 71.0057 14.4104C71.0417 14.4725 71.0649 14.5412 71.074 14.6125C72.9133 20.5698 74.7578 26.5249 76.6076 32.478C76.6272 32.6772 76.7136 32.8638 76.8527 33.0077" fill="#3C4761"/>
<path d="M0.313008 21.227C0.313008 16.836 0.313008 12.4449 0.313008 8.05392C0.313008 7.69503 0.390478 7.54958 0.776247 7.46104C3.22683 6.9061 5.67741 6.31796 8.11061 5.72192C8.48215 5.6318 8.56752 5.72192 8.56594 6.08555C8.55329 8.56617 8.56594 11.0468 8.54855 13.5258C8.54855 13.9907 8.62918 14.1582 9.13827 14.1393C10.6655 14.0998 12.1944 14.1393 13.7232 14.1171C14.0758 14.1171 14.1722 14.2104 14.1691 14.5614C14.1522 16.5883 14.1522 18.6162 14.1691 20.6452C14.1691 20.9962 14.079 21.0958 13.7248 21.0926C12.1628 21.0736 10.6007 21.0926 9.04025 21.0768C8.68294 21.0768 8.55013 21.14 8.55329 21.5353C8.5691 25.5906 8.56278 29.6459 8.56594 33.7092C8.55849 34.0263 8.577 34.3436 8.62128 34.6578C8.65262 35.062 8.76345 35.456 8.94743 35.8173C9.1314 36.1786 9.38489 36.4999 9.69336 36.763C10.0018 37.0261 10.3592 37.2257 10.745 37.3503C11.1307 37.475 11.5373 37.5222 11.9414 37.4894C12.5454 37.4989 13.1509 37.5036 13.7549 37.4894C14.0473 37.4815 14.1722 37.5479 14.1691 37.8736C14.1564 39.7835 14.1691 41.6949 14.1691 43.6048C14.1691 43.8119 14.1865 43.9842 13.8798 44.0127C11.4945 44.3208 9.07303 44.1928 6.73354 43.6348C5.14411 43.2617 3.70707 42.4108 2.61574 41.1965C1.52441 39.9822 0.831147 38.4628 0.629212 36.8427C0.410048 35.6214 0.304197 34.3824 0.313008 33.1416C0.313008 29.17 0.313008 25.1985 0.313008 21.227Z" fill="#3C4761"/>
<path d="M18.0401 34.2177C18.0401 31.5537 18.029 28.8897 18.0401 26.2257C18.0127 23.2993 19.0076 20.4551 20.8532 18.1838C22.6987 15.9126 25.2791 14.3567 28.1492 13.7846C29.5409 13.5578 30.9521 13.473 32.361 13.5317C32.7278 13.5317 32.6582 13.753 32.6582 13.9601C32.6582 15.9543 32.6582 17.9485 32.6582 19.9427C32.6582 20.3949 32.6361 20.8486 32.6582 21.2992C32.6772 21.6154 32.5729 21.6976 32.2646 21.6882C31.1543 21.6157 30.0436 21.8234 29.0345 22.2921C28.2623 22.6703 27.6039 23.2462 27.1262 23.9612C26.6486 24.6763 26.3688 25.505 26.3152 26.3632C26.2602 26.8799 26.2365 27.3994 26.244 27.919C26.244 32.9961 26.2472 38.0733 26.2535 43.1505C26.2535 43.6248 26.1128 43.7181 25.6685 43.7134C23.267 43.6912 20.867 43.696 18.4654 43.7134C18.1144 43.7134 18.018 43.6264 18.0196 43.2723C18.0338 40.2573 18.0275 37.2407 18.0275 34.2241" fill="#3C4761"/>
<path d="M94.4384 28.9237C94.4384 24.1807 94.4384 19.4376 94.429 14.6945C94.429 14.2629 94.5017 14.1032 94.9871 14.1096C97.4044 14.138 99.8202 14.1285 102.238 14.1096C102.581 14.1096 102.69 14.1902 102.69 14.5491C102.68 24.1143 102.68 33.6794 102.69 43.2446C102.69 43.6509 102.549 43.7 102.2 43.6968C99.7823 43.6826 97.3649 43.6794 94.9491 43.6968C94.5333 43.6968 94.4242 43.6035 94.4258 43.1798C94.4432 38.4225 94.4369 33.6652 94.4369 28.9079" fill="#3C4761"/>
<path d="M59.6211 19.5297C58.509 17.9544 57.0878 16.6221 55.4441 15.6139C53.8004 14.6056 51.9687 13.9426 50.0604 13.6653C48.1522 13.3879 46.2075 13.502 44.3448 14.0006C42.4821 14.4992 40.7404 15.3718 39.2259 16.5653C36.8262 18.3458 35.0101 20.7996 34.0085 23.6148C33.0068 26.43 32.8649 29.4794 33.6006 32.3755C35.0741 39.7099 41.7761 44.6348 47.9626 44.1826C48.6331 44.222 49.3054 44.2178 49.9753 44.1699C52.0611 43.8876 54.0542 43.1304 55.8013 41.9565C57.5548 40.7593 59.0491 39.2212 60.1952 37.434C61.3413 35.6468 62.1157 33.647 62.4722 31.554C62.8287 29.461 62.7599 27.3176 62.2701 25.2518C61.7803 23.1859 60.8793 21.2398 59.6211 19.5297ZM49.3223 35.3557C47.7476 35.6947 46.1029 35.4184 44.7253 34.5835C43.3478 33.7486 42.3418 32.4185 41.9136 30.8656C41.6392 29.9834 41.5531 29.0533 41.661 28.1356C41.7689 27.218 42.0683 26.3332 42.5399 25.5386C43.0115 24.7441 43.6447 24.0574 44.3985 23.5232C45.1524 22.9889 46.0101 22.6189 46.916 22.4372C48.4745 22.1974 50.0664 22.5465 51.3816 23.4163C52.6969 24.2861 53.6412 25.6143 54.0306 27.1423C54.1857 27.69 54.2624 28.2569 54.2583 28.8261C54.2933 30.3119 53.8246 31.7657 52.9284 32.9513C52.0322 34.1368 50.7613 34.9843 49.3223 35.3557Z" fill="#3C4761"/>
</g>
</svg>
