<svg width="112" height="45" viewBox="0 0 112 45" fill="none" xmlns="http://www.w3.org/2000/svg">
<mask id="mask0_1390_8684" style="mask-type:luminance" maskUnits="userSpaceOnUse" x="0" y="0" width="156" height="45">
<path d="M155.003 0.201172H0.595703V44.0129H155.003V0.201172Z" fill="white"/>
</mask>
<g mask="url(#mask0_1390_8684)">
<path d="M2.97716 9.79046C6.19298 9.05986 9.48176 8.69916 12.7795 8.71537C16.1471 8.71537 18.0301 9.7288 18.6735 11.841C19.0002 13.2052 18.9131 14.6357 18.4234 15.9501C17.9337 17.2645 17.0637 18.4033 15.9241 19.2213C14.2483 20.1446 14.2451 21.0663 14.9044 22.5066C15.4799 23.7714 15.8894 25.0963 16.4348 26.3691C17.0672 27.8362 17.7486 29.305 19.7913 28.0481C20.3004 27.7319 20.5059 28.1256 20.7273 28.4402C21.0135 28.8465 20.8174 29.1185 20.5059 29.4552C17.5842 32.6173 13.5242 31.9263 11.9447 27.9991C11.2716 26.1312 10.7374 24.2161 10.3463 22.2695C10.2198 21.7446 10.2151 21.1944 9.45302 21.1928C8.69097 21.1912 8.42378 21.5659 8.29414 22.2679C7.86094 24.611 7.36291 26.943 6.89177 29.2781C6.62142 30.6236 3.14791 31.9659 2.0491 31.1295C1.42776 30.6552 1.85305 29.9959 1.96372 29.4742C2.89495 25.0679 3.94949 20.6869 4.82221 16.2711C5.26174 14.0576 6.12655 11.6324 2.97874 9.78888" fill="#373737"/>
<path d="M65.6559 22.5167C65.6686 22.659 65.6939 23.1902 65.7635 23.7151C65.9959 25.4621 66.301 27.2249 68.2251 27.957C69.0934 28.2285 70.0198 28.2557 70.9025 28.0353C71.7853 27.815 72.5902 27.3557 73.229 26.7079C73.8488 26.2194 74.2441 25.7435 74.9998 26.5862C75.7903 27.4716 74.9018 27.7593 74.5413 28.1483C73.6021 29.1989 72.4512 30.0389 71.1642 30.6131C65.931 32.8455 61.4157 30.4913 60.6568 24.8929C59.8805 19.1681 61.3239 14.055 66.1508 10.3697C67.3517 9.43393 68.7922 8.85582 70.3068 8.70173C71.8215 8.54764 73.3488 8.8238 74.7136 9.49852C75.7153 9.90802 76.5228 10.6845 76.9713 11.6693C77.2928 12.3338 77.4028 13.081 77.2867 13.81C77.1705 14.5391 76.8336 15.215 76.3215 15.7467C75.8093 16.3285 72.9318 15.4637 72.2599 14.6621C71.7081 14.0044 72.1492 13.3784 72.331 12.7918C72.8575 11.0969 71.8567 10.795 70.5603 10.8756C69.8934 10.9687 69.2641 11.2407 68.7394 11.6627C68.2147 12.0847 67.814 12.641 67.5801 13.2724C66.1951 16.1511 65.5346 19.3245 65.6559 22.5167Z" fill="#373737"/>
<path d="M77.1937 25.3927C77.176 23.1539 77.8912 20.9707 79.23 19.1761C79.6025 18.5739 80.1236 18.0776 80.7432 17.7348C81.3629 17.392 82.0603 17.2143 82.7684 17.2188C85.0703 17.5888 87.3881 17.1777 89.6711 17.6931C90.8363 17.954 91.026 18.3256 90.7051 19.4323C89.8719 22.0224 89.399 24.7148 89.2996 27.4338C89.2901 28.3919 89.3517 29.1176 90.577 28.3951C90.6545 28.3313 90.7452 28.2855 90.8426 28.261C90.9399 28.2365 91.0415 28.2339 91.1399 28.2534C91.2384 28.2729 91.3313 28.314 91.4119 28.3738C91.4926 28.4336 91.559 28.5105 91.6063 28.599C91.9825 29.1619 91.5162 29.4148 91.1778 29.731C90.3923 30.6029 89.2984 31.135 88.1275 31.2147C86.9566 31.2944 85.8007 30.9154 84.9043 30.1579C84.4695 29.8417 84.3431 30.1389 84.1043 30.2575C79.5842 32.4804 77.1478 30.9405 77.1968 25.3927" fill="#373737"/>
<path d="M108.699 25.4171C108.714 23.0063 109.563 20.675 111.102 18.8195C111.472 18.2961 111.968 17.8747 112.544 17.5947C113.12 17.3147 113.757 17.185 114.397 17.2179C116.642 17.708 118.897 17.0851 121.118 17.6495C122.301 17.9499 122.663 18.2977 122.225 19.5088C121.483 21.9865 121.02 24.5393 120.845 27.1198C120.747 27.9103 120.411 29.3333 122.165 28.3688C122.582 28.1412 122.932 28.1665 123.145 28.6344C123.343 29.0676 123.113 29.357 122.821 29.6763C122.037 30.5498 120.951 31.0931 119.781 31.1967C118.612 31.3003 117.448 30.9564 116.522 30.2344C116.019 29.8265 115.89 30.1554 115.573 30.3261C111.412 32.6044 108.679 30.8858 108.701 25.425" fill="#373737"/>
<path d="M99.5979 18.9707C100.54 18.3312 101.554 17.8068 102.621 17.4087C105.188 16.6181 106.954 17.9841 106.558 20.6229C106.241 22.7114 105.653 24.7588 105.293 26.8426C105.135 27.6995 104.376 29.3817 106.591 28.2892C106.972 28.1011 107.223 28.3098 107.395 28.6276C107.485 28.7696 107.514 28.9408 107.479 29.1046C107.443 29.2684 107.344 29.4116 107.204 29.5035C106.558 30.137 105.788 30.6304 104.943 30.953C104.097 31.2756 103.194 31.4205 102.29 31.3786C100.758 31.2031 100.426 30.0157 100.513 28.7209C100.753 26.6169 101.14 24.5322 101.671 22.4822C101.829 21.7501 102.461 20.5501 101.296 20.2861C101.02 20.2163 100.732 20.2074 100.451 20.2601C100.171 20.3128 99.9063 20.4258 99.6743 20.5913C99.4423 20.7568 99.2492 20.9707 99.1082 21.2184C98.9672 21.466 98.8818 21.7413 98.858 22.0252C98.2651 24.5438 97.8319 27.0845 97.3908 29.6268C96.9497 32.1691 94.8422 30.9106 93.5299 31.0497C91.843 31.2236 92.8722 29.796 92.9512 29.2047C93.22 27.1762 93.6817 25.1715 94.1023 23.1636C94.4311 21.5984 94.8675 20.0442 93.6754 18.6213C93.2627 18.128 93.3924 17.728 94.0311 17.6727C95.4951 17.5336 96.9655 17.4181 98.4342 17.3786C99.4587 17.3502 99.1552 18.4442 99.6026 18.9818" fill="#373737"/>
<path d="M34.9316 18.036C38.462 16.7585 40.6486 17.1016 41.2557 19.1063C42.2437 18.3051 43.3784 17.7042 44.5964 17.3372C46.8193 16.7269 48.3671 17.8399 48.2549 20.1229C48.1279 21.3084 47.9198 22.4837 47.632 23.6407C47.3964 24.8786 47.1055 26.1071 46.9284 27.3529C46.8114 28.1751 46.7245 29.1632 48.1094 28.379C48.5142 28.1498 48.832 28.134 49.0944 28.6035C49.3569 29.0731 49.1418 29.3403 48.8035 29.6122C47.6025 30.6981 46.0646 31.3379 44.4478 31.4241C42.7087 31.443 42.032 30.2842 42.2107 28.7838C42.4446 26.817 43.0391 24.8897 43.2589 22.9229C43.3553 22.0565 44.5047 20.6383 42.832 20.2874C41.5371 20.017 40.6976 20.9498 40.481 22.4091C40.1316 24.768 39.5941 27.1 39.1292 29.4415C39.0091 30.0502 39.2115 30.8644 38.2154 30.9482C37.0454 31.2258 35.8266 31.2258 34.6565 30.9482C34.1269 30.7363 34.4652 29.9632 34.5474 29.4842C34.8968 27.4573 35.2526 25.4273 35.7395 23.4288C36.2138 21.5111 36.53 19.6629 34.938 18.0423" fill="#373737"/>
<path d="M21.2446 25.6037C21.1536 23.5882 21.8152 21.6109 23.1009 20.0561C24.3865 18.5013 26.2044 17.4801 28.2011 17.1911C29.2085 16.931 30.2749 17.0297 31.2175 17.4702C32.16 17.9107 32.9197 18.6656 33.3663 19.6053C33.6054 20.6167 33.4768 21.6801 33.0035 22.6054C32.5302 23.5306 31.743 24.2572 30.7829 24.6551C29.7895 25.2068 28.7258 25.6211 27.6209 25.8867C27.0027 26.0227 25.9165 25.6811 26.0399 26.8353C26.0393 27.3746 26.2341 27.8959 26.588 28.3028C26.942 28.7096 27.4313 28.9746 27.9655 29.0487C29.0442 29.1503 30.1203 28.8314 30.9695 28.1586C31.4438 27.8424 31.79 27.4709 32.2833 28.1302C32.8398 28.8716 32.1252 29.0203 31.7663 29.3207C30.7514 30.1931 29.5511 30.823 28.2565 31.1626C23.9877 32.2788 21.2509 30.1175 21.2446 25.5926" fill="#373737"/>
<path d="M58.5397 19.3208C57.384 19.0853 56.8164 19.49 56.6536 20.7042C56.3626 22.8671 55.9121 25.0078 55.5579 27.1627C55.365 28.3437 55.4962 29.256 57.0725 28.505C57.5579 28.2742 58.0132 27.8963 58.3863 28.6631C58.7025 29.3097 58.1365 29.4868 57.8045 29.7303C57.2768 30.1353 56.7051 30.4796 56.1002 30.7564C54.6773 31.3635 53.1674 31.9911 51.7239 30.9145C50.2804 29.8378 50.6884 28.3184 50.9682 26.8829C51.3729 24.8022 51.8093 22.7295 52.233 20.6536C52.3721 19.9801 52.5919 19.275 51.4283 19.4742C50.7959 19.5833 50.6046 19.2639 50.6267 18.6837C50.6472 18.1446 50.5888 17.4647 51.3524 17.5485C53.2338 17.7556 52.8986 16.4718 53.0251 15.3809C53.1168 14.5904 52.4638 13.4679 53.5263 13.09C54.7401 12.7264 55.9935 12.5109 57.2591 12.4481C57.7192 12.4023 57.8567 12.9224 57.8188 13.3414C57.7668 14.1983 57.6718 15.0521 57.5342 15.8995C57.3271 16.9762 57.3539 17.7098 58.8195 17.5548C59.3239 17.5011 60.3389 17.0616 60.252 18.2695C60.1761 19.3303 59.452 19.5343 58.5334 19.3193" fill="#383838"/>
<path d="M101.705 41.6164C100.073 42.2267 100.092 40.9176 99.7077 40.0986C99.4974 39.6512 99.5164 38.965 98.7591 39.052C97.9686 39.1437 98.2595 39.833 98.1172 40.2899C97.9417 40.8559 98.1741 41.8931 97.2113 41.7318C96.0461 41.5374 96.7876 40.5919 96.854 39.9927C96.9536 39.0789 97.1844 38.1777 97.3488 37.2702C97.8073 34.7121 98.1125 34.4971 100.731 34.9176C102.402 35.1864 103.237 36.6741 102.04 37.7065C100.44 39.0852 101.091 40.2694 101.712 41.6212" fill="#E4300C"/>
<path d="M23.9231 39.7636C23.9515 37.8664 25.2922 36.2711 26.9476 36.5731C28.1302 36.7897 28.078 36.2569 28.2408 35.5439C28.3594 35.03 28.1555 34.1462 29.1056 34.2791C30.1475 34.4372 29.5294 35.1961 29.4551 35.6893C29.2669 36.9352 29.0155 38.17 28.78 39.4079C28.3642 41.6071 27.727 42.0846 25.4993 41.8838C24.4227 41.7873 23.9025 41.0838 23.9183 39.7541" fill="#E42F0B"/>
<path d="M52.7833 41.8591C51.343 41.2867 51.7382 42.5168 51.5722 43.1381C51.4457 43.6124 51.3809 44.0867 50.7311 44.0014C50.0086 43.9049 50.1872 43.3531 50.2568 42.9263C50.5098 41.4939 50.7848 40.0651 51.0821 38.6401C51.3034 37.5808 51.2038 36.5848 53.0694 36.6559C54.5682 36.7144 55.7445 36.3397 55.89 38.2686C55.9491 38.7139 55.913 39.1667 55.784 39.597C55.6551 40.0273 55.4362 40.4254 55.1419 40.7648C54.8476 41.1042 54.4846 41.3773 54.0769 41.5659C53.6692 41.7546 53.2261 41.8545 52.7769 41.8591" fill="#E4310E"/>
<path d="M43.8164 41.6179C44.8488 39.6226 45.8717 37.6922 46.8441 35.7412C47.1033 35.2258 47.3705 34.8479 48.0235 34.8701C48.7761 34.8969 48.8377 35.4535 48.9263 35.9768C49.2093 37.61 49.4701 39.2479 49.7357 40.8779C49.799 41.2716 49.8938 41.6922 49.301 41.7791C48.8267 41.8487 48.5105 41.6716 48.4599 41.1799C48.3713 40.3736 48.1437 39.855 47.1128 39.8692C46.7523 39.8224 46.387 39.9071 46.0838 40.1077C45.7807 40.3084 45.56 40.6116 45.4622 40.9617C45.2362 41.6289 44.8298 41.9625 43.8164 41.6179Z" fill="#E4300C"/>
<path d="M3.69784 41.9163C3.23125 41.9565 2.76194 41.881 2.33153 41.6964C1.90112 41.5118 1.52292 41.2238 1.23048 40.858C0.938033 40.4923 0.740381 40.0599 0.655055 39.5995C0.569728 39.139 0.599364 38.6646 0.741334 38.2183C1.47335 36.0175 3.15081 34.5234 4.80298 34.6973C5.43539 34.7637 6.39665 34.876 6.27965 35.6776C6.14052 36.6262 5.40377 35.9748 4.86938 35.8625C4.40292 35.7863 3.9244 35.8698 3.51124 36.0993C3.09808 36.3288 2.77445 36.6911 2.59271 37.1274C2.28335 37.5632 2.1007 38.0762 2.06498 38.6095C2.02926 39.1427 2.14187 39.6755 2.39034 40.1487C2.84884 40.9708 3.77057 40.7811 4.56266 40.525C4.92946 40.4032 5.33262 40.0791 5.54448 40.6641C5.72946 41.1748 5.24566 41.3582 4.91997 41.51C4.52298 41.6775 4.11391 41.8149 3.69626 41.921" fill="#E53614"/>
<path d="M72.3942 37.0134C72.5901 36.7341 72.8833 36.5382 73.2162 36.4642C73.5492 36.3902 73.8977 36.4434 74.1934 36.6134C74.4836 36.794 74.8178 36.8915 75.1595 36.8954C75.5013 36.8993 75.8376 36.8094 76.1318 36.6355C77.4788 36.1422 78.1871 36.7936 78.048 38.2165C77.9563 39.1351 77.7634 40.0442 77.648 40.9612C77.58 41.5051 77.3634 41.856 76.7642 41.7517C76.195 41.6521 76.3089 41.1857 76.361 40.8157C76.4543 40.1628 76.5966 39.5161 76.7199 38.8663C76.8211 38.3288 76.927 37.6742 76.2456 37.5636C75.9437 37.5182 75.6359 37.5917 75.387 37.7686C75.1382 37.9456 74.9676 38.2121 74.9112 38.5122C74.8715 39.0374 74.7901 39.5587 74.6678 40.0711C74.4116 40.6608 74.8021 41.875 73.7318 41.7216C72.6077 41.5635 73.433 40.5722 73.4045 39.9636C73.4265 39.4354 73.4942 38.9101 73.6069 38.3936C73.6828 37.8197 73.3539 37.5462 72.8433 37.4165C72.3958 37.6094 72.3373 37.3817 72.4037 37.0181" fill="#E42E0A"/>
<path d="M57.2817 37.6343C57.5629 37.1239 58.0237 36.7362 58.5747 36.5463C59.1257 36.3564 59.7275 36.3779 60.2635 36.6066C61.3449 36.9118 61.2232 37.8888 61.1267 38.76C61.1226 39.0907 61.065 39.4185 60.956 39.7307C60.6508 40.3631 60.9354 41.6817 60.303 41.6042C59.2326 41.473 58.2919 42.1782 57.2754 41.8066C56.2588 41.4351 56.1244 40.2414 57.024 39.4035C57.2991 39.1473 57.7512 39.0873 58.0453 38.8438C58.5829 38.3995 59.9568 38.8659 59.7686 38.0011C59.4888 36.7126 58.3315 37.9315 57.2817 37.6343Z" fill="#E43512"/>
<path d="M32.9828 41.6084C32.5448 41.2922 32.2523 41.7459 31.8871 41.8139C31.0334 41.972 30.2223 41.9847 29.9061 41.0123C29.6136 40.1143 30.1891 39.5246 30.8816 39.0582C31.0397 38.9507 31.3021 38.9807 31.4413 38.8621C31.9757 38.41 33.3069 38.8985 33.1804 38.01C33.0334 36.9633 32.05 37.5784 31.378 37.7444C31.29 37.7495 31.2021 37.733 31.1219 37.6963C31.0417 37.6597 30.9717 37.604 30.918 37.5341C30.7599 37.2574 30.9353 37.0455 31.193 36.9112C31.5896 36.6597 32.041 36.5075 32.5089 36.4676C32.9768 36.4277 33.4474 36.5012 33.8808 36.6819C34.7045 37.0661 34.6365 37.8629 34.548 38.5886C34.4594 39.3143 34.2318 40.0115 34.1717 40.7325C34.099 41.523 33.9551 42.0748 32.9843 41.61" fill="#E43411"/>
<path d="M86.5498 36.9038C87.3545 36.8279 88.4565 35.854 89.1632 36.9038C89.9079 38.0105 89.3213 39.3528 89.1189 40.5718C89.0336 41.0651 89.1284 41.9773 88.1798 41.7449C87.1933 41.5014 87.9363 40.7805 87.9332 40.2793C87.9332 39.8192 88.0628 39.3607 88.0913 38.8991C88.1197 38.4042 88.4075 37.7086 87.677 37.56C87.5112 37.5296 87.3409 37.5333 87.1765 37.5709C87.0121 37.6084 86.857 37.6791 86.7208 37.7785C86.5846 37.8779 86.47 38.0039 86.3841 38.149C86.2981 38.2941 86.2426 38.4552 86.2209 38.6224C86.0291 39.3935 85.8771 40.174 85.7656 40.9607C85.6865 41.4904 85.4984 41.8888 84.8913 41.7512C84.1735 41.5931 84.515 41.0303 84.5751 40.6303C84.6984 39.7133 84.8549 38.7979 85.032 37.8904C85.1774 37.1426 85.1616 36.126 86.5593 36.8991" fill="#E4310E"/>
<path d="M7.46208 37.43C7.81192 36.9792 8.30132 36.6571 8.85373 36.514C9.40613 36.371 9.99037 36.4151 10.515 36.6395C11.598 37.049 11.4383 38.045 11.2518 39.0205C10.7775 41.5406 10.8044 41.5501 8.38539 41.8663C7.66445 41.9596 6.99093 41.8806 6.71584 41.1327C6.58567 40.8202 6.57012 40.4718 6.67196 40.1489C6.77379 39.8261 6.98644 39.5496 7.27235 39.3683C7.78888 39.0726 8.33327 38.8285 8.89765 38.6395C9.31978 38.4671 10.1625 38.7422 9.9759 37.9169C9.8178 37.2418 9.14744 37.4015 8.62729 37.577C8.44878 37.6978 8.23275 37.7502 8.01875 37.7246C7.80476 37.6991 7.60714 37.5973 7.46208 37.4379" fill="#E4310E"/>
<path d="M18.8277 37.6032C19.2071 37.103 19.7398 36.7407 20.3443 36.5714C20.9489 36.4021 21.5923 36.4352 22.1763 36.6657C23.2925 37.1273 22.9336 38.2024 22.8372 39.1052C22.8324 39.3694 22.7865 39.6313 22.7012 39.8815C22.4308 40.4759 22.5099 41.7329 22.2269 41.6396C21.068 41.2649 20.0435 42.2135 18.9716 41.7724C18.004 41.374 17.955 40.0997 18.9067 39.336C19.2546 39.0578 19.7779 38.9961 20.1383 38.7289C20.5953 38.389 21.8332 38.9582 21.5233 37.8736C21.2767 37.0119 20.4261 37.5447 19.8111 37.7281C19.4805 37.7282 19.1511 37.6867 18.8308 37.6048" fill="#E42F0B"/>
<path d="M105.332 40.9027C106.083 40.8078 106.657 40.2797 106.742 41.1193C106.788 41.5746 106.268 41.6837 105.886 41.7801C105.386 41.9895 104.829 42.0136 104.313 41.8481C103.798 41.6825 103.358 41.3383 103.074 40.8774C102.774 40.316 102.675 39.6687 102.792 39.043C102.91 38.4173 103.239 37.8506 103.723 37.4371C104.047 37.0024 104.507 36.6886 105.03 36.5454C105.553 36.4022 106.109 36.4378 106.61 36.6466C107.479 36.9991 107.607 37.7975 107.539 38.6497C107.455 39.69 106.673 39.4244 106.048 39.4655C105.915 39.4501 105.781 39.4501 105.648 39.4655C105.112 39.641 104.097 38.9912 104.113 40.0473C104.126 40.8268 104.992 40.89 105.331 40.8979" fill="#E43310"/>
<path d="M81.9361 40.863C82.3519 40.7049 82.8009 40.3887 82.9306 41.0354C83.0349 41.5492 82.5385 41.6678 82.1669 41.7595C81.0602 42.0456 79.9298 42.0757 79.3416 40.9452C79.0392 40.3857 78.9287 39.7424 79.0273 39.114C79.1258 38.4857 79.4279 37.907 79.8871 37.467C80.2333 37.0064 80.728 36.6795 81.2874 36.5415C81.8468 36.4035 82.4368 36.4629 82.9575 36.7097C83.8302 37.1318 83.7938 37.9935 83.6942 38.7998C83.582 39.7152 82.8294 39.399 82.2855 39.467C82.1543 39.4828 82.0057 39.4322 81.8871 39.4749C81.3654 39.6615 80.3203 38.9658 80.4025 40.1073C80.461 40.8978 81.2768 40.9705 81.9345 40.8599" fill="#E4320F"/>
<path d="M40.5245 37.4171C40.1008 37.3491 39.666 37.3792 39.4952 37.8155C39.2881 38.342 39.7814 38.4906 40.1276 38.6171C41.2027 39.0108 41.9917 39.6116 41.3087 40.8179C40.5941 42.0827 39.3735 42.0827 38.1324 41.6874C37.8573 41.5973 37.4194 41.4677 37.5 41.0803C37.5138 40.9797 37.5516 40.8839 37.6102 40.801C37.6688 40.7181 37.7465 40.6506 37.8368 40.604C37.927 40.5575 38.0272 40.5334 38.1287 40.5338C38.2303 40.5341 38.3302 40.5589 38.4201 40.606C39.0525 40.8938 39.8288 41.2637 40.134 40.4337C40.4059 39.6985 39.4494 39.6321 38.9782 39.3491C38.0201 38.7721 37.8557 38.0116 38.5782 37.21C38.939 36.8047 39.4304 36.5384 39.967 36.4576C40.5036 36.3767 41.0516 36.4863 41.5158 36.7673C41.587 36.826 41.6418 36.9021 41.6748 36.9883C41.7078 37.0745 41.7178 37.1678 41.7039 37.259C41.4193 37.912 40.9435 37.5215 40.5245 37.4171Z" fill="#E43310"/>
<path d="M65.9415 36.6383C66.3304 36.5814 66.9312 36.6604 67.0735 36.4454C67.7343 35.4399 67.8118 34.4375 68.9565 36.4027C69.5968 37.5094 69.6474 37.1616 68.683 37.6059C67.6332 38.0897 67.679 40.1529 68.6909 40.8881C69.3154 41.3418 69.1652 41.5821 68.5881 41.8051C68.3413 41.912 68.0721 41.9569 67.804 41.936C67.5359 41.9151 67.2769 41.8288 67.0497 41.6849C66.4173 41.2659 66.4395 40.6367 66.4837 39.93C66.5391 39.0383 67.6521 37.8588 65.9415 37.3102C65.8867 37.2729 65.8418 37.2229 65.8109 37.1643C65.7799 37.1057 65.7637 37.0405 65.7637 36.9742C65.7637 36.908 65.7799 36.8427 65.8109 36.7842C65.8418 36.7256 65.8867 36.6755 65.9415 36.6383Z" fill="#E53815"/>
<path d="M94.1017 37.0453C91.9325 38.0477 91.787 38.8034 93.1957 41.0185C93.3333 41.2351 93.4345 41.5528 93.1278 41.692C92.4242 42.0082 91.6132 42.1299 91.1199 41.458C90.1396 40.1204 91.8756 38.4382 90.6582 37.077C91.2233 36.5765 91.7146 35.9984 92.1175 35.36C92.3357 35.0264 93.0092 35.1291 92.8701 35.6904C92.5997 36.7734 93.7206 36.4224 94.1017 37.0453Z" fill="#E4300C"/>
<path d="M65.9365 36.6447C65.9365 36.8681 65.9365 37.0921 65.9365 37.3166C64.1199 37.6028 63.7135 38.9324 63.5191 40.4549C63.4416 41.0605 63.5191 42.0059 62.4977 41.7356C61.5412 41.4842 62.4519 40.7458 62.3175 40.2415C62.2701 40.0644 62.3839 39.851 62.3792 39.6565C62.3175 37.2059 63.6092 36.3285 65.938 36.6526" fill="#E53513"/>
<path d="M14.7662 37.0117C15.0191 36.6905 15.3891 36.483 15.795 36.4346C16.2009 36.3863 16.6094 36.5012 16.9306 36.754C17.1872 36.971 17.3668 37.265 17.4429 37.5923C17.519 37.9196 17.4873 38.2627 17.3527 38.5706C17.1946 39.2125 17.1456 39.886 16.9575 40.5184C16.8089 41.0196 17.0017 41.9208 16.0563 41.7611C15.0097 41.584 15.7116 40.8125 15.7401 40.3382C15.7765 39.614 15.9757 38.8994 16.0278 38.1753C16.0626 37.6915 15.6547 37.5239 15.2373 37.4291C14.7757 37.6314 14.7061 37.3975 14.763 37.0164" fill="#E53A18"/>
<path d="M110.68 37.0178C110.805 36.8586 110.96 36.7256 111.137 36.6265C111.313 36.5274 111.508 36.4641 111.709 36.4403C111.91 36.4166 112.114 36.4327 112.309 36.4878C112.504 36.543 112.686 36.6361 112.844 36.7617C113.097 36.9832 113.272 37.2793 113.345 37.607C113.417 37.9348 113.384 38.2772 113.249 38.5846C113.056 39.3562 112.909 40.1404 112.775 40.9245C112.693 41.4162 112.617 41.8731 111.949 41.7735C111.159 41.6613 111.504 41.0953 111.556 40.6969C111.641 40.0407 111.804 39.3941 111.923 38.7411C112.041 38.0882 111.948 37.538 111.132 37.4178C110.678 37.6202 110.614 37.3894 110.677 37.0163" fill="#E43411"/>
<path d="M14.7618 37.0085L15.2361 37.4211C13.9349 37.9444 14.014 39.1349 13.7832 40.2195C13.6583 40.8092 13.9887 42.0045 12.8061 41.7326C11.7658 41.4922 12.4788 40.5594 12.5294 39.9365C12.5832 39.2836 12.8045 38.6432 12.8583 37.9903C12.9721 36.6164 13.6393 36.4014 14.7665 37.0085" fill="#E63D1B"/>
<path d="M72.3965 37.0145L72.836 37.4129C71.5111 38.069 71.7514 39.4081 71.4131 40.5085C71.266 40.9939 71.4716 41.903 70.5214 41.7654C69.4352 41.6073 70.1483 40.8563 70.1909 40.3725C70.2652 39.5172 70.4566 38.6729 70.5419 37.8192C70.6795 36.4263 71.3735 36.3773 72.3917 37.0145" fill="#E53613"/>
<path d="M110.679 37.0189L111.135 37.4205C109.87 37.9628 109.902 39.1011 109.729 40.2126C109.639 40.7912 109.887 41.9517 108.736 41.7367C107.753 41.5549 108.37 40.6663 108.404 40.1066C108.45 39.3936 108.72 38.6932 108.774 37.9786C108.89 36.581 109.582 36.4371 110.679 37.0189Z" fill="#E53917"/>
<path d="M36.0711 37.5828C36.3478 36.7038 37.3534 36.2659 36.5787 35.3694C36.2387 34.9789 36.7368 34.4319 37.2111 34.3892C37.8751 34.3307 38.1723 34.8635 38.0395 35.439C37.9684 35.9542 37.7412 36.4352 37.3884 36.8174C37.0356 37.1995 36.5743 37.4645 36.0664 37.5765" fill="#E64222"/>
<path d="M13.8895 13.6185C13.8057 16.2778 12.5567 18.4659 10.8555 18.9702C9.76301 19.2864 8.84285 19.405 9.32823 17.6865C9.79463 16.0359 10.0239 14.3205 10.4128 12.6462C10.6073 11.8066 10.4855 10.6762 11.91 10.7221C13.2934 10.7663 13.7235 11.639 13.8452 12.8043C13.88 13.1331 13.88 13.4651 13.8879 13.6201" fill="#FCFCFC"/>
<path d="M81.8337 25.9382C81.8168 24.0537 82.2016 22.1873 82.9626 20.4632C83.4748 19.5288 84.0899 18.7604 85.3341 19.1509C86.8029 19.6142 85.8195 20.5659 85.6725 21.2616C85.2313 22.9975 84.9665 24.7736 84.882 26.5627C84.882 27.7833 84.5768 28.7272 83.1792 28.7287C81.7816 28.7303 82.0725 27.4924 81.8748 26.6592C81.8365 26.4209 81.8228 26.1793 81.8337 25.9382Z" fill="#FDFDFD"/>
<path d="M29.3866 20.5863C29.4016 21.3175 29.2086 22.038 28.83 22.6638C28.1787 23.6392 27.2364 24.7191 26.166 24.2938C25.4103 23.9966 26.0965 22.6385 26.2688 21.7642C26.412 21.1875 26.5986 20.6226 26.8269 20.074C26.9108 19.7124 27.1204 19.3923 27.4184 19.1707C27.7163 18.9492 28.0833 18.8407 28.4538 18.8646C29.415 18.9784 29.3565 19.8527 29.3881 20.5816" fill="#FAFAFA"/>
<path d="M101.054 36.9643C100.896 37.8734 100.131 38.0568 99.2958 38.1137C98.461 38.1707 98.5401 37.6299 98.597 37.0639C98.6808 36.2307 98.959 35.69 99.9551 35.7991C100.643 35.8766 101.112 36.09 101.054 36.9643Z" fill="#FCEEEB"/>
<path d="M27.6577 38.7157C27.4775 39.6832 27.468 40.85 26.0561 40.8089C25.2877 40.7868 25.1945 40.0975 25.2656 39.4556C25.3652 38.4611 25.6909 37.5584 26.8466 37.4714C27.6624 37.4066 27.7952 38.0374 27.6688 38.7172" fill="#FCEFED"/>
<path d="M54.5854 38.9428C54.4795 39.8235 54.1776 40.7642 52.9143 40.7974C52.2819 40.8132 52.0527 40.3547 52.1538 39.7096C52.3119 38.7357 52.3119 37.6417 53.5989 37.4741C54.5175 37.3539 54.6202 38.0749 54.5854 38.9428Z" fill="#FCF0ED"/>
<path d="M46.4766 38.8047L47.6086 36.2402C48.4592 38.9153 48.4592 38.9153 46.4766 38.8047Z" fill="#FBE9E5"/>
<path d="M59.7016 39.8616C59.6219 40.1801 59.4299 40.4591 59.161 40.6473C58.892 40.8355 58.5641 40.9203 58.2376 40.8861C58.1561 40.8903 58.0748 40.874 58.0011 40.8387C57.9275 40.8034 57.8638 40.7503 57.8159 40.6842C57.768 40.618 57.7373 40.541 57.7268 40.46C57.7162 40.379 57.7261 40.2967 57.7554 40.2205C57.8765 39.9515 58.0743 39.7243 58.3241 39.5673C58.5739 39.4104 58.8645 39.3307 59.1594 39.3383C59.5119 39.2988 59.8155 39.3905 59.7016 39.8616Z" fill="#FBE5E1"/>
<path d="M33.1186 39.6463C33.0999 39.9546 32.974 40.2467 32.7626 40.4719C32.5512 40.6971 32.2678 40.8413 31.9613 40.8795C31.5818 40.9664 31.2782 40.8099 31.2498 40.4289C31.1913 39.6384 31.8379 39.5103 32.4055 39.3744C32.6933 39.3064 33.068 39.2431 33.1186 39.6463Z" fill="#FCEAE7"/>
<path d="M9.8956 39.562C9.89307 39.8904 9.77041 40.2064 9.55078 40.4505C9.33116 40.6946 9.02976 40.8499 8.70351 40.8869C8.35094 40.9849 7.9794 40.8379 7.95885 40.4411C7.91774 39.6506 8.58177 39.5304 9.15568 39.3644C9.50034 39.2648 9.78809 39.3249 9.8956 39.5636" fill="#FBE5E0"/>
<path d="M20.344 40.8928C19.906 40.9576 19.5993 40.798 19.5866 40.4185C19.5613 39.628 20.2191 39.4952 20.7993 39.3671C21.1028 39.3007 21.5376 39.2343 21.4949 39.7497C21.438 40.4438 20.91 40.7347 20.344 40.8991" fill="#FBE4E0"/>
<path d="M104.215 38.5892C104.67 37.7639 105.103 37.1394 106.082 37.5409C106.384 37.6643 106.699 38.0817 106.492 38.3315C105.889 39.0413 105.086 38.6745 104.215 38.5939" fill="#FDF3F1"/>
<path d="M80.459 38.5899C80.8368 37.6919 81.3206 37.2239 82.1617 37.4832C82.5459 37.5986 82.8843 38.1314 82.6455 38.3955C82.1111 38.9884 81.3444 38.7275 80.459 38.5963" fill="#FCEFEC"/>
</g>
</svg>
