<svg width="128" height="65" viewBox="0 0 128 65" fill="none" xmlns="http://www.w3.org/2000/svg">
<mask id="mask0_1390_8674" style="mask-type:luminance" maskUnits="userSpaceOnUse" x="0" y="0" width="128" height="65">
<path d="M127.64 0.982422H0.121094V64.1189H127.64V0.982422Z" fill="white"/>
</mask>
<g mask="url(#mask0_1390_8674)">
<path d="M21.2704 50.4373L0.437298 63.4997L0.121094 1.30078C1.67682 1.61699 21.5819 1.30078 21.5819 1.30078V47.9409L32.7787 39.5441L43.3526 48.2571V64.1227H21.2704" fill="#F64542"/>
<path d="M87.5176 25.5547L107.423 63.4992L127.639 25.8709H116.754L108.355 43.2827L99.0274 25.8661L87.5176 25.5547Z" fill="#242424"/>
<path d="M85.0325 11.249C85.0328 12.4796 84.6681 13.6827 83.9847 14.706C83.3012 15.7293 82.3296 16.527 81.1927 16.9981C80.0558 17.4691 78.8048 17.5925 77.5978 17.3525C76.3909 17.1125 75.2822 16.5199 74.412 15.6498C73.5419 14.7796 72.9493 13.6709 72.7093 12.4639C72.4693 11.257 72.5926 10.006 73.0637 8.86909C73.5348 7.73223 74.3324 6.76061 75.3558 6.07712C76.3791 5.39363 77.5822 5.02898 78.8127 5.0293C80.4623 5.0293 82.0443 5.68459 83.2108 6.85102C84.3772 8.01744 85.0325 9.59946 85.0325 11.249Z" fill="#242424"/>
<path d="M66.3706 0.982422H55.1738V63.8091H66.3706V0.982422Z" fill="#242424"/>
<path d="M84.4067 25.2422H72.8984V63.808H84.4067V25.2422Z" fill="#242424"/>
</g>
</svg>
