<svg width="167" height="110" viewBox="0 0 167 110" fill="none" xmlns="http://www.w3.org/2000/svg">
<path d="M57.245 76.1362C58.6592 74.5557 60.4622 73.3724 62.4749 72.7038C65.5579 72.0303 69.7777 72.5805 71.4204 76.1267C71.8852 77.1291 72.2473 76.5663 72.6742 76.0825C73.8234 74.6217 75.372 73.5261 77.1321 72.9288C78.8922 72.3316 80.7879 72.2583 82.5888 72.7181C84.2336 72.9921 85.7203 73.8611 86.7662 75.1597C87.8121 76.4584 88.3442 78.0961 88.2614 79.7615C88.4748 85.3393 88.3436 90.9314 88.38 96.5203C88.38 97.1527 88.1144 97.2934 87.5516 97.2855C85.7508 97.2634 83.9484 97.2381 82.1492 97.2934C81.1674 97.3235 81.2955 96.6958 81.2955 96.1077C81.2955 91.9528 81.2955 87.7973 81.2955 83.6413C81.3058 83.2267 81.2931 82.8118 81.2575 82.3986C80.9998 80.0935 80.1302 78.9821 78.3958 78.7101C77.4141 78.5192 76.3968 78.6546 75.4991 79.0956C74.6014 79.5366 73.8725 80.259 73.4236 81.1528C72.9885 82.0725 72.7803 83.0831 72.8164 84.0998C72.8243 88.0239 72.7706 91.9496 72.8496 95.8721C72.8733 97.0705 72.4813 97.3741 71.3619 97.295C69.98 97.187 68.5917 97.1896 67.2102 97.3029C65.841 97.4326 65.6164 96.8571 65.637 95.6524C65.705 91.7283 65.6624 87.8026 65.6624 83.8785C65.6624 83.4643 65.6623 83.0484 65.6402 82.6342C65.5074 80.22 64.5493 78.9236 62.7485 78.7022C61.6486 78.4947 60.5107 78.6999 59.5525 79.2786C58.5943 79.8573 57.8831 80.7688 57.5548 81.839C57.3198 82.6836 57.2133 83.5587 57.2387 84.435C57.2498 88.2658 57.2149 92.0982 57.2623 95.9306C57.275 96.9124 57.0695 97.3535 55.9722 97.2966C54.3612 97.2065 52.7406 97.2444 51.1264 97.2871C50.3723 97.3061 50.0672 97.099 50.0703 96.2816C50.0967 88.8487 50.0967 81.4179 50.0703 73.9892C50.0703 73.2667 50.3264 73.0026 51.0363 73.0137C52.6521 73.0422 54.2743 73.0975 55.8838 72.9963C57.0537 72.9236 57.3588 73.4121 57.2466 74.4477C57.2023 74.8825 57.245 75.3315 57.245 76.1362Z" fill="black"/>
<path d="M100.86 94.8325C100.608 95.5815 100.535 96.3789 100.645 97.1613C100.625 100.855 100.607 104.548 100.655 108.241C100.667 109.19 100.418 109.542 99.4247 109.49C97.9033 109.406 96.3785 109.406 94.8571 109.49C93.8405 109.549 93.5354 109.277 93.5448 108.211C93.6033 102.35 93.5733 96.4862 93.5733 90.6238C93.5733 85.223 93.6081 79.8207 93.5433 74.4215C93.5307 73.2942 93.8721 73.0128 94.9298 73.0776C96.3584 73.1756 97.7921 73.1756 99.2208 73.0776C100.408 72.9875 100.814 73.408 100.644 74.5401C100.63 74.7899 100.647 75.0404 100.693 75.2863C100.744 75.3238 100.803 75.3505 100.865 75.365C100.926 75.3794 100.991 75.3812 101.053 75.3703C101.116 75.3594 101.176 75.336 101.229 75.3014C101.283 75.2669 101.329 75.222 101.365 75.1693C106.919 69.9646 117.453 72.11 119.605 81.8523C120.081 83.784 120.14 85.7951 119.777 87.7513C119.414 89.7074 118.638 91.5637 117.5 93.1961C116.678 94.4078 115.619 95.4401 114.386 96.2307C113.153 97.0213 111.773 97.5537 110.329 97.7958C108.884 98.0378 107.406 97.9845 105.983 97.639C104.56 97.2936 103.222 96.6631 102.049 95.7858C101.689 95.5107 101.342 95.2182 100.86 94.8325ZM112.732 85.2214C112.753 81.027 109.798 78.1543 106.074 78.5479C100.383 79.1487 99.2081 85.8934 101.747 89.4001C102.524 90.4445 103.617 91.2117 104.863 91.5886C106.109 91.9654 107.443 91.9321 108.669 91.4934C109.931 91.0241 111.008 90.1604 111.74 89.0305C112.472 87.9007 112.82 86.5648 112.732 85.2214Z" fill="black"/>
<path d="M144.359 90.1502C144.359 92.0474 144.331 93.6569 144.372 95.2679C144.391 95.5702 144.307 95.8699 144.135 96.1191C143.963 96.3683 143.713 96.5524 143.423 96.6419C139.015 98.4758 131.207 98.9154 126.699 94.3178C124.831 92.2933 123.616 89.753 123.212 87.0279C122.809 84.3028 123.236 81.5194 124.437 79.0403C125.556 76.7938 127.351 74.9551 129.57 73.7834C131.79 72.6116 134.321 72.1659 136.807 72.5091C139.41 72.686 141.867 73.7748 143.746 75.5841C145.626 77.3934 146.808 79.8074 147.083 82.4016C147.283 83.7708 147.385 85.1523 147.39 86.536C147.411 87.5225 147.039 87.8008 146.089 87.7913C141.286 87.7533 136.483 87.7723 131.68 87.7755C130.257 87.7755 130.048 88.0664 130.619 89.3913C131.002 90.2108 131.602 90.9095 132.355 91.4113C133.108 91.9131 133.984 92.1987 134.887 92.2371C138.196 92.7898 141.59 92.0421 144.359 90.1502ZM134.91 82.8364C136.332 82.8364 137.771 82.7763 139.196 82.8569C140.173 82.9107 140.249 82.4838 140.111 81.7091C139.899 80.5879 139.27 79.5889 138.35 78.914C137.43 78.239 136.288 77.9384 135.155 78.0728C133.973 77.97 132.794 78.3055 131.843 79.0154C130.893 79.7253 130.236 80.76 129.999 81.9226C129.887 82.5961 130.073 82.8554 130.761 82.8427C132.144 82.8174 133.528 82.8348 134.91 82.8364Z" fill="black"/>
<path d="M30.1662 81.5197C30.0708 83.982 30.1379 86.4479 30.367 88.9014C30.5113 89.7143 30.9315 90.4525 31.5566 90.9917C32.1818 91.5309 32.9737 91.8381 33.7989 91.8615C34.6242 91.8849 35.4322 91.623 36.0869 91.1201C36.7416 90.6172 37.2029 89.904 37.3931 89.1007C37.5838 88.2445 37.6572 87.3663 37.6113 86.4904C37.6192 82.3797 37.6397 78.2691 37.5938 74.1663C37.5843 73.3126 37.8073 73.0501 38.6674 73.0833C40.3733 73.1497 42.084 73.1149 43.7915 73.096C44.3765 73.096 44.7796 73.1893 44.7749 73.9039C44.737 78.794 44.9914 83.7062 44.6167 88.5694C44.1266 94.8366 39.9117 98.1694 33.5765 97.9433C29.8311 97.8089 26.601 96.7417 24.5409 93.3283C23.4824 91.4779 22.9473 89.3743 22.9931 87.2429C22.9473 82.9505 23.0026 78.6564 22.9631 74.364C22.9552 73.4327 23.1734 73.0311 24.1932 73.0802C25.8516 73.1608 27.5132 73.1418 29.178 73.0802C29.9812 73.0533 30.1994 73.3347 30.1852 74.1062C30.1393 76.4177 30.1662 78.7276 30.1662 81.5197Z" fill="black"/>
<path d="M9.28543 97.2868C6.56133 97.2868 3.8356 97.2283 1.11467 97.3105C-0.273472 97.3532 -0.165968 96.9469 0.377904 95.9572C3.21426 90.7999 5.99688 85.611 8.80478 80.4363C9.5605 79.0418 9.52573 78.9675 7.91941 78.9644C5.97949 78.9644 4.03797 78.909 2.1028 78.9865C1.15419 79.026 0.935975 78.6814 0.980244 77.8134C1.04665 76.5233 1.02451 75.2284 0.980244 73.9367C0.961271 73.2869 1.17952 73.0355 1.84197 73.0371C7.47462 73.0519 13.1067 73.0519 18.7383 73.0371C19.5604 73.0371 19.6743 73.249 19.2711 73.9857C16.4111 79.2332 13.5889 84.5027 10.7526 89.7643C9.87196 91.3975 9.86875 91.396 11.796 91.3975C13.7818 91.3975 15.7676 91.426 17.7518 91.3833C18.5423 91.3659 18.8095 91.6315 18.7778 92.4173C18.7257 93.7074 18.7209 95.0023 18.7778 96.2924C18.8142 97.1113 18.4822 97.3058 17.7265 97.2963C14.917 97.2584 12.1012 97.2868 9.28543 97.2868Z" fill="black"/>
<path d="M151.255 85.1714C151.255 81.5714 151.287 77.9714 151.233 74.373C151.219 73.3769 151.454 72.9501 152.533 73.0117C154.05 73.0955 155.578 73.0639 157.099 73.0196C157.889 72.9975 158.273 73.1588 158.246 74.0742C158.223 74.8647 157.799 76.0473 158.493 76.3524C159.125 76.6291 159.508 75.3801 160.098 74.8916C161.59 73.5019 163.506 72.6529 165.538 72.4805C166.261 72.4441 166.645 72.5548 166.616 73.4291C166.556 75.0892 166.57 76.7492 166.616 78.4125C166.634 79.1429 166.414 79.3611 165.668 79.2915C161.029 78.901 158.88 81.3611 158.539 86.2354C158.311 89.4955 158.444 92.7856 158.493 96.0599C158.507 97.0338 158.22 97.3468 157.247 97.3025C155.635 97.2298 154.016 97.2346 152.403 97.3025C151.472 97.3421 151.235 97.0069 151.246 96.1152C151.274 92.4614 151.255 88.8156 151.255 85.1714Z" fill="black"/>
<path d="M53.0742 34.9644C54.9446 32.8632 56.9382 30.3794 59.1801 28.1581C63.4283 23.9383 67.8157 19.8561 72.154 15.7265C75.4899 12.5518 78.8638 9.41821 82.157 6.19925C82.8353 5.5368 83.1056 5.75972 83.64 6.28146C86.3056 8.89647 89.0061 11.4735 91.7033 14.0617C91.931 14.2798 92.1776 14.4759 92.5255 14.77C92.758 13.7242 92.8145 12.647 92.693 11.5826C92.693 10.8364 92.8606 10.5123 93.6875 10.536C95.6258 10.5913 97.5673 10.5882 99.5056 10.536C100.31 10.5138 100.521 10.8016 100.513 11.57C100.478 14.8016 100.513 18.0348 100.483 21.2664C100.462 21.6055 100.519 21.9448 100.65 22.2585C100.78 22.5722 100.98 22.852 101.235 23.0766C104.859 26.4837 108.453 29.9225 112.067 33.3406C112.53 33.7786 113.05 34.1596 113.545 34.5675L113.365 34.9628C111.044 34.9628 108.718 35.0624 106.408 34.9264C104.925 34.8379 104.609 35.3296 104.623 36.743C104.696 43.9446 104.633 51.1493 104.683 58.3524C104.691 59.5065 104.491 59.9334 103.2 59.9129C98.168 59.8275 93.1325 59.8544 88.0985 59.8986C87.1499 59.9081 86.8337 59.6741 86.8464 58.6797C86.9017 54.569 86.8464 50.4584 86.8875 46.3477C86.897 45.4608 86.6709 45.1335 85.7365 45.1667C83.8393 45.2362 81.942 45.2473 80.0574 45.1667C79.025 45.1208 78.8527 45.5303 78.8622 46.4442C78.9049 50.5074 78.8622 54.5722 78.9001 58.6354C78.9112 59.5666 78.7057 59.9097 77.6955 59.9002C72.5698 59.8496 67.443 59.8496 62.3152 59.9002C61.3255 59.9097 61.0931 59.6077 61.0978 58.6544C61.1358 51.358 61.1247 44.0616 61.1137 36.7667C61.1137 34.6956 61.3793 34.9786 59.2465 34.9644C56.9777 34.9517 54.7153 34.9644 53.0742 34.9644Z" fill="#32B1D0"/>
<path d="M92.4098 2.84537C92.311 2.33811 92.3775 1.81254 92.5994 1.34585C92.8214 0.879158 93.1871 0.495942 93.643 0.252494C94.0486 0.0353834 94.5183 -0.0302401 94.9679 0.0673865C95.4175 0.165013 95.8176 0.41951 96.0967 0.785295C96.3987 1.07936 96.5979 1.17106 97.0153 0.873832C98.5884 -0.251856 99.428 -0.266083 100.372 0.693598C100.836 1.26454 101.084 1.98081 101.072 2.71646C101.06 3.45211 100.789 4.16003 100.307 4.71571C99.3031 5.90939 98.1172 6.95286 97.0232 8.07223C96.7433 8.35681 96.5141 8.40108 96.2138 8.0991C94.9228 6.92945 93.7547 5.63103 92.7276 4.22402C92.48 3.80906 92.3688 3.32685 92.4098 2.84537Z" fill="#F11381"/>
</svg>
