<svg width="134" height="71" viewBox="0 0 134 71" fill="none" xmlns="http://www.w3.org/2000/svg">
<path d="M133.719 27.2738H133.662C133.6 27.1526 133.568 27.0179 133.57 26.8817C133.573 26.7455 133.608 26.6119 133.674 26.4928C133.688 26.4894 133.703 26.4894 133.717 26.4928L133.719 27.2738Z" fill="#C0B8CC"/>
<path d="M0.193359 29.4714V5.168C0.193359 4.37749 0.485919 4.07075 1.27327 3.9585C3.22425 3.68182 5.17357 3.38776 7.12297 3.1016C7.63048 3.02729 8.1364 2.94349 8.64233 2.8755C8.76984 2.86065 8.89908 2.87186 9.02215 2.90841C9.14521 2.94495 9.2596 3.0061 9.35834 3.08814C9.45708 3.17017 9.53812 3.27136 9.5966 3.38564C9.65507 3.49992 9.68973 3.62489 9.6985 3.75296C9.7064 3.85731 9.6985 3.96167 9.6985 4.06918V31.0035C9.6985 31.0825 9.6985 31.1616 9.6985 31.2374C9.68557 31.3065 9.69838 31.378 9.73449 31.4383C9.77061 31.4985 9.82748 31.5435 9.89449 31.5647C9.95762 31.5834 10.0252 31.5805 10.0865 31.5565C10.1478 31.5324 10.1993 31.4886 10.2329 31.4319L11.2858 30.1371C14.3319 26.3869 17.3765 22.6351 20.4194 18.8818C20.5492 18.7041 20.7208 18.5613 20.9192 18.4661C21.1175 18.371 21.3364 18.3263 21.5562 18.3363C24.5901 18.3505 27.6257 18.3363 30.6612 18.3363C30.789 18.3182 30.9191 18.3263 31.0435 18.3602C31.168 18.3941 31.2843 18.4531 31.3852 18.5334C31.4862 18.6138 31.5696 18.7139 31.6305 18.8276C31.6915 18.9413 31.7285 19.0663 31.7395 19.1948C31.7525 19.3389 31.7342 19.4842 31.6859 19.6206C31.6376 19.7571 31.5604 19.8814 31.4596 19.9853C30.3983 21.2385 29.3374 22.4928 28.277 23.7481C25.2004 27.3845 22.1232 31.0208 19.0455 34.6572C19.009 34.6895 18.9795 34.7289 18.9588 34.7731C18.9381 34.8172 18.9267 34.8651 18.9252 34.9139C18.9238 34.9626 18.9323 35.0111 18.9502 35.0564C18.9682 35.1017 18.9952 35.1429 19.0297 35.1774C23.3269 41.2032 27.6209 47.2316 31.9118 53.2627C32.1196 53.4893 32.2328 53.7868 32.2281 54.0943C32.2057 54.3352 32.0931 54.5588 31.9127 54.7201C31.7323 54.8814 31.4977 54.9685 31.2557 54.9639C30.4905 54.9639 29.7253 54.9639 28.9601 54.9639C26.6818 54.9639 24.4036 54.9639 22.1253 54.9639C21.9175 54.9741 21.7107 54.9288 21.5262 54.8327C21.3417 54.7365 21.1862 54.593 21.0755 54.4168C17.5309 49.3386 13.9815 44.2635 10.4273 39.1916L10.3214 39.0414C10.225 38.9038 10.1238 38.76 9.92459 38.8185C9.72539 38.877 9.70168 39.0524 9.70168 39.2374C9.70168 44.0964 9.70168 48.9549 9.70168 53.8129C9.70168 54.6034 9.35062 54.9591 8.56011 54.9591H1.34275C0.539587 54.9591 0.196544 54.6176 0.196544 53.8208L0.193359 29.4714Z" fill="#363473"/>
<path d="M67.7546 37.6655C67.7546 42.593 67.7546 47.5211 67.7546 52.4496C67.7857 54.1963 67.7208 55.9433 67.5602 57.6828C67.4239 59.8098 66.897 61.8936 66.006 63.8298C65.2731 65.337 64.1961 66.6508 62.8619 67.665C61.5277 68.6793 59.9737 69.3656 58.3254 69.6686C56.2962 70.079 54.2137 70.1569 52.1594 69.8994C51.6582 69.8425 51.1586 69.7792 50.6638 69.6843C50.5284 69.662 50.3988 69.613 50.2825 69.5401C50.1662 69.4673 50.0656 69.372 49.9865 69.2599C49.9073 69.1478 49.8513 69.0211 49.8215 68.8872C49.7918 68.7532 49.7889 68.6147 49.8131 68.4796L50.6116 62.7279C50.6321 62.5698 50.6527 62.4117 50.6796 62.2646C50.7092 62.077 50.8054 61.9063 50.9506 61.7838C51.0957 61.6613 51.2802 61.5951 51.4701 61.5974C51.7133 61.6026 51.9555 61.6291 52.1941 61.6765C53.0958 61.831 54.0181 61.8182 54.9151 61.6385C55.5524 61.4881 56.1404 61.1764 56.6226 60.7335C57.1049 60.2905 57.4652 59.7311 57.6692 59.1089C57.9801 58.1682 58.1517 57.1871 58.1784 56.1967C58.2305 55.4172 58.2385 54.6346 58.2385 53.852C58.2385 42.7701 58.2385 31.6882 58.2385 20.6063C58.219 20.4693 58.2287 20.3297 58.2672 20.1968C58.3057 20.0639 58.372 19.9407 58.4617 19.8353C58.5514 19.7299 58.6624 19.6448 58.7875 19.5856C58.9125 19.5263 59.0487 19.4943 59.1871 19.4917C59.3452 19.4648 59.5032 19.4442 59.6502 19.4221C61.9986 19.0964 64.347 18.7718 66.6954 18.4482C66.935 18.4152 67.1781 18.4765 67.3734 18.6192C67.5686 18.762 67.7008 18.975 67.742 19.2134C67.7638 19.3594 67.7733 19.507 67.7704 19.6545C67.7599 25.654 67.7546 31.6576 67.7546 37.6655Z" fill="#363473"/>
<path d="M93.8054 70.0452H93.4418C92.4354 69.9959 91.4325 69.8904 90.4378 69.729C90.2945 69.7137 90.1558 69.6696 90.0298 69.5995C89.9039 69.5294 89.7934 69.4346 89.7048 69.3209C89.6163 69.2071 89.5516 69.0767 89.5145 68.9374C89.4775 68.7981 89.4689 68.6527 89.4893 68.51C89.7601 66.5664 90.0321 64.6239 90.3051 62.6824C90.3256 62.5448 90.3415 62.4072 90.3652 62.2697C90.4072 62.0575 90.5316 61.8706 90.7112 61.75C90.8908 61.6293 91.1109 61.5849 91.3232 61.6263C91.9272 61.6958 92.528 61.7844 93.1367 61.8033C94.1592 61.9111 95.1845 61.6264 96.0049 61.0067C96.8253 60.387 97.3796 59.4787 97.5556 58.4658C97.8249 57.2956 97.9444 56.0961 97.9113 54.8958C97.9282 48.1248 97.9319 41.3549 97.9224 34.586C97.9224 29.571 97.9224 24.556 97.9224 19.541C97.9224 18.7015 98.3651 18.3331 99.203 18.4343C100.773 18.6146 102.346 18.7758 103.918 18.9434C104.773 19.0351 105.628 19.1173 106.482 19.2185C106.618 19.2172 106.753 19.2453 106.877 19.3008C107.002 19.3562 107.113 19.4378 107.203 19.5399C107.293 19.6421 107.359 19.7624 107.399 19.8927C107.438 20.023 107.449 20.1603 107.431 20.2951C107.431 31.6627 107.431 43.0302 107.431 54.3978C107.458 56.6861 107.205 58.9693 106.678 61.1962C106.063 64.0237 104.372 66.5012 101.964 68.1053C100.55 69.0176 98.9546 69.6111 97.2884 69.8444C96.4985 69.9667 95.7017 70.0391 94.9027 70.061L93.8054 70.0452Z" fill="#363473"/>
<path d="M87.585 40.0233C87.585 44.6293 87.585 49.2349 87.585 53.8399C87.6191 54.0839 87.5605 54.3318 87.4209 54.5349C87.2813 54.7379 87.0708 54.8814 86.8308 54.9371C86.7372 54.9561 86.6417 54.9646 86.5462 54.9624H79.1154C78.9758 54.975 78.8352 54.957 78.7033 54.9097C78.5714 54.8624 78.4514 54.7869 78.3516 54.6885C78.2519 54.59 78.1747 54.471 78.1255 54.3398C78.0764 54.2085 78.0566 54.0681 78.0673 53.9284C78.0673 45.0135 78.0673 36.0976 78.0673 27.1807C78.0584 27.0564 78.0742 26.9316 78.1136 26.8134C78.153 26.6953 78.2153 26.586 78.2969 26.4919C78.3786 26.3978 78.4779 26.3207 78.5893 26.265C78.7007 26.2092 78.822 26.1761 78.9463 26.1673C80.6569 25.9222 82.3692 25.6929 84.0799 25.4479C84.8798 25.3372 85.6794 25.2271 86.4783 25.1174C86.6028 25.0957 86.7305 25.0994 86.8535 25.1285C86.9765 25.1575 87.0923 25.2111 87.194 25.2862C87.2957 25.3613 87.3812 25.4562 87.4451 25.5652C87.5091 25.6743 87.5502 25.7952 87.566 25.9206C87.5834 26.05 87.5908 26.1805 87.5881 26.3111L87.585 40.0233Z" fill="#363473"/>
<path d="M127.216 40.0281C127.216 44.6426 127.216 49.2571 127.216 53.8715C127.248 54.1115 127.188 54.3547 127.048 54.5525C126.909 54.7504 126.7 54.8883 126.463 54.9387C126.369 54.9561 126.274 54.9635 126.178 54.9608H118.748C118.608 54.9729 118.467 54.9543 118.336 54.9062C118.204 54.8582 118.084 54.782 117.985 54.6829C117.886 54.5838 117.81 54.4641 117.762 54.3325C117.714 54.2008 117.695 54.0602 117.707 53.9206V27.2013C117.695 27.075 117.709 26.9476 117.747 26.8267C117.785 26.7057 117.847 26.5937 117.93 26.4971C118.012 26.4006 118.113 26.3215 118.226 26.2645C118.339 26.2076 118.463 26.174 118.59 26.1657C120.291 25.9207 121.995 25.6914 123.696 25.4479C124.505 25.3341 125.313 25.2229 126.121 25.1143C126.253 25.0925 126.387 25.0987 126.515 25.1328C126.644 25.1668 126.763 25.2278 126.867 25.3117C126.97 25.3956 127.054 25.5005 127.113 25.6194C127.172 25.7383 127.206 25.8685 127.211 26.0013C127.211 26.1056 127.211 26.2084 127.211 26.3175C127.214 30.8877 127.216 35.4579 127.216 40.0281Z" fill="#363473"/>
<path d="M47.8949 40.0471C47.8949 44.6363 47.8949 49.225 47.8949 53.8131C47.8949 54.6178 47.5454 54.9641 46.7328 54.9641H39.4822C39.3365 54.984 39.1882 54.9702 39.0486 54.9238C38.909 54.8774 38.7819 54.7996 38.6772 54.6964C38.5724 54.5931 38.4928 54.4672 38.4443 54.3283C38.3958 54.1895 38.3799 54.0413 38.3977 53.8953C38.3977 45.0047 38.3977 36.1146 38.3977 27.225C38.3821 27.0946 38.3937 26.9624 38.4319 26.8368C38.47 26.7111 38.5338 26.5947 38.6193 26.495C38.7047 26.3952 38.8099 26.3143 38.9282 26.2574C39.0466 26.2005 39.1755 26.1687 39.3068 26.1642C40.9985 25.9191 42.6933 25.6899 44.3882 25.4512C45.1882 25.3394 45.9882 25.2293 46.7882 25.1207C46.9236 25.0978 47.0624 25.1046 47.1949 25.1406C47.3275 25.1766 47.4506 25.2409 47.5558 25.3292C47.6611 25.4174 47.7459 25.5275 47.8044 25.6517C47.8629 25.776 47.8939 25.9114 47.8949 26.0488C47.8949 26.1357 47.8949 26.2227 47.8949 26.3096C47.896 30.8893 47.896 35.4685 47.8949 40.0471Z" fill="#363473"/>
<path d="M76.9102 12.7439C76.9102 11.5736 77.2572 10.4296 77.9073 9.45652C78.5574 8.48341 79.4814 7.72491 80.5625 7.27692C81.6437 6.82892 82.8334 6.71158 83.9812 6.93966C85.1291 7.16774 86.1835 7.73102 87.0113 8.55831C87.839 9.38561 88.4029 10.4398 88.6316 11.5875C88.8603 12.7352 88.7436 13.925 88.2961 15.0064C87.8487 16.0877 87.0906 17.0122 86.1179 17.6628C85.1451 18.3135 84.0014 18.6611 82.8311 18.6617C81.2616 18.6609 79.7565 18.0372 78.6463 16.9277C77.5362 15.8181 76.9118 14.3134 76.9102 12.7439Z" fill="#2B7EB8"/>
<path d="M57.0781 6.06378C57.0791 4.89381 57.4268 3.7504 58.0776 2.77808C58.7283 1.80576 59.6526 1.04819 60.7339 0.60118C61.8151 0.154172 63.0046 0.0377775 64.1519 0.266718C65.2993 0.495659 66.3531 1.05966 67.1799 1.8874C68.0068 2.71514 68.5696 3.76945 68.7973 4.91705C69.025 6.06465 68.9074 7.25403 68.4592 8.33476C68.011 9.4155 67.2525 10.3391 66.2795 10.9887C65.3065 11.6384 64.1627 11.985 62.9927 11.9847C62.2154 11.9849 61.4457 11.8319 60.7276 11.5343C60.0095 11.2367 59.3571 10.8005 58.8078 10.2506C58.2584 9.70065 57.8229 9.04783 57.5261 8.32941C57.2293 7.61099 57.0771 6.84109 57.0781 6.06378Z" fill="#EF4550"/>
<path d="M108.578 6.0835C108.576 7.25406 108.227 8.39779 107.575 9.36998C106.923 10.3422 105.997 11.0992 104.915 11.5452C103.833 11.9913 102.643 12.1064 101.495 11.876C100.347 11.6455 99.2938 11.0799 98.4676 10.2507C97.6414 9.42141 97.0798 8.36576 96.8537 7.21726C96.6275 6.06875 96.7471 4.87899 97.1972 3.79843C97.6473 2.71788 98.4078 1.79508 99.3824 1.14677C100.357 0.498455 101.502 0.153763 102.673 0.156264C104.241 0.161286 105.743 0.788087 106.85 1.89921C107.957 3.01033 108.579 4.51507 108.578 6.0835Z" fill="#38A563"/>
<path d="M49.0619 12.7379C49.0635 13.9064 48.7186 15.0491 48.071 16.0216C47.4233 16.9941 46.5019 17.7528 45.4232 18.2018C44.3444 18.6508 43.1568 18.77 42.0103 18.5443C40.8639 18.3186 39.8101 17.758 38.9821 16.9336C38.1541 16.1091 37.5891 15.0578 37.3584 13.9123C37.1278 12.7668 37.2419 11.5787 37.6863 10.498C38.1308 9.41741 38.8855 8.49275 39.8552 7.84093C40.825 7.18911 41.9662 6.83939 43.1346 6.83595C43.9114 6.83408 44.6809 6.98528 45.3992 7.28091C46.1176 7.57653 46.7706 8.01079 47.3211 8.55888C47.8715 9.10697 48.3086 9.75813 48.6073 10.4752C48.906 11.1922 49.0605 11.9611 49.0619 12.7379Z" fill="#F5AA16"/>
<path d="M116.58 12.7602C116.577 11.5984 116.916 10.4615 117.555 9.49125C118.194 8.52103 119.105 7.76048 120.174 7.30455C121.242 6.84863 122.421 6.71751 123.564 6.92754C124.707 7.13756 125.762 7.67948 126.599 8.48559C127.435 9.29171 128.016 10.3263 128.268 11.4604C128.52 12.5944 128.433 13.7777 128.017 14.8624C127.601 15.9472 126.875 16.8854 125.929 17.56C124.983 18.2346 123.86 18.6157 122.699 18.6558C121.906 18.6851 121.116 18.5543 120.375 18.2713C119.634 17.9882 118.958 17.5587 118.386 17.0083C117.815 16.458 117.361 15.7981 117.051 15.0682C116.74 14.3383 116.58 13.5533 116.58 12.7602Z" fill="#9B459E"/>
<path d="M133.677 26.4889L133.664 27.2699C133.267 27.2699 133.267 27.2699 133.267 26.8778V26.1221L133.22 26.111L132.837 27.0328C132.787 27.1561 132.765 27.2825 132.567 27.2873C132.369 27.292 132.333 27.1513 132.279 27.0233C132.153 26.6995 132.009 26.3828 131.848 26.0746C131.848 26.3988 131.838 26.7245 131.848 27.0501C131.848 27.2177 131.805 27.2668 131.633 27.2715C131.46 27.2763 131.424 27.194 131.426 27.0391C131.426 26.4921 131.426 25.945 131.426 25.3964C131.426 25.3015 131.353 25.1403 131.546 25.1434C131.704 25.1434 131.89 25.0628 131.982 25.3016C132.127 25.6921 132.298 26.0699 132.467 26.4525C132.483 26.4905 132.505 26.5284 132.539 26.5932C132.728 26.1521 132.921 25.7379 133.082 25.3126C133.179 25.0549 133.372 25.1355 133.536 25.1418C133.701 25.1482 133.642 25.311 133.645 25.4075C133.671 25.7758 133.671 26.1332 133.677 26.4889Z" fill="#363474"/>
<path d="M130.315 25.1463C130.549 25.1463 130.789 25.1542 131.018 25.1463C131.176 25.1384 131.203 25.2174 131.2 25.3518C131.197 25.4862 131.186 25.5542 131.018 25.559C130.504 25.5716 130.504 25.5795 130.504 26.0949C130.504 26.4238 130.504 26.7542 130.504 27.0846C130.504 27.2333 130.478 27.3012 130.307 27.3028C130.136 27.3044 130.089 27.2364 130.092 27.0736C130.101 26.6404 130.092 26.2056 130.092 25.7724C130.092 25.6143 130.059 25.5257 129.878 25.5526C129.793 25.5637 129.704 25.5526 129.618 25.5526C129.459 25.5684 129.387 25.5321 129.387 25.3455C129.387 25.159 129.478 25.1384 129.627 25.1432C129.864 25.1511 130.089 25.1463 130.315 25.1463Z" fill="#373574"/>
</svg>
