<svg width="492" height="321" viewBox="0 0 492 321" fill="none" xmlns="http://www.w3.org/2000/svg">
<path d="M491.999 8.33398L25.1953 55.4581L39.0338 233.603L163.537 236.246L243.262 310.53L300.754 236.246L448.269 242.281L491.999 8.33398Z" fill="#315D80"/>
<path d="M66.5871 42.0605V44.01C64.5756 45.099 62.7941 46.6872 61.3679 48.6627C60.3574 50.1809 59.8094 52.0459 59.8097 53.9652C59.7464 54.7637 59.8891 55.566 60.2197 56.2699C60.3113 56.4554 60.4409 56.6118 60.5969 56.7251C60.753 56.8385 60.9308 56.9053 61.1145 56.9197C61.6044 56.8866 62.0871 56.7669 62.5459 56.5645C63.0846 56.3389 63.6511 56.216 64.2235 56.2006C64.781 56.2005 65.3328 56.3316 65.8454 56.5863C66.358 56.841 66.8208 57.2138 67.2059 57.6822C67.6148 58.1459 67.9381 58.7016 68.156 59.3153C68.3739 59.9291 68.482 60.588 68.4735 61.2519C68.476 62.0104 68.3387 62.7609 68.0708 63.4526C67.8055 64.1432 67.4136 64.7582 66.9226 65.2547C66.4062 65.7739 65.8191 66.1897 65.1854 66.4851C64.5149 66.7989 63.7982 66.9578 63.0754 66.9529C62.1461 66.9496 61.2308 66.6882 60.4061 66.1905C59.5256 65.6796 58.7343 64.9834 58.0724 64.1371C57.3729 63.2362 56.8175 62.1976 56.4321 61.0699C56.0092 59.8447 55.7988 58.5344 55.8132 57.2143C55.8209 55.5875 56.0732 53.9748 56.5588 52.449C57.038 50.8795 57.7413 49.415 58.639 48.1169C59.6073 46.7344 60.7484 45.5283 62.0241 44.5385C63.4339 43.4603 64.9709 42.6256 66.5871 42.0605ZM86.4572 42.2078V44.01C85.2329 44.8002 84.0592 45.692 82.9454 46.6786C82.1615 47.3718 81.4618 48.185 80.8653 49.0959C80.3985 49.8209 80.0521 50.6407 79.8438 51.5132C79.648 52.4078 79.5527 53.3281 79.5605 54.2512C79.506 54.992 79.6718 55.732 80.0302 56.3479C80.1382 56.5332 80.2807 56.6878 80.4472 56.8003C80.6137 56.9128 80.7999 56.9803 80.992 56.9977C81.4724 56.9545 81.9434 56.8198 82.3862 56.5991C82.9713 56.3362 83.5931 56.2011 84.2204 56.2006C85.3126 56.2083 86.3589 56.712 87.1357 57.6042C87.5529 58.0407 87.8851 58.5757 88.1102 59.1734C88.3352 59.771 88.4477 60.4176 88.4404 61.0699C88.4436 61.8324 88.2957 62.5854 88.008 63.2706C87.7145 63.9736 87.3156 64.6102 86.83 65.1508C86.3265 65.7072 85.7371 66.1482 85.0927 66.4504C84.4 66.769 83.6606 66.928 82.9156 66.9183C81.9992 66.9164 81.0957 66.6672 80.2762 66.1905C79.4234 65.6954 78.6632 65.0094 78.0394 64.1717C77.3597 63.2765 76.8152 62.2541 76.4289 61.1479C76.0021 59.9328 75.7892 58.6306 75.8026 57.3183C75.8014 53.9487 76.7875 50.679 78.5986 48.0475C79.5543 46.6956 80.6864 45.5262 81.9538 44.5818C83.3452 43.5351 84.863 42.735 86.4572 42.2078Z" fill="black"/>
<path d="M413.129 272.101V270.16C415.192 269.066 417.022 267.478 418.49 265.506C419.525 263.986 420.086 262.12 420.083 260.201C420.146 259.401 420.002 258.597 419.67 257.887C419.574 257.701 419.44 257.544 419.278 257.431C419.117 257.317 418.933 257.251 418.743 257.237C418.242 257.275 417.749 257.398 417.28 257.601C416.727 257.827 416.145 257.95 415.557 257.965C414.984 257.965 414.417 257.834 413.891 257.579C413.364 257.325 412.889 256.952 412.493 256.483C412.071 256.021 411.736 255.465 411.511 254.851C411.286 254.237 411.174 253.577 411.183 252.912C411.183 252.153 411.327 251.402 411.605 250.711C411.874 250.018 412.277 249.402 412.784 248.908C413.312 248.384 413.915 247.967 414.569 247.677C415.258 247.363 415.994 247.204 416.736 247.209C417.69 247.216 418.629 247.474 419.478 247.963C420.38 248.478 421.191 249.178 421.868 250.026C423.378 251.927 424.199 254.404 424.166 256.96C424.158 258.587 423.898 260.2 423.4 261.727C422.91 263.298 422.187 264.764 421.263 266.06C420.273 267.443 419.103 268.647 417.793 269.631C416.35 270.701 414.779 271.533 413.129 272.101ZM392.718 271.954V270.16C393.973 269.37 395.176 268.478 396.317 267.491C397.123 266.797 397.841 265.984 398.454 265.072C398.936 264.347 399.294 263.527 399.511 262.654C399.709 261.759 399.804 260.838 399.794 259.915C399.85 259.176 399.682 258.436 399.32 257.818C399.208 257.633 399.061 257.479 398.89 257.367C398.719 257.254 398.528 257.186 398.331 257.168C397.835 257.206 397.348 257.341 396.892 257.566C396.292 257.825 395.657 257.96 395.015 257.965C393.889 257.958 392.811 257.451 392.013 256.552C391.586 256.115 391.246 255.579 391.017 254.981C390.787 254.384 390.672 253.737 390.68 253.086C390.678 252.323 390.83 251.57 391.124 250.884C391.425 250.183 391.835 249.549 392.335 249.012C392.85 248.453 393.456 248.012 394.119 247.712C394.831 247.393 395.59 247.234 396.356 247.244C397.296 247.247 398.223 247.493 399.067 247.963C399.942 248.46 400.722 249.146 401.365 249.983C402.065 250.881 402.627 251.906 403.027 253.016C403.46 254.23 403.676 255.529 403.662 256.838C403.654 258.514 403.395 260.175 402.896 261.753C402.413 263.326 401.693 264.792 400.767 266.086C399.788 267.441 398.624 268.611 397.321 269.553C395.899 270.606 394.348 271.414 392.718 271.954Z" fill="black"/>
<path d="M96.4531 59.2691L383.101 30.3337L430.62 25.5355L480.226 20.5312L436.496 254.469L430.62 254.349" stroke="black" stroke-width="2" stroke-miterlimit="10"/>
<path d="M48.9335 64.0605L13.4219 67.6485L27.2603 245.802L151.764 248.437L234.657 318.355L278.069 248.437L383.1 253.338" stroke="black" stroke-width="2" stroke-miterlimit="10"/>
<path d="M82.6484 72.9875L363.75 19.2883L410.354 10.3871L459.001 1.09961L446.824 237.475L440.958 237.87" stroke="black" stroke-width="2" stroke-miterlimit="10"/>
<path d="M36.0385 81.8887L1.21875 88.541L38.8061 264.454L162.937 256.239L249.513 319.527L296.836 247.566L393.582 240.995" stroke="black" stroke-width="2" stroke-miterlimit="10"/>
</svg>
