<svg width="390" height="246" viewBox="0 0 390 246" fill="none" xmlns="http://www.w3.org/2000/svg">
<g clip-path="url(#clip0_1953_3526)">
<path d="M128.113 214.971H1.45312V245.638H128.113V214.971Z" fill="#E44C60"/>
<g style="mix-blend-mode:multiply" opacity="0.28">
<path d="M39.6251 214.971H1.45312V245.638H39.6251V214.971Z" fill="#294D69"/>
</g>
<path d="M128.133 245.981H1.46545C1.37516 245.981 1.28858 245.945 1.22474 245.881C1.16089 245.817 1.125 245.73 1.125 245.639V214.976C1.125 214.885 1.16087 214.798 1.22467 214.734C1.28848 214.669 1.37505 214.633 1.46545 214.633H128.133C128.224 214.633 128.31 214.669 128.374 214.734C128.438 214.798 128.474 214.885 128.474 214.976V245.643C128.473 245.733 128.436 245.819 128.373 245.882C128.309 245.945 128.223 245.981 128.133 245.981ZM1.81484 245.298H127.794V215.313H1.80716L1.81484 245.298Z" fill="#000002"/>
<path d="M39.6301 245.98C39.5398 245.98 39.4532 245.944 39.3894 245.88C39.3255 245.816 39.2897 245.729 39.2897 245.639V214.975C39.2869 214.928 39.2935 214.882 39.3094 214.838C39.3252 214.794 39.3499 214.753 39.3819 214.719C39.4138 214.685 39.4524 214.658 39.4952 214.639C39.538 214.621 39.5841 214.611 39.6308 214.611C39.6774 214.611 39.7235 214.621 39.7663 214.639C39.8091 214.658 39.8477 214.685 39.8797 214.719C39.9116 214.753 39.9363 214.794 39.9521 214.838C39.968 214.882 39.9747 214.928 39.9719 214.975V245.643C39.9705 245.733 39.9339 245.818 39.8699 245.882C39.806 245.945 39.7198 245.98 39.6301 245.98Z" fill="#000002"/>
<path d="M128.133 222.143H14.6333C14.5465 222.138 14.4649 222.1 14.4053 222.036C14.3457 221.972 14.3125 221.888 14.3125 221.801C14.3125 221.714 14.3457 221.63 14.4053 221.566C14.4649 221.503 14.5465 221.464 14.6333 221.459H128.133C128.22 221.464 128.301 221.503 128.361 221.566C128.421 221.63 128.454 221.714 128.454 221.801C128.454 221.888 128.421 221.972 128.361 222.036C128.301 222.1 128.22 222.138 128.133 222.143Z" fill="#000002"/>
<path d="M27.1321 230.647H1.46146C1.37461 230.642 1.29304 230.603 1.23342 230.54C1.17381 230.476 1.14062 230.392 1.14063 230.305C1.14062 230.218 1.17381 230.134 1.23342 230.07C1.29304 230.007 1.37461 229.968 1.46146 229.963H27.1321C27.219 229.968 27.3005 230.007 27.3601 230.07C27.4197 230.134 27.4529 230.218 27.4529 230.305C27.4529 230.392 27.4197 230.476 27.3601 230.54C27.3005 230.603 27.219 230.642 27.1321 230.647Z" fill="#000002"/>
<path d="M128.133 239.135H14.6333C14.5465 239.13 14.4649 239.092 14.4053 239.028C14.3457 238.965 14.3125 238.881 14.3125 238.793C14.3125 238.706 14.3457 238.622 14.4053 238.558C14.4649 238.495 14.5465 238.457 14.6333 238.451H128.133C128.22 238.457 128.301 238.495 128.361 238.558C128.421 238.622 128.454 238.706 128.454 238.793C128.454 238.881 128.421 238.965 128.361 239.028C128.301 239.092 128.22 239.13 128.133 239.135Z" fill="#000002"/>
<path d="M139.301 184.303H12.6406V214.97H139.301V184.303Z" fill="#E44C60"/>
<g style="mix-blend-mode:multiply" opacity="0.28">
<path d="M50.8126 184.303H12.6406V214.97H50.8126V184.303Z" fill="#294D69"/>
</g>
<path d="M139.303 215.313H12.6426C12.5534 215.312 12.468 215.276 12.4049 215.213C12.3417 215.15 12.3057 215.065 12.3047 214.975V184.302C12.3047 184.212 12.3406 184.125 12.4044 184.061C12.4683 183.997 12.5549 183.961 12.6451 183.961H139.305C139.35 183.961 139.394 183.969 139.436 183.987C139.477 184.004 139.515 184.029 139.547 184.061C139.579 184.092 139.604 184.13 139.621 184.171C139.638 184.213 139.647 184.257 139.647 184.302V214.975C139.646 215.02 139.637 215.064 139.62 215.105C139.602 215.147 139.577 215.184 139.545 215.215C139.513 215.247 139.475 215.272 139.433 215.288C139.392 215.305 139.347 215.313 139.303 215.313ZM12.9843 214.628H138.964V184.645H12.983L12.9843 214.628Z" fill="#000002"/>
<path d="M50.8091 215.313C50.7189 215.313 50.6323 215.277 50.5684 215.213C50.5046 215.149 50.4688 215.062 50.4688 214.971V184.302C50.4688 184.212 50.5046 184.125 50.5684 184.061C50.6323 183.997 50.7189 183.961 50.8091 183.961C50.8994 183.961 50.986 183.997 51.0499 184.061C51.1137 184.125 51.1496 184.212 51.1496 184.302V214.975C51.1486 215.065 51.1123 215.151 51.0485 215.214C50.9848 215.277 50.8988 215.313 50.8091 215.313Z" fill="#000002"/>
<path d="M139.301 191.482H25.8091C25.7189 191.482 25.6323 191.446 25.5684 191.382C25.5046 191.318 25.4688 191.231 25.4688 191.14C25.4688 191.05 25.5046 190.963 25.5684 190.899C25.6323 190.835 25.7189 190.799 25.8091 190.799H139.301C139.392 190.799 139.478 190.835 139.542 190.899C139.606 190.963 139.642 191.05 139.642 191.14C139.642 191.231 139.606 191.318 139.542 191.382C139.478 191.446 139.392 191.482 139.301 191.482Z" fill="#000002"/>
<path d="M38.3105 199.979H12.6411C12.5543 199.974 12.4727 199.935 12.4131 199.872C12.3535 199.808 12.3203 199.724 12.3203 199.637C12.3203 199.55 12.3535 199.466 12.4131 199.402C12.4727 199.339 12.5543 199.3 12.6411 199.295H38.3105C38.3974 199.3 38.4789 199.339 38.5385 199.402C38.5982 199.466 38.6313 199.55 38.6313 199.637C38.6313 199.724 38.5982 199.808 38.5385 199.872C38.4789 199.935 38.3974 199.974 38.3105 199.979Z" fill="#000002"/>
<path d="M139.301 208.468H25.8091C25.7189 208.468 25.6323 208.432 25.5684 208.368C25.5046 208.304 25.4688 208.217 25.4688 208.127C25.4688 208.036 25.5046 207.949 25.5684 207.885C25.6323 207.821 25.7189 207.785 25.8091 207.785H139.301C139.392 207.785 139.478 207.821 139.542 207.885C139.606 207.949 139.642 208.036 139.642 208.127C139.642 208.217 139.606 208.304 139.542 208.368C139.478 208.432 139.392 208.468 139.301 208.468Z" fill="#000002"/>
<path d="M127.004 153.635H0.34375V184.302H127.004V153.635Z" fill="#E44C60"/>
<path d="M127.001 184.645H0.34039C0.249984 184.644 0.163418 184.608 0.0996111 184.544C0.0358042 184.48 -6.34078e-07 184.393 0 184.302V153.634C0 153.544 0.0358301 153.457 0.0996736 153.393C0.163517 153.329 0.250102 153.293 0.34039 153.293H127.001C127.091 153.293 127.178 153.329 127.242 153.393C127.306 153.457 127.342 153.544 127.342 153.634V184.302C127.342 184.393 127.306 184.48 127.242 184.544C127.178 184.608 127.091 184.644 127.001 184.645ZM0.682155 183.96H126.661V153.976H0.680843L0.682155 183.96Z" fill="#000002"/>
<path d="M38.5123 184.645C38.4219 184.644 38.3354 184.608 38.2715 184.544C38.2077 184.48 38.1719 184.393 38.1719 184.302V153.634C38.1719 153.544 38.2078 153.457 38.2716 153.393C38.3355 153.329 38.422 153.293 38.5123 153.293C38.6026 153.293 38.6892 153.329 38.753 153.393C38.8169 153.457 38.8528 153.544 38.8528 153.634V184.302C38.8528 184.393 38.8169 184.48 38.7531 184.544C38.6893 184.608 38.6027 184.644 38.5123 184.645Z" fill="#000002"/>
<path d="M127.004 160.808H13.5123C13.422 160.808 13.3355 160.772 13.2716 160.708C13.2078 160.644 13.1719 160.557 13.1719 160.466C13.1719 160.376 13.2078 160.289 13.2716 160.225C13.3355 160.161 13.422 160.125 13.5123 160.125H127.004C127.095 160.125 127.181 160.161 127.245 160.225C127.309 160.289 127.345 160.376 127.345 160.466C127.345 160.557 127.309 160.644 127.245 160.708C127.181 160.772 127.095 160.808 127.004 160.808Z" fill="#000002"/>
<path d="M26.0058 169.313H0.336393C0.249546 169.308 0.168038 169.269 0.108425 169.206C0.0488111 169.142 0.015625 169.058 0.015625 168.971C0.015625 168.884 0.0488111 168.8 0.108425 168.736C0.168038 168.673 0.249546 168.634 0.336393 168.629H26.0058C26.0927 168.634 26.1742 168.673 26.2338 168.736C26.2934 168.8 26.3266 168.884 26.3266 168.971C26.3266 169.058 26.2934 169.142 26.2338 169.206C26.1742 169.269 26.0927 169.308 26.0058 169.313Z" fill="#000002"/>
<path d="M127.004 177.798H13.5123C13.422 177.798 13.3355 177.762 13.2716 177.698C13.2078 177.634 13.1719 177.547 13.1719 177.457C13.1719 177.366 13.2078 177.279 13.2716 177.215C13.3355 177.151 13.422 177.115 13.5123 177.115H127.004C127.095 177.115 127.181 177.151 127.245 177.215C127.309 177.279 127.345 177.366 127.345 177.457C127.345 177.547 127.309 177.634 127.245 177.698C127.181 177.762 127.095 177.798 127.004 177.798Z" fill="#000002"/>
<g style="mix-blend-mode:multiply" opacity="0.28">
<path d="M38.5157 153.635H0.34375V184.302H38.5157V153.635Z" fill="#294D69"/>
</g>
<path d="M370.592 233.285H295.062V243.337H370.592V233.285Z" fill="#E9CB58"/>
<g style="mix-blend-mode:multiply" opacity="0.25">
<path d="M370.592 233.285H340.719V243.337H370.592V233.285Z" fill="#D83B51"/>
</g>
<path d="M370.592 230.984H295.062V233.286H370.592V230.984Z" fill="#EFD05C"/>
<path d="M370.592 243.34H295.062V245.642H370.592V243.34Z" fill="#D6814C"/>
<path opacity="0.4" d="M329.305 230.984H311.219V245.64H329.305V230.984Z" fill="white"/>
<path d="M370.59 245.984H295.061C294.971 245.984 294.884 245.948 294.82 245.884C294.756 245.82 294.72 245.733 294.719 245.642V240.985C294.717 240.938 294.723 240.891 294.739 240.847C294.755 240.803 294.78 240.763 294.812 240.729C294.844 240.695 294.882 240.667 294.925 240.649C294.968 240.63 295.014 240.621 295.06 240.621C295.107 240.621 295.153 240.63 295.196 240.649C295.239 240.667 295.277 240.695 295.309 240.729C295.341 240.763 295.366 240.803 295.382 240.847C295.398 240.891 295.404 240.938 295.402 240.985V245.301H370.249V234.25C370.249 234.159 370.285 234.072 370.349 234.008C370.413 233.944 370.5 233.908 370.59 233.908C370.68 233.908 370.767 233.944 370.831 234.008C370.894 234.072 370.93 234.159 370.93 234.25V245.642C370.93 245.687 370.921 245.731 370.904 245.773C370.887 245.814 370.862 245.852 370.831 245.884C370.799 245.915 370.761 245.941 370.72 245.958C370.679 245.975 370.635 245.984 370.59 245.984Z" fill="#000002"/>
<path d="M374.858 218.631H299.328V228.683H374.858V218.631Z" fill="#E9CB58"/>
<g style="mix-blend-mode:multiply" opacity="0.25">
<path d="M374.858 218.631H344.984V228.683H374.858V218.631Z" fill="#D83B51"/>
</g>
<path d="M374.858 216.33H299.328V218.632H374.858V216.33Z" fill="#EFD05C"/>
<path d="M374.858 228.684H299.328V230.985H374.858V228.684Z" fill="#D6814C"/>
<path opacity="0.4" d="M333.571 216.33H315.484V230.986H333.571V216.33Z" fill="white"/>
<path d="M374.855 231.327H299.325C299.234 231.327 299.148 231.291 299.084 231.227C299.02 231.162 298.984 231.075 298.984 230.985V226.327C298.984 226.236 299.02 226.15 299.084 226.086C299.148 226.022 299.235 225.986 299.325 225.986C299.415 225.986 299.502 226.022 299.566 226.086C299.629 226.15 299.665 226.236 299.665 226.327V230.638H374.514V219.597C374.514 219.507 374.55 219.42 374.614 219.356C374.678 219.292 374.764 219.256 374.855 219.256C374.945 219.256 375.032 219.292 375.095 219.356C375.159 219.42 375.195 219.507 375.195 219.597V230.99C375.194 231.08 375.158 231.165 375.094 231.228C375.03 231.292 374.944 231.327 374.855 231.327Z" fill="#000002"/>
<path d="M370.592 203.975H295.062V214.027H370.592V203.975Z" fill="#E9CB58"/>
<g style="mix-blend-mode:multiply" opacity="0.25">
<path d="M370.592 203.975H340.719V214.027H370.592V203.975Z" fill="#D83B51"/>
</g>
<path d="M370.592 201.674H295.062V203.976H370.592V201.674Z" fill="#EFD05C"/>
<path d="M370.592 214.029H295.062V216.331H370.592V214.029Z" fill="#D6814C"/>
<path opacity="0.4" d="M329.305 201.674H311.219V216.33H329.305V201.674Z" fill="white"/>
<path d="M370.589 216.673H295.06C294.97 216.673 294.883 216.637 294.819 216.573C294.755 216.509 294.719 216.422 294.719 216.332V211.673C294.724 211.586 294.762 211.504 294.826 211.444C294.889 211.384 294.973 211.351 295.06 211.351C295.147 211.351 295.231 211.384 295.294 211.444C295.357 211.504 295.396 211.586 295.401 211.673V215.99H370.249V204.939C370.249 204.849 370.285 204.762 370.348 204.698C370.412 204.634 370.499 204.598 370.589 204.598C370.679 204.598 370.766 204.634 370.83 204.698C370.894 204.762 370.93 204.849 370.93 204.939V216.332C370.93 216.422 370.894 216.509 370.83 216.573C370.766 216.637 370.679 216.673 370.589 216.673Z" fill="#000002"/>
<path d="M373.757 189.32H298.227V199.373H373.757V189.32Z" fill="#E9CB58"/>
<g style="mix-blend-mode:multiply" opacity="0.25">
<path d="M373.756 189.32H343.883V199.373H373.756V189.32Z" fill="#D83B51"/>
</g>
<path d="M373.757 187.02H298.227V189.321H373.757V187.02Z" fill="#EFD05C"/>
<path d="M373.757 199.373H298.227V201.675H373.757V199.373Z" fill="#D6814C"/>
<path opacity="0.4" d="M332.477 187.02H314.391V201.675H332.477V187.02Z" fill="white"/>
<path d="M373.753 202.017H298.223C298.133 202.017 298.046 201.981 297.982 201.917C297.919 201.853 297.883 201.766 297.883 201.675V197.018C297.888 196.931 297.926 196.849 297.99 196.789C298.053 196.729 298.137 196.696 298.224 196.696C298.311 196.696 298.395 196.729 298.458 196.789C298.521 196.849 298.56 196.931 298.565 197.018V201.334H373.413V190.283C373.413 190.192 373.449 190.105 373.512 190.041C373.576 189.977 373.663 189.941 373.753 189.941C373.844 189.941 373.93 189.977 373.994 190.041C374.058 190.105 374.094 190.192 374.094 190.283V201.675C374.094 201.766 374.058 201.853 373.994 201.917C373.93 201.981 373.844 202.017 373.753 202.017Z" fill="#000002"/>
<path d="M371.342 174.664H295.812V184.716H371.342V174.664Z" fill="#E9CB58"/>
<g style="mix-blend-mode:multiply" opacity="0.25">
<path d="M371.342 174.664H341.469V184.716H371.342V174.664Z" fill="#D83B51"/>
</g>
<path d="M371.342 172.363H295.812V174.665H371.342V172.363Z" fill="#EFD05C"/>
<path d="M371.342 184.719H295.812V187.021H371.342V184.719Z" fill="#D6814C"/>
<path opacity="0.4" d="M330.055 172.363H311.969V187.019H330.055V172.363Z" fill="white"/>
<path d="M371.339 187.363H295.809C295.719 187.363 295.632 187.327 295.568 187.263C295.505 187.198 295.469 187.112 295.469 187.021V182.369C295.469 182.278 295.505 182.191 295.568 182.127C295.632 182.063 295.719 182.027 295.809 182.027C295.899 182.027 295.986 182.063 296.05 182.127C296.114 182.191 296.15 182.278 296.15 182.369V186.685H370.999V175.629C370.999 175.584 371.008 175.539 371.025 175.498C371.042 175.456 371.067 175.419 371.098 175.387C371.13 175.355 371.168 175.33 371.209 175.313C371.25 175.296 371.294 175.287 371.339 175.287C371.384 175.287 371.428 175.296 371.469 175.313C371.511 175.33 371.548 175.355 371.58 175.387C371.612 175.419 371.637 175.456 371.654 175.498C371.671 175.539 371.68 175.584 371.68 175.629V187.021C371.68 187.112 371.644 187.198 371.58 187.263C371.516 187.327 371.429 187.363 371.339 187.363Z" fill="#000002"/>
<path d="M381.639 159.873H306.109V169.924H381.639V159.873Z" fill="#E9CB58"/>
<g style="mix-blend-mode:multiply" opacity="0.25">
<path d="M381.639 159.873H351.766V169.924H381.639V159.873Z" fill="#D83B51"/>
</g>
<path d="M381.639 157.57H306.109V159.872H381.639V157.57Z" fill="#EFD05C"/>
<path d="M381.639 169.922H306.109V172.224H381.639V169.922Z" fill="#D6814C"/>
<path opacity="0.4" d="M340.368 157.57H322.281V172.226H340.368V157.57Z" fill="white"/>
<path d="M381.65 172.569H306.122C306.031 172.569 305.945 172.533 305.881 172.469C305.817 172.405 305.781 172.318 305.781 172.227V167.568C305.781 167.478 305.817 167.391 305.881 167.327C305.945 167.263 306.031 167.227 306.122 167.227C306.212 167.227 306.299 167.263 306.362 167.327C306.426 167.391 306.462 167.478 306.462 167.568V171.885H381.31V160.834C381.315 160.746 381.354 160.665 381.417 160.605C381.48 160.545 381.564 160.512 381.651 160.512C381.738 160.512 381.822 160.545 381.885 160.605C381.948 160.665 381.987 160.746 381.992 160.834V172.226C381.992 172.317 381.956 172.404 381.892 172.468C381.828 172.533 381.741 172.569 381.65 172.569Z" fill="#000002"/>
<path d="M368.764 145.08H293.234V155.132H368.764V145.08Z" fill="#E9CB58"/>
<g style="mix-blend-mode:multiply" opacity="0.25">
<path d="M368.756 145.08H338.883V155.132H368.756V145.08Z" fill="#D83B51"/>
</g>
<path d="M368.764 142.777H293.234V145.079H368.764V142.777Z" fill="#EFD05C"/>
<path d="M368.764 155.129H293.234V157.431H368.764V155.129Z" fill="#D6814C"/>
<path opacity="0.4" d="M327.477 142.777H309.391V157.433H327.477V142.777Z" fill="white"/>
<path d="M368.756 157.774H293.223C293.178 157.774 293.134 157.765 293.093 157.748C293.051 157.73 293.014 157.705 292.982 157.673C292.95 157.641 292.925 157.604 292.908 157.562C292.891 157.521 292.883 157.476 292.883 157.431V152.773C292.883 152.683 292.919 152.596 292.983 152.532C293.046 152.468 293.133 152.432 293.223 152.432C293.314 152.432 293.4 152.468 293.464 152.532C293.528 152.596 293.564 152.683 293.564 152.773V157.09H368.412V146.035C368.417 145.948 368.455 145.866 368.518 145.806C368.582 145.746 368.666 145.713 368.753 145.713C368.84 145.713 368.923 145.746 368.987 145.806C369.05 145.866 369.088 145.948 369.094 146.035V157.427C369.094 157.472 369.086 157.517 369.069 157.559C369.052 157.6 369.028 157.638 368.996 157.671C368.965 157.703 368.927 157.729 368.886 157.746C368.845 157.764 368.801 157.773 368.756 157.774Z" fill="#000002"/>
<path d="M377.538 130.424H302.008V140.476H377.538V130.424Z" fill="#E9CB58"/>
<g style="mix-blend-mode:multiply" opacity="0.25">
<path d="M377.538 130.424H347.664V140.476H377.538V130.424Z" fill="#D83B51"/>
</g>
<path d="M377.538 128.121H302.008V130.423H377.538V128.121Z" fill="#EFD05C"/>
<path d="M377.538 140.475H302.008V142.776H377.538V140.475Z" fill="#D6814C"/>
<path opacity="0.4" d="M336.258 128.121H318.172V142.777H336.258V128.121Z" fill="white"/>
<path d="M377.535 143.119H302.005C301.915 143.119 301.829 143.083 301.765 143.019C301.701 142.955 301.665 142.868 301.665 142.778V138.12C301.662 138.073 301.669 138.027 301.684 137.983C301.7 137.939 301.725 137.898 301.757 137.864C301.789 137.83 301.827 137.803 301.87 137.784C301.913 137.766 301.959 137.756 302.006 137.756C302.052 137.756 302.099 137.766 302.141 137.784C302.184 137.803 302.223 137.83 302.255 137.864C302.287 137.898 302.311 137.939 302.327 137.983C302.343 138.027 302.35 138.073 302.347 138.12V142.441H377.195V131.39C377.195 131.3 377.231 131.213 377.294 131.149C377.358 131.085 377.445 131.049 377.535 131.049C377.625 131.049 377.712 131.085 377.776 131.149C377.84 131.213 377.876 131.3 377.876 131.39V142.783C377.874 142.872 377.838 142.958 377.774 143.021C377.71 143.084 377.625 143.119 377.535 143.119Z" fill="#000002"/>
<path d="M373.757 115.77H298.227V125.822H373.757V115.77Z" fill="#E9CB58"/>
<g style="mix-blend-mode:multiply" opacity="0.25">
<path d="M373.756 115.77H343.883V125.822H373.756V115.77Z" fill="#D83B51"/>
</g>
<path d="M373.757 113.467H298.227V115.769H373.757V113.467Z" fill="#EFD05C"/>
<path d="M373.757 125.818H298.227V128.12H373.757V125.818Z" fill="#D6814C"/>
<path opacity="0.4" d="M332.477 113.467H314.391V128.123H332.477V113.467Z" fill="white"/>
<path d="M373.753 128.463H298.223C298.133 128.463 298.046 128.427 297.982 128.363C297.919 128.298 297.883 128.211 297.883 128.121V123.463C297.888 123.376 297.926 123.294 297.99 123.234C298.053 123.175 298.137 123.141 298.224 123.141C298.311 123.141 298.395 123.175 298.458 123.234C298.521 123.294 298.56 123.376 298.565 123.463V127.779H373.413V116.728C373.413 116.638 373.449 116.551 373.512 116.487C373.576 116.423 373.663 116.387 373.753 116.387C373.844 116.387 373.93 116.423 373.994 116.487C374.058 116.551 374.094 116.638 374.094 116.728V128.121C374.094 128.211 374.058 128.298 373.994 128.363C373.93 128.427 373.844 128.463 373.753 128.463Z" fill="#000002"/>
<path d="M363.311 101.158H287.781V111.21H363.311V101.158Z" fill="#E9CB58"/>
<g style="mix-blend-mode:multiply" opacity="0.25">
<path d="M363.303 101.158H333.43V111.21H363.303V101.158Z" fill="#D83B51"/>
</g>
<path d="M363.311 98.8574H287.781V101.159H363.311V98.8574Z" fill="#EFD05C"/>
<path d="M363.311 111.211H287.781V113.513H363.311V111.211Z" fill="#D6814C"/>
<path opacity="0.4" d="M322.024 98.8574H303.938V113.513H322.024V98.8574Z" fill="white"/>
<path d="M363.307 113.854H287.778C287.688 113.854 287.601 113.818 287.537 113.754C287.473 113.69 287.438 113.603 287.438 113.512V108.855C287.438 108.764 287.473 108.677 287.537 108.613C287.601 108.549 287.688 108.513 287.778 108.513C287.868 108.513 287.955 108.549 288.019 108.613C288.083 108.677 288.118 108.764 288.118 108.855V113.17H362.966V102.119C362.972 102.032 363.01 101.95 363.073 101.89C363.137 101.83 363.22 101.797 363.307 101.797C363.394 101.797 363.478 101.83 363.541 101.89C363.605 101.95 363.643 102.032 363.648 102.119V113.511C363.648 113.602 363.612 113.689 363.548 113.754C363.484 113.818 363.397 113.854 363.307 113.854Z" fill="#000002"/>
<path d="M384.546 246H231.402C231.325 246 231.25 245.946 231.195 245.849C231.14 245.752 231.109 245.621 231.109 245.484C231.109 245.347 231.14 245.215 231.195 245.118C231.25 245.021 231.325 244.967 231.402 244.967H384.546C384.624 244.967 384.699 245.021 384.754 245.118C384.809 245.215 384.84 245.347 384.84 245.484C384.84 245.621 384.809 245.752 384.754 245.849C384.699 245.946 384.624 246 384.546 246Z" fill="#000002"/>
<path d="M98.0657 214.971H71V245.638H98.0657V214.971Z" fill="white"/>
<path d="M98.0624 245.981H70.9967C70.9064 245.981 70.8198 245.945 70.756 245.881C70.6921 245.817 70.6563 245.73 70.6563 245.639V214.976C70.6562 214.885 70.6921 214.798 70.7559 214.734C70.8197 214.669 70.9063 214.633 70.9967 214.633H98.0624C98.1529 214.633 98.2396 214.669 98.3036 214.734C98.3676 214.798 98.4037 214.885 98.4041 214.976V245.643C98.4027 245.733 98.3662 245.819 98.3022 245.882C98.2383 245.945 98.1521 245.981 98.0624 245.981ZM71.3384 245.298H97.7219V215.313H71.3384V245.298Z" fill="#000002"/>
<path d="M109.245 184.303H82.1797V214.97H109.245V184.303Z" fill="white"/>
<path d="M109.249 215.313H82.1842C82.0939 215.313 82.0073 215.277 81.9435 215.213C81.8796 215.149 81.8438 215.062 81.8438 214.971V184.302C81.8438 184.212 81.8796 184.125 81.9435 184.061C82.0073 183.997 82.0939 183.961 82.1842 183.961H109.25C109.34 183.961 109.427 183.997 109.491 184.061C109.554 184.125 109.59 184.212 109.59 184.302V214.975C109.589 215.065 109.553 215.151 109.489 215.215C109.425 215.278 109.338 215.313 109.249 215.313ZM82.5233 214.628H108.908V184.645H82.5233V214.628Z" fill="#000002"/>
<path d="M96.9407 153.635H69.875V184.302H96.9407V153.635Z" fill="white"/>
<path d="M96.9451 184.645H69.8795C69.789 184.644 69.7025 184.608 69.6387 184.544C69.5749 184.48 69.5391 184.393 69.5391 184.302V153.634C69.5391 153.544 69.5749 153.457 69.6387 153.393C69.7026 153.329 69.7892 153.293 69.8795 153.293H96.9451C97.0354 153.293 97.122 153.329 97.1858 153.393C97.2497 153.457 97.2856 153.544 97.2856 153.634V184.302C97.2856 184.393 97.2498 184.48 97.186 184.544C97.1222 184.608 97.0355 184.644 96.9451 184.645ZM70.2199 183.96H96.6047V153.976H70.2199V183.96Z" fill="#000002"/>
<path d="M272.73 245.64H166.532C152.128 245.64 139.773 239.896 130.86 230.963C128.28 228.375 125.982 225.518 124.005 222.441C123.678 221.928 123.359 221.412 123.048 220.893C122.222 219.502 121.462 218.073 120.767 216.607C120.595 216.239 120.426 215.873 120.255 215.505C119.926 214.767 119.615 214.018 119.321 213.263C119.244 213.075 119.171 212.878 119.1 212.692C118.959 212.307 118.819 211.932 118.686 211.552C118.617 211.361 118.552 211.167 118.487 210.976C118.429 210.809 118.375 210.639 118.32 210.473C113.864 196.827 115.053 181.176 123.952 167.325L161.45 108.912L200.004 48.8493L174.699 0.357422H264.583L239.283 48.8493L302.137 146.777L315.332 167.33C337.026 201.129 312.824 245.64 272.73 245.64Z" fill="#E44C60"/>
<path d="M272.737 245.642H166.54C152.136 245.642 139.78 239.898 130.868 230.965C128.288 228.377 125.99 225.52 124.013 222.443C123.685 221.93 123.366 221.414 123.056 220.895C122.23 219.504 121.47 218.075 120.775 216.609C120.602 216.241 120.433 215.875 120.263 215.507C119.934 214.769 119.623 214.02 119.329 213.265C119.252 213.077 119.179 212.88 119.108 212.694C118.967 212.309 118.827 211.934 118.694 211.554C118.625 211.363 118.56 211.169 118.494 210.978C118.437 210.811 118.383 210.641 118.328 210.475L302.14 146.773L315.335 167.327C337.034 201.131 312.832 245.642 272.737 245.642Z" fill="#DA3A51"/>
<path d="M177.969 245.64H166.537C152.133 245.64 139.778 239.897 130.865 230.964C128.287 228.374 125.989 225.517 124.01 222.442C123.683 221.929 123.363 221.412 123.053 220.894C122.227 219.5 121.467 218.071 120.772 216.607C120.599 216.24 120.431 215.874 120.26 215.506C119.934 214.765 119.62 214.019 119.326 213.264C119.249 213.075 119.176 212.879 119.105 212.693C118.964 212.308 118.824 211.933 118.691 211.553C118.622 211.362 118.557 211.168 118.492 210.976C113.845 197.213 114.954 181.349 123.954 167.327L161.453 108.914L200.006 48.8512L174.704 0.359375H186.285L211.59 48.8512L167.019 118.288L135.535 167.33C113.85 201.089 137.963 245.53 177.969 245.64Z" fill="white"/>
<path d="M272.735 245.982H166.537C159.515 245.982 152.776 244.631 146.508 241.966C140.571 239.441 135.177 235.787 130.624 231.205C128.031 228.603 125.721 225.733 123.733 222.641L123.721 222.625C123.405 222.132 123.081 221.613 122.769 221.084C122.764 221.078 122.76 221.071 122.756 221.063C121.922 219.651 121.152 218.213 120.47 216.77C120.465 216.762 120.461 216.754 120.457 216.745C120.274 216.36 120.111 216 119.958 215.661L119.944 215.634C119.605 214.875 119.289 214.115 119.004 213.376C118.931 213.199 118.855 213.004 118.781 212.801C118.622 212.375 118.485 212 118.365 211.654C118.296 211.463 118.231 211.269 118.164 211.074C115.765 204.049 114.944 196.58 115.758 189.199C116.621 181.378 119.28 173.953 123.66 167.13L161.147 108.737L161.162 108.711L199.608 48.8154L174.396 0.500687C174.369 0.448533 174.355 0.39029 174.357 0.331561C174.359 0.272831 174.376 0.215591 174.407 0.165318C174.437 0.115045 174.48 0.0734402 174.531 0.0444912C174.581 0.0155422 174.639 0.000215693 174.698 0H264.582C264.641 0.000215693 264.698 0.0155422 264.749 0.0444912C264.8 0.0734402 264.843 0.115045 264.873 0.165318C264.904 0.215591 264.92 0.272831 264.922 0.331561C264.924 0.39029 264.911 0.448533 264.884 0.500687L239.672 48.8154L315.614 167.13C320.811 175.225 323.645 184.452 323.805 193.813C323.924 202.718 321.753 211.504 317.502 219.322C313.25 227.141 307.062 233.728 299.534 238.449C291.602 243.377 282.333 245.982 272.735 245.982ZM124.288 222.238C124.292 222.245 124.296 222.251 124.301 222.257C126.265 225.313 128.547 228.151 131.109 230.723C140.489 240.123 153.072 245.299 166.541 245.299H272.735C291.438 245.299 307.95 235.466 316.906 218.995C325.862 202.524 325.165 183.273 315.039 167.501L238.989 49.0182C238.957 48.9677 238.938 48.9092 238.935 48.8489C238.932 48.7886 238.946 48.7287 238.974 48.6754L264.015 0.684278H175.256L200.299 48.6754C200.327 48.7289 200.34 48.7887 200.338 48.8489C200.335 48.9091 200.316 48.9675 200.284 49.0182L161.746 109.062L161.73 109.089L124.232 167.502C115.874 180.518 113.897 196.321 118.808 210.856C118.873 211.048 118.936 211.241 119.005 211.427C119.125 211.77 119.261 212.141 119.418 212.563C119.491 212.76 119.564 212.948 119.635 213.126C119.916 213.851 120.225 214.592 120.555 215.331L120.568 215.358C120.719 215.693 120.88 216.045 121.06 216.431C121.066 216.44 121.07 216.448 121.074 216.457C121.748 217.881 122.506 219.308 123.329 220.694L123.344 220.713C123.656 221.239 123.972 221.752 124.288 222.238Z" fill="#000002"/>
<path d="M239.274 49.1732H199.997C199.906 49.1732 199.82 49.1372 199.756 49.0732C199.692 49.0092 199.656 48.9223 199.656 48.8317C199.656 48.7412 199.692 48.6543 199.756 48.5903C199.82 48.5262 199.906 48.4902 199.997 48.4902H239.274C239.365 48.4902 239.451 48.5262 239.515 48.5903C239.579 48.6543 239.615 48.7412 239.615 48.8317C239.615 48.9223 239.579 49.0092 239.515 49.0732C239.451 49.1372 239.365 49.1732 239.274 49.1732Z" fill="#000002"/>
<path d="M229.326 49.175C229.267 49.1754 229.209 49.1605 229.158 49.1318C229.107 49.1031 229.064 49.0616 229.034 49.0113C229.003 48.961 228.986 48.9036 228.985 48.8447C228.983 48.7859 228.996 48.7276 229.024 48.6756L244.269 19.4588C244.311 19.3784 244.383 19.3181 244.469 19.291C244.556 19.2639 244.649 19.2723 244.729 19.3144C244.809 19.3564 244.869 19.4287 244.896 19.5152C244.923 19.6018 244.915 19.6955 244.873 19.7759L229.628 48.9914C229.599 49.0468 229.556 49.0932 229.502 49.1256C229.449 49.158 229.388 49.175 229.326 49.175Z" fill="#000002"/>
<path d="M261.524 100.165C261.466 100.165 261.41 100.15 261.36 100.123C261.31 100.095 261.268 100.055 261.237 100.007L228.554 49.017C228.53 48.9792 228.513 48.937 228.505 48.8928C228.497 48.8487 228.498 48.8034 228.508 48.7595C228.527 48.6709 228.581 48.5936 228.657 48.5445C228.733 48.4955 228.825 48.4788 228.913 48.498C229.002 48.5173 229.079 48.571 229.127 48.6472L261.81 99.6374C261.843 99.6891 261.862 99.7488 261.864 99.8102C261.866 99.8715 261.852 99.9323 261.823 99.9863C261.793 100.04 261.75 100.085 261.698 100.117C261.645 100.148 261.585 100.165 261.524 100.165Z" fill="#000002"/>
<path d="M231.221 77.7731C231.15 77.7729 231.08 77.7504 231.023 77.7087C230.965 77.667 230.921 77.6083 230.898 77.5407L221.3 48.944C221.282 48.8937 221.277 48.84 221.284 48.7873L224.402 26.3631C224.406 26.3167 224.419 26.2715 224.441 26.2303C224.463 26.1892 224.493 26.1529 224.529 26.1238C224.565 26.0947 224.607 26.0733 224.652 26.061C224.697 26.0487 224.744 26.0457 224.79 26.0521C224.836 26.0586 224.88 26.0744 224.92 26.0987C224.96 26.1229 224.994 26.155 225.021 26.193C225.048 26.231 225.067 26.2741 225.077 26.3197C225.086 26.3653 225.087 26.4124 225.078 26.4581L221.97 48.7963L231.541 77.3225C231.555 77.365 231.561 77.41 231.558 77.4548C231.555 77.4996 231.543 77.5433 231.523 77.5835C231.503 77.6237 231.475 77.6595 231.441 77.689C231.408 77.7184 231.368 77.7409 231.326 77.7551C231.292 77.7664 231.257 77.7725 231.221 77.7731Z" fill="#000002"/>
<g style="mix-blend-mode:multiply" opacity="0.27">
<path d="M270.675 167.511C270.674 179.299 266.005 190.603 257.696 198.938C249.387 207.274 238.117 211.957 226.366 211.958C201.894 211.958 182.055 192.059 182.055 167.511C182.055 150.996 191.034 136.587 204.362 128.924C211.059 125.072 218.646 123.052 226.366 123.065C250.837 123.065 270.675 142.963 270.675 167.511Z" fill="#952F3B"/>
</g>
<path d="M265.925 161.697C265.924 173.484 261.255 184.789 252.946 193.124C244.637 201.459 233.367 206.142 221.616 206.143C197.144 206.143 177.305 186.244 177.305 161.697C177.305 145.182 186.284 130.771 199.612 123.109C206.309 119.258 213.896 117.237 221.616 117.25C246.087 117.249 265.925 137.148 265.925 161.697Z" fill="white"/>
<path d="M223.853 158.981C223.777 158.953 223.703 158.922 223.628 158.895C221.947 158.241 220.537 157.611 219.381 156.958C216.518 155.335 215.213 153.53 215.213 150.704C215.213 148.562 216.415 146.109 219.381 144.977C220.424 144.578 221.685 144.344 223.188 144.344C223.413 144.344 223.635 144.344 223.853 144.357C226.431 144.45 228.953 145.135 231.226 146.36L232.731 141.887C230.919 140.86 227.941 139.884 223.853 139.812V134.549H219.384V140.223C213.431 141.546 209.69 145.857 209.69 151.329C209.69 156.869 213.352 160.361 219.384 162.795C219.864 162.99 220.359 163.178 220.867 163.359C221.887 163.744 222.885 164.186 223.856 164.684C227.387 166.525 228.847 168.615 228.847 171.8C228.847 174.985 227.055 177.416 223.856 178.475C222.605 178.873 221.299 179.067 219.988 179.049C219.786 179.049 219.583 179.049 219.384 179.036C216.138 178.903 212.977 177.954 210.191 176.278L208.812 180.875C211.029 182.358 215.364 183.539 219.384 183.581V188.837H223.856V183.199C230.968 181.817 234.429 176.908 234.429 171.364C234.427 165.196 230.861 161.737 223.853 158.981Z" fill="#DA3A51"/>
<g style="mix-blend-mode:multiply" opacity="0.27">
<path d="M177.964 245.64H166.532C152.128 245.64 139.772 239.897 130.86 230.964C128.28 228.375 125.982 225.519 124.005 222.442C123.677 221.929 123.358 221.413 123.048 220.894C122.222 219.502 121.462 218.073 120.767 216.607C120.594 216.24 120.425 215.874 120.255 215.506C119.926 214.768 119.615 214.019 119.321 213.264C119.244 213.075 119.171 212.879 119.099 212.693C118.959 212.308 118.819 211.933 118.686 211.553C118.617 211.362 118.552 211.168 118.486 210.976C113.837 197.213 114.944 181.349 123.946 167.327L161.445 108.914L167.011 118.286L181.532 142.742L210.143 190.922C212.82 195.4 214.43 200.438 214.847 205.642C216.441 225.638 200.281 245.51 177.964 245.64Z" fill="#952F3B"/>
</g>
<path d="M173.024 245.64H98.8146C70.798 245.64 53.8852 214.54 69.0536 190.909L122.197 108.119L104.516 74.2266H167.322L149.641 108.119L202.785 190.909C217.956 214.54 201.043 245.64 173.024 245.64Z" fill="#6B5E7A"/>
<g style="mix-blend-mode:multiply" opacity="0.25">
<path d="M173.034 245.64H166.681L137.312 108.119L157.987 74.2266H167.329L149.649 108.119L202.792 190.909C217.966 214.54 201.053 245.64 173.034 245.64Z" fill="#645675"/>
</g>
<path d="M106.911 245.64H98.8139C70.7986 245.64 53.8857 214.538 69.0529 190.907L122.195 108.116L104.517 74.2324H112.609L130.298 108.116L77.1555 190.907C61.9806 214.538 78.8935 245.64 106.911 245.64Z" fill="white"/>
<path d="M173.029 245.981H98.8182C92.0915 245.981 85.5964 244.155 80.0356 240.702C74.7598 237.394 70.4229 232.778 67.4436 227.299C64.4643 221.82 62.943 215.663 63.0267 209.423C63.1419 202.863 65.1282 196.396 68.7693 190.723L121.805 108.099L104.219 74.3913C104.192 74.3391 104.179 74.2809 104.181 74.2222C104.183 74.1634 104.2 74.1062 104.23 74.0559C104.26 74.0057 104.303 73.964 104.354 73.9351C104.405 73.9062 104.463 73.8908 104.521 73.8906H167.33C167.388 73.8912 167.445 73.9067 167.496 73.9358C167.547 73.9648 167.59 74.0064 167.62 74.0565C167.65 74.1067 167.667 74.1638 167.669 74.2224C167.671 74.2809 167.658 74.3391 167.632 74.3913L150.042 108.099L203.078 190.723C206.719 196.396 208.709 202.863 208.82 209.423C208.904 215.663 207.383 221.82 204.403 227.299C201.424 232.778 197.087 237.394 191.811 240.702C186.251 244.155 179.755 245.981 173.029 245.981ZM105.089 74.5749L122.509 107.954C122.537 108.007 122.551 108.067 122.548 108.127C122.545 108.188 122.527 108.246 122.494 108.297L69.3465 191.097C62.2909 202.087 61.8045 215.499 68.0449 226.975C74.2853 238.451 85.7909 245.302 98.822 245.302H173.029C186.06 245.302 197.565 238.45 203.805 226.975C210.044 215.501 209.564 202.087 202.504 191.097L149.361 108.306C149.329 108.255 149.31 108.196 149.308 108.136C149.305 108.076 149.318 108.016 149.346 107.963L166.767 74.5839L105.089 74.5749Z" fill="#000002"/>
<path d="M149.646 108.456H122.2C122.11 108.456 122.023 108.42 121.959 108.356C121.895 108.292 121.859 108.205 121.859 108.115C121.859 108.024 121.895 107.937 121.959 107.873C122.023 107.809 122.11 107.773 122.2 107.773H149.646C149.736 107.773 149.823 107.809 149.886 107.873C149.95 107.937 149.986 108.024 149.986 108.115C149.986 108.205 149.95 108.292 149.886 108.356C149.823 108.42 149.736 108.456 149.646 108.456Z" fill="#000002"/>
<path d="M142.7 108.459C142.645 108.459 142.591 108.446 142.542 108.42C142.502 108.399 142.467 108.371 142.438 108.337C142.41 108.302 142.388 108.262 142.375 108.22C142.361 108.177 142.357 108.132 142.361 108.087C142.365 108.042 142.378 107.999 142.399 107.959L153.051 87.5467C153.093 87.4663 153.165 87.406 153.251 87.3789C153.337 87.3518 153.431 87.3602 153.511 87.4022C153.591 87.4443 153.651 87.5166 153.678 87.6031C153.705 87.6897 153.697 87.7834 153.655 87.8638L143.002 108.276C142.973 108.331 142.929 108.378 142.876 108.41C142.823 108.442 142.762 108.459 142.7 108.459Z" fill="#000002"/>
<path d="M165.195 144.088C165.138 144.088 165.082 144.073 165.032 144.046C164.981 144.019 164.939 143.979 164.908 143.931L142.07 108.3C142.021 108.224 142.004 108.131 142.023 108.043C142.043 107.954 142.096 107.877 142.172 107.828C142.248 107.779 142.341 107.762 142.429 107.781C142.517 107.801 142.594 107.854 142.643 107.93L165.48 143.561C165.514 143.613 165.533 143.672 165.535 143.734C165.538 143.795 165.524 143.856 165.494 143.91C165.465 143.964 165.422 144.009 165.369 144.04C165.316 144.071 165.256 144.088 165.195 144.088Z" fill="#000002"/>
<path d="M144.02 128.447C143.949 128.447 143.88 128.425 143.822 128.383C143.764 128.341 143.721 128.283 143.698 128.215L136.986 108.233C136.969 108.182 136.965 108.129 136.972 108.076L139.148 92.4071C139.165 92.3212 139.214 92.245 139.285 92.1943C139.356 92.1435 139.444 92.122 139.531 92.1342C139.617 92.1463 139.696 92.1912 139.75 92.2596C139.805 92.3281 139.831 92.4148 139.824 92.5021L137.656 108.091L144.341 127.997C144.356 128.039 144.361 128.084 144.358 128.129C144.355 128.174 144.343 128.218 144.323 128.258C144.303 128.298 144.276 128.334 144.242 128.363C144.208 128.393 144.169 128.415 144.126 128.429C144.092 128.441 144.056 128.447 144.02 128.447Z" fill="#000002"/>
<g style="mix-blend-mode:multiply" opacity="0.25">
<path d="M170.901 191.134C170.901 195.213 170.1 199.251 168.544 203.019C166.988 206.787 164.707 210.211 161.832 213.095C158.957 215.979 155.544 218.267 151.788 219.828C148.031 221.388 144.005 222.192 139.939 222.192C122.84 222.192 108.977 208.287 108.977 191.134C108.975 187.055 109.775 183.015 111.33 179.246C112.885 175.477 115.166 172.053 118.042 169.169C120.917 166.284 124.331 163.997 128.088 162.436C131.846 160.876 135.873 160.074 139.939 160.076C157.039 160.076 170.901 173.981 170.901 191.134Z" fill="#D83B51"/>
</g>
<path d="M168.268 186.988C168.267 195.225 165.005 203.124 159.198 208.948C153.392 214.772 145.518 218.045 137.307 218.046C120.207 218.046 106.344 204.141 106.344 186.988C106.341 182.908 107.139 178.867 108.694 175.097C110.249 171.327 112.53 167.901 115.405 165.016C118.281 162.131 121.695 159.842 125.453 158.281C129.211 156.72 133.239 155.918 137.307 155.92C154.406 155.92 168.268 169.829 168.268 186.988Z" fill="#F1D15B"/>
<path d="M138.872 185.085C138.818 185.065 138.767 185.043 138.714 185.024C137.694 184.645 136.702 184.192 135.747 183.671C133.746 182.537 132.834 181.275 132.834 179.306C132.834 177.809 133.673 176.097 135.747 175.305C136.599 174.996 137.5 174.846 138.406 174.863C138.563 174.863 138.72 174.863 138.872 174.871C140.673 174.936 142.436 175.415 144.023 176.271L145.075 173.145C143.809 172.425 141.727 171.746 138.872 171.696V168.021H135.747V171.987C131.587 172.91 128.972 175.923 128.972 179.748C128.972 183.618 131.532 186.058 135.747 187.76C136.082 187.896 136.427 188.027 136.783 188.153C137.496 188.423 138.193 188.732 138.872 189.08C141.338 190.364 142.356 191.826 142.356 194.052C142.356 196.278 141.105 197.976 138.872 198.712C137.998 198.989 137.085 199.125 136.169 199.113C136.028 199.113 135.886 199.113 135.747 199.105C133.479 199.012 131.27 198.349 129.323 197.179L128.359 200.389C129.908 201.425 132.939 202.25 135.747 202.28V205.951H138.872V202.009C143.841 201.045 146.26 197.613 146.26 193.741C146.26 189.428 143.768 187.012 138.872 185.085Z" fill="#F8F8F8"/>
</g>
<defs>
<clipPath id="clip0_1953_3526">
<rect width="390" height="246" fill="white"/>
</clipPath>
</defs>
</svg>
