<svg width="339" height="312" viewBox="0 0 339 312" fill="none" xmlns="http://www.w3.org/2000/svg">
<g clip-path="url(#clip0_1953_3643)">
<path d="M42.883 302.189L121.776 260.745L39.4688 247.436L42.883 302.189Z" fill="#BCCEE5"/>
<path d="M39.4683 247.436L42.8825 302.19L35.3594 244.992L39.4683 247.436Z" fill="#6B5E7A"/>
<path d="M339 154.682L238.994 184.424L161.616 207.438L35.363 244.992L0 225.595L339 154.682Z" fill="#C06A87"/>
<path d="M338.997 154.682L92.6094 311.999L39.4688 247.436L153.807 212.032L238.967 185.656L338.997 154.682Z" fill="#C06A87"/>
<path d="M238.991 184.424C238.991 184.841 238.983 185.251 238.967 185.655C238.814 189.045 237.935 191.911 235.792 193.413C228.042 198.785 92.4565 266.402 91.3655 267.079C90.2745 267.755 85.8713 265.378 85.8713 265.378L76.2838 270.437L71.3156 279.973L63.8592 277.025L57.1562 268.881L153.838 212.031L161.648 207.437L238.991 184.424Z" fill="#645675"/>
<path d="M338.996 154.682L39.4683 247.436L35.3594 244.992L338.996 154.682Z" fill="#BCCEE5"/>
<path d="M238.995 184.424L161.617 207.438L190.764 190.301L238.25 175.756C238.536 177.652 238.987 182.625 238.995 184.424Z" fill="#645675"/>
<path d="M63.8281 277.025C63.8281 277.025 87.1001 299.05 92.8415 299.46C98.5829 299.871 339.001 154.682 339.001 154.682L92.6138 311.999L63.8281 277.025Z" fill="#6B5E7A"/>
<path d="M122.538 200.828C116.674 209.351 102.915 208.538 102.915 208.538C103.047 207.82 103.108 207.09 103.096 206.36C103.127 201.782 101.797 193.993 101.797 193.993C101.958 193.931 105.878 192.386 110.752 190.947L111.761 190.654L112.326 190.498L112.719 190.388L113.39 190.208C114.736 189.857 116.097 189.528 117.432 189.258C117.655 189.215 117.875 189.168 118.099 189.129H118.134C118.688 189.024 119.233 188.93 119.767 188.848C120.301 188.766 120.85 188.691 121.372 188.633L121.823 193.422L122.538 200.828Z" fill="#315D80"/>
<path d="M123.978 216.245L85.8718 235.638C84.9731 226.422 101.236 216.358 102.916 208.538C102.916 208.538 116.671 209.352 122.538 200.828L123.978 216.245Z" fill="#EA4B62"/>
<path d="M122.534 200.828C116.671 209.351 102.912 208.538 102.912 208.538C103.043 207.82 103.104 207.09 103.092 206.36C110.411 207.216 117.353 201.922 118.311 200.147C119.268 198.372 118.036 194.646 117.071 192.859C116.105 191.073 102.134 193.923 101.797 193.993C101.958 193.931 105.878 192.386 110.753 190.947L111.761 190.654L112.326 190.498L112.719 190.388L113.39 190.208C114.736 189.857 116.098 189.528 117.432 189.258C117.656 189.215 117.875 189.168 118.099 189.129H118.134C118.688 189.024 119.233 188.93 119.767 188.848C120.301 188.766 120.85 188.691 121.372 188.633L121.823 193.422L122.534 200.828Z" fill="#254966"/>
<path d="M200.813 158.229C199.044 165.492 195.588 172.239 190.723 177.927C185.021 184.569 177.108 188.943 168.433 190.247C142.045 194.442 122.909 151.93 122.332 150.66L125.602 170.623L128.816 190.267C127.897 188.562 124.997 188.253 121.394 188.644C120.873 188.703 120.335 188.773 119.789 188.859C119.244 188.945 118.706 189.031 118.157 189.14H118.122C117.898 189.18 117.678 189.227 117.455 189.27C116.112 189.539 114.747 189.868 113.412 190.22L112.741 190.399L112.349 190.509L111.784 190.665C111.442 190.763 111.109 190.857 110.775 190.959C105.406 192.523 100.944 194.243 100.944 194.243L92.8521 136.13C92.3833 132.777 92.6422 129.363 93.6109 126.118C94.5797 122.874 96.2359 119.874 98.4678 117.321C100.7 114.768 103.455 112.722 106.548 111.321C109.642 109.92 113.001 109.197 116.399 109.199H116.744C119.939 109.247 123.091 109.935 126.012 111.225C128.933 112.514 131.563 114.377 133.745 116.702L138.976 122.376L162.393 147.751L171.168 150.143L200.813 158.229Z" fill="#F1D15B"/>
<path d="M190.735 177.928C185.032 184.57 177.119 188.944 168.444 190.248C142.056 194.443 122.921 151.931 122.344 150.66C122.999 151.903 155.701 208.558 194.224 159.364L190.735 177.928Z" fill="#D0B241"/>
<path d="M173.118 185.402C152.828 185.402 135.051 164.023 125.479 152.517C122.689 149.162 119.808 145.698 118.937 145.506C117.469 147.297 119.887 165.548 123.112 182.396L121.955 182.615C121.955 182.529 120.263 173.755 118.945 164.786C116.241 146.362 117.661 145.072 118.199 144.583C118.301 144.489 118.422 144.418 118.554 144.374C118.686 144.331 118.826 144.315 118.964 144.329C120.22 144.415 122.147 146.675 126.386 151.758C135.828 163.097 153.382 184.21 173.118 184.21H173.326V185.383L173.118 185.402Z" fill="white"/>
<path d="M128.815 190.247C127.897 188.543 124.997 188.234 121.394 188.625C120.872 188.683 120.334 188.754 119.789 188.84C119.243 188.926 118.706 189.012 118.156 189.121H118.121C117.897 189.16 117.678 189.207 117.454 189.25C116.112 189.52 114.746 189.849 113.412 190.201L112.741 190.38L112.348 190.49L111.783 190.646C111.442 190.744 111.108 190.838 110.775 190.939C105.406 192.503 100.944 194.224 100.944 194.224L92.8516 136.111C92.8516 136.111 103.754 185.696 104.923 186.983C106.093 188.269 121.83 184.046 123.992 184.414C126.154 184.781 125.609 170.592 125.609 170.592L128.815 190.247Z" fill="#D0B241"/>
<path d="M100.174 187.67L99.7188 186.586C99.86 186.528 114.008 180.671 127.657 182.161L127.527 183.333C114.188 181.867 100.311 187.63 100.174 187.67Z" fill="white"/>
<path d="M138.975 122.376C138.975 122.376 129.364 129.722 121.771 128.275C114.177 126.829 113.078 111.533 113.078 111.533L116.716 109.188C119.917 109.232 123.075 109.921 126.002 111.212C128.929 112.504 131.564 114.371 133.748 116.702L138.975 122.376Z" fill="#D0B241"/>
<path d="M121.842 193.413L121.391 188.624C124.993 188.233 127.893 188.542 128.812 190.246C128.812 190.246 129.228 192.323 121.842 193.413Z" fill="#000001"/>
<path d="M200.824 158.228L194.223 159.362L193.532 160.762C178.619 162.517 164.625 164.429 164.625 164.429L171.163 150.146L200.824 158.228Z" fill="#00609B"/>
<path d="M151.25 108.898C151.25 108.898 150.838 109.394 150.073 110.215C149.5 110.845 148.731 111.662 147.797 112.592C142.432 117.922 131.66 126.946 121.621 125.182C111.268 123.36 111.115 99.7681 113.058 78.9637C113.376 75.6129 113.741 72.3404 114.129 69.2437C114.455 66.6476 114.796 64.1609 115.13 61.8854C115.271 60.9235 115.41 59.9943 115.546 59.0976C116.664 51.8096 117.618 46.977 117.618 46.977C117.139 42.6762 118.489 36.5885 118.984 34.5514C119.094 34.1096 119.16 33.8555 119.16 33.8555L117.724 23.4161C117.718 23.3432 117.718 23.27 117.724 23.1972C117.735 22.8245 117.879 22.4679 118.13 22.1917C118.381 21.9154 118.723 21.7377 119.094 21.6905C119.466 21.6433 119.841 21.7298 120.154 21.9344C120.467 22.139 120.696 22.4481 120.801 22.8062L123.607 33.1556L124.333 20.3273C124.349 20.0036 124.489 19.6984 124.725 19.475C124.967 19.2421 125.291 19.113 125.628 19.1153C125.941 19.114 126.245 19.2276 126.48 19.4345C126.715 19.6413 126.866 19.9271 126.903 20.2374L128.422 32.5965L130.757 21.3204C130.822 21.0103 130.992 20.7319 131.238 20.5318C131.485 20.3318 131.793 20.2223 132.111 20.2218C132.216 20.2219 132.322 20.2337 132.425 20.2569C132.731 20.3279 133.004 20.5005 133.198 20.7463C133.393 20.9921 133.498 21.2966 133.496 21.6098L133.394 33.9728C133.394 33.9728 140.552 31.0873 139.171 36.0372C137.79 40.9871 133.508 48.0483 133.508 48.0483L132.966 58.0732L132.276 70.9758L131.397 87.3191L131.004 94.7166L130.883 96.9335L134.85 92.6326L136.812 90.5017L151.25 108.898Z" fill="#315D80"/>
<path d="M132.969 58.0745L132.279 70.9771L131.4 87.3204C124.548 76.7285 118.264 66.9421 115.141 61.9062C115.282 60.9444 115.421 60.0151 115.557 59.1184C116.675 51.8304 117.629 46.9978 117.629 46.9978C117.15 42.697 118.5 36.6093 118.995 34.5723L122.169 41.7625L124.858 38.1537C125.129 37.7984 125.513 37.5461 125.948 37.4387C126.383 37.3314 126.841 37.3755 127.248 37.5636C127.654 37.7518 127.983 38.0727 128.181 38.4731C128.378 38.8734 128.433 39.3292 128.335 39.7646L125.945 49.8442L132.969 58.0745Z" fill="#254966"/>
<path d="M150.089 110.216C146.231 114.447 133.426 127.252 121.637 125.183C111.284 123.361 111.131 99.7693 113.073 78.9648C113.073 78.9648 113.627 100.524 115.283 107.718C116.939 114.912 117.712 124.871 127.841 121.973C136.812 119.405 143.123 116.84 140.588 105.466C139.202 99.2141 144.351 103.859 150.089 110.216Z" fill="#254966"/>
<path d="M132.275 70.9563L131 94.7166L114.125 69.2477C114.588 65.5607 115.079 62.12 115.542 59.1016L132.275 70.9563Z" fill="#254966"/>
<path d="M235.316 152.325L164.625 164.446L164.009 159.863L159.264 124.467L158.938 122.035L157.074 108.124L153.577 111.975L136.828 90.5177C136.828 90.5177 142.012 84.6529 146.184 80.9464C147.628 79.6679 148.951 78.6513 149.896 78.229C152.545 77.0561 160.492 74.4325 164.766 73.0602C166.43 72.5245 167.513 72.1805 167.513 72.1805L194.733 69.248C194.733 69.248 196.244 69.3927 198.575 69.6742C205.349 70.4914 219.037 72.4776 222.6 75.4765C225.548 77.9632 226.132 87.3273 226.297 95.7413C226.411 100.996 226.364 105.88 226.65 108.491C227.4 115.299 235.316 152.325 235.316 152.325Z" fill="#EA4B62"/>
<path d="M169.993 100.44L158.934 102.642L146.18 80.9654C147.624 79.6869 148.946 78.6703 149.892 78.248L169.993 100.44Z" fill="#DA3A51"/>
<path d="M196.404 111.423C196.404 111.423 183.63 119.13 179.49 120.917C175.777 122.52 167.505 127.114 159.263 124.467L158.938 122.035L192.95 105.465L196.404 111.423Z" fill="#DA3A51"/>
<path d="M235.307 152.326L164.616 164.446L164 159.864C168.957 164.403 231.394 150.918 231.253 148.58C231.112 146.242 224.766 113.368 224.075 110.263C223.384 107.159 224.075 103.589 222.788 102.627C221.501 101.666 199.838 112.125 199.186 112.437L226.3 95.75C226.414 101.005 226.367 105.888 226.654 108.5C227.391 115.299 235.307 152.326 235.307 152.326Z" fill="#DA3A51"/>
<path d="M226.306 95.7493L220.089 99.7803L198.603 112.8L183.922 86.1075C191.053 88.8444 202.194 105.739 204.035 105.465C205.875 105.192 219.305 97.3132 221.875 94.717C224.446 92.1209 224.449 85.1965 222.609 75.4766C225.556 77.9632 226.129 87.3274 226.306 95.7493Z" fill="#DA3A51"/>
<path d="M206.228 74.1934L183.906 86.1067" stroke="black" stroke-width="3" stroke-miterlimit="10"/>
<path d="M222.788 98.1309L198.578 112.801" stroke="black" stroke-width="3" stroke-miterlimit="10"/>
<path d="M168.657 157.08C167.919 157.08 167.42 156.47 167.04 156.009C166.714 155.618 166.471 155.337 166.282 155.372L166.031 154.226C166.934 154.031 167.523 154.746 167.95 155.266C168.28 155.657 168.527 155.939 168.708 155.9C168.888 155.86 169.002 155.509 169.136 155.008C169.308 154.359 169.547 153.468 170.45 153.272C171.353 153.077 171.941 153.792 172.369 154.312C172.695 154.703 172.938 154.985 173.127 154.946C173.315 154.906 173.421 154.555 173.554 154.054C173.727 153.405 173.947 152.514 174.869 152.318C175.791 152.123 176.36 152.838 176.788 153.358C177.114 153.749 177.361 154.031 177.545 153.992L177.797 155.141C176.89 155.333 176.305 154.621 175.878 154.101C175.548 153.71 175.309 153.429 175.116 153.464C174.924 153.499 174.822 153.855 174.692 154.355C174.516 155.008 174.3 155.9 173.374 156.095C172.448 156.291 171.887 155.575 171.459 155.055C171.129 154.664 170.878 154.383 170.697 154.418C170.517 154.453 170.407 154.809 170.274 155.309C170.101 155.962 169.861 156.854 168.959 157.045C168.86 157.068 168.758 157.08 168.657 157.08Z" fill="white"/>
<path d="M207.43 143.797C206.692 143.797 206.19 143.187 205.813 142.726C205.484 142.335 205.244 142.049 205.052 142.089L204.805 140.943C205.707 140.747 206.296 141.463 206.724 141.983C207.05 142.374 207.297 142.655 207.481 142.616C207.666 142.577 207.775 142.225 207.905 141.725C208.082 141.076 208.317 140.184 209.224 139.989C210.13 139.793 210.711 140.509 211.139 141.029C211.468 141.42 211.712 141.701 211.896 141.662C212.081 141.623 212.191 141.271 212.324 140.771C212.497 140.122 212.736 139.23 213.638 139.035C214.541 138.839 215.13 139.555 215.558 140.075C215.887 140.466 216.138 140.747 216.319 140.708L216.566 141.858C215.663 142.049 215.075 141.338 214.647 140.818C214.321 140.427 214.086 140.145 213.89 140.181C213.693 140.216 213.595 140.572 213.462 141.072C213.289 141.725 213.05 142.616 212.147 142.812C211.245 143.007 210.656 142.292 210.228 141.772C209.902 141.381 209.655 141.099 209.471 141.135C209.286 141.17 209.176 141.526 209.043 142.026C208.87 142.679 208.651 143.57 207.728 143.762C207.63 143.785 207.531 143.797 207.43 143.797Z" fill="white"/>
<path d="M202.969 115.741C202.231 115.741 201.729 115.131 201.352 114.669C201.027 114.278 200.787 113.997 200.595 114.032L200.344 112.886C201.246 112.691 201.835 113.406 202.263 113.926C202.592 114.317 202.84 114.599 203.02 114.56C203.201 114.521 203.314 114.169 203.448 113.668C203.621 113.019 203.84 112.128 204.763 111.932C205.685 111.737 206.254 112.452 206.682 112.972C207.007 113.363 207.258 113.645 207.439 113.606C207.619 113.567 207.733 113.215 207.867 112.714C208.04 112.065 208.259 111.174 209.182 110.978C210.104 110.783 210.673 111.498 211.1 112.018C211.426 112.409 211.674 112.691 211.858 112.652L212.109 113.801C211.203 113.993 210.618 113.281 210.19 112.761C209.864 112.37 209.625 112.089 209.429 112.124C209.233 112.159 209.134 112.515 209.005 113.015C208.828 113.668 208.593 114.579 207.686 114.755C206.78 114.931 206.199 114.235 205.771 113.715C205.441 113.324 205.194 113.043 205.01 113.078C204.825 113.113 204.72 113.469 204.586 113.969C204.413 114.622 204.174 115.533 203.271 115.705C203.172 115.728 203.071 115.74 202.969 115.741Z" fill="white"/>
<path d="M164.317 91.0102C163.579 91.0102 163.081 90.4003 162.7 89.9389C162.374 89.5479 162.127 89.2664 161.943 89.3055L161.695 88.1599C162.598 87.9605 163.183 88.676 163.61 89.196C163.94 89.587 164.183 89.8685 164.368 89.8333C164.552 89.7981 164.662 89.4423 164.796 88.9419C164.968 88.2889 165.208 87.4014 166.11 87.2059C167.013 87.0104 167.602 87.722 168.029 88.242C168.355 88.633 168.594 88.9145 168.787 88.8793C168.979 88.8441 169.081 88.4883 169.215 87.9879C169.387 87.3388 169.607 86.4474 170.529 86.2519C171.452 86.0564 172.02 86.768 172.448 87.288C172.774 87.679 173.017 87.9644 173.206 87.9253L173.457 89.0709C172.554 89.2664 171.966 88.5548 171.538 88.0348C171.208 87.6438 170.957 87.3584 170.776 87.3975C170.596 87.4366 170.482 87.7885 170.353 88.2889C170.18 88.938 169.941 89.8294 169.038 90.0249C168.135 90.2204 167.547 89.5088 167.119 88.9849C166.793 88.5939 166.55 88.3124 166.362 88.3515C166.173 88.3906 166.067 88.7425 165.934 89.2429C165.761 89.892 165.522 90.7834 164.619 90.9789C164.52 91.0005 164.418 91.011 164.317 91.0102Z" fill="white"/>
<path d="M148.668 85.0169C147.935 85.0169 147.432 84.407 147.052 83.9456C146.726 83.5547 146.483 83.2731 146.294 83.3083L146.047 82.1627C146.949 81.9672 147.534 82.6828 147.962 83.2028C148.292 83.5938 148.535 83.8753 148.723 83.8401C148.912 83.8049 149.014 83.4491 149.147 82.9486C149.32 82.2957 149.559 81.4042 150.462 81.2087C151.364 81.0132 151.953 81.7287 152.381 82.2488C152.707 82.6397 152.95 82.9213 153.138 82.8861C153.327 82.8509 153.433 82.4951 153.566 81.9946C153.739 81.3417 153.959 80.4502 154.881 80.2586C155.803 80.0671 156.372 80.7747 156.8 81.2947C157.126 81.6857 157.369 81.9672 157.557 81.9321L157.808 83.0776C156.906 83.2731 156.317 82.5576 155.889 82.0376C155.564 81.6466 155.309 81.3651 155.132 81.4042C154.955 81.4433 154.838 81.7952 154.704 82.2957C154.532 82.9447 154.292 83.8362 153.389 84.0317C152.487 84.2272 151.898 83.5116 151.471 82.9916C151.145 82.6006 150.901 82.3152 150.713 82.3582C150.525 82.4012 150.419 82.7492 150.285 83.2497C150.113 83.8987 149.873 84.7902 148.971 84.9857C148.871 85.0053 148.77 85.0158 148.668 85.0169Z" fill="white"/>
<path d="M191.805 130.672C191.067 130.672 190.565 130.062 190.188 129.601C189.859 129.21 189.611 128.928 189.431 128.968L189.18 127.818C190.086 127.623 190.671 128.338 191.099 128.858C191.424 129.249 191.668 129.535 191.856 129.495C192.044 129.456 192.15 129.104 192.284 128.604C192.456 127.951 192.676 127.06 193.599 126.868C194.521 126.676 195.086 127.384 195.518 127.904C195.843 128.295 196.083 128.577 196.275 128.541C196.467 128.506 196.569 128.15 196.703 127.65C196.875 126.997 197.095 126.109 198.017 125.914C198.94 125.718 199.505 126.43 199.936 126.95C200.262 127.341 200.498 127.627 200.694 127.587L200.941 128.733C200.038 128.928 199.454 128.213 199.026 127.693C198.696 127.302 198.449 127.02 198.265 127.06C198.08 127.099 197.97 127.451 197.837 127.951C197.664 128.6 197.445 129.492 196.522 129.687C195.6 129.883 195.035 129.167 194.603 128.647C194.277 128.256 194.038 127.974 193.846 128.014C193.653 128.053 193.551 128.405 193.422 128.905C193.249 129.554 193.01 130.446 192.107 130.641C192.008 130.662 191.907 130.673 191.805 130.672Z" fill="white"/>
<path d="M173.657 122.961C172.923 122.961 172.421 122.351 172.04 121.89C171.714 121.499 171.471 121.217 171.282 121.253L171.031 120.107C171.934 119.912 172.523 120.623 172.95 121.147C173.28 121.538 173.527 121.82 173.708 121.78C173.888 121.741 174.002 121.389 174.136 120.889C174.308 120.24 174.548 119.349 175.45 119.153C176.353 118.958 176.942 119.673 177.369 120.193C177.695 120.584 177.938 120.866 178.127 120.826C178.315 120.787 178.421 120.435 178.555 119.935C178.727 119.286 178.947 118.394 179.869 118.199C180.791 118.004 181.36 118.719 181.788 119.239C182.114 119.63 182.365 119.912 182.546 119.872L182.797 121.022C181.894 121.217 181.306 120.502 180.878 119.982C180.552 119.591 180.313 119.309 180.116 119.345C179.92 119.38 179.822 119.736 179.693 120.236C179.516 120.889 179.281 121.78 178.374 121.976C177.467 122.171 176.887 121.456 176.459 120.936C176.129 120.545 175.878 120.26 175.701 120.299C175.525 120.338 175.407 120.69 175.274 121.19C175.101 121.843 174.881 122.734 173.959 122.926C173.86 122.949 173.759 122.961 173.657 122.961Z" fill="white"/>
<path d="M216.352 130.672C215.614 130.672 215.112 130.062 214.735 129.601C214.41 129.21 214.162 128.928 213.978 128.968L213.727 127.818C214.633 127.623 215.218 128.338 215.646 128.858C215.975 129.249 216.219 129.535 216.403 129.495C216.588 129.456 216.697 129.104 216.831 128.604C217.004 127.951 217.243 127.06 218.146 126.868C219.048 126.676 219.637 127.384 220.065 127.904C220.39 128.295 220.638 128.577 220.822 128.541C221.006 128.506 221.116 128.15 221.25 127.65C221.423 126.997 221.642 126.109 222.564 125.914C223.487 125.718 224.056 126.43 224.483 126.95C224.809 127.341 225.053 127.627 225.241 127.587L225.492 128.733C224.589 128.928 224.001 128.213 223.573 127.693C223.243 127.302 222.992 127.02 222.812 127.06C222.631 127.099 222.517 127.451 222.388 127.951C222.211 128.6 221.976 129.492 221.069 129.687C220.163 129.883 219.582 129.167 219.154 128.647C218.824 128.256 218.585 127.974 218.397 128.014C218.208 128.053 218.102 128.405 217.969 128.905C217.796 129.554 217.576 130.446 216.654 130.641C216.555 130.663 216.454 130.673 216.352 130.672Z" fill="white"/>
<path d="M225.297 149.226C224.56 149.226 224.057 148.616 223.681 148.154C223.355 147.763 223.108 147.482 222.923 147.517L222.672 146.371C223.574 146.18 224.163 146.891 224.591 147.411C224.917 147.802 225.168 148.084 225.348 148.045C225.529 148.006 225.643 147.654 225.776 147.157C225.949 146.504 226.169 145.593 227.091 145.417C228.013 145.241 228.578 145.937 229.01 146.457C229.336 146.848 229.583 147.134 229.767 147.095C229.952 147.056 230.062 146.704 230.195 146.203C230.368 145.55 230.587 144.639 231.51 144.463C232.432 144.287 232.997 144.983 233.429 145.503C233.755 145.894 234.002 146.176 234.186 146.141L234.433 147.286C233.535 147.482 232.946 146.766 232.518 146.246C232.189 145.855 231.942 145.57 231.757 145.613C231.573 145.656 231.463 146.004 231.329 146.504C231.157 147.153 230.937 148.045 230.014 148.24C229.092 148.436 228.527 147.72 228.099 147.2C227.77 146.809 227.526 146.528 227.338 146.567C227.15 146.606 227.044 146.958 226.914 147.458C226.742 148.107 226.502 148.999 225.599 149.194C225.5 149.214 225.399 149.224 225.297 149.226Z" fill="white"/>
<path d="M195.329 158.889C194.591 158.889 194.092 158.275 193.712 157.818C193.386 157.427 193.143 157.145 192.954 157.18L192.703 156.035C193.606 155.839 194.194 156.551 194.622 157.075C194.952 157.466 195.203 157.747 195.38 157.708C195.556 157.669 195.674 157.317 195.807 156.817C195.98 156.168 196.22 155.276 197.122 155.081C198.025 154.885 198.613 155.597 199.041 156.121C199.367 156.512 199.614 156.793 199.799 156.754C199.983 156.715 200.093 156.363 200.226 155.863C200.399 155.214 200.619 154.322 201.541 154.127C202.463 153.931 203.032 154.647 203.46 155.167C203.786 155.558 204.033 155.839 204.217 155.8L204.469 156.946C203.562 157.141 202.977 156.43 202.549 155.91C202.22 155.519 201.98 155.233 201.788 155.272C201.596 155.311 201.494 155.663 201.364 156.164C201.188 156.817 200.952 157.704 200.046 157.9C199.139 158.095 198.558 157.384 198.131 156.864C197.801 156.473 197.554 156.187 197.369 156.226C197.185 156.265 197.079 156.617 196.945 157.118C196.773 157.767 196.533 158.658 195.631 158.854C195.532 158.877 195.43 158.888 195.329 158.889Z" fill="white"/>
<path d="M181.981 145.608C181.247 145.608 180.745 144.994 180.364 144.533C180.038 144.142 179.791 143.864 179.607 143.899L179.359 142.754C180.258 142.558 180.847 143.27 181.274 143.79C181.604 144.181 181.851 144.466 182.032 144.427C182.212 144.388 182.326 144.036 182.46 143.536C182.632 142.887 182.872 141.995 183.774 141.8C184.677 141.604 185.266 142.316 185.693 142.84C186.019 143.231 186.262 143.512 186.451 143.473C186.639 143.434 186.745 143.082 186.879 142.582C187.051 141.933 187.271 141.041 188.193 140.846C189.116 140.65 189.685 141.362 190.112 141.886C190.438 142.277 190.685 142.554 190.87 142.519L191.121 143.665C190.218 143.86 189.63 143.149 189.202 142.629C188.876 142.238 188.637 141.952 188.444 141.991C188.252 142.03 188.146 142.382 188.017 142.883C187.844 143.536 187.605 144.423 186.702 144.619C185.799 144.814 185.211 144.103 184.783 143.583C184.453 143.192 184.21 142.906 184.026 142.945C183.841 142.984 183.731 143.336 183.598 143.837C183.425 144.486 183.186 145.377 182.283 145.573C182.184 145.595 182.083 145.607 181.981 145.608Z" fill="white"/>
<path d="M164.489 138.481C163.755 138.481 163.253 137.867 162.872 137.406C162.546 137.015 162.295 136.733 162.114 136.772L161.867 135.627C162.77 135.427 163.354 136.143 163.782 136.663C164.112 137.054 164.359 137.335 164.54 137.3C164.72 137.265 164.834 136.909 164.967 136.409C165.14 135.76 165.38 134.868 166.282 134.673C167.185 134.477 167.774 135.189 168.201 135.709C168.527 136.1 168.77 136.381 168.959 136.346C169.147 136.311 169.253 135.955 169.386 135.455C169.559 134.806 169.779 133.914 170.701 133.719C171.623 133.523 172.192 134.235 172.62 134.755C172.946 135.146 173.193 135.431 173.378 135.392L173.629 136.538C172.722 136.733 172.137 136.022 171.71 135.502C171.384 135.111 171.145 134.825 170.948 134.864C170.752 134.903 170.654 135.255 170.524 135.756C170.352 136.405 170.112 137.296 169.21 137.492C168.307 137.687 167.719 136.976 167.291 136.452C166.961 136.061 166.718 135.779 166.533 135.818C166.349 135.857 166.239 136.209 166.106 136.71C165.933 137.359 165.694 138.25 164.791 138.446C164.692 138.469 164.59 138.48 164.489 138.481Z" fill="white"/>
<path d="M214.485 99.3305C213.747 99.3305 213.245 98.7206 212.868 98.2592C212.538 97.8682 212.295 97.5906 212.111 97.6258L211.859 96.4802C212.766 96.2808 213.351 96.9963 213.778 97.5163C214.104 97.9073 214.351 98.1888 214.536 98.1536C214.72 98.1184 214.83 97.7626 214.964 97.2622C215.136 96.6131 215.356 95.7217 216.278 95.5262C217.2 95.3307 217.766 96.0423 218.193 96.5623C218.523 96.9533 218.774 97.2387 218.955 97.1996C219.135 97.1605 219.249 96.8086 219.379 96.3082C219.551 95.6591 219.771 94.7677 220.697 94.5722C221.623 94.3767 222.185 95.0883 222.612 95.6083C222.942 95.9993 223.181 96.2847 223.374 96.2456L223.621 97.3912C222.718 97.5906 222.13 96.8751 221.702 96.3512C221.376 95.9602 221.125 95.6787 220.944 95.7178C220.764 95.7569 220.65 96.1088 220.517 96.6092C220.344 97.2583 220.124 98.1497 219.202 98.3452C218.28 98.5407 217.711 97.8291 217.283 97.3052C216.957 96.9142 216.714 96.6327 216.526 96.6718C216.337 96.7109 216.231 97.0628 216.102 97.5632C215.925 98.2123 215.69 99.1037 214.783 99.2992C214.685 99.3208 214.585 99.3313 214.485 99.3305Z" fill="white"/>
<path d="M194.579 92.8216C193.841 92.8216 193.338 92.2117 192.958 91.7503C192.632 91.3593 192.385 91.0778 192.2 91.1169L191.953 89.9674C192.856 89.7719 193.444 90.4874 193.872 91.0075C194.198 91.3984 194.449 91.6839 194.63 91.6448C194.81 91.6057 194.924 91.2538 195.053 90.7533C195.226 90.1004 195.446 89.2089 196.368 89.0134C197.29 88.8179 197.859 89.5334 198.287 90.0534C198.613 90.4444 198.856 90.7259 199.044 90.6908C199.233 90.6556 199.339 90.2998 199.472 89.7993C199.645 89.1464 199.884 88.2549 200.787 88.0633C201.69 87.8717 202.278 88.5794 202.706 89.0994C203.032 89.4904 203.283 89.7719 203.467 89.7367L203.715 90.8823C202.812 91.0778 202.223 90.3623 201.796 89.8423C201.47 89.4513 201.23 89.1698 201.038 89.2089C200.846 89.248 200.744 89.5999 200.61 90.1004C200.438 90.7494 200.198 91.6409 199.296 91.8364C198.393 92.0318 197.804 91.3163 197.377 90.7963C197.051 90.4053 196.8 90.1238 196.619 90.1629C196.439 90.202 196.325 90.5539 196.191 91.0544C196.019 91.7034 195.799 92.5949 194.877 92.7904C194.778 92.81 194.679 92.8205 194.579 92.8216Z" fill="white"/>
<path d="M211.934 81.3618C211.2 81.3618 210.698 80.7479 210.317 80.2905C209.937 79.833 209.74 79.618 209.56 79.6531L209.312 78.5075C210.215 78.312 210.8 79.0237 211.228 79.5437C211.557 79.9347 211.801 80.2201 211.989 80.181C212.177 80.1419 212.28 79.79 212.413 79.2895C212.586 78.6405 212.825 77.749 213.727 77.5535C214.63 77.358 215.219 78.0696 215.647 78.5936C215.972 78.9845 216.216 79.2661 216.404 79.227C216.592 79.1879 216.698 78.836 216.832 78.3355C217.004 77.6865 217.244 76.795 218.146 76.5995C219.049 76.404 219.638 77.1156 220.066 77.6396C220.391 78.0305 220.642 78.3121 220.823 78.273L221.074 79.4185C220.171 79.614 219.583 78.9024 219.155 78.3824C218.825 77.9914 218.578 77.706 218.398 77.7451C218.217 77.7842 218.103 78.1361 217.97 78.6366C217.797 79.2895 217.577 80.1771 216.655 80.3726C215.733 80.568 215.164 79.8565 214.736 79.3364C214.41 78.9455 214.167 78.66 213.979 78.6991C213.79 78.7382 213.684 79.0901 213.551 79.5906C213.378 80.2396 213.139 81.1311 212.236 81.3266C212.137 81.3494 212.036 81.3612 211.934 81.3618Z" fill="white"/>
<path d="M198.583 112.8C196.099 112.62 194.219 109.511 194.219 109.511L197.821 107.717C198.337 109.362 198.594 111.076 198.583 112.8Z" fill="#000001"/>
<path d="M155.01 29.2808L155.637 33.1906C155.681 33.4662 155.623 33.7483 155.474 33.9842C155.324 34.2202 155.094 34.394 154.825 34.4731L47.8492 65.5409L42.4531 31.8339L47.7157 31.6658L152.07 28.358L153.836 28.3033C154.118 28.2945 154.393 28.3892 154.61 28.5695C154.826 28.7497 154.968 29.0028 155.01 29.2808Z" fill="#C06A87"/>
<path d="M155.01 29.2808L155.637 33.1906C155.681 33.4662 155.623 33.7483 155.474 33.9842C155.324 34.2202 155.094 34.394 154.825 34.4731L47.8492 65.5409L42.4531 31.8339L47.7157 31.6658C50.3243 33.1282 52.5435 35.1921 54.1869 37.6846C55.8304 40.177 56.8505 43.0255 57.1619 45.9916C58.4059 56.3801 56.6791 58.6048 57.256 59.6253C57.8329 60.6458 152.172 34.2111 152.836 33.1476C153.499 32.0841 154.656 30.5554 152.07 28.358L153.836 28.3033C154.118 28.2945 154.393 28.3892 154.61 28.5695C154.826 28.7497 154.968 29.0028 155.01 29.2808Z" fill="#AE5E79"/>
<path d="M47.824 65.3686C53.697 64.4345 57.249 56.1319 55.7576 46.8241C54.2662 37.5164 48.2962 30.7281 42.4232 31.6622C36.5502 32.5963 32.9981 40.8989 34.4895 50.2067C35.9809 59.5145 41.9511 66.3027 47.824 65.3686Z" fill="#AE5E79"/>
<path d="M61.6829 34.3637C60.5055 34.5553 59.1477 34.9032 58.6493 35.9902C58.1077 37.1631 58.9752 38.6098 60.1564 39.1611C61.3377 39.7124 62.7033 39.6185 64.0023 39.513L97.5914 36.8034C102.575 36.4124 107.862 36.4476 112.771 35.5093C114.172 35.2395 115.883 34.4653 114.792 32.7724C113.788 31.2084 111.103 32.3423 109.596 32.526C99.3928 33.7772 89.1186 33.1282 78.8837 33.1829C73.1344 33.2103 67.3654 33.4527 61.6829 34.3637Z" fill="#D67797"/>
<path d="M47.9183 63.9688C53.3226 63.1093 56.5913 55.4704 55.2191 46.9068C53.847 38.3432 48.3536 32.0979 42.9493 32.9574C37.5451 33.8169 34.2764 41.4558 35.6486 50.0194C37.0207 58.583 42.5141 64.8283 47.9183 63.9688Z" fill="white"/>
<path d="M48.9479 63.8997C48.6184 64.0062 48.2813 64.0872 47.9394 64.1421C42.5354 65.0023 37.0411 58.7582 35.6715 50.1917C34.3019 41.6251 37.567 33.9931 42.971 33.1329C43.3136 33.0784 43.6601 33.0509 44.0071 33.0508C39.2154 34.6421 36.4329 41.8519 37.728 49.8632C39.0231 57.8746 43.8971 63.8723 48.9479 63.8997Z" fill="#E6E6E6"/>
<path d="M77.5841 57.2729L75.6219 57.1047C75.9674 52.8624 75.7921 48.5938 75.0999 44.3937C74.3976 39.8787 73.1032 35.475 71.25 31.2957L73.0396 30.4902C74.9619 34.8286 76.3063 39.399 77.0385 44.0849C77.7601 48.4422 77.9434 52.8712 77.5841 57.2729Z" fill="white"/>
<path d="M106.781 29.793C108.722 35.5171 109.732 41.5137 109.772 47.5555" stroke="white" stroke-width="5" stroke-miterlimit="10"/>
<path d="M141.597 38.0792C141.479 36.699 141.311 35.2954 141.087 33.8996C140.82 32.2261 140.475 30.5605 140.062 28.9497L141.966 28.4688C142.39 30.1383 142.751 31.8625 143.026 33.5946C143.253 35.0334 143.418 36.4879 143.551 37.8955L141.597 38.0792Z" fill="white"/>
<path d="M197.821 107.717L194.218 109.512L172.909 120.112C168.176 122.467 162.738 123.003 157.634 121.618C152.53 120.232 148.117 117.022 145.237 112.601C141.662 107.127 137.51 100.727 133.339 94.291C122.762 77.9829 112.045 61.3425 110.204 58.0543C107.849 53.8434 104.223 42.0981 104.223 42.0981L98.5603 29.2151C98.4225 28.8959 98.408 28.5372 98.5197 28.208C98.6314 27.8788 98.8615 27.6025 99.1655 27.4321C99.4695 27.2618 99.826 27.2095 100.166 27.2853C100.507 27.3611 100.807 27.5596 101.009 27.8427L108.273 38.1726L101.778 24.6601C101.696 24.4936 101.654 24.3101 101.657 24.1244C101.658 23.858 101.744 23.5989 101.905 23.3856C102.065 23.1723 102.29 23.0161 102.546 22.9401C102.803 22.8642 103.077 22.8726 103.328 22.9641C103.579 23.0556 103.794 23.2253 103.941 23.448L112.045 35.8619L108.419 23.0258C108.334 22.7192 108.369 22.3923 108.516 22.1102C108.663 21.8282 108.912 21.6118 109.212 21.5042C109.512 21.3967 109.842 21.4058 110.136 21.5298C110.43 21.6539 110.665 21.8837 110.797 22.1734L119.058 40.89L121.746 37.2811C121.993 36.9529 122.337 36.7104 122.73 36.5881C123.124 36.4658 123.545 36.4697 123.936 36.5995C124.327 36.7292 124.667 36.9782 124.907 37.311C125.148 37.6439 125.278 38.0438 125.278 38.4541C125.278 38.6067 125.261 38.7589 125.227 38.9077L122.837 48.9834L163.604 96.9223L183.901 86.0959C183.901 86.0959 194.811 97.4854 197.821 107.717Z" fill="#315D80"/>
<path d="M164.218 96.7935L163.266 97.4824L167.408 103.169L168.361 102.48L164.218 96.7935Z" fill="white"/>
<path d="M116.955 53.4675L116.562 52.3688C118.474 51.6728 122.449 48.5606 122.477 48.5293L123.207 49.4481C123.026 49.5811 119.043 52.7129 116.955 53.4675Z" fill="white"/>
<path d="M197.826 107.717L194.223 109.512L172.914 120.112C168.181 122.467 162.744 123.003 157.639 121.617C152.535 120.232 148.122 117.022 145.243 112.601C141.667 107.127 137.515 100.726 133.344 94.2908C133.575 94.6036 148.257 117.289 158.986 119.314C171.795 121.73 192.952 107.721 192.952 105.469C192.952 101.95 183.906 86.1113 183.906 86.1113C183.906 86.1113 194.816 97.4851 197.826 107.717Z" fill="#254966"/>
<path d="M232.109 190.658C223.805 201.934 90.4374 263.562 90.4374 263.562C90.4374 263.562 86.2971 247.605 73.5938 239.625L187.638 172.766L193.524 160.755L194.215 159.356L232.101 152.865C232.101 152.865 240.413 179.378 232.109 190.658Z" fill="#F1D15B"/>
<path d="M90.43 263.561C88.4172 262.62 86.4931 261.502 84.6808 260.218C77.9465 255.421 75.2622 249.689 74.2144 245.49C73.6987 243.58 73.4868 241.601 73.5864 239.625C75.043 240.543 76.4212 241.578 77.7071 242.722C83.0875 247.48 86.4546 253.532 88.3618 257.888C89.1879 259.727 89.8791 261.623 90.43 263.561Z" fill="#000001"/>
<path d="M232.109 190.658C223.805 201.934 90.4374 263.562 90.4374 263.562C90.4374 263.562 86.2971 247.605 73.5938 239.625C87.9532 246.225 92.0974 257.22 95.1977 256.406C98.298 255.593 221.329 193.684 228.558 185.431C235.786 177.177 230.163 160.669 228.558 158.3C227.714 157.057 210.07 158.816 193.536 160.763L194.227 159.363L232.113 152.873C232.113 152.873 240.413 179.378 232.109 190.658Z" fill="#D0B241"/>
<path d="M80.375 235.637C88.9864 241.416 95.0303 250.281 97.25 260.386" stroke="white" stroke-width="3" stroke-miterlimit="10"/>
<path d="M94.5064 252.117L93.9766 251.07C95.1539 250.479 212.396 191.753 217.204 180.794C222.011 169.834 219.076 155.278 219.044 155.133L220.198 154.895C220.324 155.501 223.263 169.944 218.283 181.263C213.303 192.582 99.3334 249.693 94.5064 252.117Z" fill="white"/>
<path d="M88.3798 259.034L84.6124 261.223L74.5344 267.088C62.1135 264.723 60.4065 255.425 60.3438 255.136C63.6717 253.885 70.4962 249.158 74.711 246.143C75.6961 245.435 76.5359 244.818 77.1559 244.36C77.882 243.828 78.3059 243.508 78.3059 243.508C83.5175 248.434 86.657 254.608 88.3798 259.034Z" fill="#315D80"/>
<path d="M74.5347 267.079L67.8632 275.638L27.3984 259.94C30.4477 252.347 52.5423 258.052 60.3284 255.119C60.3637 255.119 61.9334 264.679 74.5347 267.079Z" fill="#EA4B62"/>
<path d="M88.3798 259.034L84.6124 261.223L74.5344 267.088C62.1135 264.723 60.4065 255.425 60.3438 255.136C63.0006 261.833 71.3047 263.616 73.4003 264.156C75.496 264.695 82.6501 260.746 83.6744 258.01C84.6986 255.273 81.673 252.426 77.1559 244.325C77.882 243.793 78.3059 243.473 78.3059 243.473C83.5175 248.434 86.657 254.608 88.3798 259.034Z" fill="#254966"/>
<path d="M153.728 13.8092C153.728 13.8092 151.687 25.316 155.714 26.7118C159.74 28.1076 163.606 13.1367 163.606 13.1367L153.728 13.8092Z" fill="#000001"/>
<path d="M192.049 49.6119L194.742 69.2434C194.742 69.2434 196.253 69.3881 198.584 69.6696C198.584 69.6696 198.584 72.7975 195.632 75.726C193.572 77.7748 190.075 79.7375 184.142 80.4921L183.098 80.6094H182.96C175.112 81.3523 170.614 79.6984 168.048 77.7474C165.198 75.5774 164.755 73.0555 164.755 73.0555C166.419 72.5199 167.502 72.1758 167.502 72.1758L166.258 59.1481C166.258 59.1481 159.265 60.2507 157.232 56.2157C155.419 52.5952 155.662 22.149 155.748 15.8893C155.748 15.166 155.748 14.7672 155.748 14.7672L187.78 13.1133V30.176C187.78 30.176 194.039 24.491 199.781 29.351C206.566 35.0633 203.097 50.8983 192.049 49.6119Z" fill="#315D80"/>
<path d="M160.468 31.0919C161.287 31.0919 161.951 30.1274 161.951 28.9375C161.951 27.7477 161.287 26.7832 160.468 26.7832C159.649 26.7832 158.984 27.7477 158.984 28.9375C158.984 30.1274 159.649 31.0919 160.468 31.0919Z" fill="black"/>
<path d="M156.904 23.4484C156.767 23.4481 156.634 23.4068 156.522 23.33C156.409 23.2532 156.323 23.1444 156.273 23.0178C156.223 22.8912 156.213 22.7527 156.244 22.6203C156.274 22.4879 156.344 22.3677 156.444 22.2755C157.426 21.373 158.656 20.7846 159.976 20.5864C161.174 20.415 162.396 20.5746 163.508 21.0478C163.674 21.1183 163.806 21.2516 163.873 21.4184C163.94 21.5852 163.938 21.7719 163.868 21.9373C163.797 22.1027 163.663 22.2333 163.495 22.3004C163.328 22.3675 163.141 22.3655 162.975 22.295C162.089 21.9194 161.117 21.7936 160.165 21.9314C159.114 22.088 158.134 22.5536 157.351 23.2686C157.229 23.3817 157.07 23.4458 156.904 23.4484Z" fill="black" stroke="black" stroke-miterlimit="10"/>
<path d="M175.275 31.2356C175.199 31.2357 175.124 31.2149 175.059 31.1756C174.994 31.1363 174.941 31.08 174.906 31.0128C173.949 29.1048 170.334 29.6443 170.299 29.6482C170.224 29.6667 170.145 29.6626 170.072 29.6366C170 29.6105 169.936 29.5636 169.89 29.5018C169.844 29.44 169.817 29.366 169.813 29.2891C169.809 29.2122 169.828 29.1359 169.867 29.0696C169.867 29.0305 171.743 25.3826 176.39 27.2202C176.441 27.2382 176.487 27.2665 176.527 27.3034C176.566 27.3403 176.598 27.3849 176.619 27.4345C176.641 27.4841 176.651 27.5375 176.651 27.5915C176.651 27.6455 176.639 27.6988 176.617 27.748C176.599 27.7989 176.571 27.8455 176.534 27.8849C176.497 27.9243 176.452 27.9556 176.402 27.9769C176.352 27.9982 176.299 28.0091 176.244 28.0087C176.19 28.0083 176.137 27.9968 176.087 27.9748C173.34 26.8879 171.77 27.9748 171.068 28.7568C172.383 28.706 174.753 28.878 175.64 30.6374C175.687 30.7347 175.694 30.8462 175.659 30.9484C175.625 31.0506 175.552 31.1354 175.456 31.1848C175.4 31.2161 175.338 31.2335 175.275 31.2356Z" fill="black"/>
<path d="M176.587 25.3056C176.484 25.3062 176.381 25.2833 176.288 25.2386C176.195 25.1939 176.113 25.1285 176.049 25.0476C175.38 24.1874 174.424 23.5941 173.354 23.3747C172.283 23.1553 171.17 23.3243 170.214 23.8511C170.061 23.9081 169.893 23.9084 169.74 23.8519C169.587 23.7954 169.459 23.686 169.381 23.5436C169.302 23.4012 169.278 23.2354 169.312 23.0765C169.346 22.9176 169.436 22.7762 169.566 22.6782C170.806 21.9996 172.248 21.7843 173.633 22.071C175.018 22.3577 176.255 23.1276 177.121 24.2421C177.199 24.3419 177.249 24.4618 177.262 24.588C177.276 24.7143 177.254 24.8418 177.198 24.956C177.142 25.0702 177.055 25.1665 176.947 25.2339C176.839 25.3012 176.714 25.3369 176.587 25.3369V25.3056Z" fill="black" stroke="black" stroke-miterlimit="10"/>
<path d="M164.397 44.3312C163.876 44.3487 163.362 44.2053 162.925 43.9206C162.628 43.693 162.393 43.3949 162.24 43.0534C162.088 42.712 162.024 42.3381 162.054 41.9657C162.054 40.8553 162.525 40.304 162.921 40.0381C163.558 39.6733 164.313 39.5695 165.025 39.7488V32.6055H166.202V41.3792L165.398 41.0625C165.084 40.9413 164.075 40.6715 163.585 41.0039C163.451 41.1225 163.35 41.2719 163.288 41.439C163.226 41.606 163.207 41.7855 163.231 41.9618C163.231 42.6968 163.514 42.8963 163.624 42.9627C164.134 43.3224 165.131 43.0957 165.437 42.9901L165.829 44.0966C165.367 44.2481 164.884 44.3272 164.397 44.3312Z" fill="black"/>
<path d="M167.943 50.6334C167.263 50.6363 166.585 50.5455 165.93 50.3636L166.251 49.2376C167.025 49.4551 167.833 49.5177 168.631 49.4217C169.429 49.3257 170.199 49.0731 170.898 48.6784C172.009 48.0135 172.868 47.002 173.343 45.8008L174.438 46.2348C173.863 47.6747 172.831 48.8874 171.498 49.6872C170.42 50.3157 169.192 50.6426 167.943 50.6334Z" fill="white"/>
<path d="M166.281 59.1537C166.281 59.1537 180.802 57.4372 184.389 56.3347C187.976 55.2321 178.824 60.874 166.662 63.1417L166.281 59.1537Z" fill="#254966"/>
<path d="M199.056 37.4917C198.939 36.5305 198.556 35.6206 197.95 34.8637C197.344 34.1067 196.538 33.5326 195.624 33.2053C194.709 32.878 193.721 32.8104 192.77 33.0102C191.819 33.2099 190.942 33.6691 190.238 34.3365L189.453 33.4802C190.315 32.666 191.388 32.1062 192.551 31.863C193.713 31.6198 194.921 31.7029 196.039 32.1028C197.157 32.5028 198.142 33.2041 198.884 34.1286C199.626 35.053 200.096 36.1645 200.241 37.3392L199.056 37.4917Z" fill="black"/>
<path d="M194.12 32.2054L190.531 44.5293L191.662 44.8561L195.251 32.5323L194.12 32.2054Z" fill="black"/>
<path d="M192.049 49.6125C192.049 49.6125 189.565 49.3857 188.125 48.3535" stroke="#152838" stroke-width="2" stroke-miterlimit="10"/>
<path d="M187.809 13.1172V30.176C183.551 31.9159 183.139 20.9839 183.139 20.9839C167.123 22.9779 155.766 15.901 155.766 15.901C155.766 15.1777 155.766 14.7789 155.766 14.7789L187.809 13.1172Z" fill="#254966"/>
<path d="M200.327 12.2462C200.308 12.6372 200.265 13.2471 200.202 13.9666C199.907 17.3955 199.213 23.7412 198.867 26.7792C198.746 27.8544 198.671 28.523 198.671 28.523C196.749 27.5622 194.559 27.2704 192.451 27.6941C190.699 28.0675 189.089 28.9284 187.808 30.1769C184.312 31.5062 184.449 19.2644 184.449 19.2644C163.74 22.5644 144.812 12.5199 148.968 3.03064C151.048 -1.73549 156.327 -0.0112403 161.876 2.31513C166.256 4.14886 170.804 6.36185 174.096 6.06079C181.553 5.36874 190.799 0.00830988 191.627 7.43316C197.149 3.44509 200.461 9.22388 200.327 12.2462Z" fill="#000001"/>
</g>
<defs>
<clipPath id="clip0_1953_3643">
<rect width="339" height="312" fill="white"/>
</clipPath>
</defs>
</svg>
