<svg width="392" height="322" viewBox="0 0 392 322" fill="none" xmlns="http://www.w3.org/2000/svg">
<g clip-path="url(#clip0_1953_3728)">
<path d="M19.9253 231.968C16.5408 229.848 12.7153 228.532 8.7429 228.121C6.91548 227.933 4.91609 227.984 3.45314 229.093C3.28436 229.189 3.14442 229.33 3.04827 229.499C2.95212 229.668 2.90323 229.86 2.90639 230.055C2.98786 230.33 3.16807 230.566 3.41261 230.718C7.96851 234.191 14.8477 234.626 19.9149 231.968" fill="#E1E1E1"/>
<path d="M19.6361 231.651C17.105 229.676 14.5742 227.687 12.4127 225.297C10.2512 222.908 8.52476 220.073 7.88694 216.924C7.68951 215.967 7.62887 214.899 8.24138 214.119C14.0021 218.62 18.5224 224.431 19.6361 231.651Z" fill="#E1E1E1"/>
<path d="M19.869 231.923C19.4337 228.774 19.2766 225.539 20.0005 222.441C20.7244 219.342 22.4101 216.366 25.0626 214.619C26.075 216.943 25.6298 219.621 24.9262 222.051C23.8423 225.815 22.151 229.377 19.9194 232.596" fill="#E1E1E1"/>
<path d="M25.5045 242.037C22.0775 242.452 19.0905 244.26 16.5341 246.593C13.9634 248.935 12.1735 252.01 11.4062 255.402C14.7675 255.195 17.6178 252.825 19.6831 250.167C21.7484 247.51 23.1858 244.599 25.4536 242.108" fill="#E1E1E1"/>
<path d="M26.7338 243.653C25.3822 240.231 24.9056 236.525 25.3476 232.873C25.7896 229.22 27.1361 225.735 29.2648 222.734C31.2188 229.675 30.5 237.517 26.7338 243.653Z" fill="#E1E1E1"/>
<path d="M34.1902 252.533C31.0587 252.338 27.939 253.069 25.2198 254.634C22.5005 256.2 20.3019 258.531 18.8976 261.336C18.7052 261.716 18.5381 262.197 18.7962 262.536C18.9279 262.665 19.0889 262.759 19.2654 262.811C19.4418 262.863 19.6283 262.871 19.8086 262.835C22.8459 262.638 25.4934 260.81 27.6955 258.76C29.8975 256.709 31.8211 254.31 34.2762 252.523" fill="#E1E1E1"/>
<path d="M33.9541 252.051C32.349 246.883 32.2487 241.364 33.6654 236.14C34.2273 234.09 35.184 231.938 37.062 230.976C37.1361 230.928 37.2193 230.895 37.3063 230.88C37.3932 230.864 37.4821 230.866 37.5683 230.885C37.7212 230.967 37.8387 231.102 37.8975 231.265C38.5307 232.696 38.8053 234.26 38.6973 235.821C38.5844 237.377 38.344 238.921 37.9786 240.438C37.3863 243.263 37.0672 246.3 35.5182 248.735C35.1419 249.321 34.8038 249.929 34.5058 250.558C34.2172 251.176 34.212 251.393 33.9437 251.884" fill="#E1E1E1"/>
<path d="M53.6897 254.994C52.2268 249.425 53.7756 242.687 57.2836 238.125C57.5418 237.791 57.881 237.432 58.296 237.467C58.9389 237.528 59.106 238.389 59.0756 239.037C58.8108 244.757 56.9407 250.287 53.6793 254.994" fill="#E1E1E1"/>
<path d="M55.4688 256.207C62.2267 257.964 69.9816 256.258 75.6005 252.112C72.2315 250.419 68.3803 249.947 64.7022 250.775C61.0625 251.606 57.7366 253.241 55.4688 256.207Z" fill="#E1E1E1"/>
<path d="M56.9734 252.503C60.7548 246.332 68.0138 242.307 75.2425 241.938C74.4072 244.879 71.9928 247.167 69.2643 248.544C66.5359 249.921 63.4934 250.529 60.4966 251.111C59.3273 251.339 57.7276 251.587 56.9531 252.503" fill="#E1E1E1"/>
<path d="M54.0655 234.531C55.0779 231.022 56.1209 227.479 56.3993 223.829C56.6777 220.179 56.1613 216.377 54.2731 213.248C50.7296 220.087 50.3752 228.081 53.9592 234.9" fill="#E1E1E1"/>
<path d="M65.9688 228.515C70.1045 220.998 78.5377 214.999 87.0724 214.158C83.7821 222.354 74.8021 228.693 65.9688 228.515Z" fill="#E1E1E1"/>
<path d="M63.3594 229.989C69.525 230.926 74.7797 234.864 80.5404 237.254C81.7495 237.836 83.0894 238.092 84.428 237.998C85.7492 237.821 87.055 236.935 87.3486 235.634C87.4438 235.083 87.4016 234.518 87.225 233.988C87.0483 233.458 86.7427 232.98 86.3361 232.596C85.518 231.843 84.5576 231.262 83.5114 230.885C77.2395 228.273 70.5069 228.207 63.8957 229.792" fill="#E1E1E1"/>
<path d="M59.8125 234.312C61.2046 234.712 61.6804 235.435 62.789 236.377C66.5592 239.581 71.0185 241.872 75.819 243.07C76.3252 243.191 76.9679 243.242 77.216 242.791C77.464 242.341 77.1553 241.926 76.8769 241.571C74.852 239.065 72.0172 237.354 69.0103 236.23C66.0034 235.106 63.3965 233.765 59.8125 234.053" fill="#E1E1E1"/>
<path d="M55.7656 208.191C58.2923 210.527 61.2797 212.308 64.5358 213.421C67.792 214.533 71.2447 214.952 74.6724 214.651C74.9873 214.656 75.2933 214.546 75.5331 214.342C76.0089 213.836 75.4418 213.026 74.885 212.59C69.3167 208.257 62.5943 206.46 55.7706 208.216" fill="#E1E1E1"/>
<path d="M60.5469 206.443C63.8938 203.981 67.7753 202.345 71.8748 201.668C75.9744 200.992 80.1756 201.294 84.1361 202.55C81.1647 205.481 77.0492 207.056 72.8932 207.486C68.7484 207.864 64.5696 207.511 60.5469 206.443Z" fill="#E1E1E1"/>
<path d="M58.6489 194.441C58.1072 188.873 58.4612 184.514 58.0715 178.94C58.0411 178.494 57.9452 177.963 57.5301 177.801C56.9531 177.578 56.4667 178.307 56.2795 178.879C55.471 181.463 55.2637 184.197 55.6734 186.873C56.0831 189.549 57.0989 192.096 58.6434 194.32" fill="#E1E1E1"/>
<path d="M58.25 195.052C62.0061 192.728 64.8305 189.691 67.4374 186.122C69.2497 183.636 70.7835 180.664 70.3684 177.617C67.8374 177.561 65.3975 178.969 63.7422 180.907C62.0869 182.846 61.0999 185.266 60.3609 187.706C59.6218 190.147 59.1106 192.652 58.25 195.052Z" fill="#E1E1E1"/>
<path d="M67.2729 192.548C75.5435 189.483 83.2009 184.968 89.8853 179.213C87.1872 178.125 84.0941 178.773 81.391 179.866C75.2203 182.357 70.1783 186.559 67.1562 192.487" fill="#E1E1E1"/>
<path d="M60.7809 198.091C64.9572 198.547 69.1945 198.845 73.3403 198.152C77.4862 197.458 81.2572 195.858 85.0588 194.254C85.3918 194.161 85.6775 193.946 85.8587 193.651C85.9205 193.473 85.9261 193.28 85.8745 193.099C85.8229 192.918 85.7163 192.757 85.57 192.639C85.2731 192.406 84.9267 192.245 84.5576 192.168C80.4218 191.014 75.952 191.555 71.9023 192.927C68.0201 194.251 64.2874 195.978 60.7656 198.081" fill="#E1E1E1"/>
<path d="M36.952 208.383C34.1021 202.632 34.2892 195.924 36.7493 189.996C38.4806 192.634 38.6932 195.995 38.3743 199.139C38.0554 202.283 37.1037 205.513 37.043 208.667" fill="#E1E1E1"/>
<path d="M25.5641 202.641C22.0003 202.593 18.4661 203.288 15.1862 204.683C11.9064 206.077 8.95326 208.141 6.51562 210.741C10.0591 211.303 13.7189 210.387 16.9486 208.807C20.1782 207.228 23.0232 205.02 25.8883 202.823" fill="#E1E1E1"/>
<path d="M17.9201 200.084C14.4424 199.801 11.0962 199.371 7.75013 200.393C4.40407 201.416 1.36171 203.745 0 206.975C3.24988 207.339 6.55042 206.524 9.532 205.172C12.5136 203.821 15.227 201.947 17.9201 200.11" fill="#E1E1E1"/>
<path d="M29.2547 200.201C26.1212 198.176 22.9116 196.06 19.2669 195.209C15.6221 194.359 11.4006 194.992 8.85938 197.741C11.8106 199.472 15.3897 199.68 18.8066 199.675C22.2236 199.67 26.3994 199.634 29.6442 200.773" fill="#E1E1E1"/>
<path d="M29.2659 200.363C23.9152 195.114 21.8902 185.682 24.0416 178.488C28.2657 184.954 30.1125 192.686 29.2659 200.363Z" fill="#E1E1E1"/>
<path d="M43.9844 185.48C44.9968 183.136 45.7008 180.671 46.6069 178.281C47.513 175.892 48.6316 173.548 50.3476 171.649C52.0637 169.751 54.3972 168.343 56.9738 168.217C56.1537 171.835 54.5877 175.243 52.3754 178.222C50.1632 181.2 47.3534 183.685 44.1263 185.515" fill="#E1E1E1"/>
<path d="M41.3163 188.584C39.6458 186.285 37.7172 183.162 35.4494 181.445C33.1816 179.729 30.2405 178.691 27.4766 179.355C28.9079 181.862 30.9041 184.002 33.3064 185.604C35.7087 187.206 38.4511 188.226 41.3163 188.584Z" fill="#E1E1E1"/>
<path d="M41.8516 185.673C40.7581 182.888 39.6547 180.078 39.2093 177.122C38.7638 174.165 39.0374 171.012 40.5509 168.43C43.487 173.998 44.4333 179.942 41.9984 185.733" fill="#E1E1E1"/>
<path d="M44 168.429C45.6654 162.926 50.7022 158.876 56.1491 157.013C56.8222 156.738 57.5513 156.629 58.2753 156.694C58.6371 156.733 58.9792 156.879 59.2585 157.112C59.5378 157.345 59.742 157.656 59.8448 158.005C60.0473 158.942 59.2726 159.782 58.5437 160.405C54.2892 164.034 49.3437 166.764 44.0054 168.429" fill="#E1E1E1"/>
<path d="M44.0704 163.928C44.283 160.384 44.5006 156.78 45.6548 153.418C46.8089 150.057 49.0364 146.903 52.2711 145.43C52.8229 149.014 51.2588 152.578 49.3352 155.666C47.4116 158.754 45.1284 161.66 43.9844 165.097" fill="#E1E1E1"/>
<path d="M43.9781 166.373C42.6012 162.359 42.4595 157.261 40.055 153.773C38.3794 151.328 35.6917 149.667 34.2439 147.08C33.2821 149.495 33.5757 152.279 34.583 154.674C35.5904 157.068 37.2455 159.134 39.0223 161.032C40.7991 162.931 42.3228 164.358 43.9781 166.368" fill="#E1E1E1"/>
<path d="M44.0048 284.512C43.8985 284.512 43.8078 257.752 43.7977 224.775C43.7876 191.797 43.8733 165.037 43.9796 165.037C44.0859 165.037 44.1772 191.787 44.1823 224.8C44.1874 257.812 44.1212 284.512 44.0048 284.512Z" fill="#E1E1E1"/>
<path d="M67.4124 204.342C67.0876 204.5 66.7486 204.627 66.4 204.721L63.6311 205.653C61.2975 206.448 58.093 207.602 54.6103 209.03C51.1276 210.457 47.9132 211.708 46.0655 213.313C45.3258 213.927 44.7368 214.703 44.3442 215.581C44.081 216.208 44.0356 216.593 44.0001 216.593C43.9647 216.593 44.0001 216.497 44.0001 216.315C44.0399 216.049 44.1059 215.788 44.1974 215.535C44.5442 214.599 45.1206 213.765 45.8732 213.11C46.9904 212.167 48.2383 211.391 49.5783 210.807C51.0615 210.113 52.7072 209.394 54.4536 208.675C57.9464 207.243 61.1758 206.144 63.5347 205.4C64.7142 205.03 65.6814 204.762 66.3496 204.58C66.6959 204.468 67.0515 204.388 67.4124 204.342Z" fill="#E1E1E1"/>
<path d="M75.0512 185.516C74.97 185.629 74.8749 185.731 74.7679 185.819L73.9072 186.624L70.7029 189.535L60.0373 199.038C55.8712 202.743 52.2717 206.287 49.7811 208.95C48.5308 210.286 47.5491 211.385 46.8758 212.16L46.1012 213.045C46.0158 213.153 45.9189 213.252 45.8125 213.339C45.8724 213.215 45.9491 213.099 46.0404 212.995C46.2024 212.777 46.4403 212.458 46.7592 212.063C47.397 211.258 48.3539 210.124 49.5789 208.768C52.799 205.25 56.2036 201.905 59.7788 198.749C63.9601 195.048 67.762 191.727 70.5259 189.333C71.8775 188.168 72.9913 187.212 73.8113 186.513L74.7175 185.759C74.818 185.664 74.9299 185.582 75.0512 185.516Z" fill="#E1E1E1"/>
<path d="M55.5409 202.804C55.4295 202.758 56.3002 200.748 57.1658 198.207C58.0315 195.665 58.457 193.524 58.5633 193.539C58.6697 193.554 58.4216 195.757 57.5509 198.333C57.1784 199.428 56.7455 200.501 56.2547 201.548C56.0774 201.998 55.837 202.421 55.5409 202.804Z" fill="#E1E1E1"/>
<path d="M44.0263 218.998C43.7841 218.776 43.5682 218.526 43.3831 218.254L41.7379 216.168C40.356 214.381 38.4477 211.921 36.3115 209.223C34.1753 206.524 32.2012 204.104 30.7787 202.358L29.098 200.277C28.8764 200.034 28.681 199.767 28.5156 199.482C28.7709 199.692 29.0048 199.926 29.2141 200.181C29.6394 200.642 30.2266 201.325 30.9859 202.181C32.464 203.887 34.4688 206.281 36.6101 208.98C38.7513 211.678 40.6297 214.174 41.9559 216.001C42.6191 216.918 43.1504 217.662 43.5047 218.188C43.7035 218.441 43.8782 218.713 44.0263 218.998Z" fill="#E1E1E1"/>
<path d="M38.9034 212.417C38.8427 212.488 37.4707 210.863 36.757 208.397C36.3491 207.088 36.1777 205.716 36.2508 204.347H36.4228C36.3469 204.656 36.291 204.818 36.2607 204.813C36.2303 204.808 36.2303 204.636 36.2607 204.307H36.4278C36.5142 205.642 36.7452 206.964 37.1164 208.25C37.82 210.675 39.0047 212.351 38.9034 212.417Z" fill="#E1E1E1"/>
<path d="M32.2849 204.094C31.8178 203.738 31.3075 203.444 30.7662 203.218C29.4174 202.819 28.0001 202.707 26.6053 202.889C25.1917 202.997 23.7894 203.224 22.4138 203.567C21.8482 203.744 21.2715 203.882 20.6875 203.982C21.2003 203.674 21.7566 203.446 22.3376 203.304C23.7147 202.876 25.1364 202.608 26.5747 202.504C28.2502 202.357 29.8348 202.504 30.8725 202.965C31.4595 203.167 31.9586 203.565 32.2849 204.094Z" fill="#E1E1E1"/>
<path d="M30.7119 202.075C30.6815 202.136 29.8366 201.726 28.4142 201.24C24.6927 199.967 20.7088 199.662 16.8371 200.354C15.3539 200.622 14.4577 200.9 14.4375 200.835C14.6252 200.717 14.8303 200.63 15.0451 200.576C15.6126 200.371 16.1924 200.202 16.7812 200.07C20.6924 199.211 24.7699 199.523 28.5051 200.966C29.0672 201.179 29.6152 201.428 30.1454 201.71C30.3515 201.803 30.5421 201.926 30.7119 202.075Z" fill="#E1E1E1"/>
<path d="M43.9811 193.54C43.8748 193.57 43.1258 190.963 42.3057 187.723C41.4857 184.483 40.8983 181.83 41.0046 181.805C41.1109 181.78 41.8553 184.387 42.6805 187.627C43.5056 190.867 44.0823 193.514 43.9811 193.54Z" fill="#E1E1E1"/>
<path d="M44.0847 193.539C43.9682 193.58 43.4874 191.838 42.2269 190.056C40.9664 188.274 39.438 187.327 39.4937 187.236C39.8825 187.331 40.2434 187.517 40.5466 187.778C41.3239 188.344 41.9982 189.039 42.5408 189.833C43.8519 191.686 44.1758 193.534 44.0847 193.539Z" fill="#E1E1E1"/>
<path d="M44.0029 270.232C43.9624 270.232 43.8819 269.589 43.5832 268.455C43.1403 266.855 42.54 265.304 41.7912 263.823C39.9435 260.041 36.5822 255.252 32.3047 250.453C30.1887 248.033 28.1337 245.75 26.3923 243.568C24.8248 241.646 23.4097 239.604 22.1602 237.462C21.3196 236.018 20.605 234.503 20.0241 232.936C19.8267 232.374 19.6849 231.924 19.6039 231.64C19.5519 231.491 19.5142 231.337 19.4922 231.18C19.5276 231.18 19.7251 231.792 20.1655 232.881C20.7958 234.416 21.5405 235.902 22.393 237.326C23.6728 239.431 25.1002 241.442 26.6652 243.345C28.4167 245.507 30.4773 247.775 32.5983 250.199C36.8809 255.009 40.2368 259.864 42.0389 263.701C42.7707 265.206 43.336 266.787 43.7246 268.414C43.8281 268.859 43.9079 269.308 43.9629 269.761C43.9955 269.916 44.0086 270.074 44.0029 270.232Z" fill="#E1E1E1"/>
<path d="M65.1294 246.366C64.7718 246.594 64.4019 246.802 64.0211 246.988C63.0195 247.551 62.0603 248.185 61.1509 248.887C59.8042 249.932 58.5416 251.082 57.3746 252.324C56.0533 253.727 54.6912 255.362 53.2992 257.088C50.515 260.581 47.9132 263.669 46.3541 266.14C45.5593 267.36 44.9872 268.393 44.6076 269.117C44.4298 269.501 44.2268 269.873 44 270.23C44.0204 270.122 44.0545 270.016 44.1013 269.916C44.1823 269.719 44.2989 269.41 44.4761 269.051C44.9591 268.004 45.5087 266.99 46.1212 266.013C47.6399 263.482 50.2165 260.353 52.9956 256.865C54.3877 255.124 55.7699 253.494 57.1215 252.102C58.3097 250.855 59.6018 249.712 60.9838 248.684C61.9203 247.999 62.9122 247.392 63.9499 246.872C64.3194 246.69 64.618 246.578 64.8155 246.492C65.0129 246.406 65.1243 246.351 65.1294 246.366Z" fill="#E1E1E1"/>
<path d="M65.5412 254.107C64.7712 254.278 63.9894 254.392 63.2024 254.446C61.3169 254.64 59.4531 255.006 57.6341 255.539C55.8409 256.122 54.1597 257.005 52.663 258.152C51.5139 259.033 50.9776 259.767 50.9219 259.726C51.0049 259.526 51.1229 259.343 51.2709 259.184C51.6348 258.73 52.0436 258.312 52.4909 257.939C53.9711 256.703 55.6762 255.764 57.5125 255.175C59.3485 254.621 61.2428 254.281 63.157 254.162C63.9483 254.071 64.7464 254.052 65.5412 254.107Z" fill="#E1E1E1"/>
<path d="M51.6346 258.876C51.5131 258.806 52.566 257.196 53.3861 255.029C54.2062 252.862 54.3325 250.923 54.4692 250.944C54.5302 251.361 54.5186 251.786 54.4341 252.199C54.316 253.206 54.0849 254.196 53.7455 255.15C53.3886 256.1 52.9341 257.009 52.389 257.864C52.196 258.241 51.9409 258.584 51.6346 258.876Z" fill="#E1E1E1"/>
<path d="M71.9632 225.58C71.8469 225.661 71.721 225.727 71.5885 225.778L70.4901 226.284C69.9839 226.491 69.4219 226.755 68.7638 227.099C68.1057 227.443 67.3312 227.792 66.5314 228.273L65.251 229.002C64.8106 229.255 64.3701 229.559 63.9044 229.848C62.9628 230.42 62.0213 231.124 61.0139 231.842C56.6998 235.052 52.9382 238.944 49.8773 243.365C49.1939 244.377 48.5256 245.359 47.9839 246.321C47.7106 246.797 47.422 247.242 47.1841 247.698C46.9462 248.154 46.7186 248.579 46.5009 248.999C46.0453 249.814 45.7214 250.599 45.4025 251.272C45.0835 251.946 44.8354 252.538 44.6481 253.024C44.4608 253.51 44.309 253.844 44.1824 254.143C44.1367 254.276 44.0753 254.403 44 254.522C44.0177 254.381 44.0556 254.243 44.1117 254.112C44.218 253.814 44.3442 253.434 44.5062 252.968C44.7091 252.363 44.9422 251.768 45.2047 251.186C45.5034 250.503 45.8122 249.708 46.2577 248.873L46.9211 247.551C47.154 247.096 47.4271 246.64 47.7106 246.159C48.2168 245.187 48.9053 244.205 49.5837 243.162C52.6436 238.68 56.4458 234.752 60.8266 231.549C61.839 230.835 62.8059 230.136 63.7576 229.574C64.2334 229.286 64.679 228.987 65.1244 228.739L66.4251 228.03C67.2401 227.56 68.0248 227.225 68.6981 226.901C69.2693 226.617 69.8556 226.363 70.4545 226.142L71.5885 225.707C71.7075 225.649 71.8335 225.606 71.9632 225.58Z" fill="#E1E1E1"/>
<path d="M55.2578 236.784C55.4133 236.242 55.7359 235.764 56.1793 235.417C57.2078 234.52 58.5201 234.016 59.8844 233.994C61.2209 233.989 62.5455 234.247 63.7823 234.754C64.3058 234.92 64.8022 235.162 65.2555 235.472C64.7216 235.365 64.1983 235.211 63.6914 235.012C62.4687 234.596 61.1863 234.382 59.8948 234.379C58.6108 234.404 57.3689 234.841 56.3513 235.624C55.9594 235.984 55.5939 236.371 55.2578 236.784Z" fill="#E1E1E1"/>
<path d="M52.7505 239.366C52.6442 239.305 53.5908 237.923 53.8034 235.938C54.0161 233.954 53.4542 232.394 53.5706 232.369C53.7964 232.665 53.9442 233.013 54.0007 233.382C54.4559 235.105 54.2427 236.937 53.4035 238.51C53.0795 239.087 52.791 239.391 52.7505 239.366Z" fill="#E1E1E1"/>
<path d="M25.5234 274.062C26.1005 284.289 29.1833 294.692 33.9214 305.207H54.5347C59.0501 294.793 61.9201 284.41 62.4314 274.062H25.5234Z" fill="#E1E1E1"/>
<path d="M59.0931 290.612C59.0931 290.719 52.3046 290.805 43.9369 290.805C35.5693 290.805 28.7812 290.719 28.7812 290.612C28.7812 290.506 35.5642 290.42 43.9369 290.42C52.3097 290.42 59.0931 290.506 59.0931 290.612Z" fill="#FAFAFA"/>
<path d="M58.6323 294.317C58.6323 294.424 52.2691 294.51 44.4228 294.51C36.5765 294.51 30.2188 294.424 30.2188 294.317C30.2188 294.211 36.5765 294.125 44.4228 294.125C52.2691 294.125 58.6323 294.211 58.6323 294.317Z" fill="#FAFAFA"/>
<path d="M34.2548 280.781C34.3611 280.781 34.4471 282.907 34.4471 285.525C34.4471 288.142 34.3611 290.273 34.2548 290.273C34.1485 290.273 34.0625 288.147 34.0625 285.525C34.0625 282.902 34.1485 280.781 34.2548 280.781Z" fill="#FAFAFA"/>
<path d="M45.3017 280.781C45.408 280.781 45.494 282.983 45.494 285.697C45.494 288.41 45.408 290.613 45.3017 290.613C45.1954 290.613 45.1094 288.41 45.1094 285.697C45.1094 282.983 45.1954 280.781 45.3017 280.781Z" fill="#FAFAFA"/>
<path d="M55.6611 280.695C55.7674 280.695 55.8534 282.943 55.8534 285.712C55.8534 288.481 55.7674 290.724 55.6611 290.724C55.5547 290.724 55.4688 288.481 55.4688 285.712C55.4688 282.943 55.5547 280.695 55.6611 280.695Z" fill="#FAFAFA"/>
<path d="M61.7726 280.781C61.7726 280.888 53.8148 280.974 43.9993 280.974C34.1839 280.974 26.2266 280.888 26.2266 280.781C26.2266 280.675 34.1839 280.584 43.9993 280.584C53.8148 280.584 61.7726 280.675 61.7726 280.781Z" fill="#FAFAFA"/>
<path d="M182.901 144.529L182.531 148.209C182.474 149.795 182.073 151.349 181.357 152.765C179.425 156.685 178.705 161.091 179.291 165.422C180.481 174.6 187.437 181.94 196.113 183.211C208.055 184.963 218.493 175.385 218.893 162.997C218.986 160.093 218.499 157.2 217.46 154.487C216.929 153.129 216.673 151.681 216.706 150.224L217.121 145.577L275.462 147.318L277.092 93.4582L273.376 93.1241C271.918 93.0915 270.468 93.3479 269.109 93.8784C266.398 94.9174 263.506 95.4044 260.605 95.3111C248.213 94.9365 238.64 84.4976 240.386 72.5298C241.657 63.8477 248.992 56.8969 258.174 55.7021C262.505 55.1199 266.911 55.8407 270.83 57.7727C272.247 58.4862 273.8 58.8868 275.386 58.9472L278.135 59.2256L279.79 4.55572L138.375 0.262723C135.447 0.175463 132.604 1.25421 130.471 3.26191C128.338 5.26961 127.09 8.04202 127 10.9699L123.031 141.921V142.716L182.901 144.529Z" fill="#DCE7FA"/>
<path d="M182.898 144.528C182.898 144.528 182.544 144.528 181.886 144.528L178.849 144.453L167.109 144.139L123.019 142.893H122.852V142.731C123.778 111.313 125.028 69.0011 126.491 19.3886C126.607 16.2803 126.628 13.1769 126.825 9.98251C127.02 8.35708 127.566 6.79335 128.424 5.39927C129.282 4.00519 130.433 2.81397 131.796 1.90783C133.172 0.980044 134.74 0.375989 136.382 0.141022C138.043 -0.0969148 139.673 0.0853351 141.303 0.100523L151.169 0.39921L192.096 1.62433L279.792 4.25177H280.091V4.55046C280.025 6.77795 279.949 9.19277 279.878 11.6379C279.372 27.8076 278.901 43.7291 278.431 59.2811V59.595L278.117 59.5646C277.043 59.4684 275.986 59.3317 274.907 59.2659C273.806 59.1753 272.725 58.9229 271.698 58.5167C270.686 58.0914 269.759 57.5852 268.757 57.2308C267.768 56.86 266.753 56.5639 265.719 56.3448C261.604 55.4642 257.322 55.784 253.383 57.2662C249.507 58.7464 246.168 61.3611 243.801 64.7688C241.477 68.1361 240.324 72.174 240.521 76.2607C240.599 78.2688 241.016 80.2492 241.755 82.118C242.113 83.0478 242.536 83.9511 243.021 84.8214C243.534 85.6721 244.104 86.4873 244.727 87.2615C247.219 90.3423 250.535 92.6512 254.289 93.9187C257.984 95.1421 261.935 95.3794 265.75 94.6072C266.686 94.4119 267.607 94.1549 268.508 93.8377C269.417 93.4626 270.365 93.1876 271.333 93.0176C272.302 92.8508 273.29 92.8304 274.264 92.9568L277.124 93.2099L277.378 93.2352V93.4884C276.794 112.466 276.242 130.421 275.722 147.353V147.601H275.474L217.088 145.799L217.301 145.612C217.214 146.574 217.123 147.531 217.037 148.482C216.913 149.415 216.869 150.357 216.906 151.297C216.978 152.218 217.165 153.126 217.462 154C217.799 154.869 218.09 155.754 218.333 156.653C218.802 158.428 219.047 160.255 219.062 162.09C219.053 163.873 218.859 165.649 218.48 167.391C216.875 174.25 212.046 179.784 206.305 182.072C203.646 183.171 200.775 183.661 197.901 183.505C195.028 183.349 192.226 182.551 189.702 181.171C185.478 178.785 182.214 175.005 180.468 170.479C179.096 166.889 178.676 163.005 179.249 159.205C179.475 157.691 179.862 156.206 180.402 154.775C180.873 153.454 181.541 152.365 181.921 151.302C182.248 150.368 182.444 149.394 182.503 148.406C182.569 147.556 182.665 146.852 182.721 146.275C182.848 145.197 182.903 144.716 182.924 144.528C182.924 144.528 182.878 145.106 182.777 146.255C182.726 146.837 182.665 147.556 182.589 148.411C182.542 149.409 182.353 150.394 182.027 151.338C181.678 152.421 181.015 153.514 180.565 154.826C180.039 156.251 179.664 157.727 179.446 159.23C178.898 162.999 179.332 166.846 180.706 170.398C182.446 174.864 185.683 178.586 189.864 180.928C192.352 182.28 195.11 183.058 197.938 183.204C200.766 183.35 203.59 182.861 206.204 181.773C211.844 179.48 216.582 174.028 218.146 167.284C218.515 165.571 218.703 163.823 218.707 162.07C218.688 160.266 218.443 158.472 217.979 156.729C217.738 155.838 217.449 154.961 217.113 154.102C216.802 153.197 216.606 152.256 216.531 151.302C216.492 150.343 216.534 149.383 216.657 148.432L216.915 145.546V145.354H217.113L275.459 147.09L275.206 147.328C275.712 130.419 276.249 112.464 276.815 93.4631L277.059 93.7415L274.214 93.4884C273.279 93.3691 272.333 93.3896 271.404 93.5491C270.471 93.7149 269.557 93.9814 268.681 94.3439C267.755 94.6718 266.808 94.9374 265.846 95.1387C261.934 95.9335 257.881 95.6909 254.092 94.4351C250.236 93.1383 246.829 90.7693 244.271 87.6058C243.63 86.8023 243.043 85.9566 242.515 85.0745C242.013 84.1788 241.577 83.2483 241.209 82.2901C240.446 80.365 240.015 78.3247 239.933 76.2556C239.728 72.0448 240.914 67.8835 243.31 64.4145C245.749 60.9059 249.191 58.2166 253.186 56.6992C257.227 55.1812 261.618 54.8509 265.841 55.7475C266.9 55.9771 267.94 56.2834 268.954 56.6638C269.967 57.0232 270.949 57.5598 271.9 57.9446C273.834 58.7799 276.006 58.6736 278.167 58.9571L277.843 59.2406C278.314 43.6835 278.795 27.762 279.286 11.5924C279.357 9.17251 279.428 6.7577 279.499 4.50489L279.787 4.81371L192.066 2.18121L151.144 0.925709L141.272 0.621959C139.642 0.621959 138.003 0.429585 136.454 0.657397C134.887 0.875514 133.391 1.44866 132.08 2.33308C130.781 3.19673 129.685 4.3312 128.866 5.6586C128.047 6.986 127.525 8.47488 127.336 10.023C127.144 13.1263 127.119 16.2954 127.003 19.3836C125.484 68.996 124.147 111.303 123.17 142.721L123.013 142.549L167.2 143.982L178.894 144.377L181.896 144.483L182.898 144.528Z" fill="#1A2E35"/>
<g opacity="0.3">
<path d="M190.23 163.563C186.641 163.173 182.693 162.551 179.094 162.166C179.17 170.185 183.037 177.571 190.048 181.257C187.416 176.341 190.554 174.427 190.63 171.375C190.686 168.464 190.23 163.563 190.23 163.563Z" fill="black"/>
</g>
<path d="M95.3205 49.106C95.4353 48.4375 95.3589 47.7501 95.1001 47.1231C94.8412 46.4961 94.4102 45.955 93.8573 45.5622C93.7722 45.3373 93.6671 45.1204 93.5434 44.9142C92.7411 41.9471 91.4569 39.132 89.7418 36.5814C91.382 36.0751 91.8073 33.7616 90.9821 32.2529C90.157 30.7443 88.5423 29.8786 87.0135 29.0889C88.2942 29.3066 89.2457 27.641 88.8357 26.4108C88.4257 25.1806 87.2159 24.4111 86.0466 23.8441C84.3323 23.0131 82.524 22.3927 80.6607 21.9963C79.8659 19.8448 76.8284 17.5919 74.682 16.8022C66.4105 13.7647 60.6398 13.2028 51.5179 20.7358C51.0206 20.0193 50.3834 19.4109 49.6448 18.9472C48.9062 18.4835 48.0814 18.174 47.2201 18.0374C46.0843 17.8954 44.9317 17.9928 43.8358 18.3232C42.7399 18.6537 41.7248 19.2099 40.8568 19.9561C39.4748 19.7391 38.0598 19.965 36.8141 20.6016C35.5683 21.2381 34.556 22.2527 33.9221 23.4999C32.2662 22.8541 30.4491 22.7453 28.728 23.189C27.0069 23.6326 25.4687 24.6063 24.3313 25.9721C23.1939 27.338 22.5148 29.0269 22.39 30.8C22.2651 32.5731 22.701 34.3406 23.6357 35.8524C23.1903 36.2945 22.8394 36.8226 22.6045 37.4046C22.3696 37.9866 22.2556 38.6103 22.2694 39.2378C22.2831 39.8653 22.4245 40.4834 22.6846 41.0545C22.9448 41.6257 23.3182 42.138 23.7826 42.5602C22.9917 44.0628 22.3652 45.6464 21.9144 47.2835C21.6208 48.3719 21.4082 49.5768 21.9144 50.5944C22.4206 51.6119 23.8485 52.2194 24.704 51.4752C24.4367 51.9361 24.3071 52.4641 24.3313 52.9963C24.3555 53.5286 24.5324 54.0426 24.8405 54.4773C23.7876 54.5937 23.6156 56.2542 24.4104 56.9579C25.2051 57.6616 26.3897 57.6312 27.4477 57.5148C28.5056 57.3983 29.6343 57.2363 30.5556 57.7628C30.5581 57.8924 30.5342 58.0212 30.4854 58.1413C30.4367 58.2614 30.3645 58.3703 30.2724 58.4615C29.4416 59.2118 28.9322 60.2536 28.8501 61.3701C28.7681 62.4866 29.1197 63.5917 29.8319 64.4555L30.2214 64.9111C30.9099 65.7211 32.4947 66.3843 33.4767 66.7893C35.9723 67.8018 37.3695 67.4575 40.0575 67.6043C39.4854 69.3863 44.1473 72.8035 48.7639 68.6168C51.872 69.1636 54.7071 69.5736 57.4407 69.8571C58.2506 72.3884 60.2247 74.6716 62.8266 75.0715C64.3857 75.3145 65.975 74.864 67.5392 75.0209C68.8199 75.1475 70.0248 75.674 71.27 75.9929C73.7197 76.569 76.2878 76.3722 78.621 75.4294C80.9542 74.4866 82.9382 72.8442 84.3 70.7279C85.6668 71.508 87.2876 71.7131 88.8055 71.2983C90.3235 70.8834 91.6145 69.8824 92.3945 68.5156C93.1745 67.1488 93.3798 65.528 92.965 64.0099C92.5501 62.4918 91.549 61.2007 90.1823 60.4207C91.2015 60.4373 92.1964 60.1091 93.0055 59.4891C93.8146 58.8692 94.3907 57.9939 94.6398 57.0055C94.889 56.017 94.7964 54.9734 94.3778 54.0439C93.9592 53.1144 93.239 52.3537 92.3337 51.8853C93.0543 51.7787 93.7254 51.4559 94.2587 50.9597C94.7919 50.4635 95.1624 49.8171 95.3205 49.106Z" fill="#000001"/>
<path d="M86.7513 95.2917C86.7513 95.2917 100.677 107.847 100.627 106.961C100.576 106.075 127.238 94.2539 127.238 94.2539V111.628C127.238 111.628 100.409 126.148 99.3967 125.373C98.3843 124.599 84.4531 107.983 84.4531 107.983L86.7513 95.2917Z" fill="#FF735D"/>
<path d="M86.7513 95.2917C86.7513 95.2917 100.677 107.847 100.627 106.961C100.576 106.075 127.238 94.2539 127.238 94.2539V111.628C127.238 111.628 100.409 126.148 99.3967 125.373C98.3843 124.599 84.4531 107.983 84.4531 107.983L86.7513 95.2917Z" fill="#AE5E79"/>
<path d="M49.0726 31.1034L63.206 24.8664C68.8148 23.4539 73.5983 29.9289 74.7727 35.5887C76.0737 41.8814 77.4203 49.6169 77.3443 54.4617C77.3238 57.2241 76.5247 59.9247 75.0382 62.253C73.5517 64.5814 71.4385 66.4431 68.9414 67.6242L69.7259 73.4461C69.4273 78.0023 64.6638 78.5541 64.6638 78.5541C51.6238 80.1083 50.0445 72.8183 50.0445 72.8183L46.6073 36.6468C46.3289 34.9002 47.3717 31.5337 49.0726 31.1034Z" fill="#315D80"/>
<path d="M66.9317 51.0309C66.9317 50.9549 67.7165 50.6968 69.0124 50.3373C69.3465 50.2563 69.6556 50.1449 69.6758 49.907C69.6549 49.5568 69.5274 49.2213 69.311 48.9451C68.8824 48.1756 68.4303 47.3707 67.9545 46.5303C66.0562 43.0878 64.6336 40.2376 64.7754 40.1617C64.9171 40.0858 66.5624 42.8145 68.4607 46.2367L69.7767 48.6768C70.0455 49.0512 70.1748 49.508 70.1415 49.9678C70.1061 50.0953 70.0419 50.2131 69.9541 50.3123C69.8664 50.4114 69.7576 50.4892 69.6353 50.5398C69.4577 50.6172 69.27 50.67 69.0782 50.6968C67.7772 50.9803 66.9469 51.1018 66.9317 51.0309Z" fill="#1A2E35"/>
<path d="M68.9303 67.615C68.9303 67.615 63.6961 67.782 56.7812 64.8711C56.7812 64.8711 59.5855 70.698 69.2744 70.5006L68.9303 67.615Z" fill="#315D80"/>
<path d="M59.8707 36.8542C59.7947 37.2339 58.4583 37.2491 56.9397 37.6541C55.4211 38.0591 54.2365 38.6666 53.9884 38.3679C53.872 38.2262 54.0441 37.8617 54.4947 37.4415C55.1027 36.9163 55.8258 36.5417 56.6055 36.348C57.3809 36.1391 58.1955 36.12 58.9799 36.2923C59.5772 36.4492 59.9011 36.677 59.8707 36.8542Z" fill="#1A2E35"/>
<path d="M72.5604 35.4369C72.3731 35.771 71.4213 35.5888 70.3279 35.7305C69.2345 35.8723 68.3487 36.2368 68.0905 35.933C67.9741 35.7963 68.0907 35.4774 68.44 35.1332C68.9312 34.7137 69.5384 34.454 70.1811 34.389C70.8232 34.3093 71.4746 34.4314 72.0443 34.7383C72.4746 34.961 72.6414 35.2547 72.5604 35.4369Z" fill="#1A2E35"/>
<path d="M79.5214 39.7714C79.3368 38.2597 78.6339 36.8588 77.5321 35.8075C76.8603 35.3347 76.2131 34.8278 75.5933 34.2887C74.3784 32.9776 74.3379 30.9981 73.7153 29.3275C73.301 28.2491 72.6359 27.2848 71.7749 26.5145C70.914 25.7442 69.882 25.19 68.7644 24.8978C66.9066 24.4321 64.8818 24.7156 63.11 23.9866C61.7989 23.4449 60.7413 22.3919 59.4049 21.9261C56.7979 21.0301 54.0239 22.5893 51.8117 24.2245C51.5282 26.1432 52.8695 27.6518 54.1604 29.0946C54.8133 29.8157 55.6151 30.3864 56.51 30.7675C57.4049 31.1486 58.3718 31.3309 59.3441 31.3019C60.8627 31.2462 62.5634 30.7399 63.7176 31.7018C64.8717 32.6637 64.6946 34.7393 65.7424 35.9341C67.2206 37.6452 70.1058 36.658 72.161 37.6097C73.7455 38.3387 74.5506 40.0752 75.4618 41.5686C76.373 43.062 77.8307 44.5656 79.5619 44.3125C79.7199 42.8021 79.7063 41.2787 79.5214 39.7714Z" fill="#000001"/>
<path d="M55.8714 27.2461C51.4838 27.6031 47.207 28.8065 43.2769 30.7898C42.1076 31.3822 40.9128 32.1061 40.3306 33.2755C39.8244 34.288 39.86 35.5182 39.9865 36.6573C40.3763 40.2415 42.2442 44.489 43.9349 47.6682L48.6678 49.9159C52.0391 48.7617 49.8777 42.9651 49.4222 39.9985C50.5615 39.3356 51.4937 38.368 52.1134 37.2045C52.7331 36.041 53.0156 34.7277 52.93 33.4122C53.8539 32.6731 54.5988 31.7344 55.1081 30.6665C55.6175 29.5986 55.8784 28.4292 55.8714 27.2461Z" fill="#000001"/>
<path d="M48.479 48.6447C48.1449 46.6197 45.5886 46.4577 43.9231 47.6828C43.012 48.3561 42.4048 49.5762 42.7288 51.7328C43.6299 57.5041 49.2387 55.4132 49.2235 55.2462C49.2083 55.0791 48.8739 51.0342 48.479 48.6447Z" fill="#315D80"/>
<path d="M47.1195 53.3442C47.0942 53.3442 47.0287 53.4302 46.8718 53.5315C46.6542 53.6658 46.3935 53.7129 46.1427 53.6631C45.4998 53.5315 44.8366 52.6506 44.624 51.6077C44.5335 51.1149 44.5543 50.6081 44.6848 50.1244C44.7102 49.9357 44.7807 49.756 44.891 49.6008C45.0012 49.4456 45.1478 49.3195 45.3176 49.2334C45.428 49.1819 45.5534 49.172 45.6706 49.2055C45.7877 49.239 45.8887 49.3136 45.9553 49.4157C46.0565 49.5675 46.0416 49.689 46.072 49.6941C46.1023 49.6992 46.1783 49.5777 46.072 49.3448C46.0172 49.2076 45.9169 49.0933 45.7882 49.0208C45.6112 48.926 45.4042 48.9042 45.2113 48.96C44.9815 49.0436 44.7772 49.1848 44.6176 49.37C44.4581 49.5553 44.3488 49.7785 44.3002 50.0181C44.1302 50.5548 44.0953 51.1252 44.1989 51.6786C44.4166 52.8379 45.181 53.8352 46.0517 53.9466C46.2139 53.9681 46.3789 53.9523 46.5342 53.9006C46.6894 53.8488 46.8306 53.7624 46.9475 53.6479C47.155 53.4859 47.1549 53.3492 47.1195 53.3442Z" fill="black"/>
<path d="M61.7772 46.0036C61.8251 46.3274 61.7466 46.6572 61.5582 46.9248C61.3698 47.1924 61.0857 47.3773 60.7648 47.4413C60.6068 47.4761 60.4434 47.4789 60.2843 47.4497C60.1252 47.4204 59.9737 47.3597 59.8384 47.271C59.703 47.1824 59.5866 47.0676 59.4963 46.9334C59.4059 46.7992 59.3432 46.6483 59.3119 46.4896C59.2615 46.166 59.339 45.8356 59.5279 45.5682C59.7169 45.3008 60.0025 45.1174 60.3243 45.0569C60.482 45.0214 60.6452 45.0178 60.8043 45.0465C60.9634 45.0751 61.1153 45.1353 61.2507 45.2235C61.3861 45.3118 61.5024 45.4263 61.5928 45.5603C61.6832 45.6942 61.746 45.845 61.7772 46.0036Z" fill="#1A2E35"/>
<path d="M73.3861 44.7028C73.4352 45.0268 73.3577 45.3572 73.1691 45.6251C72.9804 45.893 72.6952 46.0777 72.3736 46.1406C72.2156 46.1753 72.0527 46.1781 71.8936 46.1489C71.7345 46.1196 71.5826 46.0589 71.4472 45.9702C71.3119 45.8816 71.1955 45.7668 71.1052 45.6326C71.0148 45.4984 70.9525 45.3475 70.9213 45.1888C70.8709 44.8653 70.9483 44.5348 71.1373 44.2674C71.3262 44 71.6119 43.8167 71.9337 43.7561C72.0914 43.7206 72.2546 43.7171 72.4137 43.7457C72.5728 43.7743 72.7242 43.8345 72.8596 43.9228C72.995 44.011 73.1117 44.1255 73.2022 44.2595C73.2926 44.3935 73.3549 44.5442 73.3861 44.7028Z" fill="#1A2E35"/>
<path d="M72.8448 39.8163C72.7436 40.0188 71.7158 39.4568 70.4907 39.715C69.2657 39.9732 68.5317 40.8693 68.3596 40.7275C68.2736 40.6617 68.3598 40.3225 68.6686 39.9125C69.0879 39.3927 69.6745 39.0348 70.3286 38.9C70.985 38.7698 71.6666 38.8756 72.2526 39.1987C72.7031 39.4417 72.8955 39.7252 72.8448 39.8163Z" fill="#1A2E35"/>
<path d="M61.1175 41.9779C60.9656 42.1854 59.8265 41.4716 58.3383 41.6235C56.85 41.7754 55.8476 42.6866 55.6653 42.5094C55.5793 42.4335 55.7109 42.0639 56.1716 41.6437C56.7527 41.1057 57.4947 40.7732 58.2829 40.6971C59.0644 40.6107 59.8522 40.7889 60.5203 41.2033C60.9962 41.5476 61.1934 41.8817 61.1175 41.9779Z" fill="#1A2E35"/>
<path d="M61.3628 54.4614C61.4121 54.0292 61.6126 53.6283 61.9284 53.3292C62.2441 53.0301 62.655 52.852 63.0891 52.8262C63.4078 52.8274 63.7214 52.907 64.0022 53.058C64.2829 53.209 64.5224 53.4266 64.6992 53.6919C64.8709 53.9601 64.9869 54.26 65.0408 54.5739C65.0947 54.8878 65.085 55.2093 65.0126 55.5194V55.6561C64.7591 56.009 64.4028 56.2748 63.9923 56.4171C63.5817 56.5594 63.1373 56.5712 62.7198 56.4509C62.3054 56.3161 61.9475 56.0477 61.702 55.6877C61.4565 55.3277 61.337 54.8964 61.3628 54.4614Z" fill="#315D80"/>
<path d="M66.0247 55.5561C65.9994 55.3434 64.5821 55.5915 63.3621 54.5436C62.1422 53.4956 62.0359 51.9769 61.8435 52.0123C61.7524 52.0123 61.6257 52.3971 61.7219 53.0248C61.8579 53.8548 62.2808 54.6108 62.9167 55.1612C63.5311 55.6889 64.3252 55.9591 65.1339 55.9155C65.7261 55.875 66.05 55.6523 66.0247 55.5561Z" fill="white"/>
<path d="M92.9622 284.224L91.3471 301.031C91.3471 301.031 109.662 307.871 109.859 311.258L75.2344 311.354V308.823L76.6873 300.181L78.8288 283.389L92.9622 284.224Z" fill="#EA4B62"/>
<path d="M80.9268 298.424C80.5845 298.525 80.2917 298.748 80.1047 299.052C79.9178 299.356 79.8499 299.718 79.9144 300.069C80.0055 300.414 80.2248 300.711 80.5279 300.9C80.831 301.088 81.1947 301.153 81.5443 301.082C81.9062 300.973 82.2147 300.734 82.4094 300.41C82.6041 300.086 82.6711 299.701 82.5972 299.33C82.3644 298.657 81.4181 298.13 80.7904 298.465" fill="#E1E1E1"/>
<path d="M75.2344 311.344V308.812L108.447 309.45C108.447 309.45 110.021 310.144 109.839 311.253L75.2344 311.344Z" fill="#000001"/>
<path d="M91.9188 300.849C91.9188 301.026 91.0484 301.102 90.198 301.654C89.3476 302.206 88.8867 302.935 88.7298 302.864C88.5729 302.793 88.8309 301.796 89.8737 301.143C90.9165 300.49 91.9593 300.712 91.9188 300.849Z" fill="#1A2E35"/>
<path d="M95.6392 302.399C95.6797 302.566 94.9308 302.859 94.3386 303.588C93.7463 304.317 93.5793 305.107 93.4072 305.107C93.2351 305.107 93.1236 304.125 93.8778 303.229C94.6321 302.333 95.6341 302.232 95.6392 302.399Z" fill="#1A2E35"/>
<path d="M97.7371 306.853C97.5802 306.888 97.3421 306.022 97.7875 305.076C98.233 304.129 99.043 303.754 99.1139 303.896C99.1847 304.038 98.6886 304.549 98.3343 305.329C97.9799 306.109 97.9092 306.832 97.7371 306.853Z" fill="#1A2E35"/>
<path d="M93.1518 296.809C93.081 296.966 92.2859 296.728 91.3089 296.809C90.3319 296.89 89.5675 297.183 89.4764 297.031C89.3852 296.88 90.1196 296.267 91.2738 296.211C92.428 296.156 93.2227 296.662 93.1518 296.809Z" fill="#1A2E35"/>
<path d="M50.4176 284.699L48.9345 301.218C48.9345 301.218 66.9658 307.83 67.1581 311.156L33.1406 311.455V308.969L34.5124 300.469L36.5373 283.955L50.4176 284.699Z" fill="#EA4B62"/>
<path d="M38.6752 298.718C38.34 298.821 38.0547 299.045 37.8744 299.346C37.694 299.647 37.6311 300.004 37.6979 300.348C37.7887 300.685 38.005 300.974 38.3025 301.157C38.5999 301.34 38.956 301.402 39.2976 301.33C39.6479 301.214 39.9442 300.974 40.1306 300.655C40.3169 300.337 40.3805 299.961 40.31 299.599C40.0771 298.941 39.146 298.434 38.5284 298.763" fill="#E1E1E1"/>
<path d="M33.1562 311.454V308.969L65.7866 309.394C65.7866 309.394 67.3409 310.062 67.1688 311.156L33.1562 311.454Z" fill="#000001"/>
<path d="M49.4947 301.041C49.4947 301.208 48.6388 301.289 47.8035 301.84C46.9683 302.392 46.5283 303.106 46.3714 303.035C46.2145 302.964 46.4621 301.987 47.4847 301.339C48.5072 300.691 49.5301 300.884 49.4947 301.041Z" fill="#1A2E35"/>
<path d="M53.1454 302.535C53.1859 302.702 52.452 302.991 51.8749 303.715C51.2978 304.439 51.1358 305.198 50.9688 305.188C50.8017 305.178 50.6851 304.221 51.4191 303.34C52.1531 302.459 53.1403 302.373 53.1454 302.535Z" fill="#1A2E35"/>
<path d="M55.2529 306.899C55.1011 306.935 54.8581 306.089 55.2935 305.158C55.7288 304.226 56.5187 303.852 56.5946 303.988C56.6705 304.125 56.1741 304.631 55.8298 305.401C55.4856 306.17 55.4048 306.884 55.2529 306.899Z" fill="#1A2E35"/>
<path d="M50.7 297.062C50.6291 297.219 49.8445 296.986 48.8877 297.062C47.931 297.138 47.177 297.436 47.0858 297.295C46.9947 297.153 47.7183 296.54 48.8472 296.474C49.9761 296.409 50.7557 296.93 50.7 297.062Z" fill="#1A2E35"/>
<path d="M77.1122 171.432C76.8034 172.383 71.2605 211.36 67.2159 228.547C63.1712 245.734 58.6762 250.29 57.8865 264.273C56.9804 280.356 52.5609 299.847 52.5609 299.847H32.6719C32.6719 299.847 35.4711 270.115 38.2654 246.878C41.0597 223.641 45.1045 194.987 44.4818 186.391C43.8592 177.795 42.3051 167.179 44.4818 155.141C46.6585 143.102 51.3612 139.923 51.3612 139.923L68.2332 139.158L77.1122 171.432Z" fill="#000001"/>
<path d="M93.7346 138.08C93.7346 138.08 101.945 161.848 102.229 179.537C102.512 197.225 102.796 225.342 99.1155 256.36C95.4354 287.378 93.7346 299.847 93.7346 299.847H75.0552C75.0552 299.847 73.0761 280.422 73.3596 263.028C73.643 245.633 75.0047 240.125 73.3596 221.009C71.7144 201.893 69.0416 190.381 66.2726 184.584C66.2726 184.584 57.404 172.566 56.837 159.991C56.27 147.415 61.8991 139.462 61.8991 139.462L93.7346 138.08Z" fill="#000001"/>
<path d="M58.3965 149.137C58.28 149.332 58.1766 149.535 58.0876 149.744C57.815 150.335 57.5899 150.946 57.4143 151.572C56.8448 153.901 56.6231 156.301 56.7563 158.695C56.9045 162.242 57.4528 165.76 58.3911 169.184C58.9296 171.215 59.6566 173.191 60.5628 175.087C61.6056 177.081 62.8078 178.987 64.1572 180.787C66.8603 184.513 68.2069 188.756 69.2193 192.588C70.0656 196.011 70.6944 199.484 71.1022 202.986C71.4718 205.978 71.6946 208.408 71.8566 210.074C71.9376 210.884 72.0032 211.527 72.0539 212.008C72.0644 212.233 72.0948 212.456 72.1448 212.676C72.1638 212.45 72.1638 212.223 72.1448 211.998C72.1145 211.491 72.0793 210.874 72.0287 210.059C71.9122 208.378 71.7399 205.938 71.4058 202.936C71.0377 199.413 70.4342 195.919 69.5989 192.477C69.0964 190.442 68.4671 188.44 67.7155 186.483C67.31 185.445 66.8473 184.431 66.3288 183.445C65.7791 182.443 65.1757 181.471 64.5215 180.534C63.1832 178.748 61.9884 176.859 60.9479 174.885C60.0503 173.014 59.325 171.065 58.7811 169.063C57.8361 165.669 57.2625 162.182 57.0702 158.664C56.9056 156.29 57.076 153.904 57.5764 151.577C57.7326 150.952 57.9304 150.338 58.1686 149.739C58.2631 149.546 58.3395 149.344 58.3965 149.137Z" fill="white"/>
<path d="M50.4872 73.497L65.9266 72.2617C65.9266 72.2617 83.1378 85.976 86.6813 103.457C90.2248 120.938 94.2438 138.388 94.2438 138.388L62.8182 142.256C59.5452 142.656 56.2334 142.61 52.9728 142.119L49.6972 141.613L52.3904 130.516C52.3904 130.516 47.4095 109.522 45.4656 101.604C41.2387 84.4573 50.4872 73.497 50.4872 73.497Z" fill="#C06A87"/>
<path d="M80.0993 106.894L92.8406 131.857C89.5401 131.741 87.1909 130.369 84.9434 127.944C82.6958 125.519 81.1472 122.552 79.6538 119.611C75.8623 112.154 72.2074 104.398 71.4531 96.0703C74.6079 99.4515 77.4985 103.07 80.0993 106.894Z" fill="#AE5E79"/>
<path d="M129.298 96.3596C128.799 96.5048 128.316 96.6998 127.856 96.9418C128.054 95.9568 128.456 95.0241 129.035 94.203C129.485 93.5004 129.826 92.7341 130.047 91.93C130.159 90.3859 128.979 89.2468 127.992 90.9934C127.444 91.8484 126.802 92.6397 126.079 93.3525C123.907 95.4636 116.906 103.083 116.906 103.083L122.312 110.14C122.312 110.14 128.787 109.765 132.609 108.621C135.484 107.74 136.608 106.662 136.633 105.994C136.658 105.325 135.514 104.925 135.514 104.925C135.906 104.361 136.108 103.688 136.091 103.002C135.955 102.106 134.725 101.67 134.725 101.67C134.985 101.128 135.134 100.539 135.165 99.9388C135.165 99.0225 134.036 97.9138 134.036 97.9138C134.036 97.9138 135.945 97.2 134.882 95.5395C134.583 95.0738 133.682 94.8358 132.032 95.3623C131.004 95.6813 129.298 96.3596 129.298 96.3596Z" fill="#315D80"/>
<path d="M117.909 100.683C117.722 100.951 99.3521 111.461 99.3521 111.461C99.3521 111.461 90.7462 95.0939 87.9974 89.3733C85.2791 83.7286 81.9229 75.7045 77.5341 73.2189C73.1452 70.7332 65.9219 72.2621 65.9219 72.2621L68.8578 93.5701L76.0105 108.925C76.0105 108.925 84.4742 125.844 89.1161 129.777C93.343 133.361 99.9087 131.924 102.905 130.172C105.902 128.42 125.523 111.512 125.523 111.512L117.909 100.683Z" fill="#C06A87"/>
<path d="M68.8594 93.8125C68.8983 93.9883 68.9598 94.1584 69.0418 94.3187C69.1987 94.6883 69.3957 95.1591 69.6488 95.7464C70.1854 96.9766 70.9801 98.7484 71.9925 100.925C74.0174 105.284 76.9434 111.248 80.4058 117.713C82.1573 120.927 83.7519 124.066 85.7211 126.597C86.6416 127.809 87.7096 128.9 88.9002 129.847C89.9477 130.671 91.1391 131.292 92.4135 131.68C94.2539 132.242 96.2039 132.345 98.0931 131.979C98.6088 131.882 99.1164 131.747 99.6117 131.574C99.7858 131.518 99.955 131.449 100.118 131.366C100.118 131.321 99.4092 131.594 98.0931 131.817C96.2297 132.114 94.3224 131.971 92.5248 131.396C91.2947 130.997 90.147 130.378 89.138 129.569C87.9837 128.628 86.9485 127.551 86.0552 126.359C84.1316 123.853 82.5522 120.73 80.8058 117.51C77.3483 111.055 74.387 105.117 72.2862 100.804C71.2738 98.6776 70.4234 96.9361 69.8159 95.6806L69.1377 94.2884C69.0598 94.1215 68.9667 93.9622 68.8594 93.8125Z" fill="white"/>
<path d="M44.9973 94.2949C44.9795 94.7052 45.0083 95.1162 45.0833 95.52C45.1845 96.3047 45.3412 97.4337 45.5589 98.8259C45.9942 101.61 46.6475 105.448 47.4473 109.675C48.2471 113.902 49.0516 117.714 49.6995 120.458C50.0286 121.83 50.302 122.939 50.5196 123.698C50.6076 124.098 50.7315 124.489 50.8894 124.867C50.8594 124.458 50.7898 124.053 50.6818 123.657C50.5046 122.807 50.2716 121.713 49.9932 120.392C49.4211 117.638 48.6673 113.811 47.8675 109.594C47.0677 105.377 46.3843 101.62 45.8426 98.7752C45.5946 97.4489 45.392 96.3452 45.2351 95.4947C45.1779 95.0907 45.0986 94.6902 44.9973 94.2949Z" fill="white"/>
<path d="M29.9781 40.5C27.3559 40.5506 24.6631 40.8898 22.3548 42.1453C20.0465 43.4008 18.1782 45.6891 18.0668 48.3418C17.9555 50.9946 20.0056 53.6726 22.6227 53.7485C21.3752 54.3684 20.3727 55.3903 19.7768 56.6496C19.1809 57.9088 19.0266 59.332 19.3383 60.6899C19.6499 62.0477 20.4098 63.261 21.4951 64.1343C22.5805 65.0076 23.9279 65.49 25.3209 65.5037C22.5063 66.8655 22.3901 71.1939 24.4049 73.6037C26.4196 76.0134 29.6848 76.874 32.7727 77.36C33.7912 79.2382 35.318 80.7914 37.1783 81.842C39.0386 82.8925 41.1572 83.3978 43.2914 83.3001C45.4256 83.2024 47.4893 82.5055 49.2458 81.2893C51.0023 80.0732 52.3806 78.3868 53.2233 76.4235C54.9624 76.3785 56.6172 75.664 57.8425 74.4289C59.0678 73.1938 59.7693 71.5335 59.8006 69.794C59.8319 68.0544 59.1906 66.3699 58.0106 65.0915C56.8305 63.8131 55.2029 63.0395 53.4665 62.9319C53.6558 62.0525 53.6247 61.14 53.3766 60.2754C53.1284 59.4108 52.6706 58.6209 52.0438 57.9757C50.7833 56.7 49.0066 55.4445 46.3034 55.9507C46.3034 55.9507 43.3673 55.9862 42.4055 53.9916C41.4437 51.9969 40.8365 47.1876 40.8365 47.1876L29.9781 40.5Z" fill="#000001"/>
<path d="M125.494 111.512C125.272 111.293 125.074 111.053 124.902 110.793L123.333 108.657L117.714 100.815L118.023 100.886L99.7991 111.517L99.4803 111.704L99.2069 111.861L99.065 111.578C94.8584 103.219 91.0622 95.6662 88.2729 90.1177L85.119 83.6124C84.7748 82.8834 84.4913 82.2911 84.2737 81.8254C84.1622 81.624 84.0756 81.4098 84.0156 81.1875C84.1576 81.3698 84.2797 81.5666 84.38 81.7748L85.3217 83.5112L88.6926 89.9456L99.637 111.325L99.2272 111.203L99.546 111.016L117.81 100.481L118.002 100.369L118.124 100.546L123.576 108.505C124.18 109.416 124.669 110.152 125.044 110.712C125.22 110.963 125.37 111.231 125.494 111.512Z" fill="white"/>
<path d="M97.5309 118.588C97.3689 118.553 97.5818 116.953 98.002 115.044C98.4221 113.136 98.8925 111.572 99.0545 111.602C99.2164 111.632 99.004 113.232 98.5838 115.146C98.1637 117.059 97.6929 118.619 97.5309 118.588Z" fill="white"/>
<path d="M293.379 222.832C290.555 222.827 287.759 223.384 285.153 224.472C283.85 225.03 282.45 225.322 281.033 225.333L277.408 225.12V173.508H219.806L219.538 178.034C219.548 179.453 219.84 180.855 220.398 182.16C221.483 184.765 222.041 187.559 222.039 190.381C222.039 202.43 212.178 212.044 200.525 210.697C192.051 209.715 185.08 202.789 183.653 193.91C182.957 189.716 183.526 185.41 185.288 181.542C185.942 180.149 186.287 178.631 186.3 177.092L186.553 173.508H128V301.159C128 303.927 129.1 306.582 131.057 308.54C133.015 310.498 135.669 311.597 138.438 311.597H277.408V258.391L280.086 258.578C281.625 258.591 283.143 258.937 284.536 259.59C288.404 261.352 292.709 261.922 296.902 261.226C305.781 259.798 312.706 252.827 313.688 244.352C315.035 232.693 305.422 222.832 293.379 222.832Z" fill="#EA4B62"/>
<path d="M293.378 222.83C293.378 222.83 293.833 222.83 294.734 222.871C295.295 222.879 295.853 222.932 296.405 223.027C297.177 223.116 297.942 223.262 298.693 223.463C300.822 223.972 302.854 224.827 304.706 225.994C307.264 227.591 309.436 229.735 311.065 232.272C312.011 233.802 312.737 235.459 313.221 237.192C313.487 238.125 313.684 239.076 313.813 240.037C313.91 241.047 313.934 242.062 313.885 243.075C313.665 247.651 311.775 251.988 308.574 255.265C304.881 259.071 299.884 261.336 294.588 261.604C291.705 261.782 288.816 261.378 286.093 260.414C285.4 260.171 284.707 259.862 284.038 259.569C283.357 259.289 282.65 259.077 281.927 258.936C281.187 258.812 280.439 258.744 279.69 258.733L277.381 258.576L277.584 258.389C277.584 274.113 277.614 291.984 277.63 311.596V311.849H277.397L178.24 311.9H139.697C138.475 311.952 137.252 311.859 136.052 311.621C133.61 311.067 131.441 309.673 129.922 307.683C129.161 306.69 128.577 305.573 128.196 304.382C127.837 303.185 127.666 301.94 127.69 300.691C127.69 281.165 127.69 261.062 127.69 240.549C127.69 217.606 127.69 195.179 127.69 173.516V173.223H128.576V173.516L128.282 173.228H186.532H186.83L186.805 173.521C186.729 174.635 186.653 175.739 186.572 176.842C186.571 177.977 186.4 179.105 186.066 180.189C185.737 181.287 185.195 182.249 184.851 183.272C184.486 184.288 184.2 185.33 183.995 186.39C183.186 190.607 183.675 194.971 185.398 198.905C187.084 202.746 189.944 205.954 193.568 208.068C197.098 210.126 201.222 210.927 205.267 210.341C209.197 209.763 212.841 207.947 215.669 205.157C217.037 203.789 218.217 202.245 219.177 200.565C220.079 198.888 220.759 197.101 221.202 195.25C222.076 191.611 221.966 187.805 220.883 184.223C220.625 183.332 220.281 182.517 219.942 181.637C219.624 180.758 219.42 179.843 219.334 178.913C219.292 177.998 219.315 177.081 219.405 176.169C219.456 175.268 219.511 174.367 219.567 173.476V173.258H219.785L277.386 173.314H277.564V173.486C277.523 196.541 277.493 214.031 277.472 225.098L277.391 225.012C278.778 225.088 280.085 225.199 281.279 225.235C282.39 225.198 283.488 224.988 284.534 224.612C286.096 223.941 287.728 223.445 289.399 223.134C290.382 222.954 291.377 222.846 292.375 222.81C293.034 222.81 293.357 222.81 293.357 222.81L292.375 222.855C291.381 222.908 290.391 223.029 289.414 223.22C287.752 223.548 286.131 224.058 284.58 224.739C283.523 225.131 282.411 225.35 281.284 225.387C280.069 225.361 278.753 225.26 277.381 225.189H277.3V225.108C277.3 214.042 277.25 196.551 277.209 173.496L277.386 173.673L219.785 173.729L220.012 173.511C219.957 174.402 219.906 175.298 219.856 176.199C219.767 177.089 219.743 177.984 219.785 178.877C219.869 179.769 220.067 180.647 220.372 181.49C220.691 182.32 221.065 183.201 221.323 184.097C222.436 187.758 222.553 191.65 221.663 195.371C220.799 199.231 218.841 202.761 216.024 205.537C213.121 208.408 209.377 210.278 205.337 210.872C201.179 211.48 196.938 210.661 193.305 208.549C189.592 206.37 186.662 203.075 184.932 199.133C182.697 194.057 182.492 188.317 184.36 183.095C184.72 182.031 185.266 181.07 185.565 180.057C185.882 179.019 186.041 177.938 186.035 176.852C186.116 175.742 186.194 174.63 186.268 173.516L186.547 173.81H128.297H128.009V173.516L128.297 173.805H127.999L128.292 173.516C128.292 195.179 128.292 217.606 128.292 240.549C128.292 261.062 128.292 281.165 128.292 300.691C128.263 301.881 128.419 303.068 128.753 304.21C129.114 305.335 129.667 306.391 130.388 307.328C131.822 309.213 133.874 310.534 136.184 311.059C137.341 311.284 138.52 311.37 139.697 311.317H178.27L277.427 311.363L277.194 311.596C277.194 291.984 277.224 274.133 277.24 258.389V258.187H277.442L279.736 258.349C280.503 258.359 281.267 258.43 282.023 258.561C282.771 258.707 283.501 258.928 284.205 259.219C284.903 259.523 285.556 259.822 286.23 260.065C288.9 261.028 291.738 261.443 294.572 261.285C299.787 261.034 304.714 258.823 308.367 255.093C311.535 251.873 313.412 247.602 313.641 243.09C313.783 241.127 313.569 239.155 313.009 237.268C312.538 235.552 311.827 233.911 310.898 232.393C309.293 229.874 307.153 227.74 304.631 226.141C302.799 224.962 300.786 224.092 298.672 223.564C297.926 223.358 297.167 223.204 296.4 223.103C295.85 223.002 295.293 222.943 294.734 222.926C293.833 222.871 293.378 222.83 293.378 222.83Z" fill="#1A2E35"/>
<path d="M363.576 158.678C361.227 145.835 354.829 140.479 354.829 140.479L322.644 149.54C320.654 155.717 320.816 167.067 319.607 173.613C318.594 179.222 316.812 182.467 316.812 182.467L329.027 181.768C329.027 181.768 329.027 177.794 329.508 177.44C329.989 177.085 331.27 181.49 331.27 181.49L362.797 177.288C362.797 177.288 364.948 166.176 363.576 158.678Z" fill="#1A2E35"/>
<path d="M354.839 140.48C349.99 136.242 344.123 134.324 337.76 135.291C334.171 135.832 332.814 136.809 330.354 137.959C327.876 139.011 325.849 140.904 324.629 143.305C323.242 146.205 322.194 149.38 322.381 152.574C322.555 155.643 323.24 158.661 324.406 161.504C326.064 165.125 328.304 168.45 331.038 171.346L336.646 171.088C341.238 170.475 345.889 169.842 350.162 168.05C354.434 166.258 358.347 163.139 360.074 158.841C362.468 152.888 359.684 144.712 354.839 140.48Z" fill="#1A2E35"/>
<path d="M347.47 141.664L335.716 139.133L332.891 139.953C326.422 141.067 323.157 148.964 323.997 154.214C324.934 160.051 326.306 167.139 327.956 171.28C331.272 179.602 338.763 179.081 338.763 179.081L339.305 183.177C339.457 184.318 339.837 185.418 340.423 186.41C341.009 187.401 341.789 188.265 342.716 188.948C343.643 189.632 344.698 190.122 345.818 190.389C346.939 190.656 348.101 190.694 349.237 190.502C351.449 190.127 353.426 188.901 354.744 187.086C356.062 185.271 356.617 183.011 356.288 180.792L350.887 144.13C350.73 143.365 350.292 142.687 349.659 142.231C349.026 141.774 348.245 141.572 347.47 141.664Z" fill="#315D80"/>
<path d="M340.568 167.063C340.422 166.637 340.128 166.277 339.738 166.051C339.381 165.834 338.961 165.741 338.546 165.787C338.13 165.833 337.742 166.014 337.44 166.304C337.127 166.636 336.909 167.046 336.81 167.492C336.711 167.937 336.735 168.402 336.878 168.835C337.113 169.07 337.395 169.252 337.706 169.369C338.017 169.486 338.348 169.535 338.68 169.513L338.989 169.468C339.501 169.378 339.962 169.1 340.279 168.688C340.45 168.458 340.564 168.191 340.614 167.909C340.664 167.627 340.649 167.338 340.568 167.063Z" fill="#315D80"/>
<path d="M328.039 160.932C328.102 161.221 328.275 161.474 328.522 161.637C328.769 161.801 329.07 161.862 329.36 161.808C329.504 161.787 329.641 161.738 329.765 161.663C329.889 161.588 329.997 161.489 330.082 161.372C330.168 161.256 330.228 161.123 330.262 160.982C330.295 160.841 330.3 160.695 330.276 160.552C330.214 160.262 330.041 160.008 329.794 159.844C329.548 159.679 329.247 159.617 328.955 159.671C328.811 159.692 328.674 159.742 328.549 159.817C328.425 159.892 328.317 159.991 328.231 160.109C328.146 160.226 328.085 160.359 328.052 160.501C328.019 160.642 328.015 160.789 328.039 160.932Z" fill="#1A2E35"/>
<path d="M326.93 157.342C327.067 157.444 327.943 157.13 329.158 157.231C330.373 157.332 331.249 157.783 331.385 157.702C331.522 157.621 331.314 157.494 330.93 157.287C330.376 157.003 329.773 156.831 329.153 156.78C328.553 156.722 327.948 156.789 327.376 156.978C326.996 157.145 326.864 157.297 326.93 157.342Z" fill="#1A2E35"/>
<path d="M335.779 164.93C335.779 164.86 335 164.9 333.755 165.016C333.441 165.057 333.142 165.057 333.041 164.865C332.945 164.556 332.945 164.226 333.041 163.918C333.162 163.113 333.289 162.278 333.42 161.387C333.927 157.807 334.22 154.891 334.073 154.871C333.927 154.851 333.4 157.737 332.899 161.316C332.777 162.202 332.666 163.042 332.56 163.847C332.452 164.257 332.491 164.693 332.671 165.077C332.74 165.174 332.83 165.255 332.934 165.313C333.039 165.371 333.155 165.404 333.274 165.411C333.452 165.419 333.631 165.403 333.805 165.366C335.035 165.163 335.79 165.001 335.779 164.93Z" fill="#1A2E35"/>
<path d="M338.734 179.08C342.813 178.224 346.574 176.253 349.598 173.385C349.598 173.385 347.866 180.067 339.048 181.206L338.734 179.08Z" fill="#315D80"/>
<path d="M339.471 164.967C339.274 164.997 339.562 166.293 338.661 167.458C337.76 168.622 336.353 168.794 336.383 168.977C336.383 169.063 336.748 169.159 337.335 169.042C338.096 168.884 338.776 168.461 339.253 167.848C339.712 167.26 339.925 166.518 339.846 165.777C339.775 165.225 339.558 164.937 339.471 164.967Z" fill="white"/>
<path d="M326.16 152.523C326.424 152.766 327.294 152.366 328.383 152.214C329.471 152.062 330.408 152.143 330.59 151.83C330.661 151.678 330.483 151.419 330.048 151.212C329.459 150.961 328.811 150.884 328.18 150.989C327.55 151.078 326.958 151.349 326.479 151.769C326.13 152.103 326.039 152.381 326.16 152.523Z" fill="#1A2E35"/>
<path d="M340.97 158.537C341.027 158.827 340.969 159.128 340.807 159.376C340.645 159.624 340.393 159.799 340.104 159.863C339.964 159.9 339.818 159.909 339.675 159.89C339.531 159.87 339.393 159.822 339.269 159.749C339.144 159.675 339.035 159.578 338.948 159.462C338.861 159.346 338.798 159.214 338.763 159.073C338.707 158.783 338.766 158.483 338.927 158.235C339.089 157.988 339.34 157.812 339.628 157.747C339.768 157.709 339.915 157.699 340.058 157.719C340.202 157.738 340.34 157.786 340.465 157.859C340.59 157.933 340.7 158.031 340.786 158.147C340.873 158.263 340.935 158.396 340.97 158.537Z" fill="#1A2E35"/>
<path d="M342.472 154.341C342.391 154.483 341.49 154.609 340.447 155.227C339.404 155.845 338.772 156.589 338.62 156.584C338.549 156.584 338.62 156.386 338.873 156.052C339.274 155.58 339.756 155.183 340.295 154.878C340.807 154.57 341.372 154.361 341.961 154.26C342.34 154.21 342.517 154.275 342.472 154.341Z" fill="#1A2E35"/>
<path d="M341.266 149.851C341.083 150.165 340.101 150.058 338.988 150.251C337.874 150.443 336.963 150.818 336.694 150.57C336.573 150.453 336.694 150.149 337.034 149.815C337.541 149.401 338.15 149.128 338.797 149.026C339.445 148.924 340.108 148.995 340.719 149.233C341.18 149.456 341.362 149.714 341.266 149.851Z" fill="#1A2E35"/>
<path d="M351.849 159.024C351.707 158.381 352.107 156.7 352.719 156.457C354.36 155.809 357.442 155.257 358.445 159.555C359.806 165.433 353.625 165.595 353.575 165.428C353.524 165.261 352.345 161.246 351.849 159.024Z" fill="#315D80"/>
<path d="M354.692 162.901C354.692 162.901 354.814 162.951 355.001 162.992C355.269 163.036 355.543 162.978 355.771 162.83C356.343 162.455 356.636 161.346 356.419 160.298C356.316 159.79 356.102 159.311 355.791 158.896C355.692 158.726 355.554 158.582 355.389 158.477C355.223 158.371 355.035 158.307 354.839 158.289C354.714 158.286 354.591 158.326 354.492 158.404C354.393 158.482 354.324 158.591 354.297 158.714C354.257 158.896 354.297 159.002 354.297 159.023C354.297 159.043 354.151 158.952 354.141 158.699C354.139 158.544 354.191 158.394 354.287 158.273C354.353 158.194 354.434 158.129 354.525 158.081C354.616 158.033 354.716 158.004 354.819 157.995C355.071 157.986 355.321 158.043 355.546 158.159C355.77 158.275 355.961 158.447 356.099 158.658C356.467 159.109 356.719 159.642 356.833 160.212C357.071 161.407 356.722 162.652 355.933 163.098C355.785 163.181 355.62 163.23 355.451 163.24C355.281 163.251 355.112 163.223 354.955 163.159C354.738 163.042 354.677 162.916 354.692 162.901Z" fill="#315D80"/>
<path d="M352.972 156.43L351.726 158.253C344.158 153.109 328.794 139.643 329.66 140.453C332.444 138.842 335.587 137.954 338.803 137.871C343.784 137.871 353.381 138.757 354.206 144.498C355.032 150.239 352.972 156.43 352.972 156.43Z" fill="#1A2E35"/>
<path d="M287.908 196.363L316.56 207.496L327.003 198.9L334.267 206.63L315.218 218.178L286.531 203.203L287.908 196.363Z" fill="#315D80"/>
<path d="M339.263 183.496C338.407 184.804 337.458 186.05 336.424 187.222C334.88 188.989 324.031 200.076 324.031 200.076L328.081 205.391L337.021 202.779L339.263 183.496Z" fill="#574A66"/>
<path d="M377.829 225.457V224.561L369.684 193.771C367.66 186.178 362.349 181.171 354.645 179.531C353.901 179.374 339.286 182.882 339.145 182.897L334.224 197.315C334.224 197.315 329.582 210.169 330.352 216.644C330.828 220.668 342.152 237.84 342.152 237.84L339.145 242.452C365.584 255.584 390.303 254.066 390.303 254.066C387.842 241.364 377.829 225.457 377.829 225.457Z" fill="#6B5E7A"/>
<path d="M359.997 230.061C359.366 230.594 358.688 231.07 357.972 231.483C356.676 232.308 354.854 233.382 352.774 234.455C350.693 235.528 348.764 236.394 347.342 236.986C346.591 237.333 345.809 237.611 345.008 237.816C345.72 237.397 346.464 237.032 347.23 236.723C348.617 236.08 350.521 235.174 352.591 234.105C354.662 233.037 356.499 232.01 357.825 231.25C358.518 230.8 359.244 230.402 359.997 230.061Z" fill="#1A2E35"/>
<path d="M353.216 206.631C353.216 206.631 324.903 230.46 320.17 230.055C315.437 229.65 279.891 206.975 279.891 206.975L284.953 198.298L318.925 213.187L344.62 189.99L353.216 206.631Z" fill="#315D80"/>
<path d="M287.377 200.221C287.493 199.953 288.389 192.506 288.389 192.506C288.389 192.506 288.971 184.285 289.006 184.194C289.042 184.102 288.819 182.422 287.033 184.614C285.246 186.806 285.564 190.223 285.564 190.223L278.695 186.75C278.695 186.75 276.058 185.13 275.577 186.922C275.412 186.79 275.221 186.694 275.017 186.64C274.813 186.586 274.6 186.575 274.391 186.607C274.182 186.64 273.983 186.716 273.805 186.831C273.628 186.945 273.476 187.095 273.359 187.272C272.499 188.37 273.263 189.803 273.263 189.803C273.263 189.803 271.795 191.433 272.757 192.658C272.757 192.658 271.537 193.164 272.529 195.306L276.301 199.28C276.301 199.28 277.045 204.56 278.168 205.891C279.292 207.223 282.785 208.357 282.785 208.357L288.713 201.533L287.377 200.221Z" fill="#315D80"/>
<path d="M287.904 196.363C287.762 196.338 287.287 198.642 286.816 201.482C286.345 204.322 285.803 206.595 285.945 206.63C286.087 206.666 286.831 204.428 287.291 201.568C287.752 198.707 288.02 196.389 287.904 196.363Z" fill="white"/>
<path d="M275.814 187.206C275.748 187.317 277.495 188.502 279.722 189.843C281.949 191.185 283.812 192.187 283.883 192.076C283.954 191.965 282.198 190.78 279.97 189.433C277.743 188.087 275.885 187.094 275.814 187.206Z" fill="white"/>
<path d="M273.135 189.423C273.064 189.534 274.785 190.78 277.053 192.101C279.321 193.422 281.249 194.303 281.31 194.187C281.371 194.07 279.544 193.002 277.291 191.686C275.038 190.37 273.211 189.337 273.135 189.423Z" fill="white"/>
<path d="M272.754 192.649C272.678 192.755 273.766 193.692 275.219 194.633C276.672 195.575 277.993 196.152 278.054 196.051C278.114 195.949 276.935 195.175 275.482 194.233C274.029 193.292 272.835 192.542 272.754 192.649Z" fill="white"/>
<path d="M279.383 198.749C279.383 198.789 279.889 199.022 280.765 198.815C281.284 198.683 281.755 198.41 282.126 198.025C282.598 197.539 282.894 196.91 282.967 196.238L282.678 196.445C282.994 196.52 283.324 196.512 283.635 196.42C283.883 196.349 284.112 196.226 284.308 196.059C284.505 195.892 284.664 195.686 284.774 195.453C284.971 195.031 285.004 194.551 284.865 194.106L284.541 194.339C284.737 194.469 284.959 194.552 285.191 194.583C285.424 194.613 285.66 194.591 285.882 194.516C286.219 194.401 286.5 194.162 286.667 193.848C286.935 193.342 286.799 192.977 286.768 192.993C286.738 193.008 286.738 193.317 286.454 193.717C286.292 193.946 286.053 194.111 285.781 194.182C285.609 194.225 285.429 194.231 285.255 194.199C285.08 194.166 284.914 194.097 284.769 193.995L284.263 193.615L284.455 194.228C284.55 194.585 284.503 194.965 284.323 195.288C284.144 195.61 283.846 195.851 283.493 195.959C283.263 196.028 283.019 196.037 282.784 195.985L282.547 195.919L282.521 196.187C282.468 196.707 282.268 197.201 281.946 197.612C281.623 198.023 281.191 198.335 280.699 198.511C280.267 198.625 279.827 198.705 279.383 198.749Z" fill="white"/>
<path d="M361.777 182.28C356.857 178.433 348.11 183.931 342.035 188.472C336.543 192.588 328.109 200.789 328.109 200.789L343.559 218.194L359.58 205.224C363.519 202.161 367.052 196.693 366.758 191.712C366.661 189.873 366.166 188.077 365.306 186.448C364.445 184.82 363.241 183.398 361.777 182.28Z" fill="#574A66"/>
<path d="M361.778 182.28C361.849 182.318 361.915 182.364 361.975 182.417C362.102 182.513 362.294 182.649 362.527 182.852C363.213 183.441 363.834 184.101 364.38 184.821C365.252 185.975 365.917 187.272 366.344 188.654C366.933 190.5 367.065 192.461 366.729 194.369C365.964 198.617 362.917 203.193 358.265 206.544L343.706 218.365L343.529 218.507L343.382 218.335L337.92 212.204L327.917 200.94L327.766 200.778L327.927 200.621C332.169 196.571 336.214 192.866 340.036 189.772C343.36 187.045 346.974 184.692 350.813 182.756C354.078 181.212 357.05 180.609 359.024 181.04L359.712 181.181C359.925 181.242 360.107 181.338 360.284 181.404C360.589 181.505 360.878 181.65 361.14 181.834L361.646 182.169C361.754 182.246 361.805 182.287 361.798 182.29C360.951 181.744 360.005 181.371 359.014 181.191C357.085 180.822 354.179 181.455 350.96 183.019C347.164 184.993 343.592 187.369 340.304 190.107C336.518 193.21 332.488 196.916 328.266 200.981V200.662L338.284 211.911L343.741 218.046L343.413 218.021L358.006 206.241C362.638 202.94 365.63 198.48 366.425 194.339C366.767 192.484 366.66 190.574 366.111 188.77C365.709 187.407 365.079 186.121 364.248 184.968C363.721 184.239 363.126 183.561 362.471 182.943L361.965 182.472C361.896 182.415 361.833 182.351 361.778 182.28Z" fill="white"/>
<path d="M348.263 305.973L366.076 299.898C366.076 299.898 378.225 315.956 381.652 315.151L371.078 280.189L342.938 288.543L348.263 305.973Z" fill="#C06A87"/>
<path d="M361.291 289.53C361.29 289.162 361.426 288.808 361.672 288.535C361.918 288.261 362.257 288.089 362.622 288.052C362.989 288.039 363.347 288.167 363.622 288.41C363.897 288.653 364.068 288.992 364.1 289.358C364.097 289.747 363.951 290.121 363.69 290.408C363.428 290.696 363.07 290.877 362.683 290.917C361.949 290.882 361.164 290.107 361.296 289.398" fill="#E1E1E1"/>
<path d="M371.807 279.926L369.078 280.731L379.461 314.29C379.461 314.29 380.604 315.642 381.652 315.135L371.807 279.926Z" fill="#E1E1E1"/>
<path d="M366.071 300.499C366.238 300.443 366.07 299.568 366.354 298.56C366.637 297.553 367.23 296.889 367.113 296.753C366.997 296.616 366.101 297.168 365.752 298.393C365.402 299.618 365.919 300.585 366.071 300.499Z" fill="#1A2E35"/>
<path d="M368.689 303.709C368.866 303.709 368.932 302.873 369.479 302.074C370.025 301.274 370.739 300.874 370.683 300.707C370.628 300.54 369.625 300.707 368.962 301.719C368.299 302.732 368.527 303.749 368.689 303.709Z" fill="#1A2E35"/>
<path d="M373.708 304.464C373.708 304.302 372.777 304.322 371.972 305.041C371.167 305.76 371.04 306.671 371.202 306.701C371.364 306.732 371.708 306.084 372.386 305.501C373.065 304.919 373.743 304.641 373.708 304.464Z" fill="#1A2E35"/>
<path d="M361.035 304.129C361.191 303.987 360.635 303.152 360.372 301.998C360.108 300.843 360.194 299.851 359.992 299.801C359.789 299.75 359.334 300.813 359.663 302.17C359.992 303.527 360.908 304.256 361.035 304.129Z" fill="#1A2E35"/>
<path d="M344.42 256.39C343.615 256.167 306.373 291.473 305.569 297.745C304.764 304.018 306.075 309.485 310.236 313.024C314.397 316.563 362.026 304.98 362.026 304.98L357.521 285.039L374.732 279.247L359.344 251.1L344.42 256.39Z" fill="#D0B241"/>
<g opacity="0.3">
<path d="M336.314 263.568L334.391 265.395C334.391 265.395 353.328 284.633 359.549 284.349L369.507 280.978L337.722 262.236L336.314 263.568Z" fill="black"/>
</g>
<path d="M357.007 284.619C357.043 284.741 349.662 287.019 340.525 289.682C331.388 292.345 323.942 294.445 323.906 294.319C323.871 294.192 331.251 291.919 340.393 289.256C349.536 286.593 356.962 284.513 357.007 284.619Z" fill="#375A64"/>
<path d="M317.768 288.385L323.503 306.61C323.503 306.61 306.935 318.552 307.664 322.02L343.352 312.163L335.576 283.434L317.768 288.385Z" fill="#C06A87"/>
<path d="M334.115 301.993C334.488 302.004 334.843 302.152 335.114 302.408C335.384 302.663 335.551 303.01 335.583 303.381C335.587 303.752 335.447 304.111 335.194 304.383C334.941 304.656 334.593 304.82 334.222 304.844C333.832 304.827 333.462 304.668 333.182 304.396C332.902 304.125 332.731 303.76 332.703 303.37C332.754 302.631 333.564 301.852 334.288 302.004" fill="#E1E1E1"/>
<path d="M343.586 312.888L342.836 310.104L308.576 319.798C308.576 319.798 307.179 320.932 307.665 322L343.586 312.888Z" fill="#E1E1E1"/>
<path d="M322.88 306.565C322.935 306.742 323.826 306.565 324.839 306.899C325.851 307.233 326.509 307.831 326.651 307.719C326.793 307.608 326.256 306.671 325.026 306.302C323.796 305.932 322.799 306.418 322.88 306.565Z" fill="#1A2E35"/>
<path d="M319.565 309.146C319.565 309.329 320.411 309.415 321.205 309.992C322 310.569 322.385 311.298 322.557 311.242C322.729 311.187 322.557 310.169 321.544 309.476C320.532 308.782 319.504 308.979 319.565 309.146Z" fill="#1A2E35"/>
<path d="M318.677 314.214C318.844 314.214 318.844 313.272 318.136 312.442C317.427 311.612 316.506 311.455 316.47 311.622C316.435 311.789 317.083 312.159 317.655 312.847C318.227 313.536 318.49 314.25 318.677 314.214Z" fill="#1A2E35"/>
<path d="M322.03 302.271C322.147 302.413 322.881 301.952 323.883 301.765C324.885 301.577 325.741 301.658 325.791 301.486C325.842 301.314 324.931 300.894 323.766 301.152C322.602 301.41 321.904 302.16 322.03 302.271Z" fill="#1A2E35"/>
<g opacity="0.3">
<path d="M344.418 308.948L341.786 298.605L343.75 297.689L332.264 267.451L329.5 267.102L338.905 296.945L342.267 309.399L344.418 308.948Z" fill="black"/>
</g>
<path d="M316.176 228.319C313.855 227.821 311.455 227.821 309.134 228.318C306.813 228.815 304.624 229.799 302.711 231.205C299.502 233.615 296.819 237.482 297.689 243.562C299.618 257.069 316.88 303.183 316.88 303.183L340.763 295.99C340.9 295.949 341.031 295.554 340.955 295.676C340.763 295.99 328.837 257.57 329.14 258.021C329.444 258.471 353.246 277.699 363.127 281.227C373.287 284.857 383.33 280.519 388.164 273.755C390.483 270.515 396.537 256.036 385.952 241.912L365.471 243C365.471 243 318.646 229.023 317.948 228.76C317.367 228.575 316.776 228.428 316.176 228.319Z" fill="#F1D15B"/>
<path d="M389.11 273.278C389.11 273.278 389.019 273.435 388.822 273.733C388.525 274.174 388.202 274.596 387.855 274.999C386.481 276.528 384.896 277.855 383.147 278.937C380.373 280.718 377.26 281.904 374.005 282.42C371.96 282.755 369.877 282.784 367.824 282.507C365.498 282.221 363.239 281.536 361.147 280.482C360.013 279.975 358.935 279.348 357.786 278.765C356.682 278.107 355.528 277.469 354.389 276.74C352.101 275.318 349.747 273.784 347.358 272.113C342.559 268.787 337.532 265.026 332.324 260.89L330.369 259.305L329.393 258.49L329.134 258.252L329.002 258.131C329.089 258.156 328.775 258.024 329.18 258.186C329.489 257.857 329.266 258.019 329.337 257.984V258.055L329.509 258.662C330.015 260.292 330.521 261.946 331.027 263.623C332.087 266.968 333.172 270.394 334.283 273.9C336.515 280.912 338.839 288.227 341.263 295.791L341.334 296.013L341.112 296.079L316.97 303.394L316.758 303.455L316.681 303.248C315.163 299.117 313.533 294.707 311.938 290.242C308.471 280.537 305.175 271.005 302.27 261.75C300.812 257.113 299.46 252.531 298.377 247.97C298.245 247.403 298.094 246.836 297.982 246.264L297.663 244.543C297.428 243.404 297.316 242.243 297.329 241.08C297.331 238.765 297.997 236.498 299.248 234.55C301.779 230.727 306.021 228.475 310.238 227.908C312.33 227.613 314.46 227.704 316.52 228.176L318.038 228.561L319.496 228.991L322.371 229.852L343.526 236.17L374.152 245.348L382.474 247.879L384.635 248.547C385.142 248.699 385.364 248.79 385.364 248.79C385.364 248.79 385.111 248.73 384.62 248.593L382.448 247.97L374.071 245.53L343.389 236.493L322.204 230.226L319.324 229.376L317.866 228.94L316.408 228.576C314.395 228.123 312.316 228.039 310.273 228.328C306.167 228.9 302.022 231.107 299.592 234.798C298.389 236.678 297.75 238.863 297.749 241.095C297.74 242.233 297.852 243.368 298.084 244.482C298.19 245.049 298.296 245.616 298.397 246.183C298.498 246.75 298.66 247.312 298.792 247.879C299.875 252.435 301.232 256.992 302.69 261.619C305.601 270.888 308.896 280.39 312.358 290.095C313.958 294.555 315.563 298.965 317.102 303.096L316.813 302.954L341.01 295.684L340.858 295.973L333.903 274.072L330.668 263.755L329.149 258.784L328.972 258.161V258.075C329.038 258.014 328.8 258.141 329.124 257.802C329.549 257.979 329.256 257.867 329.357 257.913L329.463 258.004L329.676 258.196L330.643 259.011L332.592 260.591C337.786 264.742 342.797 268.509 347.576 271.84C349.96 273.516 352.304 275.055 354.581 276.482C355.71 277.201 356.859 277.839 357.958 278.507C359.102 279.089 360.175 279.742 361.294 280.223C363.354 281.273 365.581 281.958 367.874 282.248C369.906 282.529 371.968 282.512 373.995 282.198C377.233 281.7 380.334 280.544 383.107 278.801C384.854 277.738 386.445 276.438 387.835 274.938C388.194 274.547 388.532 274.136 388.847 273.708C388.994 273.424 389.11 273.278 389.11 273.278Z" fill="#375A64"/>
<path d="M318.228 247.445C318.934 247.717 319.601 248.08 320.212 248.524C321.742 249.513 323.176 250.644 324.495 251.9C325.819 253.155 327.007 254.547 328.039 256.052C328.496 256.653 328.868 257.316 329.142 258.021C329.076 258.061 328.636 257.342 327.77 256.244C326.674 254.819 325.471 253.481 324.171 252.239C322.864 251.005 321.479 249.855 320.025 248.797C318.906 247.982 318.188 247.511 318.228 247.445Z" fill="#1A2E35"/>
<path d="M326.385 244.787C326.76 245.339 327.054 245.943 327.256 246.579C328.427 249.577 329.129 252.738 329.337 255.95C329.433 256.611 329.433 257.283 329.337 257.945C329.195 257.945 329.038 254.907 328.223 251.287C327.408 247.668 326.254 244.838 326.385 244.787Z" fill="#1A2E35"/>
<path d="M337.758 185.926C337.9 186.007 336.336 188.867 334.265 192.314C332.195 195.762 330.403 198.486 330.266 198.389C330.129 198.293 331.689 195.438 333.754 191.996C335.82 188.553 337.617 185.845 337.758 185.926Z" fill="white"/>
</g>
<defs>
<clipPath id="clip0_1953_3728">
<rect width="392" height="322" fill="white"/>
</clipPath>
</defs>
</svg>
