<svg width="111" height="112" viewBox="0 0 111 112" fill="none" xmlns="http://www.w3.org/2000/svg">
<g clip-path="url(#clip0_1170_369)">
<path d="M60.9602 86.4056L79.983 105.43L77.4566 107.701L61.2056 91.4313L60.9811 91.5781V97.1968L71.2005 109.132L68.5424 111.423L60.9452 102.576V111.986H57.4609V0.980469H60.8973V10.1094L61.1308 10.1993L68.5394 1.57948L71.2005 3.8707L60.9692 15.824V21.5146L77.4536 5.00883C78.3337 5.97923 79.07 6.80586 79.7795 7.58458L60.9482 26.4205V43.8728L66.6955 46.2478L75.3164 37.5622V17.1358H78.8186V33.9262L86.0566 26.6811V13.5418H89.5438V23.1739L89.7863 23.3326L97.2697 15.845L99.6644 18.3398L92.2558 25.7137L92.3785 25.9892H102.068V29.5204H88.8763L81.6084 36.7385H98.4551V40.2966H78.0313L69.3985 48.9434C70.1738 50.8123 70.949 52.6902 71.7722 54.6789H85.3322L104.4 35.5794L106.854 38.2301L90.4299 54.652H96.222L108.148 44.4358L110.45 47.0924L101.613 54.6789H111V58.2491H101.371L110.692 67.5338L107.974 69.9028L96.4465 58.3269H90.6214L107.055 74.7638L104.361 77.2557L85.4699 58.3119H71.7692L69.4284 64.0026C72.1853 66.761 75.0559 69.6333 78.1092 72.6882H98.4641V76.1925H81.5935L88.999 83.4675H102.068V86.9388H92.4474L92.2917 87.1814L99.7572 94.669L97.2547 97.0651L89.8851 89.6553L89.6276 89.7601V99.4581H86.0985V86.211L78.8904 79.0498V95.8401H75.3343V75.4078L66.7254 66.752L60.9602 69.1481V86.4056ZM60.9602 47.7993V65.1976C64.8306 64.7903 68.1023 60.8188 68.1173 56.5628C68.1353 52.229 64.9114 48.2515 60.9632 47.7993H60.9602Z" fill="white"/>
<path d="M50.0208 93.1402C47.668 96.0774 45.3172 99.0185 42.9684 101.964C42.4086 102.665 41.813 103.29 40.8162 103.033C39.8194 102.775 39.526 101.955 39.3764 100.996C38.8585 97.7017 38.2838 94.4461 37.733 91.1725C37.4696 89.6001 38.4544 88.5997 39.996 88.8992C42.6301 89.4144 45.2673 89.9176 47.8865 90.4986C48.6708 90.6723 49.3982 91.0976 50.1375 91.3971V87.0093C40.5587 86.7098 32.5784 83.0559 26.5079 75.6281C21.6586 69.6889 19.4256 62.7883 19.7638 55.1419C20.1185 47.3138 23.4659 39.9214 29.114 34.4931C34.7621 29.0647 42.279 26.0156 50.1106 25.976V21.6451C49.4341 21.9206 48.7067 22.334 47.9254 22.5077C45.3062 23.0887 42.6691 23.5889 40.0349 24.107C38.4784 24.4065 37.4696 23.4361 37.727 21.8817C38.2868 18.4943 38.8705 15.1129 39.4183 11.7225C39.556 10.8689 39.9212 10.2249 40.7713 9.98532C41.6214 9.74572 42.268 10.168 42.7948 10.8299C45.1895 13.825 47.5991 16.838 50.1345 20.0068V0.994141H53.6577V111.988H50.2573V93.1642L50.0208 93.1402ZM50.1196 83.4812V29.5161C40.2414 29.9354 32.4228 34.0087 27.3191 42.3949C21.6556 51.7185 21.6796 61.3866 27.379 70.6862C32.4946 79.0365 40.2923 83.0678 50.1196 83.4812ZM42.5164 16.1252L42.244 16.2091L41.5975 20.1925L45.1895 19.4527C44.2137 18.2367 43.3635 17.1825 42.5164 16.1252ZM41.5735 92.7988C41.8309 94.2963 42.0554 95.5603 42.3248 97.1087L45.1895 93.5356L41.5735 92.7988Z" fill="white"/>
<path d="M16.0896 56.5207C16.0896 58.761 16.1046 60.9983 16.0896 63.2386C16.0746 65.1854 14.7935 65.9551 13.1202 65.0087C9.12904 62.7504 5.15085 60.4752 1.18564 58.1829C-0.406829 57.2605 -0.385874 55.724 1.22456 54.7955C5.19376 52.5033 9.17194 50.229 13.1591 47.9728C14.7815 47.0563 16.0687 47.823 16.0866 49.6949C16.1076 51.9712 16.0896 54.2474 16.0896 56.5207ZM5.33444 56.5027L12.4646 60.582V52.4294L5.33444 56.5027Z" fill="white"/>
<path d="M25.3167 33.1426C24.2451 33.1725 23.6135 32.6244 23.2872 31.5013C22.3892 28.3894 21.4912 25.2715 20.6111 22.1567C20.3447 21.2252 19.9616 20.3087 19.8568 19.3593C19.8178 18.7199 19.9973 18.0862 20.3657 17.5622C20.7787 16.9932 21.5091 16.9453 22.2036 17.2418C26.3434 19.0208 30.4982 20.764 34.6201 22.579C36.0329 23.2019 36.2365 24.6755 35.0541 25.6399C32.1446 28.036 29.1901 30.3661 26.2357 32.7023C25.9494 32.8878 25.6406 33.0357 25.3167 33.1426ZM26.0471 28.3505L30.6419 24.6605L24.2151 21.944C24.8647 24.2113 25.4304 26.197 26.0471 28.3624V28.3505Z" fill="white"/>
<path d="M35.81 88.488C35.7561 89.686 35.2113 90.2132 34.3791 90.5606C31.3977 91.8285 28.4203 93.1024 25.4469 94.3823C24.3843 94.8345 23.3186 95.2808 22.262 95.7391C21.9441 95.9032 21.5818 95.9606 21.2287 95.9029C20.8757 95.8452 20.5505 95.6754 20.3013 95.4186C20.05 95.1923 19.8712 94.8966 19.7876 94.5688C19.7039 94.241 19.7192 93.8958 19.8314 93.5766C21.0018 89.4973 22.1422 85.4091 23.3336 81.3358C23.7766 79.8203 25.0548 79.38 26.2851 80.3384C29.2226 82.6346 32.1311 84.9658 35.0107 87.3319C35.4089 87.6584 35.6244 88.2095 35.81 88.488ZM30.6524 88.3173L26.0366 84.6543C25.42 86.8317 24.8602 88.8175 24.2226 91.0697L30.6524 88.3173Z" fill="white"/>
<path d="M16.0866 45.9841C15.4879 45.4989 14.8713 45.2113 14.5689 44.7261C12.7729 41.8449 11.0517 38.9157 9.3006 36.0045C8.89949 35.3396 8.83364 34.6657 9.3006 34.0068C9.76757 33.3479 10.456 33.1263 11.2672 33.267C14.6498 33.8451 18.0352 34.4052 21.4148 34.9862C23.2108 35.2857 23.7915 36.6125 22.7229 38.0681C21.0675 40.3264 19.3883 42.5607 17.6671 44.7771C17.2989 45.2383 16.7092 45.5198 16.0866 45.9841ZM18.3316 38.0382L14.2127 37.3553L16.2781 40.7697L18.3316 38.0382Z" fill="white"/>
<path d="M10.9799 79.7756C9.35447 79.8175 8.53429 78.3619 9.35148 76.9482C10.5818 74.8187 11.8719 72.7192 13.1381 70.6107C13.617 69.808 14.069 68.9903 14.5899 68.2146C15.3652 67.0585 16.6523 66.9267 17.4874 67.996C19.3254 70.3501 21.1164 72.7381 22.8605 75.1602C23.6508 76.2534 23.1898 77.658 21.9057 77.9006C18.2448 78.5985 14.5629 79.1706 10.9799 79.7756ZM16.2721 72.222L14.2157 75.6603L18.3196 74.9565C17.5802 73.9681 16.9846 73.1744 16.2721 72.222Z" fill="white"/>
</g>
<defs>
<clipPath id="clip0_1170_369">
<rect width="111" height="111" fill="white" transform="translate(0 0.988281)"/>
</clipPath>
</defs>
</svg>
