<svg width="81" height="104" viewBox="0 0 81 104" fill="none" xmlns="http://www.w3.org/2000/svg">
<path d="M78.1536 60.1035H2V101.988H78.1536V60.1035Z" stroke="white" stroke-width="4" stroke-linecap="round" stroke-linejoin="round"/>
<path d="M47.6922 41.0651V10.6036C47.6922 8.58392 46.8898 6.64693 45.4617 5.21877C44.0335 3.79061 42.0965 2.98828 40.0768 2.98828C38.0571 2.98828 36.1201 3.79061 34.6919 5.21877C33.2638 6.64693 32.4614 8.58392 32.4614 10.6036V41.0651H9.61536C7.59564 41.0651 5.65865 41.8674 4.23049 43.2956C2.80233 44.7237 2 46.6607 2 48.6805V60.1035H78.1536V48.6805C78.1536 46.6607 77.3513 44.7237 75.9231 43.2956C74.495 41.8674 72.558 41.0651 70.5383 41.0651H47.6922Z" stroke="white" stroke-width="4" stroke-linecap="round" stroke-linejoin="round"/>
<path d="M17.2305 101.989V86.7578" stroke="white" stroke-width="4" stroke-linecap="round" stroke-linejoin="round"/>
<path d="M32.4609 101.989V86.7578" stroke="white" stroke-width="4" stroke-linecap="round" stroke-linejoin="round"/>
<path d="M47.6914 101.989V86.7578" stroke="white" stroke-width="4" stroke-linecap="round" stroke-linejoin="round"/>
<path d="M62.9219 101.989V86.7578" stroke="white" stroke-width="4" stroke-linecap="round" stroke-linejoin="round"/>
</svg>
