<svg width="136" height="112" viewBox="0 0 136 112" fill="none" xmlns="http://www.w3.org/2000/svg">
<g clip-path="url(#clip0_1170_396)">
<path d="M68.2871 16.7938L68.388 0.773438" stroke="white" stroke-width="4" stroke-miterlimit="10" stroke-linecap="round"/>
<path d="M102.711 26.5167L112.709 15.2734" stroke="white" stroke-width="4" stroke-miterlimit="10" stroke-linecap="round"/>
<path d="M102.463 58.6582L116.504 58.7743" stroke="white" stroke-width="4" stroke-miterlimit="10" stroke-linecap="round"/>
<path d="M19.4961 57.9766L33.537 58.0927" stroke="white" stroke-width="4" stroke-miterlimit="10" stroke-linecap="round"/>
<path d="M102.531 89.168L112.46 99.0335" stroke="white" stroke-width="4" stroke-miterlimit="10" stroke-linecap="round"/>
<path d="M23.8535 18.793L33.7135 30.1999" stroke="white" stroke-width="4" stroke-miterlimit="10" stroke-linecap="round"/>
<path d="M91.8531 86.8925L46.75 93.0789C45.2306 93.2901 43.8334 92.0232 43.6528 90.3024L43.5625 89.3998C43.3818 87.6632 44.4762 86.0743 45.9956 85.8632L91.0934 79.6714C92.6128 79.4603 94.01 80.7272 94.1906 82.448L94.2862 83.3506C94.4722 85.0925 93.3778 86.6813 91.8531 86.8925Z" stroke="white" stroke-width="4" stroke-miterlimit="10" stroke-linecap="round"/>
<path d="M91.3754 73.2583L46.3041 79.45C44.7847 79.6612 43.3876 78.3943 43.2069 76.6735L43.1113 75.7709C42.9307 74.0342 44.0251 72.4454 45.5444 72.2343L90.6422 66.0425C92.1616 65.8314 93.5588 67.0982 93.7394 68.819L93.8351 69.7217C94.0316 71.4583 92.9213 73.0524 91.3754 73.2583Z" stroke="white" stroke-width="4" stroke-miterlimit="10" stroke-linecap="round"/>
<path d="M90.9449 59.6288L45.8471 65.8153C44.3277 66.0264 42.9305 64.7595 42.7499 63.0387L42.6543 62.1361C42.4736 60.3995 43.568 58.8106 45.0874 58.5995L90.1852 52.4078C91.7046 52.1966 93.1018 53.4635 93.2824 55.1843L93.378 56.0869C93.564 57.8288 92.4696 59.4177 90.9449 59.6288Z" stroke="white" stroke-width="4" stroke-miterlimit="10" stroke-linecap="round"/>
<path d="M90.4937 45.9946L45.3959 52.1863C43.8765 52.3975 42.4793 51.1306 42.2987 49.4098L42.2031 48.5072C42.0225 46.7706 43.1168 45.1817 44.6362 44.9706L89.7287 38.7789C91.2481 38.5677 92.6453 39.8346 92.8259 41.5554L92.9215 42.458C93.1075 44.1946 92.0131 45.7888 90.4937 45.9946Z" stroke="white" stroke-width="4" stroke-miterlimit="10" stroke-linecap="round"/>
<path d="M90.0367 32.3657L44.9389 38.5416C43.4195 38.7527 42.0223 37.4859 41.8417 35.7651L41.7461 34.8625C41.5654 33.1258 42.6598 31.537 44.1792 31.3258L89.2504 25.15C90.7698 24.9388 92.167 26.2057 92.3476 27.9265L92.4432 28.8291C92.6557 30.5657 91.5614 32.1546 90.0367 32.3657Z" stroke="white" stroke-width="4" stroke-miterlimit="10" stroke-linecap="round"/>
<path d="M57.1621 97.8513C57.8071 99.5221 58.1314 101.298 58.1184 103.088C58.1184 105.758 59.9884 107.939 62.3259 107.96L71.3571 108.034C73.6999 108.034 75.6071 105.922 75.6071 103.23C75.6033 100.239 76.5805 97.3276 78.3909 94.9375L57.1621 97.8513Z" stroke="white" stroke-width="4" stroke-miterlimit="10" stroke-linecap="round"/>
<path d="M23.6289 98.9437L33.558 89.0781" stroke="white" stroke-width="4" stroke-miterlimit="10" stroke-linecap="round"/>
</g>
<defs>
<clipPath id="clip0_1170_396">
<rect width="136" height="111" fill="white" transform="translate(0 0.988281)"/>
</clipPath>
</defs>
</svg>
