<svg width="146" height="113" viewBox="0 0 146 113" fill="none" xmlns="http://www.w3.org/2000/svg">
<g clip-path="url(#clip0_1170_454)">
<path d="M134.879 50.5952L114.268 33.881V9.42913C114.268 9.01598 114.103 8.61975 113.811 8.32761C113.518 8.03547 113.121 7.87134 112.708 7.87134H96.6905C96.4854 7.87097 96.2823 7.91099 96.0927 7.9891C95.9031 8.06722 95.7309 8.18191 95.5857 8.3266C95.4406 8.47129 95.3254 8.64315 95.2468 8.83233C95.1683 9.02152 95.1278 9.22432 95.1278 9.42913V18.3544L73.9835 1.20162C73.7052 0.976407 73.3579 0.853516 72.9997 0.853516C72.6415 0.853516 72.2942 0.976407 72.0159 1.20162L11.1208 50.5952C10.8702 50.798 10.6887 51.0734 10.6013 51.3835C10.5139 51.6935 10.5249 52.023 10.6328 52.3266C10.7407 52.6302 10.9402 52.8929 11.2037 53.0786C11.4673 53.2642 11.7821 53.3637 12.1046 53.3633H26.4194V111.565C26.4194 111.981 26.5847 112.379 26.8788 112.673C27.1729 112.967 27.5718 113.132 27.9878 113.132C28.4038 113.132 28.8027 112.967 29.0968 112.673C29.3909 112.379 29.5562 111.981 29.5562 111.565V51.8055C29.5562 51.3916 29.3915 50.9947 29.0985 50.702C28.8054 50.4093 28.4079 50.2449 27.9935 50.2449H16.4932L72.9997 4.41972L95.7039 22.8341C95.9331 23.0196 96.2101 23.1365 96.5031 23.1713C96.796 23.2061 97.0928 23.1573 97.3592 23.0307C97.6255 22.9041 97.8506 22.7048 98.0083 22.4558C98.166 22.2068 98.2499 21.9184 98.2503 21.6237V10.9841H111.156V34.6215C111.156 34.8528 111.207 35.0814 111.305 35.2907C111.404 35.5001 111.548 35.6849 111.727 35.8318L129.498 50.2421H118.032C117.617 50.2421 117.22 50.4065 116.927 50.6992C116.634 50.9918 116.469 51.3888 116.469 51.8027V68.5368H92.7183C92.6458 68.5372 92.5739 68.5233 92.5068 68.4958C92.4397 68.4684 92.3787 68.4279 92.3273 68.3768C92.2759 68.3258 92.2351 68.2651 92.2072 68.1982C92.1794 68.1313 92.1651 68.0596 92.1651 67.9872V52.2584C94.2576 51.8899 96.1536 50.7976 97.5207 49.173C98.8877 47.5484 99.6386 45.4951 99.6419 43.373V40.8839C99.6396 40.474 99.476 40.0813 99.1862 39.7909C98.8965 39.5005 98.504 39.3356 98.0935 39.3318H74.6593C74.2454 39.3326 73.8486 39.4973 73.5562 39.7899C73.2638 40.0825 73.0995 40.4791 73.0995 40.8925V43.3815C73.1014 45.3426 73.7424 47.2497 74.9256 48.8147C76.1089 50.3797 77.7701 51.5175 79.6581 52.0562V73.7171C79.6641 75.5975 80.4147 77.3991 81.7461 78.7287C83.0774 80.0584 84.8814 80.808 86.7642 80.814H116.469V89.2267H64.9526C64.3884 87.3748 63.2438 85.7528 61.6874 84.5993C60.1309 83.4457 58.2448 82.8217 56.3067 82.8189H53.8144C53.6093 82.8189 53.4063 82.8593 53.2168 82.9378C53.0274 83.0162 52.8553 83.1312 52.7104 83.2762C52.5656 83.4212 52.4507 83.5932 52.3725 83.7825C52.2943 83.9719 52.2542 84.1747 52.2546 84.3796V107.769C52.2542 107.974 52.2943 108.177 52.3725 108.366C52.4507 108.556 52.5656 108.728 52.7104 108.873C52.8553 109.017 53.0274 109.132 53.2168 109.211C53.4063 109.289 53.6093 109.33 53.8144 109.33H56.3067C58.2448 109.327 60.1309 108.703 61.6874 107.549C63.2438 106.396 64.3884 104.774 64.9526 102.922H116.469V111.574C116.486 111.976 116.658 112.356 116.949 112.634C117.24 112.913 117.627 113.068 118.03 113.068C118.433 113.068 118.82 112.913 119.111 112.634C119.402 112.356 119.574 111.976 119.591 111.574V53.3633H133.906C134.229 53.3637 134.544 53.2642 134.807 53.0786C135.071 52.8929 135.27 52.6302 135.378 52.3266C135.486 52.023 135.497 51.6935 135.41 51.3835C135.322 51.0734 135.141 50.798 134.89 50.5952H134.879ZM76.222 43.373V42.4417H96.5194V43.373C96.5171 44.9385 95.8932 46.4393 94.7845 47.546C93.6758 48.6527 92.1728 49.2751 90.6053 49.2766H82.1247C80.5589 49.2729 79.0584 48.6494 77.952 47.5428C76.8456 46.4362 76.2235 44.9368 76.222 43.373ZM86.7728 77.687C85.714 77.687 84.6985 77.267 83.9499 76.5193C83.2012 75.7716 82.7806 74.7574 82.7806 73.7V52.3951H89.054V67.99C89.0548 68.9631 89.4424 69.8961 90.1316 70.5839C90.8208 71.2717 91.7553 71.6581 92.7297 71.6581H116.48V77.687H86.7728ZM56.3067 106.203H55.3771V85.9288H56.3067C57.8745 85.9311 59.3775 86.5541 60.4861 87.6613C61.5947 88.7685 62.2185 90.2695 62.2208 91.8353V100.296C62.2185 101.862 61.5947 103.363 60.4861 104.47C59.3775 105.578 57.8745 106.201 56.3067 106.203ZM65.3433 99.7951V92.3365H116.469V99.7951H65.3433Z" fill="white"/>
<path d="M60.358 68.7672V52.2495C62.4503 51.8805 64.346 50.7881 65.7129 49.1636C67.0799 47.5391 67.831 45.4861 67.8348 43.3641V40.8751C67.834 40.4614 67.6692 40.0649 67.3763 39.7724C67.0834 39.4799 66.6864 39.3152 66.2721 39.3145H42.8523C42.4378 39.3145 42.0404 39.4789 41.7473 39.7716C41.4542 40.0642 41.2896 40.4612 41.2896 40.8751V43.3641C41.2906 45.4869 42.0398 47.5416 43.4059 49.1678C44.772 50.7941 46.6677 51.8881 48.7607 52.2581V60.3802C48.7599 61.028 48.5019 61.6491 48.0433 62.1072C47.5846 62.5653 46.9627 62.8229 46.3141 62.8237H40.6765C39.201 62.8252 37.7862 63.4109 36.7423 64.4524C35.6983 65.4939 35.1104 66.9062 35.1074 68.3799V111.565C35.1246 111.967 35.2966 112.347 35.5875 112.625C35.8784 112.904 36.2658 113.059 36.6687 113.059C37.0715 113.059 37.4589 112.904 37.7498 112.625C38.0407 112.347 38.2127 111.967 38.2299 111.565V68.3799C38.2314 67.7326 38.4897 67.1122 38.9483 66.6548C39.4069 66.1973 40.0284 65.94 40.6765 65.9393H46.3198C47.7973 65.94 49.2147 65.3549 50.2606 64.3126C51.3064 63.2702 51.8952 61.8558 51.8974 60.3802V52.4061H57.2441V68.7786C57.2441 69.3828 57.0038 69.9623 56.5759 70.3896C56.1481 70.8169 55.5679 71.0569 54.9629 71.0569H50.138C48.7011 71.0569 47.323 71.627 46.3069 72.6417C45.2909 73.6565 44.72 75.0328 44.72 76.4679V111.565C44.72 111.981 44.8853 112.379 45.1794 112.673C45.4735 112.966 45.8724 113.131 46.2884 113.131C46.7044 113.131 47.1033 112.966 47.3974 112.673C47.6915 112.379 47.8568 111.981 47.8568 111.565V76.4622C47.8568 75.8579 48.0971 75.2784 48.5249 74.8512C48.9527 74.4239 49.533 74.1839 50.138 74.1839H54.9457C55.6572 74.1831 56.3616 74.0424 57.0187 73.7698C57.6757 73.4972 58.2726 73.098 58.7752 72.595C59.2777 72.092 59.6762 71.4951 59.9478 70.8383C60.2194 70.1815 60.3588 69.4778 60.358 68.7672ZM44.4121 43.3727V42.4414H64.7123V43.3727C64.7101 44.9382 64.0862 46.439 62.9775 47.5457C61.8687 48.6524 60.3658 49.2748 58.7982 49.2763H50.3262C48.7586 49.2748 47.2557 48.6524 46.147 47.5457C45.0382 46.439 44.4143 44.9382 44.4121 43.3727Z" fill="white"/>
</g>
<defs>
<clipPath id="clip0_1170_454">
<rect width="146" height="112" fill="white" transform="translate(0 0.988281)"/>
</clipPath>
</defs>
</svg>
