<svg width="112" height="113" viewBox="0 0 112 113" fill="none" xmlns="http://www.w3.org/2000/svg">
<g clip-path="url(#clip0_1170_463)">
<path d="M105.512 74.4883C107.447 69.0143 108.501 63.1238 108.501 56.9883C108.501 27.9943 84.9945 4.48828 56.0005 4.48828C37.3 4.48828 20.8815 14.2673 11.582 28.9883" stroke="white" stroke-width="4" stroke-miterlimit="10" stroke-linejoin="round"/>
<path d="M10.5 0.988281V28.9883H38.5" stroke="white" stroke-width="4" stroke-miterlimit="10" stroke-linejoin="round"/>
<path d="M6.489 39.4883C4.5535 44.9623 3.5 50.8528 3.5 56.9883C3.5 85.9823 27.006 109.488 56 109.488C74.7005 109.488 91.119 99.7093 100.418 84.9883" stroke="white" stroke-width="4" stroke-miterlimit="10" stroke-linejoin="round"/>
<path d="M101.5 112.988V84.9883H73.5" stroke="white" stroke-width="4" stroke-miterlimit="10" stroke-linejoin="round"/>
<path d="M66.8362 33.8523L66.8216 33.8473L66.8066 33.8431C63.2626 32.8617 59.9482 31.1878 57.0548 28.9182C56.7724 28.6549 56.404 28.5021 56.0174 28.4888L56.0174 28.4887L56.0089 28.4885C55.5906 28.4812 55.186 28.6355 54.879 28.9187C52.0148 31.2063 48.7118 32.8822 45.174 33.8425L45.1572 33.847L45.1407 33.8527C43.9123 34.28 41.111 34.891 38.5558 35.4003C37.2867 35.6533 36.091 35.8789 35.202 36.0411C34.7574 36.1222 34.3903 36.1873 34.1295 36.2321C33.9989 36.2545 33.8963 36.2715 33.8245 36.2829C33.789 36.2885 33.763 36.2924 33.7457 36.2948H33.7316L33.6919 36.3012C33.3181 36.3618 32.9779 36.5528 32.7315 36.8402C32.4851 37.1277 32.3484 37.4932 32.3457 37.8718H32.3457V37.8753C32.3457 55.7027 32.5518 64.1109 38.116 72.6592C40.522 76.3588 44.7455 79.2962 48.3775 81.3214C51.8125 83.2366 54.7816 84.3699 55.3263 84.5778C55.3599 84.5906 55.3842 84.5999 55.3989 84.6057L55.4436 84.6231L55.4907 84.6318C55.658 84.6626 55.8291 84.6653 55.9971 84.6401H56.3309H56.4252L56.5131 84.6057C56.5288 84.5995 56.5559 84.5892 56.5938 84.5748C57.1604 84.3595 60.1384 83.2279 63.5775 81.322C67.2312 79.2971 71.4777 76.3596 73.8842 72.6592C79.4484 64.1109 79.6545 55.7027 79.6545 37.8753L79.6545 37.8718C79.6518 37.4932 79.5151 37.1277 79.2687 36.8402C79.0232 36.5537 78.6844 36.3631 78.3122 36.3019L78.3089 36.3013L78.3083 36.3012L78.2897 36.2979L78.2143 36.2845C78.1481 36.2727 78.0505 36.2553 77.9253 36.2327C77.6748 36.1877 77.3141 36.1224 76.8731 36.0412C75.991 35.8788 74.7887 35.6532 73.5069 35.4001C70.9259 34.8906 68.0756 34.2797 66.8362 33.8523ZM46.2008 37.0807L46.2161 37.0768L46.2312 37.0719C49.7239 35.938 53.0205 34.2735 56.0057 32.1374C59.0227 34.2151 62.3398 35.8206 65.8426 36.8978L65.854 36.9013L65.8656 36.9043C69.376 37.8026 72.9299 38.521 76.5133 39.0565C76.4194 57.121 75.9145 63.5819 71.1938 70.8347L71.1128 70.959V71.0454C69.2456 73.8354 65.9733 76.2244 62.8555 78.0319C59.8784 79.7578 57.0989 80.9215 55.9561 81.3753C54.8165 80.9219 52.058 79.7584 49.1019 78.0327C45.9609 76.1991 42.6595 73.7663 40.8063 70.9226C36.0861 63.6706 35.5808 57.2097 35.5515 39.2332C39.1356 38.6978 42.69 37.9794 46.2008 37.0807Z" fill="white" stroke="white"/>
<path d="M67.5162 48.1788L55.6795 65.5579L46.0073 57.3006C45.8506 57.1622 45.6679 57.0562 45.4699 56.9889C45.2702 56.921 45.0589 56.8937 44.8485 56.9088C44.638 56.9238 44.4327 56.9808 44.2447 57.0764C44.0566 57.1721 43.8896 57.3044 43.7535 57.4655L43.7535 57.4655L43.7496 57.4702C43.4799 57.7976 43.349 58.2174 43.3847 58.64C43.4204 59.0626 43.62 59.4545 43.9407 59.732L43.9431 59.734L54.9649 69.1466C55.2504 69.4004 55.6204 69.5388 56.0025 69.5346H56.1538H56.1898L56.2254 69.5294C56.4499 69.4969 56.6651 69.4177 56.8571 69.297C57.0487 69.1766 57.213 69.0175 57.3395 68.8298C57.3398 68.8294 57.3401 68.829 57.3404 68.8286L70.1719 50.0002C70.1721 49.9999 70.1723 49.9996 70.1726 49.9993C70.4138 49.6474 70.5056 49.2142 70.4277 48.7947C70.3497 48.3748 70.1081 48.0031 69.7561 47.7614C69.4041 47.5196 68.9704 47.4276 68.5506 47.5056C68.1307 47.5836 67.759 47.8251 67.5173 48.1772L67.5162 48.1788Z" fill="white" stroke="white"/>
</g>
<defs>
<clipPath id="clip0_1170_463">
<rect width="112" height="112" fill="white" transform="translate(0 0.988281)"/>
</clipPath>
</defs>
</svg>
