<svg width="106" height="113" viewBox="0 0 106 113" fill="none" xmlns="http://www.w3.org/2000/svg">
<g clip-path="url(#clip0_1170_416)">
<path d="M39.2744 29.4414C37.4457 29.441 35.6204 30.1411 34.2356 31.5359C31.4659 34.3256 31.4656 38.9006 34.2356 41.6906C34.5922 42.0495 35.0758 42.2511 35.58 42.2511C36.0843 42.2511 36.5679 42.0495 36.9245 41.6906C37.281 41.3316 37.4813 40.8447 37.4813 40.3371C37.4813 39.8295 37.281 39.3426 36.9245 38.9836C35.5969 37.6464 35.5986 35.5737 36.9245 34.2382C38.2504 32.9027 40.3014 32.9057 41.6289 34.243L69.3634 62.1777C69.7194 62.5372 70.2027 62.7397 70.707 62.7406C71.2112 62.7415 71.6951 62.5407 72.0524 62.1825C72.2299 62.005 72.3709 61.7939 72.4672 61.5614C72.5636 61.3289 72.6134 61.0796 72.6138 60.8277C72.6142 60.5757 72.5653 60.3262 72.4698 60.0934C72.3742 59.8606 72.2341 59.649 72.0572 59.4708L44.3179 31.5359C42.9329 30.1409 41.1031 29.4418 39.2744 29.4414Z" fill="white"/>
<path d="M25.9701 30.9336C24.1413 30.9332 22.3114 31.6286 20.9266 33.0234C18.1569 35.8132 18.1613 40.3881 20.9313 43.1781L39.4194 61.8043C39.776 62.1632 40.2596 62.3648 40.7639 62.3648C41.2681 62.3648 41.7517 62.1632 42.1084 61.8043C42.4655 61.446 42.6666 60.9595 42.6675 60.4518C42.6684 59.9442 42.469 59.457 42.1131 59.0974L23.6204 40.4711C22.2928 39.1339 22.2945 37.0659 23.6204 35.7304C24.9462 34.3949 26.9973 34.3932 28.3248 35.7304L56.0593 63.6698C56.416 64.0286 56.8996 64.2303 57.4038 64.2303C57.908 64.2303 58.3916 64.0286 58.7483 63.6698C59.1048 63.3108 59.305 62.8239 59.305 62.3163C59.305 61.8087 59.1048 61.3218 58.7483 60.9628L31.0136 33.0234C29.6286 31.6284 27.7988 30.934 25.9701 30.9336Z" fill="white"/>
<path d="M23.767 43.6094C21.9382 43.609 20.1083 44.3044 18.7235 45.6992C15.9538 48.4889 15.9581 53.0639 18.7282 55.8539L40.9177 78.2063C41.2743 78.5652 41.7579 78.7668 42.2622 78.7668C42.7664 78.7668 43.25 78.5652 43.6067 78.2063C43.9631 77.8473 44.1634 77.3604 44.1634 76.8528C44.1634 76.3452 43.9631 75.8583 43.6067 75.4993L21.4171 53.1469C20.0895 51.8097 20.0913 49.7417 21.4171 48.4062C22.743 47.0707 24.7941 47.0736 26.1217 48.411L48.3065 70.7587C48.4831 70.9371 48.693 71.0787 48.9241 71.1753C49.1552 71.2718 49.403 71.3216 49.6533 71.3216C49.9035 71.3216 50.1512 71.2718 50.3823 71.1753C50.6134 71.0787 50.8234 70.9371 51 70.7587C51.3565 70.3997 51.5568 69.9129 51.5568 69.4053C51.5568 68.8976 51.3565 68.4108 51 68.0518L28.8106 45.704C27.4256 44.309 25.5957 43.6098 23.767 43.6094Z" fill="white"/>
<path d="M22.2783 56.998C20.4496 56.9976 18.6243 57.6977 17.2395 59.0926C14.4698 61.8823 14.4695 66.4572 17.2395 69.2472L35.7322 87.8688C36.0888 88.2277 36.5724 88.4293 37.0767 88.4293C37.5809 88.4293 38.0645 88.2277 38.4211 87.8688C38.7776 87.5098 38.9779 87.0229 38.9779 86.5153C38.9779 86.0077 38.7776 85.5208 38.4211 85.1618L19.9284 66.5403C18.6008 65.203 18.6025 63.135 19.9284 61.7995C21.2543 60.4641 23.3053 60.4623 24.6328 61.7995C24.9895 62.1584 25.4731 62.36 25.9773 62.36C26.4816 62.36 26.9652 62.1584 27.3218 61.7995C27.6783 61.4405 27.8786 60.9537 27.8786 60.4461C27.8786 59.9384 27.6783 59.4516 27.3218 59.0926C25.9368 57.6975 24.107 56.9985 22.2783 56.998Z" fill="white"/>
<path d="M64.7943 40.252C62.9656 40.2515 61.1356 40.947 59.7508 42.3418C56.9811 45.1315 56.9855 49.7065 59.7556 52.4965C60.1116 52.856 60.5948 53.0585 61.099 53.0594C61.6033 53.0603 62.0873 52.8595 62.4445 52.5013C62.801 52.1422 63.0012 51.6554 63.0012 51.1478C63.0012 50.6402 62.801 50.1533 62.4445 49.7943C61.1169 48.4571 61.1139 46.3844 62.4397 45.0489C63.7656 43.7134 65.8166 43.7164 67.1442 45.0537L81.9402 59.9538C82.9646 60.9856 84.5858 62.6997 85.2886 64.4981C85.9915 66.2965 86.1287 67.9244 83.7886 70.2814C83.4327 70.6411 83.2333 71.1283 83.2342 71.6359C83.2351 72.1435 83.4362 72.63 83.7933 72.9884C84.1499 73.3473 84.6335 73.5489 85.1378 73.5489C85.642 73.5489 86.1256 73.3473 86.4822 72.9884C89.6867 69.7607 89.9245 65.9023 88.8275 63.0955C87.7306 60.2888 85.6536 58.2786 84.6292 57.2468L69.8378 42.3467C68.4528 40.9517 66.623 40.2524 64.7943 40.252Z" fill="white"/>
<path d="M37.1293 84.6021C37.0723 84.6008 37.0153 84.602 36.9585 84.6059C36.4962 84.6352 36.0605 84.8334 35.7331 85.1632C35.3774 85.5221 35.1777 86.0083 35.1777 86.5152C35.1777 87.0222 35.3774 87.5084 35.7331 87.8673C38.4368 90.5907 40.9153 93.0918 43.3939 95.2093C44.1668 94.107 45.3032 93.2993 46.6246 92.9203C44.0943 90.8468 41.4317 88.1951 38.4216 85.1632C38.078 84.8167 37.6154 84.6158 37.1293 84.6021ZM53.9809 97.1616C54.1035 97.6403 54.1888 98.1329 54.1888 98.6502C54.1888 99.4914 54.0135 100.291 53.7024 101.018C54.8974 101.301 56.1257 101.47 57.4084 101.47C57.6581 101.471 57.9055 101.422 58.1364 101.326C58.3673 101.23 58.5772 101.089 58.7541 100.912C58.931 100.734 59.0714 100.524 59.1674 100.291C59.2634 100.059 59.313 99.8105 59.3134 99.5591C59.3139 99.3076 59.2653 99.0586 59.1702 98.8261C59.0752 98.5936 58.9355 98.3822 58.7593 98.2041C58.5831 98.0259 58.3738 97.8844 58.1432 97.7877C57.9127 97.691 57.6656 97.6409 57.4158 97.6403C56.2248 97.6401 55.0906 97.4751 53.9809 97.1616Z" fill="white"/>
<path d="M84.2421 69.5028C83.9825 69.4949 83.724 69.5406 83.4826 69.6371C83.2412 69.7336 83.022 69.8788 82.8384 70.0639C82.6618 70.2417 82.5217 70.4527 82.4261 70.685C82.3305 70.9174 82.2812 71.1664 82.2812 71.4178C82.2812 71.6693 82.3305 71.9183 82.4261 72.1506C82.5217 72.3829 82.6618 72.594 82.8384 72.7718L90.4547 80.4429C90.9429 80.3123 91.4445 80.2185 91.9735 80.2185C95.1609 80.2185 97.7402 82.7505 97.889 85.9223C98.0328 85.839 98.1651 85.7371 98.2827 85.6193C98.4593 85.4415 98.5994 85.2304 98.695 84.9981C98.7906 84.7658 98.8398 84.5168 98.8398 84.2654C98.8398 84.0139 98.7906 83.7649 98.695 83.5326C98.5994 83.3003 98.4593 83.0892 98.2827 82.9114L85.527 70.0639C85.1852 69.7191 84.7257 69.5185 84.2421 69.5028Z" fill="white"/>
<path d="M56.156 94.8215C55.895 94.8124 55.635 94.8575 55.3921 94.954C55.1492 95.0506 54.9287 95.1964 54.7442 95.3825C54.3877 95.7415 54.1875 96.2284 54.1875 96.736C54.1875 97.2436 54.3877 97.7304 54.7442 98.0894L68.9783 112.428C69.335 112.787 69.8186 112.989 70.3228 112.989C70.827 112.989 71.3106 112.787 71.6673 112.428C72.0244 112.07 72.2255 111.584 72.2264 111.076C72.2273 110.568 72.0279 110.081 71.6721 109.722L57.4333 95.3825C57.0934 95.0395 56.6369 94.839 56.156 94.8215Z" fill="white"/>
<path d="M18.5406 32.1047C18.5406 32.7395 18.2901 33.3484 17.8442 33.7973C17.3983 34.2462 16.7935 34.4984 16.1629 34.4984C15.5322 34.4984 14.9275 34.2462 14.4816 33.7973C14.0356 33.3484 13.7852 32.7395 13.7852 32.1047C13.7852 31.4698 14.0356 30.861 14.4816 30.412C14.9275 29.9631 15.5322 29.7109 16.1629 29.7109C16.7935 29.7109 17.3983 29.9631 17.8442 30.412C18.2901 30.861 18.5406 31.4698 18.5406 32.1047Z" fill="white"/>
<path d="M94.118 44.791C89.8073 44.791 86.2695 48.3525 86.2695 52.6922C86.2695 57.0319 89.8073 60.5887 94.118 60.5887C98.4289 60.5887 101.962 57.0319 101.962 52.6922C101.962 48.3525 98.4289 44.791 94.118 44.791ZM94.118 48.6201C96.3733 48.6201 98.1584 50.4218 98.1584 52.6922C98.1584 54.9626 96.3733 56.7597 94.118 56.7597C91.8628 56.7597 90.073 54.9626 90.073 52.6922C90.073 50.4218 91.8628 48.6201 94.118 48.6201Z" fill="white"/>
<path d="M91.9755 78.3027C87.6647 78.3027 84.127 81.8642 84.127 86.2039C84.127 90.5436 87.6647 94.1004 91.9755 94.1004C96.2863 94.1004 99.8193 90.5436 99.8193 86.2039C99.8193 81.8642 96.2863 78.3027 91.9755 78.3027ZM91.9755 82.1318C94.2307 82.1318 96.0158 83.9335 96.0158 86.2039C96.0158 88.4743 94.2307 90.2714 91.9755 90.2714C89.7202 90.2714 87.9305 88.4743 87.9305 86.2039C87.9305 83.9335 89.7202 82.1318 91.9755 82.1318Z" fill="white"/>
<path d="M48.2423 90.7539C43.9315 90.7539 40.3984 94.3107 40.3984 98.6504C40.3984 102.99 43.9315 106.547 48.2423 106.547C52.5531 106.547 56.0908 102.99 56.0908 98.6504C56.0908 94.3107 52.5531 90.7539 48.2423 90.7539ZM48.2423 94.5783C50.4976 94.5783 52.2873 96.38 52.2873 98.6504C52.2873 100.921 50.4976 102.723 48.2423 102.723C45.9871 102.723 44.2019 100.921 44.2019 98.6504C44.2019 96.38 45.9871 94.5783 48.2423 94.5783Z" fill="white"/>
<path d="M4.75547 63.2238C4.75547 63.8587 4.50499 64.4675 4.05908 64.9164C3.61316 65.3653 3.00839 65.6175 2.37777 65.6175C1.74716 65.6175 1.14231 65.3653 0.696396 64.9164C0.250482 64.4675 3.15313e-06 63.8587 0 63.2238C-1.56124e-06 62.9095 0.061482 62.5982 0.180974 62.3078C0.300467 62.0174 0.475601 61.7535 0.696396 61.5312C0.91719 61.3089 1.17934 61.1326 1.46782 61.0123C1.75631 60.892 2.06552 60.8301 2.37777 60.8301C2.69003 60.8301 2.99917 60.892 3.28765 61.0123C3.57613 61.1326 3.83828 61.3089 4.05908 61.5312C4.27987 61.7535 4.45501 62.0174 4.5745 62.3078C4.69399 62.5982 4.75548 62.9095 4.75547 63.2238Z" fill="white"/>
<path d="M50.863 19.6574C50.863 19.9717 50.8014 20.283 50.6819 20.5734C50.5624 20.8638 50.3873 21.1277 50.1665 21.35C49.9457 21.5723 49.6836 21.7486 49.3951 21.8689C49.1067 21.9892 48.7974 22.0511 48.4852 22.0511C48.1729 22.0511 47.8637 21.9892 47.5752 21.8689C47.2868 21.7486 47.0247 21.5723 46.8039 21.35C46.5831 21.1277 46.4079 20.8638 46.2884 20.5734C46.1689 20.283 46.1074 19.9717 46.1074 19.6574C46.1074 19.0225 46.358 18.4137 46.8039 17.9648C47.2498 17.5159 47.8546 17.2637 48.4852 17.2637C49.1158 17.2637 49.7206 17.5159 50.1665 17.9648C50.6124 18.4137 50.863 19.0225 50.863 19.6574Z" fill="white"/>
<path d="M83.1891 35.9328C83.1891 36.5676 82.9386 37.1765 82.4927 37.6254C82.0468 38.0743 81.442 38.3265 80.8114 38.3265C80.1807 38.3265 79.576 38.0743 79.1301 37.6254C78.6841 37.1765 78.4336 36.5676 78.4336 35.9328C78.4336 35.2979 78.6841 34.6891 79.1301 34.2402C79.576 33.7913 80.1807 33.5391 80.8114 33.5391C81.442 33.5391 82.0468 33.7913 82.4927 34.2402C82.9386 34.6891 83.1891 35.2979 83.1891 35.9328Z" fill="white"/>
<path d="M106 74.714C106 75.3489 105.749 75.9577 105.303 76.4067C104.857 76.8556 104.253 77.1078 103.622 77.1078C102.991 77.1078 102.387 76.8556 101.941 76.4067C101.495 75.9577 101.244 75.3489 101.244 74.714C101.244 74.3997 101.306 74.0884 101.425 73.798C101.545 73.5076 101.72 73.2437 101.941 73.0214C102.161 72.7992 102.423 72.6228 102.712 72.5025C103 72.3822 103.31 72.3203 103.622 72.3203C103.934 72.3203 104.243 72.3822 104.532 72.5025C104.82 72.6228 105.082 72.7992 105.303 73.0214C105.524 73.2437 105.699 73.5076 105.819 73.798C105.938 74.0884 106 74.3997 106 74.714Z" fill="white"/>
<path d="M56.3663 75.5908C56.1061 75.5824 55.8469 75.6279 55.6049 75.7244C55.3628 75.8209 55.143 75.9664 54.9591 76.1519C54.6026 76.5109 54.4023 76.9977 54.4023 77.5054C54.4023 78.013 54.6026 78.4998 54.9591 78.8588C54.9591 78.8588 56.7311 80.6827 57.7363 83.1414C58.7415 85.6 59.1245 88.2037 56.3013 91.0472C55.9448 91.4063 55.7446 91.8931 55.7446 92.4007C55.7446 92.9084 55.9448 93.3952 56.3013 93.7542C56.6579 94.1131 57.1415 94.3147 57.6457 94.3147C58.15 94.3147 58.6336 94.1131 58.9902 93.7542C62.889 89.8273 62.5996 84.9838 61.2519 81.6874C59.9042 78.391 57.6481 76.1519 57.6481 76.1519C57.307 75.8079 56.8488 75.6073 56.3663 75.5908Z" fill="white"/>
<path d="M56.3663 75.5908C56.1061 75.5824 55.8469 75.6279 55.6049 75.7244C55.3628 75.8209 55.143 75.9664 54.9591 76.1519C54.6026 76.5109 54.4023 76.9977 54.4023 77.5054C54.4023 78.013 54.6026 78.4998 54.9591 78.8588C54.9591 78.8588 57.1798 81.1339 60.4531 82.4915C63.7264 83.8491 68.536 84.1415 72.4348 80.2147C72.7913 79.8557 72.9915 79.3688 72.9915 78.8612C72.9915 78.3536 72.7913 77.8667 72.4348 77.5077C72.0782 77.1488 71.5946 76.9472 71.0904 76.9472C70.5861 76.9472 70.1025 77.1488 69.7459 77.5077C66.9227 80.3513 64.3427 79.9646 61.902 78.9523C59.4614 77.9401 57.6481 76.1519 57.6481 76.1519C57.307 75.8079 56.8488 75.6073 56.3663 75.5908Z" fill="white"/>
<path d="M62.5266 87.9285C60.427 88.177 58.2483 89.0835 56.2989 91.0469C55.9424 91.4059 55.7422 91.8928 55.7422 92.4004C55.7422 92.908 55.9424 93.3949 56.2989 93.7539C56.6555 94.1128 57.1391 94.3144 57.6434 94.3144C58.1476 94.3144 58.6312 94.1128 58.9878 93.7539C61.8111 90.9103 64.3957 91.297 66.8363 92.3092C69.277 93.3215 71.0903 95.1097 71.0903 95.1097C71.4469 95.4686 71.9305 95.6702 72.4348 95.6702C72.939 95.6702 73.4226 95.4686 73.7792 95.1097C74.1357 94.7507 74.336 94.2638 74.336 93.7562C74.336 93.2486 74.1357 92.7617 73.7792 92.4027C73.7792 92.4027 71.5586 90.1276 68.2853 88.7701C66.6487 88.0913 64.6263 87.6801 62.5266 87.9285Z" fill="white"/>
<path d="M71.152 76.9463C70.8918 76.9379 70.6326 76.9833 70.3906 77.0798C70.1485 77.1763 69.9288 77.3218 69.7448 77.5073C65.846 81.4342 66.1355 86.2778 67.4832 89.5742C68.8309 92.8706 71.0916 95.1097 71.0916 95.1097C71.4483 95.4686 71.9319 95.6702 72.4361 95.6702C72.9403 95.6702 73.4239 95.4686 73.7806 95.1097C74.137 94.7507 74.3373 94.2638 74.3373 93.7562C74.3373 93.2486 74.137 92.7617 73.7806 92.4027C73.7806 92.4027 72.0039 90.5742 70.9987 88.1155C69.9935 85.6569 69.6105 83.0579 72.4338 80.2143C72.7903 79.8553 72.9905 79.3684 72.9905 78.8608C72.9905 78.3532 72.7903 77.8664 72.4338 77.5073C72.0927 77.1633 71.6345 76.9627 71.152 76.9463Z" fill="white"/>
<path d="M27.5726 0.988283C27.3229 0.98797 27.0755 1.03718 26.8447 1.13311C26.6138 1.22903 26.404 1.3698 26.2272 1.54736C26.0504 1.72492 25.9101 1.93582 25.8142 2.16798C25.7183 2.40015 25.6689 2.64904 25.6686 2.90046C25.6686 2.90046 25.6436 5.45324 24.6283 7.90767C23.613 10.3621 22.0583 12.4754 18.0662 12.4754C17.8161 12.4751 17.5683 12.5245 17.3371 12.6207C17.106 12.7169 16.896 12.8581 16.7191 13.0361C16.5422 13.2142 16.402 13.4256 16.3064 13.6583C16.2109 13.891 16.1618 14.1404 16.1621 14.3923C16.1624 14.6437 16.2119 14.8926 16.3077 15.1247C16.4036 15.3569 16.544 15.5678 16.7208 15.7453C16.8976 15.9229 17.1074 16.0637 17.3382 16.1596C17.5691 16.2555 17.8164 16.3047 18.0662 16.3044C23.5805 16.3044 26.7779 12.6711 28.1392 9.38038C29.5005 6.08964 29.4721 2.90046 29.4721 2.90046C29.4715 2.39351 29.2711 1.90749 28.9151 1.54902C28.559 1.19055 28.0762 0.9889 27.5726 0.988283Z" fill="white"/>
<path d="M27.5721 0.988283C27.3223 0.98797 27.075 1.03718 26.8441 1.13311C26.6133 1.22903 26.4035 1.3698 26.2267 1.54736C26.0499 1.72492 25.9095 1.93582 25.8136 2.16798C25.7178 2.40015 25.6683 2.64904 25.668 2.90046C25.668 2.90046 25.6442 6.08964 27.0055 9.38038C28.3668 12.6711 31.5642 16.3044 37.0785 16.3044C37.5821 16.3038 38.0649 16.1022 38.421 15.7437C38.777 15.3852 38.9773 14.8992 38.978 14.3923C38.9783 14.1408 38.9293 13.8918 38.8341 13.6594C38.7388 13.427 38.599 13.2158 38.4226 13.0378C38.2462 12.8598 38.0367 12.7185 37.8061 12.622C37.5755 12.5255 37.3283 12.4757 37.0785 12.4754C33.0864 12.4754 31.5317 10.3621 30.5164 7.90767C29.5011 5.45324 29.4715 2.90046 29.4715 2.90046C29.4709 2.39351 29.2706 1.90749 28.9145 1.54902C28.5584 1.19055 28.0756 0.9889 27.5721 0.988283Z" fill="white"/>
<path d="M18.0642 12.4746C17.8141 12.4743 17.5663 12.5237 17.3352 12.6199C17.104 12.7161 16.894 12.8573 16.7172 13.0353C16.5403 13.2134 16.4001 13.4248 16.3045 13.6575C16.2089 13.8902 16.1598 14.1397 16.1602 14.3915C16.1605 14.6429 16.2099 14.8918 16.3058 15.1239C16.4016 15.3561 16.542 15.567 16.7188 15.7446C16.8956 15.9221 17.1054 16.0629 17.3363 16.1588C17.5671 16.2547 17.8145 16.304 18.0642 16.3036C22.0563 16.3036 23.611 18.417 24.6263 20.8714C25.6417 23.3258 25.6666 25.8786 25.6666 25.8786C25.6663 26.1304 25.7154 26.3798 25.8109 26.6125C25.9065 26.8452 26.0467 27.0566 26.2236 27.2347C26.4005 27.4128 26.6105 27.5539 26.8416 27.6502C27.0728 27.7464 27.3205 27.7958 27.5707 27.7954C27.8204 27.7951 28.0677 27.7453 28.2983 27.6488C28.5289 27.5523 28.7384 27.411 28.9148 27.233C29.0912 27.055 29.2309 26.8438 29.3262 26.6114C29.4215 26.379 29.4704 26.13 29.4701 25.8786C29.4701 25.8786 29.4986 22.6894 28.1373 19.3987C26.776 16.1079 23.5785 12.4746 18.0642 12.4746Z" fill="white"/>
<path d="M37.0785 12.4746C31.5642 12.4746 28.3668 16.1079 27.0055 19.3987C25.6442 22.6894 25.668 25.8786 25.668 25.8786C25.6677 26.1304 25.7167 26.3798 25.8123 26.6125C25.9079 26.8452 26.0481 27.0566 26.225 27.2347C26.4019 27.4128 26.6119 27.5539 26.843 27.6502C27.0742 27.7464 27.3219 27.7958 27.5721 27.7954C27.8218 27.7951 28.0691 27.7453 28.2997 27.6488C28.5303 27.5523 28.7398 27.411 28.9162 27.233C29.0926 27.055 29.2323 26.8438 29.3276 26.6114C29.4229 26.379 29.4718 26.13 29.4715 25.8786C29.4715 25.8786 29.5012 23.3258 30.5164 20.8714C31.5317 18.417 33.0864 16.3036 37.0785 16.3036C37.5821 16.303 38.0649 16.1014 38.421 15.7429C38.777 15.3844 38.9773 14.8984 38.978 14.3915C38.9783 14.14 38.9293 13.891 38.8341 13.6586C38.7388 13.4262 38.599 13.215 38.4226 13.037C38.2462 12.859 38.0367 12.7177 37.8061 12.6212C37.5755 12.5247 37.3283 12.4749 37.0785 12.4746Z" fill="white"/>
<path d="M16.1598 75.6719C15.6562 75.6725 15.1734 75.8741 14.8174 76.2326C14.4613 76.5911 14.261 77.0771 14.2604 77.5841C14.2604 77.5841 14.2354 80.1415 13.2201 82.5959C12.2047 85.0504 10.6455 87.1637 6.65334 87.1637C6.14976 87.1643 5.66699 87.3659 5.31091 87.7244C4.95483 88.0829 4.75451 88.5689 4.75391 89.0758C4.7536 89.3273 4.80251 89.5763 4.8978 89.8087C4.99309 90.0411 5.13286 90.2523 5.30924 90.4303C5.48562 90.6083 5.69513 90.7496 5.92574 90.8461C6.15636 90.9426 6.4036 90.9924 6.65334 90.9927C12.1676 90.9927 15.3697 87.3594 16.731 84.0686C18.0923 80.7779 18.0639 77.5841 18.0639 77.5841C18.0636 77.3326 18.0141 77.0837 17.9182 76.8516C17.8224 76.6194 17.682 76.4085 17.5052 76.231C17.3284 76.0534 17.1186 75.9126 16.8878 75.8167C16.6569 75.7208 16.4095 75.6716 16.1598 75.6719Z" fill="white"/>
<path d="M16.1612 75.6719C15.6576 75.6725 15.1748 75.8741 14.8188 76.2326C14.4627 76.5911 14.2624 77.0771 14.2618 77.5841C14.2618 77.5841 14.2332 80.7779 15.5946 84.0686C16.9559 87.3594 20.1534 90.9927 25.6676 90.9927C25.9178 90.993 26.1655 90.9436 26.3967 90.8474C26.6279 90.7512 26.8379 90.61 27.0147 90.432C27.1916 90.2539 27.3318 90.0425 27.4274 89.8098C27.523 89.5771 27.572 89.3277 27.5717 89.0759C27.5714 88.8244 27.5219 88.5755 27.4261 88.3434C27.3302 88.1112 27.1899 87.9003 27.0131 87.7227C26.8362 87.5452 26.6265 87.4044 26.3956 87.3085C26.1648 87.2126 25.9174 87.1634 25.6676 87.1637C21.6756 87.1637 20.1209 85.0504 19.1055 82.5959C18.0902 80.1415 18.0653 77.5841 18.0653 77.5841C18.065 77.3326 18.0155 77.0837 17.9196 76.8516C17.8238 76.6194 17.6834 76.4085 17.5066 76.231C17.3298 76.0534 17.12 75.9126 16.8892 75.8167C16.6583 75.7208 16.4109 75.6716 16.1612 75.6719Z" fill="white"/>
<path d="M6.65334 87.1641C6.14976 87.1647 5.66699 87.3663 5.31091 87.7248C4.95483 88.0833 4.75451 88.5693 4.75391 89.0762C4.7536 89.3277 4.80251 89.5767 4.8978 89.8091C4.99309 90.0415 5.13286 90.2527 5.30924 90.4307C5.48562 90.6087 5.69513 90.75 5.92574 90.8465C6.15636 90.943 6.4036 90.9928 6.65334 90.9931C10.6455 90.9931 12.2047 93.1017 13.2201 95.5562C14.2354 98.0106 14.2604 100.568 14.2604 100.568C14.261 101.075 14.4613 101.561 14.8174 101.919C15.1734 102.278 15.6562 102.48 16.1598 102.48C16.4095 102.481 16.6569 102.431 16.8878 102.335C17.1186 102.239 17.3284 102.099 17.5052 101.921C17.682 101.744 17.8224 101.533 17.9182 101.301C18.0141 101.068 18.0636 100.819 18.0639 100.568C18.0639 100.568 18.0924 97.3742 16.731 94.0834C15.3697 90.7927 12.1676 87.1641 6.65334 87.1641Z" fill="white"/>
<path d="M25.6676 87.1641C20.1534 87.1641 16.9559 90.7927 15.5946 94.0835C14.2333 97.3742 14.2618 100.568 14.2618 100.568C14.2624 101.075 14.4627 101.561 14.8188 101.919C15.1748 102.278 15.6576 102.48 16.1612 102.48C16.4109 102.481 16.6583 102.431 16.8892 102.335C17.12 102.239 17.3298 102.099 17.5066 101.921C17.6834 101.744 17.8238 101.533 17.9196 101.301C18.0155 101.068 18.065 100.819 18.0653 100.568C18.0653 100.568 18.0902 98.0106 19.1055 95.5562C20.1209 93.1017 21.6756 90.9931 25.6676 90.9931C25.9178 90.9934 26.1655 90.944 26.3967 90.8478C26.6279 90.7516 26.8378 90.6104 27.0147 90.4324C27.1916 90.2543 27.3318 90.0429 27.4274 89.8102C27.523 89.5775 27.572 89.3281 27.5717 89.0762C27.5714 88.8248 27.5219 88.5759 27.4261 88.3438C27.3302 88.1116 27.1899 87.9007 27.0131 87.7231C26.8362 87.5456 26.6265 87.4048 26.3956 87.3089C26.1648 87.213 25.9174 87.1638 25.6676 87.1641Z" fill="white"/>
</g>
<defs>
<clipPath id="clip0_1170_416">
<rect width="106" height="112" fill="white" transform="translate(0 0.988281)"/>
</clipPath>
</defs>
</svg>
