<svg width="1920" height="1016" viewBox="0 0 1920 1016" fill="none" xmlns="http://www.w3.org/2000/svg">
<path d="M2154 916C2154 971.228 2109.23 1016 2054 1016H1754.03C1734.47 1016 1715.4 1009.82 1699.56 998.333C1683.73 986.849 1664.66 980.665 1645.1 980.665H854.5H223.945C205.401 980.665 187.223 985.822 171.441 995.558L162.446 1001.11C146.663 1010.84 128.485 1016 109.941 1016L-345 1016C-400.229 1016 -445 971.228 -445 916V100C-445 44.7715 -400.229 0 -345 0H109.351C128.266 0 146.792 5.3642 162.78 15.47L171.106 20.7323C187.094 30.8381 205.621 36.2023 224.535 36.2023H1644.84C1664.55 36.2023 1683.74 29.8553 1699.56 18.1011C1715.39 6.34692 1734.58 0 1754.29 0H2054C2109.23 0 2154 44.7715 2154 100V916Z" fill="url(#paint0_linear_1390_473)"/>
<defs>
<linearGradient id="paint0_linear_1390_473" x1="161.802" y1="-359.488" x2="1519.9" y2="1499.01" gradientUnits="userSpaceOnUse">
<stop offset="0.0467201" stop-color="#6E8293"/>
<stop offset="0.63" stop-color="#7E8496"/>
<stop offset="0.949574" stop-color="#907F8A"/>
</linearGradient>
</defs>
</svg>
