<svg width="1920" height="1016" viewBox="0 0 1920 1016" fill="none" xmlns="http://www.w3.org/2000/svg">
<path d="M-280 100C-280 44.7717 -235.228 0.000125024 -180 0.000125024H118.076C137.577 0.000125024 156.575 6.18585 172.337 17.6674C188.1 29.1489 207.098 35.3347 226.599 35.3347H1013.5H1640.9C1659.51 35.3347 1677.76 30.1392 1693.58 20.333L1702.18 15.0016C1718.01 5.19547 1736.25 2.12362e-06 1754.86 6.13185e-06L2207 0.000103491C2262.23 0.000115383 2307 44.7716 2307 100V916C2307 971.228 2262.23 1016 2207 1016H1755.46C1736.47 1016 1717.88 1010.6 1701.85 1000.42L1693.92 995.38C1677.89 985.202 1659.29 979.798 1640.31 979.798H226.857C207.208 979.798 188.085 986.147 172.337 997.899C156.59 1009.65 137.467 1016 117.818 1016H-180C-235.229 1016 -280 971.228 -280 916V100Z" fill="url(#paint0_linear_1170_1130)"/>
<defs>
<linearGradient id="paint0_linear_1170_1130" x1="1703" y1="1375.49" x2="343" y2="-477.012" gradientUnits="userSpaceOnUse">
<stop offset="0.0467201" stop-color="#6E8293"/>
<stop offset="0.63" stop-color="#7E8496"/>
<stop offset="0.949574" stop-color="#907F8A"/>
</linearGradient>
</defs>
</svg>
