<svg width="390" height="1199" viewBox="0 0 390 1199" fill="none" xmlns="http://www.w3.org/2000/svg">
<path d="M567 1098.01C567 1153.24 522.228 1198.01 467 1198.01H404.013C388.742 1198.01 374.171 1191.6 363.851 1180.35C353.532 1169.09 338.961 1162.68 323.689 1162.68H76.1013C59.4086 1162.68 43.3331 1168.99 31.0986 1180.35C18.8643 1191.7 2.7887 1198.01 -13.9041 1198.01L-37.0001 1198.01C-92.2285 1198.01 -137 1153.24 -137 1098.01V100C-137 44.7716 -92.2285 0 -37 0H-14.2011C2.66162 0 18.8794 6.48035 31.0986 18.1011C43.3179 29.7219 59.5357 36.2023 76.3984 36.2023H323.368C338.823 36.2023 353.546 29.6191 363.851 18.1011C374.157 6.58313 388.88 0 404.335 0H467C522.229 0 567 44.7715 567 100V1098.01Z" fill="url(#paint0_linear_4266_668)"/>
<defs>
<linearGradient id="paint0_linear_4266_668" x1="-713.656" y1="-304.976" x2="705.423" y2="985.687" gradientUnits="userSpaceOnUse">
<stop offset="0.0467201" stop-color="#6E8293"/>
<stop offset="0.63" stop-color="#7E8496"/>
<stop offset="0.949574" stop-color="#907F8A"/>
</linearGradient>
</defs>
</svg>
