<svg width="76" height="77" viewBox="0 0 76 77" fill="none" xmlns="http://www.w3.org/2000/svg">
<path d="M37.7402 4.03605L37.7411 4.03588C37.9117 4.00369 38.0869 4.00366 38.2575 4.0358C42.7422 4.86664 47.106 6.24996 51.2495 8.15377V5.38675C51.2495 5.02207 51.3944 4.67234 51.6522 4.41448C51.9101 4.15661 52.2598 4.01175 52.6245 4.01175H63.8745C64.2392 4.01175 64.5889 4.15661 64.8468 4.41447C65.1047 4.67234 65.2495 5.02207 65.2495 5.38675V18.7408C68.5677 22.5865 70.8802 27.1958 71.9793 32.1558L71.9809 32.1631L71.9821 32.1704C72.0135 32.3668 72.0019 32.5677 71.9482 32.7592C71.8944 32.9506 71.7997 33.1282 71.6706 33.2795C71.5415 33.4308 71.3811 33.5523 71.2004 33.6355C71.0198 33.7188 70.8233 33.7619 70.6244 33.7617M37.7402 4.03605L70.6245 33.5117M37.7402 4.03605C7.90824 9.77322 4.0585 31.9023 4.01673 32.1729L4.26381 32.211L4.01688 32.172C3.98584 32.3682 3.99771 32.5689 4.05165 32.7601C4.10559 32.9513 4.20034 33.1285 4.32936 33.2796C4.45838 33.4307 4.61861 33.5521 4.79902 33.6353L4.90374 33.4083L4.79902 33.6353C4.97943 33.7185 5.17573 33.7617 5.37441 33.7617H5.37452H10.7495M37.7402 4.03605L10.7495 33.5117V33.7617M70.6244 33.7617L70.6245 33.5117M70.6244 33.7617H70.6245V33.5117M70.6244 33.7617H65.2495M70.6245 33.5117H65.2495V33.7617M65.2495 33.7617H64.9995V62.5117H65.2495M65.2495 33.7617V62.5117M65.2495 62.5117V62.7617H67.2495C67.5479 62.7617 67.834 62.8803 68.045 63.0913C68.256 63.3022 68.3745 63.5884 68.3745 63.8867V70.6367C68.3745 70.9351 68.256 71.2213 68.045 71.4322C67.834 71.6432 67.5479 71.7617 67.2495 71.7617H8.74952C8.45115 71.7617 8.165 71.6432 7.95403 71.4322C7.74305 71.2213 7.62452 70.9351 7.62452 70.6367V63.8867C7.62452 63.5884 7.74305 63.3022 7.95403 63.0913C8.165 62.8803 8.45115 62.7617 8.74952 62.7617H10.7495V62.5117M65.2495 62.5117H67.2495C67.6142 62.5117 67.9639 62.6566 68.2218 62.9145C68.4797 63.1723 68.6245 63.5221 68.6245 63.8867V70.6367C68.6245 71.0014 68.4797 71.3512 68.2218 71.609C67.9639 71.8669 67.6142 72.0117 67.2495 72.0117H8.74952C8.38485 72.0117 8.03511 71.8669 7.77725 71.609C7.51939 71.3512 7.37452 71.0014 7.37452 70.6367V63.8867C7.37452 63.5221 7.51939 63.1723 7.77725 62.9145C8.03511 62.6566 8.38485 62.5117 8.74952 62.5117H10.7495M10.7495 62.5117H10.9995V33.7617H10.7495M10.7495 62.5117V33.7617M71.4804 33.1172C71.586 32.9934 71.6635 32.8482 71.7075 32.6915C71.7515 32.5349 71.7609 32.3706 71.7352 32.2099C70.6384 27.2601 68.3232 22.6624 64.9995 18.834V5.38675C64.9995 5.08838 64.881 4.80223 64.67 4.59125C64.459 4.38027 64.1729 4.26175 63.8745 4.26175H52.6245C52.3261 4.26175 52.04 4.38027 51.829 4.59125C51.618 4.80223 51.4995 5.08838 51.4995 5.38675L71.4804 33.1172ZM53.9995 10.3678V6.76175H62.4995V19.2438V19.2441C62.4998 19.5704 62.6158 19.8861 62.8269 20.135L62.8284 20.1367C65.5684 23.3083 67.6226 27.0109 68.8634 31.0117H63.8745C63.5098 31.0117 63.1601 31.1566 62.9022 31.4145C62.6444 31.6723 62.4995 32.0221 62.4995 32.3867V62.5117H13.4995V32.3867C13.4995 32.0221 13.3547 31.6723 13.0968 31.4145C12.8389 31.1566 12.4892 31.0117 12.1245 31.0117H7.10708C8.50729 26.0994 14.5877 11.3878 38.0007 6.78721C42.8697 7.6995 47.5802 9.31569 51.9838 11.585C52.1931 11.6952 52.4273 11.7496 52.6638 11.7428C52.9007 11.7361 53.1318 11.6682 53.3347 11.5458C53.5377 11.4234 53.7055 11.2506 53.822 11.0442C53.9384 10.8378 53.9996 10.6049 53.9995 10.3679C53.9995 10.3679 53.9995 10.3678 53.9995 10.3678ZM10.1245 69.2617V65.2617H65.8745V69.2617H10.1245Z" fill="#6B5E7A" stroke="#6B5E7A" stroke-width="0.5"/>
<path d="M45.7848 24.2617H45.7851C47.9391 24.2643 50.0042 25.1212 51.5273 26.6443C53.0504 28.1674 53.9072 30.2324 53.9098 32.3864V32.3867V43.4027V43.403C53.9086 44.6623 53.4078 45.8697 52.5173 46.7602C51.6268 47.6506 50.4194 48.1515 49.1601 48.1527H49.1598H43.5417V53.6416C43.5575 55.1552 43.0147 56.6215 42.017 57.7599C41.019 58.8986 39.6361 59.6292 38.133 59.8117L38.1268 59.8125L38.1268 59.8124C37.9356 59.8308 37.7443 59.84 37.553 59.84C37.5528 59.84 37.5526 59.84 37.5524 59.84V59.59C36.7966 59.5916 36.0478 59.4442 35.349 59.156C34.6502 58.8679 34.0151 58.4447 33.4801 57.9108C32.9451 57.3769 32.5206 56.7426 32.231 56.0445C31.9414 55.3463 31.7924 54.5978 31.7924 53.8419L45.7848 24.2617ZM45.7848 24.2617H23.4648M45.7848 24.2617H23.4648M23.4648 24.2617C23.2843 24.2616 23.1055 24.2971 22.9386 24.3662C22.7717 24.4352 22.6201 24.5365 22.4924 24.6642C22.3647 24.792 22.2634 24.9436 22.1943 25.1105C22.1253 25.2773 22.0898 25.4562 22.0898 25.6367C22.0898 25.6368 22.0898 25.6368 22.0898 25.6369L22.0898 46.7777C22.0898 46.7777 22.0898 46.7776 22.0898 46.7776L22.3398 46.7777L23.4648 24.2617ZM40.792 53.643H40.7919L40.792 53.6484C40.81 54.4809 40.5206 55.2907 39.9791 55.9232C39.4385 56.5546 38.6846 56.965 37.861 57.0762C37.4106 57.1205 36.9559 57.0702 36.5261 56.9286C36.0949 56.7866 35.6982 56.5558 35.3616 56.2511C35.0251 55.9465 34.756 55.5747 34.5719 55.1597C34.3877 54.7448 34.2925 54.2959 34.2924 53.8419C34.2924 53.8419 34.2924 53.8419 34.2924 53.8419V49.0277V49.0274C34.2914 48.2031 34.0099 47.4036 33.4942 46.7605C33.0206 46.17 32.3755 45.7436 31.6503 45.5384V27.0117L45.7845 27.0117C45.7846 27.0117 45.7847 27.0117 45.7847 27.0117C47.2098 27.0135 48.5759 27.5803 49.5836 28.588C50.5913 29.5957 51.1582 30.9619 51.1598 32.387V43.4024C51.1592 43.9327 50.9482 44.4411 50.5732 44.8161C50.1982 45.1911 49.6898 45.402 49.1595 45.4027H42.167C41.8023 45.4027 41.4525 45.5476 41.1947 45.8054C40.9368 46.0633 40.792 46.413 40.792 46.7777V53.643ZM24.8398 27.0117H28.9003V45.4027H24.8398V27.0117Z" fill="#6B5E7A" stroke="#6B5E7A" stroke-width="0.5"/>
</svg>
