<svg width="86" height="86" viewBox="0 0 86 86" fill="none" xmlns="http://www.w3.org/2000/svg">
<path d="M26.875 73.9062H59.125V79.2812H26.875V73.9062Z" stroke="#FFB6A3" stroke-width="3" stroke-linejoin="round"/>
<path d="M38.9688 73.9062V63.1562C38.9688 61.6719 40.172 60.4688 41.6562 60.4688H44.3438C45.828 60.4688 47.0312 61.6719 47.0312 63.1562V73.9062" stroke="#FFB6A3" stroke-width="3" stroke-linejoin="round"/>
<path d="M47.0312 16.125C47.0312 16.6544 46.9269 17.1788 46.7243 17.6679C46.5217 18.157 46.2248 18.6012 45.8505 18.9755C45.4761 19.3499 45.0317 19.6469 44.5426 19.8495C44.0535 20.0521 43.5293 20.1563 43 20.1562C42.4706 20.1563 41.9464 20.0521 41.4573 19.8495C40.9682 19.6469 40.5238 19.3499 40.1494 18.9755C39.7751 18.6012 39.4782 18.157 39.2756 17.6679C39.073 17.1788 38.9687 16.6544 38.9688 16.125C38.9687 15.5956 39.073 15.0715 39.2756 14.5824C39.4782 14.0933 39.7751 13.6488 40.1494 13.2745C40.5238 12.9001 40.9682 12.6034 41.4573 12.4008C41.9464 12.1982 42.4706 12.0937 43 12.0938C43.5293 12.0937 44.0535 12.1982 44.5426 12.4008C45.0317 12.6034 45.4761 12.9001 45.8505 13.2745C46.2248 13.6488 46.5217 14.0933 46.7243 14.5824C46.9269 15.0715 47.0312 15.5956 47.0312 16.125Z" stroke="#FFB6A3" stroke-width="3" stroke-linejoin="round"/>
<path d="M43 45.0156V59.7778" stroke="#FFB6A3" stroke-width="3" stroke-linecap="round" stroke-linejoin="round"/>
<path d="M43 8.08008V12.0743" stroke="#FFB6A3" stroke-width="3" stroke-linecap="round" stroke-linejoin="round"/>
<path d="M38.9688 16.125H16.125M16.125 16.125L6.71875 45.6875V47.7031C6.71875 50.0196 7.63898 52.2412 9.27699 53.8793C10.915 55.5173 13.1366 56.4375 15.4531 56.4375C16.6001 56.4375 17.7359 56.2118 18.7956 55.7728C19.8553 55.3339 20.8182 54.6903 21.6293 53.8793C22.4403 53.0682 23.0837 52.1055 23.5226 51.0458C23.9616 49.9861 24.1875 48.8501 24.1875 47.7031V45.6875L16.125 16.125Z" stroke="#FFB6A3" stroke-width="3" stroke-linejoin="round"/>
<path d="M6.71875 47.0312H24.1875" stroke="#FFB6A3" stroke-width="3"/>
<path d="M47.0312 16.125H69.875M69.875 16.125L79.2812 45.6875V47.7031C79.2812 50.0196 78.361 52.2412 76.723 53.8793C75.085 55.5173 72.8634 56.4375 70.5469 56.4375C68.2304 56.4375 66.0088 55.5173 64.3707 53.8793C62.7327 52.2412 61.8125 50.0196 61.8125 47.7031V45.6875L69.875 16.125Z" stroke="#FFB6A3" stroke-width="3" stroke-linejoin="round"/>
<path d="M61.8125 47.0312H79.2812" stroke="#FFB6A3" stroke-width="3"/>
<path d="M43 20.8477V35.6099" stroke="#FFB6A3" stroke-width="3" stroke-linecap="round" stroke-linejoin="round"/>
<path d="M44.3437 40.3125C44.3437 40.6689 44.2022 41.0106 43.9502 41.2626C43.6982 41.5146 43.3564 41.6562 43 41.6562C42.6436 41.6562 42.3018 41.5146 42.0498 41.2626C41.7978 41.0106 41.6562 40.6689 41.6562 40.3125C41.6562 39.9561 41.7978 39.6144 42.0498 39.3624C42.3018 39.1104 42.6436 38.9688 43 38.9688C43.3564 38.9688 43.6982 39.1104 43.9502 39.3624C44.2022 39.6144 44.3437 39.9561 44.3437 40.3125Z" fill="#FFB6A3"/>
</svg>
