<svg width="73" height="73" viewBox="0 0 73 73" fill="none" xmlns="http://www.w3.org/2000/svg">
<path d="M51.8281 38.2617H49.5781C49.5781 39.5026 48.569 40.5117 47.3281 40.5117C46.0872 40.5117 45.0781 39.5026 45.0781 38.2617H42.8281C42.8281 40.7435 44.8464 42.7617 47.3281 42.7617C49.8099 42.7617 51.8281 40.7435 51.8281 38.2617Z" fill="#C06A87"/>
<path d="M65.5689 52.5323L54.0781 48.7006V46.3696C56.5644 44.744 58.4251 42.2487 59.2407 39.3192C62.0274 38.9873 64.2031 36.6361 64.2031 33.7617V24.7617C64.2031 15.4568 56.633 7.88672 47.3281 7.88672C39.5161 7.88672 32.9461 13.2293 31.0325 20.4485C30.8322 20.2223 30.6432 19.9861 30.4295 19.7723L24.0462 13.3891L28.6992 6.87647C29.111 6.30272 29.3281 5.62434 29.3281 4.91559V4.51172C29.3281 2.65097 27.8139 1.13672 25.9531 1.13672C24.4569 1.13672 23.6626 2.04572 23.1361 2.64647C22.6456 3.20559 22.4499 3.38672 22.0122 3.38672C21.5735 3.38672 21.3789 3.20559 20.8872 2.64534C20.3608 2.04459 19.5665 1.13672 18.0714 1.13672C16.5774 1.13672 15.7831 2.04572 15.2566 2.64647C14.7684 3.20559 14.5726 3.38672 14.1361 3.38672C13.6996 3.38672 13.505 3.20559 13.0168 2.64647C12.4914 2.04572 11.6971 1.13672 10.2031 1.13672C8.34237 1.13672 6.82812 2.65097 6.82812 4.51172V4.91559C6.82812 5.62434 7.04525 6.30159 7.457 6.87647L12.11 13.3891L5.72675 19.7723C2.80962 22.6895 1.20312 26.5673 1.20312 30.6927C1.20312 39.209 8.13087 46.1367 16.6471 46.1367H19.5103C25.061 46.1367 30.1561 43.1363 32.8921 38.3877C33.6256 38.8951 34.4896 39.209 35.4166 39.3192C36.2311 42.2498 38.093 44.744 40.5793 46.3696V48.7006L29.0885 52.5312C25.8676 53.6045 23.7031 56.6071 23.7031 60.0012V70.8867H70.9531V60.0012C70.9531 56.6071 68.7886 53.6045 65.5689 52.5323ZM59.6559 36.9443C59.6795 36.635 59.7031 36.3267 59.7031 36.0117V30.5937C61.0093 31.0595 61.9531 32.297 61.9531 33.7617C61.9531 35.2433 60.9868 36.4921 59.6559 36.9443ZM47.3281 10.1367C55.3921 10.1367 61.9531 16.6977 61.9531 24.7617V29.291C61.2961 28.7937 60.539 28.4213 59.7031 28.2515V25.8867H56.3281C53.159 25.8867 50.1305 24.3725 48.2281 21.8356L47.3281 20.6375L46.4281 21.8356C44.5257 24.3725 41.4972 25.8867 38.3281 25.8867H34.9531V28.2503C34.1172 28.4213 33.3601 28.7926 32.7031 29.2898V24.7617C32.7031 16.6977 39.2641 10.1367 47.3281 10.1367ZM9.07812 4.91559V4.51172C9.07812 3.89072 9.58212 3.38672 10.2031 3.38672C10.6396 3.38672 10.8342 3.56784 11.3225 4.12697C11.8479 4.72772 12.6421 5.63672 14.1361 5.63672C15.6301 5.63672 16.4244 4.72772 16.9509 4.12697C17.4403 3.56784 17.6349 3.38672 18.0714 3.38672C18.509 3.38672 18.7036 3.56784 19.1952 4.12697C19.7218 4.72772 20.516 5.63672 22.0122 5.63672C23.5074 5.63672 24.3016 4.72884 24.8281 4.12809C25.3197 3.56784 25.5144 3.38672 25.9531 3.38672C26.5741 3.38672 27.0781 3.89072 27.0781 4.51172V4.91559C27.0781 5.15184 27.0061 5.37797 26.8689 5.56922L21.9999 12.3867H14.1564L9.28737 5.56922C9.15013 5.37909 9.07812 5.15184 9.07812 4.91559ZM19.5091 43.8867H16.646C9.37175 43.8867 3.45312 37.9681 3.45312 30.6927C3.45312 27.1681 4.82562 23.855 7.3175 21.3631L14.0439 14.6367H22.1124L28.8388 21.3631C29.471 21.9953 30.0279 22.7018 30.5195 23.4488C30.4858 23.8831 30.4531 24.3185 30.4531 24.7617V33.7617C30.4531 34.8215 30.7647 35.8025 31.2766 36.6496C29.039 41.0618 24.4884 43.8867 19.5091 43.8867ZM32.7031 33.7617C32.7031 32.297 33.647 31.0595 34.9531 30.5937V36.0117C34.9531 36.3267 34.9767 36.635 35.0004 36.9443C33.6695 36.4921 32.7031 35.2433 32.7031 33.7617ZM37.2031 36.0117V28.1367H38.3281C41.7346 28.1367 45.0073 26.7068 47.3281 24.2532C49.649 26.7068 52.9216 28.1367 56.3281 28.1367H57.4531V36.0117C57.4531 41.5951 52.9115 46.1367 47.3281 46.1367C41.7448 46.1367 37.2031 41.5951 37.2031 36.0117ZM47.3281 48.3867C48.9166 48.3867 50.4309 48.0751 51.8281 47.5272V49.046L47.3281 53.546L42.8281 49.046V47.5272C44.2254 48.0751 45.7396 48.3867 47.3281 48.3867ZM57.4531 64.1367H55.2031C52.4874 64.1367 50.2149 66.0728 49.6918 68.6367H44.9645C44.4414 66.0728 42.17 64.1367 39.4531 64.1367H37.2031V57.3867H57.4531V64.1367ZM25.9531 60.0012C25.9531 57.5768 27.4989 55.4315 29.7995 54.6653L41.3994 50.7987L45.7374 55.1367H34.9531V64.1367H32.7031V59.6367H30.4531V66.3867H39.4531C40.9179 66.3867 42.1554 67.3306 42.6211 68.6367H25.9531V60.0012ZM68.7031 68.6367H52.0351C52.5009 67.3306 53.7384 66.3867 55.2031 66.3867H64.2031V59.6367H61.9531V64.1367H59.7031V55.1367H48.9189L53.2569 50.7987L64.8568 54.6653C67.1574 55.4326 68.7031 57.5768 68.7031 60.0012V68.6367Z" fill="#C06A87"/>
<path d="M41.7031 32.6367C42.3244 32.6367 42.8281 32.133 42.8281 31.5117C42.8281 30.8904 42.3244 30.3867 41.7031 30.3867C41.0818 30.3867 40.5781 30.8904 40.5781 31.5117C40.5781 32.133 41.0818 32.6367 41.7031 32.6367Z" fill="#C06A87"/>
<path d="M52.9531 32.6367C53.5744 32.6367 54.0781 32.133 54.0781 31.5117C54.0781 30.8904 53.5744 30.3867 52.9531 30.3867C52.3318 30.3867 51.8281 30.8904 51.8281 31.5117C51.8281 32.133 52.3318 32.6367 52.9531 32.6367Z" fill="#C06A87"/>
<path d="M10.4998 24.5462L11.7384 23.3075L10.1477 21.7168L8.90903 22.9554C8.55803 23.3064 8.22841 23.6844 7.92578 24.0815L9.71678 25.4439C9.95641 25.1267 10.2208 24.8252 10.4998 24.5462Z" fill="#C06A87"/>
<path d="M7.95312 30.6927C7.95312 29.5598 8.16462 28.4641 8.582 27.4336L6.49625 26.5898C5.96975 27.8892 5.70312 29.2707 5.70312 30.6927C5.70312 35.8835 9.39425 40.3958 14.4815 41.4207L14.9259 39.2146C10.8849 38.4012 7.95312 34.817 7.95312 30.6927Z" fill="#C06A87"/>
<path d="M18.0781 23.6367C19.319 23.6367 20.3281 24.6458 20.3281 25.8867H22.5781C22.5781 23.7953 21.1392 22.0493 19.2031 21.5465V19.1367H16.9531V21.5465C15.017 22.0493 13.5781 23.7953 13.5781 25.8867C13.5781 28.3685 15.5964 30.3867 18.0781 30.3867C19.319 30.3867 20.3281 31.3958 20.3281 32.6367C20.3281 33.8776 19.319 34.8867 18.0781 34.8867C16.8372 34.8867 15.8281 33.8776 15.8281 32.6367H13.5781C13.5781 34.7281 15.017 36.4741 16.9531 36.977V39.3867H19.2031V36.977C21.1392 36.4741 22.5781 34.7281 22.5781 32.6367C22.5781 30.155 20.5599 28.1367 18.0781 28.1367C16.8372 28.1367 15.8281 27.1276 15.8281 25.8867C15.8281 24.6458 16.8372 23.6367 18.0781 23.6367Z" fill="#C06A87"/>
</svg>
