<svg width="76" height="77" viewBox="0 0 76 77" fill="none" xmlns="http://www.w3.org/2000/svg">
<g clip-path="url(#clip0_1390_12230)">
<path d="M21.3462 43.0436V43.9667C21.3462 50.8449 24.0606 57.4408 28.8912 62.3034C33.7217 67.166 40.2726 69.8971 47.1026 69.8971C53.9326 69.8971 60.4835 67.166 65.314 62.3034C70.1446 57.4408 72.8591 50.845 72.8591 43.9667L21.3462 43.0436ZM21.3462 43.0436L27.2958 49.0328L27.2982 49.0352C27.5462 49.2814 27.8815 49.4196 28.2312 49.4184C28.5809 49.4172 28.9153 49.2768 29.1616 49.0289C29.4078 48.7812 29.5461 48.4461 29.5473 48.0971C29.5485 47.7481 29.4126 47.4121 29.1682 47.1626L29.1657 47.1601L20.9606 38.9005L20.96 38.8999C20.7132 38.6523 20.3786 38.5124 20.0287 38.5117C19.6975 38.5111 19.3794 38.6353 19.1363 38.8579L19.1269 38.8641L19.0908 38.9005L10.8856 47.16L21.3462 43.0436ZM18.7052 43.0436L18.7051 43.9667L18.7051 43.9673C18.7151 51.5402 21.7106 58.8001 27.0347 64.1524C32.3589 69.5048 39.5766 72.5117 47.1026 72.5117C54.6286 72.5117 61.8462 69.5048 67.1704 64.1524C72.4945 58.8001 75.49 51.5402 75.5 43.9673V43.9667C75.5 43.793 75.466 43.621 75.4 43.4604C75.3339 43.2997 75.2369 43.1536 75.1144 43.0303C74.992 42.907 74.8464 42.809 74.686 42.7421C74.5255 42.6752 74.3534 42.6407 74.1796 42.6407C74.0057 42.6407 73.8336 42.6752 73.6731 42.7421C73.5127 42.809 73.3671 42.907 73.2446 43.0302L73.5993 43.3826L73.2446 43.0303C73.1222 43.1535 73.0252 43.2997 72.9591 43.4604C72.893 43.621 72.8591 43.793 72.8591 43.9667L18.7052 43.0436Z" fill="#315D80" stroke="#315D80"/>
<path d="M0.500025 36.0677C0.500119 36.418 0.6387 36.7544 0.886008 37.0028C1.13348 37.2513 1.46958 37.3914 1.82049 37.3914C2.17141 37.3914 2.50751 37.2513 2.75498 37.0028C3.00237 36.7543 3.14096 36.4178 3.14096 36.0673C3.14094 30.9502 4.65171 25.9481 7.48198 21.6937C10.3122 17.4393 14.3348 14.1237 19.0406 12.1659C23.7465 10.2081 28.9246 9.69591 33.9201 10.6939C38.9157 11.692 43.5047 14.1555 47.1068 17.7734L47.1073 17.7739C49.5025 20.1731 51.4021 23.0244 52.6968 26.1637C53.9915 29.303 54.6556 32.6685 54.651 36.0666V36.0673V36.9872L48.7013 31.0114L48.3469 31.3642L48.7012 31.0114C48.5787 30.8884 48.4332 30.7906 48.2728 30.7239C48.1124 30.6572 47.9404 30.6229 47.7667 30.6229C47.593 30.6229 47.4211 30.6573 47.2607 30.724C47.1003 30.7907 46.9548 30.8884 46.8323 31.0115C46.7097 31.1346 46.6127 31.2805 46.5465 31.441C46.4803 31.6015 46.4463 31.7734 46.4463 31.947C46.4463 32.1206 46.4804 32.2925 46.5465 32.453C46.6127 32.6135 46.7098 32.7594 46.8323 32.8825L55.0348 41.1209C55.0352 41.1213 55.0357 41.1217 55.0361 41.1222C55.2635 41.3527 55.5686 41.4892 55.8908 41.5055C55.9135 41.509 55.9408 41.5117 55.9715 41.5117C56.0021 41.5117 56.0293 41.509 56.052 41.5055C56.3742 41.4893 56.6792 41.3528 56.9066 41.1225C56.9071 41.1219 56.9077 41.1213 56.9082 41.1208L65.1086 32.8844C65.1088 32.8842 65.109 32.884 65.1092 32.8838C65.2326 32.7611 65.3306 32.6153 65.3976 32.4548C65.4647 32.294 65.4995 32.1215 65.5 31.9473C65.5005 31.7731 65.4667 31.6005 65.4005 31.4393C65.3343 31.2781 65.237 31.1315 65.114 31.008C64.991 30.8845 64.8448 30.7865 64.6837 30.7198C64.5227 30.6531 64.35 30.619 64.1756 30.6195C64.0013 30.62 63.8288 30.6552 63.6681 30.7229C63.5079 30.7904 63.3627 30.8888 63.2407 31.0126C63.2403 31.0129 63.24 31.0133 63.2396 31.0137L57.2919 36.9873L57.2919 36.068C57.2969 32.32 56.5662 28.6078 55.1415 25.1435C53.7169 21.6793 51.6262 18.531 48.989 15.8787C46.3518 13.2264 43.2198 11.1222 39.7721 9.68647C36.3243 8.25074 32.6285 7.51172 28.896 7.51172C25.1635 7.51172 21.4676 8.25074 18.0199 9.68647C14.5721 11.1222 11.4401 13.2264 8.80288 15.8787C6.16569 18.531 4.07504 21.6793 2.65041 25.1435C1.22581 28.6077 0.495107 32.3198 0.500025 36.0677ZM0.500025 36.0677C0.500025 36.0675 0.500025 36.0674 0.500025 36.0673H1.00002L0.500025 36.068C0.500025 36.0679 0.500025 36.0678 0.500025 36.0677Z" fill="#315D80" stroke="#315D80"/>
</g>
<defs>
<clipPath id="clip0_1390_12230">
<rect width="76" height="76" fill="white" transform="translate(0 0.0117188)"/>
</clipPath>
</defs>
</svg>
