<svg width="74" height="75" viewBox="0 0 74 75" fill="none" xmlns="http://www.w3.org/2000/svg">
<g clip-path="url(#clip0_1390_12206)">
<g clip-path="url(#clip1_1390_12206)">
<path d="M66.75 74.0124H45.1667V53.9707H32.8333V74.0124H11.25V41.6374C11.25 40.7864 11.9391 40.0957 12.7917 40.0957C13.6442 40.0957 14.3333 40.7864 14.3333 41.6374V70.929H29.75V50.8874H48.25V70.929H63.6667V43.179C63.6667 42.328 64.3558 41.6374 65.2083 41.6374C66.0609 41.6374 66.75 42.328 66.75 43.179V74.0124Z" fill="#FFB6A3"/>
<path d="M74.4587 41.6369C74.0749 41.6369 73.6925 41.4951 73.3934 41.2099L39.0004 8.31226L4.60735 41.2099C3.99223 41.7973 3.01635 41.7772 2.42743 41.1621C1.83852 40.547 1.86164 39.5711 2.47523 38.9822L39.0004 4.04492L75.524 38.9806C76.1376 39.5695 76.1607 40.5454 75.5718 41.1605C75.2696 41.4766 74.8657 41.6369 74.4587 41.6369Z" fill="#FFB6A3"/>
<path d="M39.1875 27.1992C40.3422 27.1992 41.2812 28.1383 41.2812 29.293H43.375C43.375 27.3468 42.036 25.7221 40.2344 25.2541V23.0117H38.1406V25.2541C36.339 25.7221 35 27.3468 35 29.293C35 31.6024 36.8781 33.4805 39.1875 33.4805C40.3422 33.4805 41.2812 34.4195 41.2812 35.5742C41.2812 36.7289 40.3422 37.668 39.1875 37.668C38.0328 37.668 37.0938 36.7289 37.0938 35.5742H35C35 37.5204 36.339 39.1451 38.1406 39.6131V41.8555H40.2344V39.6131C42.036 39.1451 43.375 37.5204 43.375 35.5742C43.375 33.2648 41.4969 31.3867 39.1875 31.3867C38.0328 31.3867 37.0938 30.4477 37.0938 29.293C37.0938 28.1383 38.0328 27.1992 39.1875 27.1992Z" fill="#FFB6A3"/>
<path d="M62.1263 23.1367C61.2738 23.1367 60.5846 22.4461 60.5846 21.5951V12.3451H51.3346C50.4821 12.3451 49.793 11.6544 49.793 10.8034C49.793 9.95239 50.4821 9.26172 51.3346 9.26172H63.668V21.5951C63.668 22.4461 62.9788 23.1367 62.1263 23.1367Z" fill="#FFB6A3"/>
</g>
</g>
<defs>
<clipPath id="clip0_1390_12206">
<rect width="74" height="74" fill="white" transform="translate(0 0.0117188)"/>
</clipPath>
<clipPath id="clip1_1390_12206">
<rect width="74" height="74" fill="white" transform="translate(2 0.0117188)"/>
</clipPath>
</defs>
</svg>
