<svg width="78" height="79" viewBox="0 0 78 79" fill="none" xmlns="http://www.w3.org/2000/svg">
<g clip-path="url(#clip0_1390_12192)">
<path d="M73.192 19.2988H9.69942C9.35063 19.2988 9.01614 19.4374 8.76951 19.684C8.52288 19.9306 8.38433 20.2651 8.38433 20.6139V26.6633H4.80728C4.45849 26.6633 4.124 26.8019 3.87737 27.0485C3.63074 27.2951 3.49219 27.6296 3.49219 27.9784V57.4365C3.49892 57.7831 3.63964 58.1138 3.88482 58.3589C4.13 58.6041 4.4606 58.7448 4.80728 58.7516H63.434C63.7828 58.7516 64.1173 58.613 64.3639 58.3664C64.6106 58.1198 64.7491 57.7853 64.7491 57.4365V51.3871H73.192C73.5408 51.3871 73.8753 51.2485 74.1219 51.0019C74.3686 50.7552 74.5071 50.4207 74.5071 50.072V20.6139C74.5071 20.2651 74.3686 19.9306 74.1219 19.684C73.8753 19.4374 73.5408 19.2988 73.192 19.2988ZM62.119 56.1214H6.12237V29.2935H62.119V56.1214ZM71.8769 48.7569H64.7491V27.9784C64.7766 27.813 64.7766 27.6441 64.7491 27.4787C64.6133 27.159 64.3587 26.9044 64.039 26.7685C63.8745 26.7313 63.7037 26.7313 63.5392 26.7685H11.0145V21.929H71.8769V48.7569Z" fill="#C06A87"/>
<path d="M14.5637 31.582H9.6979C9.34912 31.582 9.01462 31.7206 8.76799 31.9672C8.52137 32.2138 8.38281 32.5483 8.38281 32.8971C8.38281 33.2459 8.52137 33.5804 8.76799 33.827C9.01462 34.0737 9.34912 34.2122 9.6979 34.2122H14.5637C14.9125 34.2122 15.247 34.0737 15.4936 33.827C15.7403 33.5804 15.8788 33.2459 15.8788 32.8971C15.8788 32.5483 15.7403 32.2138 15.4936 31.9672C15.247 31.7206 14.9125 31.582 14.5637 31.582Z" fill="#C06A87"/>
<path d="M58.5432 51.2031H53.651C53.3022 51.2031 52.9677 51.3417 52.7211 51.5883C52.4745 51.8349 52.3359 52.1694 52.3359 52.5182C52.3359 52.867 52.4745 53.2015 52.7211 53.4481C52.9677 53.6948 53.3022 53.8333 53.651 53.8333H58.5432C58.892 53.8333 59.2265 53.6948 59.4731 53.4481C59.7197 53.2015 59.8583 52.867 59.8583 52.5182C59.8583 52.1694 59.7197 51.8349 59.4731 51.5883C59.2265 51.3417 58.892 51.2031 58.5432 51.2031Z" fill="#C06A87"/>
<path d="M34.1083 34.0274C32.3905 34.0222 30.7098 34.5268 29.279 35.4774C27.8482 36.4279 26.7316 37.7817 26.0706 39.3672C25.4096 40.9527 25.234 42.6987 25.5659 44.3841C25.8979 46.0695 26.7224 47.6185 27.9352 48.835C29.148 50.0515 30.6946 50.8808 32.3789 51.2178C34.0633 51.5549 35.8099 51.3845 37.3974 50.7284C38.9849 50.0722 40.342 48.9598 41.2969 47.5318C42.2518 46.1039 42.7615 44.4248 42.7616 42.707C42.765 41.5684 42.5437 40.4403 42.1104 39.3874C41.6771 38.3345 41.0403 37.3775 40.2364 36.5712C39.4325 35.7648 38.4774 35.1251 37.4258 34.6886C36.3742 34.2521 35.2468 34.0274 34.1083 34.0274ZM34.1083 48.7564C32.9107 48.7616 31.7385 48.4113 30.7402 47.7497C29.742 47.0882 28.9625 46.1452 28.5006 45.0403C28.0387 43.9354 27.9151 42.7182 28.1456 41.543C28.376 40.3678 28.9501 39.2874 29.7951 38.4388C30.64 37.5901 31.7179 37.0114 32.8921 36.7758C34.0662 36.5402 35.2839 36.6585 36.3908 37.1156C37.4978 37.5727 38.4441 38.348 39.11 39.3434C39.7759 40.3388 40.1314 41.5094 40.1314 42.707C40.1348 43.5002 39.9816 44.2862 39.6805 45.02C39.3793 45.7538 38.9362 46.4209 38.3766 46.983C37.8169 47.5451 37.1518 47.9911 36.4193 48.2954C35.6868 48.5998 34.9014 48.7564 34.1083 48.7564Z" fill="#C06A87"/>
<path d="M58.5432 31.582H53.651C53.3022 31.582 52.9677 31.7206 52.7211 31.9672C52.4745 32.2138 52.3359 32.5483 52.3359 32.8971C52.3359 33.2459 52.4745 33.5804 52.7211 33.827C52.9677 34.0737 53.3022 34.2122 53.651 34.2122H58.5432C58.892 34.2122 59.2265 34.0737 59.4731 33.827C59.7197 33.5804 59.8583 33.2459 59.8583 32.8971C59.8583 32.5483 59.7197 32.2138 59.4731 31.9672C59.2265 31.7206 58.892 31.582 58.5432 31.582Z" fill="#C06A87"/>
<path d="M14.5637 51.2031H9.6979C9.34912 51.2031 9.01462 51.3417 8.76799 51.5883C8.52137 51.8349 8.38281 52.1694 8.38281 52.5182C8.38281 52.867 8.52137 53.2015 8.76799 53.4481C9.01462 53.6948 9.34912 53.8333 9.6979 53.8333H14.5637C14.9125 53.8333 15.247 53.6948 15.4936 53.4481C15.7403 53.2015 15.8788 52.867 15.8788 52.5182C15.8788 52.1694 15.7403 51.8349 15.4936 51.5883C15.247 51.3417 14.9125 51.2031 14.5637 51.2031Z" fill="#C06A87"/>
</g>
<defs>
<clipPath id="clip0_1390_12192">
<rect width="78" height="78" fill="white" transform="translate(0 0.0117188)"/>
</clipPath>
</defs>
</svg>
