<svg width="588" height="520" viewBox="0 0 588 520" fill="none" xmlns="http://www.w3.org/2000/svg">
<path d="M346.584 136.082C346.584 136.082 341.258 125.888 334.142 122.504C327.026 119.121 319.342 117.745 321.721 121.827C324.17 125.465 326.938 128.877 329.994 132.022H318.753C314.425 131.255 310.048 130.795 305.655 130.646C300.329 130.646 299.74 134.728 299.74 134.728C299.74 134.728 294.413 134.728 292.623 136.758C290.834 138.788 293.213 141.517 293.213 141.517C293.213 141.517 286.118 143.569 290.266 148.306C294.413 153.043 310.981 158.5 318.643 159.853C326.305 161.207 342.328 159.177 342.328 159.177C342.328 159.177 359.616 144.922 346.584 136.082Z" fill="#315D80"/>
<path d="M308.65 148.725C308.564 148.725 308.479 148.708 308.4 148.674C308.322 148.64 308.25 148.591 308.191 148.529C308.133 148.472 308.087 148.404 308.056 148.329C308.024 148.254 308.008 148.173 308.008 148.092C308.008 148.011 308.024 147.93 308.056 147.855C308.087 147.78 308.133 147.712 308.191 147.655L323.799 133.03C323.917 132.918 324.073 132.855 324.235 132.855C324.398 132.855 324.554 132.918 324.672 133.03C324.729 133.085 324.775 133.151 324.806 133.224C324.838 133.298 324.854 133.376 324.854 133.456C324.854 133.535 324.838 133.614 324.806 133.687C324.775 133.76 324.729 133.826 324.672 133.881L309.064 148.507C308.959 148.63 308.811 148.708 308.65 148.725Z" fill="black"/>
<path d="M345.449 145.162C339.272 145.162 334.862 143.655 332.352 140.687C331.503 139.684 330.871 138.517 330.495 137.259C330.12 136 330.009 134.678 330.169 133.374C330.201 133.218 330.29 133.079 330.42 132.986C330.549 132.893 330.709 132.852 330.867 132.872C331.028 132.904 331.17 132.997 331.264 133.131C331.357 133.265 331.395 133.431 331.369 133.592C331.232 134.715 331.326 135.853 331.645 136.938C331.964 138.023 332.502 139.031 333.225 139.901C335.408 142.586 339.577 143.939 345.362 143.939H345.58C345.661 143.936 345.742 143.95 345.817 143.979C345.893 144.009 345.962 144.054 346.019 144.111C346.076 144.169 346.121 144.237 346.151 144.313C346.181 144.389 346.194 144.469 346.191 144.55C346.191 144.709 346.13 144.861 346.02 144.975C345.91 145.089 345.76 145.156 345.602 145.162H345.449Z" fill="black"/>
<path d="M414.736 451.578V474.324L373.414 472.708V451.578H414.736Z" fill="#315D80"/>
<path d="M510.192 448.998V471.744L471.926 470.15V448.998H510.192Z" fill="#315D80"/>
<path d="M418.922 203.751C418.922 203.751 397.246 247.19 379.63 325.534C369.899 368.522 363.333 412.166 359.984 456.114H429.727C429.727 456.114 437.499 397.853 439.55 374.802C441.582 356.684 444.569 338.686 448.5 320.884C448.5 320.884 458.083 453.865 460.353 456.223C462.623 458.58 529.42 456.725 528.699 453.669C527.979 450.613 507.591 230.055 505.779 215.517C500.213 170.702 418.922 203.751 418.922 203.751Z" fill="#000001"/>
<path d="M462.429 505.405C462.429 509.421 463.717 514.005 466.402 515.162C469.087 516.319 490.632 518.72 509.514 517.018C527.588 515.38 531.343 514.005 532.674 512.302C533.329 511.429 532.063 507.413 530.491 503.571C530.491 503.396 530.339 503.156 530.251 502.96C529.487 501.017 528.723 499.118 528.068 497.765C527.517 496.47 526.837 495.234 526.038 494.075C523.368 490.465 521.078 486.588 519.206 482.506C517.918 478.533 515.932 469.933 514.6 465.873C514.27 464.763 513.68 463.749 512.879 462.913C512.078 462.078 511.089 461.446 509.994 461.07C509.994 461.07 472.885 458.429 470.157 460.743C467.428 463.057 466.206 481.96 466.206 484.754V487.614C465.594 491.796 464.615 495.915 463.28 499.926C462.975 501.017 462.713 502.108 462.538 502.96C462.42 503.769 462.384 504.588 462.429 505.405Z" fill="#F1D15B"/>
<path d="M306.942 513.589C309.43 514.637 414.929 517.628 417.374 513.589C418.437 510.168 418.981 506.607 418.989 503.024C419.862 490.756 419.862 472.464 419.862 472.464C420.249 469.437 420.453 466.39 420.474 463.339C420.364 460.502 369.612 461.593 369.612 461.593L336.607 488.53C330.338 487.538 323.951 487.538 317.682 488.53C312.443 489.403 309.059 496.039 307.378 502.304C305.829 507.892 305.698 513.065 306.942 513.589Z" fill="#F1D15B"/>
<path d="M448.483 321.476C448.333 321.472 448.189 321.415 448.077 321.315C447.965 321.215 447.893 321.079 447.872 320.93C447.872 320.646 445.689 291.985 445.056 279.28C444.51 268.366 444.423 262.32 444.401 260.792L422.158 250.554C422.014 250.483 421.902 250.36 421.846 250.21C421.789 250.06 421.791 249.894 421.852 249.746C421.919 249.599 422.041 249.484 422.193 249.426C422.344 249.369 422.512 249.374 422.66 249.441L445.252 259.853C445.356 259.902 445.444 259.979 445.505 260.076C445.567 260.172 445.6 260.284 445.602 260.399C445.602 260.399 445.602 266.533 446.257 279.215C446.911 291.898 449.072 320.537 449.094 320.821C449.103 320.902 449.096 320.984 449.071 321.061C449.047 321.139 449.007 321.211 448.954 321.273C448.901 321.334 448.835 321.384 448.762 321.419C448.688 321.454 448.608 321.473 448.527 321.476H448.483Z" fill="white"/>
<path d="M509.228 480.719H509.075C508.923 480.719 494.407 476.703 487.094 477.969L479.563 479.322C479.431 479.34 479.297 479.316 479.179 479.254C479.061 479.191 478.967 479.093 478.908 478.973C478.858 478.852 478.846 478.718 478.874 478.589C478.901 478.461 478.966 478.344 479.061 478.253C479.607 477.773 492.66 466.378 500.431 469.827C500.579 469.894 500.694 470.016 500.751 470.167C500.808 470.319 500.803 470.487 500.737 470.635C500.706 470.707 500.661 470.772 500.605 470.827C500.548 470.881 500.482 470.924 500.408 470.953C500.335 470.981 500.257 470.995 500.178 470.993C500.1 470.991 500.023 470.973 499.951 470.94C494.45 468.517 485.457 474.738 481.659 477.707L486.876 476.79C494.472 475.437 508.704 479.388 509.403 479.541C509.555 479.586 509.683 479.689 509.76 479.828C509.838 479.966 509.858 480.129 509.818 480.283C509.783 480.411 509.706 480.525 509.599 480.604C509.492 480.683 509.361 480.724 509.228 480.719Z" fill="white"/>
<path d="M344.463 482.725C344.313 482.721 344.17 482.664 344.058 482.564C343.946 482.464 343.873 482.328 343.852 482.179C343.845 482.019 343.896 481.862 343.997 481.737C344.097 481.612 344.24 481.529 344.398 481.502L362.079 479.625L356.229 472.487C356.153 472.361 356.125 472.212 356.151 472.067C356.176 471.922 356.253 471.791 356.367 471.698C356.481 471.605 356.625 471.556 356.772 471.561C356.919 471.566 357.06 471.623 357.168 471.723L363.717 479.712C363.77 479.809 363.798 479.918 363.798 480.029C363.798 480.14 363.77 480.249 363.717 480.346C363.672 480.446 363.602 480.532 363.514 480.597C363.426 480.662 363.323 480.703 363.214 480.717L344.42 482.703L344.463 482.725Z" fill="white"/>
<path d="M443.249 99.4755C443.249 99.4755 440.651 100.087 440.018 101.047C439.576 102.6 439.399 104.216 439.494 105.828L419.652 155.401L413.758 208.86C413.758 208.86 426.004 221.957 458.07 223.529C490.137 225.1 507.185 210.3 507.185 210.3C507.185 210.3 494.088 120.54 486.229 108.796C482.737 103.579 467.871 102.248 467.871 102.248C467.871 102.248 467.391 100.37 466.845 100.065C463.92 98.2531 443.249 99.4755 443.249 99.4755Z" fill="#C06A87"/>
<path d="M442.276 68.4155C442.276 68.4155 430.532 63.8533 429.921 72.7813C429.245 83.2154 441.665 82.8662 441.665 82.8662L442.276 68.4155Z" fill="#315D80"/>
<path d="M436.888 77.954C436.784 77.9554 436.681 77.93 436.589 77.8803C436.497 77.8306 436.42 77.7583 436.364 77.6703L432.26 71.1216C432.177 70.9816 432.152 70.8151 432.188 70.6566C432.225 70.4981 432.321 70.3598 432.457 70.2703C432.593 70.1886 432.756 70.1634 432.911 70.2C433.066 70.2367 433.201 70.3324 433.286 70.4668L437.39 77.0154C437.473 77.1554 437.499 77.3219 437.462 77.4804C437.426 77.6389 437.329 77.7772 437.194 77.8667C437.104 77.9281 436.997 77.9588 436.888 77.954Z" fill="black"/>
<path d="M432.305 76.1218C432.165 76.095 432.039 76.0205 431.949 75.9109C431.858 75.8014 431.809 75.6636 431.809 75.5215C431.809 75.3793 431.858 75.2416 431.949 75.132C432.039 75.0225 432.165 74.948 432.305 74.9212L435.601 74.7465C435.76 74.7405 435.914 74.7963 436.032 74.9022C436.15 75.0081 436.223 75.1558 436.234 75.3141C436.24 75.3933 436.23 75.4728 436.204 75.548C436.179 75.6232 436.138 75.6924 436.085 75.7515C436.032 75.8106 435.968 75.8585 435.896 75.8921C435.824 75.9257 435.746 75.9444 435.666 75.9472L432.37 76.1218H432.305Z" fill="black"/>
<path d="M464.113 92.4254L464.637 104.584C461.398 106.319 457.825 107.338 454.159 107.575C446.235 107.989 443.398 103.383 443.398 103.383L442.961 89.1074L464.113 92.4254Z" fill="#315D80"/>
<path d="M464.108 92.4276C464.108 92.4276 460.659 102.403 451.622 101.377C444.332 100.548 441.887 90.332 441.887 90.332L464.108 92.4276Z" fill="black"/>
<path d="M438.331 58.6575C438.331 58.6575 433.965 81.0975 440.732 90.724C441.88 92.4999 443.389 94.0137 445.162 95.1668C446.935 96.3198 448.93 97.0861 451.019 97.4157C453.108 97.7453 455.242 97.6307 457.284 97.0795C459.325 96.5282 461.228 95.5528 462.867 94.2166C466.094 91.5531 468.325 87.8755 469.197 83.7825C469.197 83.7825 476.902 85.0267 479.238 78.7182C481.683 72.1695 476.75 66.9524 472.908 66.7778C469.066 66.6032 468.651 67.3017 468.651 67.3017L469.524 60.2728C469.524 60.2728 445.382 35.257 438.331 58.6575Z" fill="#315D80"/>
<path d="M470.228 77.2783C470.145 77.278 470.064 77.2603 469.989 77.2264C469.913 77.1926 469.846 77.1434 469.791 77.0819C469.734 77.0269 469.688 76.9608 469.657 76.8876C469.625 76.8145 469.609 76.7357 469.609 76.6562C469.609 76.5767 469.625 76.4979 469.657 76.4248C469.688 76.3516 469.734 76.2855 469.791 76.2305L475.51 70.948C475.624 70.8373 475.777 70.7754 475.936 70.7754C476.095 70.7754 476.247 70.8373 476.362 70.948C476.419 71.003 476.465 71.0691 476.496 71.1422C476.527 71.2154 476.543 71.2941 476.543 71.3737C476.543 71.4532 476.527 71.5319 476.496 71.6051C476.465 71.6783 476.419 71.7443 476.362 71.7993L470.664 77.1474C470.537 77.2386 470.384 77.2847 470.228 77.2783Z" fill="black"/>
<path d="M475.727 78.0201C475.613 78.054 475.491 78.054 475.377 78.0201L471.797 75.5316C471.732 75.4858 471.675 75.4274 471.632 75.3598C471.589 75.2921 471.559 75.2166 471.545 75.1376C471.531 75.0585 471.532 74.9774 471.549 74.899C471.566 74.8205 471.599 74.7462 471.645 74.6803C471.691 74.6143 471.749 74.5581 471.817 74.5147C471.884 74.4714 471.96 74.4418 472.039 74.4276C472.118 74.4134 472.199 74.4149 472.277 74.4321C472.356 74.4492 472.43 74.4816 472.496 74.5275L476.054 77.016C476.12 77.0618 476.176 77.1202 476.22 77.1878C476.263 77.2554 476.293 77.3309 476.307 77.4099C476.321 77.489 476.32 77.5701 476.302 77.6486C476.285 77.727 476.253 77.8013 476.207 77.8673C476.144 77.928 476.068 77.9734 475.985 77.9999C475.901 78.0264 475.813 78.0333 475.727 78.0201Z" fill="black"/>
<path d="M458.521 71.5141C458.359 71.5141 458.204 71.4496 458.089 71.335C457.975 71.2204 457.91 71.065 457.91 70.9029V67.1483C457.91 66.9862 457.975 66.8307 458.089 66.7161C458.204 66.6015 458.359 66.5371 458.521 66.5371C458.683 66.5371 458.839 66.6015 458.954 66.7161C459.068 66.8307 459.133 66.9862 459.133 67.1483V70.9029C459.133 71.065 459.068 71.2204 458.954 71.335C458.839 71.4496 458.683 71.5141 458.521 71.5141Z" fill="black"/>
<path d="M445.014 71.8852C444.851 71.8852 444.696 71.8208 444.581 71.7062C444.467 71.5915 444.402 71.4361 444.402 71.274V67.5194C444.402 67.3573 444.467 67.2018 444.581 67.0872C444.696 66.9726 444.851 66.9082 445.014 66.9082C445.176 66.9082 445.331 66.9726 445.446 67.0872C445.56 67.2018 445.625 67.3573 445.625 67.5194V71.274C445.625 71.4361 445.56 71.5915 445.446 71.7062C445.331 71.8208 445.176 71.8852 445.014 71.8852Z" fill="black"/>
<path d="M451.122 80.9438C450.983 80.9462 450.848 80.8993 450.74 80.8114C450.632 80.7235 450.559 80.6003 450.533 80.4636C449.68 76.855 449.824 73.0826 450.948 69.5492C450.969 69.4719 451.007 69.4001 451.059 69.3385C451.11 69.2769 451.174 69.2268 451.246 69.1918C451.318 69.1567 451.397 69.1374 451.478 69.135C451.558 69.1326 451.638 69.1473 451.712 69.1781C451.787 69.2026 451.857 69.2421 451.917 69.2942C451.976 69.3462 452.025 69.4098 452.06 69.4811C452.094 69.5525 452.114 69.6301 452.118 69.7093C452.122 69.7885 452.11 69.8677 452.083 69.9421C451.074 73.2574 450.946 76.7783 451.712 80.158C451.744 80.3141 451.715 80.4769 451.629 80.6115C451.543 80.7461 451.409 80.8418 451.253 80.8783L451.122 80.9438Z" fill="black"/>
<path d="M441.821 64.3133C441.673 64.3066 441.532 64.2443 441.428 64.1387C441.37 64.0837 441.325 64.0176 441.293 63.9444C441.262 63.8713 441.246 63.7925 441.246 63.713C441.246 63.6334 441.262 63.5547 441.293 63.4816C441.325 63.4084 441.37 63.3423 441.428 63.2873C442.602 62.2473 444.079 61.6121 445.641 61.4756C445.721 61.4631 445.802 61.4678 445.88 61.4893C445.957 61.5108 446.03 61.5487 446.092 61.6003C446.154 61.652 446.204 61.7162 446.239 61.7888C446.274 61.8614 446.294 61.9406 446.296 62.0213C446.308 62.18 446.258 62.3372 446.156 62.4595C446.054 62.5818 445.908 62.6595 445.75 62.6761C444.48 62.7725 443.27 63.2521 442.279 64.0513C442.226 64.1254 442.158 64.1872 442.079 64.2324C441.999 64.2776 441.912 64.3052 441.821 64.3133Z" fill="black"/>
<path d="M460.355 64.6626C460.274 64.6637 460.194 64.6489 460.119 64.6189C460.044 64.589 459.976 64.5444 459.918 64.488C458.938 63.6782 457.736 63.1836 456.47 63.069C456.309 63.0472 456.164 62.965 456.062 62.8392C455.961 62.7134 455.911 62.5535 455.924 62.3923C455.926 62.3117 455.945 62.2325 455.98 62.1599C456.016 62.0873 456.066 62.023 456.128 61.9714C456.19 61.9198 456.262 61.8819 456.34 61.8604C456.418 61.8389 456.499 61.8342 456.579 61.8466C458.138 61.9936 459.612 62.6275 460.792 63.6585C460.849 63.7135 460.895 63.7796 460.926 63.8527C460.957 63.9259 460.973 64.0046 460.973 64.0841C460.973 64.1637 460.957 64.2423 460.926 64.3155C460.895 64.3886 460.849 64.4547 460.792 64.5097C460.672 64.6159 460.515 64.6708 460.355 64.6626Z" fill="black"/>
<path d="M470.419 67.2815C470.419 67.2815 468.237 74.2448 467.342 73.9829C466.447 73.721 467.582 62.8502 470.157 62.3263C472.733 61.8024 470.419 67.2815 470.419 67.2815Z" fill="black"/>
<path d="M469.282 66.2318C464.683 65.715 460.286 64.0567 456.491 61.4077C453.824 59.206 451.777 56.3469 450.553 53.1127C447.678 53.0344 444.851 53.8672 442.477 55.492C437.696 58.3298 437.194 67.3014 437.194 67.3014C437.194 67.3014 428.703 52.0212 432.937 46.6295C437.172 41.2378 443.852 45.8874 443.852 45.8874C443.852 45.8874 442.782 35.9116 456.491 39.9718C460.383 41.0331 463.947 43.051 466.86 45.8418C469.773 48.6326 471.941 52.1076 473.168 55.9505C474.39 55.8179 475.616 56.1613 476.592 56.9093C477.568 57.6572 478.217 58.7523 478.407 59.967C478.619 62.9403 478.164 65.9234 477.075 68.6985C476.37 68.1023 475.517 67.7083 474.606 67.5584C473.695 67.4085 472.761 67.5083 471.902 67.8471L468.737 68.9823L469.282 66.2318Z" fill="black"/>
<path d="M443.249 99.4766C445.636 101.702 448.723 103.03 451.98 103.231C458.267 104.104 464.379 99.6293 464.379 99.6293L467.61 107.531L456.87 112.552L440.105 109.256L440.957 101.703L443.249 99.4766Z" fill="#C06A87"/>
<path d="M454.66 86.7936H454.267C454.182 86.7882 454.099 86.7649 454.023 86.7254C453.948 86.6859 453.881 86.631 453.828 86.5643C453.775 86.4975 453.737 86.4204 453.715 86.3378C453.694 86.2553 453.69 86.1692 453.703 86.085C453.717 86.0008 453.748 85.9204 453.795 85.849C453.842 85.7776 453.903 85.7168 453.975 85.6705C454.046 85.6242 454.127 85.5933 454.211 85.58C454.295 85.5666 454.381 85.5711 454.464 85.593C454.704 85.593 456.952 85.8768 457.673 82.8644C457.688 82.7861 457.719 82.7117 457.764 82.6457C457.809 82.5798 457.867 82.5236 457.934 82.4808C458.002 82.4379 458.077 82.4092 458.156 82.3964C458.235 82.3835 458.315 82.3868 458.393 82.406C458.545 82.4472 458.677 82.544 458.762 82.6773C458.847 82.8106 458.879 82.9707 458.851 83.1263C458.723 84.1448 458.225 85.0808 457.453 85.7568C456.68 86.4327 455.687 86.8017 454.66 86.7936Z" fill="white"/>
<path d="M350.361 129.646L332.461 164.572C332.461 164.572 357.084 197.076 393.582 191.531C437.741 184.83 438.025 141.587 438.025 141.587L439.422 105.766C439.422 105.766 422.57 111.659 413.686 121.046C407.465 127.594 373.892 142.918 350.361 129.646Z" fill="#C06A87"/>
<path d="M450.468 112.356C448.184 112.362 445.934 111.795 443.925 110.709C441.916 109.622 440.21 108.05 438.964 106.135C438.922 106.067 438.894 105.991 438.882 105.911C438.87 105.832 438.874 105.751 438.894 105.673C438.915 105.595 438.951 105.523 439.001 105.46C439.05 105.396 439.112 105.344 439.183 105.305C439.322 105.226 439.487 105.204 439.642 105.245C439.797 105.286 439.93 105.386 440.012 105.524C441.397 107.671 443.41 109.338 445.778 110.299C448.145 111.26 450.751 111.468 453.24 110.894C453.319 110.878 453.4 110.878 453.479 110.893C453.558 110.909 453.633 110.94 453.7 110.984C453.767 111.029 453.825 111.086 453.869 111.153C453.914 111.22 453.945 111.295 453.961 111.374C453.98 111.532 453.94 111.692 453.846 111.822C453.753 111.951 453.615 112.041 453.459 112.072C452.473 112.259 451.472 112.354 450.468 112.356Z" fill="#000001"/>
<path d="M484.898 228.768L497.057 208.838L514.127 231.605C514.127 231.605 510.984 248.719 498.847 248.719C494.983 248.719 484.898 228.768 484.898 228.768Z" fill="#315D80"/>
<path d="M501.52 251.493C501.385 251.493 501.254 251.446 501.149 251.362C489.121 242.63 484.232 227.546 484.188 227.35C484.158 227.202 484.184 227.049 484.26 226.919C484.336 226.789 484.457 226.692 484.6 226.646C484.744 226.6 484.899 226.609 485.036 226.67C485.174 226.732 485.283 226.841 485.345 226.979C485.345 227.132 490.169 241.91 501.869 250.336C501.999 250.432 502.086 250.575 502.11 250.734C502.135 250.894 502.095 251.056 502 251.187C501.954 251.276 501.886 251.351 501.801 251.404C501.717 251.458 501.62 251.488 501.52 251.493Z" fill="white"/>
<path d="M475.371 103.473C475.371 103.473 526.298 113.841 542.713 155.862C559.936 199.803 514.707 239.139 514.707 239.139L489.953 214.232L497.029 191.803C507.566 168.379 505.816 174.77 509.035 169.974C491.901 149.549 487.001 131.572 475.371 103.473Z" fill="#C06A87"/>
<path d="M491.481 204.562C491.403 204.585 491.32 204.585 491.241 204.562C491.095 204.499 490.979 204.382 490.918 204.236C490.857 204.089 490.855 203.924 490.914 203.776C491.023 203.536 501.064 180.834 508.049 169.963C508.091 169.896 508.147 169.839 508.211 169.793C508.276 169.748 508.35 169.716 508.427 169.7C508.504 169.684 508.584 169.683 508.662 169.699C508.74 169.714 508.813 169.744 508.879 169.789C509.013 169.874 509.109 170.009 509.146 170.164C509.182 170.319 509.157 170.482 509.075 170.618C502.134 181.402 492.136 204.038 492.027 204.256C491.972 204.352 491.892 204.431 491.796 204.484C491.7 204.538 491.591 204.565 491.481 204.562Z" fill="#000001"/>
<path d="M490.986 140.989C491.095 140.888 491.236 140.83 491.384 140.826C491.532 140.821 491.677 140.871 491.791 140.965C493.813 142.638 503.79 151.15 501.417 154.576C501.278 154.799 501.081 154.981 500.846 155.101C500.612 155.22 500.349 155.273 500.087 155.254C497.132 154.989 491.867 143.905 490.86 141.693C490.804 141.578 490.786 141.447 490.809 141.321C490.832 141.194 490.894 141.078 490.986 140.989ZM500.332 153.998L500.429 153.91C501.508 152.339 497.377 147.599 493.246 143.832C495.882 149.134 498.928 153.947 500.22 154.07L500.332 153.998Z" fill="#000001"/>
<path d="M421.964 147.452L422.23 147.55C422.53 147.722 422.793 147.951 423.003 148.224C423.213 148.498 423.367 148.811 423.455 149.145C424.558 152.953 419.486 161.805 419.273 162.191C419.198 162.3 419.093 162.384 418.971 162.434C418.85 162.484 418.716 162.498 418.586 162.473C418.458 162.435 418.344 162.358 418.262 162.253C418.18 162.147 418.134 162.018 418.129 161.884C418.067 159.789 417.921 149.19 420.523 147.57C420.738 147.441 420.98 147.364 421.23 147.343C421.48 147.323 421.731 147.36 421.964 147.452ZM419.321 159.486C420.888 156.388 422.903 151.641 422.284 149.479C422.249 149.302 422.176 149.135 422.068 148.991C421.96 148.846 421.822 148.727 421.662 148.644C421.334 148.522 421.253 148.492 421.166 148.6C419.917 149.394 419.392 154.833 419.321 159.486Z" fill="#000001"/>
<path d="M417.29 175.618C417.209 175.618 417.129 175.601 417.054 175.569C416.98 175.537 416.913 175.489 416.857 175.43C416.802 175.371 416.759 175.3 416.733 175.224C416.706 175.147 416.695 175.066 416.701 174.985L417.661 161.32C417.644 161.232 417.647 161.14 417.67 161.053C417.692 160.966 417.733 160.885 417.79 160.816C417.848 160.746 417.92 160.69 418.001 160.652C418.083 160.614 418.172 160.594 418.262 160.594C418.352 160.594 418.44 160.614 418.522 160.652C418.603 160.69 418.675 160.746 418.733 160.816C418.79 160.885 418.831 160.966 418.854 161.053C418.876 161.14 418.879 161.232 418.862 161.32L417.901 174.963C417.907 175.047 417.896 175.131 417.868 175.21C417.84 175.289 417.796 175.362 417.739 175.424C417.681 175.485 417.612 175.534 417.535 175.567C417.458 175.601 417.374 175.618 417.29 175.618Z" fill="#000001"/>
<g filter="url(#filter0_i_2095_2541)">
<path d="M0 40C0 17.9086 17.9086 0 40 0H548C570.091 0 588 17.9086 588 40V520H0V40Z" fill="url(#paint0_linear_2095_2541)" fill-opacity="0.14"/>
</g>
<path d="M280.255 134.254C279.436 134.381 278.598 134.262 277.846 133.913C277.094 133.563 276.463 132.999 276.032 132.291C275.601 131.583 275.39 130.763 275.425 129.934C275.46 129.106 275.74 128.307 276.229 127.638C276.719 126.969 277.395 126.46 278.174 126.175C278.953 125.891 279.798 125.844 280.603 126.04C281.409 126.236 282.138 126.666 282.699 127.277C283.26 127.887 283.627 128.65 283.754 129.469C283.925 130.568 283.652 131.689 282.995 132.586C282.339 133.483 281.354 134.083 280.255 134.254ZM279.154 127.157C278.569 127.248 278.025 127.51 277.589 127.91C277.154 128.31 276.847 128.83 276.707 129.405C276.567 129.98 276.601 130.583 276.804 131.138C277.007 131.694 277.37 132.177 277.847 132.526C278.325 132.875 278.895 133.075 279.486 133.1C280.077 133.125 280.662 132.974 281.167 132.667C281.672 132.359 282.075 131.909 282.324 131.372C282.574 130.836 282.658 130.238 282.568 129.653C282.441 128.872 282.011 128.172 281.373 127.705C280.734 127.238 279.937 127.041 279.154 127.157Z" fill="#C06A87"/>
<path d="M276.401 135.119L274.223 135.457L276.228 148.378L278.407 148.04L276.401 135.119Z" fill="#F1D15B"/>
<path d="M278.73 130.38L279.356 134.414C279.405 134.73 279.328 135.054 279.141 135.314C278.955 135.574 278.673 135.751 278.357 135.806L272.555 136.706C272.395 136.734 272.231 136.73 272.073 136.693C271.914 136.657 271.765 136.59 271.633 136.495C271.501 136.4 271.389 136.28 271.304 136.142C271.219 136.003 271.163 135.85 271.138 135.689L270.512 131.655C270.487 131.495 270.494 131.331 270.533 131.174C270.572 131.016 270.642 130.868 270.739 130.737C270.836 130.607 270.958 130.498 271.098 130.415C271.238 130.333 271.393 130.279 271.554 130.257L274.034 129.872C273.847 129.993 273.698 130.164 273.604 130.366C273.511 130.568 273.476 130.793 273.505 131.014C273.555 131.301 273.716 131.557 273.953 131.727C274.19 131.897 274.484 131.967 274.772 131.922C275.058 131.878 275.315 131.721 275.486 131.488C275.657 131.254 275.728 130.962 275.683 130.676C275.646 130.462 275.551 130.261 275.409 130.097C275.267 129.932 275.082 129.809 274.876 129.741L277.356 129.356C277.674 129.313 277.996 129.395 278.253 129.587C278.51 129.778 278.681 130.063 278.73 130.38Z" fill="#F1D15B"/>
<path d="M269.969 106.779C269.969 106.779 283.544 116.535 284.13 120.31C284.716 124.084 277.227 121.381 277.227 121.381L269.969 106.779Z" fill="#315D80"/>
<path d="M235.6 117.528C235.6 117.528 252.687 106.217 257.028 103.157C261.369 100.098 275.604 108.978 278.859 115.718C282.114 122.459 280.919 126.002 277.893 126.714C274.866 127.427 273.264 120.519 271.493 118.076C270.231 116.35 263.285 116.567 262.542 119.466C260.416 127.549 275.74 120.532 275.308 127.138C275.062 130.821 258.57 142.128 243.816 137.725C229.061 133.322 235.6 117.528 235.6 117.528Z" fill="#315D80"/>
<path d="M83.6811 435.269C83.6811 435.269 158.903 417.674 167.635 360.92C178.418 291.067 159.318 256.84 159.318 256.84L110.247 315.407L95.5123 386.197L75.9537 400.211L65.1484 423.11L83.6811 435.269Z" fill="#2B5577"/>
<path d="M87.217 441.992C87.217 441.992 74.1197 481.065 65.1044 493.224C56.0891 505.383 49.2131 506.802 45.6113 505.972C42.0095 505.143 36.0721 428.414 36.0721 428.414C36.0721 428.414 56.9186 425.009 54.5829 417.063C52.2473 409.118 33.9984 415.841 33.9984 415.841L31.3789 392.746C31.3789 392.746 52.0944 389.122 60.4767 389.799C68.3492 390.707 76.1624 392.07 83.8772 393.881L87.217 441.992Z" fill="#000001"/>
<path d="M92.3525 433.368C92.3525 433.368 78.3385 467.312 75.7627 461.745C73.1869 456.179 68.8647 423.501 71.1786 413.482C73.4924 403.462 83.883 393.836 83.883 393.836L95.4304 414.682L92.3525 433.368Z" fill="#2B5577"/>
<path d="M134.455 50.9509C134.455 50.9509 115.245 36.0636 98.8518 46.1922C82.4584 56.3208 88.7669 77.5602 88.7669 77.5602C88.7669 77.5602 68.4224 83.1265 65.4756 108.994C62.5287 134.861 87.1297 139.75 87.1297 139.75L122.471 118.817L134.455 50.9509Z" fill="black"/>
<path d="M135.412 315.344C135.412 315.344 131.046 451.425 125.327 465.81C119.608 480.195 88.0436 465.81 88.0436 465.81L80.5781 318.356L135.412 315.344Z" fill="#315D80"/>
<path d="M168.441 229.206C171.295 245.718 172.792 262.437 172.915 279.194C172.915 305.389 175.535 334.006 172.915 336.538C170.296 339.07 144.145 347.649 112.537 345.75C80.9289 343.851 71.477 335.25 72.0009 332.216C72.7495 329.933 74.2304 327.962 76.2138 326.606C76.2138 326.606 74.0309 251.1 82.5224 230.887C91.0138 210.673 126.879 206.242 126.879 206.242L163.856 203.273L168.441 229.206Z" fill="#C06A87"/>
<path d="M113.363 217.307C113.363 217.307 150.887 219.49 165.949 212.265L165.054 167.166C165.054 167.166 156.89 109.407 145.146 108.228C136.47 107.604 127.752 107.934 119.148 109.211L81.668 162.495L113.363 217.307Z" fill="black"/>
<path d="M149.992 81.012C151.758 78.7287 153.018 76.0957 153.688 73.2881C154.358 70.4804 154.423 67.5624 153.878 64.7278C152.656 58.07 149.643 55.9962 149.643 55.9962C149.643 55.9962 154.009 46.8063 140.562 47.5485C132.867 47.8148 125.436 50.4188 119.258 55.0139C118.397 54.608 117.457 54.4012 116.506 54.4087C115.555 54.4162 114.618 54.638 113.764 55.0574C112.91 55.4769 112.162 56.0833 111.575 56.8315C110.988 57.5798 110.577 58.4508 110.373 59.3797C107.71 66.6268 110.635 77.192 110.635 77.192L149.992 81.012Z" fill="black"/>
<path d="M120.555 92.5371L121.188 108.996C121.188 108.996 124.353 113.624 134.001 114.017C141.205 114.322 143.322 110.546 143.322 110.546L141.03 96.2262L123.567 93.0828L120.555 92.5371Z" fill="#315D80"/>
<path d="M120.527 91.5312C120.63 92.0793 120.814 92.6089 121.073 93.1029C125.068 101.18 138.165 104.017 142.334 104.301L141.025 96.2244L120.527 91.5312Z" fill="black"/>
<path d="M143.228 58.5471C143.228 58.5471 152.68 78.8479 149.776 90.4608C146.873 102.074 136.286 100.48 129.956 98.4064C126.369 97.3278 123.141 95.2988 120.613 92.5345C118.839 93.1228 116.924 93.1264 115.147 92.5449C113.371 91.9633 111.829 90.8274 110.746 89.3039C106.686 83.934 108.957 77.6254 112.274 76.0974C113.491 75.7194 114.773 75.5979 116.04 75.7407C117.306 75.8834 118.529 76.2874 119.631 76.9269L116.356 71.0332C116.356 71.0332 128.712 40.4292 143.228 58.5471Z" fill="#315D80"/>
<path d="M119.612 76.9294C119.612 76.9294 128.453 78.5665 134.434 68.6781C140.415 58.7896 139.804 54.7513 139.804 54.7513L146.069 64.7925C146.069 64.7925 147.335 57.7418 144.454 53.3106C141.572 48.8793 138.669 49.8398 138.669 49.8398L119.307 54.9696L114.352 70.599L119.612 76.9294Z" fill="black"/>
<path d="M144.151 84.2858H143.976C143.824 84.2401 143.696 84.1372 143.619 83.9987C143.541 83.8601 143.521 83.6969 143.562 83.5436C143.795 82.1686 143.756 80.7609 143.445 79.4013C143.134 78.0416 142.558 76.7566 141.75 75.6197C141.7 75.5581 141.664 75.4868 141.644 75.4104C141.624 75.3339 141.62 75.2542 141.632 75.1761C141.644 75.098 141.673 75.0233 141.716 74.9568C141.759 74.8904 141.815 74.8337 141.881 74.7903C141.944 74.7403 142.017 74.704 142.096 74.6834C142.174 74.6629 142.255 74.6586 142.335 74.6709C142.415 74.6832 142.491 74.7117 142.56 74.7548C142.628 74.7978 142.687 74.8545 142.732 74.9213C143.658 76.1979 144.314 77.6501 144.659 79.189C145.005 80.7279 145.032 82.3211 144.74 83.871C144.696 83.9919 144.616 84.0963 144.511 84.1705C144.405 84.2446 144.28 84.2848 144.151 84.2858Z" fill="black"/>
<path d="M118.847 86.5115C118.765 86.5111 118.683 86.4935 118.608 86.4596C118.533 86.4258 118.465 86.3765 118.41 86.3151L112.735 80.5086C112.635 80.3906 112.583 80.2389 112.591 80.0843C112.598 79.9297 112.664 79.7836 112.774 79.6756C112.885 79.5675 113.033 79.5055 113.188 79.5021C113.342 79.4987 113.493 79.5542 113.608 79.6572L119.284 85.4856C119.394 85.5996 119.456 85.7523 119.456 85.9112C119.456 86.0702 119.394 86.2228 119.284 86.3369C119.227 86.3944 119.159 86.4396 119.083 86.4696C119.008 86.4997 118.928 86.5139 118.847 86.5115Z" fill="black"/>
<path d="M112.905 85.027C112.764 85.0242 112.628 84.9728 112.521 84.8813C112.413 84.7897 112.341 84.6639 112.316 84.525C112.3 84.4459 112.301 84.3644 112.318 84.2856C112.335 84.2069 112.368 84.1324 112.415 84.0669C112.463 84.0015 112.523 83.9463 112.592 83.9049C112.661 83.8636 112.738 83.8369 112.818 83.8265L116.66 83.1716C116.819 83.1464 116.982 83.1849 117.112 83.2789C117.243 83.373 117.332 83.5148 117.358 83.6736C117.378 83.8319 117.337 83.9918 117.244 84.1213C117.151 84.2508 117.013 84.3404 116.856 84.3722L113.014 85.0052L112.905 85.027Z" fill="black"/>
<path d="M143.314 68.0005C143.161 68.0006 143.015 67.9415 142.905 67.8357C142.795 67.7298 142.73 67.5854 142.724 67.4329C142.712 67.2742 142.762 67.1169 142.864 66.9946C142.966 66.8723 143.112 66.7946 143.27 66.7781L146.545 66.5161C146.705 66.5097 146.863 66.5648 146.984 66.6703C147.106 66.7757 147.183 66.9236 147.199 67.0837C147.212 67.2424 147.161 67.3997 147.06 67.522C146.958 67.6443 146.812 67.7219 146.654 67.7385L143.379 68.0005H143.314Z" fill="black"/>
<path d="M131.485 70.337C131.353 70.3344 131.226 70.291 131.12 70.2127C131.015 70.1345 130.936 70.0253 130.895 69.9004C130.872 69.823 130.866 69.7417 130.875 69.6616C130.885 69.5814 130.912 69.5041 130.952 69.4345C130.993 69.3649 131.048 69.3045 131.113 69.257C131.179 69.2095 131.253 69.1758 131.332 69.1582L137.269 67.5865C137.42 67.5613 137.575 67.5934 137.703 67.6766C137.831 67.7598 137.924 67.888 137.962 68.0359C138 68.1839 137.982 68.3409 137.91 68.4759C137.839 68.6109 137.719 68.7142 137.575 68.7653L131.637 70.3151L131.485 70.337Z" fill="black"/>
<path d="M146.724 76.161C146.592 76.1584 146.465 76.115 146.359 76.0367C146.254 75.9585 146.175 75.8494 146.134 75.7244L144.956 72.0572C144.908 71.9703 144.883 71.8726 144.883 71.7734C144.883 71.6742 144.908 71.5766 144.956 71.4896L146.069 70.0708C146.177 69.9708 146.317 69.9132 146.465 69.9085C146.612 69.9038 146.756 69.9525 146.87 70.0454C146.984 70.1383 147.061 70.2694 147.086 70.4144C147.111 70.5594 147.083 70.7086 147.008 70.8347L146.091 71.9917L147.182 75.3533C147.209 75.4292 147.22 75.5098 147.215 75.5901C147.21 75.6704 147.188 75.7488 147.151 75.8204C147.114 75.892 147.063 75.9552 147.001 76.0063C146.939 76.0574 146.867 76.0952 146.789 76.1173L146.724 76.161Z" fill="black"/>
<path d="M136.377 77.3013C136.248 77.3003 136.123 77.2601 136.018 77.186C135.912 77.1119 135.832 77.0074 135.788 76.8866L134.609 73.1975C134.563 73.1061 134.539 73.0051 134.539 72.9028C134.539 72.8004 134.563 72.6995 134.609 72.6081L136.159 70.7527C136.273 70.642 136.426 70.5801 136.585 70.5801C136.744 70.5801 136.896 70.642 137.01 70.7527C137.068 70.8077 137.113 70.8738 137.145 70.9469C137.176 71.0201 137.192 71.0988 137.192 71.1784C137.192 71.2579 137.176 71.3366 137.145 71.4097C137.113 71.4829 137.068 71.549 137.01 71.604L135.679 73.1975L136.77 76.5809C136.818 76.7344 136.804 76.9006 136.731 77.0437C136.657 77.1867 136.53 77.2949 136.377 77.345V77.3013Z" fill="black"/>
<path d="M253.972 141.647C244.745 157.526 229.709 169.198 212.038 174.199C182.725 182.173 161.754 168.749 161.754 168.749L138.34 108.123C138.34 108.123 170.842 118.277 197.226 123.879C212.693 127.178 234.869 111.653 234.869 111.653L253.972 141.647Z" fill="black"/>
<path d="M198.308 141.252L197.661 141.352C197.154 141.363 196.652 141.245 196.202 141.01C195.753 140.774 195.37 140.429 195.089 140.006C192.37 136.01 196.565 124.182 196.732 123.692C196.771 123.575 196.845 123.472 196.944 123.397C197.043 123.323 197.162 123.28 197.286 123.275C197.412 123.274 197.536 123.311 197.642 123.381C197.747 123.451 197.829 123.551 197.877 123.669C198.386 124.959 202.798 136.446 200.194 140.164C199.971 140.465 199.689 140.717 199.364 140.904C199.04 141.091 198.681 141.21 198.308 141.252ZM197.324 125.654C196.091 129.667 194.389 136.779 196.077 139.257C196.255 139.519 196.495 139.732 196.776 139.877C197.057 140.023 197.37 140.096 197.686 140.089C197.976 140.118 198.269 140.068 198.533 139.945C198.798 139.823 199.025 139.632 199.191 139.392C200.731 137.076 198.731 129.744 197.237 125.668L197.324 125.654Z" fill="white"/>
<path d="M164.843 174.657H164.69C164.534 174.616 164.401 174.515 164.319 174.376C164.238 174.237 164.214 174.071 164.254 173.915C167.475 160.679 166.168 146.746 160.543 134.339C160.505 134.271 160.481 134.195 160.472 134.117C160.464 134.039 160.471 133.96 160.493 133.885C160.516 133.81 160.553 133.74 160.602 133.679C160.652 133.618 160.714 133.568 160.783 133.532C160.855 133.494 160.933 133.471 161.014 133.463C161.094 133.456 161.175 133.465 161.253 133.489C161.33 133.514 161.401 133.553 161.463 133.605C161.525 133.658 161.576 133.722 161.613 133.794C167.392 146.457 168.746 160.695 165.454 174.22C165.419 174.353 165.339 174.469 165.227 174.549C165.116 174.628 164.98 174.667 164.843 174.657Z" fill="white"/>
<path d="M128.491 243.896C128.491 243.896 113.757 241.823 116.66 247.171C119.563 252.519 133.796 252.562 136.306 249.616C138.816 246.669 132.202 237.588 132.202 237.588L128.491 243.896Z" fill="#315D80"/>
<path d="M89.9371 323.17L173.431 323.549C177.747 323.568 181.262 320.085 181.282 315.769L181.523 262.464C181.543 258.148 178.06 254.633 173.744 254.614L90.2499 254.235C85.934 254.215 82.4194 257.698 82.3998 262.014L82.158 315.32C82.1384 319.635 85.6212 323.15 89.9371 323.17Z" fill="black"/>
<path d="M95.7652 323.187L179.26 323.566C183.575 323.586 187.09 320.103 187.11 315.787L187.352 262.482C187.371 258.166 183.888 254.651 179.572 254.632L96.0781 254.253C91.7622 254.233 88.2476 257.716 88.228 262.032L87.9861 315.337C87.9665 319.653 91.4494 323.168 95.7652 323.187Z" fill="#315D80"/>
<path d="M95.0314 263.98C95.0314 248.7 113.717 236.345 136.506 236.454C159.295 236.563 177.828 249.071 177.763 264.373C177.697 279.675 159.077 292.008 136.288 291.899C113.499 291.79 94.9659 279.26 95.0314 263.98ZM100.532 263.98C100.532 276.248 116.511 286.289 136.31 286.376C156.108 286.464 172.24 276.575 172.284 264.307C172.327 252.04 156.305 242.02 136.506 241.933C116.707 241.846 100.576 251.778 100.532 264.002V263.98Z" fill="#315D80"/>
<path d="M180.007 289.388L89.0465 289.083C88.9581 289.1 88.867 289.097 88.7798 289.074C88.6926 289.052 88.6115 289.011 88.5421 288.953C88.4727 288.896 88.4169 288.824 88.3785 288.743C88.3402 288.661 88.3203 288.572 88.3203 288.482C88.3203 288.392 88.3402 288.303 88.3785 288.222C88.4169 288.141 88.4727 288.069 88.5421 288.011C88.6115 287.954 88.6926 287.913 88.7798 287.89C88.867 287.868 88.9581 287.865 89.0465 287.882L180.094 288.166C180.175 288.166 180.254 288.182 180.328 288.212C180.402 288.243 180.47 288.288 180.527 288.345C180.583 288.402 180.628 288.469 180.659 288.543C180.69 288.617 180.706 288.697 180.706 288.777C180.706 288.857 180.69 288.937 180.659 289.011C180.628 289.085 180.583 289.152 180.527 289.209C180.47 289.266 180.402 289.311 180.328 289.342C180.254 289.372 180.175 289.388 180.094 289.388H180.007Z" fill="white"/>
<path d="M170.098 299.801H165.449C165.292 299.801 165.143 299.739 165.032 299.628C164.921 299.518 164.859 299.368 164.859 299.212V288.887C164.859 288.728 164.921 288.576 165.031 288.462C165.141 288.348 165.29 288.281 165.449 288.275H170.076C170.237 288.281 170.389 288.347 170.503 288.46C170.616 288.574 170.682 288.726 170.688 288.887V299.255C170.672 299.402 170.604 299.538 170.495 299.639C170.387 299.739 170.246 299.797 170.098 299.801ZM166.082 298.601H169.487V289.454H166.082V298.601Z" fill="white"/>
<path d="M107.34 299.801H102.713C102.554 299.801 102.402 299.74 102.288 299.63C102.174 299.52 102.107 299.37 102.102 299.212V288.887C102.107 288.726 102.173 288.574 102.287 288.46C102.4 288.347 102.552 288.281 102.713 288.275H107.34C107.499 288.281 107.649 288.348 107.759 288.462C107.869 288.576 107.93 288.728 107.93 288.887V299.255C107.919 299.404 107.852 299.543 107.743 299.644C107.633 299.745 107.49 299.801 107.34 299.801ZM103.324 298.601H106.729V289.454H103.324V298.601Z" fill="white"/>
<path d="M136.16 461.531C136.16 461.531 172.92 480.129 183.681 490.738C194.443 501.346 194.858 508.419 193.526 511.868C192.194 515.317 115.401 510.231 115.401 510.231C115.401 510.231 115.008 489.101 106.8 490.279C98.5925 491.458 102.653 510.471 102.653 510.471L79.405 509.751C79.405 509.751 78.7938 488.751 80.6492 480.544C82.6727 472.882 85.1436 465.345 88.0492 457.973L136.16 461.531Z" fill="#000001"/>
<path d="M128.347 455.224C128.347 455.224 159.933 473.953 154.061 475.699C148.189 477.445 115.228 477.052 105.645 473.342C96.062 469.631 88.0508 458.061 88.0508 458.061L110.338 449.592L128.347 455.224Z" fill="#315D80"/>
<path d="M125.441 207.508C125.441 207.508 147.663 213.904 155.172 234.226C157.813 241.408 139.215 248.852 134.893 250.794C130.571 252.737 111.973 229.402 111.973 229.402L113.064 214.668L125.441 207.508Z" fill="#315D80"/>
<path d="M127.735 247.65C127.649 247.65 127.565 247.633 127.486 247.599C127.407 247.565 127.336 247.516 127.277 247.454L124.155 244.179C124.08 244.099 124.029 243.999 124.006 243.892C123.983 243.784 123.989 243.672 124.024 243.568C124.059 243.465 124.119 243.373 124.199 243.301C124.28 243.228 124.377 243.177 124.483 243.153L128.608 242.367C128.686 242.353 128.765 242.354 128.842 242.371C128.919 242.387 128.992 242.418 129.057 242.463C129.122 242.507 129.177 242.564 129.22 242.63C129.263 242.696 129.293 242.77 129.307 242.848C129.321 242.925 129.32 243.005 129.304 243.082C129.287 243.159 129.256 243.231 129.211 243.296C129.167 243.361 129.11 243.417 129.044 243.46C128.978 243.502 128.904 243.532 128.827 243.546L125.792 244.136L128.172 246.624C128.282 246.738 128.344 246.891 128.344 247.05C128.344 247.209 128.282 247.361 128.172 247.475C128.052 247.584 127.897 247.646 127.735 247.65Z" fill="black"/>
<path d="M150.636 243.041C150.521 243.046 150.406 243.015 150.309 242.952C150.211 242.89 150.135 242.799 150.091 242.692C150.091 242.692 146.336 234.594 145.07 232.738C145.026 232.673 144.995 232.599 144.98 232.521C144.965 232.444 144.965 232.364 144.981 232.286C144.998 232.209 145.029 232.136 145.075 232.071C145.12 232.006 145.178 231.951 145.245 231.909C145.308 231.86 145.38 231.826 145.458 231.807C145.535 231.788 145.615 231.786 145.693 231.8C145.772 231.815 145.846 231.845 145.912 231.89C145.977 231.935 146.033 231.994 146.074 232.061C147.384 233.982 151.029 241.841 151.182 242.168C151.219 242.239 151.24 242.317 151.246 242.397C151.251 242.477 151.241 242.558 151.214 242.633C151.187 242.709 151.146 242.778 151.091 242.837C151.037 242.896 150.971 242.943 150.898 242.976L150.636 243.041Z" fill="black"/>
<path d="M142.004 247.061C141.894 247.066 141.785 247.037 141.692 246.979C141.598 246.921 141.524 246.835 141.48 246.734L136.351 236.627C136.283 236.482 136.274 236.316 136.328 236.165C136.381 236.014 136.491 235.89 136.634 235.82C136.704 235.782 136.781 235.759 136.86 235.752C136.939 235.745 137.019 235.754 137.094 235.779C137.169 235.803 137.239 235.843 137.299 235.895C137.359 235.947 137.407 236.01 137.442 236.082L142.55 246.188C142.587 246.258 142.61 246.335 142.617 246.414C142.624 246.493 142.615 246.572 142.591 246.648C142.566 246.723 142.527 246.793 142.475 246.853C142.423 246.913 142.359 246.961 142.288 246.996C142.2 247.04 142.103 247.063 142.004 247.061Z" fill="black"/>
<path d="M119.154 109.168C119.154 109.168 49.3016 117.157 50.3276 190.065C50.9388 234.749 111.165 248.13 111.165 248.13L129.763 202.093L98.7002 184.324L119.154 109.168Z" fill="black"/>
<path d="M121.099 197.73C120.977 197.761 120.85 197.761 120.728 197.73C120.532 197.577 101.3 182.952 93.9659 180.267C93.8905 180.242 93.8208 180.203 93.761 180.151C93.7012 180.099 93.6525 180.035 93.6178 179.964C93.5832 179.893 93.5633 179.815 93.5593 179.736C93.5554 179.657 93.5675 179.577 93.5948 179.503C93.6492 179.354 93.7593 179.232 93.9018 179.163C94.0444 179.094 94.2082 179.083 94.3588 179.132C101.89 181.795 120.553 196.071 121.47 196.595C121.597 196.694 121.679 196.839 121.699 196.998C121.72 197.157 121.677 197.318 121.579 197.446C121.528 197.528 121.457 197.597 121.374 197.646C121.29 197.695 121.196 197.724 121.099 197.73Z" fill="white"/>
<path d="M103.743 185.197C103.582 185.191 103.428 185.129 103.307 185.022C103.023 184.717 96.016 177.469 96.7581 173.322C96.8679 172.842 97.0891 172.394 97.4038 172.014C97.7185 171.635 98.118 171.335 98.5699 171.139C98.9799 170.897 99.4473 170.77 99.9233 170.77C100.399 170.77 100.867 170.897 101.277 171.139C104.529 173.322 104.398 183.494 104.376 184.651C104.376 184.769 104.341 184.883 104.274 184.981C104.208 185.078 104.115 185.153 104.005 185.197H103.743ZM99.967 171.903C99.6681 171.914 99.3763 171.996 99.1157 172.143C98.8223 172.259 98.5637 172.448 98.3649 172.693C98.1661 172.938 98.0337 173.229 97.9806 173.54C97.544 176.029 100.971 180.547 103.198 183.036C103.198 179.456 102.608 173.387 100.644 172.121C100.447 171.978 100.21 171.901 99.967 171.903Z" fill="white"/>
<path d="M142.513 105.524C142.95 105.565 143.375 105.692 143.763 105.897C144.151 106.103 144.495 106.383 144.775 106.721C145.055 107.06 145.265 107.451 145.394 107.871C145.523 108.291 145.567 108.732 145.525 109.169C145.525 110.261 145.023 117.333 135.593 118.774C124.678 120.455 117.999 111.636 117.497 109.409C116.995 107.183 121.426 101.18 120.924 101.944L121.426 104.301C121.426 104.301 136.924 115.041 142.513 105.524Z" fill="#F1D15B"/>
<path d="M136.855 115.017C140.818 117.467 143.728 121.302 145.019 125.778C146.682 132.472 147.899 139.268 148.665 146.123C143.948 143.367 139.864 139.648 136.681 135.208C132.555 128.66 133.974 114.82 133.974 114.82L136.855 115.017Z" fill="#F1D15B"/>
<path d="M131.704 115.017C127.742 117.467 124.832 121.302 123.54 125.778C121.889 132.474 120.671 139.27 119.895 146.123C124.616 143.364 128.706 139.646 131.9 135.208C136.004 128.66 134.585 114.82 134.585 114.82L131.704 115.017Z" fill="#F1D15B"/>
<path d="M134.169 119.231C132.143 119.195 130.135 118.857 128.209 118.227C128.056 118.176 127.927 118.069 127.85 117.927C127.773 117.785 127.753 117.619 127.795 117.463C127.845 117.309 127.952 117.181 128.094 117.103C128.236 117.026 128.402 117.006 128.559 117.048C135.107 119.231 138.294 117.157 138.316 117.048C138.454 116.963 138.618 116.934 138.776 116.966C138.935 116.999 139.075 117.09 139.167 117.223C139.251 117.357 139.28 117.518 139.247 117.673C139.215 117.827 139.124 117.963 138.993 118.052C137.53 118.898 135.856 119.307 134.169 119.231Z" fill="white"/>
<path d="M128.692 129.533H128.342C128.009 129.518 127.688 129.407 127.417 129.214C127.146 129.02 126.936 128.752 126.814 128.442C125.788 125.866 130.765 119.536 131.769 118.27C131.851 118.175 131.959 118.107 132.08 118.076C132.201 118.045 132.329 118.051 132.446 118.095C132.564 118.131 132.667 118.204 132.741 118.301C132.815 118.399 132.857 118.518 132.861 118.641C132.861 119.47 132.861 126.652 130.46 128.878C129.977 129.316 129.343 129.551 128.692 129.533ZM131.573 120.452C129.499 123.247 127.425 126.783 127.884 127.962C127.884 127.962 127.993 128.245 128.473 128.311C128.677 128.344 128.885 128.33 129.082 128.27C129.279 128.209 129.459 128.104 129.608 127.962C130.984 126.696 131.442 122.985 131.573 120.431V120.452Z" fill="white"/>
<path d="M142.317 91.1365H142.207C141.349 90.9932 140.534 90.655 139.827 90.148C139.119 89.6409 138.537 88.9785 138.125 88.2114C138.072 88.1226 138.043 88.0207 138.043 87.9167C138.043 87.8128 138.072 87.7108 138.125 87.622C138.177 87.5284 138.253 87.4505 138.345 87.3967C138.437 87.3428 138.543 87.3151 138.649 87.3165H144.936C145.027 87.3162 145.117 87.3355 145.2 87.3732C145.283 87.4109 145.357 87.466 145.416 87.5348C145.524 87.6867 145.571 87.8737 145.547 88.0586C145.329 89.1282 144.347 91.1365 142.317 91.1365ZM139.85 88.5389C140.438 89.2996 141.299 89.8009 142.251 89.9359C142.661 89.9012 143.052 89.7518 143.38 89.5047C143.708 89.2575 143.96 88.9227 144.107 88.5389H139.85Z" fill="white"/>
<path d="M274.54 130.369C273.687 130.501 272.813 130.378 272.03 130.014C271.247 129.65 270.59 129.062 270.141 128.324C269.692 127.587 269.472 126.732 269.509 125.87C269.545 125.007 269.837 124.175 270.346 123.478C270.856 122.781 271.561 122.25 272.372 121.954C273.183 121.658 274.064 121.609 274.903 121.813C275.742 122.017 276.501 122.465 277.085 123.101C277.67 123.737 278.052 124.532 278.184 125.385C278.362 126.529 278.078 127.697 277.394 128.632C276.711 129.566 275.684 130.191 274.54 130.369ZM273.375 122.862C272.746 122.955 272.159 123.233 271.689 123.66C271.218 124.088 270.885 124.645 270.732 125.262C270.578 125.879 270.611 126.527 270.827 127.125C271.042 127.723 271.431 128.243 271.942 128.62C272.454 128.997 273.066 129.213 273.701 129.242C274.336 129.271 274.965 129.11 275.509 128.78C276.052 128.451 276.486 127.968 276.754 127.391C277.023 126.815 277.114 126.172 277.016 125.544C276.887 124.709 276.431 123.96 275.748 123.461C275.066 122.962 274.213 122.754 273.378 122.884L273.375 122.862Z" fill="black"/>
<path d="M266.486 123.802C266.486 123.802 275.738 122.499 275.245 127.148C274.752 131.797 264.721 134.635 264.721 134.635L266.486 123.802Z" fill="#315D80"/>
<path d="M280.7 121.747C280.566 121.771 280.428 121.748 280.309 121.682C280.19 121.616 280.097 121.511 280.047 121.384L277.386 114.485C277.355 114.343 277.375 114.194 277.444 114.066C277.513 113.937 277.625 113.838 277.76 113.785C277.896 113.732 278.046 113.729 278.184 113.777C278.321 113.824 278.437 113.92 278.511 114.046L281.172 120.944C281.228 121.094 281.224 121.259 281.16 121.405C281.096 121.551 280.977 121.667 280.829 121.727L280.7 121.747Z" fill="black"/>
<path d="M276.23 148.398L277.517 149.568L278.388 148.064L276.23 148.398Z" fill="#F1D15B"/>
<path d="M278.38 148.062L280.607 144.756L278.837 144.17L279.907 143.098L278.622 142.789L279.501 141.902L276.66 141.105L278.38 148.062Z" fill="#F1D15B"/>
<path d="M274.883 129.745L274.042 129.876C274.174 129.83 274.312 129.809 274.452 129.812C274.591 129.766 274.737 129.743 274.883 129.745Z" fill="#5C69A5"/>
<path d="M286.523 145.01C286.373 145.034 286.219 145.009 286.084 144.939C285.95 144.868 285.842 144.755 285.777 144.617L280.52 133.659C280.438 133.487 280.428 133.29 280.491 133.111C280.554 132.931 280.686 132.784 280.857 132.701C280.942 132.658 281.035 132.632 281.129 132.625C281.224 132.619 281.319 132.632 281.409 132.663C281.499 132.695 281.581 132.745 281.651 132.809C281.721 132.874 281.777 132.952 281.815 133.039L287.073 143.997C287.149 144.169 287.156 144.364 287.094 144.542C287.031 144.72 286.903 144.868 286.735 144.955L286.523 145.01Z" fill="#C06A87"/>
<path d="M285.105 141.987C284.953 142.01 284.797 141.985 284.66 141.915C284.522 141.845 284.41 141.735 284.338 141.598C284.256 141.429 284.243 141.235 284.302 141.057C284.361 140.878 284.487 140.73 284.654 140.643L287.253 139.312C287.424 139.227 287.622 139.214 287.804 139.274C287.985 139.335 288.135 139.466 288.22 139.637C288.305 139.808 288.319 140.007 288.258 140.188C288.197 140.369 288.066 140.519 287.895 140.604L285.314 141.911L285.105 141.987Z" fill="#C06A87"/>
<defs>
<filter id="filter0_i_2095_2541" x="0" y="0" width="592" height="525" filterUnits="userSpaceOnUse" color-interpolation-filters="sRGB">
<feFlood flood-opacity="0" result="BackgroundImageFix"/>
<feBlend mode="normal" in="SourceGraphic" in2="BackgroundImageFix" result="shape"/>
<feColorMatrix in="SourceAlpha" type="matrix" values="0 0 0 0 0 0 0 0 0 0 0 0 0 0 0 0 0 0 127 0" result="hardAlpha"/>
<feOffset dx="4" dy="5"/>
<feGaussianBlur stdDeviation="2.5"/>
<feComposite in2="hardAlpha" operator="arithmetic" k2="-1" k3="1"/>
<feColorMatrix type="matrix" values="0 0 0 0 0.816667 0 0 0 0 0.885259 0 0 0 0 1 0 0 0 0.1 0"/>
<feBlend mode="normal" in2="shape" result="effect1_innerShadow_2095_2541"/>
</filter>
<linearGradient id="paint0_linear_2095_2541" x1="385.099" y1="-308.475" x2="385.099" y2="570.422" gradientUnits="userSpaceOnUse">
<stop offset="0.224084" stop-color="#AACAFF"/>
<stop offset="0.699839" stop-color="#94A5C2"/>
<stop offset="0.990578" stop-color="#94A5C2" stop-opacity="0.25"/>
</linearGradient>
</defs>
</svg>
