<svg width="1920" height="1016" viewBox="0 0 1920 1016" fill="none" xmlns="http://www.w3.org/2000/svg">
<path d="M-300 100C-300 44.7717 -255.228 0.000125024 -200 0.000125024H98.0758C117.577 0.000125024 136.575 6.18585 152.337 17.6674C168.1 29.1489 187.098 35.3347 206.599 35.3347H993.5H1620.9C1639.51 35.3347 1657.76 30.1392 1673.58 20.333L1682.18 15.0016C1698.01 5.19547 1716.25 2.12362e-06 1734.86 6.13185e-06L2187 0.000103491C2242.23 0.000115383 2287 44.7716 2287 100V916C2287 971.228 2242.23 1016 2187 1016H1735.46C1716.47 1016 1697.88 1010.6 1681.85 1000.42L1673.92 995.38C1657.89 985.202 1639.29 979.798 1620.31 979.798H206.857C187.208 979.798 168.085 986.147 152.337 997.899C136.59 1009.65 117.467 1016 97.8182 1016H-200C-255.229 1016 -300 971.228 -300 916V100Z" fill="url(#paint0_linear_1170_8822)"/>
<defs>
<linearGradient id="paint0_linear_1170_8822" x1="1683" y1="1375.49" x2="323" y2="-477.012" gradientUnits="userSpaceOnUse">
<stop offset="0.0467201" stop-color="#6E8293"/>
<stop offset="0.63" stop-color="#7E8496"/>
<stop offset="0.949574" stop-color="#907F8A"/>
</linearGradient>
</defs>
</svg>
