<svg width="590" height="504" viewBox="0 0 590 504" fill="none" xmlns="http://www.w3.org/2000/svg">
<path d="M314.85 3.32008e-05C256.328 -0.0268397 198.959 16.2601 149.186 47.0311C99.4127 77.8022 59.2076 121.838 33.0873 174.193C6.96687 226.547 -4.03413 285.146 1.32007 343.406C6.67428 401.667 28.1716 457.28 63.397 504H80.8488C32.8175 444.772 9.11447 369.499 14.5462 293.445C19.9779 217.391 54.1377 146.249 110.099 94.4437C110.353 94.5895 110.576 94.7844 110.754 95.0171C111.738 96.3277 110.017 96.9011 109.443 97.8021C108.616 99.0831 107.713 100.314 106.74 101.488C91.6879 119.827 78.4871 139.61 67.3298 160.546C63.1458 168.593 59.7965 177.046 57.334 185.775C56.5804 187.494 56.4404 189.42 56.9375 191.23C57.4345 193.041 58.5384 194.625 60.0644 195.719C61.5904 196.813 63.4458 197.349 65.3203 197.239C67.1947 197.129 68.9743 196.378 70.3613 195.113C72.3019 193.787 74.0882 192.248 75.687 190.526C83.7262 182.197 91.1214 173.27 97.8089 163.823C111.819 144.492 125.502 124.915 140.906 106.485C148.11 96.9361 157.928 89.6807 169.173 85.5973C169.992 85.5973 170.975 84.5325 172.204 85.5973C168.599 87.5632 167.698 91.2492 165.977 94.2799C160.019 103.84 155.206 114.067 151.639 124.751C146.714 143.731 147.831 163.773 154.834 182.089C161.631 199.817 170.515 216.673 181.299 232.3L183.675 236.15C172.933 233.98 163.039 228.778 155.162 221.16C154.425 220.423 153.933 218.621 152.212 219.768C151.61 220.108 151.138 220.639 150.871 221.276C150.604 221.914 150.557 222.623 150.738 223.29C152.065 232.457 154.148 241.498 156.965 250.321C163.028 269.816 171.549 288.246 178.759 307.659C179.811 309.537 180.374 311.649 180.397 313.802C169.821 304.918 160.626 294.511 153.114 282.922C144.624 269.316 137.253 255.044 131.074 240.246C130.664 239.263 130.582 237.788 128.78 238.034C128.082 238.116 127.423 238.4 126.884 238.851C126.346 239.302 125.951 239.901 125.748 240.573C125.422 241.585 125.422 242.674 125.748 243.686C128.042 253.843 130.091 264.082 132.549 274.239C138.775 300.205 148.935 323.877 172.204 339.768C173.387 340.571 174.301 341.712 174.827 343.041C175.353 344.37 175.467 345.827 175.154 347.222C173.612 357.47 173.337 367.869 174.334 378.184C176.222 395.559 180.984 412.5 188.427 428.314C200.293 455.002 214.93 480.369 232.097 504H315.915C310.507 493.843 304.444 483.932 298.217 474.184C281.831 448.792 265.444 423.809 250.778 397.597C230.618 363.004 215.655 325.635 206.37 286.689C204.897 281.662 205.069 276.295 206.862 271.372C218.496 294.799 228.574 318.553 246.599 337.556C264.745 355.778 286.18 370.398 309.77 380.642C283.06 343.372 257.988 305.283 242.912 261.461C250.461 267.669 257.401 274.581 263.641 282.102C284.94 305.44 310.898 324.052 339.839 336.737L340.413 336C338.119 333.543 335.988 331.085 333.694 328.792C311.429 306.17 292.154 280.789 276.341 253.27C275.768 252.205 274.784 251.304 275.03 249.747L277.488 250.894C287.535 256.779 296.881 263.787 305.345 271.782C311.158 277.107 317.662 281.625 324.682 285.215C325.829 285.788 326.976 286.771 328.287 285.215C328.812 284.679 329.106 283.959 329.106 283.208C329.106 282.458 328.812 281.737 328.287 281.201C324.19 275.468 320.093 269.57 316.079 263.918C314.44 261.625 315.505 261.133 317.553 260.969C318.783 260.889 320.015 261.066 321.172 261.489C322.329 261.912 323.385 262.572 324.272 263.427C331.917 269.507 340.316 274.573 349.261 278.498C363.6 285.215 378.675 289.966 393.505 294.881C399.978 297.174 400.47 299.631 396.127 304.874C390.651 311.354 386.378 318.761 383.509 326.744C381.045 332.326 380.313 338.518 381.408 344.521C382.504 350.523 385.377 356.058 389.654 360.41C394.674 365.546 400.661 369.639 407.27 372.451L417.839 376.792L412.678 379.905C402.359 385.496 393.03 392.746 385.066 401.365C381.863 404.638 379.33 408.506 377.61 412.751C376.583 415.01 376.364 417.554 376.991 419.955C377.617 422.356 379.051 424.469 381.051 425.939C383.437 427.686 386.023 429.143 388.753 430.28C408.1 437.991 428.931 441.266 449.711 439.864C453.058 439.669 456.326 438.774 459.304 437.236C462.283 435.698 464.904 433.551 466.999 430.935C476.756 419.33 484.184 405.952 488.875 391.536C490.596 386.539 492.071 381.461 493.382 376.382C495.02 370.075 493.382 367.536 486.827 366.881C481.282 366.833 475.76 367.606 470.44 369.174C465.055 370.811 459.27 370.551 454.054 368.437C462.384 361.358 472.613 356.885 483.468 355.577C488.748 355.365 493.872 353.73 498.3 350.847C502.727 347.963 506.293 343.937 508.621 339.195C514.123 329.151 518.545 318.552 521.812 307.577C524.271 298.919 525.485 289.955 525.417 280.956C526.276 277.451 526.905 273.894 527.302 270.307C527.354 265.547 526.887 260.796 525.909 256.137C525.872 255.728 525.872 255.317 525.909 254.908C525.749 251.961 524.755 249.12 523.042 246.717L522.14 245.16C516.945 237.043 510.812 229.565 503.869 222.881C492.793 212.51 480.779 203.187 467.982 195.031C463.509 192.449 459.667 188.904 456.734 184.654C453.8 180.404 451.849 175.554 451.022 170.457C449.969 161.855 445.55 154.021 438.732 148.669C399.681 115.332 356.933 86.5843 311.326 62.9898C310.303 62.6523 309.393 62.037 308.698 61.2126C308.004 60.3882 307.552 59.387 307.394 58.3209C310.707 57.5231 314.076 56.9755 317.471 56.6826C331.207 56.2148 344.951 57.3141 358.438 59.9591C366.546 61.4824 374.769 62.3045 383.018 62.4164C367.696 48.3277 330.663 28.5871 295.677 14.3345C302.068 13.9249 308.377 13.6792 314.85 13.6792C373.059 13.7576 430.001 30.6746 478.807 62.389C527.612 94.1033 566.195 139.26 589.899 192.41V161.939C562.635 112.901 522.764 72.0346 474.408 43.5646C426.053 15.0946 370.968 0.0546792 314.85 3.32008e-05ZM465.606 259.495L469.293 260.396C484.373 264.226 500.089 264.84 515.422 262.198C517.945 261.893 520.375 261.055 522.55 259.741C522.55 263.099 522.55 266.949 522.058 270.717C521.935 273.173 521.935 275.633 522.058 278.089C518.307 281.072 515.093 284.673 512.554 288.737C510.025 292.593 507.086 296.163 503.787 299.386C502.149 300.86 501.247 300.86 500.51 298.567C499.117 294.717 497.642 290.867 496.086 287.099C495.529 285.343 494.443 283.802 492.976 282.688C491.509 281.573 489.733 280.94 487.892 280.874C484.265 280.739 480.652 280.356 477.077 279.727C473.194 278.101 469.961 275.232 467.885 271.57C465.809 267.908 465.007 263.661 465.606 259.495ZM214.564 107.877C207.1 117.158 203.076 128.734 203.175 140.642C203.001 148.647 203.549 156.653 204.813 164.56C198.785 158.996 193.955 152.263 190.616 144.77C187.278 137.278 185.501 129.184 185.395 120.983C185.104 117.994 185.466 114.978 186.456 112.144C187.446 109.309 189.041 106.723 191.129 104.565C193.218 102.407 195.75 100.728 198.551 99.6455C201.353 98.5627 204.356 98.1014 207.353 98.2936C209.237 98.3481 211.085 98.8239 212.761 99.686C216.776 101.898 217.513 104.519 214.564 107.877ZM380.97 180.205C376.791 181.433 372.776 182.58 368.598 183.973C362.371 186.266 360.978 188.642 362.043 195.195C362.698 198.962 363.846 202.567 364.993 207.072C339.57 195.309 312.835 186.62 285.354 181.188C311.326 166.116 356.635 164.314 380.97 180.205Z" fill="url(#paint0_linear_1466_6022)" fill-opacity="0.14"/>
<defs>
<linearGradient id="paint0_linear_1466_6022" x1="294.949" y1="9.28028e-06" x2="561" y2="612.5" gradientUnits="userSpaceOnUse">
<stop stop-color="#2E4D65"/>
<stop offset="1" stop-color="#434359"/>
</linearGradient>
</defs>
</svg>
