<svg width="220" height="63" viewBox="0 0 220 63" fill="none" xmlns="http://www.w3.org/2000/svg">
<g filter="url(#filter0_i_1390_12151)">
<rect width="220" height="63" rx="31.5" fill="#376990" fill-opacity="0.2"/>
</g>
<path d="M188.072 40.8693L181.715 34.5119M169 29.2139C169 30.188 169.192 31.1525 169.565 32.0523C169.937 32.9522 170.484 33.7699 171.172 34.4586C171.861 35.1473 172.679 35.6937 173.579 36.0664C174.479 36.4392 175.443 36.631 176.417 36.631C177.391 36.631 178.356 36.4392 179.255 36.0664C180.155 35.6937 180.973 35.1473 181.662 34.4586C182.35 33.7699 182.897 32.9522 183.27 32.0523C183.642 31.1525 183.834 30.188 183.834 29.2139C183.834 28.2399 183.642 27.2754 183.27 26.3756C182.897 25.4757 182.35 24.658 181.662 23.9693C180.973 23.2805 180.155 22.7342 179.255 22.3615C178.356 21.9887 177.391 21.7969 176.417 21.7969C175.443 21.7969 174.479 21.9887 173.579 22.3615C172.679 22.7342 171.861 23.2805 171.172 23.9693C170.484 24.658 169.937 25.4757 169.565 26.3756C169.192 27.2754 169 28.2399 169 29.2139Z" stroke="#6388A5" stroke-width="2" stroke-linecap="round" stroke-linejoin="round"/>
<path d="M38.3477 39.1912C37.2543 39.1912 36.321 38.9912 35.5477 38.5912C34.7743 38.1912 34.0877 37.6112 33.4877 36.8512L34.7677 35.5712C35.2077 36.1845 35.7143 36.6512 36.2877 36.9712C36.861 37.2779 37.5677 37.4312 38.4077 37.4312C39.2343 37.4312 39.8943 37.2512 40.3877 36.8912C40.8943 36.5312 41.1477 36.0379 41.1477 35.4112C41.1477 34.8912 41.0277 34.4712 40.7877 34.1512C40.5477 33.8312 40.221 33.5712 39.8077 33.3712C39.4077 33.1579 38.9677 32.9712 38.4877 32.8112C38.0077 32.6379 37.5277 32.4579 37.0477 32.2712C36.5677 32.0712 36.1277 31.8312 35.7277 31.5512C35.3277 31.2579 35.001 30.8779 34.7477 30.4112C34.5077 29.9445 34.3877 29.3579 34.3877 28.6512C34.3877 27.8645 34.5743 27.1979 34.9477 26.6512C35.3343 26.0912 35.8543 25.6645 36.5077 25.3712C37.1743 25.0645 37.921 24.9112 38.7477 24.9112C39.6543 24.9112 40.4677 25.0912 41.1877 25.4512C41.9077 25.7979 42.4943 26.2579 42.9477 26.8312L41.6677 28.1112C41.2543 27.6312 40.8077 27.2712 40.3277 27.0312C39.861 26.7912 39.321 26.6712 38.7077 26.6712C37.961 26.6712 37.3677 26.8379 36.9277 27.1712C36.4877 27.4912 36.2677 27.9445 36.2677 28.5312C36.2677 28.9979 36.3877 29.3779 36.6277 29.6712C36.881 29.9512 37.2077 30.1912 37.6077 30.3912C38.0077 30.5912 38.4477 30.7779 38.9277 30.9512C39.421 31.1112 39.9077 31.2912 40.3877 31.4912C40.8677 31.6912 41.3077 31.9445 41.7077 32.2512C42.1077 32.5579 42.4277 32.9579 42.6677 33.4512C42.921 33.9312 43.0477 34.5379 43.0477 35.2712C43.0477 36.4979 42.621 37.4579 41.7677 38.1512C40.9277 38.8445 39.7877 39.1912 38.3477 39.1912ZM49.5247 39.1912C48.578 39.1912 47.7247 38.9779 46.9647 38.5512C46.2047 38.1112 45.6047 37.5179 45.1647 36.7712C44.7247 36.0245 44.5047 35.1779 44.5047 34.2312C44.5047 33.2979 44.718 32.4579 45.1447 31.7112C45.5847 30.9645 46.1714 30.3779 46.9047 29.9512C47.6514 29.5112 48.4847 29.2912 49.4047 29.2912C50.2847 29.2912 51.058 29.4912 51.7247 29.8912C52.4047 30.2912 52.9314 30.8445 53.3047 31.5512C53.6914 32.2579 53.8847 33.0579 53.8847 33.9512C53.8847 34.0845 53.878 34.2312 53.8647 34.3912C53.8514 34.5379 53.8247 34.7112 53.7847 34.9112H45.7647V33.4112H52.8247L52.1647 33.9912C52.1647 33.3512 52.0514 32.8112 51.8247 32.3712C51.598 31.9179 51.278 31.5712 50.8647 31.3312C50.4514 31.0779 49.9514 30.9512 49.3647 30.9512C48.7514 30.9512 48.2114 31.0845 47.7447 31.3512C47.278 31.6179 46.918 31.9912 46.6647 32.4712C46.4114 32.9512 46.2847 33.5179 46.2847 34.1712C46.2847 34.8379 46.418 35.4245 46.6847 35.9312C46.9514 36.4245 47.3314 36.8112 47.8247 37.0912C48.318 37.3579 48.8847 37.4912 49.5247 37.4912C50.058 37.4912 50.5447 37.3979 50.9847 37.2112C51.438 37.0245 51.8247 36.7445 52.1447 36.3712L53.3047 37.5512C52.8514 38.0845 52.2914 38.4912 51.6247 38.7712C50.9714 39.0512 50.2714 39.1912 49.5247 39.1912ZM59.8873 39.1912C59.0207 39.1912 58.234 38.9779 57.5273 38.5512C56.8207 38.1112 56.2607 37.5179 55.8473 36.7712C55.4473 36.0245 55.2473 35.1845 55.2473 34.2512C55.2473 33.3179 55.4473 32.4779 55.8473 31.7312C56.2607 30.9845 56.814 30.3912 57.5073 29.9512C58.214 29.5112 59.0073 29.2912 59.8873 29.2912C60.6073 29.2912 61.2473 29.4445 61.8073 29.7512C62.3807 30.0445 62.8407 30.4579 63.1873 30.9912C63.534 31.5112 63.7273 32.1179 63.7673 32.8112V35.6712C63.7273 36.3512 63.534 36.9579 63.1873 37.4912C62.854 38.0245 62.4007 38.4445 61.8273 38.7512C61.2673 39.0445 60.6207 39.1912 59.8873 39.1912ZM60.1873 37.4912C61.0807 37.4912 61.8007 37.1912 62.3473 36.5912C62.894 35.9779 63.1673 35.1979 63.1673 34.2512C63.1673 33.5979 63.0407 33.0312 62.7873 32.5512C62.5473 32.0579 62.2007 31.6779 61.7473 31.4112C61.294 31.1312 60.7673 30.9912 60.1673 30.9912C59.5673 30.9912 59.034 31.1312 58.5673 31.4112C58.114 31.6912 57.754 32.0779 57.4873 32.5712C57.234 33.0512 57.1073 33.6045 57.1073 34.2312C57.1073 34.8712 57.234 35.4379 57.4873 35.9312C57.754 36.4112 58.1207 36.7912 58.5873 37.0712C59.054 37.3512 59.5873 37.4912 60.1873 37.4912ZM63.0473 38.9912V36.4312L63.3873 34.1112L63.0473 31.8112V29.4912H64.8673V38.9912H63.0473ZM67.488 38.9912V29.4912H69.288V38.9912H67.488ZM69.288 33.5712L68.608 33.2712C68.608 32.0579 68.888 31.0912 69.448 30.3712C70.008 29.6512 70.8146 29.2912 71.868 29.2912C72.348 29.2912 72.7813 29.3779 73.168 29.5512C73.5546 29.7112 73.9146 29.9845 74.248 30.3712L73.068 31.5912C72.868 31.3779 72.648 31.2245 72.408 31.1312C72.168 31.0379 71.888 30.9912 71.568 30.9912C70.9013 30.9912 70.3546 31.2045 69.928 31.6312C69.5013 32.0579 69.288 32.7045 69.288 33.5712ZM79.5428 39.1912C78.6095 39.1912 77.7628 38.9712 77.0028 38.5312C76.2561 38.0912 75.6628 37.4979 75.2228 36.7512C74.7961 35.9912 74.5828 35.1512 74.5828 34.2312C74.5828 33.2979 74.7961 32.4579 75.2228 31.7112C75.6628 30.9645 76.2561 30.3779 77.0028 29.9512C77.7628 29.5112 78.6095 29.2912 79.5428 29.2912C80.2761 29.2912 80.9561 29.4312 81.5828 29.7112C82.2095 29.9779 82.7495 30.3712 83.2028 30.8912L82.0028 32.0912C81.7095 31.7445 81.3495 31.4845 80.9228 31.3112C80.5095 31.1245 80.0495 31.0312 79.5428 31.0312C78.9428 31.0312 78.4095 31.1712 77.9428 31.4512C77.4761 31.7179 77.1095 32.0912 76.8428 32.5712C76.5761 33.0512 76.4428 33.6045 76.4428 34.2312C76.4428 34.8579 76.5761 35.4112 76.8428 35.8912C77.1095 36.3712 77.4761 36.7512 77.9428 37.0312C78.4095 37.3112 78.9428 37.4512 79.5428 37.4512C80.0495 37.4512 80.5095 37.3645 80.9228 37.1912C81.3495 37.0045 81.7161 36.7379 82.0228 36.3912L83.2028 37.5912C82.7628 38.0979 82.2228 38.4912 81.5828 38.7712C80.9561 39.0512 80.2761 39.1912 79.5428 39.1912ZM91.708 38.9912V33.4512C91.708 32.7312 91.4813 32.1379 91.028 31.6712C90.5746 31.2045 89.988 30.9712 89.268 30.9712C88.788 30.9712 88.3613 31.0779 87.988 31.2912C87.6146 31.5045 87.3213 31.7979 87.108 32.1712C86.8946 32.5445 86.788 32.9712 86.788 33.4512L86.048 33.0312C86.048 32.3112 86.208 31.6712 86.528 31.1112C86.848 30.5512 87.2946 30.1112 87.868 29.7912C88.4413 29.4579 89.088 29.2912 89.808 29.2912C90.528 29.2912 91.1613 29.4512 91.708 29.7712C92.268 30.0912 92.708 30.5379 93.028 31.1112C93.348 31.6845 93.508 32.3445 93.508 33.0912V38.9912H91.708ZM84.988 38.9912V24.7112H86.788V38.9912H84.988Z" fill="#6388A5"/>
<defs>
<filter id="filter0_i_1390_12151" x="0" y="0" width="224" height="68" filterUnits="userSpaceOnUse" color-interpolation-filters="sRGB">
<feFlood flood-opacity="0" result="BackgroundImageFix"/>
<feBlend mode="normal" in="SourceGraphic" in2="BackgroundImageFix" result="shape"/>
<feColorMatrix in="SourceAlpha" type="matrix" values="0 0 0 0 0 0 0 0 0 0 0 0 0 0 0 0 0 0 127 0" result="hardAlpha"/>
<feOffset dx="4" dy="5"/>
<feGaussianBlur stdDeviation="2.5"/>
<feComposite in2="hardAlpha" operator="arithmetic" k2="-1" k3="1"/>
<feColorMatrix type="matrix" values="0 0 0 0 0.221667 0 0 0 0 0.487936 0 0 0 0 0.933333 0 0 0 0.12 0"/>
<feBlend mode="normal" in2="shape" result="effect1_innerShadow_1390_12151"/>
</filter>
</defs>
</svg>
