<svg width="156" height="56" viewBox="0 0 156 56" fill="none" xmlns="http://www.w3.org/2000/svg">
<g filter="url(#filter0_di_1390_12281)">
<rect width="147" height="46" rx="23" fill="#54526B" fill-opacity="0.65" shape-rendering="crispEdges"/>
</g>
<path d="M31.5191 28V18.284H32.8351V28H31.5191ZM32.4151 23.73V22.526H37.4831V23.73H32.4151ZM32.4151 19.488V18.284H37.7211V19.488H32.4151ZM39.2388 28V21.35H40.4988V28H39.2388ZM39.8688 20.02C39.6354 20.02 39.4441 19.9453 39.2948 19.796C39.1454 19.6373 39.0708 19.4413 39.0708 19.208C39.0708 18.984 39.1454 18.7973 39.2948 18.648C39.4441 18.4893 39.6354 18.41 39.8688 18.41C40.1021 18.41 40.2934 18.4893 40.4428 18.648C40.5921 18.7973 40.6668 18.984 40.6668 19.208C40.6668 19.4413 40.5921 19.6373 40.4428 19.796C40.2934 19.9453 40.1021 20.02 39.8688 20.02ZM47.0596 28V24.122C47.0596 23.618 46.901 23.2027 46.5836 22.876C46.2663 22.5493 45.8556 22.386 45.3516 22.386C45.0156 22.386 44.717 22.4607 44.4556 22.61C44.1943 22.7593 43.989 22.9647 43.8396 23.226C43.6903 23.4873 43.6156 23.786 43.6156 24.122L43.0976 23.828C43.0976 23.324 43.2096 22.876 43.4336 22.484C43.6576 22.092 43.9703 21.784 44.3716 21.56C44.773 21.3267 45.2256 21.21 45.7296 21.21C46.2336 21.21 46.677 21.336 47.0596 21.588C47.4516 21.84 47.7596 22.1713 47.9836 22.582C48.2076 22.9833 48.3196 23.4127 48.3196 23.87V28H47.0596ZM42.3556 28V21.35H43.6156V28H42.3556ZM52.8396 28.14C52.2236 28.14 51.6729 27.9907 51.1876 27.692C50.7022 27.384 50.3149 26.9687 50.0256 26.446C49.7456 25.9233 49.6056 25.3353 49.6056 24.682C49.6056 24.0287 49.7456 23.4407 50.0256 22.918C50.3149 22.3953 50.7022 21.98 51.1876 21.672C51.6729 21.364 52.2236 21.21 52.8396 21.21C53.3342 21.21 53.7822 21.3173 54.1836 21.532C54.5849 21.7373 54.9069 22.0267 55.1496 22.4C55.4016 22.764 55.5416 23.1887 55.5696 23.674V25.676C55.5416 26.152 55.4062 26.5767 55.1636 26.95C54.9209 27.3233 54.5989 27.6173 54.1976 27.832C53.7962 28.0373 53.3436 28.14 52.8396 28.14ZM53.0496 26.95C53.4696 26.95 53.8336 26.852 54.1416 26.656C54.4589 26.46 54.7062 26.194 54.8836 25.858C55.0609 25.5127 55.1496 25.1207 55.1496 24.682C55.1496 24.2247 55.0562 23.828 54.8696 23.492C54.6922 23.156 54.4449 22.89 54.1276 22.694C53.8196 22.498 53.4556 22.4 53.0356 22.4C52.6156 22.4 52.2469 22.498 51.9296 22.694C51.6122 22.89 51.3602 23.1607 51.1736 23.506C50.9962 23.842 50.9076 24.2293 50.9076 24.668C50.9076 25.116 50.9962 25.5127 51.1736 25.858C51.3602 26.194 51.6122 26.46 51.9296 26.656C52.2562 26.852 52.6296 26.95 53.0496 26.95ZM56.3396 28H55.0656V26.208L55.3036 24.584L55.0656 22.974V18.004H56.3396V28ZM65.1042 24.22V23.072H67.7502C68.1142 23.072 68.4362 22.9973 68.7162 22.848C69.0056 22.6987 69.2296 22.4887 69.3882 22.218C69.5562 21.9473 69.6402 21.6253 69.6402 21.252C69.6402 20.8787 69.5562 20.5567 69.3882 20.286C69.2296 20.0153 69.0056 19.8053 68.7162 19.656C68.4362 19.5067 68.1142 19.432 67.7502 19.432H65.1042V18.284H67.8342C68.4316 18.284 68.9636 18.4053 69.4302 18.648C69.9062 18.8907 70.2796 19.236 70.5502 19.684C70.8302 20.1227 70.9702 20.6453 70.9702 21.252C70.9702 21.8493 70.8302 22.372 70.5502 22.82C70.2796 23.2587 69.9062 23.604 69.4302 23.856C68.9636 24.0987 68.4316 24.22 67.8342 24.22H65.1042ZM64.2222 28V18.284H65.5382V28H64.2222ZM72.4885 28V21.35H73.7485V28H72.4885ZM73.7485 24.206L73.2725 23.996C73.2725 23.1467 73.4685 22.47 73.8605 21.966C74.2525 21.462 74.8171 21.21 75.5545 21.21C75.8905 21.21 76.1938 21.2707 76.4645 21.392C76.7351 21.504 76.9871 21.6953 77.2205 21.966L76.3945 22.82C76.2545 22.6707 76.1005 22.5633 75.9325 22.498C75.7645 22.4327 75.5685 22.4 75.3445 22.4C74.8778 22.4 74.4951 22.5493 74.1965 22.848C73.8978 23.1467 73.7485 23.5993 73.7485 24.206ZM80.9268 28.14C80.2735 28.14 79.6855 27.986 79.1628 27.678C78.6402 27.37 78.2248 26.9547 77.9168 26.432C77.6088 25.9 77.4548 25.3073 77.4548 24.654C77.4548 24.01 77.6088 23.4313 77.9168 22.918C78.2248 22.3953 78.6402 21.98 79.1628 21.672C79.6855 21.364 80.2735 21.21 80.9268 21.21C81.5708 21.21 82.1542 21.364 82.6768 21.672C83.2088 21.9707 83.6288 22.3813 83.9368 22.904C84.2448 23.4267 84.3988 24.01 84.3988 24.654C84.3988 25.3073 84.2448 25.9 83.9368 26.432C83.6288 26.9547 83.2088 27.37 82.6768 27.678C82.1542 27.986 81.5708 28.14 80.9268 28.14ZM80.9268 26.922C81.3468 26.922 81.7202 26.824 82.0468 26.628C82.3735 26.432 82.6302 26.166 82.8168 25.83C83.0035 25.4847 83.0968 25.0927 83.0968 24.654C83.0968 24.2247 82.9988 23.842 82.8028 23.506C82.6162 23.17 82.3595 22.9087 82.0328 22.722C81.7155 22.526 81.3468 22.428 80.9268 22.428C80.5068 22.428 80.1335 22.526 79.8068 22.722C79.4802 22.9087 79.2235 23.17 79.0368 23.506C78.8502 23.842 78.7568 24.2247 78.7568 24.654C78.7568 25.0927 78.8502 25.4847 79.0368 25.83C79.2235 26.166 79.4802 26.432 79.8068 26.628C80.1335 26.824 80.5068 26.922 80.9268 26.922ZM89.3185 28.14C88.8145 28.14 88.3572 28.0373 87.9465 27.832C87.5452 27.6173 87.2232 27.3233 86.9805 26.95C86.7379 26.5767 86.6025 26.152 86.5745 25.676V23.674C86.6025 23.1887 86.7379 22.764 86.9805 22.4C87.2325 22.0267 87.5592 21.7373 87.9605 21.532C88.3712 21.3173 88.8239 21.21 89.3185 21.21C89.9252 21.21 90.4712 21.364 90.9565 21.672C91.4512 21.98 91.8385 22.3953 92.1185 22.918C92.3985 23.4407 92.5385 24.0287 92.5385 24.682C92.5385 25.3353 92.3985 25.9233 92.1185 26.446C91.8385 26.9687 91.4512 27.384 90.9565 27.692C90.4712 27.9907 89.9252 28.14 89.3185 28.14ZM89.1085 26.95C89.5285 26.95 89.8972 26.852 90.2145 26.656C90.5319 26.46 90.7839 26.194 90.9705 25.858C91.1572 25.5127 91.2505 25.116 91.2505 24.668C91.2505 24.2293 91.1572 23.8373 90.9705 23.492C90.7839 23.1467 90.5319 22.8807 90.2145 22.694C89.8972 22.498 89.5332 22.4 89.1225 22.4C88.7025 22.4 88.3339 22.498 88.0165 22.694C87.6992 22.8807 87.4519 23.1467 87.2745 23.492C87.0972 23.8373 87.0085 24.234 87.0085 24.682C87.0085 25.1207 87.0925 25.5127 87.2605 25.858C87.4379 26.194 87.6852 26.46 88.0025 26.656C88.3292 26.852 88.6979 26.95 89.1085 26.95ZM85.8185 30.786V21.35H87.0785V23.1L86.8405 24.71L87.0785 26.334V30.786H85.8185ZM97.047 28.14C96.3843 28.14 95.787 27.9907 95.255 27.692C94.723 27.384 94.303 26.9687 93.995 26.446C93.687 25.9233 93.533 25.3307 93.533 24.668C93.533 24.0147 93.6823 23.4267 93.981 22.904C94.289 22.3813 94.6996 21.9707 95.213 21.672C95.7356 21.364 96.319 21.21 96.963 21.21C97.579 21.21 98.1203 21.35 98.587 21.63C99.063 21.91 99.4316 22.2973 99.693 22.792C99.9636 23.2867 100.099 23.8467 100.099 24.472C100.099 24.5653 100.094 24.668 100.085 24.78C100.076 24.8827 100.057 25.004 100.029 25.144H94.415V24.094H99.357L98.895 24.5C98.895 24.052 98.8156 23.674 98.657 23.366C98.4983 23.0487 98.2743 22.806 97.985 22.638C97.6956 22.4607 97.3456 22.372 96.935 22.372C96.5056 22.372 96.1276 22.4653 95.801 22.652C95.4743 22.8387 95.2223 23.1 95.045 23.436C94.8676 23.772 94.779 24.1687 94.779 24.626C94.779 25.0927 94.8723 25.5033 95.059 25.858C95.2456 26.2033 95.5116 26.474 95.857 26.67C96.2023 26.8567 96.599 26.95 97.047 26.95C97.4203 26.95 97.761 26.8847 98.069 26.754C98.3863 26.6233 98.657 26.4273 98.881 26.166L99.693 26.992C99.3756 27.3653 98.9836 27.65 98.517 27.846C98.0596 28.042 97.5696 28.14 97.047 28.14ZM101.473 28V21.35H102.733V28H101.473ZM102.733 24.206L102.257 23.996C102.257 23.1467 102.453 22.47 102.845 21.966C103.237 21.462 103.801 21.21 104.539 21.21C104.875 21.21 105.178 21.2707 105.449 21.392C105.719 21.504 105.971 21.6953 106.205 21.966L105.379 22.82C105.239 22.6707 105.085 22.5633 104.917 22.498C104.749 22.4327 104.553 22.4 104.329 22.4C103.862 22.4 103.479 22.5493 103.181 22.848C102.882 23.1467 102.733 23.5993 102.733 24.206ZM108.087 28V18.564H109.347V28H108.087ZM106.449 22.498V21.35H110.985V22.498H106.449ZM114.403 28.056L111.519 21.35H112.919L115.061 26.6H114.613L116.867 21.35H118.267L115.159 28.056H114.403ZM112.499 30.786L114.459 26.768L115.159 28.056L113.899 30.786H112.499Z" fill="white"/>
<defs>
<filter id="filter0_di_1390_12281" x="0" y="0" width="156" height="56" filterUnits="userSpaceOnUse" color-interpolation-filters="sRGB">
<feFlood flood-opacity="0" result="BackgroundImageFix"/>
<feColorMatrix in="SourceAlpha" type="matrix" values="0 0 0 0 0 0 0 0 0 0 0 0 0 0 0 0 0 0 127 0" result="hardAlpha"/>
<feMorphology radius="1" operator="erode" in="SourceAlpha" result="effect1_dropShadow_1390_12281"/>
<feOffset dx="5" dy="6"/>
<feGaussianBlur stdDeviation="2.5"/>
<feComposite in2="hardAlpha" operator="out"/>
<feColorMatrix type="matrix" values="0 0 0 0 0.538542 0 0 0 0 0.680656 0 0 0 0 0.916667 0 0 0 0.1 0"/>
<feBlend mode="normal" in2="BackgroundImageFix" result="effect1_dropShadow_1390_12281"/>
<feBlend mode="normal" in="SourceGraphic" in2="effect1_dropShadow_1390_12281" result="shape"/>
<feColorMatrix in="SourceAlpha" type="matrix" values="0 0 0 0 0 0 0 0 0 0 0 0 0 0 0 0 0 0 127 0" result="hardAlpha"/>
<feOffset dx="4" dy="5"/>
<feGaussianBlur stdDeviation="2.5"/>
<feComposite in2="hardAlpha" operator="arithmetic" k2="-1" k3="1"/>
<feColorMatrix type="matrix" values="0 0 0 0 0.189583 0 0 0 0 0.210965 0 0 0 0 0.270833 0 0 0 0.1 0"/>
<feBlend mode="normal" in2="shape" result="effect2_innerShadow_1390_12281"/>
</filter>
</defs>
</svg>
