<svg width="82" height="40" viewBox="0 0 82 40" fill="none" xmlns="http://www.w3.org/2000/svg">
<g filter="url(#filter0_i_1390_12315)">
<rect width="82" height="40" rx="20" fill="#274E6C"/>
</g>
<path d="M58 18L62 22L58 18ZM62 22L66 18L62 22Z" fill="#EEF4FF"/>
<path d="M58 18L62 22L66 18" stroke="#EEF4FF" stroke-width="2" stroke-linecap="round" stroke-linejoin="round"/>
<path d="M24.2 19.6V20.4C24.2 21.928 23.344 23.256 22.08 23.928L22.6 26H21L20.6 24.4H13.4L13 26H11.4L11.92 23.928C11.2793 23.5882 10.7434 23.0801 10.3699 22.4585C9.99638 21.8369 9.79935 21.1252 9.8 20.4V19.6H9V18H23.4V12.4C23.4 12.1878 23.3157 11.9843 23.1657 11.8343C23.0157 11.6843 22.8122 11.6 22.6 11.6C22.2 11.6 21.896 11.872 21.8 12.232C22.304 12.664 22.6 13.304 22.6 14H17.8C17.8 13.3635 18.0529 12.753 18.5029 12.3029C18.953 11.8529 19.5635 11.6 20.2 11.6H20.336C20.664 10.672 21.552 10 22.6 10C23.2365 10 23.847 10.2529 24.2971 10.7029C24.7471 11.153 25 11.7635 25 12.4V19.6H24.2ZM22.6 19.6H11.4V20.4C11.4 21.0365 11.6529 21.647 12.1029 22.0971C12.553 22.5471 13.1635 22.8 13.8 22.8H20.2C20.8365 22.8 21.447 22.5471 21.8971 22.0971C22.3471 21.647 22.6 21.0365 22.6 20.4V19.6Z" fill="white"/>
<path d="M37.462 24.202L41.046 20.422C41.41 20.0487 41.6947 19.7267 41.9 19.456C42.1053 19.176 42.25 18.9193 42.334 18.686C42.4273 18.4527 42.474 18.21 42.474 17.958C42.474 17.4633 42.3153 17.076 41.998 16.796C41.6807 16.516 41.27 16.376 40.766 16.376C40.2713 16.376 39.8373 16.4973 39.464 16.74C39.0907 16.9733 38.7593 17.3373 38.47 17.832L37.546 17.062C37.9287 16.4273 38.3907 15.9513 38.932 15.634C39.4733 15.3073 40.0987 15.144 40.808 15.144C41.4053 15.144 41.9233 15.2607 42.362 15.494C42.81 15.7273 43.1553 16.054 43.398 16.474C43.6407 16.894 43.762 17.384 43.762 17.944C43.762 18.3453 43.7107 18.7047 43.608 19.022C43.5147 19.3393 43.342 19.666 43.09 20.002C42.8473 20.3287 42.5067 20.7207 42.068 21.178L39.17 24.16L37.462 24.202ZM37.462 25V24.202L38.582 23.824H43.986V25H37.462Z" fill="white"/>
<defs>
<filter id="filter0_i_1390_12315" x="0" y="0" width="86" height="45" filterUnits="userSpaceOnUse" color-interpolation-filters="sRGB">
<feFlood flood-opacity="0" result="BackgroundImageFix"/>
<feBlend mode="normal" in="SourceGraphic" in2="BackgroundImageFix" result="shape"/>
<feColorMatrix in="SourceAlpha" type="matrix" values="0 0 0 0 0 0 0 0 0 0 0 0 0 0 0 0 0 0 127 0" result="hardAlpha"/>
<feOffset dx="4" dy="5"/>
<feGaussianBlur stdDeviation="2.5"/>
<feComposite in2="hardAlpha" operator="arithmetic" k2="-1" k3="1"/>
<feColorMatrix type="matrix" values="0 0 0 0 0.156059 0 0 0 0 0.303528 0 0 0 0 0.420833 0 0 0 1 0"/>
<feBlend mode="normal" in2="shape" result="effect1_innerShadow_1390_12315"/>
</filter>
</defs>
</svg>
