<svg width="82" height="40" viewBox="0 0 82 40" fill="none" xmlns="http://www.w3.org/2000/svg">
<g filter="url(#filter0_i_1390_12308)">
<rect width="82" height="40" rx="20" fill="#274E6C"/>
</g>
<path d="M61 18L65 22L61 18ZM65 22L69 18L65 22Z" fill="#EEF4FF"/>
<path d="M61 18L65 22L69 18" stroke="#EEF4FF" stroke-width="2" stroke-linecap="round" stroke-linejoin="round"/>
<path d="M38.462 24.202L42.046 20.422C42.41 20.0487 42.6947 19.7267 42.9 19.456C43.1053 19.176 43.25 18.9193 43.334 18.686C43.4273 18.4527 43.474 18.21 43.474 17.958C43.474 17.4633 43.3153 17.076 42.998 16.796C42.6807 16.516 42.27 16.376 41.766 16.376C41.2713 16.376 40.8373 16.4973 40.464 16.74C40.0907 16.9733 39.7593 17.3373 39.47 17.832L38.546 17.062C38.9287 16.4273 39.3907 15.9513 39.932 15.634C40.4733 15.3073 41.0987 15.144 41.808 15.144C42.4053 15.144 42.9233 15.2607 43.362 15.494C43.81 15.7273 44.1553 16.054 44.398 16.474C44.6407 16.894 44.762 17.384 44.762 17.944C44.762 18.3453 44.7107 18.7047 44.608 19.022C44.5147 19.3393 44.342 19.666 44.09 20.002C43.8473 20.3287 43.5067 20.7207 43.068 21.178L40.17 24.16L38.462 24.202ZM38.462 25V24.202L39.582 23.824H44.986V25H38.462ZM46.4002 20.884V19.75H52.3362V20.884H46.4002ZM48.7942 17.202H49.9562V23.432H48.7942V17.202Z" fill="white"/>
<path d="M9 27V21.8571C9 21.4714 9.0825 21.1214 9.2475 20.8071C9.4125 20.4929 9.63 20.2143 9.9 19.9714V17.5714C9.9 16.8571 10.1625 16.25 10.6875 15.75C11.2125 15.25 11.85 15 12.6 15H16.2C16.545 15 16.8675 15.0609 17.1675 15.1826C17.4675 15.3043 17.745 15.472 18 15.6857C18.255 15.4714 18.5325 15.3037 18.8325 15.1826C19.1325 15.0614 19.455 15.0006 19.8 15H23.4C24.15 15 24.7875 15.25 25.3125 15.75C25.8375 16.25 26.1 16.8571 26.1 17.5714V19.9714C26.37 20.2143 26.5875 20.4929 26.7525 20.8071C26.9175 21.1214 27 21.4714 27 21.8571V27H25.2V25.2857H10.8V27H9ZM18.9 19.2857H24.3V17.5714C24.3 17.3286 24.2136 17.1249 24.0408 16.9603C23.868 16.7957 23.6544 16.7137 23.4 16.7143H19.8C19.545 16.7143 19.3311 16.7966 19.1583 16.9611C18.9855 17.1257 18.8994 17.3291 18.9 17.5714V19.2857ZM11.7 19.2857H17.1V17.5714C17.1 17.3286 17.0136 17.1249 16.8408 16.9603C16.668 16.7957 16.4544 16.7137 16.2 16.7143H12.6C12.345 16.7143 12.1311 16.7966 11.9583 16.9611C11.7855 17.1257 11.6994 17.3291 11.7 17.5714V19.2857ZM10.8 23.5714H25.2V21.8571C25.2 21.6143 25.1136 21.4106 24.9408 21.246C24.768 21.0814 24.5544 20.9994 24.3 21H11.7C11.445 21 11.2311 21.0823 11.0583 21.2469C10.8855 21.4114 10.7994 21.6149 10.8 21.8571V23.5714Z" fill="white"/>
<defs>
<filter id="filter0_i_1390_12308" x="0" y="0" width="86" height="45" filterUnits="userSpaceOnUse" color-interpolation-filters="sRGB">
<feFlood flood-opacity="0" result="BackgroundImageFix"/>
<feBlend mode="normal" in="SourceGraphic" in2="BackgroundImageFix" result="shape"/>
<feColorMatrix in="SourceAlpha" type="matrix" values="0 0 0 0 0 0 0 0 0 0 0 0 0 0 0 0 0 0 127 0" result="hardAlpha"/>
<feOffset dx="4" dy="5"/>
<feGaussianBlur stdDeviation="2.5"/>
<feComposite in2="hardAlpha" operator="arithmetic" k2="-1" k3="1"/>
<feColorMatrix type="matrix" values="0 0 0 0 0.156059 0 0 0 0 0.303528 0 0 0 0 0.420833 0 0 0 1 0"/>
<feBlend mode="normal" in2="shape" result="effect1_innerShadow_1390_12308"/>
</filter>
</defs>
</svg>
