<svg width="131" height="40" viewBox="0 0 131 40" fill="none" xmlns="http://www.w3.org/2000/svg">
<g filter="url(#filter0_i_1390_12322)">
<rect width="131" height="40" rx="20" fill="#274E6C"/>
</g>
<path d="M109 18L113 22L109 18ZM113 22L117 18L113 22Z" fill="#EEF4FF"/>
<path d="M109 18L113 22L117 18" stroke="#EEF4FF" stroke-width="2" stroke-linecap="round" stroke-linejoin="round"/>
<path fill-rule="evenodd" clip-rule="evenodd" d="M19.9725 11.1532C20.2408 10.9489 20.6164 10.9489 20.8846 11.1532L27.5704 16.2441C27.7513 16.3819 27.8571 16.5938 27.8571 16.8182V24.8182C27.8571 25.3968 27.6223 25.9518 27.2044 26.361C26.7865 26.7701 26.2196 27 25.6286 27H15.2286C14.6375 27 14.0707 26.7701 13.6527 26.361C13.2348 25.9518 13 25.3968 13 24.8182V16.8182C13 16.5938 13.1058 16.3819 13.2868 16.2441L19.9725 11.1532ZM14.4857 17.1739V24.8182C14.4857 25.0111 14.564 25.1961 14.7033 25.3324C14.8426 25.4688 15.0316 25.5455 15.2286 25.5455H25.6286C25.8256 25.5455 26.0145 25.4688 26.1538 25.3324C26.2932 25.1961 26.3714 25.0111 26.3714 24.8182V17.1739L20.4286 12.6486L14.4857 17.1739Z" fill="white"/>
<path fill-rule="evenodd" clip-rule="evenodd" d="M17.5703 18.6193C17.5703 18.1985 17.8901 17.8574 18.2846 17.8574H22.5703C22.9648 17.8574 23.2846 18.1985 23.2846 18.6193V26.2384C23.2846 26.6592 22.9648 27.0003 22.5703 27.0003C22.1758 27.0003 21.856 26.6592 21.856 26.2384V19.3812H18.9989V26.2384C18.9989 26.6592 18.6791 27.0003 18.2846 27.0003C17.8901 27.0003 17.5703 26.6592 17.5703 26.2384V18.6193Z" fill="white"/>
<path d="M36.03 20.772V19.666H38.662C39.2313 19.666 39.67 19.5213 39.978 19.232C40.286 18.9427 40.44 18.5507 40.44 18.056C40.44 17.5893 40.286 17.202 39.978 16.894C39.6793 16.586 39.2453 16.432 38.676 16.432H36.03V15.284H38.718C39.334 15.284 39.8707 15.4053 40.328 15.648C40.7853 15.8813 41.1353 16.2033 41.378 16.614C41.63 17.0247 41.756 17.496 41.756 18.028C41.756 18.5787 41.63 19.0593 41.378 19.47C41.1353 19.8807 40.7853 20.2027 40.328 20.436C39.8707 20.66 39.334 20.772 38.718 20.772H36.03ZM35.148 25V15.284H36.464V25H35.148ZM40.748 25L37.22 20.646L38.466 20.212L42.414 25H40.748ZM46.4122 25.14C45.7495 25.14 45.1522 24.9907 44.6202 24.692C44.0882 24.384 43.6682 23.9687 43.3602 23.446C43.0522 22.9233 42.8982 22.3307 42.8982 21.668C42.8982 21.0147 43.0475 20.4267 43.3462 19.904C43.6542 19.3813 44.0649 18.9707 44.5782 18.672C45.1009 18.364 45.6842 18.21 46.3282 18.21C46.9442 18.21 47.4855 18.35 47.9522 18.63C48.4282 18.91 48.7969 19.2973 49.0582 19.792C49.3289 20.2867 49.4642 20.8467 49.4642 21.472C49.4642 21.5653 49.4595 21.668 49.4502 21.78C49.4409 21.8827 49.4222 22.004 49.3942 22.144H43.7802V21.094H48.7222L48.2602 21.5C48.2602 21.052 48.1809 20.674 48.0222 20.366C47.8635 20.0487 47.6395 19.806 47.3502 19.638C47.0609 19.4607 46.7109 19.372 46.3002 19.372C45.8709 19.372 45.4929 19.4653 45.1662 19.652C44.8395 19.8387 44.5875 20.1 44.4102 20.436C44.2329 20.772 44.1442 21.1687 44.1442 21.626C44.1442 22.0927 44.2375 22.5033 44.4242 22.858C44.6109 23.2033 44.8769 23.474 45.2222 23.67C45.5675 23.8567 45.9642 23.95 46.4122 23.95C46.7855 23.95 47.1262 23.8847 47.4342 23.754C47.7515 23.6233 48.0222 23.4273 48.2462 23.166L49.0582 23.992C48.7409 24.3653 48.3489 24.65 47.8822 24.846C47.4249 25.042 46.9349 25.14 46.4122 25.14ZM52.9521 25.14C52.5787 25.14 52.2241 25.0933 51.8881 25C51.5614 24.8973 51.2581 24.7573 50.9781 24.58C50.6981 24.3933 50.4554 24.174 50.2501 23.922L51.0621 23.11C51.3047 23.4087 51.5847 23.6327 51.9021 23.782C52.2194 23.922 52.5741 23.992 52.9661 23.992C53.3581 23.992 53.6614 23.9267 53.8761 23.796C54.0907 23.656 54.1981 23.4647 54.1981 23.222C54.1981 22.9793 54.1094 22.7927 53.9321 22.662C53.7641 22.522 53.5447 22.41 53.2741 22.326C53.0034 22.2327 52.7141 22.144 52.4061 22.06C52.1074 21.9667 51.8227 21.85 51.5521 21.71C51.2814 21.57 51.0574 21.3787 50.8801 21.136C50.7121 20.8933 50.6281 20.5713 50.6281 20.17C50.6281 19.7687 50.7261 19.4233 50.9221 19.134C51.1181 18.8353 51.3887 18.6067 51.7341 18.448C52.0887 18.2893 52.5134 18.21 53.0081 18.21C53.5307 18.21 53.9927 18.3033 54.3941 18.49C54.8047 18.6673 55.1407 18.938 55.4021 19.302L54.5901 20.114C54.4034 19.8713 54.1701 19.6847 53.8901 19.554C53.6194 19.4233 53.3114 19.358 52.9661 19.358C52.6021 19.358 52.3221 19.4233 52.1261 19.554C51.9394 19.6753 51.8461 19.848 51.8461 20.072C51.8461 20.296 51.9301 20.4687 52.0981 20.59C52.2661 20.7113 52.4854 20.814 52.7561 20.898C53.0361 20.982 53.3254 21.0707 53.6241 21.164C53.9227 21.248 54.2074 21.3647 54.4781 21.514C54.7487 21.6633 54.9681 21.864 55.1361 22.116C55.3134 22.368 55.4021 22.6993 55.4021 23.11C55.4021 23.7353 55.1781 24.23 54.7301 24.594C54.2914 24.958 53.6987 25.14 52.9521 25.14ZM56.8267 25V18.35H58.0867V25H56.8267ZM57.4567 17.02C57.2233 17.02 57.032 16.9453 56.8827 16.796C56.7333 16.6373 56.6587 16.4413 56.6587 16.208C56.6587 15.984 56.7333 15.7973 56.8827 15.648C57.032 15.4893 57.2233 15.41 57.4567 15.41C57.69 15.41 57.8813 15.4893 58.0307 15.648C58.18 15.7973 58.2547 15.984 58.2547 16.208C58.2547 16.4413 58.18 16.6373 58.0307 16.796C57.8813 16.9453 57.69 17.02 57.4567 17.02ZM62.7575 25.14C62.1415 25.14 61.5909 24.9907 61.1055 24.692C60.6202 24.384 60.2329 23.9687 59.9435 23.446C59.6635 22.9233 59.5235 22.3353 59.5235 21.682C59.5235 21.0287 59.6635 20.4407 59.9435 19.918C60.2329 19.3953 60.6202 18.98 61.1055 18.672C61.5909 18.364 62.1415 18.21 62.7575 18.21C63.2522 18.21 63.7002 18.3173 64.1015 18.532C64.5029 18.7373 64.8249 19.0267 65.0675 19.4C65.3195 19.764 65.4595 20.1887 65.4875 20.674V22.676C65.4595 23.152 65.3242 23.5767 65.0815 23.95C64.8389 24.3233 64.5169 24.6173 64.1155 24.832C63.7142 25.0373 63.2615 25.14 62.7575 25.14ZM62.9675 23.95C63.3875 23.95 63.7515 23.852 64.0595 23.656C64.3769 23.46 64.6242 23.194 64.8015 22.858C64.9789 22.5127 65.0675 22.1207 65.0675 21.682C65.0675 21.2247 64.9742 20.828 64.7875 20.492C64.6102 20.156 64.3629 19.89 64.0455 19.694C63.7375 19.498 63.3735 19.4 62.9535 19.4C62.5335 19.4 62.1649 19.498 61.8475 19.694C61.5302 19.89 61.2782 20.1607 61.0915 20.506C60.9142 20.842 60.8255 21.2293 60.8255 21.668C60.8255 22.116 60.9142 22.5127 61.0915 22.858C61.2782 23.194 61.5302 23.46 61.8475 23.656C62.1742 23.852 62.5475 23.95 62.9675 23.95ZM66.2575 25H64.9835V23.208L65.2215 21.584L64.9835 19.974V15.004H66.2575V25ZM71.172 25.14C70.5093 25.14 69.912 24.9907 69.38 24.692C68.848 24.384 68.428 23.9687 68.12 23.446C67.812 22.9233 67.658 22.3307 67.658 21.668C67.658 21.0147 67.8073 20.4267 68.106 19.904C68.414 19.3813 68.8246 18.9707 69.338 18.672C69.8606 18.364 70.444 18.21 71.088 18.21C71.704 18.21 72.2453 18.35 72.712 18.63C73.188 18.91 73.5566 19.2973 73.818 19.792C74.0886 20.2867 74.224 20.8467 74.224 21.472C74.224 21.5653 74.2193 21.668 74.21 21.78C74.2006 21.8827 74.182 22.004 74.154 22.144H68.54V21.094H73.482L73.02 21.5C73.02 21.052 72.9406 20.674 72.782 20.366C72.6233 20.0487 72.3993 19.806 72.11 19.638C71.8206 19.4607 71.4706 19.372 71.06 19.372C70.6306 19.372 70.2526 19.4653 69.926 19.652C69.5993 19.8387 69.3473 20.1 69.17 20.436C68.9926 20.772 68.904 21.1687 68.904 21.626C68.904 22.0927 68.9973 22.5033 69.184 22.858C69.3706 23.2033 69.6366 23.474 69.982 23.67C70.3273 23.8567 70.724 23.95 71.172 23.95C71.5453 23.95 71.886 23.8847 72.194 23.754C72.5113 23.6233 72.782 23.4273 73.006 23.166L73.818 23.992C73.5006 24.3653 73.1086 24.65 72.642 24.846C72.1846 25.042 71.6946 25.14 71.172 25.14ZM80.3018 25V21.122C80.3018 20.618 80.1432 20.2027 79.8258 19.876C79.5085 19.5493 79.0978 19.386 78.5938 19.386C78.2578 19.386 77.9592 19.4607 77.6978 19.61C77.4365 19.7593 77.2312 19.9647 77.0818 20.226C76.9325 20.4873 76.8578 20.786 76.8578 21.122L76.3398 20.828C76.3398 20.324 76.4518 19.876 76.6758 19.484C76.8998 19.092 77.2125 18.784 77.6138 18.56C78.0152 18.3267 78.4678 18.21 78.9718 18.21C79.4758 18.21 79.9192 18.336 80.3018 18.588C80.6938 18.84 81.0018 19.1713 81.2258 19.582C81.4498 19.9833 81.5618 20.4127 81.5618 20.87V25H80.3018ZM75.5978 25V18.35H76.8578V25H75.5978ZM84.2077 25V15.564H85.4677V25H84.2077ZM82.5697 19.498V18.35H87.1057V19.498H82.5697ZM90.9629 25.14C90.3563 25.14 89.8056 24.9907 89.3109 24.692C88.8163 24.384 88.4243 23.9687 88.1349 23.446C87.8549 22.9233 87.7149 22.3353 87.7149 21.682C87.7149 21.0287 87.8549 20.4407 88.1349 19.918C88.4243 19.3953 88.8116 18.98 89.2969 18.672C89.7916 18.364 90.3469 18.21 90.9629 18.21C91.4669 18.21 91.9149 18.3173 92.3069 18.532C92.7083 18.7373 93.0303 19.0267 93.2729 19.4C93.5156 19.764 93.6509 20.1887 93.6789 20.674V22.676C93.6509 23.152 93.5156 23.5767 93.2729 23.95C93.0396 24.3233 92.7223 24.6173 92.3209 24.832C91.9289 25.0373 91.4763 25.14 90.9629 25.14ZM91.1729 23.95C91.7983 23.95 92.3023 23.74 92.6849 23.32C93.0676 22.8907 93.2589 22.3447 93.2589 21.682C93.2589 21.2247 93.1703 20.828 92.9929 20.492C92.8249 20.1467 92.5823 19.8807 92.2649 19.694C91.9476 19.498 91.5789 19.4 91.1589 19.4C90.7389 19.4 90.3656 19.498 90.0389 19.694C89.7216 19.89 89.4696 20.1607 89.2829 20.506C89.1056 20.842 89.0169 21.2293 89.0169 21.668C89.0169 22.116 89.1056 22.5127 89.2829 22.858C89.4696 23.194 89.7263 23.46 90.0529 23.656C90.3796 23.852 90.7529 23.95 91.1729 23.95ZM93.1749 25V23.208L93.4129 21.584L93.1749 19.974V18.35H94.4489V25H93.1749ZM96.2974 25V18.35H97.5574V25H96.2974ZM96.9274 17.02C96.694 17.02 96.5027 16.9453 96.3534 16.796C96.204 16.6373 96.1294 16.4413 96.1294 16.208C96.1294 15.984 96.204 15.7973 96.3534 15.648C96.5027 15.4893 96.694 15.41 96.9274 15.41C97.1607 15.41 97.352 15.4893 97.5014 15.648C97.6507 15.7973 97.7254 15.984 97.7254 16.208C97.7254 16.4413 97.6507 16.6373 97.5014 16.796C97.352 16.9453 97.1607 17.02 96.9274 17.02ZM99.4142 25V15.004H100.674V25H99.4142Z" fill="white"/>
<defs>
<filter id="filter0_i_1390_12322" x="0" y="0" width="135" height="45" filterUnits="userSpaceOnUse" color-interpolation-filters="sRGB">
<feFlood flood-opacity="0" result="BackgroundImageFix"/>
<feBlend mode="normal" in="SourceGraphic" in2="BackgroundImageFix" result="shape"/>
<feColorMatrix in="SourceAlpha" type="matrix" values="0 0 0 0 0 0 0 0 0 0 0 0 0 0 0 0 0 0 127 0" result="hardAlpha"/>
<feOffset dx="4" dy="5"/>
<feGaussianBlur stdDeviation="2.5"/>
<feComposite in2="hardAlpha" operator="arithmetic" k2="-1" k3="1"/>
<feColorMatrix type="matrix" values="0 0 0 0 0.156059 0 0 0 0 0.303528 0 0 0 0 0.420833 0 0 0 1 0"/>
<feBlend mode="normal" in2="shape" result="effect1_innerShadow_1390_12322"/>
</filter>
</defs>
</svg>
