<svg width="20" height="20" viewBox="0 0 20 20" fill="none" xmlns="http://www.w3.org/2000/svg">
<path d="M14 20C12.3333 20 10.9167 19.4167 9.75 18.25C8.58333 17.0833 8 15.6667 8 14C8 12.3333 8.58333 10.9167 9.75 9.75C10.9167 8.58333 12.3333 8 14 8C15.6667 8 17.0833 8.58333 18.25 9.75C19.4167 10.9167 20 12.3333 20 14C20 15.6667 19.4167 17.0833 18.25 18.25C17.0833 19.4167 15.6667 20 14 20ZM14 18C15.1 18 16.0417 17.6083 16.825 16.825C17.6083 16.0417 18 15.1 18 14C18 12.9 17.6083 11.9583 16.825 11.175C16.0417 10.3917 15.1 10 14 10C12.9 10 11.9583 10.3917 11.175 11.175C10.3917 11.9583 10 12.9 10 14C10 15.1 10.3917 16.0417 11.175 16.825C11.9583 17.6083 12.9 18 14 18ZM2 18C1.45 18 0.979333 17.8043 0.588 17.413C0.196667 17.0217 0.000666667 16.5507 0 16V8.4C0 8.26667 0.0126668 8.13333 0.0380001 8C0.0633334 7.86667 0.100667 7.73333 0.15 7.6L2.15 3H2C1.71667 3 1.47933 2.904 1.288 2.712C1.09667 2.52 1.00067 2.28267 1 2V1C1 0.716667 1.096 0.479333 1.288 0.288C1.48 0.0966668 1.71733 0.000666667 2 0H9C9.28333 0 9.521 0.0960001 9.713 0.288C9.905 0.48 10.0007 0.717333 10 1V2C10 2.28333 9.904 2.521 9.712 2.713C9.52 2.905 9.28267 3.00067 9 3H8.85L10.5 6.8C10.1833 6.96667 9.88333 7.14167 9.6 7.325C9.31667 7.50833 9.05 7.71667 8.8 7.95L6.7 3H4.3L2 8.4V16H6.25C6.33333 16.35 6.44567 16.696 6.587 17.038C6.72833 17.38 6.89933 17.7007 7.1 18H2ZM14 7C13.3 7 12.7083 6.75833 12.225 6.275C11.7417 5.79167 11.5 5.2 11.5 4.5C11.5 3.8 11.7417 3.20833 12.225 2.725C12.7083 2.24167 13.3 2 14 2V7ZM14 7C14 6.3 14.2417 5.70833 14.725 5.225C15.2083 4.74167 15.8 4.5 16.5 4.5C17.2 4.5 17.7917 4.74167 18.275 5.225C18.7583 5.70833 19 6.3 19 7H14Z" fill="#315D80"/>
</svg>
