<svg width="24" height="18" viewBox="0 0 24 18" fill="none" xmlns="http://www.w3.org/2000/svg">
<path d="M5.41827 16.6667V9.53867L0.198132 1.672C-0.0469699 1.32 -0.0646668 0.953333 0.145041 0.572C0.355634 0.190667 0.671524 0 1.09271 0H11.0738C11.4932 0 11.8082 0.190667 12.0188 0.572C12.2285 0.953333 12.2108 1.32 11.9657 1.672L6.74686 9.53867V16.6667H8.73776C8.92535 16.6667 9.08285 16.7307 9.21027 16.8587C9.33769 16.9867 9.4014 17.1453 9.4014 17.3347C9.4014 17.524 9.33769 17.6822 9.21027 17.8093C9.08285 17.9364 8.92535 18 8.73776 18H3.4287C3.24023 18 3.08228 17.936 2.95486 17.808C2.82833 17.68 2.76507 17.5213 2.76507 17.332C2.76507 17.1427 2.82833 16.9844 2.95486 16.8573C3.08228 16.7302 3.24023 16.6667 3.4287 16.6667H5.41827ZM3.29464 4H8.86916L10.6756 1.33333H1.48691L3.29464 4ZM16.7027 18C15.7825 18 14.9985 17.6764 14.3508 17.0293C13.7048 16.3813 13.3819 15.5947 13.3819 14.6693C13.3819 13.7449 13.7044 12.9578 14.3494 12.308C14.9945 11.6582 15.7776 11.3333 16.6987 11.3333C17.0509 11.3333 17.3871 11.3929 17.7074 11.512C18.0277 11.6302 18.3551 11.8302 18.6896 12.112V1.07867C18.6896 0.772889 18.7927 0.516889 18.9989 0.310666C19.2041 0.104444 19.4585 0.00133324 19.762 0.00133324H22.8254C23.1404 0.00133324 23.4147 0.114667 23.6483 0.341333C23.8819 0.568 23.9991 0.843555 24 1.168C24 1.49244 23.8828 1.77244 23.6483 2.008C23.4138 2.24356 23.1395 2.36089 22.8254 2.36H20.0182V14.6667C20.0182 15.5929 19.6957 16.3796 19.0506 17.0267C18.4065 17.6756 17.6234 18 16.7014 18" fill="#315D80"/>
</svg>
