<svg width="16" height="18" viewBox="0 0 16 18" fill="none" xmlns="http://www.w3.org/2000/svg">
<path d="M14 8.5V4L11.89 5.06C12.0325 5.64848 12.0395 6.26163 11.9104 6.85321C11.7814 7.44478 11.5197 7.99934 11.1451 8.47504C10.7705 8.95074 10.2928 9.33517 9.74799 9.59933C9.20317 9.8635 8.60548 10.0005 8 10C7.39452 10.0005 6.79682 9.8635 6.25201 9.59933C5.70719 9.33517 5.22946 8.95074 4.85487 8.47504C4.48028 7.99934 4.2186 7.44478 4.08957 6.85321C3.96054 6.26163 3.96752 5.64848 4.11 5.06L1 3.5L8 0L15 3.5V8.5H14ZM8 7L6 6C6 7.1 6.9 8 8 8C9.1 8 10 7.1 10 6L8 7ZM10.75 3.42L8.16 2.1L5.47 3.47L8.07 4.79L10.75 3.42ZM8 11C10.67 11 16 12.33 16 15V18H0V15C0 12.33 5.33 11 8 11ZM8 12.9C5 12.9 1.9 14.36 1.9 15V16.1H14.1V15C14.1 14.36 10.97 12.9 8 12.9Z" fill="#315D80"/>
</svg>
