<svg width="25" height="16" viewBox="0 0 25 16" fill="none" xmlns="http://www.w3.org/2000/svg">
<path d="M20.1133 0.5C20.7819 0.5 21.4124 0.626953 22.0049 0.880859C22.5973 1.13477 23.1136 1.48177 23.5537 1.92188C23.9938 2.36198 24.3451 2.88249 24.6074 3.4834C24.8698 4.08431 24.9967 4.71484 24.9883 5.375C24.9883 6.05208 24.8613 6.68262 24.6074 7.2666C24.3535 7.85059 24.0065 8.36686 23.5664 8.81543C23.1263 9.264 22.6058 9.61523 22.0049 9.86914C21.404 10.123 20.7734 10.25 20.1133 10.25H18.8057C18.4333 10.9017 17.9889 11.5026 17.4727 12.0527C16.9564 12.6029 16.3851 13.0853 15.7588 13.5H19.3008C19.5208 13.5 19.7113 13.5804 19.8721 13.7412C20.0329 13.902 20.1133 14.0924 20.1133 14.3125C20.1133 14.5326 20.0329 14.723 19.8721 14.8838C19.7113 15.0446 19.5208 15.125 19.3008 15.125H1.42578C1.20573 15.125 1.0153 15.0446 0.854492 14.8838C0.693685 14.723 0.613281 14.5326 0.613281 14.3125C0.613281 14.0924 0.693685 13.902 0.854492 13.7412C1.0153 13.5804 1.20573 13.5 1.42578 13.5H4.96777C4.28223 13.043 3.67285 12.5182 3.13965 11.9258C2.60645 11.3333 2.14941 10.6901 1.76855 9.99609C1.3877 9.30208 1.10417 8.56152 0.917969 7.77441C0.731771 6.9873 0.630208 6.1875 0.613281 5.375V0.5H20.1133ZM10.3633 13.5C11.1081 13.5 11.8275 13.4027 12.5215 13.208C13.2155 13.0133 13.863 12.7425 14.4639 12.3955C15.0648 12.0485 15.6107 11.6253 16.1016 11.126C16.5924 10.6266 17.0156 10.0765 17.3711 9.47559C17.7266 8.87467 18.0016 8.22721 18.1963 7.5332C18.391 6.83919 18.4883 6.11979 18.4883 5.375V2.125H2.23828V5.375C2.23828 6.11979 2.33561 6.83919 2.53027 7.5332C2.72493 8.22721 2.99577 8.87467 3.34277 9.47559C3.68978 10.0765 4.11296 10.6224 4.6123 11.1133C5.11165 11.6042 5.66178 12.0273 6.2627 12.3828C6.86361 12.7383 7.51107 13.0133 8.20508 13.208C8.89909 13.4027 9.61849 13.5 10.3633 13.5ZM20.1133 8.625C20.5618 8.625 20.9808 8.54036 21.3701 8.37109C21.7594 8.20182 22.1064 7.96908 22.4111 7.67285C22.7158 7.37663 22.9486 7.03385 23.1094 6.64453C23.2702 6.25521 23.3548 5.83203 23.3633 5.375C23.3633 4.92643 23.2786 4.50749 23.1094 4.11816C22.9401 3.72884 22.7074 3.38184 22.4111 3.07715C22.1149 2.77246 21.7721 2.53971 21.3828 2.37891C20.9935 2.2181 20.5703 2.13346 20.1133 2.125C20.1133 2.67513 20.1175 3.22526 20.126 3.77539C20.1344 4.32552 20.1302 4.87142 20.1133 5.41309C20.0964 5.95475 20.0456 6.49219 19.9609 7.02539C19.8763 7.55859 19.7409 8.0918 19.5547 8.625H20.1133Z" fill="#315D80"/>
</svg>
