<svg width="16" height="20" viewBox="0 0 16 20" fill="none" xmlns="http://www.w3.org/2000/svg">
<path fill-rule="evenodd" clip-rule="evenodd" d="M3.25025 5.25086V5.13086C3.25025 3.87108 3.75069 2.6629 4.64149 1.7721C5.53229 0.881304 6.74047 0.380859 8.00025 0.380859C9.26002 0.380859 10.4682 0.881304 11.359 1.7721C12.2498 2.6629 12.7502 3.87108 12.7502 5.13086V5.25086H14.2512C14.8222 5.25086 15.3072 5.66986 15.3912 6.23486L15.6092 7.72786C16.0392 10.6659 16.0392 13.6519 15.6092 16.5899C15.5082 17.2797 15.1801 17.9162 14.6768 18.3986C14.1735 18.8811 13.5237 19.182 12.8302 19.2539L12.2012 19.3189C9.40809 19.6089 6.59241 19.6089 3.79925 19.3189L3.17025 19.2539C2.47675 19.182 1.82699 18.8811 1.32369 18.3986C0.820393 17.9162 0.492284 17.2797 0.391245 16.5899C-0.0392693 13.6515 -0.0392693 10.6662 0.391245 7.72786L0.610246 6.23486C0.650343 5.96142 0.787484 5.71154 0.99661 5.53088C1.20574 5.35021 1.47289 5.25082 1.74925 5.25086H3.25025ZM7.19025 1.98386C7.67035 1.8603 8.17237 1.84822 8.65786 1.94853C9.14336 2.04884 9.59947 2.25889 9.9913 2.56261C10.3831 2.86632 10.7003 3.25565 10.9185 3.70079C11.1367 4.14594 11.2502 4.63511 11.2502 5.13086V5.25086H4.75025V5.13086C4.75034 4.40998 4.99011 3.7096 5.43182 3.1399C5.87353 2.5702 6.49212 2.16352 7.19025 1.98386ZM3.25025 6.75086V9.00086C3.25025 9.19977 3.32926 9.39054 3.46992 9.53119C3.61057 9.67184 3.80133 9.75086 4.00025 9.75086C4.19916 9.75086 4.38992 9.67184 4.53058 9.53119C4.67123 9.39054 4.75025 9.19977 4.75025 9.00086V6.75086H11.2502V9.00086C11.2502 9.19977 11.3293 9.39054 11.4699 9.53119C11.6106 9.67184 11.8013 9.75086 12.0002 9.75086C12.1992 9.75086 12.3899 9.67184 12.5306 9.53119C12.6712 9.39054 12.7502 9.19977 12.7502 9.00086V6.75086H13.9502L14.1252 7.94486C14.5343 10.7393 14.5343 13.5784 14.1252 16.3729C14.0727 16.7328 13.9015 17.065 13.6389 17.3168C13.3762 17.5685 13.0371 17.7255 12.6752 17.7629L12.0462 17.8269C9.35625 18.1069 6.64425 18.1069 3.95425 17.8269L3.32425 17.7619C2.96253 17.7243 2.62367 17.5672 2.36124 17.3155C2.09881 17.0637 1.92779 16.7317 1.87525 16.3719C1.4659 13.5778 1.4659 10.7389 1.87525 7.94486L2.05025 6.75086H3.25025Z" fill="#315D80"/>
</svg>
