<svg width="402" height="402" viewBox="0 0 402 402" fill="none" xmlns="http://www.w3.org/2000/svg">
<g filter="url(#filter0_dii_1170_352)">
<rect width="300.924" height="266.792" rx="100" transform="matrix(0.707286 -0.706928 0.707286 0.706928 0 213.229)" fill="url(#paint0_linear_1170_352)"/>
</g>
<path d="M129.769 187.234V182.598H135.545C136.28 182.598 136.951 182.446 137.559 182.142C138.167 181.838 138.648 181.395 139.003 180.812C139.358 180.229 139.535 179.52 139.535 178.684C139.535 177.873 139.358 177.177 139.003 176.594C138.648 176.011 138.167 175.568 137.559 175.264C136.951 174.96 136.28 174.808 135.545 174.808H129.769V170.172H136.419C138.116 170.172 139.649 170.514 141.017 171.198C142.385 171.882 143.462 172.87 144.247 174.162C145.058 175.429 145.463 176.936 145.463 178.684C145.463 180.432 145.058 181.952 144.247 183.244C143.462 184.511 142.385 185.499 141.017 186.208C139.649 186.892 138.116 187.234 136.419 187.234H129.769ZM125.209 197V170.172H131.175V197H125.209ZM148.538 197V178.532H154.352V197H148.538ZM154.352 186.854L151.92 184.954C152.402 182.801 153.212 181.129 154.352 179.938C155.492 178.747 157.076 178.152 159.102 178.152C159.989 178.152 160.762 178.291 161.42 178.57C162.104 178.823 162.7 179.229 163.206 179.786L159.748 184.156C159.495 183.877 159.178 183.662 158.798 183.51C158.418 183.358 157.988 183.282 157.506 183.282C156.544 183.282 155.771 183.586 155.188 184.194C154.631 184.777 154.352 185.663 154.352 186.854ZM173.128 197.418C171.228 197.418 169.505 197 167.96 196.164C166.44 195.303 165.236 194.137 164.35 192.668C163.463 191.199 163.02 189.552 163.02 187.728C163.02 185.904 163.463 184.27 164.35 182.826C165.236 181.382 166.44 180.242 167.96 179.406C169.48 178.545 171.202 178.114 173.128 178.114C175.053 178.114 176.776 178.532 178.296 179.368C179.816 180.204 181.019 181.357 181.906 182.826C182.792 184.27 183.236 185.904 183.236 187.728C183.236 189.552 182.792 191.199 181.906 192.668C181.019 194.137 179.816 195.303 178.296 196.164C176.776 197 175.053 197.418 173.128 197.418ZM173.128 192.136C173.964 192.136 174.698 191.959 175.332 191.604C175.965 191.224 176.446 190.705 176.776 190.046C177.13 189.362 177.308 188.589 177.308 187.728C177.308 186.867 177.13 186.119 176.776 185.486C176.421 184.827 175.927 184.321 175.294 183.966C174.686 183.586 173.964 183.396 173.128 183.396C172.317 183.396 171.595 183.586 170.962 183.966C170.328 184.321 169.834 184.827 169.48 185.486C169.125 186.145 168.948 186.905 168.948 187.766C168.948 188.602 169.125 189.362 169.48 190.046C169.834 190.705 170.328 191.224 170.962 191.604C171.595 191.959 172.317 192.136 173.128 192.136ZM196.77 197.38C195.529 197.38 194.389 197.139 193.35 196.658C192.311 196.177 191.463 195.518 190.804 194.682C190.145 193.821 189.765 192.845 189.664 191.756V183.966C189.765 182.877 190.145 181.889 190.804 181.002C191.463 180.115 192.311 179.419 193.35 178.912C194.389 178.405 195.529 178.152 196.77 178.152C198.518 178.152 200.063 178.57 201.406 179.406C202.774 180.242 203.838 181.382 204.598 182.826C205.383 184.27 205.776 185.917 205.776 187.766C205.776 189.615 205.383 191.262 204.598 192.706C203.838 194.15 202.774 195.29 201.406 196.126C200.063 196.962 198.518 197.38 196.77 197.38ZM195.706 192.136C196.542 192.136 197.264 191.946 197.872 191.566C198.505 191.186 198.999 190.667 199.354 190.008C199.709 189.349 199.886 188.602 199.886 187.766C199.886 186.905 199.709 186.145 199.354 185.486C198.999 184.827 198.505 184.321 197.872 183.966C197.264 183.586 196.555 183.396 195.744 183.396C194.933 183.396 194.211 183.586 193.578 183.966C192.97 184.321 192.489 184.827 192.134 185.486C191.779 186.145 191.602 186.905 191.602 187.766C191.602 188.602 191.767 189.349 192.096 190.008C192.451 190.667 192.945 191.186 193.578 191.566C194.211 191.946 194.921 192.136 195.706 192.136ZM186.13 204.79V178.532H191.944V183.282L190.994 187.766L191.868 192.25V204.79H186.13ZM217.85 197.418C215.848 197.418 214.062 197.013 212.492 196.202C210.946 195.366 209.73 194.213 208.844 192.744C207.957 191.275 207.514 189.615 207.514 187.766C207.514 185.917 207.944 184.27 208.806 182.826C209.692 181.357 210.883 180.204 212.378 179.368C213.872 178.532 215.557 178.114 217.432 178.114C219.256 178.114 220.864 178.507 222.258 179.292C223.651 180.077 224.74 181.167 225.526 182.56C226.336 183.953 226.742 185.549 226.742 187.348C226.742 187.677 226.716 188.032 226.666 188.412C226.64 188.767 226.577 189.185 226.476 189.666L210.554 189.704V185.714L224.006 185.676L221.498 187.348C221.472 186.284 221.308 185.41 221.004 184.726C220.7 184.017 220.244 183.485 219.636 183.13C219.053 182.75 218.331 182.56 217.47 182.56C216.558 182.56 215.76 182.775 215.076 183.206C214.417 183.611 213.898 184.194 213.518 184.954C213.163 185.714 212.986 186.639 212.986 187.728C212.986 188.817 213.176 189.755 213.556 190.54C213.961 191.3 214.518 191.895 215.228 192.326C215.962 192.731 216.824 192.934 217.812 192.934C218.724 192.934 219.547 192.782 220.282 192.478C221.016 192.149 221.662 191.667 222.22 191.034L225.412 194.226C224.5 195.29 223.398 196.088 222.106 196.62C220.814 197.152 219.395 197.418 217.85 197.418ZM229.548 197V178.532H235.362V197H229.548ZM235.362 186.854L232.93 184.954C233.411 182.801 234.222 181.129 235.362 179.938C236.502 178.747 238.085 178.152 240.112 178.152C240.999 178.152 241.771 178.291 242.43 178.57C243.114 178.823 243.709 179.229 244.216 179.786L240.758 184.156C240.505 183.877 240.188 183.662 239.808 183.51C239.428 183.358 238.997 183.282 238.516 183.282C237.553 183.282 236.781 183.586 236.198 184.194C235.641 184.777 235.362 185.663 235.362 186.854ZM248.572 197V170.894H254.386V197H248.572ZM244.392 183.472V178.532H258.566V183.472H244.392ZM266.828 197.076L259.228 178.532H265.498L270.324 193.238H268.006L272.946 178.532H279.216L271.312 197.076H266.828ZM262.078 204.79L267.626 192.82L271.312 197.076L268.044 204.79H262.078ZM86.9492 235V208.172H91.2052L101.769 224.626H99.6032L110.129 208.172H114.423V235H108.457V218.242L109.521 218.508L102.643 229.224H98.6912L91.8512 218.508L92.8772 218.242V235H86.9492ZM126.75 235.38C125.053 235.38 123.533 234.962 122.19 234.126C120.873 233.29 119.822 232.15 119.036 230.706C118.276 229.262 117.896 227.615 117.896 225.766C117.896 223.917 118.276 222.27 119.036 220.826C119.822 219.382 120.873 218.242 122.19 217.406C123.533 216.57 125.053 216.152 126.75 216.152C127.992 216.152 129.106 216.393 130.094 216.874C131.108 217.355 131.931 218.027 132.564 218.888C133.198 219.724 133.552 220.687 133.628 221.776V229.756C133.552 230.845 133.198 231.821 132.564 232.682C131.956 233.518 131.146 234.177 130.132 234.658C129.119 235.139 127.992 235.38 126.75 235.38ZM127.928 230.136C129.17 230.136 130.17 229.731 130.93 228.92C131.69 228.084 132.07 227.033 132.07 225.766C132.07 224.905 131.893 224.145 131.538 223.486C131.209 222.827 130.728 222.321 130.094 221.966C129.486 221.586 128.777 221.396 127.966 221.396C127.156 221.396 126.434 221.586 125.8 221.966C125.192 222.321 124.698 222.827 124.318 223.486C123.964 224.145 123.786 224.905 123.786 225.766C123.786 226.602 123.964 227.349 124.318 228.008C124.673 228.667 125.167 229.186 125.8 229.566C126.434 229.946 127.143 230.136 127.928 230.136ZM131.842 235V230.022L132.716 225.538L131.842 221.054V216.532H137.542V235H131.842ZM153.834 235V224.474C153.834 223.511 153.53 222.739 152.922 222.156C152.339 221.548 151.592 221.244 150.68 221.244C150.047 221.244 149.489 221.383 149.008 221.662C148.527 221.915 148.147 222.295 147.868 222.802C147.589 223.283 147.45 223.841 147.45 224.474L145.208 223.372C145.208 221.928 145.525 220.661 146.158 219.572C146.791 218.483 147.665 217.647 148.78 217.064C149.92 216.456 151.199 216.152 152.618 216.152C153.986 216.152 155.189 216.481 156.228 217.14C157.292 217.773 158.128 218.622 158.736 219.686C159.344 220.75 159.648 221.915 159.648 223.182V235H153.834ZM141.636 235V216.532H147.45V235H141.636ZM171.096 235.38C169.399 235.38 167.879 234.962 166.536 234.126C165.219 233.29 164.167 232.15 163.382 230.706C162.622 229.262 162.242 227.615 162.242 225.766C162.242 223.917 162.622 222.27 163.382 220.826C164.167 219.382 165.219 218.242 166.536 217.406C167.879 216.57 169.399 216.152 171.096 216.152C172.337 216.152 173.452 216.393 174.44 216.874C175.453 217.355 176.277 218.027 176.91 218.888C177.543 219.724 177.898 220.687 177.974 221.776V229.756C177.898 230.845 177.543 231.821 176.91 232.682C176.302 233.518 175.491 234.177 174.478 234.658C173.465 235.139 172.337 235.38 171.096 235.38ZM172.274 230.136C173.515 230.136 174.516 229.731 175.276 228.92C176.036 228.084 176.416 227.033 176.416 225.766C176.416 224.905 176.239 224.145 175.884 223.486C175.555 222.827 175.073 222.321 174.44 221.966C173.832 221.586 173.123 221.396 172.312 221.396C171.501 221.396 170.779 221.586 170.146 221.966C169.538 222.321 169.044 222.827 168.664 223.486C168.309 224.145 168.132 224.905 168.132 225.766C168.132 226.602 168.309 227.349 168.664 228.008C169.019 228.667 169.513 229.186 170.146 229.566C170.779 229.946 171.489 230.136 172.274 230.136ZM176.188 235V230.022L177.062 225.538L176.188 221.054V216.532H181.888V235H176.188ZM193.81 243.284C191.783 243.284 189.997 242.929 188.452 242.22C186.932 241.536 185.728 240.561 184.842 239.294L188.414 235.722C189.072 236.507 189.807 237.103 190.618 237.508C191.454 237.913 192.454 238.116 193.62 238.116C195.064 238.116 196.191 237.761 197.002 237.052C197.838 236.343 198.256 235.342 198.256 234.05V229.338L199.244 225.31L198.37 221.282V216.532H204.07V233.898C204.07 235.798 203.626 237.445 202.74 238.838C201.853 240.231 200.637 241.321 199.092 242.106C197.546 242.891 195.786 243.284 193.81 243.284ZM193.544 234.43C191.846 234.43 190.339 234.025 189.022 233.214C187.704 232.403 186.666 231.301 185.906 229.908C185.146 228.515 184.766 226.969 184.766 225.272C184.766 223.549 185.146 222.004 185.906 220.636C186.666 219.243 187.704 218.153 189.022 217.368C190.339 216.557 191.846 216.152 193.544 216.152C194.81 216.152 195.938 216.393 196.926 216.874C197.939 217.33 198.75 217.989 199.358 218.85C199.991 219.686 200.346 220.661 200.422 221.776V228.806C200.346 229.895 199.991 230.871 199.358 231.732C198.75 232.568 197.939 233.227 196.926 233.708C195.912 234.189 194.785 234.43 193.544 234.43ZM194.646 229.262C195.456 229.262 196.153 229.085 196.736 228.73C197.344 228.375 197.8 227.907 198.104 227.324C198.433 226.716 198.598 226.032 198.598 225.272C198.598 224.512 198.433 223.828 198.104 223.22C197.8 222.612 197.344 222.131 196.736 221.776C196.153 221.421 195.456 221.244 194.646 221.244C193.86 221.244 193.164 221.421 192.556 221.776C191.948 222.131 191.479 222.612 191.15 223.22C190.82 223.828 190.656 224.512 190.656 225.272C190.656 225.981 190.82 226.653 191.15 227.286C191.479 227.894 191.935 228.375 192.518 228.73C193.126 229.085 193.835 229.262 194.646 229.262ZM217.293 235.418C215.292 235.418 213.506 235.013 211.935 234.202C210.39 233.366 209.174 232.213 208.287 230.744C207.4 229.275 206.957 227.615 206.957 225.766C206.957 223.917 207.388 222.27 208.249 220.826C209.136 219.357 210.326 218.204 211.821 217.368C213.316 216.532 215 216.114 216.875 216.114C218.699 216.114 220.308 216.507 221.701 217.292C223.094 218.077 224.184 219.167 224.969 220.56C225.78 221.953 226.185 223.549 226.185 225.348C226.185 225.677 226.16 226.032 226.109 226.412C226.084 226.767 226.02 227.185 225.919 227.666L209.997 227.704V223.714L223.449 223.676L220.941 225.348C220.916 224.284 220.751 223.41 220.447 222.726C220.143 222.017 219.687 221.485 219.079 221.13C218.496 220.75 217.774 220.56 216.913 220.56C216.001 220.56 215.203 220.775 214.519 221.206C213.86 221.611 213.341 222.194 212.961 222.954C212.606 223.714 212.429 224.639 212.429 225.728C212.429 226.817 212.619 227.755 212.999 228.54C213.404 229.3 213.962 229.895 214.671 230.326C215.406 230.731 216.267 230.934 217.255 230.934C218.167 230.934 218.99 230.782 219.725 230.478C220.46 230.149 221.106 229.667 221.663 229.034L224.855 232.226C223.943 233.29 222.841 234.088 221.549 234.62C220.257 235.152 218.838 235.418 217.293 235.418ZM228.991 235V216.532H234.805V235H228.991ZM240.809 235V224.208C240.809 223.271 240.518 222.549 239.935 222.042C239.378 221.51 238.681 221.244 237.845 221.244C237.263 221.244 236.743 221.371 236.287 221.624C235.831 221.852 235.464 222.181 235.185 222.612C234.932 223.043 234.805 223.575 234.805 224.208L232.563 223.22C232.563 221.751 232.88 220.497 233.513 219.458C234.147 218.394 235.008 217.583 236.097 217.026C237.187 216.443 238.415 216.152 239.783 216.152C241.075 216.152 242.228 216.443 243.241 217.026C244.28 217.609 245.103 218.419 245.711 219.458C246.319 220.497 246.623 221.738 246.623 223.182V235H240.809ZM252.627 235V224.208C252.627 223.271 252.336 222.549 251.753 222.042C251.196 221.51 250.499 221.244 249.663 221.244C249.081 221.244 248.561 221.371 248.105 221.624C247.649 221.852 247.282 222.181 247.003 222.612C246.75 223.043 246.623 223.575 246.623 224.208L243.279 223.752C243.33 222.181 243.697 220.839 244.381 219.724C245.091 218.584 246.015 217.71 247.155 217.102C248.321 216.469 249.625 216.152 251.069 216.152C252.488 216.152 253.742 216.456 254.831 217.064C255.946 217.647 256.82 218.495 257.453 219.61C258.112 220.699 258.441 222.017 258.441 223.562V235H252.627ZM271.287 235.418C269.286 235.418 267.5 235.013 265.929 234.202C264.384 233.366 263.168 232.213 262.281 230.744C261.395 229.275 260.951 227.615 260.951 225.766C260.951 223.917 261.382 222.27 262.243 220.826C263.13 219.357 264.321 218.204 265.815 217.368C267.31 216.532 268.995 216.114 270.869 216.114C272.693 216.114 274.302 216.507 275.695 217.292C277.089 218.077 278.178 219.167 278.963 220.56C279.774 221.953 280.179 223.549 280.179 225.348C280.179 225.677 280.154 226.032 280.103 226.412C280.078 226.767 280.015 227.185 279.913 227.666L263.991 227.704V223.714L277.443 223.676L274.935 225.348C274.91 224.284 274.745 223.41 274.441 222.726C274.137 222.017 273.681 221.485 273.073 221.13C272.491 220.75 271.769 220.56 270.907 220.56C269.995 220.56 269.197 220.775 268.513 221.206C267.855 221.611 267.335 222.194 266.955 222.954C266.601 223.714 266.423 224.639 266.423 225.728C266.423 226.817 266.613 227.755 266.993 228.54C267.399 229.3 267.956 229.895 268.665 230.326C269.4 230.731 270.261 230.934 271.249 230.934C272.161 230.934 272.985 230.782 273.719 230.478C274.454 230.149 275.1 229.667 275.657 229.034L278.849 232.226C277.937 233.29 276.835 234.088 275.543 234.62C274.251 235.152 272.833 235.418 271.287 235.418ZM295.184 235V224.474C295.184 223.511 294.88 222.739 294.272 222.156C293.689 221.548 292.942 221.244 292.03 221.244C291.396 221.244 290.839 221.383 290.358 221.662C289.876 221.915 289.496 222.295 289.218 222.802C288.939 223.283 288.8 223.841 288.8 224.474L286.558 223.372C286.558 221.928 286.874 220.661 287.508 219.572C288.141 218.483 289.015 217.647 290.13 217.064C291.27 216.456 292.549 216.152 293.968 216.152C295.336 216.152 296.539 216.481 297.578 217.14C298.642 217.773 299.478 218.622 300.086 219.686C300.694 220.75 300.998 221.915 300.998 223.182V235H295.184ZM282.986 235V216.532H288.8V235H282.986ZM307.131 235V208.894H312.945V235H307.131ZM302.951 221.472V216.532H317.125V221.472H302.951Z" fill="white"/>
<defs>
<filter id="filter0_dii_1170_352" x="29.4316" y="21.9082" width="342.674" height="346.513" filterUnits="userSpaceOnUse" color-interpolation-filters="sRGB">
<feFlood flood-opacity="0" result="BackgroundImageFix"/>
<feColorMatrix in="SourceAlpha" type="matrix" values="0 0 0 0 0 0 0 0 0 0 0 0 0 0 0 0 0 0 127 0" result="hardAlpha"/>
<feOffset dy="-8"/>
<feGaussianBlur stdDeviation="6"/>
<feComposite in2="hardAlpha" operator="out"/>
<feColorMatrix type="matrix" values="0 0 0 0 0.192157 0 0 0 0 0.364706 0 0 0 0 0.501961 0 0 0 0.4 0"/>
<feBlend mode="normal" in2="BackgroundImageFix" result="effect1_dropShadow_1170_352"/>
<feBlend mode="normal" in="SourceGraphic" in2="effect1_dropShadow_1170_352" result="shape"/>
<feColorMatrix in="SourceAlpha" type="matrix" values="0 0 0 0 0 0 0 0 0 0 0 0 0 0 0 0 0 0 127 0" result="hardAlpha"/>
<feMorphology radius="6" operator="dilate" in="SourceAlpha" result="effect2_innerShadow_1170_352"/>
<feOffset dx="2" dy="-16"/>
<feGaussianBlur stdDeviation="7"/>
<feComposite in2="hardAlpha" operator="arithmetic" k2="-1" k3="1"/>
<feColorMatrix type="matrix" values="0 0 0 0 0.38 0 0 0 0 0.617736 0 0 0 0 0.8 0 0 0 1 0"/>
<feBlend mode="normal" in2="shape" result="effect2_innerShadow_1170_352"/>
<feColorMatrix in="SourceAlpha" type="matrix" values="0 0 0 0 0 0 0 0 0 0 0 0 0 0 0 0 0 0 127 0" result="hardAlpha"/>
<feMorphology radius="4" operator="dilate" in="SourceAlpha" result="effect3_innerShadow_1170_352"/>
<feOffset dy="8"/>
<feGaussianBlur stdDeviation="10.5"/>
<feComposite in2="hardAlpha" operator="arithmetic" k2="-1" k3="1"/>
<feColorMatrix type="matrix" values="0 0 0 0 0.0833333 0 0 0 0 0.286022 0 0 0 0 0.625 0 0 0 0.51 0"/>
<feBlend mode="normal" in2="effect2_innerShadow_1170_352" result="effect3_innerShadow_1170_352"/>
</filter>
<linearGradient id="paint0_linear_1170_352" x1="150.462" y1="0" x2="150.462" y2="266.792" gradientUnits="userSpaceOnUse">
<stop stop-color="#315D80"/>
<stop offset="1" stop-color="#4D7EA5"/>
</linearGradient>
</defs>
</svg>
