<svg width="406" height="406" viewBox="0 0 406 406" fill="none" xmlns="http://www.w3.org/2000/svg">
<g filter="url(#filter0_dii_1170_338)">
<rect width="302.909" height="270.057" rx="100" transform="matrix(0.707286 -0.706928 0.707286 0.706928 0 214.135)" fill="#6B5E7A"/>
</g>
<path d="M153.368 187.942V183.534H159.03C160.22 183.534 161.132 183.23 161.766 182.622C162.424 182.014 162.754 181.191 162.754 180.152C162.754 179.189 162.437 178.391 161.804 177.758C161.17 177.125 160.258 176.808 159.068 176.808H153.368V172.172H159.752C161.525 172.172 163.083 172.514 164.426 173.198C165.768 173.857 166.82 174.781 167.58 175.972C168.34 177.163 168.72 178.531 168.72 180.076C168.72 181.647 168.34 183.027 167.58 184.218C166.82 185.383 165.756 186.295 164.388 186.954C163.02 187.613 161.411 187.942 159.562 187.942H153.368ZM148.808 199V172.172H154.774V199H148.808ZM163.4 199L155.04 187.448L160.512 185.966L170.468 199H163.4ZM181.183 199.418C179.181 199.418 177.395 199.013 175.825 198.202C174.279 197.366 173.063 196.213 172.177 194.744C171.29 193.275 170.847 191.615 170.847 189.766C170.847 187.917 171.277 186.27 172.139 184.826C173.025 183.357 174.216 182.204 175.711 181.368C177.205 180.532 178.89 180.114 180.765 180.114C182.589 180.114 184.197 180.507 185.591 181.292C186.984 182.077 188.073 183.167 188.859 184.56C189.669 185.953 190.075 187.549 190.075 189.348C190.075 189.677 190.049 190.032 189.999 190.412C189.973 190.767 189.91 191.185 189.809 191.666L173.887 191.704V187.714L187.339 187.676L184.831 189.348C184.805 188.284 184.641 187.41 184.337 186.726C184.033 186.017 183.577 185.485 182.969 185.13C182.386 184.75 181.664 184.56 180.803 184.56C179.891 184.56 179.093 184.775 178.409 185.206C177.75 185.611 177.231 186.194 176.851 186.954C176.496 187.714 176.319 188.639 176.319 189.728C176.319 190.817 176.509 191.755 176.889 192.54C177.294 193.3 177.851 193.895 178.561 194.326C179.295 194.731 180.157 194.934 181.145 194.934C182.057 194.934 182.88 194.782 183.615 194.478C184.349 194.149 184.995 193.667 185.553 193.034L188.745 196.226C187.833 197.29 186.731 198.088 185.439 198.62C184.147 199.152 182.728 199.418 181.183 199.418ZM205.079 199V188.474C205.079 187.511 204.775 186.739 204.167 186.156C203.584 185.548 202.837 185.244 201.925 185.244C201.292 185.244 200.734 185.383 200.253 185.662C199.772 185.915 199.392 186.295 199.113 186.802C198.834 187.283 198.695 187.841 198.695 188.474L196.453 187.372C196.453 185.928 196.77 184.661 197.403 183.572C198.036 182.483 198.91 181.647 200.025 181.064C201.165 180.456 202.444 180.152 203.863 180.152C205.231 180.152 206.434 180.481 207.473 181.14C208.537 181.773 209.373 182.622 209.981 183.686C210.589 184.75 210.893 185.915 210.893 187.182V199H205.079ZM192.881 199V180.532H198.695V199H192.881ZM217.027 199V172.894H222.841V199H217.027ZM212.847 185.472V180.532H227.021V185.472H212.847ZM236.925 199.38C235.228 199.38 233.708 198.962 232.365 198.126C231.048 197.29 229.997 196.15 229.211 194.706C228.451 193.262 228.071 191.615 228.071 189.766C228.071 187.917 228.451 186.27 229.211 184.826C229.997 183.382 231.048 182.242 232.365 181.406C233.708 180.57 235.228 180.152 236.925 180.152C238.167 180.152 239.281 180.393 240.269 180.874C241.283 181.355 242.106 182.027 242.739 182.888C243.373 183.724 243.727 184.687 243.803 185.776V193.756C243.727 194.845 243.373 195.821 242.739 196.682C242.131 197.518 241.321 198.177 240.307 198.658C239.294 199.139 238.167 199.38 236.925 199.38ZM238.103 194.136C239.345 194.136 240.345 193.731 241.105 192.92C241.865 192.084 242.245 191.033 242.245 189.766C242.245 188.905 242.068 188.145 241.713 187.486C241.384 186.827 240.903 186.321 240.269 185.966C239.661 185.586 238.952 185.396 238.141 185.396C237.331 185.396 236.609 185.586 235.975 185.966C235.367 186.321 234.873 186.827 234.493 187.486C234.139 188.145 233.961 188.905 233.961 189.766C233.961 190.602 234.139 191.349 234.493 192.008C234.848 192.667 235.342 193.186 235.975 193.566C236.609 193.946 237.318 194.136 238.103 194.136ZM242.017 199V194.022L242.891 189.538L242.017 185.054V180.532H247.717V199H242.017ZM251.811 199V171.412H257.625V199H251.811ZM123.592 237.418C121.641 237.418 119.804 237.063 118.082 236.354C116.384 235.645 114.902 234.669 113.636 233.428C112.369 232.161 111.368 230.692 110.634 229.02C109.924 227.323 109.57 225.499 109.57 223.548C109.57 221.597 109.937 219.786 110.672 218.114C111.406 216.442 112.42 214.985 113.712 213.744C115.029 212.477 116.562 211.502 118.31 210.818C120.058 210.109 121.932 209.754 123.934 209.754C126.239 209.754 128.329 210.172 130.204 211.008C132.104 211.844 133.674 212.997 134.916 214.466L130.85 218.532C129.988 217.417 128.975 216.581 127.81 216.024C126.644 215.467 125.327 215.188 123.858 215.188C122.287 215.188 120.881 215.543 119.64 216.252C118.398 216.936 117.423 217.911 116.714 219.178C116.03 220.419 115.688 221.876 115.688 223.548C115.688 225.22 116.03 226.689 116.714 227.956C117.398 229.223 118.335 230.211 119.526 230.92C120.716 231.629 122.084 231.984 123.63 231.984C125.2 231.984 126.53 231.693 127.62 231.11C128.734 230.502 129.583 229.641 130.166 228.526C130.774 227.386 131.078 226.005 131.078 224.384L135.03 227.044L123.06 226.854V221.8H137.158V222.674C137.158 225.891 136.575 228.602 135.41 230.806C134.27 232.985 132.674 234.631 130.622 235.746C128.595 236.861 126.252 237.418 123.592 237.418ZM148.449 237.418C146.752 237.418 145.245 237.076 143.927 236.392C142.635 235.683 141.622 234.72 140.887 233.504C140.153 232.263 139.785 230.844 139.785 229.248V218.532H145.599V229.172C145.599 229.805 145.701 230.35 145.903 230.806C146.131 231.262 146.461 231.617 146.891 231.87C147.322 232.123 147.841 232.25 148.449 232.25C149.311 232.25 149.995 231.984 150.501 231.452C151.008 230.895 151.261 230.135 151.261 229.172V218.532H157.075V229.21C157.075 230.831 156.708 232.263 155.973 233.504C155.239 234.72 154.225 235.683 152.933 236.392C151.641 237.076 150.147 237.418 148.449 237.418ZM168.44 237.38C166.742 237.38 165.222 236.962 163.88 236.126C162.562 235.29 161.511 234.15 160.726 232.706C159.966 231.262 159.586 229.615 159.586 227.766C159.586 225.917 159.966 224.27 160.726 222.826C161.511 221.382 162.562 220.242 163.88 219.406C165.222 218.57 166.742 218.152 168.44 218.152C169.681 218.152 170.796 218.393 171.784 218.874C172.797 219.355 173.62 220.027 174.254 220.888C174.887 221.724 175.242 222.687 175.318 223.776V231.756C175.242 232.845 174.887 233.821 174.254 234.682C173.646 235.518 172.835 236.177 171.822 236.658C170.808 237.139 169.681 237.38 168.44 237.38ZM169.618 232.136C170.859 232.136 171.86 231.731 172.62 230.92C173.38 230.084 173.76 229.033 173.76 227.766C173.76 226.905 173.582 226.145 173.228 225.486C172.898 224.827 172.417 224.321 171.784 223.966C171.176 223.586 170.466 223.396 169.656 223.396C168.845 223.396 168.123 223.586 167.49 223.966C166.882 224.321 166.388 224.827 166.008 225.486C165.653 226.145 165.476 226.905 165.476 227.766C165.476 228.602 165.653 229.349 166.008 230.008C166.362 230.667 166.856 231.186 167.49 231.566C168.123 231.946 168.832 232.136 169.618 232.136ZM173.532 237V232.022L174.406 227.538L173.532 223.054V218.532H179.232V237H173.532ZM183.325 237V218.532H189.139V237H183.325ZM189.139 226.854L186.707 224.954C187.189 222.801 187.999 221.129 189.139 219.938C190.279 218.747 191.863 218.152 193.889 218.152C194.776 218.152 195.549 218.291 196.207 218.57C196.891 218.823 197.487 219.229 197.993 219.786L194.535 224.156C194.282 223.877 193.965 223.662 193.585 223.51C193.205 223.358 192.775 223.282 192.293 223.282C191.331 223.282 190.558 223.586 189.975 224.194C189.418 224.777 189.139 225.663 189.139 226.854ZM206.737 237.38C205.039 237.38 203.519 236.962 202.177 236.126C200.859 235.29 199.808 234.15 199.023 232.706C198.263 231.262 197.883 229.615 197.883 227.766C197.883 225.917 198.263 224.27 199.023 222.826C199.808 221.382 200.859 220.242 202.177 219.406C203.519 218.57 205.039 218.152 206.737 218.152C207.978 218.152 209.093 218.393 210.081 218.874C211.094 219.355 211.917 220.027 212.551 220.888C213.184 221.724 213.539 222.687 213.615 223.776V231.756C213.539 232.845 213.184 233.821 212.551 234.682C211.943 235.518 211.132 236.177 210.119 236.658C209.105 237.139 207.978 237.38 206.737 237.38ZM207.915 232.136C209.156 232.136 210.157 231.731 210.917 230.92C211.677 230.084 212.057 229.033 212.057 227.766C212.057 226.905 211.879 226.145 211.525 225.486C211.195 224.827 210.714 224.321 210.081 223.966C209.473 223.586 208.763 223.396 207.953 223.396C207.142 223.396 206.42 223.586 205.787 223.966C205.179 224.321 204.685 224.827 204.305 225.486C203.95 226.145 203.773 226.905 203.773 227.766C203.773 228.602 203.95 229.349 204.305 230.008C204.659 230.667 205.153 231.186 205.787 231.566C206.42 231.946 207.129 232.136 207.915 232.136ZM211.829 237V232.022L212.703 227.538L211.829 223.054V218.532H217.529V237H211.829ZM233.82 237V226.474C233.82 225.511 233.516 224.739 232.908 224.156C232.326 223.548 231.578 223.244 230.666 223.244C230.033 223.244 229.476 223.383 228.994 223.662C228.513 223.915 228.133 224.295 227.854 224.802C227.576 225.283 227.436 225.841 227.436 226.474L225.194 225.372C225.194 223.928 225.511 222.661 226.144 221.572C226.778 220.483 227.652 219.647 228.766 219.064C229.906 218.456 231.186 218.152 232.604 218.152C233.972 218.152 235.176 218.481 236.214 219.14C237.278 219.773 238.114 220.622 238.722 221.686C239.33 222.75 239.634 223.915 239.634 225.182V237H233.82ZM221.622 237V218.532H227.436V237H221.622ZM245.768 237V210.894H251.582V237H245.768ZM241.588 223.472V218.532H255.762V223.472H241.588ZM267.072 237.418C265.071 237.418 263.285 237.013 261.714 236.202C260.169 235.366 258.953 234.213 258.066 232.744C257.18 231.275 256.736 229.615 256.736 227.766C256.736 225.917 257.167 224.27 258.028 222.826C258.915 221.357 260.106 220.204 261.6 219.368C263.095 218.532 264.78 218.114 266.654 218.114C268.478 218.114 270.087 218.507 271.48 219.292C272.874 220.077 273.963 221.167 274.748 222.56C275.559 223.953 275.964 225.549 275.964 227.348C275.964 227.677 275.939 228.032 275.888 228.412C275.863 228.767 275.8 229.185 275.698 229.666L259.776 229.704V225.714L273.228 225.676L270.72 227.348C270.695 226.284 270.53 225.41 270.226 224.726C269.922 224.017 269.466 223.485 268.858 223.13C268.276 222.75 267.554 222.56 266.692 222.56C265.78 222.56 264.982 222.775 264.298 223.206C263.64 223.611 263.12 224.194 262.74 224.954C262.386 225.714 262.208 226.639 262.208 227.728C262.208 228.817 262.398 229.755 262.778 230.54C263.184 231.3 263.741 231.895 264.45 232.326C265.185 232.731 266.046 232.934 267.034 232.934C267.946 232.934 268.77 232.782 269.504 232.478C270.239 232.149 270.885 231.667 271.442 231.034L274.634 234.226C273.722 235.29 272.62 236.088 271.328 236.62C270.036 237.152 268.618 237.418 267.072 237.418ZM287.891 237.418C285.889 237.418 284.103 237.013 282.533 236.202C280.987 235.366 279.771 234.213 278.885 232.744C277.998 231.275 277.555 229.615 277.555 227.766C277.555 225.917 277.985 224.27 278.847 222.826C279.733 221.357 280.924 220.204 282.419 219.368C283.913 218.532 285.598 218.114 287.473 218.114C289.297 218.114 290.905 218.507 292.299 219.292C293.692 220.077 294.781 221.167 295.567 222.56C296.377 223.953 296.783 225.549 296.783 227.348C296.783 227.677 296.757 228.032 296.707 228.412C296.681 228.767 296.618 229.185 296.517 229.666L280.595 229.704V225.714L294.047 225.676L291.539 227.348C291.513 226.284 291.349 225.41 291.045 224.726C290.741 224.017 290.285 223.485 289.677 223.13C289.094 222.75 288.372 222.56 287.511 222.56C286.599 222.56 285.801 222.775 285.117 223.206C284.458 223.611 283.939 224.194 283.559 224.954C283.204 225.714 283.027 226.639 283.027 227.728C283.027 228.817 283.217 229.755 283.597 230.54C284.002 231.3 284.559 231.895 285.269 232.326C286.003 232.731 286.865 232.934 287.853 232.934C288.765 232.934 289.588 232.782 290.323 232.478C291.057 232.149 291.703 231.667 292.261 231.034L295.453 234.226C294.541 235.29 293.439 236.088 292.147 236.62C290.855 237.152 289.436 237.418 287.891 237.418Z" fill="white"/>
<defs>
<filter id="filter0_dii_1170_338" x="38.4316" y="34.4111" width="334.387" height="341.224" filterUnits="userSpaceOnUse" color-interpolation-filters="sRGB">
<feFlood flood-opacity="0" result="BackgroundImageFix"/>
<feColorMatrix in="SourceAlpha" type="matrix" values="0 0 0 0 0 0 0 0 0 0 0 0 0 0 0 0 0 0 127 0" result="hardAlpha"/>
<feOffset dx="3" dy="6"/>
<feGaussianBlur stdDeviation="3"/>
<feComposite in2="hardAlpha" operator="out"/>
<feColorMatrix type="matrix" values="0 0 0 0 0.0875 0 0 0 0 0.0875 0 0 0 0 0.0875 0 0 0 0.1 0"/>
<feBlend mode="normal" in2="BackgroundImageFix" result="effect1_dropShadow_1170_338"/>
<feBlend mode="normal" in="SourceGraphic" in2="effect1_dropShadow_1170_338" result="shape"/>
<feColorMatrix in="SourceAlpha" type="matrix" values="0 0 0 0 0 0 0 0 0 0 0 0 0 0 0 0 0 0 127 0" result="hardAlpha"/>
<feMorphology radius="2" operator="erode" in="SourceAlpha" result="effect2_innerShadow_1170_338"/>
<feOffset dx="-3" dy="8"/>
<feGaussianBlur stdDeviation="6"/>
<feComposite in2="hardAlpha" operator="arithmetic" k2="-1" k3="1"/>
<feColorMatrix type="matrix" values="0 0 0 0 0.36756 0 0 0 0 0.310556 0 0 0 0 0.433333 0 0 0 1 0"/>
<feBlend mode="normal" in2="shape" result="effect2_innerShadow_1170_338"/>
<feColorMatrix in="SourceAlpha" type="matrix" values="0 0 0 0 0 0 0 0 0 0 0 0 0 0 0 0 0 0 127 0" result="hardAlpha"/>
<feOffset dx="-2" dy="-7"/>
<feGaussianBlur stdDeviation="7"/>
<feComposite in2="hardAlpha" operator="arithmetic" k2="-1" k3="1"/>
<feColorMatrix type="matrix" values="0 0 0 0 0.666295 0 0 0 0 0.59375 0 0 0 0 0.75 0 0 0 0.5 0"/>
<feBlend mode="normal" in2="effect2_innerShadow_1170_338" result="effect3_innerShadow_1170_338"/>
</filter>
</defs>
</svg>
