<svg width="406" height="406" viewBox="0 0 406 406" fill="none" xmlns="http://www.w3.org/2000/svg">
<g filter="url(#filter0_dii_1170_343)">
<rect width="302.909" height="270.057" rx="100" transform="matrix(0.707286 -0.706928 0.707286 0.706928 0 214.133)" fill="#C06A87"/>
</g>
<path d="M148.799 196V169.552H154.765V196H148.799ZM140.401 174.378V169.172H163.163V174.378H140.401ZM170.666 196.418C168.665 196.418 166.879 196.013 165.308 195.202C163.763 194.366 162.547 193.213 161.66 191.744C160.773 190.275 160.33 188.615 160.33 186.766C160.33 184.917 160.761 183.27 161.622 181.826C162.509 180.357 163.699 179.204 165.194 178.368C166.689 177.532 168.373 177.114 170.248 177.114C172.072 177.114 173.681 177.507 175.074 178.292C176.467 179.077 177.557 180.167 178.342 181.56C179.153 182.953 179.558 184.549 179.558 186.348C179.558 186.677 179.533 187.032 179.482 187.412C179.457 187.767 179.393 188.185 179.292 188.666L163.37 188.704V184.714L176.822 184.676L174.314 186.348C174.289 185.284 174.124 184.41 173.82 183.726C173.516 183.017 173.06 182.485 172.452 182.13C171.869 181.75 171.147 181.56 170.286 181.56C169.374 181.56 168.576 181.775 167.892 182.206C167.233 182.611 166.714 183.194 166.334 183.954C165.979 184.714 165.802 185.639 165.802 186.728C165.802 187.817 165.992 188.755 166.372 189.54C166.777 190.3 167.335 190.895 168.044 191.326C168.779 191.731 169.64 191.934 170.628 191.934C171.54 191.934 172.363 191.782 173.098 191.478C173.833 191.149 174.479 190.667 175.036 190.034L178.228 193.226C177.316 194.29 176.214 195.088 174.922 195.62C173.63 196.152 172.211 196.418 170.666 196.418ZM194.563 196V185.474C194.563 184.511 194.259 183.739 193.651 183.156C193.068 182.548 192.321 182.244 191.409 182.244C190.775 182.244 190.218 182.383 189.737 182.662C189.255 182.915 188.875 183.295 188.597 183.802C188.318 184.283 188.179 184.841 188.179 185.474L185.937 184.372C185.937 182.928 186.253 181.661 186.887 180.572C187.52 179.483 188.394 178.647 189.509 178.064C190.649 177.456 191.928 177.152 193.347 177.152C194.715 177.152 195.918 177.481 196.957 178.14C198.021 178.773 198.857 179.622 199.465 180.686C200.073 181.75 200.376 182.915 200.376 184.182V196H194.563ZM182.365 196V177.532H188.179V196H182.365ZM211.825 196.38C210.127 196.38 208.607 195.962 207.265 195.126C205.947 194.29 204.896 193.15 204.111 191.706C203.351 190.262 202.971 188.615 202.971 186.766C202.971 184.917 203.351 183.27 204.111 181.826C204.896 180.382 205.947 179.242 207.265 178.406C208.607 177.57 210.127 177.152 211.825 177.152C213.066 177.152 214.181 177.393 215.169 177.874C216.182 178.355 217.005 179.027 217.639 179.888C218.272 180.724 218.627 181.687 218.703 182.776V190.756C218.627 191.845 218.272 192.821 217.639 193.682C217.031 194.518 216.22 195.177 215.207 195.658C214.193 196.139 213.066 196.38 211.825 196.38ZM213.003 191.136C214.244 191.136 215.245 190.731 216.005 189.92C216.765 189.084 217.145 188.033 217.145 186.766C217.145 185.905 216.967 185.145 216.613 184.486C216.283 183.827 215.802 183.321 215.169 182.966C214.561 182.586 213.851 182.396 213.041 182.396C212.23 182.396 211.508 182.586 210.875 182.966C210.267 183.321 209.773 183.827 209.393 184.486C209.038 185.145 208.861 185.905 208.861 186.766C208.861 187.602 209.038 188.349 209.393 189.008C209.747 189.667 210.241 190.186 210.875 190.566C211.508 190.946 212.217 191.136 213.003 191.136ZM216.917 196V191.022L217.791 186.538L216.917 182.054V177.532H222.617V196H216.917ZM238.908 196V185.474C238.908 184.511 238.604 183.739 237.996 183.156C237.414 182.548 236.666 182.244 235.754 182.244C235.121 182.244 234.564 182.383 234.082 182.662C233.601 182.915 233.221 183.295 232.942 183.802C232.664 184.283 232.524 184.841 232.524 185.474L230.282 184.372C230.282 182.928 230.599 181.661 231.232 180.572C231.866 179.483 232.74 178.647 233.854 178.064C234.994 177.456 236.274 177.152 237.692 177.152C239.06 177.152 240.264 177.481 241.302 178.14C242.366 178.773 243.202 179.622 243.81 180.686C244.418 181.75 244.722 182.915 244.722 184.182V196H238.908ZM226.71 196V177.532H232.524V196H226.71ZM250.856 196V169.894H256.67V196H250.856ZM246.676 182.472V177.532H260.85V182.472H246.676ZM114.499 224.234V219.598H120.275C121.01 219.598 121.681 219.446 122.289 219.142C122.897 218.838 123.379 218.395 123.733 217.812C124.088 217.229 124.265 216.52 124.265 215.684C124.265 214.873 124.088 214.177 123.733 213.594C123.379 213.011 122.897 212.568 122.289 212.264C121.681 211.96 121.01 211.808 120.275 211.808H114.499V207.172H121.149C122.847 207.172 124.379 207.514 125.747 208.198C127.115 208.882 128.192 209.87 128.977 211.162C129.788 212.429 130.193 213.936 130.193 215.684C130.193 217.432 129.788 218.952 128.977 220.244C128.192 221.511 127.115 222.499 125.747 223.208C124.379 223.892 122.847 224.234 121.149 224.234H114.499ZM109.939 234V207.172H115.905V234H109.939ZM133.269 234V206.412H139.083V234H133.269ZM150.891 234.38C149.194 234.38 147.674 233.962 146.331 233.126C145.014 232.29 143.962 231.15 143.177 229.706C142.417 228.262 142.037 226.615 142.037 224.766C142.037 222.917 142.417 221.27 143.177 219.826C143.962 218.382 145.014 217.242 146.331 216.406C147.674 215.57 149.194 215.152 150.891 215.152C152.132 215.152 153.247 215.393 154.235 215.874C155.248 216.355 156.072 217.027 156.705 217.888C157.338 218.724 157.693 219.687 157.769 220.776V228.756C157.693 229.845 157.338 230.821 156.705 231.682C156.097 232.518 155.286 233.177 154.273 233.658C153.26 234.139 152.132 234.38 150.891 234.38ZM152.069 229.136C153.31 229.136 154.311 228.731 155.071 227.92C155.831 227.084 156.211 226.033 156.211 224.766C156.211 223.905 156.034 223.145 155.679 222.486C155.35 221.827 154.868 221.321 154.235 220.966C153.627 220.586 152.918 220.396 152.107 220.396C151.296 220.396 150.574 220.586 149.941 220.966C149.333 221.321 148.839 221.827 148.459 222.486C148.104 223.145 147.927 223.905 147.927 224.766C147.927 225.602 148.104 226.349 148.459 227.008C148.814 227.667 149.308 228.186 149.941 228.566C150.574 228.946 151.284 229.136 152.069 229.136ZM155.983 234V229.022L156.857 224.538L155.983 220.054V215.532H161.683V234H155.983ZM174.707 234.418C172.807 234.418 171.084 234 169.539 233.164C167.993 232.328 166.777 231.175 165.891 229.706C165.004 228.237 164.561 226.59 164.561 224.766C164.561 222.917 165.004 221.27 165.891 219.826C166.803 218.357 168.031 217.204 169.577 216.368C171.122 215.532 172.857 215.114 174.783 215.114C176.227 215.114 177.544 215.367 178.735 215.874C179.951 216.355 181.027 217.09 181.965 218.078L178.241 221.802C177.81 221.321 177.303 220.966 176.721 220.738C176.163 220.51 175.517 220.396 174.783 220.396C173.947 220.396 173.199 220.586 172.541 220.966C171.907 221.321 171.401 221.827 171.021 222.486C170.666 223.119 170.489 223.867 170.489 224.728C170.489 225.589 170.666 226.349 171.021 227.008C171.401 227.667 171.92 228.186 172.579 228.566C173.237 228.946 173.972 229.136 174.783 229.136C175.543 229.136 176.214 229.009 176.797 228.756C177.405 228.477 177.924 228.097 178.355 227.616L182.041 231.34C181.078 232.353 179.989 233.126 178.773 233.658C177.557 234.165 176.201 234.418 174.707 234.418ZM193.303 234.418C191.302 234.418 189.516 234.013 187.945 233.202C186.4 232.366 185.184 231.213 184.297 229.744C183.41 228.275 182.967 226.615 182.967 224.766C182.967 222.917 183.398 221.27 184.259 219.826C185.146 218.357 186.336 217.204 187.831 216.368C189.326 215.532 191.01 215.114 192.885 215.114C194.709 215.114 196.318 215.507 197.711 216.292C199.104 217.077 200.194 218.167 200.979 219.56C201.79 220.953 202.195 222.549 202.195 224.348C202.195 224.677 202.17 225.032 202.119 225.412C202.094 225.767 202.03 226.185 201.929 226.666L186.007 226.704V222.714L199.459 222.676L196.951 224.348C196.926 223.284 196.761 222.41 196.457 221.726C196.153 221.017 195.697 220.485 195.089 220.13C194.506 219.75 193.784 219.56 192.923 219.56C192.011 219.56 191.213 219.775 190.529 220.206C189.87 220.611 189.351 221.194 188.971 221.954C188.616 222.714 188.439 223.639 188.439 224.728C188.439 225.817 188.629 226.755 189.009 227.54C189.414 228.3 189.972 228.895 190.681 229.326C191.416 229.731 192.277 229.934 193.265 229.934C194.177 229.934 195 229.782 195.735 229.478C196.47 229.149 197.116 228.667 197.673 228.034L200.865 231.226C199.953 232.29 198.851 233.088 197.559 233.62C196.267 234.152 194.848 234.418 193.303 234.418ZM205.001 234V215.532H210.815V234H205.001ZM216.819 234V223.208C216.819 222.271 216.528 221.549 215.945 221.042C215.388 220.51 214.691 220.244 213.855 220.244C213.273 220.244 212.753 220.371 212.297 220.624C211.841 220.852 211.474 221.181 211.195 221.612C210.942 222.043 210.815 222.575 210.815 223.208L208.573 222.22C208.573 220.751 208.89 219.497 209.523 218.458C210.157 217.394 211.018 216.583 212.107 216.026C213.197 215.443 214.425 215.152 215.793 215.152C217.085 215.152 218.238 215.443 219.251 216.026C220.29 216.609 221.113 217.419 221.721 218.458C222.329 219.497 222.633 220.738 222.633 222.182V234H216.819ZM228.637 234V223.208C228.637 222.271 228.346 221.549 227.763 221.042C227.206 220.51 226.509 220.244 225.673 220.244C225.091 220.244 224.571 220.371 224.115 220.624C223.659 220.852 223.292 221.181 223.013 221.612C222.76 222.043 222.633 222.575 222.633 223.208L219.289 222.752C219.34 221.181 219.707 219.839 220.391 218.724C221.101 217.584 222.025 216.71 223.165 216.102C224.331 215.469 225.635 215.152 227.079 215.152C228.498 215.152 229.752 215.456 230.841 216.064C231.956 216.647 232.83 217.495 233.463 218.61C234.122 219.699 234.451 221.017 234.451 222.562V234H228.637ZM247.297 234.418C245.296 234.418 243.51 234.013 241.939 233.202C240.394 232.366 239.178 231.213 238.291 229.744C237.404 228.275 236.961 226.615 236.961 224.766C236.961 222.917 237.392 221.27 238.253 219.826C239.14 218.357 240.33 217.204 241.825 216.368C243.32 215.532 245.004 215.114 246.879 215.114C248.703 215.114 250.312 215.507 251.705 216.292C253.098 217.077 254.188 218.167 254.973 219.56C255.784 220.953 256.189 222.549 256.189 224.348C256.189 224.677 256.164 225.032 256.113 225.412C256.088 225.767 256.024 226.185 255.923 226.666L240.001 226.704V222.714L253.453 222.676L250.945 224.348C250.92 223.284 250.755 222.41 250.451 221.726C250.147 221.017 249.691 220.485 249.083 220.13C248.5 219.75 247.778 219.56 246.917 219.56C246.005 219.56 245.207 219.775 244.523 220.206C243.864 220.611 243.345 221.194 242.965 221.954C242.61 222.714 242.433 223.639 242.433 224.728C242.433 225.817 242.623 226.755 243.003 227.54C243.408 228.3 243.966 228.895 244.675 229.326C245.41 229.731 246.271 229.934 247.259 229.934C248.171 229.934 248.994 229.782 249.729 229.478C250.464 229.149 251.11 228.667 251.667 228.034L254.859 231.226C253.947 232.29 252.845 233.088 251.553 233.62C250.261 234.152 248.842 234.418 247.297 234.418ZM271.193 234V223.474C271.193 222.511 270.889 221.739 270.281 221.156C269.699 220.548 268.951 220.244 268.039 220.244C267.406 220.244 266.849 220.383 266.367 220.662C265.886 220.915 265.506 221.295 265.227 221.802C264.949 222.283 264.809 222.841 264.809 223.474L262.567 222.372C262.567 220.928 262.884 219.661 263.517 218.572C264.151 217.483 265.025 216.647 266.139 216.064C267.279 215.456 268.559 215.152 269.977 215.152C271.345 215.152 272.549 215.481 273.587 216.14C274.651 216.773 275.487 217.622 276.095 218.686C276.703 219.75 277.007 220.915 277.007 222.182V234H271.193ZM258.995 234V215.532H264.809V234H258.995ZM283.141 234V207.894H288.955V234H283.141ZM278.961 220.472V215.532H293.135V220.472H278.961Z" fill="white"/>
<defs>
<filter id="filter0_dii_1170_343" x="38.4316" y="33.4092" width="334.387" height="342.224" filterUnits="userSpaceOnUse" color-interpolation-filters="sRGB">
<feFlood flood-opacity="0" result="BackgroundImageFix"/>
<feColorMatrix in="SourceAlpha" type="matrix" values="0 0 0 0 0 0 0 0 0 0 0 0 0 0 0 0 0 0 127 0" result="hardAlpha"/>
<feOffset dx="3" dy="6"/>
<feGaussianBlur stdDeviation="3"/>
<feComposite in2="hardAlpha" operator="out"/>
<feColorMatrix type="matrix" values="0 0 0 0 0.0875 0 0 0 0 0.0875 0 0 0 0 0.0875 0 0 0 0.1 0"/>
<feBlend mode="normal" in2="BackgroundImageFix" result="effect1_dropShadow_1170_343"/>
<feBlend mode="normal" in="SourceGraphic" in2="effect1_dropShadow_1170_343" result="shape"/>
<feColorMatrix in="SourceAlpha" type="matrix" values="0 0 0 0 0 0 0 0 0 0 0 0 0 0 0 0 0 0 127 0" result="hardAlpha"/>
<feMorphology radius="2" operator="erode" in="SourceAlpha" result="effect2_innerShadow_1170_343"/>
<feOffset dx="1" dy="-10"/>
<feGaussianBlur stdDeviation="3"/>
<feComposite in2="hardAlpha" operator="arithmetic" k2="-1" k3="1"/>
<feColorMatrix type="matrix" values="0 0 0 0 0.8375 0 0 0 0 0.516458 0 0 0 0 0.624717 0 0 0 1 0"/>
<feBlend mode="normal" in2="shape" result="effect2_innerShadow_1170_343"/>
<feColorMatrix in="SourceAlpha" type="matrix" values="0 0 0 0 0 0 0 0 0 0 0 0 0 0 0 0 0 0 127 0" result="hardAlpha"/>
<feOffset dy="11"/>
<feGaussianBlur stdDeviation="3"/>
<feComposite in2="hardAlpha" operator="arithmetic" k2="-1" k3="1"/>
<feColorMatrix type="matrix" values="0 0 0 0 0.633333 0 0 0 0 0.298194 0 0 0 0 0.411206 0 0 0 0.5 0"/>
<feBlend mode="normal" in2="effect2_innerShadow_1170_343" result="effect3_innerShadow_1170_343"/>
</filter>
</defs>
</svg>
