<svg width="405" height="406" viewBox="0 0 405 406" fill="none" xmlns="http://www.w3.org/2000/svg">
<g filter="url(#filter0_dii_1170_347)">
<rect width="302.582" height="269.912" rx="100" transform="matrix(0.707286 -0.706928 0.707286 0.706928 0 214.877)" fill="#FFB6A3"/>
</g>
<g filter="url(#filter1_dii_1170_347)">
<rect width="302.582" height="269.912" rx="100" transform="matrix(0.707286 -0.706928 0.707286 0.706928 0 214.877)" fill="#FFB6A3"/>
</g>
<path d="M155.323 190V163.172H161.289V190H155.323ZM159.921 190V184.756H173.183V190H159.921ZM184.915 190.418C182.914 190.418 181.128 190.013 179.557 189.202C178.012 188.366 176.796 187.213 175.909 185.744C175.022 184.275 174.579 182.615 174.579 180.766C174.579 178.917 175.01 177.27 175.871 175.826C176.758 174.357 177.948 173.204 179.443 172.368C180.938 171.532 182.622 171.114 184.497 171.114C186.321 171.114 187.93 171.507 189.323 172.292C190.716 173.077 191.806 174.167 192.591 175.56C193.402 176.953 193.807 178.549 193.807 180.348C193.807 180.677 193.782 181.032 193.731 181.412C193.706 181.767 193.642 182.185 193.541 182.666L177.619 182.704V178.714L191.071 178.676L188.563 180.348C188.538 179.284 188.373 178.41 188.069 177.726C187.765 177.017 187.309 176.485 186.701 176.13C186.118 175.75 185.396 175.56 184.535 175.56C183.623 175.56 182.825 175.775 182.141 176.206C181.482 176.611 180.963 177.194 180.583 177.954C180.228 178.714 180.051 179.639 180.051 180.728C180.051 181.817 180.241 182.755 180.621 183.54C181.026 184.3 181.584 184.895 182.293 185.326C183.028 185.731 183.889 185.934 184.877 185.934C185.789 185.934 186.612 185.782 187.347 185.478C188.082 185.149 188.728 184.667 189.285 184.034L192.477 187.226C191.565 188.29 190.463 189.088 189.171 189.62C187.879 190.152 186.46 190.418 184.915 190.418ZM204.442 198.284C202.415 198.284 200.629 197.929 199.084 197.22C197.564 196.536 196.36 195.561 195.474 194.294L199.046 190.722C199.704 191.507 200.439 192.103 201.25 192.508C202.086 192.913 203.086 193.116 204.252 193.116C205.696 193.116 206.823 192.761 207.634 192.052C208.47 191.343 208.888 190.342 208.888 189.05V184.338L209.876 180.31L209.002 176.282V171.532H214.702V188.898C214.702 190.798 214.258 192.445 213.372 193.838C212.485 195.231 211.269 196.321 209.724 197.106C208.178 197.891 206.418 198.284 204.442 198.284ZM204.176 189.43C202.478 189.43 200.971 189.025 199.654 188.214C198.336 187.403 197.298 186.301 196.538 184.908C195.778 183.515 195.398 181.969 195.398 180.272C195.398 178.549 195.778 177.004 196.538 175.636C197.298 174.243 198.336 173.153 199.654 172.368C200.971 171.557 202.478 171.152 204.176 171.152C205.442 171.152 206.57 171.393 207.558 171.874C208.571 172.33 209.382 172.989 209.99 173.85C210.623 174.686 210.978 175.661 211.054 176.776V183.806C210.978 184.895 210.623 185.871 209.99 186.732C209.382 187.568 208.571 188.227 207.558 188.708C206.544 189.189 205.417 189.43 204.176 189.43ZM205.278 184.262C206.088 184.262 206.785 184.085 207.368 183.73C207.976 183.375 208.432 182.907 208.736 182.324C209.065 181.716 209.23 181.032 209.23 180.272C209.23 179.512 209.065 178.828 208.736 178.22C208.432 177.612 207.976 177.131 207.368 176.776C206.785 176.421 206.088 176.244 205.278 176.244C204.492 176.244 203.796 176.421 203.188 176.776C202.58 177.131 202.111 177.612 201.782 178.22C201.452 178.828 201.288 179.512 201.288 180.272C201.288 180.981 201.452 181.653 201.782 182.286C202.111 182.894 202.567 183.375 203.15 183.73C203.758 184.085 204.467 184.262 205.278 184.262ZM226.519 190.38C224.822 190.38 223.302 189.962 221.959 189.126C220.642 188.29 219.59 187.15 218.805 185.706C218.045 184.262 217.665 182.615 217.665 180.766C217.665 178.917 218.045 177.27 218.805 175.826C219.59 174.382 220.642 173.242 221.959 172.406C223.302 171.57 224.822 171.152 226.519 171.152C227.76 171.152 228.875 171.393 229.863 171.874C230.876 172.355 231.7 173.027 232.333 173.888C232.966 174.724 233.321 175.687 233.397 176.776V184.756C233.321 185.845 232.966 186.821 232.333 187.682C231.725 188.518 230.914 189.177 229.901 189.658C228.888 190.139 227.76 190.38 226.519 190.38ZM227.697 185.136C228.938 185.136 229.939 184.731 230.699 183.92C231.459 183.084 231.839 182.033 231.839 180.766C231.839 179.905 231.662 179.145 231.307 178.486C230.978 177.827 230.496 177.321 229.863 176.966C229.255 176.586 228.546 176.396 227.735 176.396C226.924 176.396 226.202 176.586 225.569 176.966C224.961 177.321 224.467 177.827 224.087 178.486C223.732 179.145 223.555 179.905 223.555 180.766C223.555 181.602 223.732 182.349 224.087 183.008C224.442 183.667 224.936 184.186 225.569 184.566C226.202 184.946 226.912 185.136 227.697 185.136ZM231.611 190V185.022L232.485 180.538L231.611 176.054V171.532H237.311V190H231.611ZM241.405 190V162.412H247.219V190H241.405ZM138.702 228.418C136.498 228.418 134.598 228.063 133.002 227.354C131.431 226.619 129.987 225.517 128.67 224.048L132.546 220.21C133.407 221.198 134.357 221.971 135.396 222.528C136.46 223.06 137.688 223.326 139.082 223.326C140.348 223.326 141.324 223.098 142.008 222.642C142.717 222.186 143.072 221.553 143.072 220.742C143.072 220.007 142.844 219.412 142.388 218.956C141.932 218.5 141.324 218.107 140.564 217.778C139.829 217.449 139.006 217.132 138.094 216.828C137.207 216.524 136.32 216.182 135.434 215.802C134.547 215.397 133.724 214.903 132.964 214.32C132.229 213.712 131.634 212.965 131.178 212.078C130.722 211.166 130.494 210.026 130.494 208.658C130.494 207.011 130.886 205.593 131.672 204.402C132.482 203.211 133.597 202.312 135.016 201.704C136.434 201.071 138.068 200.754 139.918 200.754C141.792 200.754 143.502 201.083 145.048 201.742C146.618 202.401 147.91 203.3 148.924 204.44L145.048 208.278C144.237 207.442 143.414 206.821 142.578 206.416C141.767 206.011 140.842 205.808 139.804 205.808C138.765 205.808 137.942 206.011 137.334 206.416C136.726 206.796 136.422 207.353 136.422 208.088C136.422 208.772 136.65 209.329 137.106 209.76C137.562 210.165 138.157 210.52 138.892 210.824C139.652 211.128 140.475 211.432 141.362 211.736C142.274 212.04 143.173 212.395 144.06 212.8C144.946 213.205 145.757 213.725 146.492 214.358C147.252 214.966 147.86 215.751 148.316 216.714C148.772 217.651 149 218.817 149 220.21C149 222.769 148.088 224.783 146.264 226.252C144.44 227.696 141.919 228.418 138.702 228.418ZM161.276 228.418C159.275 228.418 157.489 228.013 155.918 227.202C154.373 226.366 153.157 225.213 152.27 223.744C151.384 222.275 150.94 220.615 150.94 218.766C150.94 216.917 151.371 215.27 152.232 213.826C153.119 212.357 154.31 211.204 155.804 210.368C157.299 209.532 158.984 209.114 160.858 209.114C162.682 209.114 164.291 209.507 165.684 210.292C167.078 211.077 168.167 212.167 168.952 213.56C169.763 214.953 170.168 216.549 170.168 218.348C170.168 218.677 170.143 219.032 170.092 219.412C170.067 219.767 170.004 220.185 169.902 220.666L153.98 220.704V216.714L167.432 216.676L164.924 218.348C164.899 217.284 164.734 216.41 164.43 215.726C164.126 215.017 163.67 214.485 163.062 214.13C162.48 213.75 161.758 213.56 160.896 213.56C159.984 213.56 159.186 213.775 158.502 214.206C157.844 214.611 157.324 215.194 156.944 215.954C156.59 216.714 156.412 217.639 156.412 218.728C156.412 219.817 156.602 220.755 156.982 221.54C157.388 222.3 157.945 222.895 158.654 223.326C159.389 223.731 160.25 223.934 161.238 223.934C162.15 223.934 162.974 223.782 163.708 223.478C164.443 223.149 165.089 222.667 165.646 222.034L168.838 225.226C167.926 226.29 166.824 227.088 165.532 227.62C164.24 228.152 162.822 228.418 161.276 228.418ZM172.975 228V209.532H178.789V228H172.975ZM178.789 217.854L176.357 215.954C176.838 213.801 177.649 212.129 178.789 210.938C179.929 209.747 181.512 209.152 183.539 209.152C184.426 209.152 185.198 209.291 185.857 209.57C186.541 209.823 187.136 210.229 187.643 210.786L184.185 215.156C183.932 214.877 183.615 214.662 183.235 214.51C182.855 214.358 182.424 214.282 181.943 214.282C180.98 214.282 180.208 214.586 179.625 215.194C179.068 215.777 178.789 216.663 178.789 217.854ZM194.857 228L187.029 209.532H193.299L198.619 224.922H195.883L201.203 209.532H207.359L199.531 227.962L194.857 228ZM209.453 228V209.532H215.267V228H209.453ZM212.379 206.986C211.467 206.986 210.707 206.682 210.099 206.074C209.517 205.441 209.225 204.681 209.225 203.794C209.225 202.882 209.517 202.122 210.099 201.514C210.707 200.906 211.467 200.602 212.379 200.602C213.291 200.602 214.039 200.906 214.621 201.514C215.204 202.122 215.495 202.882 215.495 203.794C215.495 204.681 215.204 205.441 214.621 206.074C214.039 206.682 213.291 206.986 212.379 206.986ZM228.292 228.418C226.392 228.418 224.669 228 223.124 227.164C221.578 226.328 220.362 225.175 219.476 223.706C218.589 222.237 218.146 220.59 218.146 218.766C218.146 216.917 218.589 215.27 219.476 213.826C220.388 212.357 221.616 211.204 223.162 210.368C224.707 209.532 226.442 209.114 228.368 209.114C229.812 209.114 231.129 209.367 232.32 209.874C233.536 210.355 234.612 211.09 235.55 212.078L231.826 215.802C231.395 215.321 230.888 214.966 230.306 214.738C229.748 214.51 229.102 214.396 228.368 214.396C227.532 214.396 226.784 214.586 226.126 214.966C225.492 215.321 224.986 215.827 224.606 216.486C224.251 217.119 224.074 217.867 224.074 218.728C224.074 219.589 224.251 220.349 224.606 221.008C224.986 221.667 225.505 222.186 226.164 222.566C226.822 222.946 227.557 223.136 228.368 223.136C229.128 223.136 229.799 223.009 230.382 222.756C230.99 222.477 231.509 222.097 231.94 221.616L235.626 225.34C234.663 226.353 233.574 227.126 232.358 227.658C231.142 228.165 229.786 228.418 228.292 228.418ZM246.888 228.418C244.886 228.418 243.1 228.013 241.53 227.202C239.984 226.366 238.768 225.213 237.882 223.744C236.995 222.275 236.552 220.615 236.552 218.766C236.552 216.917 236.982 215.27 237.844 213.826C238.73 212.357 239.921 211.204 241.416 210.368C242.91 209.532 244.595 209.114 246.47 209.114C248.294 209.114 249.902 209.507 251.296 210.292C252.689 211.077 253.778 212.167 254.564 213.56C255.374 214.953 255.78 216.549 255.78 218.348C255.78 218.677 255.754 219.032 255.704 219.412C255.678 219.767 255.615 220.185 255.514 220.666L239.592 220.704V216.714L253.044 216.676L250.536 218.348C250.51 217.284 250.346 216.41 250.042 215.726C249.738 215.017 249.282 214.485 248.674 214.13C248.091 213.75 247.369 213.56 246.508 213.56C245.596 213.56 244.798 213.775 244.114 214.206C243.455 214.611 242.936 215.194 242.556 215.954C242.201 216.714 242.024 217.639 242.024 218.728C242.024 219.817 242.214 220.755 242.594 221.54C242.999 222.3 243.556 222.895 244.266 223.326C245 223.731 245.862 223.934 246.85 223.934C247.762 223.934 248.585 223.782 249.32 223.478C250.054 223.149 250.7 222.667 251.258 222.034L254.45 225.226C253.538 226.29 252.436 227.088 251.144 227.62C249.852 228.152 248.433 228.418 246.888 228.418ZM265.312 228.456C264.223 228.456 263.146 228.317 262.082 228.038C261.044 227.759 260.068 227.367 259.156 226.86C258.27 226.328 257.51 225.72 256.876 225.036L260.182 221.692C260.79 222.351 261.512 222.87 262.348 223.25C263.184 223.605 264.096 223.782 265.084 223.782C265.768 223.782 266.288 223.681 266.642 223.478C267.022 223.275 267.212 222.997 267.212 222.642C267.212 222.186 266.984 221.844 266.528 221.616C266.098 221.363 265.54 221.147 264.856 220.97C264.172 220.767 263.45 220.552 262.69 220.324C261.93 220.096 261.208 219.779 260.524 219.374C259.84 218.969 259.283 218.411 258.852 217.702C258.422 216.967 258.206 216.043 258.206 214.928C258.206 213.737 258.51 212.711 259.118 211.85C259.726 210.963 260.588 210.267 261.702 209.76C262.817 209.253 264.122 209 265.616 209C267.187 209 268.631 209.279 269.948 209.836C271.291 210.368 272.38 211.166 273.216 212.23L269.91 215.574C269.328 214.89 268.669 214.409 267.934 214.13C267.225 213.851 266.528 213.712 265.844 213.712C265.186 213.712 264.692 213.813 264.362 214.016C264.033 214.193 263.868 214.459 263.868 214.814C263.868 215.194 264.084 215.498 264.514 215.726C264.945 215.954 265.502 216.157 266.186 216.334C266.87 216.511 267.592 216.727 268.352 216.98C269.112 217.233 269.834 217.575 270.518 218.006C271.202 218.437 271.76 219.019 272.19 219.754C272.621 220.463 272.836 221.401 272.836 222.566C272.836 224.365 272.152 225.796 270.784 226.86C269.442 227.924 267.618 228.456 265.312 228.456Z" fill="white"/>
<defs>
<filter id="filter0_dii_1170_347" x="21.4316" y="22.3838" width="351.053" height="353.891" filterUnits="userSpaceOnUse" color-interpolation-filters="sRGB">
<feFlood flood-opacity="0" result="BackgroundImageFix"/>
<feColorMatrix in="SourceAlpha" type="matrix" values="0 0 0 0 0 0 0 0 0 0 0 0 0 0 0 0 0 0 127 0" result="hardAlpha"/>
<feOffset dx="3" dy="6"/>
<feGaussianBlur stdDeviation="3"/>
<feComposite in2="hardAlpha" operator="out"/>
<feColorMatrix type="matrix" values="0 0 0 0 0.0416667 0 0 0 0 0.0416667 0 0 0 0 0.0416667 0 0 0 0.1 0"/>
<feBlend mode="normal" in2="BackgroundImageFix" result="effect1_dropShadow_1170_347"/>
<feBlend mode="normal" in="SourceGraphic" in2="effect1_dropShadow_1170_347" result="shape"/>
<feColorMatrix in="SourceAlpha" type="matrix" values="0 0 0 0 0 0 0 0 0 0 0 0 0 0 0 0 0 0 127 0" result="hardAlpha"/>
<feMorphology radius="2" operator="erode" in="SourceAlpha" result="effect2_innerShadow_1170_347"/>
<feOffset dx="6" dy="6"/>
<feGaussianBlur stdDeviation="3"/>
<feComposite in2="hardAlpha" operator="arithmetic" k2="-1" k3="1"/>
<feColorMatrix type="matrix" values="0 0 0 0 1 0 0 0 0 0.803025 0 0 0 0 0.751758 0 0 0 1 0"/>
<feBlend mode="normal" in2="shape" result="effect2_innerShadow_1170_347"/>
<feColorMatrix in="SourceAlpha" type="matrix" values="0 0 0 0 0 0 0 0 0 0 0 0 0 0 0 0 0 0 127 0" result="hardAlpha"/>
<feOffset dx="-20" dy="-20"/>
<feGaussianBlur stdDeviation="14.5"/>
<feComposite in2="hardAlpha" operator="arithmetic" k2="-1" k3="1"/>
<feColorMatrix type="matrix" values="0 0 0 0 0.95 0 0 0 0 0.642197 0 0 0 0 0.562083 0 0 0 1 0"/>
<feBlend mode="normal" in2="effect2_innerShadow_1170_347" result="effect3_innerShadow_1170_347"/>
</filter>
<filter id="filter1_dii_1170_347" x="38.4316" y="34.3838" width="334.053" height="343.991" filterUnits="userSpaceOnUse" color-interpolation-filters="sRGB">
<feFlood flood-opacity="0" result="BackgroundImageFix"/>
<feColorMatrix in="SourceAlpha" type="matrix" values="0 0 0 0 0 0 0 0 0 0 0 0 0 0 0 0 0 0 127 0" result="hardAlpha"/>
<feOffset dx="3" dy="6"/>
<feGaussianBlur stdDeviation="3"/>
<feComposite in2="hardAlpha" operator="out"/>
<feColorMatrix type="matrix" values="0 0 0 0 0.0416667 0 0 0 0 0.0416667 0 0 0 0 0.0416667 0 0 0 0.1 0"/>
<feBlend mode="normal" in2="BackgroundImageFix" result="effect1_dropShadow_1170_347"/>
<feBlend mode="normal" in="SourceGraphic" in2="effect1_dropShadow_1170_347" result="shape"/>
<feColorMatrix in="SourceAlpha" type="matrix" values="0 0 0 0 0 0 0 0 0 0 0 0 0 0 0 0 0 0 127 0" result="hardAlpha"/>
<feMorphology radius="2" operator="erode" in="SourceAlpha" result="effect2_innerShadow_1170_347"/>
<feOffset dx="1" dy="-12"/>
<feGaussianBlur stdDeviation="3"/>
<feComposite in2="hardAlpha" operator="arithmetic" k2="-1" k3="1"/>
<feColorMatrix type="matrix" values="0 0 0 0 1 0 0 0 0 0.803025 0 0 0 0 0.751758 0 0 0 1 0"/>
<feBlend mode="normal" in2="shape" result="effect2_innerShadow_1170_347"/>
<feColorMatrix in="SourceAlpha" type="matrix" values="0 0 0 0 0 0 0 0 0 0 0 0 0 0 0 0 0 0 127 0" result="hardAlpha"/>
<feOffset dy="21"/>
<feGaussianBlur stdDeviation="7.05"/>
<feComposite in2="hardAlpha" operator="arithmetic" k2="-1" k3="1"/>
<feColorMatrix type="matrix" values="0 0 0 0 0.808333 0 0 0 0 0.509016 0 0 0 0 0.431111 0 0 0 0.5 0"/>
<feBlend mode="normal" in2="effect2_innerShadow_1170_347" result="effect3_innerShadow_1170_347"/>
</filter>
</defs>
</svg>
