<svg width="588" height="520" viewBox="0 0 588 520" fill="none" xmlns="http://www.w3.org/2000/svg">
<g filter="url(#filter0_i_5311_153)">
<path d="M0 40C0 17.9086 17.9086 0 40 0L548 0C570.091 0 588 17.9086 588 40V520H0V40Z" fill="url(#paint0_linear_5311_153)" fill-opacity="0.14"/>
</g>
<mask id="mask0_5311_153" style="mask-type:alpha" maskUnits="userSpaceOnUse" x="0" y="0" width="588" height="520">
<path d="M0 40C0 17.9086 17.9086 0 40 0L548 0C570.091 0 588 17.9086 588 40V520H0V40Z" fill="#AACAFF"/>
</mask>
<g mask="url(#mask0_5311_153)">
<path d="M333.172 174.193C329.942 174.193 327.311 176.823 327.311 180.051C327.311 183.279 329.942 185.905 333.172 185.905C336.403 185.905 339.033 183.279 339.033 180.051C339.033 176.823 336.403 174.193 333.172 174.193ZM333.172 187.434C329.096 187.434 325.781 184.121 325.781 180.051C325.781 175.981 329.096 172.665 333.172 172.665C337.245 172.665 340.559 175.981 340.559 180.051C340.559 184.121 337.245 187.434 333.172 187.434Z" fill="#BFA564"/>
<path d="M474.835 99.0814C474.835 102.737 471.867 105.703 468.209 105.703C464.55 105.703 461.586 102.737 461.586 99.0814C461.586 95.4254 464.55 92.463 468.209 92.463C471.867 92.463 474.835 95.4254 474.835 99.0814Z" fill="#BFA564"/>
<path d="M-11.2478 253.408L-4.24749 260.279L2.75285 253.408L-4.24749 246.541L-11.2478 253.408ZM-4.24749 262.42L-13.4297 253.408L-4.24749 244.399L4.93471 253.408L-4.24749 262.42Z" fill="#BFA564"/>
<path d="M122.916 95.009L129.917 101.877L136.917 95.009L129.917 88.1415L122.916 95.009ZM129.917 104.018L120.734 95.009L129.917 86.0005L139.099 95.009L129.917 104.018Z" fill="#BFA564"/>
<path d="M239.805 393.466L252.774 419.764L323.158 458.185L299.423 493.785L226.742 464.74C215.622 459.518 207.736 449.217 205.6 437.125L200.133 406.171L239.805 393.466Z" fill="#29506F"/>
<path d="M211.523 424.019C211.523 424.019 215.757 340.023 199.109 320.639C209.778 327.483 218.216 337.596 222.909 349.755L239.802 393.465L211.523 424.019Z" fill="#6B5E7A"/>
<path d="M243.01 430.294L241.945 429.196L252.24 419.215L253.304 420.313L243.01 430.294Z" fill="#0D0C0F"/>
<path d="M368.389 306.003L335.949 336.085L328.076 325.36C319.042 313.032 310.388 300.175 304.779 285.952C300.865 276.052 299.261 266.131 302.057 264.313C308.37 260.219 314.043 284.478 314.989 284.158C315.939 283.852 302.69 252.793 308.505 250.147C312.598 248.282 318.304 260.775 321.497 268.767C318.304 258.179 313.046 241.586 316.886 240.051C321.976 238.021 324.101 245.966 327.861 254.809C329.481 258.63 331.027 262.724 332.341 266.451C329.282 256.506 326.254 244.73 328.548 243.522C337.36 238.88 348.153 276.594 348.153 276.594C348.153 264.296 351.296 259.681 355.349 261.472C361.914 264.373 358.498 297.401 358.498 297.401L368.389 306.003Z" fill="#315D80"/>
<path d="M444.296 290.86L402.761 335.928L402.364 336.359L401.921 335.974L368.405 306.816L336.75 336.161L364.519 374.024L364.519 374.024C378.352 392.887 403.956 398.727 424.607 387.731L459.962 368.909L444.296 290.86Z" fill="#C06A87" stroke="black" stroke-width="1.20669"/>
<path d="M322.79 277.623C317.939 264.619 313.169 247.147 315.688 240.717C316.13 239.599 317.235 238.855 318.36 238.943C321.829 239.172 325.434 244.817 329.705 256.711L329.86 257.142L328.422 257.664L328.267 257.226C323.116 242.882 319.785 240.569 318.259 240.468C317.784 240.434 317.309 240.774 317.113 241.272C314.9 246.918 319.087 263.329 324.221 277.091L322.79 277.623Z" fill="black"/>
<path d="M346.39 272.772L344.952 269.143C339.896 256.341 335.119 244.245 330.144 244.02C329.524 243.969 328.981 244.474 328.901 245.114C328.581 247.716 328.887 254.617 334.543 271.581L333.094 272.062C327.341 254.813 327.048 247.659 327.381 244.929C327.56 243.501 328.82 242.441 330.211 242.495C336.18 242.768 340.677 254.16 346.374 268.581L347.809 272.207L346.39 272.772Z" fill="white"/>
<path d="M314.277 284.438C309.797 273.136 305.472 261.381 306.072 252.739C306.162 251.423 306.971 250.258 308.184 249.699C309.373 249.151 310.697 249.282 311.731 250.046C313.789 251.568 316.026 254.359 317.868 257.705L316.528 258.439C314.79 255.281 312.711 252.672 310.821 251.275C310.245 250.844 309.497 250.777 308.824 251.086C308.106 251.416 307.648 252.073 307.594 252.847C307.018 261.169 311.283 272.739 315.699 283.875L314.277 284.438Z" fill="black"/>
<path d="M337.389 290.146C336.698 280.714 344.099 278.452 346.353 277.984C346.393 277.431 346.43 276.886 346.467 276.344C346.855 270.652 347.222 265.279 351.379 261.276L352.44 262.377C348.708 265.969 348.361 271.059 347.99 276.449C347.94 277.192 347.889 277.94 347.828 278.694L347.778 279.323L347.148 279.391C346.784 279.431 338.211 280.478 338.912 290.035L337.389 290.146Z" fill="white"/>
<path d="M316.548 310.035C312.765 304.003 303.663 288.689 300.783 276.775C299.274 270.527 300.089 265.336 302.767 264.147C304.236 263.494 306.695 263.76 310.087 268.716L308.824 269.578C306.705 266.48 304.667 264.966 303.387 265.541C301.723 266.278 300.85 270.55 302.268 276.415C305.095 288.113 314.102 303.259 317.841 309.227L316.548 310.035Z" fill="black"/>
<path d="M502.74 265.642L455.731 297.219L446.498 271.415L440.781 255.465L435.859 241.717L457.105 231.082L470.438 224.423L474.946 222.161L477.317 225.874L502.74 265.642Z" fill="#315D80"/>
<path d="M474.948 222.162C474.948 222.162 474.169 223.293 472.761 225.141C470.912 227.602 467.978 231.328 464.323 235.439C457.949 242.619 449.42 250.928 440.783 255.466C436.869 257.529 432.924 258.812 429.165 258.859C419.15 258.98 411.601 251.204 405.837 241C404.062 237.852 402.458 234.476 401.006 231.039C397.213 222.04 394.431 212.554 392.322 205.387C390.334 198.667 388.93 193.991 387.828 193.655L444.084 172.315L459.859 197.795L468.911 212.399L470.791 215.439L473.496 219.808L474.948 222.162Z" fill="#315D80"/>
<path d="M441.091 256.458C440.926 256.46 440.763 256.411 440.627 256.316C440.49 256.221 440.387 256.086 440.332 255.93C440.292 255.829 440.272 255.721 440.274 255.613C440.275 255.504 440.298 255.397 440.341 255.297C440.384 255.198 440.446 255.107 440.524 255.032C440.602 254.956 440.694 254.897 440.794 254.857C446.185 252.684 451.039 249.367 455.022 245.135L455.716 244.343C457.682 242.278 459.399 239.99 460.832 237.526C462.221 234.891 463.434 232.167 464.464 229.372C465.549 226.847 466.201 224.158 466.395 221.416C466.395 221.197 466.482 220.987 466.636 220.833C466.791 220.678 467.001 220.591 467.22 220.591C467.439 220.591 467.649 220.678 467.804 220.833C467.958 220.987 468.045 221.197 468.045 221.416C467.861 224.357 467.168 227.244 465.999 229.95C464.954 232.813 463.718 235.603 462.301 238.301C460.805 240.88 459.01 243.273 456.953 245.432L456.227 246.241C452.079 250.671 447.007 254.137 441.372 256.392C441.285 256.435 441.189 256.457 441.091 256.458Z" fill="black"/>
<path d="M426.394 248.39C423.971 248.902 421.324 247.235 418.503 243.462C418.405 243.351 418.338 243.217 418.308 243.073C418.277 242.928 418.284 242.779 418.328 242.638C418.394 242.506 418.491 242.392 418.612 242.308C418.732 242.223 418.873 242.17 419.019 242.155C421.687 241.928 428.061 235.181 430.083 231.734C430.172 231.578 430.31 231.456 430.475 231.388C430.641 231.319 430.825 231.308 430.998 231.355C431.172 231.399 431.327 231.5 431.439 231.64C431.551 231.781 431.614 231.955 431.618 232.135C431.727 237.358 430.754 247.468 426.394 248.39ZM420.603 243.422C422.66 245.889 424.521 247.031 426.039 246.71C428.752 246.137 429.8 239.876 429.897 234.607C426.986 237.46 424.416 241.983 420.603 243.422Z" fill="white"/>
<path d="M466.561 214.214C455.697 202.441 451.271 181.624 430.891 187.225C414.014 202.876 397.258 213.45 363.117 197.409C363.117 197.409 382.261 194.275 395.22 175.514C420.188 139.355 444.648 158.708 444.648 158.708C476.242 152.595 486.432 201.482 466.561 214.214Z" fill="#000001"/>
<path d="M455.151 207.959C454.612 215.6 459.355 222.161 465.742 222.613C472.126 223.06 477.741 217.23 478.28 209.588C478.819 201.943 474.079 195.385 467.693 194.934C461.306 194.483 455.69 200.317 455.151 207.959Z" fill="#315D80"/>
<path d="M419.651 218.051C420.23 219.872 421.924 220.953 423.433 220.471C424.943 219.99 425.69 218.125 425.111 216.307C424.528 214.489 422.834 213.405 421.328 213.887C419.819 214.371 419.068 216.233 419.651 218.051Z" fill="black"/>
<path d="M402.395 223.902C402.91 225.517 404.419 226.484 405.76 226.053C407.104 225.625 407.771 223.966 407.252 222.346C406.737 220.73 405.228 219.764 403.887 220.195C402.543 220.623 401.876 222.282 402.395 223.902Z" fill="black"/>
<path d="M412.732 223.104C413.864 226.238 410.327 227.662 410.755 230.53C411.146 233.173 414.511 234.25 416.778 234.354C417.762 234.402 417.758 232.873 416.778 232.826C415.393 232.762 413.268 232.264 412.517 230.934C411.87 229.786 412.749 228.881 413.335 227.941C414.39 226.241 414.908 224.649 414.204 222.696C413.874 221.781 412.395 222.175 412.732 223.104Z" fill="#000001"/>
<path d="M416.41 209.884C416.781 212.21 419.264 210.621 422.632 210.086C426.004 209.551 430.562 209.658 430.34 208.265C430.121 206.874 425.607 205.44 422.238 205.976C418.866 206.511 415.854 206.39 416.41 209.884Z" fill="black"/>
<path d="M404.827 214.611C405.666 216.3 403.308 216.418 400.859 217.634C398.41 218.852 396.951 220.108 396.446 219.098C395.944 218.085 396.759 215.984 399.205 214.769C401.654 213.553 403.564 212.072 404.827 214.611Z" fill="black"/>
<path d="M465.604 213.954C463.461 211.503 462.784 207.901 463.919 204.986C464.836 202.646 466.79 201.152 469.286 200.882L469.447 202.401C467.51 202.609 466.055 203.724 465.344 205.541C464.408 207.938 464.977 210.914 466.756 212.948L465.604 213.954Z" fill="#013D55"/>
<path d="M426.141 332.14C425.886 336.205 426.559 343.898 427.875 353.938C429.189 363.959 431.135 376.262 433.403 389.517C437.91 415.843 443.687 445.9 448.308 469.226L631.315 469.196L585.233 341.226C573.752 312.201 562.981 289.285 548.777 274.066L549.218 273.654L548.777 274.066C536.769 261.198 518.842 255.247 501.578 258.66C498.171 259.335 495.04 260.276 492.69 261.569C492.69 261.569 492.69 261.569 492.69 261.569L457.923 280.72L457.632 280.192L457.923 280.72C439.045 291.116 427.483 310.851 426.141 332.14Z" fill="#C06A87" stroke="black" stroke-width="1.20669"/>
<path d="M430.524 379.855C423.821 343.602 420.713 314.877 444.243 290.036L445.355 291.083C422.316 315.405 425.404 343.757 432.027 379.576L430.524 379.855Z" fill="white"/>
<path d="M448.446 469.833H447.906V469.83H448.457C448.45 469.83 448.45 469.833 448.446 469.833Z" fill="#C7BAE2"/>
<path d="M447.96 470.105L447.906 469.832H448.446C448.284 469.923 448.122 470.014 447.96 470.105Z" fill="#4E3980"/>
<path d="M443.867 449.688L439.555 428.22L439.737 428.028C441.121 435.4 442.512 442.682 443.867 449.684V449.688Z" fill="#C1ABBE"/>
<path d="M443.938 450.045L443.867 449.688V449.684C443.891 449.806 443.914 449.924 443.938 450.045Z" fill="#4E3980"/>
<path d="M448.869 468.607L443.935 450.044C443.912 449.923 443.888 449.805 443.864 449.684C442.51 442.682 441.119 435.4 439.734 428.028L534.352 329.348C515.064 386.567 482.832 449.419 448.869 468.607Z" fill="#C06A87"/>
<path d="M287.153 483.009C280.88 491.987 288.908 499.965 296.935 498.72C293.422 502.709 302.955 509.94 309.729 505.203C309.729 505.203 314.998 516.673 326.037 514.178C331.918 512.848 352.949 501.372 377.183 487.392L346.932 439.716C318.016 459.306 290.083 478.814 287.153 483.009Z" fill="#315D80"/>
<path d="M479.847 298.976L431.278 379.713C431.278 379.713 379.879 417.404 346.938 439.716L377.188 487.392C388.372 480.938 399.8 472.067 411.176 465.301C449.123 442.732 481.575 413.425 504.987 376.131L534.358 329.348L479.847 298.976Z" fill="#C06A87"/>
<path d="M297.398 499.325L296.469 498.11L313.308 485.247L314.238 486.462L297.398 499.325Z" fill="white"/>
<path d="M310.148 505.843L309.312 504.564L323.552 495.239L324.39 496.518L310.148 505.843Z" fill="white"/>
<path d="M347.382 440.339L346.492 439.097L430.704 379.184L479.189 298.582L480.499 299.367L431.85 380.245L431.722 380.336L347.382 440.339Z" fill="#000001"/>
<path d="M376.78 487.787L375.891 486.545L462.315 430.822L510.8 350.22L512.11 351.005L463.46 431.883L463.332 431.974L376.78 487.787Z" fill="#D8E0E7"/>
<path d="M347.97 512.361L347.471 512.657C344.961 514.152 341.718 513.33 340.222 510.822L335.465 502.841C333.97 500.333 334.792 497.087 337.301 495.596L337.8 495.3C340.309 493.805 343.553 494.627 345.049 497.135L349.806 505.12C351.301 507.624 350.476 510.87 347.97 512.361Z" fill="#29506F"/>
<path d="M338.05 514.192L336.692 515C335.004 516.006 332.821 515.451 331.818 513.768L329.813 510.401C328.809 508.718 329.362 506.537 331.05 505.534L332.407 504.726C334.095 503.719 336.274 504.274 337.278 505.958L339.286 509.324C340.29 511.007 339.737 513.189 338.05 514.192Z" fill="#29506F"/>
<path d="M356.581 506.062C353.934 507.638 350.511 506.772 348.935 504.126L343.167 494.451C341.594 491.805 342.46 488.385 345.108 486.81C347.752 485.234 351.178 486.103 352.755 488.745L358.518 498.424C360.095 501.066 359.229 504.49 356.581 506.062Z" fill="#29506F"/>
<path d="M366.21 499.935L365.711 500.235C363.205 501.726 359.957 500.905 358.465 498.397L353.705 490.415C352.213 487.907 353.035 484.662 355.544 483.17L356.043 482.874C358.549 481.379 361.797 482.201 363.289 484.709L368.049 492.694C369.541 495.199 368.719 498.444 366.21 499.935Z" fill="#29506F"/>
<path d="M311.273 451.707C317.007 449.606 329.754 443.779 337.646 461.827C342.389 472.68 331.512 472.347 324.431 464.705C313.281 452.663 311.273 451.707 311.273 451.707Z" fill="#29506F"/>
<path d="M199.11 320.639C193.256 316.879 186.727 314.085 179.741 312.509L82.4236 290.574C73.8016 288.51 65.1796 288.786 57.2151 290.971L73.939 326.244L60.5477 387.338L38.8706 486.227L31.5391 520.195H58.3463H211.524V424.019C211.524 424.019 215.758 340.023 199.11 320.639Z" fill="#6B5E7A"/>
<path d="M60.5498 387.339L59.2734 387.285L66.6925 353.745C66.8963 354.701 67.092 355.661 67.2813 356.627L60.5498 387.339Z" fill="#F8D9B6"/>
<path d="M52.7083 520.195H30.8828L60.5528 387.338L67.2844 356.627C75.8097 400.198 60.7839 488.376 52.7083 520.195Z" fill="#5A4D68"/>
<path d="M60.8302 386.952L31.5405 520.195H-22.0312L-11.9819 465.905L-6.1269 437.428L4.72681 384.613L60.8302 386.952Z" fill="#315D80"/>
<path d="M60.5487 387.339L4.44531 384.999L4.73568 383.612L60.5487 387.339Z" fill="#315D80"/>
<path d="M73.9386 326.245L60.5473 387.339L4.4439 384.999L-0.203125 384.801L14.3194 329.043C19.9298 307.912 39.39 295.843 57.2148 290.972L73.9386 326.245Z" fill="#6B5E7A"/>
<path d="M-11.9294 466.291H-12.2656L-6.41062 437.814C-0.983761 439.982 2.8531 445.298 2.8531 451.516C2.8531 459.673 -3.76625 466.291 -11.9294 466.291Z" fill="#29506E"/>
<path d="M187.854 208.555C187.854 233.894 167.487 229.999 143.115 229.999C118.741 229.999 110.163 260.694 96.1341 241.67C87.3076 229.699 85.8699 201.724 104.193 185.017C126.067 165.067 187.854 183.216 187.854 208.555Z" fill="black"/>
<path d="M112.838 184.784C112.838 199.209 101.136 210.904 86.7007 210.904C72.2651 210.904 60.5625 199.209 60.5625 184.784C60.5625 170.356 72.2651 158.661 86.7007 158.661C101.136 158.661 112.838 170.356 112.838 184.784Z" fill="black"/>
<path d="M150.589 305.506C150.728 318.282 140.142 328.125 128.379 326.161C112.969 323.588 101.603 309.321 101.649 292.575L101.756 251.014H150.009L150.485 295.854L150.589 305.506Z" fill="#315D80"/>
<path d="M116.353 236.284C120.061 243.943 118.394 252.413 112.63 255.197C106.867 257.984 99.1893 254.035 95.4818 246.377C91.7746 238.718 93.4414 230.252 99.2048 227.464C104.968 224.677 112.646 228.626 116.353 236.284Z" fill="#315D80"/>
<path d="M177.113 227.952C177.143 232.597 177.083 237.041 176.854 241.259C176.655 245.033 176.305 248.608 175.769 251.954C173.505 266.006 167.849 275.997 154.58 278.886C153.145 279.192 151.646 279.33 150.103 279.313C138.684 279.192 124.542 270.772 114.514 263.578C109.194 259.758 105.021 256.277 103.018 254.563L102.987 254.536C102.162 253.816 101.719 253.419 101.719 253.419L102.407 251.402L103.676 247.675L109.454 230.625L110.066 228.854L120.568 197.916L173.583 205.023C175.523 205.265 176.655 207.006 176.715 208.962C176.84 213.577 176.978 218.115 177.052 222.515C177.083 224.346 177.113 226.164 177.113 227.952Z" fill="#315D80"/>
<path d="M141.33 277.469C134.954 275.467 122.188 267.397 117.468 262.665C117.409 262.606 117.363 262.536 117.331 262.46C117.299 262.383 117.283 262.301 117.284 262.218C117.284 262.135 117.301 262.053 117.334 261.976C117.366 261.9 117.413 261.831 117.473 261.773C117.532 261.715 117.602 261.67 117.679 261.64C117.756 261.61 117.838 261.595 117.92 261.596C118.003 261.598 118.084 261.616 118.16 261.649C118.235 261.682 118.304 261.73 118.361 261.789C124.584 268.038 141.375 277.882 150.122 279.007C150.29 279.027 150.443 279.113 150.548 279.246C150.653 279.378 150.701 279.547 150.681 279.715C150.661 279.883 150.576 280.037 150.443 280.142C150.31 280.246 150.141 280.294 149.973 280.274C147.614 279.993 143.592 278.195 141.33 277.469Z" fill="black"/>
<path d="M109.609 238.401C119.291 229.235 137.637 225.417 135.471 207.848C153.813 220.832 168.551 224.754 183.625 221.596L180.186 198.937L120.46 192.803L108.883 200.189L109.609 238.401Z" fill="black"/>
<path d="M104.663 243.612L103.217 243.121C103.894 241.141 103.742 238.788 102.83 237.132C102.098 235.802 100.933 234.937 99.3672 234.56L99.7236 233.075C101.698 233.55 103.234 234.698 104.169 236.395C105.517 238.842 105.308 241.73 104.663 243.612Z" fill="white"/>
<path d="M154.772 236.385C154.772 238.293 153.489 239.842 151.906 239.842C150.322 239.842 149.039 238.293 149.039 236.385C149.039 234.476 150.322 232.927 151.906 232.927C153.489 232.927 154.772 234.476 154.772 236.385Z" fill="black"/>
<path d="M172.986 236.705C172.986 238.401 171.844 239.778 170.436 239.778C169.025 239.778 167.883 238.401 167.883 236.705C167.883 235.005 169.025 233.628 170.436 233.628C171.844 233.628 172.986 235.005 172.986 236.705Z" fill="black"/>
<path d="M162.808 243.269C163.704 244.555 165.045 244.976 166.271 245.858C168.804 247.682 165.992 250.342 164.085 251.271C163.202 251.702 163.977 253.021 164.856 252.59C166.824 251.631 169.084 249.574 168.841 247.171C168.569 244.437 165.453 244.397 164.129 242.498C163.57 241.697 162.246 242.461 162.808 243.269Z" fill="#000001"/>
<path d="M155.366 227.615C155.72 229.945 152.87 229.187 149.498 229.706C146.126 230.221 141.814 231.709 141.602 230.315C141.39 228.921 145.25 226.184 148.622 225.669C151.994 225.151 154.831 224.118 155.366 227.615Z" fill="black"/>
<path d="M167.845 228.595C167.558 230.46 169.842 229.854 172.544 230.269C175.245 230.683 177.021 231.433 177.193 230.319C177.364 229.201 175.946 227.447 173.245 227.037C170.543 226.623 168.272 225.795 167.845 228.595Z" fill="black"/>
<path d="M163.785 260.606C164.041 260.27 164.29 259.93 164.519 259.546L146.43 252.224C146.793 253.773 147.265 255.153 147.807 256.395C153.039 259.93 160.308 262.785 163.785 260.606Z" fill="white"/>
<path d="M147.805 256.395C151.648 265.201 159.44 266.38 163.782 260.606C160.306 262.784 153.036 259.929 147.805 256.395Z" fill="black"/>
<path d="M212.287 451.778L210.758 451.765C211.135 411.024 206.978 359.666 206.938 359.151L208.46 359.03C208.504 359.542 212.664 410.967 212.287 451.778Z" fill="black"/>
<path d="M61.2956 387.507L59.8047 387.17L69.374 344.79L70.8649 345.127L61.2956 387.507Z" fill="white"/>
<path d="M143.979 329.718L137.365 326.411L132.735 325.088L100.989 290.035L96.3594 296.649L118.185 329.718C128.406 335.627 135.819 336.996 143.979 329.718Z" fill="#6B5E7A"/>
<path d="M132.734 333.687V325.75L147.946 307.893L150.696 299.295L153.898 307.893L143.316 330.38L132.734 333.687Z" fill="#6B5E7A"/>
<path d="M31.7651 164.354C30.2531 164.357 28.7633 163.99 27.4256 163.285C26.0879 162.58 24.9428 161.559 24.0899 160.31L7.58426 135.948C6.21479 133.914 5.70482 131.421 6.1655 129.012C6.62617 126.604 8.02022 124.475 10.0437 123.09L34.406 106.584C36.4401 105.215 38.933 104.705 41.3415 105.165C43.75 105.626 45.8789 107.02 47.264 109.044L63.7697 133.406C65.1478 135.437 65.6629 137.933 65.2017 140.344C64.7406 142.755 63.3409 144.884 61.3103 146.264L36.9645 162.77C35.4298 163.808 33.618 164.36 31.7651 164.354ZM39.5393 106.584C38.0205 106.577 36.5354 107.032 35.2808 107.888L10.9184 124.394C9.2541 125.534 8.10838 127.287 7.73114 129.269C7.3539 131.251 7.7758 133.302 8.90479 134.974L25.4105 159.32C26.5485 160.987 28.2997 162.136 30.2819 162.516C32.2641 162.897 34.3164 162.477 35.9906 161.35L60.3365 144.844C62.0035 143.706 63.1526 141.955 63.5329 139.973C63.9133 137.991 63.494 135.939 62.3666 134.264L45.8609 109.918C45.161 108.888 44.218 108.047 43.1154 107.468C42.0128 106.89 40.7846 106.592 39.5393 106.601V106.584Z" fill="#315D80"/>
<path d="M187.567 192.963H187.352C181.938 192.864 176.838 189.15 173.355 182.746C168.767 174.344 169.229 163.104 173.983 153.365C168.14 152.786 162.241 153.519 156.718 155.511C144.239 160.133 138.215 170.366 140.625 182.812C140.645 182.92 140.644 183.031 140.622 183.139C140.599 183.247 140.556 183.35 140.494 183.441C140.432 183.532 140.352 183.61 140.26 183.671C140.168 183.731 140.065 183.773 139.956 183.794C139.848 183.814 139.736 183.813 139.628 183.791C139.52 183.768 139.418 183.725 139.327 183.663C139.236 183.601 139.157 183.521 139.097 183.429C139.036 183.337 138.995 183.234 138.974 183.125C136.399 169.789 142.803 158.878 156.107 153.96C162.077 151.821 168.459 151.087 174.758 151.814C176.187 149.231 177.91 146.822 179.892 144.634C189.795 133.509 204.023 130.571 218.796 136.596C218.896 136.635 218.988 136.695 219.066 136.771C219.143 136.847 219.204 136.938 219.246 137.038C219.287 137.138 219.308 137.245 219.308 137.354C219.307 137.462 219.284 137.569 219.241 137.669C219.201 137.769 219.142 137.861 219.066 137.939C218.991 138.017 218.9 138.079 218.801 138.122C218.701 138.165 218.594 138.188 218.485 138.189C218.377 138.191 218.269 138.171 218.168 138.131C204.073 132.387 190.571 135.16 181.13 145.723C179.378 147.69 177.84 149.837 176.541 152.128C185.008 153.465 192.832 157.574 196.992 164.87C201.465 172.677 201.943 180.567 198.494 186.492C197.398 188.433 195.813 190.052 193.895 191.188C191.977 192.323 189.795 192.935 187.567 192.963ZM175.716 153.58C170.946 162.955 170.384 173.866 174.791 181.953C178.093 187.895 182.516 191.23 187.369 191.312C189.349 191.301 191.29 190.765 192.995 189.759C194.7 188.753 196.108 187.312 197.074 185.585C200.276 180.187 199.732 172.908 195.572 165.613C191.561 158.614 183.969 154.752 175.716 153.58Z" fill="#F1D15B"/>
<path d="M279.753 118.602C278.262 119.873 277.516 120.508 276.72 121.042C274.894 122.266 272.843 123.115 270.687 123.541C269.746 123.727 268.769 123.805 266.816 123.961C261.907 124.352 259.453 124.548 257.405 125.272C252.669 126.944 248.944 130.669 247.272 135.405C246.548 137.453 246.352 139.907 245.961 144.815C245.805 146.769 245.727 147.746 245.541 148.687C245.115 150.843 244.266 152.894 243.042 154.72C242.508 155.516 241.873 156.262 240.602 157.753C237.408 161.501 235.811 163.375 234.874 165.334C232.709 169.866 232.709 175.134 234.874 179.666C235.811 181.625 237.408 183.499 240.602 187.247C241.873 188.738 242.509 189.484 243.042 190.28C244.266 192.106 245.115 194.157 245.541 196.313C245.727 197.254 245.805 198.231 245.961 200.184C246.352 205.093 246.548 207.547 247.272 209.595C248.944 214.331 252.669 218.056 257.405 219.729C259.453 220.451 261.907 220.647 266.815 221.039C268.769 221.195 269.746 221.273 270.687 221.459C272.843 221.885 274.894 222.734 276.72 223.958C277.516 224.491 278.262 225.127 279.753 226.398C283.501 229.592 285.375 231.189 287.334 232.126C291.866 234.291 297.134 234.291 301.666 232.126C303.625 231.189 305.499 229.592 309.247 226.398C310.738 225.127 311.484 224.491 312.28 223.958C314.106 222.734 316.157 221.885 318.313 221.459C319.254 221.273 320.231 221.195 322.184 221.039C327.092 220.647 329.547 220.451 331.595 219.729C336.331 218.056 340.056 214.331 341.729 209.595C342.451 207.547 342.647 205.093 343.039 200.185C343.195 198.232 343.273 197.254 343.459 196.313C343.885 194.157 344.734 192.106 345.958 190.28C346.491 189.484 347.127 188.738 348.398 187.247C351.592 183.499 353.189 181.625 354.126 179.666C356.291 175.134 356.291 169.866 354.126 165.334C353.189 163.375 351.592 161.501 348.398 157.753C347.127 156.262 346.491 155.516 345.958 154.72C344.734 152.894 343.885 150.843 343.459 148.687C343.273 147.746 343.195 146.769 343.039 144.816C342.647 139.907 342.451 137.453 341.729 135.405C340.056 130.669 336.331 126.944 331.595 125.272C329.547 124.548 327.093 124.352 322.184 123.961C320.231 123.805 319.254 123.727 318.313 123.541C316.157 123.115 314.106 122.266 312.28 121.042C311.484 120.508 310.738 119.873 309.247 118.602C305.499 115.408 303.625 113.811 301.666 112.874C297.134 110.709 291.866 110.709 287.334 112.874C285.375 113.811 283.501 115.408 279.753 118.602Z" fill="#F1D15B"/>
<path d="M321.4 152.255L321.293 152.361L321.4 152.255C319.394 150.25 316.143 150.25 314.138 152.255L284.536 181.857L274.874 172.195L274.768 172.301L274.874 172.195C272.868 170.19 269.617 170.19 267.612 172.195L267.612 172.195C265.607 174.2 265.606 177.452 267.612 179.457L280.905 192.75L281.011 192.644L280.905 192.75C282.91 194.755 286.161 194.755 288.167 192.75L321.4 159.517L321.293 159.411L321.4 159.517C323.405 157.512 323.405 154.261 321.4 152.255Z" fill="white" stroke="white" stroke-width="0.3"/>
<path d="M189.368 292.011C193.744 292.011 197.291 288.464 197.291 284.089C197.291 279.713 193.744 276.166 189.368 276.166C184.992 276.166 181.445 279.713 181.445 284.089C181.445 288.464 184.992 292.011 189.368 292.011Z" fill="#F1D15B"/>
<path d="M214.033 269.315C214.033 270.882 213.568 272.414 212.698 273.717C211.827 275.02 210.59 276.035 209.142 276.635C207.694 277.235 206.101 277.392 204.565 277.086C203.028 276.78 201.616 276.026 200.508 274.918C199.4 273.81 198.645 272.398 198.34 270.861C198.034 269.324 198.191 267.731 198.791 266.283C199.39 264.836 200.406 263.598 201.709 262.728C203.011 261.857 204.543 261.393 206.11 261.393C207.151 261.39 208.182 261.594 209.145 261.991C210.107 262.389 210.981 262.972 211.717 263.708C212.453 264.444 213.037 265.319 213.434 266.281C213.832 267.243 214.035 268.274 214.033 269.315Z" fill="#F1D15B"/>
<path d="M216.892 290.902C216.892 292.469 216.428 294.001 215.557 295.304C214.687 296.607 213.449 297.622 212.002 298.222C210.554 298.822 208.961 298.978 207.424 298.673C205.887 298.367 204.475 297.612 203.367 296.504C202.259 295.396 201.505 293.985 201.199 292.448C200.893 290.911 201.05 289.318 201.65 287.87C202.25 286.423 203.265 285.185 204.568 284.315C205.871 283.444 207.403 282.979 208.97 282.979C210.01 282.979 211.04 283.184 212.002 283.583C212.963 283.981 213.836 284.564 214.572 285.3C215.308 286.036 215.891 286.909 216.289 287.87C216.687 288.832 216.892 289.862 216.892 290.902Z" fill="#F1D15B"/>
<path d="M535.476 227.307C533.964 227.31 532.474 226.943 531.137 226.238C529.799 225.533 528.654 224.512 527.801 223.263L511.295 198.901C509.926 196.867 509.416 194.374 509.876 191.965C510.337 189.557 511.731 187.428 513.755 186.043L538.117 169.537C540.151 168.168 542.644 167.658 545.052 168.119C547.461 168.579 549.59 169.973 550.975 171.997L567.481 196.359C568.859 198.391 569.374 200.886 568.913 203.297C568.451 205.708 567.052 207.838 565.021 209.217L540.675 225.723C539.141 226.761 537.329 227.313 535.476 227.307ZM543.25 169.537C541.731 169.53 540.246 169.985 538.992 170.841L514.629 187.347C512.965 188.488 511.819 190.24 511.442 192.222C511.065 194.204 511.487 196.255 512.616 197.927L529.121 222.273C530.259 223.94 532.011 225.089 533.993 225.47C535.975 225.85 538.027 225.431 539.702 224.303L564.047 207.798C565.714 206.66 566.864 204.908 567.244 202.926C567.624 200.944 567.205 198.892 566.078 197.217L549.572 172.872C548.872 171.842 547.929 171 546.826 170.421C545.724 169.843 544.495 169.545 543.25 169.554V169.537Z" fill="#315D80"/>
<path d="M354.843 138.499C352.648 138.502 350.501 137.854 348.674 136.637C346.848 135.419 345.423 133.687 344.582 131.66C343.74 129.632 343.519 127.401 343.947 125.247C344.374 123.094 345.431 121.116 346.983 119.564C348.535 118.012 350.513 116.955 352.666 116.528C354.819 116.1 357.051 116.321 359.078 117.163C361.106 118.004 362.838 119.429 364.056 121.255C365.273 123.082 365.921 125.229 365.918 127.424C365.914 130.36 364.745 133.174 362.669 135.25C360.593 137.326 357.779 138.495 354.843 138.499ZM354.843 117.982C352.975 117.979 351.148 118.53 349.593 119.566C348.038 120.601 346.825 122.074 346.108 123.799C345.391 125.524 345.202 127.423 345.564 129.256C345.927 131.088 346.825 132.772 348.144 134.094C349.464 135.416 351.146 136.317 352.978 136.682C354.81 137.048 356.709 136.862 358.435 136.148C360.162 135.434 361.637 134.224 362.675 132.671C363.713 131.118 364.267 129.292 364.267 127.424C364.267 124.923 363.275 122.524 361.508 120.754C359.741 118.984 357.344 117.987 354.843 117.982Z" fill="#7DB3DB"/>
<path d="M404.438 496.842C406.423 488.442 412.456 481.579 420.533 478.534L443.533 469.862C446.459 468.759 449.56 468.193 452.686 468.193H631.821V494.44C631.821 508.436 620.476 519.781 606.481 519.781H399.016L404.438 496.842Z" fill="black"/>
</g>
<defs>
<filter id="filter0_i_5311_153" x="0" y="0" width="592" height="525" filterUnits="userSpaceOnUse" color-interpolation-filters="sRGB">
<feFlood flood-opacity="0" result="BackgroundImageFix"/>
<feBlend mode="normal" in="SourceGraphic" in2="BackgroundImageFix" result="shape"/>
<feColorMatrix in="SourceAlpha" type="matrix" values="0 0 0 0 0 0 0 0 0 0 0 0 0 0 0 0 0 0 127 0" result="hardAlpha"/>
<feOffset dx="4" dy="5"/>
<feGaussianBlur stdDeviation="2.5"/>
<feComposite in2="hardAlpha" operator="arithmetic" k2="-1" k3="1"/>
<feColorMatrix type="matrix" values="0 0 0 0 0.816667 0 0 0 0 0.885259 0 0 0 0 1 0 0 0 0.1 0"/>
<feBlend mode="normal" in2="shape" result="effect1_innerShadow_5311_153"/>
</filter>
<linearGradient id="paint0_linear_5311_153" x1="354.086" y1="-308.475" x2="354.086" y2="570.422" gradientUnits="userSpaceOnUse">
<stop offset="0.224084" stop-color="#AACAFF"/>
<stop offset="0.699839" stop-color="#94A5C2"/>
<stop offset="0.990578" stop-color="#94A5C2" stop-opacity="0.25"/>
</linearGradient>
</defs>
</svg>
