<svg width="88" height="88" viewBox="0 0 88 88" fill="none" xmlns="http://www.w3.org/2000/svg">
<path d="M87.0364 85.6039H77.2721L70.3885 64.2345L67.9792 65.0107L70.0375 71.4009H51.0363L46.688 57.9009H65.6891L67.1952 62.5763L69.6045 61.8001L55.6311 18.4214L59.7259 5.70947C60.1693 4.3331 59.9351 2.8732 59.0838 1.7044C58.2322 0.535383 56.9147 -0.134766 55.4685 -0.134766H41.7415C39.0785 -0.134766 36.7406 1.56834 35.9243 4.10318L9.6725 85.6039H0.962891V88.1352H87.0366V85.6039H87.0364ZM70.8532 73.9321L74.613 85.6039H55.6111L51.8518 73.9321H70.8532ZM52.5536 19.7204H33.5532L33.9419 18.5132H52.9423L52.5536 19.7204ZM35.1316 30.2782L37.5407 29.5022L35.2054 22.2514H51.7381L48.5938 32.013H29.5934L32.6419 22.5486L35.1316 30.2782ZM47.7786 34.5444L46.2345 39.3384H40.709L39.8501 36.6717H37.191L40.8541 48.0444H24.4301L28.7786 34.5444H47.7786ZM43.4716 47.916L41.5243 41.8696H45.4192L43.4716 47.916ZM41.6692 50.5757L42.1421 52.0436L38.2663 64.0759H19.2659L23.6144 50.5757H41.6692ZM43.4716 56.1716L52.9518 85.6039H33.9913L43.4716 56.1716ZM45.8728 55.3696L44.8014 52.0436L48.0785 41.8694H60.5249L64.8736 55.3694L45.8728 55.3696ZM59.7096 39.3384H48.894L54.3018 22.5497L59.7096 39.3384ZM38.3334 4.87943C38.8118 3.39443 40.1814 2.3967 41.7415 2.3967H55.4685C56.0963 2.3967 56.6681 2.68758 57.0377 3.19509C57.4072 3.7024 57.5087 4.33627 57.3163 4.93364L53.7576 15.9819H34.7572L38.3334 4.87943ZM18.4507 66.6071H37.4513L31.3322 85.6042H12.3318L18.4507 66.6071Z" fill="#315D80"/>
</svg>
