<svg width="76" height="74" viewBox="0 0 76 74" fill="none" xmlns="http://www.w3.org/2000/svg">
<path d="M21.875 66.9062H54.125V72.2812H21.875V66.9062Z" stroke="#FFB6A3" stroke-width="1.8" stroke-linejoin="round"/>
<path d="M33.9688 66.9062V56.1562C33.9688 54.6719 35.172 53.4688 36.6562 53.4688H39.3438C40.828 53.4688 42.0312 54.6719 42.0312 56.1562V66.9062" stroke="#FFB6A3" stroke-width="1.8" stroke-linejoin="round"/>
<path d="M42.0312 9.125C42.0312 9.65439 41.9269 10.1788 41.7243 10.6679C41.5217 11.157 41.2248 11.6012 40.8505 11.9755C40.4761 12.3499 40.0317 12.6469 39.5426 12.8495C39.0535 13.0521 38.5293 13.1563 38 13.1562C37.4706 13.1563 36.9464 13.0521 36.4573 12.8495C35.9682 12.6469 35.5238 12.3499 35.1494 11.9755C34.7751 11.6012 34.4782 11.157 34.2756 10.6679C34.073 10.1788 33.9687 9.65439 33.9688 9.125C33.9687 8.59561 34.073 8.07154 34.2756 7.58244C34.4782 7.09335 34.7751 6.64879 35.1494 6.27445C35.5238 5.90012 35.9682 5.60341 36.4573 5.40082C36.9464 5.19823 37.4706 5.09375 38 5.09375C38.5293 5.09375 39.0535 5.19823 39.5426 5.40082C40.0317 5.60341 40.4761 5.90012 40.8505 6.27445C41.2248 6.64879 41.5217 7.09335 41.7243 7.58244C41.9269 8.07154 42.0312 8.59561 42.0312 9.125Z" stroke="#FFB6A3" stroke-width="1.8" stroke-linejoin="round"/>
<path d="M38 38.0156V52.7778" stroke="#FFB6A3" stroke-width="1.8" stroke-linecap="round" stroke-linejoin="round"/>
<path d="M38 1.08008V5.07426" stroke="#FFB6A3" stroke-width="1.8" stroke-linecap="round" stroke-linejoin="round"/>
<path d="M33.9688 9.125H11.125M11.125 9.125L1.71875 38.6875V40.7031C1.71875 43.0196 2.63898 45.2412 4.27699 46.8793C5.915 48.5173 8.13662 49.4375 10.4531 49.4375C11.6001 49.4375 12.7359 49.2118 13.7956 48.7728C14.8553 48.3339 15.8182 47.6903 16.6293 46.8793C17.4403 46.0682 18.0837 45.1055 18.5226 44.0458C18.9616 42.9861 19.1875 41.8501 19.1875 40.7031V38.6875L11.125 9.125Z" stroke="#FFB6A3" stroke-width="1.8" stroke-linejoin="round"/>
<path d="M1.71875 40.0312H19.1875" stroke="#FFB6A3" stroke-width="1.8"/>
<path d="M42.0312 9.125H64.875M64.875 9.125L74.2812 38.6875V40.7031C74.2812 43.0196 73.361 45.2412 71.723 46.8793C70.085 48.5173 67.8634 49.4375 65.5469 49.4375C63.2304 49.4375 61.0088 48.5173 59.3707 46.8793C57.7327 45.2412 56.8125 43.0196 56.8125 40.7031V38.6875L64.875 9.125Z" stroke="#FFB6A3" stroke-width="1.8" stroke-linejoin="round"/>
<path d="M56.8125 40.0312H74.2812" stroke="#FFB6A3" stroke-width="1.8"/>
<path d="M38 13.8467V28.6089" stroke="#FFB6A3" stroke-width="1.8" stroke-linecap="round" stroke-linejoin="round"/>
<path d="M39.3437 33.3125C39.3437 33.6689 39.2022 34.0106 38.9502 34.2626C38.6982 34.5146 38.3564 34.6562 38 34.6562C37.6436 34.6562 37.3018 34.5146 37.0498 34.2626C36.7978 34.0106 36.6562 33.6689 36.6562 33.3125C36.6562 32.9561 36.7978 32.6144 37.0498 32.3624C37.3018 32.1104 37.6436 31.9688 38 31.9688C38.3564 31.9688 38.6982 32.1104 38.9502 32.3624C39.2022 32.6144 39.3437 32.9561 39.3437 33.3125Z" fill="#FFB6A3"/>
</svg>
