<svg width="74" height="74" viewBox="0 0 74 74" fill="none" xmlns="http://www.w3.org/2000/svg">
<path d="M72.1563 35.5937C71.9716 35.5937 71.7887 35.63 71.6181 35.7007C71.4474 35.7713 71.2924 35.8749 71.1618 36.0055C71.0312 36.1361 70.9276 36.2912 70.857 36.4618C70.7863 36.6324 70.75 36.8153 70.75 37C70.7504 44.6545 68.1488 52.0818 63.3723 58.0632C58.5957 64.0445 51.9279 68.2245 44.4629 69.9174C36.9979 71.6103 29.1792 70.7154 22.2898 67.3797C15.4004 64.0439 9.84941 58.4654 6.54782 51.5595C3.24624 44.6536 2.39013 36.8306 4.11998 29.3741C5.84983 21.9176 10.0629 15.2705 16.0678 10.5237C22.0727 5.77683 29.5128 3.21212 37.1673 3.25042C44.8217 3.28871 52.2358 5.92773 58.1929 10.7344H52.2628C51.8898 10.7344 51.5321 10.8826 51.2684 11.1463C51.0047 11.41 50.8565 11.7677 50.8565 12.1407C50.8565 12.5136 51.0047 12.8713 51.2684 13.135C51.5321 13.3988 51.8898 13.5469 52.2628 13.5469H61.8593C62.2318 13.5455 62.5887 13.3969 62.8521 13.1335C63.1155 12.8701 63.2641 12.5132 63.2656 12.1407V2.54413C63.2656 2.17117 63.1174 1.81348 62.8537 1.54976C62.59 1.28604 62.2323 1.13788 61.8593 1.13788C61.4864 1.13788 61.1287 1.28604 60.865 1.54976C60.6012 1.81348 60.4531 2.17117 60.4531 2.54413V8.95602C53.2308 2.91566 43.9566 -0.105533 34.5622 0.521711C25.1679 1.14896 16.3776 5.37628 10.0225 12.3232C3.6673 19.2701 0.237174 28.4009 0.446551 37.8139C0.655928 47.2268 4.48866 56.1961 11.1464 62.8536C16.2598 67.9669 22.7746 71.4492 29.867 72.8599C36.9595 74.2707 44.3109 73.5466 50.9919 70.7793C57.6728 68.012 63.3831 63.3257 67.4006 57.313C71.4181 51.3003 73.5625 44.2314 73.5625 37C73.5626 36.8153 73.5262 36.6324 73.4556 36.4618C73.3849 36.2912 73.2813 36.1361 73.1507 36.0055C73.0201 35.8749 72.8651 35.7713 72.6945 35.7007C72.5238 35.63 72.3409 35.5937 72.1563 35.5937Z" fill="#6B5E7A"/>
<path d="M44.7674 26.9076L37.6016 46.5951C37.5379 46.7687 37.5091 46.9532 37.5169 47.1379C37.5246 47.3227 37.5687 47.5041 37.6467 47.6718C37.7246 47.8395 37.8349 47.9901 37.9712 48.1151C38.1074 48.2401 38.267 48.337 38.4408 48.4002C38.6146 48.4635 38.7991 48.4918 38.9839 48.4836C39.1686 48.4754 39.3499 48.4308 39.5174 48.3524C39.6849 48.274 39.8352 48.1634 39.9599 48.0268C40.0845 47.8902 40.181 47.7303 40.2438 47.5564L47.4096 27.8689C47.5371 27.5185 47.5202 27.1319 47.3626 26.794C47.2049 26.4561 46.9196 26.1946 46.5692 26.0671C46.2188 25.9397 45.8321 25.9566 45.4942 26.1142C45.1563 26.2718 44.8949 26.5572 44.7674 26.9076Z" fill="#6B5E7A"/>
<path d="M25.133 34.4566C25.1348 33.7743 25.0014 33.0985 24.7403 32.4682C24.4792 31.8378 24.0958 31.2655 23.6121 30.7844C21.6497 28.8206 18.2301 28.8206 16.2677 30.7844C15.7838 31.2654 15.4002 31.8377 15.139 32.468C14.8778 33.0983 14.7443 33.7742 14.7461 34.4566C14.7461 34.8295 14.8943 35.1872 15.158 35.4509C15.4217 35.7147 15.7794 35.8628 16.1524 35.8628C16.5253 35.8628 16.883 35.7147 17.1467 35.4509C17.4105 35.1872 17.5586 34.8295 17.5586 34.4566C17.5579 34.1437 17.6192 33.8339 17.7389 33.5449C17.8586 33.2559 18.0345 32.9935 18.2563 32.7729C18.7095 32.3393 19.3126 32.0972 19.9399 32.0972C20.5672 32.0972 21.1703 32.3393 21.6236 32.7729C22.0698 33.2193 22.3205 33.8247 22.3205 34.4559C22.3205 35.0871 22.0698 35.6924 21.6236 36.1388L15.1581 42.6043C14.9614 42.8009 14.8275 43.0515 14.7732 43.3243C14.7189 43.597 14.7467 43.8798 14.8532 44.1367C14.9596 44.3937 15.1398 44.6133 15.3711 44.7678C15.6024 44.9224 15.8742 45.0048 16.1524 45.0048H23.7268C24.0997 45.0048 24.4574 44.8567 24.7211 44.5929C24.9849 44.3292 25.133 43.9715 25.133 43.5986C25.133 43.2256 24.9849 42.8679 24.7211 42.6042C24.4574 42.3405 24.0997 42.1923 23.7268 42.1923H19.5471L23.6121 38.1274C24.0957 37.6465 24.4792 37.0744 24.7403 36.4443C25.0013 35.8142 25.1348 35.1386 25.133 34.4566Z" fill="#6B5E7A"/>
<path d="M33.1484 45.0047C33.3331 45.0047 33.516 44.9684 33.6866 44.8977C33.8572 44.8271 34.0123 44.7235 34.1429 44.5929C34.2735 44.4623 34.377 44.3073 34.4477 44.1366C34.5184 43.966 34.5547 43.7831 34.5546 43.5984V41.5014H35.2804C35.6534 41.5014 36.0111 41.3532 36.2748 41.0895C36.5385 40.8258 36.6867 40.4681 36.6867 40.0951C36.6867 39.7221 36.5385 39.3645 36.2748 39.1007C36.0111 38.837 35.6534 38.6889 35.2804 38.6889H34.5546V30.6688C34.5545 30.3662 34.4568 30.0716 34.2759 29.8289C34.095 29.5862 33.8407 29.4083 33.5507 29.3216C33.2607 29.2349 32.9505 29.2441 32.6661 29.3478C32.3817 29.4514 32.1384 29.6441 31.9722 29.8971L25.791 39.3233C25.6518 39.5355 25.5727 39.7813 25.5618 40.0348C25.551 40.2882 25.6089 40.5399 25.7295 40.7632C25.85 40.9864 26.0287 41.1729 26.2466 41.3028C26.4645 41.4328 26.7135 41.5014 26.9672 41.5014H31.7421V43.5984C31.7421 43.7831 31.7784 43.966 31.8491 44.1366C31.9198 44.3073 32.0233 44.4623 32.1539 44.5929C32.2845 44.7235 32.4396 44.8271 32.6102 44.8977C32.7808 44.9684 32.9637 45.0047 33.1484 45.0047ZM29.571 38.6889L31.7421 35.3778V38.6889H29.571Z" fill="#6B5E7A"/>
<path d="M52.2852 43.5986C52.2852 43.9715 52.4333 44.3292 52.697 44.593C52.9608 44.8567 53.3185 45.0048 53.6914 45.0048C54.0644 45.0048 54.4221 44.8567 54.6858 44.593C54.9495 44.3292 55.0977 43.9715 55.0977 43.5986V40.7036C55.0933 39.024 55.422 37.3602 56.0648 35.8084C56.7076 34.2566 57.6518 32.8477 58.8426 31.6632C59.0393 31.4666 59.1733 31.216 59.2275 30.9432C59.2818 30.6705 59.254 30.3877 59.1475 30.1308C59.0411 29.8738 58.8609 29.6542 58.6296 29.4997C58.3984 29.3451 58.1265 29.2627 57.8484 29.2627H49.5352C49.1622 29.2627 48.8045 29.4109 48.5408 29.6746C48.2771 29.9383 48.1289 30.296 48.1289 30.6689C48.1289 31.0419 48.2771 31.3996 48.5408 31.6633C48.8045 31.927 49.1622 32.0752 49.5352 32.0752H54.8834C53.1813 34.6302 52.2769 37.6335 52.2852 40.7036V43.5986Z" fill="#6B5E7A"/>
</svg>
