<svg width="83" height="77" viewBox="0 0 83 77" fill="none" xmlns="http://www.w3.org/2000/svg">
<path d="M4.32422 1.54688H78.6784" stroke="#6B5E7A" stroke-width="2" stroke-miterlimit="10" stroke-linecap="round" stroke-linejoin="round"/>
<path d="M69.3832 49.5859H13.6176C10.4575 49.5859 8.04102 47.184 8.04102 44.043V1.54688H74.9598V44.043C74.9598 47.184 72.5433 49.5859 69.3832 49.5859Z" stroke="#6B5E7A" stroke-width="2" stroke-miterlimit="10" stroke-linecap="round" stroke-linejoin="round"/>
<path d="M41.5009 75.4531C43.5541 75.4531 45.2186 73.7987 45.2186 71.7578C45.2186 69.7169 43.5541 68.0625 41.5009 68.0625C39.4477 68.0625 37.7832 69.7169 37.7832 71.7578C37.7832 73.7987 39.4477 75.4531 41.5009 75.4531Z" stroke="#6B5E7A" stroke-width="2" stroke-miterlimit="10" stroke-linecap="round" stroke-linejoin="round"/>
<path d="M41.5 68.0625V49.5859" stroke="#6B5E7A" stroke-width="2" stroke-miterlimit="10" stroke-linecap="round" stroke-linejoin="round"/>
<path d="M20.1223 14.4805C21.6622 14.4805 22.9105 13.2396 22.9105 11.709C22.9105 10.1783 21.6622 8.9375 20.1223 8.9375C18.5823 8.9375 17.334 10.1783 17.334 11.709C17.334 13.2396 18.5823 14.4805 20.1223 14.4805Z" stroke="#6B5E7A" stroke-width="2" stroke-miterlimit="10" stroke-linecap="round" stroke-linejoin="round"/>
<path d="M31.2766 25.5664C32.8165 25.5664 34.0648 24.3256 34.0648 22.7949C34.0648 21.2643 32.8165 20.0234 31.2766 20.0234C29.7366 20.0234 28.4883 21.2643 28.4883 22.7949C28.4883 24.3256 29.7366 25.5664 31.2766 25.5664Z" stroke="#6B5E7A" stroke-width="2" stroke-miterlimit="10" stroke-linecap="round" stroke-linejoin="round"/>
<path d="M32.5778 10.416L18.8223 24.0887" stroke="#6B5E7A" stroke-width="2" stroke-miterlimit="10" stroke-linecap="round" stroke-linejoin="round"/>
<path d="M43.3594 12.6328H65.6656" stroke="#6B5E7A" stroke-width="2" stroke-miterlimit="10" stroke-linecap="round" stroke-linejoin="round"/>
<path d="M43.3594 21.8711H65.6656" stroke="#6B5E7A" stroke-width="2" stroke-miterlimit="10" stroke-linecap="round" stroke-linejoin="round"/>
<path d="M17.334 31.1094H65.6642" stroke="#6B5E7A" stroke-width="2" stroke-miterlimit="10" stroke-linecap="round" stroke-linejoin="round"/>
<path d="M17.334 40.3477H65.6642" stroke="#6B5E7A" stroke-width="2" stroke-miterlimit="10" stroke-linecap="round" stroke-linejoin="round"/>
</svg>
