<svg width="67" height="67" viewBox="0 0 67 67" fill="none" xmlns="http://www.w3.org/2000/svg">
<g clip-path="url(#clip0_1270_1316)">
<path d="M65.9846 0H1.01538C0.746085 0 0.487819 0.106977 0.297398 0.297398C0.106977 0.487819 0 0.746085 0 1.01538L0 29.437C0 29.7063 0.106977 29.9645 0.297398 30.1549C0.487819 30.3454 0.746085 30.4523 1.01538 30.4523C1.28468 30.4523 1.54294 30.3454 1.73336 30.1549C1.92378 29.9645 2.03076 29.7063 2.03076 29.437V15.5641H64.9692V29.437C64.9692 29.7063 65.0762 29.9645 65.2666 30.1549C65.4571 30.3454 65.7153 30.4523 65.9846 30.4523C66.2539 30.4523 66.5122 30.3454 66.7026 30.1549C66.893 29.9645 67 29.7063 67 29.437V1.01538C67 0.746085 66.893 0.487819 66.7026 0.297398C66.5122 0.106977 66.2539 0 65.9846 0ZM64.9692 13.5334H2.03076V2.03076H64.9692V13.5334ZM58.7648 7.0622C60.2651 5.84981 61.3836 8.63529 59.4831 8.79593C59.2841 8.7919 59.0906 8.72997 58.9262 8.61771C58.7618 8.50545 58.6336 8.34773 58.5574 8.16381C58.4812 7.9799 58.4603 7.77777 58.4971 7.58213C58.5339 7.38649 58.6269 7.20582 58.7648 7.0622ZM53.3939 6.7591C53.6632 6.7591 53.9215 6.86608 54.1119 7.0565C54.3023 7.24692 54.4093 7.50519 54.4093 7.77449C54.4093 8.04378 54.3023 8.30205 54.1119 8.49247C53.9215 8.68289 53.6632 8.78987 53.3939 8.78987C53.1389 8.77012 52.9008 8.6549 52.7271 8.46723C52.5534 8.27955 52.4569 8.03324 52.4569 7.77752C52.4569 7.52179 52.5534 7.27548 52.7271 7.08781C52.9008 6.90013 53.1389 6.78491 53.3939 6.76517V6.7591ZM46.5863 7.0622C46.7046 6.94916 46.8488 6.86668 47.0062 6.82192C47.1636 6.77716 47.3295 6.77147 47.4897 6.80535C47.6498 6.83922 47.7992 6.91163 47.925 7.0163C48.0508 7.12098 48.1492 7.25476 48.2116 7.40605C48.274 7.55733 48.2986 7.72156 48.2832 7.88449C48.2678 8.04742 48.2129 8.20414 48.1233 8.34106C48.0336 8.47798 47.9119 8.59097 47.7688 8.67023C47.6256 8.74949 47.4652 8.79264 47.3016 8.79593C47.1022 8.79267 46.9081 8.73112 46.7433 8.61886C46.5785 8.5066 46.4501 8.34855 46.3741 8.1642C46.298 7.97985 46.2776 7.77727 46.3153 7.58144C46.353 7.38562 46.4472 7.20511 46.5863 7.0622ZM67 51.0964V65.9846C67 66.2539 66.893 66.5122 66.7026 66.7026C66.5122 66.893 66.2539 67 65.9846 67H1.01538C0.746085 67 0.487819 66.893 0.297398 66.7026C0.106977 66.5122 0 66.2539 0 65.9846L0 51.0964C0 50.8271 0.106977 50.5688 0.297398 50.3784C0.487819 50.188 0.746085 50.081 1.01538 50.081C1.28468 50.081 1.54294 50.188 1.73336 50.3784C1.92378 50.5688 2.03076 50.8271 2.03076 51.0964V64.9692H64.9692V51.0964C64.9692 50.8271 65.0762 50.5688 65.2666 50.3784C65.4571 50.188 65.7153 50.081 65.9846 50.081C66.2539 50.081 66.5122 50.188 66.7026 50.3784C66.893 50.5688 67 50.8271 67 51.0964ZM58.7709 35.0322C58.6817 34.8778 58.5536 34.7495 58.3994 34.6601C58.2451 34.5708 58.0701 34.5235 57.8919 34.523H52.4361C52.2578 34.5235 52.0828 34.5708 51.9286 34.6601C51.7743 34.7495 51.6462 34.8778 51.5571 35.0322L48.8292 39.7696C48.7398 39.9239 48.6927 40.099 48.6927 40.2773C48.6927 40.4556 48.7398 40.6307 48.8292 40.785L51.5571 45.5224C51.6469 45.676 51.7752 45.8035 51.9293 45.8923C52.0835 45.9811 52.2582 46.0281 52.4361 46.0286H57.8919C58.0698 46.0281 58.2445 45.9811 58.3986 45.8923C58.5528 45.8035 58.6811 45.676 58.7709 45.5224L61.4988 40.785C61.5882 40.6307 61.6353 40.4556 61.6353 40.2773C61.6353 40.099 61.5882 39.9239 61.4988 39.7696L58.7709 35.0322ZM57.3069 43.9978H53.0059L50.86 40.2758L53.0059 36.5537H57.3069L59.4559 40.2758L57.3069 43.9978ZM55.164 28.4246C53.3258 28.425 51.513 28.8532 49.869 29.6755C48.225 30.4978 46.795 31.6914 45.6922 33.162H21.3351C20.1076 31.5542 18.4907 30.2856 16.637 29.476C14.7833 28.6664 12.7538 28.3425 10.7401 28.5348C8.72645 28.7271 6.79498 29.4293 5.12797 30.5751C3.46096 31.7209 2.11338 33.2726 1.2124 35.0837C1.13692 35.2383 1.10194 35.4095 1.11075 35.5812C1.11955 35.753 1.17186 35.9198 1.26275 36.0658C1.35364 36.2118 1.48014 36.3324 1.63039 36.4161C1.78063 36.4999 1.94968 36.5441 2.12169 36.5446H12.6574L14.8064 40.2667L12.6574 43.9887H2.13685C1.96457 43.9892 1.79524 44.0334 1.64469 44.1172C1.49415 44.2009 1.36731 44.3215 1.27605 44.4676C1.17923 44.6138 1.12241 44.7828 1.11124 44.9577C1.10007 45.1327 1.13495 45.3075 1.2124 45.4648C2.11386 47.2736 3.46091 48.8231 5.12666 49.9674C6.79242 51.1117 8.72205 51.8132 10.7338 52.0057C12.7456 52.1983 14.7732 51.8755 16.6258 51.0679C18.4783 50.2603 20.0948 48.9944 21.323 47.3895H45.6709C46.8837 49.0002 48.4876 50.2747 50.3308 51.092C52.1739 51.9094 54.1952 52.2426 56.2032 52.0601C58.2111 51.8776 60.1393 51.1855 61.8049 50.0492C63.4704 48.913 64.8184 47.3703 65.7208 45.5673C66.6233 43.7643 67.0506 41.7608 66.962 39.7465C66.8734 37.7322 66.272 35.7739 65.2148 34.057C64.1575 32.3402 62.6794 30.9218 60.9205 29.9361C59.1617 28.9504 57.1802 28.4302 55.164 28.4246ZM55.164 50.081C53.5645 50.0798 51.9895 49.6879 50.5759 48.9394C49.1624 48.1909 47.953 47.1084 47.0531 45.7861C46.9596 45.6497 46.8343 45.5382 46.688 45.4611C46.5417 45.384 46.3788 45.3436 46.2135 45.3436H20.8138C20.6485 45.3439 20.4857 45.3843 20.3395 45.4614C20.1933 45.5385 20.0679 45.6499 19.9742 45.7861C19.08 47.0784 17.89 48.1385 16.5034 48.8781C15.1168 49.6177 13.5736 50.0155 12.0022 50.0383C10.4308 50.0612 8.87668 49.7084 7.46915 49.0094C6.06163 48.3103 4.84139 47.2853 3.90998 46.0195H13.2424C13.4207 46.0192 13.5959 45.9724 13.7506 45.8836C13.9053 45.7948 14.0342 45.6672 14.1244 45.5133L16.8523 40.7759C16.9417 40.6216 16.9888 40.4465 16.9888 40.2682C16.9888 40.0899 16.9417 39.9148 16.8523 39.7605L14.1244 35.0231C14.0348 34.8685 13.9062 34.7401 13.7514 34.6507C13.5966 34.5613 13.4211 34.5142 13.2424 34.5139H3.9221C4.85375 33.2482 6.07418 32.2234 7.48185 31.5246C8.88951 30.8259 10.4437 30.4734 12.0151 30.4965C13.5865 30.5197 15.1296 30.9177 16.5161 31.6576C17.9026 32.3975 19.0923 33.4578 19.9863 34.7503C20.08 34.8865 20.2054 34.9979 20.3516 35.075C20.4979 35.1521 20.6606 35.1925 20.8259 35.1928H46.2165C46.3819 35.1927 46.5447 35.1524 46.691 35.0753C46.8373 34.9982 46.9626 34.8867 47.0561 34.7503C48.0078 33.3517 49.3049 32.2229 50.8216 31.4735C52.3382 30.7242 54.0229 30.3797 55.7119 30.4735C57.401 30.5674 59.0371 31.0963 60.4615 32.0091C61.8858 32.9219 63.0499 34.1874 63.8407 35.6828C64.6316 37.1783 65.0224 38.8528 64.9752 40.5438C64.9279 42.2348 64.4442 43.8849 63.571 45.3338C62.6979 46.7827 61.4649 47.9813 59.9918 48.8131C58.5188 49.6449 56.8557 50.0817 55.164 50.081Z" fill="#C06A87"/>
</g>
<defs>
<clipPath id="clip0_1270_1316">
<rect width="67" height="67" fill="white"/>
</clipPath>
</defs>
</svg>
