<svg width="70" height="62" viewBox="0 0 70 62" fill="none" xmlns="http://www.w3.org/2000/svg">
<path fill-rule="evenodd" clip-rule="evenodd" d="M69.5 53.9998C69.5 58.1428 66.143 61.4998 62 61.4998H8C3.857 61.4998 0.5 58.1428 0.5 53.9998V10.4998C0.5 7.18627 3.1865 4.49977 6.5 4.49977H36.7565L48.905 0.0987737C49.6745 -0.181726 50.5265 0.215774 50.807 0.982274L52.0865 4.49977H57.5C60.8135 4.49977 63.5 7.18627 63.5 10.4998V13.4998C66.8135 13.4998 69.5 16.1863 69.5 19.4998V53.9998ZM6.5 7.49977C4.844 7.49977 3.5 8.84377 3.5 10.4998C3.5 12.1558 4.844 13.4998 6.5 13.4998H11.6675H11.951C11.9705 13.4923 11.9825 13.4758 12.002 13.4683L28.475 7.49977H6.5ZM50.117 7.77127L48.524 3.38527L45.446 4.49977H45.4505L37.1795 7.49977H37.1645L20.606 13.4998H52.199L50.117 7.77127ZM60.5 10.4998C60.5 8.84377 59.156 7.49977 57.5 7.49977H53.1755L55.3565 13.4998H60.5V10.4998ZM63.5 16.4998H6.5C5.402 16.4998 4.385 16.1833 3.5 15.6673V53.9998C3.5 56.4853 5.516 58.4998 8 58.4998H62C64.4855 58.4998 66.5 56.4853 66.5 53.9998V43.4998H60.5C57.1865 43.4998 54.5 40.8133 54.5 37.4998C54.5 34.1863 57.1865 31.4998 60.5 31.4998H66.5V19.4998C66.5 17.8438 65.156 16.4998 63.5 16.4998ZM66.5 40.4998V34.4998H60.5C58.844 34.4998 57.5 35.8438 57.5 37.4998C57.5 39.1558 58.844 40.4998 60.5 40.4998H66.5ZM60.5 35.9998H63.5V38.9998H60.5V35.9998Z" fill="#C06A87"/>
</svg>
