<svg width="24" height="24" viewBox="0 0 24 24" fill="none" xmlns="http://www.w3.org/2000/svg">
<g clip-path="url(#clip0_5555_911)">
<path d="M37.6666 13.0005H35.0006C34.8166 13.0005 34.6672 13.1125 34.6672 13.2505L34.6679 14.5C34.6679 14.7765 34.3699 15.0005 34.0013 15.0005C33.6333 15.0005 33.3346 14.777 33.3346 14.501L33.3339 13.2505C33.3339 13.1125 33.1846 13.0005 33.0006 13.0005H31.0006C30.8166 13.0005 30.6672 13.1125 30.6672 13.2505L30.6678 15.5005C30.6678 15.7765 30.3699 16.0005 30.0012 16.0005C29.6332 16.0005 29.3346 15.777 29.3346 15.5005L29.3332 13.2505C29.3332 13.1125 29.1839 13.0005 28.9999 13.0005H26.9999C26.8159 13.0005 26.6665 13.1125 26.6665 13.2505L26.6672 14.5005C26.6672 14.7765 26.3692 15.0005 26.0006 15.0005C25.6326 15.0005 25.3339 14.777 25.3339 14.5005L25.3333 13.2505C25.3333 13.1125 25.184 13.0005 25 13.0005H23C22.816 13.0005 22.6666 13.1125 22.6666 13.2505L22.6673 15.5005C22.6673 15.7765 22.3693 16.0005 22.0007 16.0005C21.6327 16.0005 21.334 15.777 21.334 15.5005L21.3333 13.2505C21.3333 13.1125 21.184 13.0005 21 13.0005H19C18.816 13.0005 18.6666 13.1125 18.6666 13.2505L18.6673 14.5005C18.6673 14.7765 18.3693 15.0005 18.0007 15.0005C17.6327 15.0005 17.334 14.777 17.334 14.5005L17.3333 13.2505C17.3333 13.1125 17.184 13.0005 17 13.0005H15C14.816 13.0005 14.6666 13.1125 14.6666 13.2505L14.6672 15.5005C14.6672 15.7765 14.3693 16.0005 14.0006 16.0005C13.6326 16.0005 13.334 15.777 13.334 15.5005L13.3333 13.2505C13.3333 13.1125 13.184 13.0005 12.9999 13.0005H10.9999C10.8159 13.0005 10.6665 13.1125 10.6665 13.2505L10.6672 14.5005C10.6672 14.7765 10.3692 15.0005 10.0005 15.0005C9.63256 15.0005 9.33389 14.777 9.33389 14.5005L9.33318 13.2505C9.33318 13.1125 9.18389 13.0005 8.99982 13.0005H6.99983C6.81584 13.0005 6.66647 13.1125 6.66647 13.2505L6.66717 15.5005C6.66717 15.7765 6.3692 16.0005 6.00053 16.0005C5.63256 16.0005 5.33389 15.777 5.33389 15.5005L5.33327 13.2505C5.33327 13.1125 5.18397 13.0005 4.99991 13.0005H2.99999C2.81601 13.0005 2.66663 13.1125 2.66663 13.2505V14.5005C2.66663 14.777 2.36866 15.0005 1.99999 15.0005C1.63132 15.0005 1.33335 14.777 1.33335 14.5005V13.2505C1.33335 13.1125 1.18406 13.0005 0.999995 13.0005H-1.66664C-1.8507 13.0005 -2 13.1125 -2 13.2505V19.7505C-2 19.8885 -1.8507 20.0005 -1.66664 20.0005H37.6666C37.8506 20.0005 38 19.8885 38 19.7505V13.2505C37.9999 13.1125 37.8506 13.0005 37.6666 13.0005Z" fill="#C06A87"/>
<path d="M22.876 5.63445L20.198 2.20607C20.0532 2.02092 19.8155 1.9541 19.6039 2.03465C19.3922 2.11694 19.2509 2.33175 19.2509 2.57234V4.00086L4.74906 4.00086V2.57181C4.74906 2.33122 4.60773 2.11641 4.39609 2.03472C4.1844 1.95302 3.94735 2.02045 3.80203 2.20614L1.12403 5.63506C1.04157 5.74079 1 5.87103 1 6.00073C1 6.13043 1.0415 6.26074 1.12403 6.367L3.80203 9.79538C3.90585 9.92797 4.05753 10.0005 4.21326 10.0005C4.27443 10.0005 4.33614 9.98903 4.39555 9.9662C4.60725 9.88391 4.74852 9.6691 4.74852 9.42911V8.00059L19.2503 8.0006V9.42911C19.2503 9.6697 19.3917 9.88451 19.6033 9.9662C19.6627 9.98904 19.7244 10.0005 19.7856 10.0005C19.9413 10.0005 20.093 9.9279 20.1974 9.79539L22.8754 6.367C22.9585 6.26074 23 6.13103 23 6.00073C23 5.87042 22.9584 5.74079 22.876 5.63445Z" fill="#9BB997"/>
</g>
<defs>
<clipPath id="clip0_5555_911">
<rect width="24" height="24" fill="white"/>
</clipPath>
</defs>
</svg>
