<svg width="24" height="24" viewBox="0 0 24 24" fill="none" xmlns="http://www.w3.org/2000/svg">
<g clip-path="url(#clip0_5555_891)">
<path d="M5.95798 9.482H7.53485C7.48024 8.57713 7.36413 7.6731 7.18437 6.77418L6.97751 5.73997L8.01171 5.94679C10.5895 6.46241 13.2036 6.46241 15.7813 5.94679L16.8155 5.73997L16.6087 6.77418C16.4289 7.6731 16.3128 8.57708 16.2582 9.482H18.2041C19.9129 9.482 21.3432 10.6971 21.6764 12.3087V0.930176H2.32324V12.4485C2.32366 12.4484 2.32409 12.4484 2.32451 12.4483C2.66909 10.7579 4.1673 9.482 5.95798 9.482Z" fill="#F1D15B"/>
<path d="M16.3023 12.425H20.257C19.9961 11.5379 19.175 10.8882 18.2045 10.8882H16.2236C16.2295 11.4011 16.2561 11.9137 16.3023 12.425Z" fill="#695F7E"/>
<path d="M8.90353 12.4251H14.8901C14.752 10.787 14.8064 9.13864 15.0539 7.50195C12.9548 7.8192 10.8388 7.8192 8.73975 7.50195C8.98711 9.13869 9.04157 10.787 8.90353 12.4251Z" fill="#695F7E"/>
<path d="M7.49143 12.425C7.53764 11.9136 7.56422 11.4011 7.57008 10.8882H5.95829C4.95718 10.8882 4.10372 11.5308 3.7876 12.425H7.49143Z" fill="#695F7E"/>
<path d="M21.2381 13.7847H2.76192C1.239 13.7847 0 15.0237 0 16.5466V17.6821H24V16.5466C24 15.0237 22.761 13.7847 21.2381 13.7847Z" fill="#F1D15B"/>
<path d="M24 21.1699V19.0884H0V21.1699H1.79264V23.0697H3.19889V21.1699H20.8011V23.0697H22.2074V21.1699H24Z" fill="#695F7E"/>
</g>
<defs>
<clipPath id="clip0_5555_891">
<rect width="24" height="24" fill="white"/>
</clipPath>
</defs>
</svg>
