<svg width="22" height="23" viewBox="0 0 22 23" fill="none" xmlns="http://www.w3.org/2000/svg">
<path d="M21.9985 3.11739V5.59522H8.3461e-06V3.11739C-0.00113747 2.76029 0.115725 2.41281 0.332429 2.12897C0.549133 1.84513 0.853538 1.64084 1.19832 1.54785C1.33171 1.51201 1.46924 1.49395 1.60736 1.49414H4.51786V3.07872C4.51459 3.26532 4.54853 3.4507 4.61768 3.62405C4.68683 3.79739 4.78982 3.95523 4.92063 4.08834C5.05144 4.22146 5.20745 4.32718 5.37955 4.39936C5.55166 4.47153 5.73642 4.5087 5.92305 4.5087C6.10968 4.5087 6.29444 4.47153 6.46655 4.39936C6.63866 4.32718 6.79467 4.22146 6.92548 4.08834C7.05629 3.95523 7.15927 3.79739 7.22842 3.62405C7.29758 3.4507 7.33151 3.26532 7.32825 3.07872V1.49414H14.6702V3.07872C14.6702 3.45146 14.8183 3.80893 15.0819 4.07249C15.3454 4.33606 15.7029 4.48413 16.0756 4.48413C16.4484 4.48413 16.8059 4.33606 17.0694 4.07249C17.333 3.80893 17.4811 3.45146 17.4811 3.07872V1.49414H20.3911C20.8195 1.4963 21.2295 1.66852 21.5309 1.97293C21.8324 2.27734 22.0005 2.689 21.9985 3.11739Z" fill="#315D80"/>
<path d="M8.66953e-06 6.58594V20.3874C-0.00115916 20.7446 0.115687 21.0921 0.332388 21.376C0.549088 21.6599 0.853504 21.8643 1.19832 21.9574C1.33173 21.9931 1.46926 22.011 1.60736 22.0106H20.3911C20.8195 22.0085 21.2295 21.8363 21.5309 21.5319C21.8324 21.2275 22.0005 20.8158 21.9985 20.3874V6.58594H8.66953e-06ZM9.74679 11.1661C9.71867 11.1381 9.69634 11.1049 9.68111 11.0683C9.66588 11.0317 9.65804 10.9924 9.65804 10.9528C9.65804 10.9131 9.66588 10.8738 9.68111 10.8372C9.69634 10.8006 9.71867 10.7674 9.74679 10.7394L10.1197 10.3665C10.1477 10.3384 10.1809 10.316 10.2175 10.3008C10.2541 10.2856 10.2934 10.2777 10.3331 10.2777C10.3727 10.2777 10.412 10.2856 10.4486 10.3008C10.4852 10.316 10.5184 10.3384 10.5464 10.3665L10.9992 10.8198L11.4521 10.3669C11.4801 10.3388 11.5133 10.3165 11.5499 10.3012C11.5865 10.286 11.6258 10.2782 11.6654 10.2782C11.7051 10.2782 11.7443 10.286 11.781 10.3012C11.8176 10.3165 11.8508 10.3388 11.8788 10.3669L12.2521 10.7403C12.2802 10.7682 12.3026 10.8015 12.3178 10.8381C12.333 10.8747 12.3409 10.914 12.3409 10.9536C12.3409 10.9933 12.333 11.0325 12.3178 11.0691C12.3026 11.1058 12.2802 11.139 12.2521 11.1669L11.7988 11.6198L12.2521 12.0727C12.2802 12.1006 12.3026 12.1339 12.3178 12.1705C12.333 12.2071 12.3409 12.2463 12.3409 12.286C12.3409 12.3256 12.333 12.3649 12.3178 12.4015C12.3026 12.4381 12.2802 12.4714 12.2521 12.4993L11.8792 12.8723C11.8512 12.9004 11.818 12.9227 11.7814 12.9379C11.7448 12.9532 11.7055 12.961 11.6659 12.961C11.6262 12.961 11.5869 12.9532 11.5503 12.9379C11.5137 12.9227 11.4805 12.9004 11.4525 12.8723L10.9992 12.419L10.5464 12.8723C10.5184 12.9004 10.4852 12.9227 10.4486 12.9379C10.412 12.9532 10.3727 12.961 10.3331 12.961C10.2934 12.961 10.2541 12.9532 10.2175 12.9379C10.1809 12.9227 10.1477 12.9004 10.1197 12.8723L9.74636 12.4989C9.71824 12.4709 9.69592 12.4377 9.68068 12.4011C9.66545 12.3645 9.65761 12.3252 9.65761 12.2856C9.65761 12.2459 9.66545 12.2066 9.68068 12.17C9.69592 12.1334 9.71824 12.1002 9.74636 12.0722L10.1996 11.6194L9.74679 11.1661ZM4.73441 11.1661C4.70628 11.1381 4.68396 11.1049 4.66873 11.0683C4.6535 11.0317 4.64566 10.9924 4.64566 10.9528C4.64566 10.9131 4.6535 10.8738 4.66873 10.8372C4.68396 10.8006 4.70628 10.7674 4.73441 10.7394L5.10735 10.3665C5.1353 10.3384 5.16854 10.316 5.20515 10.3008C5.24176 10.2856 5.28102 10.2777 5.32067 10.2777C5.36033 10.2777 5.39959 10.2856 5.4362 10.3008C5.47281 10.316 5.50605 10.3384 5.534 10.3665L5.98686 10.8198L6.43972 10.3669C6.46767 10.3388 6.50091 10.3165 6.53752 10.3012C6.57413 10.286 6.61339 10.2782 6.65304 10.2782C6.69269 10.2782 6.73196 10.286 6.76857 10.3012C6.80518 10.3165 6.83841 10.3388 6.86637 10.3669L7.23974 10.7403C7.26786 10.7682 7.29018 10.8015 7.30541 10.8381C7.32064 10.8747 7.32849 10.914 7.32849 10.9536C7.32849 10.9933 7.32064 11.0325 7.30541 11.0691C7.29018 11.1058 7.26786 11.139 7.23974 11.1669L6.7886 11.6194L7.24189 12.0722C7.27001 12.1002 7.29233 12.1334 7.30756 12.17C7.32279 12.2066 7.33063 12.2459 7.33063 12.2856C7.33063 12.3252 7.32279 12.3645 7.30756 12.4011C7.29233 12.4377 7.27001 12.4709 7.24189 12.4989L6.86894 12.8718C6.84099 12.9 6.80775 12.9223 6.77114 12.9375C6.73453 12.9527 6.69527 12.9606 6.65562 12.9606C6.61597 12.9606 6.5767 12.9527 6.54009 12.9375C6.50348 12.9223 6.47025 12.9 6.44229 12.8718L5.98901 12.419L5.534 12.8723C5.50605 12.9004 5.47281 12.9227 5.4362 12.9379C5.39959 12.9532 5.36033 12.961 5.32067 12.961C5.28102 12.961 5.24176 12.9532 5.20515 12.9379C5.16854 12.9227 5.1353 12.9004 5.10735 12.8723L4.73398 12.4989C4.70585 12.4709 4.68353 12.4377 4.6683 12.4011C4.65307 12.3645 4.64523 12.3252 4.64523 12.2856C4.64523 12.2459 4.65307 12.2066 4.6683 12.17C4.68353 12.1334 4.70585 12.1002 4.73398 12.0722L5.18726 11.6194L4.73441 11.1661ZM7.91387 17.3463C7.91387 17.463 7.89089 17.5785 7.84624 17.6863C7.80158 17.7941 7.73613 17.8921 7.65363 17.9746C7.57112 18.0571 7.47317 18.1225 7.36537 18.1672C7.25756 18.2118 7.14202 18.2348 7.02534 18.2348H4.95009C4.71444 18.2348 4.48844 18.1412 4.32181 17.9746C4.15517 17.8079 4.06156 17.5819 4.06156 17.3463V15.8326C4.06156 15.7159 4.08454 15.6004 4.1292 15.4926C4.17385 15.3848 4.2393 15.2868 4.32181 15.2043C4.40431 15.1218 4.50226 15.0564 4.61007 15.0117C4.71787 14.967 4.83341 14.9441 4.95009 14.9441H7.02362C7.1403 14.9441 7.25585 14.967 7.36365 15.0117C7.47145 15.0564 7.5694 15.1218 7.65191 15.2043C7.73442 15.2868 7.79986 15.3848 7.84452 15.4926C7.88917 15.6004 7.91215 15.7159 7.91215 15.8326L7.91387 17.3463ZM12.9263 17.3463C12.9263 17.463 12.9033 17.5785 12.8586 17.6863C12.814 17.7941 12.7485 17.8921 12.666 17.9746C12.5835 18.0571 12.4856 18.1225 12.3778 18.1672C12.2699 18.2118 12.1544 18.2348 12.0377 18.2348H9.96248C9.72682 18.2348 9.50082 18.1412 9.33419 17.9746C9.16756 17.8079 9.07395 17.5819 9.07395 17.3463V15.8326C9.07395 15.5969 9.16756 15.3709 9.33419 15.2043C9.50082 15.0377 9.72682 14.9441 9.96248 14.9441H12.036C12.2717 14.9441 12.4977 15.0377 12.6643 15.2043C12.8309 15.3709 12.9245 15.5969 12.9245 15.8326L12.9263 17.3463ZM17.9386 17.3463C17.9386 17.463 17.9157 17.5785 17.871 17.6863C17.8264 17.7941 17.7609 17.8921 17.6784 17.9746C17.5959 18.0571 17.4979 18.1225 17.3901 18.1672C17.2823 18.2118 17.1668 18.2348 17.0501 18.2348H14.9749C14.7392 18.2348 14.5132 18.1412 14.3466 17.9746C14.1799 17.8079 14.0863 17.5819 14.0863 17.3463V15.8326C14.0863 15.5969 14.1799 15.3709 14.3466 15.2043C14.5132 15.0377 14.7392 14.9441 14.9749 14.9441H17.0484C17.1651 14.9441 17.2806 14.967 17.3884 15.0117C17.4962 15.0564 17.5942 15.1218 17.6767 15.2043C17.7592 15.2868 17.8246 15.3848 17.8693 15.4926C17.9139 15.6004 17.9369 15.7159 17.9369 15.8326L17.9386 17.3463ZM17.9386 12.3764C17.9386 12.4931 17.9157 12.6087 17.871 12.7165C17.8264 12.8243 17.7609 12.9222 17.6784 13.0047C17.5959 13.0872 17.4979 13.1527 17.3901 13.1973C17.2823 13.242 17.1668 13.265 17.0501 13.265H14.9749C14.7392 13.265 14.5132 13.1714 14.3466 13.0047C14.1799 12.8381 14.0863 12.6121 14.0863 12.3764V10.8623C14.0863 10.6267 14.1799 10.4007 14.3466 10.234C14.5132 10.0674 14.7392 9.97379 14.9749 9.97379H17.0484C17.1651 9.97379 17.2806 9.99677 17.3884 10.0414C17.4962 10.0861 17.5942 10.1515 17.6767 10.234C17.7592 10.3165 17.8246 10.4145 17.8693 10.5223C17.9139 10.6301 17.9369 10.7456 17.9369 10.8623L17.9386 12.3764Z" fill="#C06A87"/>
<path d="M16.0734 3.93348C15.8478 3.93234 15.6318 3.84163 15.473 3.6813C15.3142 3.52096 15.2255 3.30413 15.2266 3.07846V0.864433C15.2266 0.639833 15.3158 0.424432 15.4746 0.265616C15.6334 0.1068 15.8488 0.0175781 16.0734 0.0175781C16.298 0.0175781 16.5134 0.1068 16.6722 0.265616C16.8311 0.424432 16.9203 0.639833 16.9203 0.864433V3.07846C16.9213 3.30413 16.8327 3.52096 16.6739 3.6813C16.5151 3.84163 16.2991 3.93234 16.0734 3.93348Z" fill="#315D80"/>
<path d="M5.92617 3.93497C5.81442 3.93447 5.70386 3.91195 5.60081 3.8687C5.49776 3.82545 5.40424 3.76232 5.3256 3.68292C5.24695 3.60352 5.18473 3.5094 5.14247 3.40594C5.10021 3.30248 5.07875 3.19171 5.07932 3.07995V0.865929C5.07678 0.753142 5.0968 0.640984 5.1382 0.536041C5.17961 0.431098 5.24156 0.335486 5.32043 0.25482C5.3993 0.174154 5.49349 0.110059 5.59748 0.0663004C5.70146 0.0225414 5.81314 0 5.92596 0C6.03877 0 6.15045 0.0225414 6.25443 0.0663004C6.35842 0.110059 6.45261 0.174154 6.53148 0.25482C6.61035 0.335486 6.67231 0.431098 6.71371 0.536041C6.75512 0.640984 6.77514 0.753142 6.7726 0.865929V3.07995C6.77316 3.19167 6.75172 3.30241 6.70949 3.40584C6.66726 3.50927 6.60507 3.60337 6.52647 3.68277C6.44787 3.76216 6.3544 3.8253 6.2514 3.86857C6.1484 3.91185 6.03789 3.93441 5.92617 3.93497Z" fill="#315D80"/>
</svg>
