<svg width="24" height="24" viewBox="0 0 24 24" fill="none" xmlns="http://www.w3.org/2000/svg">
<g clip-path="url(#clip0_5555_900)">
<path d="M15 15.3281H1.875C0.839484 15.3281 0 16.1676 0 17.2031V17.4375H2.57812C2.96644 17.4375 3.28125 17.7523 3.28125 18.1406C3.28125 18.5289 2.96644 18.8438 2.57812 18.8438H0V20.25C0 20.6383 0.314812 20.9531 0.703125 20.9531H16.1719C16.5602 20.9531 16.875 20.6383 16.875 20.25V18.8438H14.2969C13.9086 18.8438 13.5938 18.5289 13.5938 18.1406C13.5938 17.7523 13.9086 17.4375 14.2969 17.4375H16.875V17.2031C16.875 16.1676 16.0355 15.3281 15 15.3281ZM10.5469 18.8438H6.32812C5.93981 18.8438 5.625 18.5289 5.625 18.1406C5.625 17.7523 5.93981 17.4375 6.32812 17.4375H10.5469C10.9352 17.4375 11.25 17.7523 11.25 18.1406C11.25 18.5289 10.9352 18.8438 10.5469 18.8438Z" fill="#695F7E"/>
<path d="M3.1446 11.0716L2.28955 13.9219H14.5858L13.7308 11.0716C13.401 9.9727 12.4087 9.23438 11.2614 9.23438H5.61397C4.46666 9.23438 3.47432 9.9727 3.1446 11.0716Z" fill="#695F7E"/>
<path d="M21.4219 22.5938H20.25V11.25H18.8438V22.5938H17.6719C17.2836 22.5938 16.9688 22.9086 16.9688 23.2969C16.9688 23.6852 17.2836 24 17.6719 24H21.4219C21.8102 24 22.125 23.6852 22.125 23.2969C22.125 22.9086 21.8102 22.5938 21.4219 22.5938Z" fill="#695F7E"/>
<path d="M19.7616 3.28125H19.0571C19.0579 3.55083 19.0586 3.86269 19.0586 4.00303C19.0586 4.16803 19.0599 4.46902 19.0613 4.72739C19.3115 4.72608 19.6003 4.72477 19.7616 4.72477C20.1655 4.72477 20.5067 4.39425 20.5067 4.00303C20.5067 3.61181 20.1655 3.28125 19.7616 3.28125Z" fill="#EA4B61"/>
<path d="M22.3594 0H16.7344C15.8297 0 15.0938 0.735984 15.0938 1.64062V8.20312C15.0938 9.10777 15.8297 9.84375 16.7344 9.84375H22.3594C23.264 9.84375 24 9.10777 24 8.20312V1.64062C24 0.735984 23.264 0 22.3594 0ZM19.7617 5.66231C19.5997 5.66231 19.3071 5.66362 19.0557 5.66498V7.03125C19.0557 7.29009 18.8458 7.5 18.587 7.5C18.3281 7.5 18.1182 7.29009 18.1182 7.03125V2.8125H18.1183C18.1183 2.68847 18.1673 2.56945 18.255 2.48156C18.3429 2.3933 18.4624 2.34375 18.587 2.34375H19.7617C20.6895 2.34375 21.4443 3.08813 21.4443 4.00303C21.4443 4.91794 20.6895 5.66231 19.7617 5.66231Z" fill="#EA4B61"/>
<path d="M3.04688 24C2.2702 24 1.64062 23.3704 1.64062 22.5938V22.3594H4.45312V22.5938C4.45312 23.3704 3.82355 24 3.04688 24Z" fill="#EA4B61"/>
<path d="M13.8281 24C13.0515 24 12.4219 23.3704 12.4219 22.5938V22.3594H15.2344V22.5938C15.2344 23.3704 14.6048 24 13.8281 24Z" fill="#EA4B61"/>
</g>
<defs>
<clipPath id="clip0_5555_900">
<rect width="24" height="24" fill="white"/>
</clipPath>
</defs>
</svg>
