<svg width="24" height="24" viewBox="0 0 24 24" fill="none" xmlns="http://www.w3.org/2000/svg">
<g clip-path="url(#clip0_5555_884)">
<path d="M18.3281 11.4844C18.3281 10.709 17.6973 10.0781 16.9219 10.0781H15.5156C14.7402 10.0781 14.1094 10.709 14.1094 11.4844V16.4062H18.3281V11.4844Z" fill="#695F7E"/>
<path d="M2.85938 3.51562C2.85938 2.35266 3.80578 1.40625 4.96875 1.40625H6.375C7.32534 1.40625 8.13075 2.03831 8.39362 2.904C6.83634 3.26503 5.67188 4.66266 5.67188 6.32812V7.03125H12.7031V6.32812C12.7031 4.60931 11.463 3.17564 9.83063 2.8725C9.52748 1.24003 8.09363 0 6.375 0H4.96875C3.03047 0 1.45312 1.57687 1.45312 3.51562V10.0781H2.85938V3.51562Z" fill="#695F7E"/>
<path d="M19.2812 18.1094H12.25V16H1V18.1094C1 19.9493 2.01484 21.5562 3.514 22.4007L2.61222 23.3025L3.60653 24.2969L4.96567 22.9377C5.27509 22.9989 5.59478 23.0312 5.92188 23.0312H17.1719C17.499 23.0312 17.8187 22.9989 18.1281 22.9377L19.4872 24.2969L20.4816 23.3025L19.5798 22.4007C21.0789 21.5562 22.0938 19.9493 22.0938 18.1094V16H19.2812V18.1094Z" fill="#695F7E"/>
<path d="M22.5938 11.4844H19.7344V14.2969H22.5938C23.3691 14.2969 24 13.6659 24 12.8906C24 12.1153 23.3691 11.4844 22.5938 11.4844Z" fill="#F0D46F"/>
<path d="M12.7031 11.4844H1.40625C0.630937 11.4844 0 12.1153 0 12.8906C0 13.6659 0.630937 14.2969 1.40625 14.2969H12.7031V11.4844Z" fill="#F0D46F"/>
</g>
<defs>
<clipPath id="clip0_5555_884">
<rect width="24" height="24" fill="white"/>
</clipPath>
</defs>
</svg>
