<svg width="29" height="29" viewBox="0 0 29 29" fill="none" xmlns="http://www.w3.org/2000/svg">
<path d="M27.3994 0H1.60064C1.17612 0 0.768994 0.168638 0.468816 0.468816C0.168638 0.768994 0 1.17612 0 1.60064V27.3998C0.000106806 27.8242 0.168792 28.2312 0.468959 28.5313C0.769125 28.8314 1.17619 29 1.60064 29H15.4896V17.7698H11.7104V13.3932H15.4896V10.1653C15.4896 6.41947 17.7774 4.38021 21.1188 4.38021C22.7195 4.38021 24.095 4.49903 24.4961 4.5526V8.46719L22.1786 8.4684C20.3612 8.4684 20.0096 9.33196 20.0096 10.5991V13.3936H24.3435L23.7792 17.7702H20.0096V29H27.3998C27.8242 28.9999 28.2312 28.8312 28.5313 28.531C28.8314 28.2309 29 27.8238 29 27.3994V1.60064C29 1.17612 28.8314 0.768994 28.5312 0.468816C28.231 0.168638 27.8239 0 27.3994 0Z" fill="#599FD7"/>
</svg>
