<svg width="37" height="38" viewBox="0 0 37 38" fill="none" xmlns="http://www.w3.org/2000/svg">
<path d="M34.4485 0.949219H2.01244C1.47871 0.949219 0.966835 1.16124 0.58943 1.53865C0.212024 1.91605 0 2.42793 0 2.96166V35.3982C0.000134284 35.9318 0.212218 36.4436 0.589609 36.8209C0.967 37.1982 1.4788 37.4101 2.01244 37.4101H19.4747V23.2906H14.7231V17.7881H19.4747V13.7298C19.4747 9.02024 22.351 6.45633 26.5521 6.45633C28.5646 6.45633 30.2939 6.60572 30.7983 6.67307V11.5948L27.8845 11.5963C25.5996 11.5963 25.1575 12.682 25.1575 14.2752V17.7886H30.6064L29.8969 23.2911H25.1575V37.4101H34.449C34.9826 37.41 35.4944 37.1979 35.8717 36.8205C36.2489 36.4431 36.4609 35.9313 36.4609 35.3977V2.96166C36.4609 2.42793 36.2489 1.91605 35.8715 1.53865C35.4941 1.16124 34.9822 0.949219 34.4485 0.949219Z" fill="#315D80"/>
</svg>
