<svg width="390" height="316" viewBox="0 0 390 316" fill="none" xmlns="http://www.w3.org/2000/svg">
<g filter="url(#filter0_d_4266_1105)">
<path d="M-41 298.082C-41 307.747 -33.165 315.582 -23.5 315.582L399.5 315.582C408.337 315.582 415.5 308.419 415.5 299.582V50.2672C415.5 29.1328 398.367 12 377.233 12C370.846 12 364.561 13.5986 358.95 16.6501L332.843 30.8484C318.181 38.8225 301.756 43 285.066 43H86.2804C67.4866 43 49.0854 37.6216 33.25 27.5L18.5287 18.0905C12.3064 14.1134 5.07589 12 -2.30885 12C-23.6774 12 -41 29.3226 -41 50.6912V298.082Z" fill="#EDF2FA"/>
</g>
<defs>
<filter id="filter0_d_4266_1105" x="-62.9" y="0.1" width="500.3" height="347.382" filterUnits="userSpaceOnUse" color-interpolation-filters="sRGB">
<feFlood flood-opacity="0" result="BackgroundImageFix"/>
<feColorMatrix in="SourceAlpha" type="matrix" values="0 0 0 0 0 0 0 0 0 0 0 0 0 0 0 0 0 0 127 0" result="hardAlpha"/>
<feOffset dy="10"/>
<feGaussianBlur stdDeviation="10.95"/>
<feComposite in2="hardAlpha" operator="out"/>
<feColorMatrix type="matrix" values="0 0 0 0 0.235294 0 0 0 0 0.333333 0 0 0 0 0.513726 0 0 0 0.29 0"/>
<feBlend mode="normal" in2="BackgroundImageFix" result="effect1_dropShadow_4266_1105"/>
<feBlend mode="normal" in="SourceGraphic" in2="effect1_dropShadow_4266_1105" result="shape"/>
</filter>
</defs>
</svg>
