<svg width="1920" height="195" viewBox="0 0 1920 195" fill="none" xmlns="http://www.w3.org/2000/svg">
<g filter="url(#filter0_d_5505_848)">
<path d="M-113 103.418C-113 153.952 -72.0341 194.918 -21.5 194.918H1942C1992.53 194.918 2033.5 153.952 2033.5 103.418C2033.5 52.8839 1992.53 11.918 1942 11.918H1768.43C1751.74 11.918 1735.32 16.0954 1720.66 24.0696L1708.34 30.7664C1693.68 38.7405 1677.26 42.918 1660.57 42.918H242.28C223.487 42.918 205.085 37.5396 189.25 27.418C173.415 17.2964 155.013 11.918 136.22 11.918H-21.5C-72.0341 11.918 -113 52.8839 -113 103.418Z" fill="#EDF2FA"/>
</g>
<defs>
<filter id="filter0_d_5505_848" x="-134.9" y="0.0179691" width="2190.3" height="226.8" filterUnits="userSpaceOnUse" color-interpolation-filters="sRGB">
<feFlood flood-opacity="0" result="BackgroundImageFix"/>
<feColorMatrix in="SourceAlpha" type="matrix" values="0 0 0 0 0 0 0 0 0 0 0 0 0 0 0 0 0 0 127 0" result="hardAlpha"/>
<feOffset dy="10"/>
<feGaussianBlur stdDeviation="10.95"/>
<feComposite in2="hardAlpha" operator="out"/>
<feColorMatrix type="matrix" values="0 0 0 0 0.235294 0 0 0 0 0.333333 0 0 0 0 0.513726 0 0 0 0.29 0"/>
<feBlend mode="normal" in2="BackgroundImageFix" result="effect1_dropShadow_5505_848"/>
<feBlend mode="normal" in="SourceGraphic" in2="effect1_dropShadow_5505_848" result="shape"/>
</filter>
</defs>
</svg>
