<svg width="39" height="38" viewBox="0 0 39 38" fill="none" xmlns="http://www.w3.org/2000/svg">
<path d="M21.7236 0.178102C23.0997 0.172821 24.4759 0.186652 25.8516 0.21959L26.2175 0.232791C26.6399 0.247878 27.0567 0.266736 27.5602 0.289366C29.5667 0.383659 30.9358 0.700481 32.1371 1.16628C33.3817 1.64529 34.4302 2.29402 35.4787 3.34255C36.4374 4.28473 37.1794 5.42442 37.6531 6.68238C38.1189 7.88366 38.4357 9.25467 38.53 11.2612C38.5526 11.7628 38.5714 12.1815 38.5865 12.6039L38.5979 12.9698C38.6314 14.3449 38.6458 15.7205 38.6412 17.096L38.6431 18.5029V20.9733C38.6478 22.3495 38.6333 23.7257 38.5997 25.1014L38.5884 25.4673C38.5733 25.8897 38.5545 26.3065 38.5318 26.81C38.4376 28.8165 38.117 30.1857 37.6531 31.3869C37.1809 32.6462 36.4388 33.7869 35.4787 34.7287C34.5357 35.6873 33.3955 36.4292 32.1371 36.903C30.9358 37.3688 29.5667 37.6857 27.5602 37.78C27.0567 37.8026 26.6399 37.8214 26.2175 37.8365L25.8516 37.8478C24.4759 37.8814 23.0998 37.8958 21.7236 37.8912L20.3168 37.8931H17.8483C16.4721 37.8978 15.096 37.8833 13.7202 37.8497L13.3544 37.8384C12.9067 37.8222 12.4591 37.8033 12.0117 37.7818C10.0052 37.6875 8.63607 37.367 7.43292 36.903C6.17449 36.4303 5.03462 35.6882 4.09315 34.7287C3.13335 33.7863 2.39068 32.6459 1.91692 31.3869C1.45113 30.1857 1.13431 28.8165 1.04002 26.81C1.01902 26.3625 1.00016 25.9149 0.983444 25.4673L0.974015 25.1014C0.939247 23.7257 0.92353 22.3495 0.926869 20.9733V17.096C0.921606 15.7205 0.935437 14.3449 0.968357 12.9698L0.981558 12.6039C0.996644 12.1815 1.0155 11.7628 1.03813 11.2612C1.13242 9.25278 1.44924 7.88555 1.91503 6.68238C2.38908 5.4238 3.1332 4.28442 4.09503 3.34443C5.03585 2.38407 6.17501 1.64071 7.43292 1.16628C8.63607 0.700481 10.0033 0.383659 12.0117 0.289366L13.3544 0.232791L13.7202 0.223362C15.0953 0.188611 16.4708 0.172894 17.8464 0.176216L21.7236 0.178102ZM19.785 9.60732C18.5357 9.58965 17.2953 9.82047 16.1359 10.2864C14.9765 10.7522 13.9213 11.4439 13.0316 12.3212C12.1419 13.1984 11.4354 14.2437 10.9531 15.3964C10.4709 16.5491 10.2226 17.7861 10.2226 19.0356C10.2226 20.2851 10.4709 21.5221 10.9531 22.6748C11.4354 23.8275 12.1419 24.8728 13.0316 25.7501C13.9213 26.6273 14.9765 27.319 16.1359 27.7849C17.2953 28.2507 18.5357 28.4816 19.785 28.4639C22.2857 28.4639 24.684 27.4705 26.4523 25.7021C28.2206 23.9338 29.214 21.5354 29.214 19.0347C29.214 16.5339 28.2206 14.1355 26.4523 12.3672C24.684 10.5989 22.2857 9.60732 19.785 9.60732ZM19.785 13.379C20.5365 13.3652 21.2832 13.5012 21.9816 13.7792C22.6799 14.0572 23.3159 14.4716 23.8523 14.9981C24.3887 15.5246 24.8148 16.1528 25.1057 16.8458C25.3966 17.5389 25.5465 18.283 25.5466 19.0346C25.5468 19.7863 25.3971 20.5304 25.1064 21.2236C24.8157 21.9168 24.3898 22.545 23.8536 23.0718C23.3174 23.5985 22.6816 24.013 21.9833 24.2913C21.2851 24.5695 20.5384 24.7058 19.7869 24.6922C18.2864 24.6922 16.8474 24.0961 15.7865 23.0351C14.7255 21.9741 14.1294 20.5351 14.1294 19.0347C14.1294 17.5342 14.7255 16.0952 15.7865 15.0342C16.8474 13.9732 18.2864 13.3771 19.7869 13.3771L19.785 13.379ZM29.6855 6.77856C29.0771 6.80291 28.5018 7.06172 28.0799 7.50078C27.6581 7.93985 27.4225 8.5251 27.4225 9.13398C27.4225 9.74285 27.6581 10.3281 28.0799 10.7672C28.5018 11.2062 29.0771 11.465 29.6855 11.4894C30.3107 11.4894 30.9103 11.241 31.3523 10.799C31.7944 10.3569 32.0428 9.75729 32.0428 9.13209C32.0428 8.5069 31.7944 7.90731 31.3523 7.46522C30.9103 7.02314 30.3107 6.77479 29.6855 6.77479V6.77856Z" fill="#315D80"/>
</svg>
