<svg width="37" height="37" viewBox="0 0 37 37" fill="none" xmlns="http://www.w3.org/2000/svg">
<path d="M33.7603 0H2.69152C1.20574 0 0 1.17738 0 2.62721V33.8301C0 35.282 1.20574 36.4609 2.69152 36.4609H33.7603C35.2471 36.4609 36.4609 35.282 36.4609 33.8301V2.62721C36.4609 1.17738 35.2471 0 33.7603 0ZM10.8137 31.0698H5.4033V13.6703H10.8137V31.0698ZM8.1085 11.2912C7.69668 11.2912 7.2889 11.2101 6.90846 11.0524C6.52802 10.8948 6.18237 10.6637 5.89127 10.3724C5.60017 10.0811 5.36931 9.73532 5.2119 9.35477C5.05449 8.97423 4.97361 8.5664 4.97388 8.15458C4.97388 7.3233 5.3041 6.52606 5.89191 5.93825C6.47972 5.35044 7.27696 5.02021 8.10825 5.02021C8.93953 5.02021 9.73677 5.35044 10.3246 5.93825C10.9124 6.52606 11.2426 7.3233 11.2426 8.15458C11.2426 8.98604 10.9125 9.78347 10.3248 10.3716C9.73712 10.9598 8.93995 11.2906 8.1085 11.2912ZM31.0677 31.0698H25.6659V22.6088C25.6659 20.5903 25.6264 17.995 22.8549 17.995C20.0403 17.995 19.6114 20.1933 19.6114 22.4624V31.0703H14.2056V13.6703H19.3937V16.0463H19.4676C20.1897 14.6791 21.954 13.2363 24.5853 13.2363C30.0575 13.2363 31.0682 16.8389 31.0682 21.5256L31.0677 31.0698Z" fill="#F2727F"/>
</svg>
