<svg width="29" height="29" viewBox="0 0 29 29" fill="none" xmlns="http://www.w3.org/2000/svg">
<path d="M26.852 0H2.14076C0.959014 0 0 0.936458 0 2.08961V26.9076C0 28.0623 0.959014 29 2.14076 29H26.852C28.0345 29 29 28.0623 29 26.9076V2.08961C29 0.936458 28.0345 0 26.852 0ZM8.60092 24.712H4.29764V10.873H8.60092V24.712ZM6.44928 8.98074C6.12173 8.98074 5.79739 8.91619 5.4948 8.7908C5.19221 8.6654 4.91729 8.48161 4.68575 8.24993C4.45422 8.01824 4.2706 7.7432 4.1454 7.44053C4.0202 7.13786 3.95587 6.81348 3.95608 6.48593C3.95608 5.82475 4.21874 5.19065 4.68626 4.72312C5.15379 4.25559 5.78789 3.99294 6.44908 3.99294C7.11026 3.99294 7.74436 4.25559 8.21189 4.72312C8.67942 5.19065 8.94207 5.82475 8.94207 6.48593C8.94207 7.14725 8.6795 7.7815 8.21207 8.24931C7.74464 8.71712 7.11059 8.9802 6.44928 8.98074ZM24.7104 24.712H20.414V17.9824C20.414 16.3769 20.3826 14.3127 18.1782 14.3127C15.9395 14.3127 15.5984 16.0612 15.5984 17.866V24.7124H11.2987V10.873H15.4252V12.7628H15.484C16.0583 11.6753 17.4616 10.5278 19.5545 10.5278C23.9069 10.5278 24.7108 13.3932 24.7108 17.1209L24.7104 24.712Z" fill="#599FD7"/>
</svg>
