<svg width="16" height="13" viewBox="0 0 16 13" fill="none" xmlns="http://www.w3.org/2000/svg">
<path d="M0.0544001 1.20412L7.1544 8.41587C7.36444 8.62935 7.64499 8.75608 7.94175 8.77154C8.23851 8.787 8.53036 8.69009 8.7608 8.49956L8.852 8.41587L15.9472 1.209C15.9704 1.29837 15.9856 1.38937 15.9936 1.48281L16 1.625V11.375C16.0001 11.785 15.8477 12.1798 15.5732 12.4804C15.2987 12.7811 14.9225 12.9652 14.52 12.9959L14.4 13H1.6C1.19634 13.0001 0.807547 12.8453 0.511562 12.5665C0.215576 12.2878 0.0342747 11.9057 0.00400009 11.4969L0 11.375V1.625C0 1.5275 0.00799998 1.43325 0.024 1.34063L0.0544001 1.20412ZM14.4 0C14.4968 0 14.592 0.00812511 14.684 0.0251876L14.82 0.0568751L8.004 6.97937L1.1856 0.0552499C1.2736 0.0308749 1.3648 0.0146249 1.4576 0.00649992L1.6 0H14.4Z" fill="#599FD7"/>
</svg>
