<svg width="35" height="35" viewBox="0 0 35 35" fill="none" xmlns="http://www.w3.org/2000/svg">
<path d="M33.9062 7.48536C32.6754 8.02017 31.3731 8.37252 30.0405 8.53126C31.441 7.71121 32.4942 6.40841 33.0025 4.8672C31.6785 5.64143 30.2323 6.18467 28.726 6.47364C28.0917 5.80887 27.3288 5.28002 26.4837 4.91925C25.6387 4.55848 24.7291 4.37331 23.8103 4.37501C20.0901 4.37501 17.0796 7.34181 17.0796 10.999C17.077 11.5077 17.1352 12.0149 17.2532 12.5098C14.5856 12.3847 11.9735 11.7042 9.58397 10.5118C7.19444 9.3194 5.08012 7.64133 3.37627 5.58497C2.77852 6.59267 2.46239 7.74242 2.46094 8.91407C2.46094 11.2109 3.65928 13.2412 5.46875 14.4307C4.39669 14.4052 3.3466 14.1215 2.40762 13.6035V13.6856C2.40762 16.8984 4.73184 19.5713 7.80801 20.1797C7.22954 20.3339 6.63344 20.412 6.03477 20.4121C5.60997 20.4129 5.18613 20.3716 4.76943 20.2891C5.62461 22.9209 8.11357 24.835 11.0619 24.8897C8.66618 26.736 5.72484 27.7339 2.7002 27.7266C2.16331 27.7258 1.62693 27.6938 1.09375 27.6309C4.17073 29.5957 7.74747 30.635 11.3982 30.625C23.7959 30.625 30.5689 20.5283 30.5689 11.7715C30.5689 11.4844 30.5614 11.1973 30.5478 10.917C31.8624 9.98189 32.9997 8.81981 33.9062 7.48536Z" fill="#599FD7"/>
</svg>
