<svg width="42" height="34" viewBox="0 0 42 34" fill="none" xmlns="http://www.w3.org/2000/svg">
<path d="M41.5511 4.32854C40.0036 5.00095 38.3663 5.44394 36.6909 5.64352C38.4516 4.61249 39.7757 2.97451 40.4149 1.0368C38.7502 2.01022 36.932 2.69322 35.0381 3.05654C34.2406 2.22073 33.2815 1.55583 32.219 1.10224C31.1566 0.648651 30.0129 0.415848 28.8577 0.417983C24.1805 0.417983 20.3954 4.14805 20.3954 8.74619C20.3921 9.38577 20.4654 10.0234 20.6137 10.6456C17.2598 10.4884 13.9757 9.63279 10.9714 8.13361C7.96711 6.63442 5.30882 4.52464 3.16662 1.93923C2.41509 3.20619 2.01763 4.65174 2.0158 6.12482C2.0158 9.01262 3.52244 11.5652 5.79744 13.0607C4.44957 13.0287 3.12932 12.672 1.94876 12.0207V12.1239C1.94876 16.1634 4.87094 19.5239 8.73853 20.2888C8.01123 20.4827 7.26177 20.5809 6.50908 20.581C5.97499 20.5819 5.44211 20.5301 4.91821 20.4263C5.9934 23.7352 9.12271 26.1417 12.8296 26.2105C9.81748 28.5318 6.11941 29.7865 2.31661 29.7773C1.64161 29.7763 0.967227 29.7361 0.296875 29.6569C4.16547 32.1272 8.66242 33.4339 13.2524 33.4214C28.8397 33.4214 37.3552 20.7271 37.3552 9.71738C37.3552 9.35641 37.3458 8.99543 37.3286 8.64305C38.9814 7.46735 40.4113 6.00631 41.5511 4.32854Z" fill="#315D80"/>
</svg>
