<svg width="34" height="34" viewBox="0 0 34 34" fill="none" xmlns="http://www.w3.org/2000/svg">
<path d="M33.7773 9.88059C33.7773 6.8923 31.5792 4.4884 28.8632 4.4884C25.1843 4.31641 21.4324 4.25 17.5981 4.25H16.4027C12.5777 4.25 8.81915 4.31641 5.14025 4.48906C2.43087 4.48906 0.232826 6.90625 0.232826 9.89453C0.0668101 12.2579 -0.00358055 14.622 0.000403822 16.9861C-0.0062368 19.3501 0.0690236 21.7164 0.226185 24.0849C0.226185 27.0732 2.42423 29.497 5.13361 29.497C8.99845 29.6763 12.9629 29.756 16.9938 29.7493C21.0313 29.7626 24.9846 29.6785 28.8539 29.497C31.5699 29.497 33.768 27.0732 33.768 24.0849C33.9274 21.7142 34.0004 19.3501 33.9938 16.9794C34.0088 14.6154 33.9367 12.2491 33.7773 9.88059ZM13.7465 23.5005V10.4517L23.3754 16.9728L13.7465 23.5005Z" fill="#599FD7"/>
</svg>
