<svg width="44" height="33" viewBox="0 0 44 33" fill="none" xmlns="http://www.w3.org/2000/svg">
<path d="M43.1118 7.3409C43.1118 3.58382 40.3482 0.56145 36.9335 0.56145C32.3081 0.345209 27.5908 0.261719 22.7701 0.261719H21.2673C16.4582 0.261719 11.7326 0.345209 7.10722 0.562285C3.7008 0.562285 0.937257 3.60135 0.937257 7.35843C0.72853 10.3299 0.64003 13.3021 0.645039 16.2744C0.63669 19.2467 0.731313 22.2217 0.928908 25.1996C0.928908 28.9567 3.69245 32.0041 7.09887 32.0041C11.958 32.2295 16.9424 32.3297 22.0103 32.3213C27.0866 32.338 32.057 32.2323 36.9218 32.0041C40.3365 32.0041 43.1001 28.9567 43.1001 25.1996C43.3005 22.219 43.3923 19.2467 43.3839 16.2661C43.4029 13.2938 43.3121 10.3187 43.1118 7.3409ZM17.9276 24.4649V8.05892L30.0338 16.2577L17.9276 24.4649Z" fill="#315D80"/>
</svg>
