<svg width="135" height="164" viewBox="0 0 135 164" fill="none" xmlns="http://www.w3.org/2000/svg">
<g filter="url(#filter0_i_1390_10846)">
<rect width="135" height="164" rx="16" fill="#274E6C"/>
</g>
<path d="M27.9773 136.871C28.9087 135.353 29.3741 134.594 30.0702 134.594C30.7664 134.594 31.2317 135.353 32.1632 136.871L32.4043 137.264C32.6689 137.696 32.8012 137.912 33.0071 138.054C33.2129 138.197 33.4702 138.249 33.9848 138.355L34.4524 138.451C36.2608 138.824 37.1643 139.009 37.3796 139.638C37.5943 140.266 36.9783 140.922 35.7454 142.233L35.4264 142.571C35.0765 142.944 34.9008 143.13 34.8221 143.36C34.7435 143.591 34.7699 143.839 34.8229 144.336L34.8714 144.788C35.0574 146.537 35.1507 147.411 34.5876 147.8C34.0245 148.189 33.1776 147.834 31.4854 147.125L31.0465 146.942C30.5657 146.74 30.3253 146.64 30.0702 146.64C29.8151 146.64 29.5748 146.74 29.094 146.942L28.6558 147.125C26.9628 147.834 26.116 148.188 25.5536 147.8C24.9897 147.411 25.0831 146.537 25.2691 144.788L25.3176 144.337C25.3705 143.839 25.397 143.591 25.3176 143.361C25.2397 143.13 25.064 142.944 24.7141 142.572L24.395 142.233C23.1622 140.923 22.5462 140.267 22.7608 139.638C22.9762 139.009 23.8804 138.823 25.6889 138.451L26.1564 138.355C26.6703 138.249 26.9268 138.197 27.1334 138.054C27.3392 137.912 27.4715 137.696 27.7362 137.264L27.9773 136.871Z" fill="#9BB997"/>
<path d="M46.6883 136.871C47.6197 135.353 48.085 134.594 48.7812 134.594C49.4773 134.594 49.9427 135.353 50.8741 136.871L51.1152 137.264C51.3799 137.696 51.5122 137.912 51.718 138.054C51.9239 138.197 52.1812 138.249 52.6957 138.355L53.1633 138.451C54.9717 138.824 55.8752 139.009 56.0906 139.638C56.3052 140.266 55.6892 140.922 54.4564 142.233L54.1373 142.571C53.7874 142.944 53.6117 143.13 53.5331 143.36C53.4544 143.591 53.4809 143.839 53.5338 144.336L53.5823 144.788C53.7683 146.537 53.8617 147.411 53.2986 147.8C52.7354 148.189 51.8886 147.834 50.1963 147.125L49.7574 146.942C49.2767 146.74 49.0363 146.64 48.7812 146.64C48.5261 146.64 48.2857 146.74 47.8049 146.942L47.3668 147.125C45.6738 147.834 44.8269 148.188 44.2645 147.8C43.7007 147.411 43.794 146.537 43.98 144.788L44.0285 144.337C44.0815 143.839 44.1079 143.591 44.0285 143.361C43.9506 143.13 43.7749 142.944 43.425 142.572L43.106 142.233C41.8731 140.923 41.2571 140.267 41.4718 139.638C41.6872 139.009 42.5914 138.823 44.3998 138.451L44.8673 138.355C45.3812 138.249 45.6378 138.197 45.8443 138.054C46.0502 137.912 46.1825 137.696 46.4471 137.264L46.6883 136.871Z" fill="#9BB997"/>
<path d="M66.261 136.871C67.1077 135.353 67.5308 134.594 68.1636 134.594C68.7965 134.594 69.2196 135.353 70.0663 136.871L70.2855 137.264C70.5261 137.696 70.6464 137.912 70.8335 138.054C71.0206 138.197 71.2545 138.249 71.7223 138.355L72.1474 138.451C73.7914 138.824 74.6127 139.009 74.8086 139.638C75.0037 140.266 74.4437 140.922 73.3229 142.233L73.0329 142.571C72.7148 142.944 72.555 143.13 72.4835 143.36C72.412 143.591 72.4361 143.839 72.4842 144.336L72.5283 144.788C72.6974 146.537 72.7823 147.411 72.2703 147.8C71.7584 148.189 70.9885 147.834 69.4501 147.125L69.0511 146.942C68.6141 146.74 68.3955 146.64 68.1636 146.64C67.9317 146.64 67.7132 146.74 67.2761 146.942L66.8778 147.125C65.3387 147.834 64.5688 148.188 64.0576 147.8C63.545 147.411 63.6299 146.537 63.799 144.788L63.8431 144.337C63.8912 143.839 63.9152 143.591 63.8431 143.361C63.7722 143.13 63.6125 142.944 63.2944 142.572L63.0044 142.233C61.8836 140.923 61.3236 140.267 61.5187 139.638C61.7145 139.009 62.5365 138.823 64.1806 138.451L64.6056 138.355C65.0727 138.249 65.306 138.197 65.4938 138.054C65.6809 137.912 65.8012 137.696 66.0418 137.264L66.261 136.871Z" fill="#9BB997"/>
<path d="M85.4539 136.871C86.3853 135.353 86.8506 134.594 87.5468 134.594C88.243 134.594 88.7083 135.353 89.6397 136.871L89.8808 137.264C90.1455 137.696 90.2778 137.912 90.4836 138.054C90.6895 138.197 90.9468 138.249 91.4614 138.355L91.9289 138.451C93.7373 138.824 94.6408 139.009 94.8562 139.638C95.0709 140.266 94.4548 140.922 93.222 142.233L92.903 142.571C92.553 142.944 92.3773 143.13 92.2987 143.36C92.22 143.591 92.2465 143.839 92.2994 144.336L92.3479 144.788C92.5339 146.537 92.6273 147.411 92.0642 147.8C91.5011 148.189 90.6542 147.834 88.9619 147.125L88.5231 146.942C88.0423 146.74 87.8019 146.64 87.5468 146.64C87.2917 146.64 87.0513 146.74 86.5705 146.942L86.1324 147.125C84.4394 147.834 83.5925 148.188 83.0302 147.8C82.4663 147.411 82.5597 146.537 82.7457 144.788L82.7942 144.337C82.8471 143.839 82.8736 143.591 82.7942 143.361C82.7163 143.13 82.5406 142.944 82.1906 142.572L81.8716 142.233C80.6388 140.923 80.0227 140.267 80.2374 139.638C80.4528 139.009 81.357 138.823 83.1654 138.451L83.633 138.355C84.1468 138.249 84.4034 138.197 84.6099 138.054C84.8158 137.912 84.9481 137.696 85.2128 137.264L85.4539 136.871Z" fill="#9BB997"/>
<path d="M104.591 137.133L104.591 137.133L104.35 137.526C104.35 137.526 104.35 137.526 104.35 137.526C104.336 137.548 104.322 137.571 104.309 137.593C104.085 137.958 103.9 138.262 103.605 138.466L103.605 138.466C103.312 138.667 102.959 138.74 102.524 138.829C102.498 138.834 102.471 138.839 102.445 138.845C102.445 138.845 102.445 138.845 102.445 138.845L101.977 138.941L101.977 138.941C101.057 139.13 100.421 139.262 99.9836 139.419C99.5449 139.576 99.4529 139.708 99.4214 139.8L98.9483 139.638M104.591 137.133L110.072 138.845L110.539 138.941C111.459 139.13 112.095 139.262 112.532 139.419C112.971 139.576 113.063 139.708 113.094 139.8L113.567 139.638M104.591 137.133C105.066 136.359 105.392 135.829 105.682 135.485C105.965 135.149 106.129 135.094 106.258 135.094C106.387 135.094 106.55 135.149 106.834 135.485C107.123 135.829 107.45 136.359 107.924 137.133L107.924 137.133M104.591 137.133L107.924 137.133M98.9483 139.638L99.4215 139.8C99.3927 139.884 99.3806 140.03 99.6337 140.395C99.8884 140.763 100.318 141.223 100.947 141.89L100.947 141.89L101.266 142.229C101.266 142.229 101.266 142.23 101.266 142.23C101.285 142.25 101.304 142.27 101.323 142.29C101.616 142.6 101.864 142.863 101.978 143.199C102.094 143.537 102.056 143.893 102.011 144.308C102.008 144.335 102.005 144.362 102.002 144.389L102.002 144.39L101.954 144.841C101.954 144.841 101.954 144.841 101.954 144.841C101.859 145.734 101.796 146.342 101.817 146.78C101.838 147.207 101.934 147.326 102.025 147.389C102.124 147.457 102.294 147.507 102.742 147.39C103.193 147.273 103.789 147.025 104.65 146.664L104.651 146.664L105.088 146.481C105.111 146.472 105.133 146.462 105.156 146.453C105.568 146.279 105.898 146.14 106.258 146.14C106.617 146.14 106.948 146.279 107.36 146.453C107.382 146.462 107.404 146.472 107.427 146.481C107.427 146.481 107.427 146.481 107.428 146.481L107.865 146.664L107.866 146.664C108.727 147.025 109.323 147.273 109.774 147.39C110.221 147.507 110.391 147.457 110.491 147.388L110.491 147.388C110.582 147.326 110.678 147.207 110.699 146.78C110.72 146.342 110.657 145.733 110.562 144.841L110.513 144.389L110.513 144.389C110.51 144.362 110.507 144.335 110.505 144.308C110.46 143.892 110.421 143.537 110.536 143.199L110.537 143.198C110.651 142.864 110.898 142.602 111.191 142.291C111.21 142.271 111.23 142.25 111.25 142.229L111.25 142.229L111.569 141.89C111.569 141.89 111.569 141.89 111.569 141.89C112.197 141.222 112.627 140.763 112.882 140.395C113.135 140.029 113.123 139.884 113.094 139.8L113.567 139.638M98.9483 139.638C98.7337 140.267 99.3497 140.923 100.583 142.233L103.924 137.264C103.659 137.696 103.527 137.912 103.321 138.054C103.114 138.197 102.858 138.249 102.344 138.355L101.876 138.451C100.068 138.823 99.1637 139.009 98.9483 139.638ZM113.567 139.638C113.352 139.01 112.449 138.824 110.642 138.452L110.64 138.451L111.933 142.233C113.166 140.922 113.782 140.266 113.567 139.638ZM107.924 137.133L108.165 137.526M107.924 137.133L108.165 137.526M108.165 137.526C108.166 137.526 108.166 137.526 108.166 137.526M108.165 137.526L108.166 137.526M108.166 137.526C108.166 137.526 108.166 137.526 108.166 137.526M108.166 137.526L108.166 137.526M108.166 137.526C108.179 137.548 108.193 137.571 108.207 137.593M108.166 137.526L108.207 137.593M108.207 137.593C108.43 137.958 108.616 138.262 108.91 138.466M108.207 137.593L108.91 138.466M108.91 138.466C109.202 138.667 109.556 138.74 109.991 138.828M108.91 138.466L109.991 138.828M109.991 138.828C110.018 138.834 110.045 138.839 110.072 138.845L109.991 138.828Z" fill="url(#paint0_linear_1390_10846)" stroke="#9BB997"/>
<path d="M40.8538 127.981C40.3671 127.981 39.9105 127.891 39.4838 127.711C39.0638 127.524 38.6938 127.268 38.3738 126.941C38.0605 126.614 37.8138 126.234 37.6338 125.801C37.4538 125.368 37.3638 124.901 37.3638 124.401C37.3638 123.901 37.4538 123.438 37.6338 123.011C37.8138 122.578 38.0638 122.198 38.3838 121.871C38.7038 121.544 39.0771 121.291 39.5038 121.111C39.9371 120.931 40.4071 120.841 40.9138 120.841C41.4671 120.841 41.9771 120.948 42.4438 121.161C42.9105 121.374 43.3005 121.681 43.6138 122.081L42.9638 122.731C42.7438 122.411 42.4538 122.168 42.0938 122.001C41.7338 121.828 41.3405 121.741 40.9138 121.741C40.4071 121.741 39.9571 121.854 39.5638 122.081C39.1771 122.308 38.8738 122.621 38.6538 123.021C38.4405 123.421 38.3338 123.881 38.3338 124.401C38.3338 124.928 38.4438 125.391 38.6638 125.791C38.8838 126.191 39.1805 126.504 39.5538 126.731C39.9271 126.958 40.3538 127.071 40.8338 127.071C41.3205 127.071 41.7405 126.978 42.0938 126.791C42.4538 126.604 42.7305 126.331 42.9238 125.971C43.1171 125.604 43.2138 125.158 43.2138 124.631L43.7838 125.041H40.7838V124.181H44.1838V124.321C44.1838 125.128 44.0405 125.804 43.7538 126.351C43.4738 126.891 43.0805 127.298 42.5738 127.571C42.0738 127.844 41.5005 127.981 40.8538 127.981ZM47.4582 127.981C46.9915 127.981 46.5715 127.871 46.1982 127.651C45.8248 127.431 45.5282 127.134 45.3082 126.761C45.0882 126.381 44.9782 125.958 44.9782 125.491C44.9782 125.031 45.0882 124.618 45.3082 124.251C45.5282 123.878 45.8248 123.581 46.1982 123.361C46.5715 123.141 46.9915 123.031 47.4582 123.031C47.9182 123.031 48.3348 123.141 48.7082 123.361C49.0882 123.574 49.3882 123.868 49.6082 124.241C49.8282 124.614 49.9382 125.031 49.9382 125.491C49.9382 125.958 49.8282 126.381 49.6082 126.761C49.3882 127.134 49.0882 127.431 48.7082 127.651C48.3348 127.871 47.9182 127.981 47.4582 127.981ZM47.4582 127.111C47.7582 127.111 48.0248 127.041 48.2582 126.901C48.4915 126.761 48.6748 126.571 48.8082 126.331C48.9415 126.084 49.0082 125.804 49.0082 125.491C49.0082 125.184 48.9382 124.911 48.7982 124.671C48.6648 124.431 48.4815 124.244 48.2482 124.111C48.0215 123.971 47.7582 123.901 47.4582 123.901C47.1582 123.901 46.8915 123.971 46.6582 124.111C46.4248 124.244 46.2415 124.431 46.1082 124.671C45.9748 124.911 45.9082 125.184 45.9082 125.491C45.9082 125.804 45.9748 126.084 46.1082 126.331C46.2415 126.571 46.4248 126.761 46.6582 126.901C46.8915 127.041 47.1582 127.111 47.4582 127.111ZM53.1222 127.981C52.6556 127.981 52.2356 127.871 51.8622 127.651C51.4889 127.431 51.1922 127.134 50.9722 126.761C50.7522 126.381 50.6422 125.958 50.6422 125.491C50.6422 125.031 50.7522 124.618 50.9722 124.251C51.1922 123.878 51.4889 123.581 51.8622 123.361C52.2356 123.141 52.6556 123.031 53.1222 123.031C53.5822 123.031 53.9989 123.141 54.3722 123.361C54.7522 123.574 55.0522 123.868 55.2722 124.241C55.4922 124.614 55.6022 125.031 55.6022 125.491C55.6022 125.958 55.4922 126.381 55.2722 126.761C55.0522 127.134 54.7522 127.431 54.3722 127.651C53.9989 127.871 53.5822 127.981 53.1222 127.981ZM53.1222 127.111C53.4222 127.111 53.6889 127.041 53.9222 126.901C54.1556 126.761 54.3389 126.571 54.4722 126.331C54.6056 126.084 54.6722 125.804 54.6722 125.491C54.6722 125.184 54.6022 124.911 54.4622 124.671C54.3289 124.431 54.1456 124.244 53.9122 124.111C53.6856 123.971 53.4222 123.901 53.1222 123.901C52.8222 123.901 52.5556 123.971 52.3222 124.111C52.0889 124.244 51.9056 124.431 51.7722 124.671C51.6389 124.911 51.5722 125.184 51.5722 125.491C51.5722 125.804 51.6389 126.084 51.7722 126.331C51.9056 126.571 52.0889 126.761 52.3222 126.901C52.5556 127.041 52.8222 127.111 53.1222 127.111ZM58.6263 127.981C58.1863 127.981 57.793 127.874 57.4463 127.661C57.0996 127.441 56.823 127.144 56.6163 126.771C56.4163 126.398 56.3163 125.978 56.3163 125.511C56.3163 125.044 56.4163 124.624 56.6163 124.251C56.823 123.878 57.0996 123.581 57.4463 123.361C57.793 123.141 58.1863 123.031 58.6263 123.031C58.9796 123.031 59.2996 123.108 59.5863 123.261C59.873 123.408 60.103 123.614 60.2763 123.881C60.4563 124.141 60.5563 124.444 60.5763 124.791V126.221C60.5563 126.561 60.4596 126.864 60.2863 127.131C60.113 127.398 59.883 127.608 59.5963 127.761C59.3096 127.908 58.9863 127.981 58.6263 127.981ZM58.7763 127.131C59.0763 127.131 59.3363 127.061 59.5563 126.921C59.783 126.781 59.9596 126.591 60.0863 126.351C60.213 126.104 60.2763 125.824 60.2763 125.511C60.2763 125.184 60.2096 124.901 60.0763 124.661C59.9496 124.421 59.773 124.231 59.5463 124.091C59.3263 123.951 59.0663 123.881 58.7663 123.881C58.4663 123.881 58.203 123.951 57.9763 124.091C57.7496 124.231 57.5696 124.424 57.4363 124.671C57.3096 124.911 57.2463 125.188 57.2463 125.501C57.2463 125.821 57.3096 126.104 57.4363 126.351C57.5696 126.591 57.7496 126.781 57.9763 126.921C58.2096 127.061 58.4763 127.131 58.7763 127.131ZM61.1263 127.881H60.2163V126.601L60.3863 125.441L60.2163 124.291V120.741H61.1263V127.881ZM65.3067 124.861V124.071H67.1867C67.5933 124.071 67.9067 123.968 68.1267 123.761C68.3467 123.554 68.4567 123.274 68.4567 122.921C68.4567 122.588 68.3467 122.311 68.1267 122.091C67.9133 121.871 67.6033 121.761 67.1967 121.761H65.3067V120.941H67.2267C67.6667 120.941 68.05 121.028 68.3767 121.201C68.7033 121.368 68.9533 121.598 69.1267 121.891C69.3067 122.184 69.3967 122.521 69.3967 122.901C69.3967 123.294 69.3067 123.638 69.1267 123.931C68.9533 124.224 68.7033 124.454 68.3767 124.621C68.05 124.781 67.6667 124.861 67.2267 124.861H65.3067ZM64.6767 127.881V120.941H65.6167V127.881H64.6767ZM68.6767 127.881L66.1567 124.771L67.0467 124.461L69.8667 127.881H68.6767ZM72.7225 127.981C72.2492 127.981 71.8225 127.874 71.4425 127.661C71.0625 127.441 70.7625 127.144 70.5425 126.771C70.3225 126.398 70.2125 125.974 70.2125 125.501C70.2125 125.034 70.3192 124.614 70.5325 124.241C70.7525 123.868 71.0459 123.574 71.4125 123.361C71.7859 123.141 72.2025 123.031 72.6625 123.031C73.1025 123.031 73.4892 123.131 73.8225 123.331C74.1625 123.531 74.4259 123.808 74.6125 124.161C74.8059 124.514 74.9025 124.914 74.9025 125.361C74.9025 125.428 74.8992 125.501 74.8925 125.581C74.8859 125.654 74.8725 125.741 74.8525 125.841H70.8425V125.091H74.3725L74.0425 125.381C74.0425 125.061 73.9859 124.791 73.8725 124.571C73.7592 124.344 73.5992 124.171 73.3925 124.051C73.1859 123.924 72.9359 123.861 72.6425 123.861C72.3359 123.861 72.0659 123.928 71.8325 124.061C71.5992 124.194 71.4192 124.381 71.2925 124.621C71.1659 124.861 71.1025 125.144 71.1025 125.471C71.1025 125.804 71.1692 126.098 71.3025 126.351C71.4359 126.598 71.6259 126.791 71.8725 126.931C72.1192 127.064 72.4025 127.131 72.7225 127.131C72.9892 127.131 73.2325 127.084 73.4525 126.991C73.6792 126.898 73.8725 126.758 74.0325 126.571L74.6125 127.161C74.3859 127.428 74.1059 127.631 73.7725 127.771C73.4459 127.911 73.0959 127.981 72.7225 127.981ZM77.4357 127.881L75.2557 123.131H76.2557L78.0057 127.141H77.4257L79.1857 123.131H80.1457L77.9657 127.881H77.4357ZM80.9232 127.881V123.131H81.8232V127.881H80.9232ZM81.3732 122.181C81.2065 122.181 81.0698 122.128 80.9632 122.021C80.8565 121.908 80.8032 121.768 80.8032 121.601C80.8032 121.441 80.8565 121.308 80.9632 121.201C81.0698 121.088 81.2065 121.031 81.3732 121.031C81.5398 121.031 81.6765 121.088 81.7832 121.201C81.8898 121.308 81.9432 121.441 81.9432 121.601C81.9432 121.768 81.8898 121.908 81.7832 122.021C81.6765 122.128 81.5398 122.181 81.3732 122.181ZM85.3495 127.981C84.8762 127.981 84.4495 127.874 84.0695 127.661C83.6895 127.441 83.3895 127.144 83.1695 126.771C82.9495 126.398 82.8395 125.974 82.8395 125.501C82.8395 125.034 82.9462 124.614 83.1595 124.241C83.3795 123.868 83.6728 123.574 84.0395 123.361C84.4128 123.141 84.8295 123.031 85.2895 123.031C85.7295 123.031 86.1162 123.131 86.4495 123.331C86.7895 123.531 87.0528 123.808 87.2395 124.161C87.4328 124.514 87.5295 124.914 87.5295 125.361C87.5295 125.428 87.5262 125.501 87.5195 125.581C87.5128 125.654 87.4995 125.741 87.4795 125.841H83.4695V125.091H86.9995L86.6695 125.381C86.6695 125.061 86.6128 124.791 86.4995 124.571C86.3862 124.344 86.2262 124.171 86.0195 124.051C85.8128 123.924 85.5628 123.861 85.2695 123.861C84.9628 123.861 84.6928 123.928 84.4595 124.061C84.2262 124.194 84.0462 124.381 83.9195 124.621C83.7928 124.861 83.7295 125.144 83.7295 125.471C83.7295 125.804 83.7962 126.098 83.9295 126.351C84.0628 126.598 84.2528 126.791 84.4995 126.931C84.7462 127.064 85.0295 127.131 85.3495 127.131C85.6162 127.131 85.8595 127.084 86.0795 126.991C86.3062 126.898 86.4995 126.758 86.6595 126.571L87.2395 127.161C87.0128 127.428 86.7328 127.631 86.3995 127.771C86.0728 127.911 85.7228 127.981 85.3495 127.981ZM89.8122 127.881L87.9322 123.131H88.8722L90.2322 126.831H89.9322L91.2822 123.131H91.8022L93.1522 126.831H92.8522L94.2122 123.131H95.1522L93.2822 127.881H92.7522L91.3822 124.291H91.7122L90.3322 127.881H89.8122ZM97.345 127.981C97.0784 127.981 96.825 127.948 96.585 127.881C96.3517 127.808 96.135 127.708 95.935 127.581C95.735 127.448 95.5617 127.291 95.415 127.111L95.995 126.531C96.1684 126.744 96.3684 126.904 96.595 127.011C96.8217 127.111 97.075 127.161 97.355 127.161C97.635 127.161 97.8517 127.114 98.005 127.021C98.1584 126.921 98.235 126.784 98.235 126.611C98.235 126.438 98.1717 126.304 98.045 126.211C97.925 126.111 97.7684 126.031 97.575 125.971C97.3817 125.904 97.175 125.841 96.955 125.781C96.7417 125.714 96.5384 125.631 96.345 125.531C96.1517 125.431 95.9917 125.294 95.865 125.121C95.745 124.948 95.685 124.718 95.685 124.431C95.685 124.144 95.755 123.898 95.895 123.691C96.035 123.478 96.2284 123.314 96.475 123.201C96.7284 123.088 97.0317 123.031 97.385 123.031C97.7584 123.031 98.0884 123.098 98.375 123.231C98.6684 123.358 98.9084 123.551 99.095 123.811L98.515 124.391C98.3817 124.218 98.215 124.084 98.015 123.991C97.8217 123.898 97.6017 123.851 97.355 123.851C97.095 123.851 96.895 123.898 96.755 123.991C96.6217 124.078 96.555 124.201 96.555 124.361C96.555 124.521 96.615 124.644 96.735 124.731C96.855 124.818 97.0117 124.891 97.205 124.951C97.405 125.011 97.6117 125.074 97.825 125.141C98.0384 125.201 98.2417 125.284 98.435 125.391C98.6284 125.498 98.785 125.641 98.905 125.821C99.0317 126.001 99.095 126.238 99.095 126.531C99.095 126.978 98.935 127.331 98.615 127.591C98.3017 127.851 97.8784 127.981 97.345 127.981Z" fill="white"/>
<path fill-rule="evenodd" clip-rule="evenodd" d="M66.8313 101.178C86.7628 101.178 102.92 85.0206 102.92 65.0891C102.92 45.1576 86.7628 29 66.8313 29C46.8998 29 30.7422 45.1576 30.7422 65.0891C30.7422 85.0206 46.8998 101.178 66.8313 101.178Z" stroke="#3F5872" stroke-width="17"/>
<path d="M66.8313 28.9995C74.3914 28.9995 81.7606 31.3737 87.8989 35.7871C94.0371 40.2004 98.6344 46.43 101.042 53.5966C103.449 60.7632 103.545 68.5048 101.316 75.7289C99.0872 82.953 94.6458 89.2946 88.6189 93.8588C82.592 98.423 75.2839 100.979 67.7261 101.167C60.1683 101.354 52.7425 99.1633 46.4967 94.9035C40.2509 90.6437 35.5006 84.53 32.9163 77.4253C30.3319 70.3207 30.044 62.5838 32.0932 55.3066" stroke="#9BB997" stroke-width="18" stroke-linecap="round"/>
<path d="M52.7902 65.7934L57.4302 56.5734H60.8502L56.1102 65.7934H52.7902ZM52.7902 67.5534V65.7934L53.8302 64.8934H64.1102V67.5534H52.7902ZM59.4502 70.6934V61.9534H62.5302V70.6934H59.4502ZM67.0109 70.9134C66.4909 70.9134 66.0575 70.7334 65.7109 70.3734C65.3642 70.0134 65.1909 69.58 65.1909 69.0734C65.1909 68.54 65.3642 68.1 65.7109 67.7534C66.0575 67.3934 66.4909 67.2134 67.0109 67.2134C67.5442 67.2134 67.9775 67.3934 68.3109 67.7534C68.6575 68.1 68.8309 68.54 68.8309 69.0734C68.8309 69.58 68.6575 70.0134 68.3109 70.3734C67.9775 70.7334 67.5442 70.9134 67.0109 70.9134ZM70.487 68.9334L75.907 63.3334C76.2403 63 76.507 62.6934 76.707 62.4134C76.907 62.1334 77.0536 61.8734 77.147 61.6334C77.2403 61.38 77.287 61.1267 77.287 60.8734C77.287 60.3267 77.107 59.9 76.747 59.5934C76.4003 59.2734 75.9403 59.1134 75.367 59.1134C74.807 59.1134 74.3003 59.2667 73.847 59.5734C73.407 59.8667 72.9803 60.3534 72.567 61.0334L70.467 59.2134C71.027 58.2667 71.7403 57.5534 72.607 57.0734C73.4736 56.5934 74.467 56.3534 75.587 56.3534C76.5603 56.3534 77.4003 56.5334 78.107 56.8934C78.827 57.2534 79.3803 57.7667 79.767 58.4334C80.167 59.1 80.367 59.88 80.367 60.7734C80.367 61.3334 80.2936 61.8534 80.147 62.3334C80.0003 62.8 79.7603 63.2667 79.427 63.7334C79.107 64.1867 78.6736 64.6867 78.127 65.2334L74.367 68.9734L70.487 68.9334ZM70.487 70.6934V68.9334L73.147 68.0134H80.647V70.6934H70.487Z" fill="#EEF4FF"/>
<defs>
<filter id="filter0_i_1390_10846" x="0" y="0" width="139" height="169" filterUnits="userSpaceOnUse" color-interpolation-filters="sRGB">
<feFlood flood-opacity="0" result="BackgroundImageFix"/>
<feBlend mode="normal" in="SourceGraphic" in2="BackgroundImageFix" result="shape"/>
<feColorMatrix in="SourceAlpha" type="matrix" values="0 0 0 0 0 0 0 0 0 0 0 0 0 0 0 0 0 0 127 0" result="hardAlpha"/>
<feOffset dx="4" dy="5"/>
<feGaussianBlur stdDeviation="2.5"/>
<feComposite in2="hardAlpha" operator="arithmetic" k2="-1" k3="1"/>
<feColorMatrix type="matrix" values="0 0 0 0 0.156059 0 0 0 0 0.303528 0 0 0 0 0.420833 0 0 0 1 0"/>
<feBlend mode="normal" in2="shape" result="effect1_innerShadow_1390_10846"/>
</filter>
<linearGradient id="paint0_linear_1390_10846" x1="98.9063" y1="141.945" x2="113.609" y2="141.945" gradientUnits="userSpaceOnUse">
<stop stop-color="#9BB997"/>
<stop offset="0.510317" stop-color="#9BB997"/>
<stop offset="0.510417" stop-color="#9BB997" stop-opacity="0"/>
</linearGradient>
</defs>
</svg>
