<svg width="288" height="164" viewBox="0 0 288 164" fill="none" xmlns="http://www.w3.org/2000/svg">
<g filter="url(#filter0_ddi_1390_10862)">
<rect x="12" y="13" width="267" height="141" rx="17" fill="#EDF2FA"/>
</g>
<path d="M33.144 74V65.056H34.093V74H33.144ZM33.768 74V73.129H38.695V74H33.768ZM42.5729 74.13C41.9835 74.13 41.4462 73.987 40.9609 73.701C40.4842 73.415 40.1029 73.0293 39.8169 72.544C39.5395 72.0587 39.4009 71.517 39.4009 70.919C39.4009 70.3297 39.5395 69.7967 39.8169 69.32C40.1029 68.8433 40.4842 68.4663 40.9609 68.189C41.4462 67.903 41.9835 67.76 42.5729 67.76C43.1709 67.76 43.7082 67.8987 44.1849 68.176C44.6615 68.4533 45.0385 68.8347 45.3159 69.32C45.6019 69.7967 45.7449 70.3297 45.7449 70.919C45.7449 71.5257 45.6019 72.0717 45.3159 72.557C45.0385 73.0337 44.6615 73.415 44.1849 73.701C43.7082 73.987 43.1709 74.13 42.5729 74.13ZM42.5729 73.246C43.0062 73.246 43.3875 73.1463 43.7169 72.947C44.0549 72.7477 44.3192 72.4703 44.5099 72.115C44.7092 71.7597 44.8089 71.361 44.8089 70.919C44.8089 70.477 44.7092 70.087 44.5099 69.749C44.3192 69.4023 44.0549 69.1293 43.7169 68.93C43.3875 68.7307 43.0062 68.631 42.5729 68.631C42.1482 68.631 41.7669 68.7307 41.4289 68.93C41.0909 69.1293 40.8265 69.4023 40.6359 69.749C40.4452 70.087 40.3499 70.477 40.3499 70.919C40.3499 71.3697 40.4452 71.7727 40.6359 72.128C40.8265 72.4747 41.0909 72.7477 41.4289 72.947C41.7669 73.1463 42.1482 73.246 42.5729 73.246ZM47.1925 74V67.89H48.1025V74H47.1925ZM48.1025 70.438L47.7255 70.269C47.7255 69.4977 47.9119 68.8867 48.2845 68.436C48.6659 67.9853 49.1859 67.76 49.8445 67.76C50.1479 67.76 50.4252 67.8163 50.6765 67.929C50.9279 68.033 51.1619 68.202 51.3785 68.436L50.7805 69.073C50.6332 68.9083 50.4685 68.7913 50.2865 68.722C50.1132 68.6527 49.9139 68.618 49.6885 68.618C49.2205 68.618 48.8392 68.774 48.5445 69.086C48.2499 69.3893 48.1025 69.84 48.1025 70.438ZM54.952 74.13C54.3367 74.13 53.7863 73.9913 53.301 73.714C52.8157 73.4367 52.43 73.0553 52.144 72.57C51.8667 72.0847 51.728 71.5387 51.728 70.932C51.728 70.334 51.8667 69.7967 52.144 69.32C52.4213 68.8347 52.7983 68.4533 53.275 68.176C53.7517 67.8987 54.2847 67.76 54.874 67.76C55.4287 67.76 55.9183 67.8857 56.343 68.137C56.7763 68.3883 57.1143 68.7393 57.357 69.19C57.6083 69.632 57.734 70.1433 57.734 70.724C57.734 70.7933 57.7297 70.8757 57.721 70.971C57.7123 71.0577 57.695 71.1617 57.669 71.283H52.378V70.503H57.175L56.85 70.789C56.8587 70.3383 56.7807 69.9527 56.616 69.632C56.46 69.3027 56.2303 69.0513 55.927 68.878C55.6323 68.696 55.2727 68.605 54.848 68.605C54.406 68.605 54.0203 68.7003 53.691 68.891C53.3617 69.0817 53.1017 69.3503 52.911 69.697C52.729 70.035 52.638 70.438 52.638 70.906C52.638 71.374 52.7333 71.7857 52.924 72.141C53.1233 72.4963 53.3963 72.7737 53.743 72.973C54.0983 73.1723 54.5057 73.272 54.965 73.272C55.3377 73.272 55.68 73.207 55.992 73.077C56.304 72.9383 56.5683 72.7347 56.785 72.466L57.37 73.064C57.084 73.402 56.7287 73.6663 56.304 73.857C55.888 74.039 55.4373 74.13 54.952 74.13ZM59.1261 74V67.89H60.0361V74H59.1261ZM63.3251 74V70.256C63.3251 69.7533 63.1735 69.3547 62.8701 69.06C62.5668 68.7567 62.1855 68.605 61.7261 68.605C61.4141 68.605 61.1281 68.6743 60.8681 68.813C60.6168 68.943 60.4131 69.1293 60.2571 69.372C60.1098 69.6147 60.0361 69.905 60.0361 70.243L59.6201 70.074C59.6201 69.606 59.7241 69.1987 59.9321 68.852C60.1401 68.5053 60.4175 68.2367 60.7641 68.046C61.1195 67.8553 61.5181 67.76 61.9601 67.76C62.3935 67.76 62.7791 67.8553 63.1171 68.046C63.4638 68.2367 63.7368 68.5053 63.9361 68.852C64.1441 69.1987 64.2481 69.6103 64.2481 70.087V74H63.3251ZM67.5371 74V70.256C67.5371 69.7533 67.3855 69.3547 67.0821 69.06C66.7788 68.7567 66.3931 68.605 65.9251 68.605C65.6218 68.605 65.3401 68.6743 65.0801 68.813C64.8288 68.943 64.6251 69.1293 64.4691 69.372C64.3218 69.6147 64.2481 69.905 64.2481 70.243L63.7021 70.074C63.7281 69.606 63.8495 69.1987 64.0661 68.852C64.2915 68.5053 64.5818 68.2367 64.9371 68.046C65.3011 67.8553 65.6998 67.76 66.1331 67.76C66.5665 67.76 66.9565 67.8553 67.3031 68.046C67.6585 68.2367 67.9358 68.5053 68.1351 68.852C68.3431 69.1987 68.4471 69.6103 68.4471 70.087V74H67.5371ZM72.9513 74V67.89H73.8743V74H72.9513ZM73.4063 66.564C73.233 66.564 73.0857 66.5033 72.9643 66.382C72.843 66.252 72.7823 66.1003 72.7823 65.927C72.7823 65.745 72.843 65.5933 72.9643 65.472C73.0857 65.3507 73.233 65.29 73.4063 65.29C73.597 65.29 73.7487 65.3507 73.8613 65.472C73.9827 65.5933 74.0433 65.745 74.0433 65.927C74.0433 66.1003 73.9827 66.252 73.8613 66.382C73.7487 66.5033 73.597 66.564 73.4063 66.564ZM78.8779 74.13C78.4099 74.13 77.9896 74.0347 77.6169 73.844C77.2442 73.6533 76.9366 73.3933 76.6939 73.064C76.4599 72.726 76.3169 72.336 76.2649 71.894V69.983C76.3169 69.5323 76.4642 69.1423 76.7069 68.813C76.9496 68.475 77.2572 68.215 77.6299 68.033C78.0112 67.851 78.4272 67.76 78.8779 67.76C79.4412 67.76 79.9482 67.903 80.3989 68.189C80.8496 68.4663 81.2049 68.8477 81.4649 69.333C81.7336 69.8097 81.8679 70.3513 81.8679 70.958C81.8679 71.556 81.7379 72.0933 81.4779 72.57C81.2179 73.0467 80.8582 73.428 80.3989 73.714C79.9482 73.9913 79.4412 74.13 78.8779 74.13ZM78.7219 73.259C79.1552 73.259 79.5366 73.1637 79.8659 72.973C80.1952 72.7737 80.4509 72.5007 80.6329 72.154C80.8236 71.7987 80.9189 71.3957 80.9189 70.945C80.9189 70.4857 80.8236 70.0827 80.6329 69.736C80.4509 69.3893 80.1952 69.1163 79.8659 68.917C79.5366 68.7177 79.1596 68.618 78.7349 68.618C78.3102 68.618 77.9332 68.7177 77.6039 68.917C77.2832 69.1163 77.0319 69.3893 76.8499 69.736C76.6679 70.0827 76.5769 70.4857 76.5769 70.945C76.5769 71.3957 76.6679 71.7987 76.8499 72.154C77.0319 72.5007 77.2832 72.7737 77.6039 72.973C77.9246 73.1637 78.2972 73.259 78.7219 73.259ZM75.7189 76.574V67.89H76.6289V69.45L76.4469 70.932L76.6289 72.427V76.574H75.7189ZM85.1954 74.13C84.8661 74.13 84.5497 74.0867 84.2464 74C83.9431 73.9047 83.6657 73.7747 83.4144 73.61C83.1717 73.4453 82.9594 73.2503 82.7774 73.025L83.3624 72.427C83.6051 72.7217 83.8781 72.9427 84.1814 73.09C84.4934 73.2287 84.8401 73.298 85.2214 73.298C85.6287 73.298 85.9451 73.22 86.1704 73.064C86.4044 72.908 86.5214 72.6913 86.5214 72.414C86.5214 72.154 86.4391 71.9503 86.2744 71.803C86.1097 71.6557 85.8974 71.5387 85.6374 71.452C85.3861 71.3653 85.1174 71.283 84.8314 71.205C84.5454 71.1183 84.2724 71.0143 84.0124 70.893C83.7524 70.763 83.5401 70.5853 83.3754 70.36C83.2194 70.1347 83.1414 69.84 83.1414 69.476C83.1414 69.1293 83.2237 68.8303 83.3884 68.579C83.5617 68.319 83.8044 68.1197 84.1164 67.981C84.4371 67.8337 84.8141 67.76 85.2474 67.76C85.7067 67.76 86.1227 67.8423 86.4954 68.007C86.8681 68.1717 87.1671 68.4143 87.3924 68.735L86.8074 69.32C86.6254 69.086 86.3957 68.9083 86.1184 68.787C85.8497 68.657 85.5464 68.592 85.2084 68.592C84.8184 68.592 84.5194 68.67 84.3114 68.826C84.1121 68.9733 84.0124 69.1683 84.0124 69.411C84.0124 69.645 84.0947 69.8313 84.2594 69.97C84.4241 70.1 84.6321 70.2083 84.8834 70.295C85.1434 70.373 85.4164 70.4553 85.7024 70.542C85.9884 70.62 86.2614 70.7283 86.5214 70.867C86.7814 70.997 86.9894 71.179 87.1454 71.413C87.3101 71.6383 87.3924 71.946 87.3924 72.336C87.3924 72.882 87.1931 73.3197 86.7944 73.649C86.4044 73.9697 85.8714 74.13 85.1954 74.13ZM91.2512 74.13C90.7572 74.13 90.3152 74.0173 89.9252 73.792C89.5352 73.558 89.2275 73.2417 89.0022 72.843C88.7855 72.4443 88.6772 71.9763 88.6772 71.439V67.89H89.6002V71.4C89.6002 71.7727 89.6652 72.0977 89.7952 72.375C89.9338 72.6523 90.1288 72.869 90.3802 73.025C90.6315 73.181 90.9218 73.259 91.2512 73.259C91.7625 73.259 92.1655 73.09 92.4602 72.752C92.7635 72.414 92.9152 71.9633 92.9152 71.4V67.89H93.8252V71.439C93.8252 71.9677 93.7168 72.4357 93.5002 72.843C93.2835 73.2503 92.9802 73.5667 92.5902 73.792C92.2002 74.0173 91.7538 74.13 91.2512 74.13ZM95.5236 74V67.89H96.4336V74H95.5236ZM99.7226 74V70.256C99.7226 69.7533 99.5709 69.3547 99.2676 69.06C98.9643 68.7567 98.5829 68.605 98.1236 68.605C97.8116 68.605 97.5256 68.6743 97.2656 68.813C97.0143 68.943 96.8106 69.1293 96.6546 69.372C96.5073 69.6147 96.4336 69.905 96.4336 70.243L96.0176 70.074C96.0176 69.606 96.1216 69.1987 96.3296 68.852C96.5376 68.5053 96.8149 68.2367 97.1616 68.046C97.5169 67.8553 97.9156 67.76 98.3576 67.76C98.7909 67.76 99.1766 67.8553 99.5146 68.046C99.8613 68.2367 100.134 68.5053 100.334 68.852C100.542 69.1987 100.646 69.6103 100.646 70.087V74H99.7226ZM103.935 74V70.256C103.935 69.7533 103.783 69.3547 103.48 69.06C103.176 68.7567 102.791 68.605 102.323 68.605C102.019 68.605 101.738 68.6743 101.478 68.813C101.226 68.943 101.023 69.1293 100.867 69.372C100.719 69.6147 100.646 69.905 100.646 70.243L100.1 70.074C100.126 69.606 100.247 69.1987 100.464 68.852C100.689 68.5053 100.979 68.2367 101.335 68.046C101.699 67.8553 102.097 67.76 102.531 67.76C102.964 67.76 103.354 67.8553 103.701 68.046C104.056 68.2367 104.333 68.5053 104.533 68.852C104.741 69.1987 104.845 69.6103 104.845 70.087V74H103.935ZM111.949 74.13C111.385 74.13 110.878 73.9913 110.428 73.714C109.977 73.4367 109.617 73.0597 109.349 72.583C109.089 72.0977 108.959 71.556 108.959 70.958C108.959 70.3513 109.089 69.8097 109.349 69.333C109.617 68.8477 109.977 68.4663 110.428 68.189C110.878 67.903 111.385 67.76 111.949 67.76C112.408 67.76 112.824 67.851 113.197 68.033C113.569 68.215 113.877 68.475 114.12 68.813C114.371 69.1423 114.518 69.5323 114.562 69.983V71.894C114.51 72.336 114.362 72.726 114.12 73.064C113.886 73.3933 113.582 73.6533 113.21 73.844C112.837 74.0347 112.417 74.13 111.949 74.13ZM112.105 73.259C112.529 73.259 112.902 73.1637 113.223 72.973C113.543 72.7737 113.795 72.5007 113.977 72.154C114.159 71.7987 114.25 71.3957 114.25 70.945C114.25 70.4857 114.154 70.0827 113.964 69.736C113.782 69.3893 113.53 69.1163 113.21 68.917C112.889 68.7177 112.516 68.618 112.092 68.618C111.667 68.618 111.29 68.7177 110.961 68.917C110.631 69.1163 110.371 69.3937 110.181 69.749C109.999 70.0957 109.908 70.4943 109.908 70.945C109.908 71.3957 109.999 71.7987 110.181 72.154C110.371 72.5007 110.631 72.7737 110.961 72.973C111.299 73.1637 111.68 73.259 112.105 73.259ZM115.108 74H114.198V72.362L114.38 70.854L114.198 69.385V64.796H115.108V74ZM119.722 74.13C119.133 74.13 118.596 73.987 118.11 73.701C117.634 73.415 117.252 73.0293 116.966 72.544C116.689 72.0587 116.55 71.517 116.55 70.919C116.55 70.3297 116.689 69.7967 116.966 69.32C117.252 68.8433 117.634 68.4663 118.11 68.189C118.596 67.903 119.133 67.76 119.722 67.76C120.32 67.76 120.858 67.8987 121.334 68.176C121.811 68.4533 122.188 68.8347 122.465 69.32C122.751 69.7967 122.894 70.3297 122.894 70.919C122.894 71.5257 122.751 72.0717 122.465 72.557C122.188 73.0337 121.811 73.415 121.334 73.701C120.858 73.987 120.32 74.13 119.722 74.13ZM119.722 73.246C120.156 73.246 120.537 73.1463 120.866 72.947C121.204 72.7477 121.469 72.4703 121.659 72.115C121.859 71.7597 121.958 71.361 121.958 70.919C121.958 70.477 121.859 70.087 121.659 69.749C121.469 69.4023 121.204 69.1293 120.866 68.93C120.537 68.7307 120.156 68.631 119.722 68.631C119.298 68.631 118.916 68.7307 118.578 68.93C118.24 69.1293 117.976 69.4023 117.785 69.749C117.595 70.087 117.499 70.477 117.499 70.919C117.499 71.3697 117.595 71.7727 117.785 72.128C117.976 72.4747 118.24 72.7477 118.578 72.947C118.916 73.1463 119.298 73.246 119.722 73.246ZM124.342 74V64.796H125.252V74H124.342ZM129.866 74.13C129.276 74.13 128.739 73.987 128.254 73.701C127.777 73.415 127.396 73.0293 127.11 72.544C126.832 72.0587 126.694 71.517 126.694 70.919C126.694 70.3297 126.832 69.7967 127.11 69.32C127.396 68.8433 127.777 68.4663 128.254 68.189C128.739 67.903 129.276 67.76 129.866 67.76C130.464 67.76 131.001 67.8987 131.478 68.176C131.954 68.4533 132.331 68.8347 132.609 69.32C132.895 69.7967 133.038 70.3297 133.038 70.919C133.038 71.5257 132.895 72.0717 132.609 72.557C132.331 73.0337 131.954 73.415 131.478 73.701C131.001 73.987 130.464 74.13 129.866 74.13ZM129.866 73.246C130.299 73.246 130.68 73.1463 131.01 72.947C131.348 72.7477 131.612 72.4703 131.803 72.115C132.002 71.7597 132.102 71.361 132.102 70.919C132.102 70.477 132.002 70.087 131.803 69.749C131.612 69.4023 131.348 69.1293 131.01 68.93C130.68 68.7307 130.299 68.631 129.866 68.631C129.441 68.631 129.06 68.7307 128.722 68.93C128.384 69.1293 128.119 69.4023 127.929 69.749C127.738 70.087 127.643 70.477 127.643 70.919C127.643 71.3697 127.738 71.7727 127.929 72.128C128.119 72.4747 128.384 72.7477 128.722 72.947C129.06 73.1463 129.441 73.246 129.866 73.246ZM134.486 74V67.89H135.396V74H134.486ZM135.396 70.438L135.019 70.269C135.019 69.4977 135.205 68.8867 135.578 68.436C135.959 67.9853 136.479 67.76 137.138 67.76C137.441 67.76 137.718 67.8163 137.97 67.929C138.221 68.033 138.455 68.202 138.672 68.436L138.074 69.073C137.926 68.9083 137.762 68.7913 137.58 68.722C137.406 68.6527 137.207 68.618 136.982 68.618C136.514 68.618 136.132 68.774 135.838 69.086C135.543 69.3893 135.396 69.84 135.396 70.438ZM144.533 74.13C144.204 74.13 143.888 74.0867 143.584 74C143.281 73.9047 143.004 73.7747 142.752 73.61C142.51 73.4453 142.297 73.2503 142.115 73.025L142.7 72.427C142.943 72.7217 143.216 72.9427 143.519 73.09C143.831 73.2287 144.178 73.298 144.559 73.298C144.967 73.298 145.283 73.22 145.508 73.064C145.742 72.908 145.859 72.6913 145.859 72.414C145.859 72.154 145.777 71.9503 145.612 71.803C145.448 71.6557 145.235 71.5387 144.975 71.452C144.724 71.3653 144.455 71.283 144.169 71.205C143.883 71.1183 143.61 71.0143 143.35 70.893C143.09 70.763 142.878 70.5853 142.713 70.36C142.557 70.1347 142.479 69.84 142.479 69.476C142.479 69.1293 142.562 68.8303 142.726 68.579C142.9 68.319 143.142 68.1197 143.454 67.981C143.775 67.8337 144.152 67.76 144.585 67.76C145.045 67.76 145.461 67.8423 145.833 68.007C146.206 68.1717 146.505 68.4143 146.73 68.735L146.145 69.32C145.963 69.086 145.734 68.9083 145.456 68.787C145.188 68.657 144.884 68.592 144.546 68.592C144.156 68.592 143.857 68.67 143.649 68.826C143.45 68.9733 143.35 69.1683 143.35 69.411C143.35 69.645 143.433 69.8313 143.597 69.97C143.762 70.1 143.97 70.2083 144.221 70.295C144.481 70.373 144.754 70.4553 145.04 70.542C145.326 70.62 145.599 70.7283 145.859 70.867C146.119 70.997 146.327 71.179 146.483 71.413C146.648 71.6383 146.73 71.946 146.73 72.336C146.73 72.882 146.531 73.3197 146.132 73.649C145.742 73.9697 145.209 74.13 144.533 74.13ZM148.171 74V67.89H149.094V74H148.171ZM148.626 66.564C148.453 66.564 148.305 66.5033 148.184 66.382C148.063 66.252 148.002 66.1003 148.002 65.927C148.002 65.745 148.063 65.5933 148.184 65.472C148.305 65.3507 148.453 65.29 148.626 65.29C148.817 65.29 148.968 65.3507 149.081 65.472C149.202 65.5933 149.263 65.745 149.263 65.927C149.263 66.1003 149.202 66.252 149.081 66.382C148.968 66.5033 148.817 66.564 148.626 66.564ZM151.888 74V65.316H152.798V74H151.888ZM150.341 68.709V67.89H154.332V68.709H150.341ZM161.03 74.13C160.449 74.13 159.929 73.9913 159.47 73.714C159.011 73.428 158.647 73.0467 158.378 72.57C158.118 72.0933 157.988 71.556 157.988 70.958C157.988 70.3513 158.118 69.8097 158.378 69.333C158.647 68.8477 159.011 68.4663 159.47 68.189C159.929 67.903 160.445 67.76 161.017 67.76C161.485 67.76 161.901 67.8553 162.265 68.046C162.638 68.228 162.937 68.488 163.162 68.826C163.396 69.1553 163.539 69.541 163.591 69.983V71.894C163.539 72.336 163.396 72.726 163.162 73.064C162.937 73.402 162.638 73.6663 162.265 73.857C161.901 74.039 161.489 74.13 161.03 74.13ZM161.173 73.259C161.806 73.259 162.313 73.0467 162.694 72.622C163.084 72.1973 163.279 71.6383 163.279 70.945C163.279 70.4857 163.188 70.0827 163.006 69.736C162.833 69.3807 162.586 69.1077 162.265 68.917C161.953 68.7177 161.585 68.618 161.16 68.618C160.727 68.618 160.341 68.7177 160.003 68.917C159.674 69.1163 159.409 69.3937 159.21 69.749C159.019 70.0957 158.924 70.4943 158.924 70.945C158.924 71.3957 159.019 71.7943 159.21 72.141C159.409 72.4877 159.678 72.7607 160.016 72.96C160.354 73.1593 160.74 73.259 161.173 73.259ZM163.227 74V72.362L163.409 70.854L163.227 69.385V67.89H164.137V74H163.227ZM165.983 74V67.89H166.893V74H165.983ZM170.182 74V70.256C170.182 69.7533 170.03 69.3547 169.727 69.06C169.423 68.7567 169.042 68.605 168.583 68.605C168.271 68.605 167.985 68.6743 167.725 68.813C167.473 68.943 167.27 69.1293 167.114 69.372C166.966 69.6147 166.893 69.905 166.893 70.243L166.477 70.074C166.477 69.606 166.581 69.1987 166.789 68.852C166.997 68.5053 167.274 68.2367 167.621 68.046C167.976 67.8553 168.375 67.76 168.817 67.76C169.25 67.76 169.636 67.8553 169.974 68.046C170.32 68.2367 170.593 68.5053 170.793 68.852C171.001 69.1987 171.105 69.6103 171.105 70.087V74H170.182ZM174.394 74V70.256C174.394 69.7533 174.242 69.3547 173.939 69.06C173.635 68.7567 173.25 68.605 172.782 68.605C172.478 68.605 172.197 68.6743 171.937 68.813C171.685 68.943 171.482 69.1293 171.326 69.372C171.178 69.6147 171.105 69.905 171.105 70.243L170.559 70.074C170.585 69.606 170.706 69.1987 170.923 68.852C171.148 68.5053 171.438 68.2367 171.794 68.046C172.158 67.8553 172.556 67.76 172.99 67.76C173.423 67.76 173.813 67.8553 174.16 68.046C174.515 68.2367 174.792 68.5053 174.992 68.852C175.2 69.1987 175.304 69.6103 175.304 70.087V74H174.394ZM179.836 74.13C179.22 74.13 178.67 73.9913 178.185 73.714C177.699 73.4367 177.314 73.0553 177.028 72.57C176.75 72.0847 176.612 71.5387 176.612 70.932C176.612 70.334 176.75 69.7967 177.028 69.32C177.305 68.8347 177.682 68.4533 178.159 68.176C178.635 67.8987 179.168 67.76 179.758 67.76C180.312 67.76 180.802 67.8857 181.227 68.137C181.66 68.3883 181.998 68.7393 182.241 69.19C182.492 69.632 182.618 70.1433 182.618 70.724C182.618 70.7933 182.613 70.8757 182.605 70.971C182.596 71.0577 182.579 71.1617 182.553 71.283H177.262V70.503H182.059L181.734 70.789C181.742 70.3383 181.664 69.9527 181.5 69.632C181.344 69.3027 181.114 69.0513 180.811 68.878C180.516 68.696 180.156 68.605 179.732 68.605C179.29 68.605 178.904 68.7003 178.575 68.891C178.245 69.0817 177.985 69.3503 177.795 69.697C177.613 70.035 177.522 70.438 177.522 70.906C177.522 71.374 177.617 71.7857 177.808 72.141C178.007 72.4963 178.28 72.7737 178.627 72.973C178.982 73.1723 179.389 73.272 179.849 73.272C180.221 73.272 180.564 73.207 180.876 73.077C181.188 72.9383 181.452 72.7347 181.669 72.466L182.254 73.064C181.968 73.402 181.612 73.6663 181.188 73.857C180.772 74.039 180.321 74.13 179.836 74.13ZM184.73 74V65.316H185.64V74H184.73ZM183.183 68.709V67.89H187.174V68.709H183.183ZM194.003 74.13C193.405 74.13 192.863 73.9913 192.378 73.714C191.901 73.428 191.52 73.0423 191.234 72.557C190.957 72.0717 190.818 71.53 190.818 70.932C190.818 70.334 190.957 69.7967 191.234 69.32C191.52 68.8347 191.901 68.4533 192.378 68.176C192.863 67.8987 193.405 67.76 194.003 67.76C194.462 67.76 194.891 67.8467 195.29 68.02C195.689 68.1933 196.027 68.436 196.304 68.748L195.706 69.359C195.498 69.125 195.247 68.9473 194.952 68.826C194.657 68.696 194.341 68.631 194.003 68.631C193.57 68.631 193.184 68.7307 192.846 68.93C192.508 69.1293 192.244 69.4023 192.053 69.749C191.862 70.087 191.767 70.4813 191.767 70.932C191.767 71.374 191.862 71.7727 192.053 72.128C192.244 72.4747 192.508 72.7477 192.846 72.947C193.184 73.1463 193.57 73.246 194.003 73.246C194.35 73.246 194.67 73.1853 194.965 73.064C195.26 72.934 195.511 72.752 195.719 72.518L196.33 73.129C196.044 73.4497 195.697 73.6967 195.29 73.87C194.891 74.0433 194.462 74.13 194.003 74.13ZM200.261 74.13C199.672 74.13 199.135 73.987 198.649 73.701C198.173 73.415 197.791 73.0293 197.505 72.544C197.228 72.0587 197.089 71.517 197.089 70.919C197.089 70.3297 197.228 69.7967 197.505 69.32C197.791 68.8433 198.173 68.4663 198.649 68.189C199.135 67.903 199.672 67.76 200.261 67.76C200.859 67.76 201.397 67.8987 201.873 68.176C202.35 68.4533 202.727 68.8347 203.004 69.32C203.29 69.7967 203.433 70.3297 203.433 70.919C203.433 71.5257 203.29 72.0717 203.004 72.557C202.727 73.0337 202.35 73.415 201.873 73.701C201.397 73.987 200.859 74.13 200.261 74.13ZM200.261 73.246C200.695 73.246 201.076 73.1463 201.405 72.947C201.743 72.7477 202.008 72.4703 202.198 72.115C202.398 71.7597 202.497 71.361 202.497 70.919C202.497 70.477 202.398 70.087 202.198 69.749C202.008 69.4023 201.743 69.1293 201.405 68.93C201.076 68.7307 200.695 68.631 200.261 68.631C199.837 68.631 199.455 68.7307 199.117 68.93C198.779 69.1293 198.515 69.4023 198.324 69.749C198.134 70.087 198.038 70.477 198.038 70.919C198.038 71.3697 198.134 71.7727 198.324 72.128C198.515 72.4747 198.779 72.7477 199.117 72.947C199.455 73.1463 199.837 73.246 200.261 73.246ZM209.327 74V70.412C209.327 69.8747 209.167 69.4413 208.846 69.112C208.534 68.774 208.118 68.605 207.598 68.605C207.243 68.605 206.931 68.683 206.662 68.839C206.393 68.995 206.181 69.2073 206.025 69.476C205.869 69.7447 205.791 70.0523 205.791 70.399L205.375 70.165C205.375 69.7057 205.483 69.294 205.7 68.93C205.917 68.566 206.207 68.28 206.571 68.072C206.944 67.864 207.368 67.76 207.845 67.76C208.313 67.76 208.729 67.8727 209.093 68.098C209.457 68.3233 209.739 68.6267 209.938 69.008C210.146 69.3893 210.25 69.8053 210.25 70.256V74H209.327ZM204.881 74V67.89H205.791V74H204.881ZM213.824 74.13C213.495 74.13 213.179 74.0867 212.875 74C212.572 73.9047 212.295 73.7747 212.043 73.61C211.801 73.4453 211.588 73.2503 211.406 73.025L211.991 72.427C212.234 72.7217 212.507 72.9427 212.81 73.09C213.122 73.2287 213.469 73.298 213.85 73.298C214.258 73.298 214.574 73.22 214.799 73.064C215.033 72.908 215.15 72.6913 215.15 72.414C215.15 72.154 215.068 71.9503 214.903 71.803C214.739 71.6557 214.526 71.5387 214.266 71.452C214.015 71.3653 213.746 71.283 213.46 71.205C213.174 71.1183 212.901 71.0143 212.641 70.893C212.381 70.763 212.169 70.5853 212.004 70.36C211.848 70.1347 211.77 69.84 211.77 69.476C211.77 69.1293 211.853 68.8303 212.017 68.579C212.191 68.319 212.433 68.1197 212.745 67.981C213.066 67.8337 213.443 67.76 213.876 67.76C214.336 67.76 214.752 67.8423 215.124 68.007C215.497 68.1717 215.796 68.4143 216.021 68.735L215.436 69.32C215.254 69.086 215.025 68.9083 214.747 68.787C214.479 68.657 214.175 68.592 213.837 68.592C213.447 68.592 213.148 68.67 212.94 68.826C212.741 68.9733 212.641 69.1683 212.641 69.411C212.641 69.645 212.724 69.8313 212.888 69.97C213.053 70.1 213.261 70.2083 213.512 70.295C213.772 70.373 214.045 70.4553 214.331 70.542C214.617 70.62 214.89 70.7283 215.15 70.867C215.41 70.997 215.618 71.179 215.774 71.413C215.939 71.6383 216.021 71.946 216.021 72.336C216.021 72.882 215.822 73.3197 215.423 73.649C215.033 73.9697 214.5 74.13 213.824 74.13ZM220.283 74.13C219.668 74.13 219.117 73.9913 218.632 73.714C218.147 73.4367 217.761 73.0553 217.475 72.57C217.198 72.0847 217.059 71.5387 217.059 70.932C217.059 70.334 217.198 69.7967 217.475 69.32C217.752 68.8347 218.129 68.4533 218.606 68.176C219.083 67.8987 219.616 67.76 220.205 67.76C220.76 67.76 221.249 67.8857 221.674 68.137C222.107 68.3883 222.445 68.7393 222.688 69.19C222.939 69.632 223.065 70.1433 223.065 70.724C223.065 70.7933 223.061 70.8757 223.052 70.971C223.043 71.0577 223.026 71.1617 223 71.283H217.709V70.503H222.506L222.181 70.789C222.19 70.3383 222.112 69.9527 221.947 69.632C221.791 69.3027 221.561 69.0513 221.258 68.878C220.963 68.696 220.604 68.605 220.179 68.605C219.737 68.605 219.351 68.7003 219.022 68.891C218.693 69.0817 218.433 69.3503 218.242 69.697C218.06 70.035 217.969 70.438 217.969 70.906C217.969 71.374 218.064 71.7857 218.255 72.141C218.454 72.4963 218.727 72.7737 219.074 72.973C219.429 73.1723 219.837 73.272 220.296 73.272C220.669 73.272 221.011 73.207 221.323 73.077C221.635 72.9383 221.899 72.7347 222.116 72.466L222.701 73.064C222.415 73.402 222.06 73.6663 221.635 73.857C221.219 74.039 220.768 74.13 220.283 74.13ZM227.239 74.13C226.641 74.13 226.1 73.9913 225.614 73.714C225.138 73.428 224.756 73.0423 224.47 72.557C224.193 72.0717 224.054 71.53 224.054 70.932C224.054 70.334 224.193 69.7967 224.47 69.32C224.756 68.8347 225.138 68.4533 225.614 68.176C226.1 67.8987 226.641 67.76 227.239 67.76C227.699 67.76 228.128 67.8467 228.526 68.02C228.925 68.1933 229.263 68.436 229.54 68.748L228.942 69.359C228.734 69.125 228.483 68.9473 228.188 68.826C227.894 68.696 227.577 68.631 227.239 68.631C226.806 68.631 226.42 68.7307 226.082 68.93C225.744 69.1293 225.48 69.4023 225.289 69.749C225.099 70.087 225.003 70.4813 225.003 70.932C225.003 71.374 225.099 71.7727 225.289 72.128C225.48 72.4747 225.744 72.7477 226.082 72.947C226.42 73.1463 226.806 73.246 227.239 73.246C227.586 73.246 227.907 73.1853 228.201 73.064C228.496 72.934 228.747 72.752 228.955 72.518L229.566 73.129C229.28 73.4497 228.934 73.6967 228.526 73.87C228.128 74.0433 227.699 74.13 227.239 74.13ZM231.741 74V65.316H232.651V74H231.741ZM230.194 68.709V67.89H234.185V68.709H230.194ZM238.044 74.13C237.428 74.13 236.878 73.9913 236.393 73.714C235.907 73.4367 235.522 73.0553 235.236 72.57C234.958 72.0847 234.82 71.5387 234.82 70.932C234.82 70.334 234.958 69.7967 235.236 69.32C235.513 68.8347 235.89 68.4533 236.367 68.176C236.843 67.8987 237.376 67.76 237.966 67.76C238.52 67.76 239.01 67.8857 239.435 68.137C239.868 68.3883 240.206 68.7393 240.449 69.19C240.7 69.632 240.826 70.1433 240.826 70.724C240.826 70.7933 240.821 70.8757 240.813 70.971C240.804 71.0577 240.787 71.1617 240.761 71.283H235.47V70.503H240.267L239.942 70.789C239.95 70.3383 239.872 69.9527 239.708 69.632C239.552 69.3027 239.322 69.0513 239.019 68.878C238.724 68.696 238.364 68.605 237.94 68.605C237.498 68.605 237.112 68.7003 236.783 68.891C236.453 69.0817 236.193 69.3503 236.003 69.697C235.821 70.035 235.73 70.438 235.73 70.906C235.73 71.374 235.825 71.7857 236.016 72.141C236.215 72.4963 236.488 72.7737 236.835 72.973C237.19 73.1723 237.597 73.272 238.057 73.272C238.429 73.272 238.772 73.207 239.084 73.077C239.396 72.9383 239.66 72.7347 239.877 72.466L240.462 73.064C240.176 73.402 239.82 73.6663 239.396 73.857C238.98 74.039 238.529 74.13 238.044 74.13ZM242.938 74V65.316H243.848V74H242.938ZM241.391 68.709V67.89H245.382V68.709H241.391ZM249.054 74.13C248.56 74.13 248.118 74.0173 247.728 73.792C247.338 73.558 247.03 73.2417 246.805 72.843C246.588 72.4443 246.48 71.9763 246.48 71.439V67.89H247.403V71.4C247.403 71.7727 247.468 72.0977 247.598 72.375C247.737 72.6523 247.932 72.869 248.183 73.025C248.434 73.181 248.725 73.259 249.054 73.259C249.565 73.259 249.968 73.09 250.263 72.752C250.566 72.414 250.718 71.9633 250.718 71.4V67.89H251.628V71.439C251.628 71.9677 251.52 72.4357 251.303 72.843C251.086 73.2503 250.783 73.5667 250.393 73.792C250.003 74.0173 249.557 74.13 249.054 74.13ZM253.326 74V67.89H254.236V74H253.326ZM254.236 70.438L253.859 70.269C253.859 69.4977 254.046 68.8867 254.418 68.436C254.8 67.9853 255.32 67.76 255.978 67.76C256.282 67.76 256.559 67.8163 256.81 67.929C257.062 68.033 257.296 68.202 257.512 68.436L256.914 69.073C256.767 68.9083 256.602 68.7913 256.42 68.722C256.247 68.6527 256.048 68.618 255.822 68.618C255.354 68.618 254.973 68.774 254.678 69.086C254.384 69.3893 254.236 69.84 254.236 70.438ZM258.681 74.13C258.464 74.13 258.287 74.0563 258.148 73.909C258.009 73.7617 257.94 73.584 257.94 73.376C257.94 73.168 258.009 72.9947 258.148 72.856C258.287 72.7087 258.464 72.635 258.681 72.635C258.889 72.635 259.062 72.7087 259.201 72.856C259.34 72.9947 259.409 73.168 259.409 73.376C259.409 73.584 259.34 73.7617 259.201 73.909C259.062 74.0563 258.889 74.13 258.681 74.13ZM33.729 90V89.116H36.355C37.057 89.116 37.6767 88.9643 38.214 88.661C38.7513 88.349 39.1717 87.9243 39.475 87.387C39.7783 86.841 39.93 86.217 39.93 85.515C39.93 84.813 39.7783 84.1933 39.475 83.656C39.1717 83.1187 38.7513 82.6983 38.214 82.395C37.6767 82.083 37.057 81.927 36.355 81.927H33.755V81.056H36.381C37.031 81.056 37.629 81.1687 38.175 81.394C38.7297 81.6107 39.2107 81.9227 39.618 82.33C40.034 82.7287 40.3547 83.201 40.58 83.747C40.8053 84.2843 40.918 84.878 40.918 85.528C40.918 86.1607 40.8053 86.75 40.58 87.296C40.3547 87.842 40.0383 88.3187 39.631 88.726C39.2237 89.1247 38.7427 89.4367 38.188 89.662C37.642 89.8873 37.0483 90 36.407 90H33.729ZM33.144 90V81.056H34.093V90H33.144ZM42.5334 90V83.89H43.4564V90H42.5334ZM42.9884 82.564C42.815 82.564 42.6677 82.5033 42.5464 82.382C42.425 82.252 42.3644 82.1003 42.3644 81.927C42.3644 81.745 42.425 81.5933 42.5464 81.472C42.6677 81.3507 42.815 81.29 42.9884 81.29C43.179 81.29 43.3307 81.3507 43.4434 81.472C43.5647 81.5933 43.6254 81.745 43.6254 81.927C43.6254 82.1003 43.5647 82.252 43.4434 82.382C43.3307 82.5033 43.179 82.564 42.9884 82.564ZM47.1729 90.13C46.8436 90.13 46.5273 90.0867 46.2239 90C45.9206 89.9047 45.6433 89.7747 45.3919 89.61C45.1493 89.4453 44.9369 89.2503 44.7549 89.025L45.3399 88.427C45.5826 88.7217 45.8556 88.9427 46.1589 89.09C46.4709 89.2287 46.8176 89.298 47.1989 89.298C47.6063 89.298 47.9226 89.22 48.1479 89.064C48.3819 88.908 48.4989 88.6913 48.4989 88.414C48.4989 88.154 48.4166 87.9503 48.2519 87.803C48.0873 87.6557 47.8749 87.5387 47.6149 87.452C47.3636 87.3653 47.0949 87.283 46.8089 87.205C46.5229 87.1183 46.2499 87.0143 45.9899 86.893C45.7299 86.763 45.5176 86.5853 45.3529 86.36C45.1969 86.1347 45.1189 85.84 45.1189 85.476C45.1189 85.1293 45.2013 84.8303 45.3659 84.579C45.5393 84.319 45.7819 84.1197 46.0939 83.981C46.4146 83.8337 46.7916 83.76 47.2249 83.76C47.6843 83.76 48.1003 83.8423 48.4729 84.007C48.8456 84.1717 49.1446 84.4143 49.3699 84.735L48.7849 85.32C48.6029 85.086 48.3733 84.9083 48.0959 84.787C47.8273 84.657 47.5239 84.592 47.1859 84.592C46.7959 84.592 46.4969 84.67 46.2889 84.826C46.0896 84.9733 45.9899 85.1683 45.9899 85.411C45.9899 85.645 46.0723 85.8313 46.2369 85.97C46.4016 86.1 46.6096 86.2083 46.8609 86.295C47.1209 86.373 47.3939 86.4553 47.6799 86.542C47.9659 86.62 48.2389 86.7283 48.4989 86.867C48.7589 86.997 48.9669 87.179 49.1229 87.413C49.2876 87.6383 49.3699 87.946 49.3699 88.336C49.3699 88.882 49.1706 89.3197 48.7719 89.649C48.3819 89.9697 47.8489 90.13 47.1729 90.13ZM56.0217 90.13C55.5277 90.13 55.0857 90.0173 54.6957 89.792C54.3057 89.558 53.998 89.2417 53.7727 88.843C53.556 88.4443 53.4477 87.9763 53.4477 87.439V83.89H54.3707V87.4C54.3707 87.7727 54.4357 88.0977 54.5657 88.375C54.7043 88.6523 54.8993 88.869 55.1507 89.025C55.402 89.181 55.6923 89.259 56.0217 89.259C56.533 89.259 56.936 89.09 57.2307 88.752C57.534 88.414 57.6857 87.9633 57.6857 87.4V83.89H58.5957V87.439C58.5957 87.9677 58.4873 88.4357 58.2707 88.843C58.054 89.2503 57.7507 89.5667 57.3607 89.792C56.9707 90.0173 56.5243 90.13 56.0217 90.13ZM60.2941 90V83.89H61.2041V90H60.2941ZM61.2041 86.438L60.8271 86.269C60.8271 85.4977 61.0134 84.8867 61.3861 84.436C61.7674 83.9853 62.2874 83.76 62.9461 83.76C63.2494 83.76 63.5268 83.8163 63.7781 83.929C64.0294 84.033 64.2634 84.202 64.4801 84.436L63.8821 85.073C63.7348 84.9083 63.5701 84.7913 63.3881 84.722C63.2148 84.6527 63.0154 84.618 62.7901 84.618C62.3221 84.618 61.9408 84.774 61.6461 85.086C61.3514 85.3893 61.2041 85.84 61.2041 86.438ZM69.9452 90V86.412C69.9452 85.8747 69.7848 85.4413 69.4642 85.112C69.1522 84.774 68.7362 84.605 68.2162 84.605C67.8608 84.605 67.5488 84.683 67.2802 84.839C67.0115 84.995 66.7992 85.2073 66.6432 85.476C66.4872 85.7447 66.4092 86.0523 66.4092 86.399L65.9932 86.165C65.9932 85.7057 66.1015 85.294 66.3182 84.93C66.5348 84.566 66.8252 84.28 67.1892 84.072C67.5618 83.864 67.9865 83.76 68.4632 83.76C68.9312 83.76 69.3472 83.8727 69.7112 84.098C70.0752 84.3233 70.3568 84.6267 70.5562 85.008C70.7642 85.3893 70.8682 85.8053 70.8682 86.256V90H69.9452ZM65.4992 90V83.89H66.4092V90H65.4992ZM75.2225 90.13C74.6418 90.13 74.1218 89.9913 73.6625 89.714C73.2031 89.428 72.8391 89.0467 72.5705 88.57C72.3105 88.0933 72.1805 87.556 72.1805 86.958C72.1805 86.3513 72.3105 85.8097 72.5705 85.333C72.8391 84.8477 73.2031 84.4663 73.6625 84.189C74.1218 83.903 74.6375 83.76 75.2095 83.76C75.6775 83.76 76.0935 83.8553 76.4575 84.046C76.8301 84.228 77.1291 84.488 77.3545 84.826C77.5885 85.1553 77.7315 85.541 77.7835 85.983V87.894C77.7315 88.336 77.5885 88.726 77.3545 89.064C77.1291 89.402 76.8301 89.6663 76.4575 89.857C76.0935 90.039 75.6818 90.13 75.2225 90.13ZM75.3655 89.259C75.9981 89.259 76.5051 89.0467 76.8865 88.622C77.2765 88.1973 77.4715 87.6383 77.4715 86.945C77.4715 86.4857 77.3805 86.0827 77.1985 85.736C77.0251 85.3807 76.7781 85.1077 76.4575 84.917C76.1455 84.7177 75.7771 84.618 75.3525 84.618C74.9191 84.618 74.5335 84.7177 74.1955 84.917C73.8661 85.1163 73.6018 85.3937 73.4025 85.749C73.2118 86.0957 73.1165 86.4943 73.1165 86.945C73.1165 87.3957 73.2118 87.7943 73.4025 88.141C73.6018 88.4877 73.8705 88.7607 74.2085 88.96C74.5465 89.1593 74.9321 89.259 75.3655 89.259ZM77.4195 90V88.362L77.6015 86.854L77.4195 85.385V83.89H78.3295V90H77.4195ZM85.5679 90.13C85.0046 90.13 84.4976 89.9913 84.0469 89.714C83.5963 89.4367 83.2366 89.0597 82.9679 88.583C82.7079 88.0977 82.5779 87.556 82.5779 86.958C82.5779 86.3513 82.7079 85.8097 82.9679 85.333C83.2366 84.8477 83.5963 84.4663 84.0469 84.189C84.4976 83.903 85.0046 83.76 85.5679 83.76C86.0273 83.76 86.4433 83.851 86.8159 84.033C87.1886 84.215 87.4963 84.475 87.7389 84.813C87.9903 85.1423 88.1376 85.5323 88.1809 85.983V87.894C88.1289 88.336 87.9816 88.726 87.7389 89.064C87.5049 89.3933 87.2016 89.6533 86.8289 89.844C86.4563 90.0347 86.0359 90.13 85.5679 90.13ZM85.7239 89.259C86.1486 89.259 86.5213 89.1637 86.8419 88.973C87.1626 88.7737 87.4139 88.5007 87.5959 88.154C87.7779 87.7987 87.8689 87.3957 87.8689 86.945C87.8689 86.4857 87.7736 86.0827 87.5829 85.736C87.4009 85.3893 87.1496 85.1163 86.8289 84.917C86.5083 84.7177 86.1356 84.618 85.7109 84.618C85.2863 84.618 84.9093 84.7177 84.5799 84.917C84.2506 85.1163 83.9906 85.3937 83.7999 85.749C83.6179 86.0957 83.5269 86.4943 83.5269 86.945C83.5269 87.3957 83.6179 87.7987 83.7999 88.154C83.9906 88.5007 84.2506 88.7737 84.5799 88.973C84.9179 89.1637 85.2993 89.259 85.7239 89.259ZM88.7269 90H87.8169V88.362L87.9989 86.854L87.8169 85.385V80.796H88.7269V90ZM92.9904 90.13C92.4964 90.13 92.0544 90.0173 91.6644 89.792C91.2744 89.558 90.9667 89.2417 90.7414 88.843C90.5247 88.4443 90.4164 87.9763 90.4164 87.439V83.89H91.3394V87.4C91.3394 87.7727 91.4044 88.0977 91.5344 88.375C91.6731 88.6523 91.8681 88.869 92.1194 89.025C92.3707 89.181 92.6611 89.259 92.9904 89.259C93.5017 89.259 93.9047 89.09 94.1994 88.752C94.5027 88.414 94.6544 87.9633 94.6544 87.4V83.89H95.5644V87.439C95.5644 87.9677 95.4561 88.4357 95.2394 88.843C95.0227 89.2503 94.7194 89.5667 94.3294 89.792C93.9394 90.0173 93.4931 90.13 92.9904 90.13ZM97.2628 90V83.89H98.1858V90H97.2628ZM97.7178 82.564C97.5445 82.564 97.3972 82.5033 97.2758 82.382C97.1545 82.252 97.0938 82.1003 97.0938 81.927C97.0938 81.745 97.1545 81.5933 97.2758 81.472C97.3972 81.3507 97.5445 81.29 97.7178 81.29C97.9085 81.29 98.0602 81.3507 98.1728 81.472C98.2942 81.5933 98.3548 81.745 98.3548 81.927C98.3548 82.1003 98.2942 82.252 98.1728 82.382C98.0602 82.5033 97.9085 82.564 97.7178 82.564ZM102.823 90V83.89H103.746V90H102.823ZM103.278 82.564C103.105 82.564 102.958 82.5033 102.836 82.382C102.715 82.252 102.654 82.1003 102.654 81.927C102.654 81.745 102.715 81.5933 102.836 81.472C102.958 81.3507 103.105 81.29 103.278 81.29C103.469 81.29 103.621 81.3507 103.733 81.472C103.855 81.5933 103.915 81.745 103.915 81.927C103.915 82.1003 103.855 82.252 103.733 82.382C103.621 82.5033 103.469 82.564 103.278 82.564ZM108.191 90.13C107.628 90.13 107.121 89.9913 106.67 89.714C106.219 89.4367 105.86 89.0597 105.591 88.583C105.331 88.0977 105.201 87.556 105.201 86.958C105.201 86.3513 105.331 85.8097 105.591 85.333C105.86 84.8477 106.219 84.4663 106.67 84.189C107.121 83.903 107.628 83.76 108.191 83.76C108.65 83.76 109.066 83.851 109.439 84.033C109.812 84.215 110.119 84.475 110.362 84.813C110.613 85.1423 110.761 85.5323 110.804 85.983V87.894C110.752 88.336 110.605 88.726 110.362 89.064C110.128 89.3933 109.825 89.6533 109.452 89.844C109.079 90.0347 108.659 90.13 108.191 90.13ZM108.347 89.259C108.772 89.259 109.144 89.1637 109.465 88.973C109.786 88.7737 110.037 88.5007 110.219 88.154C110.401 87.7987 110.492 87.3957 110.492 86.945C110.492 86.4857 110.397 86.0827 110.206 85.736C110.024 85.3893 109.773 85.1163 109.452 84.917C109.131 84.7177 108.759 84.618 108.334 84.618C107.909 84.618 107.532 84.7177 107.203 84.917C106.874 85.1163 106.614 85.3937 106.423 85.749C106.241 86.0957 106.15 86.4943 106.15 86.945C106.15 87.3957 106.241 87.7987 106.423 88.154C106.614 88.5007 106.874 88.7737 107.203 88.973C107.541 89.1637 107.922 89.259 108.347 89.259ZM111.35 90H110.44V88.362L110.622 86.854L110.44 85.385V80.796H111.35V90ZM119.147 90.13C118.679 90.13 118.259 90.0347 117.886 89.844C117.514 89.6533 117.206 89.3933 116.963 89.064C116.729 88.726 116.586 88.336 116.534 87.894V85.983C116.586 85.5323 116.734 85.1423 116.976 84.813C117.219 84.475 117.527 84.215 117.899 84.033C118.281 83.851 118.697 83.76 119.147 83.76C119.711 83.76 120.218 83.903 120.668 84.189C121.119 84.4663 121.474 84.8477 121.734 85.333C122.003 85.8097 122.137 86.3513 122.137 86.958C122.137 87.556 122.007 88.0933 121.747 88.57C121.487 89.0467 121.128 89.428 120.668 89.714C120.218 89.9913 119.711 90.13 119.147 90.13ZM118.991 89.259C119.425 89.259 119.806 89.1637 120.135 88.973C120.465 88.7737 120.72 88.5007 120.902 88.154C121.093 87.7987 121.188 87.3957 121.188 86.945C121.188 86.4857 121.093 86.0827 120.902 85.736C120.72 85.3893 120.465 85.1163 120.135 84.917C119.806 84.7177 119.429 84.618 119.004 84.618C118.58 84.618 118.203 84.7177 117.873 84.917C117.553 85.1163 117.301 85.3893 117.119 85.736C116.937 86.0827 116.846 86.4857 116.846 86.945C116.846 87.3957 116.937 87.7987 117.119 88.154C117.301 88.5007 117.553 88.7737 117.873 88.973C118.194 89.1637 118.567 89.259 118.991 89.259ZM115.988 92.574V83.89H116.898V85.45L116.716 86.932L116.898 88.427V92.574H115.988ZM128.039 90V86.412C128.039 85.8747 127.879 85.4413 127.558 85.112C127.246 84.774 126.83 84.605 126.31 84.605C125.955 84.605 125.643 84.683 125.374 84.839C125.105 84.995 124.893 85.2073 124.737 85.476C124.581 85.7447 124.503 86.0523 124.503 86.399L124.087 86.165C124.087 85.7057 124.195 85.294 124.412 84.93C124.629 84.566 124.919 84.28 125.283 84.072C125.656 83.864 126.08 83.76 126.557 83.76C127.025 83.76 127.441 83.8683 127.805 84.085C128.169 84.293 128.451 84.5833 128.65 84.956C128.858 85.3287 128.962 85.762 128.962 86.256V90H128.039ZM123.593 90V80.796H124.503V90H123.593ZM133.316 90.13C132.736 90.13 132.216 89.9913 131.756 89.714C131.297 89.428 130.933 89.0467 130.664 88.57C130.404 88.0933 130.274 87.556 130.274 86.958C130.274 86.3513 130.404 85.8097 130.664 85.333C130.933 84.8477 131.297 84.4663 131.756 84.189C132.216 83.903 132.731 83.76 133.303 83.76C133.771 83.76 134.187 83.8553 134.551 84.046C134.924 84.228 135.223 84.488 135.448 84.826C135.682 85.1553 135.825 85.541 135.877 85.983V87.894C135.825 88.336 135.682 88.726 135.448 89.064C135.223 89.402 134.924 89.6663 134.551 89.857C134.187 90.039 133.776 90.13 133.316 90.13ZM133.459 89.259C134.092 89.259 134.599 89.0467 134.98 88.622C135.37 88.1973 135.565 87.6383 135.565 86.945C135.565 86.4857 135.474 86.0827 135.292 85.736C135.119 85.3807 134.872 85.1077 134.551 84.917C134.239 84.7177 133.871 84.618 133.446 84.618C133.013 84.618 132.627 84.7177 132.289 84.917C131.96 85.1163 131.696 85.3937 131.496 85.749C131.306 86.0957 131.21 86.4943 131.21 86.945C131.21 87.3957 131.306 87.7943 131.496 88.141C131.696 88.4877 131.964 88.7607 132.302 88.96C132.64 89.1593 133.026 89.259 133.459 89.259ZM135.513 90V88.362L135.695 86.854L135.513 85.385V83.89H136.423V90H135.513ZM138.269 90V83.89H139.179V90H138.269ZM139.179 86.438L138.802 86.269C138.802 85.4977 138.988 84.8867 139.361 84.436C139.742 83.9853 140.262 83.76 140.921 83.76C141.224 83.76 141.501 83.8163 141.753 83.929C142.004 84.033 142.238 84.202 142.455 84.436L141.857 85.073C141.709 84.9083 141.545 84.7913 141.363 84.722C141.189 84.6527 140.99 84.618 140.765 84.618C140.297 84.618 139.915 84.774 139.621 85.086C139.326 85.3893 139.179 85.84 139.179 86.438ZM146.028 90.13C145.413 90.13 144.863 89.9913 144.377 89.714C143.892 89.4367 143.506 89.0553 143.22 88.57C142.943 88.0847 142.804 87.5387 142.804 86.932C142.804 86.334 142.943 85.7967 143.22 85.32C143.498 84.8347 143.875 84.4533 144.351 84.176C144.828 83.8987 145.361 83.76 145.95 83.76C146.505 83.76 146.995 83.8857 147.419 84.137C147.853 84.3883 148.191 84.7393 148.433 85.19C148.685 85.632 148.81 86.1433 148.81 86.724C148.81 86.7933 148.806 86.8757 148.797 86.971C148.789 87.0577 148.771 87.1617 148.745 87.283H143.454V86.503H148.251L147.926 86.789C147.935 86.3383 147.857 85.9527 147.692 85.632C147.536 85.3027 147.307 85.0513 147.003 84.878C146.709 84.696 146.349 84.605 145.924 84.605C145.482 84.605 145.097 84.7003 144.767 84.891C144.438 85.0817 144.178 85.3503 143.987 85.697C143.805 86.035 143.714 86.438 143.714 86.906C143.714 87.374 143.81 87.7857 144 88.141C144.2 88.4963 144.473 88.7737 144.819 88.973C145.175 89.1723 145.582 89.272 146.041 89.272C146.414 89.272 146.756 89.207 147.068 89.077C147.38 88.9383 147.645 88.7347 147.861 88.466L148.446 89.064C148.16 89.402 147.805 89.6663 147.38 89.857C146.964 90.039 146.514 90.13 146.028 90.13ZM150.923 90V81.316H151.833V90H150.923ZM149.376 84.709V83.89H153.367V84.709H149.376ZM154.62 90V83.89H155.53V90H154.62ZM155.53 86.438L155.153 86.269C155.153 85.4977 155.34 84.8867 155.712 84.436C156.094 83.9853 156.614 83.76 157.272 83.76C157.576 83.76 157.853 83.8163 158.104 83.929C158.356 84.033 158.59 84.202 158.806 84.436L158.208 85.073C158.061 84.9083 157.896 84.7913 157.714 84.722C157.541 84.6527 157.342 84.618 157.116 84.618C156.648 84.618 156.267 84.774 155.972 85.086C155.678 85.3893 155.53 85.84 155.53 86.438ZM162.211 90.13C161.63 90.13 161.11 89.9913 160.651 89.714C160.191 89.428 159.827 89.0467 159.559 88.57C159.299 88.0933 159.169 87.556 159.169 86.958C159.169 86.3513 159.299 85.8097 159.559 85.333C159.827 84.8477 160.191 84.4663 160.651 84.189C161.11 83.903 161.626 83.76 162.198 83.76C162.666 83.76 163.082 83.8553 163.446 84.046C163.818 84.228 164.117 84.488 164.343 84.826C164.577 85.1553 164.72 85.541 164.772 85.983V87.894C164.72 88.336 164.577 88.726 164.343 89.064C164.117 89.402 163.818 89.6663 163.446 89.857C163.082 90.039 162.67 90.13 162.211 90.13ZM162.354 89.259C162.986 89.259 163.493 89.0467 163.875 88.622C164.265 88.1973 164.46 87.6383 164.46 86.945C164.46 86.4857 164.369 86.0827 164.187 85.736C164.013 85.3807 163.766 85.1077 163.446 84.917C163.134 84.7177 162.765 84.618 162.341 84.618C161.907 84.618 161.522 84.7177 161.184 84.917C160.854 85.1163 160.59 85.3937 160.391 85.749C160.2 86.0957 160.105 86.4943 160.105 86.945C160.105 87.3957 160.2 87.7943 160.391 88.141C160.59 88.4877 160.859 88.7607 161.197 88.96C161.535 89.1593 161.92 89.259 162.354 89.259ZM164.408 90V88.362L164.59 86.854L164.408 85.385V83.89H165.318V90H164.408ZM171.828 90.13C171.499 90.13 171.183 90.0867 170.879 90C170.576 89.9047 170.299 89.7747 170.047 89.61C169.805 89.4453 169.592 89.2503 169.41 89.025L169.995 88.427C170.238 88.7217 170.511 88.9427 170.814 89.09C171.126 89.2287 171.473 89.298 171.854 89.298C172.262 89.298 172.578 89.22 172.803 89.064C173.037 88.908 173.154 88.6913 173.154 88.414C173.154 88.154 173.072 87.9503 172.907 87.803C172.743 87.6557 172.53 87.5387 172.27 87.452C172.019 87.3653 171.75 87.283 171.464 87.205C171.178 87.1183 170.905 87.0143 170.645 86.893C170.385 86.763 170.173 86.5853 170.008 86.36C169.852 86.1347 169.774 85.84 169.774 85.476C169.774 85.1293 169.857 84.8303 170.021 84.579C170.195 84.319 170.437 84.1197 170.749 83.981C171.07 83.8337 171.447 83.76 171.88 83.76C172.34 83.76 172.756 83.8423 173.128 84.007C173.501 84.1717 173.8 84.4143 174.025 84.735L173.44 85.32C173.258 85.086 173.029 84.9083 172.751 84.787C172.483 84.657 172.179 84.592 171.841 84.592C171.451 84.592 171.152 84.67 170.944 84.826C170.745 84.9733 170.645 85.1683 170.645 85.411C170.645 85.645 170.728 85.8313 170.892 85.97C171.057 86.1 171.265 86.2083 171.516 86.295C171.776 86.373 172.049 86.4553 172.335 86.542C172.621 86.62 172.894 86.7283 173.154 86.867C173.414 86.997 173.622 87.179 173.778 87.413C173.943 87.6383 174.025 87.946 174.025 88.336C174.025 88.882 173.826 89.3197 173.427 89.649C173.037 89.9697 172.504 90.13 171.828 90.13ZM175.466 90V83.89H176.389V90H175.466ZM175.921 82.564C175.748 82.564 175.6 82.5033 175.479 82.382C175.358 82.252 175.297 82.1003 175.297 81.927C175.297 81.745 175.358 81.5933 175.479 81.472C175.6 81.3507 175.748 81.29 175.921 81.29C176.112 81.29 176.263 81.3507 176.376 81.472C176.497 81.5933 176.558 81.745 176.558 81.927C176.558 82.1003 176.497 82.252 176.376 82.382C176.263 82.5033 176.112 82.564 175.921 82.564ZM179.183 90V81.316H180.093V90H179.183ZM177.636 84.709V83.89H181.627V84.709H177.636ZM187.805 90L184.984 83.89H185.998L188.377 89.233H187.805L190.197 83.89H191.185L188.338 90H187.805ZM194.88 90.13C194.264 90.13 193.714 89.9913 193.229 89.714C192.743 89.4367 192.358 89.0553 192.072 88.57C191.794 88.0847 191.656 87.5387 191.656 86.932C191.656 86.334 191.794 85.7967 192.072 85.32C192.349 84.8347 192.726 84.4533 193.203 84.176C193.679 83.8987 194.212 83.76 194.802 83.76C195.356 83.76 195.846 83.8857 196.271 84.137C196.704 84.3883 197.042 84.7393 197.285 85.19C197.536 85.632 197.662 86.1433 197.662 86.724C197.662 86.7933 197.657 86.8757 197.649 86.971C197.64 87.0577 197.623 87.1617 197.597 87.283H192.306V86.503H197.103L196.778 86.789C196.786 86.3383 196.708 85.9527 196.544 85.632C196.388 85.3027 196.158 85.0513 195.855 84.878C195.56 84.696 195.2 84.605 194.776 84.605C194.334 84.605 193.948 84.7003 193.619 84.891C193.289 85.0817 193.029 85.3503 192.839 85.697C192.657 86.035 192.566 86.438 192.566 86.906C192.566 87.374 192.661 87.7857 192.852 88.141C193.051 88.4963 193.324 88.7737 193.671 88.973C194.026 89.1723 194.433 89.272 194.893 89.272C195.265 89.272 195.608 89.207 195.92 89.077C196.232 88.9383 196.496 88.7347 196.713 88.466L197.298 89.064C197.012 89.402 196.656 89.6663 196.232 89.857C195.816 90.039 195.365 90.13 194.88 90.13ZM200.926 90.13C200.597 90.13 200.28 90.0867 199.977 90C199.674 89.9047 199.396 89.7747 199.145 89.61C198.902 89.4453 198.69 89.2503 198.508 89.025L199.093 88.427C199.336 88.7217 199.609 88.9427 199.912 89.09C200.224 89.2287 200.571 89.298 200.952 89.298C201.359 89.298 201.676 89.22 201.901 89.064C202.135 88.908 202.252 88.6913 202.252 88.414C202.252 88.154 202.17 87.9503 202.005 87.803C201.84 87.6557 201.628 87.5387 201.368 87.452C201.117 87.3653 200.848 87.283 200.562 87.205C200.276 87.1183 200.003 87.0143 199.743 86.893C199.483 86.763 199.271 86.5853 199.106 86.36C198.95 86.1347 198.872 85.84 198.872 85.476C198.872 85.1293 198.954 84.8303 199.119 84.579C199.292 84.319 199.535 84.1197 199.847 83.981C200.168 83.8337 200.545 83.76 200.978 83.76C201.437 83.76 201.853 83.8423 202.226 84.007C202.599 84.1717 202.898 84.4143 203.123 84.735L202.538 85.32C202.356 85.086 202.126 84.9083 201.849 84.787C201.58 84.657 201.277 84.592 200.939 84.592C200.549 84.592 200.25 84.67 200.042 84.826C199.843 84.9733 199.743 85.1683 199.743 85.411C199.743 85.645 199.825 85.8313 199.99 85.97C200.155 86.1 200.363 86.2083 200.614 86.295C200.874 86.373 201.147 86.4553 201.433 86.542C201.719 86.62 201.992 86.7283 202.252 86.867C202.512 86.997 202.72 87.179 202.876 87.413C203.041 87.6383 203.123 87.946 203.123 88.336C203.123 88.882 202.924 89.3197 202.525 89.649C202.135 89.9697 201.602 90.13 200.926 90.13ZM205.513 90V81.316H206.423V90H205.513ZM203.966 84.709V83.89H207.957V84.709H203.966ZM209.21 90V83.89H210.133V90H209.21ZM209.665 82.564C209.492 82.564 209.344 82.5033 209.223 82.382C209.102 82.252 209.041 82.1003 209.041 81.927C209.041 81.745 209.102 81.5933 209.223 81.472C209.344 81.3507 209.492 81.29 209.665 81.29C209.856 81.29 210.007 81.3507 210.12 81.472C210.241 81.5933 210.302 81.745 210.302 81.927C210.302 82.1003 210.241 82.252 210.12 82.382C210.007 82.5033 209.856 82.564 209.665 82.564ZM215.137 90.13C214.669 90.13 214.248 90.0347 213.876 89.844C213.503 89.6533 213.195 89.3933 212.953 89.064C212.719 88.726 212.576 88.336 212.524 87.894V85.983C212.576 85.5323 212.723 85.1423 212.966 84.813C213.208 84.475 213.516 84.215 213.889 84.033C214.27 83.851 214.686 83.76 215.137 83.76C215.7 83.76 216.207 83.903 216.658 84.189C217.108 84.4663 217.464 84.8477 217.724 85.333C217.992 85.8097 218.127 86.3513 218.127 86.958C218.127 87.556 217.997 88.0933 217.737 88.57C217.477 89.0467 217.117 89.428 216.658 89.714C216.207 89.9913 215.7 90.13 215.137 90.13ZM214.981 89.259C215.414 89.259 215.795 89.1637 216.125 88.973C216.454 88.7737 216.71 88.5007 216.892 88.154C217.082 87.7987 217.178 87.3957 217.178 86.945C217.178 86.4857 217.082 86.0827 216.892 85.736C216.71 85.3893 216.454 85.1163 216.125 84.917C215.795 84.7177 215.418 84.618 214.994 84.618C214.569 84.618 214.192 84.7177 213.863 84.917C213.542 85.1163 213.291 85.3893 213.109 85.736C212.927 86.0827 212.836 86.4857 212.836 86.945C212.836 87.3957 212.927 87.7987 213.109 88.154C213.291 88.5007 213.542 88.7737 213.863 88.973C214.183 89.1637 214.556 89.259 214.981 89.259ZM211.978 90V80.796H212.888V85.385L212.706 86.854L212.888 88.362V90H211.978ZM222 90.13C221.506 90.13 221.064 90.0173 220.674 89.792C220.284 89.558 219.977 89.2417 219.751 88.843C219.535 88.4443 219.426 87.9763 219.426 87.439V83.89H220.349V87.4C220.349 87.7727 220.414 88.0977 220.544 88.375C220.683 88.6523 220.878 88.869 221.129 89.025C221.381 89.181 221.671 89.259 222 89.259C222.512 89.259 222.915 89.09 223.209 88.752C223.513 88.414 223.664 87.9633 223.664 87.4V83.89H224.574V87.439C224.574 87.9677 224.466 88.4357 224.249 88.843C224.033 89.2503 223.729 89.5667 223.339 89.792C222.949 90.0173 222.503 90.13 222 90.13ZM226.273 90V80.796H227.183V90H226.273ZM231.445 90.13C230.951 90.13 230.509 90.0173 230.119 89.792C229.729 89.558 229.422 89.2417 229.196 88.843C228.98 88.4443 228.871 87.9763 228.871 87.439V83.89H229.794V87.4C229.794 87.7727 229.859 88.0977 229.989 88.375C230.128 88.6523 230.323 88.869 230.574 89.025C230.826 89.181 231.116 89.259 231.445 89.259C231.957 89.259 232.36 89.09 232.654 88.752C232.958 88.414 233.109 87.9633 233.109 87.4V83.89H234.019V87.439C234.019 87.9677 233.911 88.4357 233.694 88.843C233.478 89.2503 233.174 89.5667 232.784 89.792C232.394 90.0173 231.948 90.13 231.445 90.13ZM235.718 90V83.89H236.628V90H235.718ZM239.917 90V86.256C239.917 85.7533 239.765 85.3547 239.462 85.06C239.159 84.7567 238.777 84.605 238.318 84.605C238.006 84.605 237.72 84.6743 237.46 84.813C237.209 84.943 237.005 85.1293 236.849 85.372C236.702 85.6147 236.628 85.905 236.628 86.243L236.212 86.074C236.212 85.606 236.316 85.1987 236.524 84.852C236.732 84.5053 237.009 84.2367 237.356 84.046C237.711 83.8553 238.11 83.76 238.552 83.76C238.985 83.76 239.371 83.8553 239.709 84.046C240.056 84.2367 240.329 84.5053 240.528 84.852C240.736 85.1987 240.84 85.6103 240.84 86.087V90H239.917ZM244.129 90V86.256C244.129 85.7533 243.977 85.3547 243.674 85.06C243.371 84.7567 242.985 84.605 242.517 84.605C242.214 84.605 241.932 84.6743 241.672 84.813C241.421 84.943 241.217 85.1293 241.061 85.372C240.914 85.6147 240.84 85.905 240.84 86.243L240.294 86.074C240.32 85.606 240.441 85.1987 240.658 84.852C240.883 84.5053 241.174 84.2367 241.529 84.046C241.893 83.8553 242.292 83.76 242.725 83.76C243.158 83.76 243.548 83.8553 243.895 84.046C244.25 84.2367 244.528 84.5053 244.727 84.852C244.935 85.1987 245.039 85.6103 245.039 86.087V90H244.129ZM247.712 90.13C247.495 90.13 247.318 90.0563 247.179 89.909C247.04 89.7617 246.971 89.584 246.971 89.376C246.971 89.168 247.04 88.9947 247.179 88.856C247.318 88.7087 247.495 88.635 247.712 88.635C247.92 88.635 248.093 88.7087 248.232 88.856C248.371 88.9947 248.44 89.168 248.44 89.376C248.44 89.584 248.371 89.7617 248.232 89.909C248.093 90.0563 247.92 90.13 247.712 90.13Z" fill="#315D80"/>
<path d="M41.672 45.264C40.408 45.264 39.232 45.048 38.144 44.616C37.072 44.168 36.128 43.544 35.312 42.744C34.512 41.944 33.888 41.016 33.44 39.96C32.992 38.888 32.768 37.736 32.768 36.504C32.768 35.272 32.992 34.128 33.44 33.072C33.888 32 34.512 31.072 35.312 30.288C36.112 29.504 37.048 28.896 38.12 28.464C39.208 28.016 40.384 27.792 41.648 27.792C42.992 27.792 44.184 28.008 45.224 28.44C46.28 28.872 47.2 29.464 47.984 30.216L45.464 32.76C45.016 32.28 44.472 31.904 43.832 31.632C43.208 31.36 42.48 31.224 41.648 31.224C40.912 31.224 40.232 31.352 39.608 31.608C39 31.848 38.472 32.2 38.024 32.664C37.592 33.128 37.248 33.688 36.992 34.344C36.752 35 36.632 35.72 36.632 36.504C36.632 37.304 36.752 38.032 36.992 38.688C37.248 39.344 37.592 39.904 38.024 40.368C38.472 40.832 39 41.192 39.608 41.448C40.232 41.704 40.912 41.832 41.648 41.832C42.512 41.832 43.264 41.696 43.904 41.424C44.544 41.152 45.096 40.776 45.56 40.296L48.104 42.84C47.288 43.592 46.352 44.184 45.296 44.616C44.256 45.048 43.048 45.264 41.672 45.264ZM49.8429 45V27.576H53.5149V45H49.8429ZM61.8607 45.264C60.5967 45.264 59.4687 45.008 58.4767 44.496C57.5007 43.968 56.7327 43.24 56.1727 42.312C55.6127 41.384 55.3327 40.336 55.3327 39.168C55.3327 38 55.6047 36.96 56.1487 36.048C56.7087 35.12 57.4607 34.392 58.4047 33.864C59.3487 33.336 60.4127 33.072 61.5967 33.072C62.7487 33.072 63.7647 33.32 64.6447 33.816C65.5247 34.312 66.2127 35 66.7087 35.88C67.2207 36.76 67.4767 37.768 67.4767 38.904C67.4767 39.112 67.4607 39.336 67.4287 39.576C67.4127 39.8 67.3727 40.064 67.3087 40.368L57.2527 40.392V37.872L65.7487 37.848L64.1647 38.904C64.1487 38.232 64.0447 37.68 63.8527 37.248C63.6607 36.8 63.3727 36.464 62.9887 36.24C62.6207 36 62.1647 35.88 61.6207 35.88C61.0447 35.88 60.5407 36.016 60.1087 36.288C59.6927 36.544 59.3647 36.912 59.1247 37.392C58.9007 37.872 58.7887 38.456 58.7887 39.144C58.7887 39.832 58.9087 40.424 59.1487 40.92C59.4047 41.4 59.7567 41.776 60.2047 42.048C60.6687 42.304 61.2127 42.432 61.8367 42.432C62.4127 42.432 62.9327 42.336 63.3967 42.144C63.8607 41.936 64.2687 41.632 64.6207 41.232L66.6367 43.248C66.0607 43.92 65.3647 44.424 64.5487 44.76C63.7327 45.096 62.8367 45.264 61.8607 45.264ZM74.1211 45.24C73.0491 45.24 72.0891 44.976 71.2411 44.448C70.4091 43.92 69.7451 43.2 69.2491 42.288C68.7691 41.376 68.5291 40.336 68.5291 39.168C68.5291 38 68.7691 36.96 69.2491 36.048C69.7451 35.136 70.4091 34.416 71.2411 33.888C72.0891 33.36 73.0491 33.096 74.1211 33.096C74.9051 33.096 75.6091 33.248 76.2331 33.552C76.8731 33.856 77.3931 34.28 77.7931 34.824C78.1931 35.352 78.4171 35.96 78.4651 36.648V41.688C78.4171 42.376 78.1931 42.992 77.7931 43.536C77.4091 44.064 76.8971 44.48 76.2571 44.784C75.6171 45.088 74.9051 45.24 74.1211 45.24ZM74.8651 41.928C75.6491 41.928 76.2811 41.672 76.7611 41.16C77.2411 40.632 77.4811 39.968 77.4811 39.168C77.4811 38.624 77.3691 38.144 77.1451 37.728C76.9371 37.312 76.6331 36.992 76.2331 36.768C75.8491 36.528 75.4011 36.408 74.8891 36.408C74.3771 36.408 73.9211 36.528 73.5211 36.768C73.1371 36.992 72.8251 37.312 72.5851 37.728C72.3611 38.144 72.2491 38.624 72.2491 39.168C72.2491 39.696 72.3611 40.168 72.5851 40.584C72.8091 41 73.1211 41.328 73.5211 41.568C73.9211 41.808 74.3691 41.928 74.8651 41.928ZM77.3371 45V41.856L77.8891 39.024L77.3371 36.192V33.336H80.9371V45H77.3371ZM91.2266 45V38.352C91.2266 37.744 91.0346 37.256 90.6506 36.888C90.2826 36.504 89.8106 36.312 89.2346 36.312C88.8346 36.312 88.4826 36.4 88.1786 36.576C87.8746 36.736 87.6346 36.976 87.4586 37.296C87.2826 37.6 87.1946 37.952 87.1946 38.352L85.7786 37.656C85.7786 36.744 85.9786 35.944 86.3786 35.256C86.7786 34.568 87.3306 34.04 88.0346 33.672C88.7546 33.288 89.5626 33.096 90.4586 33.096C91.3226 33.096 92.0826 33.304 92.7386 33.72C93.4106 34.12 93.9386 34.656 94.3226 35.328C94.7066 36 94.8986 36.736 94.8986 37.536V45H91.2266ZM83.5226 45V33.336H87.1946V45H83.5226ZM97.2569 45V33.336H100.929V45H97.2569ZM99.1049 31.728C98.5289 31.728 98.0489 31.536 97.6649 31.152C97.2969 30.752 97.1129 30.272 97.1129 29.712C97.1129 29.136 97.2969 28.656 97.6649 28.272C98.0489 27.888 98.5289 27.696 99.1049 27.696C99.6809 27.696 100.153 27.888 100.521 28.272C100.889 28.656 101.073 29.136 101.073 29.712C101.073 30.272 100.889 30.752 100.521 31.152C100.153 31.536 99.6809 31.728 99.1049 31.728ZM111.219 45V38.352C111.219 37.744 111.027 37.256 110.643 36.888C110.275 36.504 109.803 36.312 109.227 36.312C108.827 36.312 108.475 36.4 108.171 36.576C107.867 36.736 107.627 36.976 107.451 37.296C107.275 37.6 107.187 37.952 107.187 38.352L105.771 37.656C105.771 36.744 105.971 35.944 106.371 35.256C106.771 34.568 107.323 34.04 108.027 33.672C108.747 33.288 109.555 33.096 110.451 33.096C111.315 33.096 112.075 33.304 112.731 33.72C113.403 34.12 113.931 34.656 114.315 35.328C114.699 36 114.891 36.736 114.891 37.536V45H111.219ZM103.515 45V33.336H107.187V45H103.515ZM122.193 50.232C120.913 50.232 119.785 50.008 118.809 49.56C117.849 49.128 117.089 48.512 116.529 47.712L118.785 45.456C119.201 45.952 119.665 46.328 120.177 46.584C120.705 46.84 121.337 46.968 122.073 46.968C122.985 46.968 123.697 46.744 124.209 46.296C124.737 45.848 125.001 45.216 125.001 44.4V41.424L125.625 38.88L125.073 36.336V33.336H128.673V44.304C128.673 45.504 128.393 46.544 127.833 47.424C127.273 48.304 126.505 48.992 125.529 49.488C124.553 49.984 123.441 50.232 122.193 50.232ZM122.025 44.64C120.953 44.64 120.001 44.384 119.169 43.872C118.337 43.36 117.681 42.664 117.201 41.784C116.721 40.904 116.481 39.928 116.481 38.856C116.481 37.768 116.721 36.792 117.201 35.928C117.681 35.048 118.337 34.36 119.169 33.864C120.001 33.352 120.953 33.096 122.025 33.096C122.825 33.096 123.537 33.248 124.161 33.552C124.801 33.84 125.313 34.256 125.697 34.8C126.097 35.328 126.321 35.944 126.369 36.648V41.088C126.321 41.776 126.097 42.392 125.697 42.936C125.313 43.464 124.801 43.88 124.161 44.184C123.521 44.488 122.809 44.64 122.025 44.64ZM122.721 41.376C123.233 41.376 123.673 41.264 124.041 41.04C124.425 40.816 124.713 40.52 124.905 40.152C125.113 39.768 125.217 39.336 125.217 38.856C125.217 38.376 125.113 37.944 124.905 37.56C124.713 37.176 124.425 36.872 124.041 36.648C123.673 36.424 123.233 36.312 122.721 36.312C122.225 36.312 121.785 36.424 121.401 36.648C121.017 36.872 120.721 37.176 120.513 37.56C120.305 37.944 120.201 38.376 120.201 38.856C120.201 39.304 120.305 39.728 120.513 40.128C120.721 40.512 121.009 40.816 121.377 41.04C121.761 41.264 122.209 41.376 122.721 41.376ZM135.835 40.488V37.272H144.331V40.488H135.835ZM154.707 38.016V35.232H158.283C159.035 35.232 159.611 35.04 160.011 34.656C160.427 34.272 160.635 33.752 160.635 33.096C160.635 32.488 160.435 31.984 160.035 31.584C159.635 31.184 159.059 30.984 158.307 30.984H154.707V28.056H158.739C159.859 28.056 160.843 28.272 161.691 28.704C162.539 29.12 163.203 29.704 163.683 30.456C164.163 31.208 164.403 32.072 164.403 33.048C164.403 34.04 164.163 34.912 163.683 35.664C163.203 36.4 162.531 36.976 161.667 37.392C160.803 37.808 159.787 38.016 158.619 38.016H154.707ZM151.827 45V28.056H155.595V45H151.827ZM161.043 45L155.763 37.704L159.219 36.768L165.507 45H161.043ZM172.275 45.264C171.011 45.264 169.883 45.008 168.891 44.496C167.915 43.968 167.147 43.24 166.587 42.312C166.027 41.384 165.747 40.336 165.747 39.168C165.747 38 166.019 36.96 166.563 36.048C167.123 35.12 167.875 34.392 168.819 33.864C169.763 33.336 170.827 33.072 172.011 33.072C173.163 33.072 174.179 33.32 175.059 33.816C175.939 34.312 176.627 35 177.123 35.88C177.635 36.76 177.891 37.768 177.891 38.904C177.891 39.112 177.875 39.336 177.843 39.576C177.827 39.8 177.787 40.064 177.723 40.368L167.667 40.392V37.872L176.163 37.848L174.579 38.904C174.563 38.232 174.459 37.68 174.267 37.248C174.075 36.8 173.787 36.464 173.403 36.24C173.035 36 172.579 35.88 172.035 35.88C171.459 35.88 170.955 36.016 170.523 36.288C170.107 36.544 169.779 36.912 169.539 37.392C169.315 37.872 169.203 38.456 169.203 39.144C169.203 39.832 169.323 40.424 169.563 40.92C169.819 41.4 170.171 41.776 170.619 42.048C171.083 42.304 171.627 42.432 172.251 42.432C172.827 42.432 173.347 42.336 173.811 42.144C174.275 41.936 174.683 41.632 175.035 41.232L177.051 43.248C176.475 43.92 175.779 44.424 174.963 44.76C174.147 45.096 173.251 45.264 172.275 45.264ZM185.303 45.264C184.103 45.264 183.015 45 182.039 44.472C181.063 43.944 180.295 43.216 179.735 42.288C179.175 41.36 178.895 40.32 178.895 39.168C178.895 38 179.175 36.96 179.735 36.048C180.311 35.12 181.087 34.392 182.063 33.864C183.039 33.336 184.135 33.072 185.351 33.072C186.263 33.072 187.095 33.232 187.847 33.552C188.615 33.856 189.295 34.32 189.887 34.944L187.535 37.296C187.263 36.992 186.943 36.768 186.575 36.624C186.223 36.48 185.815 36.408 185.351 36.408C184.823 36.408 184.351 36.528 183.935 36.768C183.535 36.992 183.215 37.312 182.975 37.728C182.751 38.128 182.639 38.6 182.639 39.144C182.639 39.688 182.751 40.168 182.975 40.584C183.215 41 183.543 41.328 183.959 41.568C184.375 41.808 184.839 41.928 185.351 41.928C185.831 41.928 186.255 41.848 186.623 41.688C187.007 41.512 187.335 41.272 187.607 40.968L189.935 43.32C189.327 43.96 188.639 44.448 187.871 44.784C187.103 45.104 186.247 45.264 185.303 45.264ZM196.753 45.264C195.681 45.264 194.729 45.048 193.897 44.616C193.081 44.168 192.441 43.56 191.977 42.792C191.513 42.008 191.281 41.112 191.281 40.104V33.336H194.953V40.056C194.953 40.456 195.017 40.8 195.145 41.088C195.289 41.376 195.497 41.6 195.769 41.76C196.041 41.92 196.369 42 196.753 42C197.297 42 197.729 41.832 198.049 41.496C198.369 41.144 198.529 40.664 198.529 40.056V33.336H202.201V40.08C202.201 41.104 201.969 42.008 201.505 42.792C201.041 43.56 200.401 44.168 199.585 44.616C198.769 45.048 197.825 45.264 196.753 45.264ZM204.507 45V33.336H208.179V45H204.507ZM208.179 38.592L206.643 37.392C206.947 36.032 207.459 34.976 208.179 34.224C208.899 33.472 209.899 33.096 211.179 33.096C211.739 33.096 212.227 33.184 212.643 33.36C213.075 33.52 213.451 33.776 213.771 34.128L211.587 36.888C211.427 36.712 211.227 36.576 210.987 36.48C210.747 36.384 210.475 36.336 210.171 36.336C209.563 36.336 209.075 36.528 208.707 36.912C208.355 37.28 208.179 37.84 208.179 38.592ZM214.679 45V33.336H218.351V45H214.679ZM218.351 38.592L216.815 37.392C217.119 36.032 217.631 34.976 218.351 34.224C219.071 33.472 220.071 33.096 221.351 33.096C221.911 33.096 222.399 33.184 222.815 33.36C223.247 33.52 223.623 33.776 223.943 34.128L221.759 36.888C221.599 36.712 221.399 36.576 221.159 36.48C220.919 36.384 220.647 36.336 220.343 36.336C219.735 36.336 219.247 36.528 218.879 36.912C218.527 37.28 218.351 37.84 218.351 38.592ZM224.921 45V33.336H228.593V45H224.921ZM226.769 31.728C226.193 31.728 225.713 31.536 225.329 31.152C224.961 30.752 224.777 30.272 224.777 29.712C224.777 29.136 224.961 28.656 225.329 28.272C225.713 27.888 226.193 27.696 226.769 27.696C227.345 27.696 227.817 27.888 228.185 28.272C228.553 28.656 228.737 29.136 228.737 29.712C228.737 30.272 228.553 30.752 228.185 31.152C227.817 31.536 227.345 31.728 226.769 31.728ZM238.883 45V38.352C238.883 37.744 238.691 37.256 238.307 36.888C237.939 36.504 237.467 36.312 236.891 36.312C236.491 36.312 236.139 36.4 235.835 36.576C235.531 36.736 235.291 36.976 235.115 37.296C234.939 37.6 234.851 37.952 234.851 38.352L233.435 37.656C233.435 36.744 233.635 35.944 234.035 35.256C234.435 34.568 234.987 34.04 235.691 33.672C236.411 33.288 237.219 33.096 238.115 33.096C238.979 33.096 239.739 33.304 240.395 33.72C241.067 34.12 241.595 34.656 241.979 35.328C242.363 36 242.555 36.736 242.555 37.536V45H238.883ZM231.179 45V33.336H234.851V45H231.179ZM249.857 50.232C248.577 50.232 247.449 50.008 246.473 49.56C245.513 49.128 244.753 48.512 244.193 47.712L246.449 45.456C246.865 45.952 247.329 46.328 247.841 46.584C248.369 46.84 249.001 46.968 249.737 46.968C250.649 46.968 251.361 46.744 251.873 46.296C252.401 45.848 252.665 45.216 252.665 44.4V41.424L253.289 38.88L252.737 36.336V33.336H256.337V44.304C256.337 45.504 256.057 46.544 255.497 47.424C254.937 48.304 254.169 48.992 253.193 49.488C252.217 49.984 251.105 50.232 249.857 50.232ZM249.689 44.64C248.617 44.64 247.665 44.384 246.833 43.872C246.001 43.36 245.345 42.664 244.865 41.784C244.385 40.904 244.145 39.928 244.145 38.856C244.145 37.768 244.385 36.792 244.865 35.928C245.345 35.048 246.001 34.36 246.833 33.864C247.665 33.352 248.617 33.096 249.689 33.096C250.489 33.096 251.201 33.248 251.825 33.552C252.465 33.84 252.977 34.256 253.361 34.8C253.761 35.328 253.985 35.944 254.033 36.648V41.088C253.985 41.776 253.761 42.392 253.361 42.936C252.977 43.464 252.465 43.88 251.825 44.184C251.185 44.488 250.473 44.64 249.689 44.64ZM250.385 41.376C250.897 41.376 251.337 41.264 251.705 41.04C252.089 40.816 252.377 40.52 252.569 40.152C252.777 39.768 252.881 39.336 252.881 38.856C252.881 38.376 252.777 37.944 252.569 37.56C252.377 37.176 252.089 36.872 251.705 36.648C251.337 36.424 250.897 36.312 250.385 36.312C249.889 36.312 249.449 36.424 249.065 36.648C248.681 36.872 248.385 37.176 248.177 37.56C247.969 37.944 247.865 38.376 247.865 38.856C247.865 39.304 247.969 39.728 248.177 40.128C248.385 40.512 248.673 40.816 249.041 41.04C249.425 41.264 249.873 41.376 250.385 41.376Z" fill="#9BB997"/>
<path d="M34.6667 129.3H36V130.7H34.6667V129.3ZM44 125.8V135.6C44 136.37 43.4 137 42.6667 137H33.3333C32.9797 137 32.6406 136.852 32.3905 136.59C32.1405 136.327 32 135.971 32 135.6L32.0067 125.8C32.0067 125.03 32.5933 124.4 33.3333 124.4H34V123H35.3333V124.4H40.6667V123H42V124.4H42.6667C43.4 124.4 44 125.03 44 125.8ZM33.3333 127.2H42.6667V125.8H33.3333V127.2ZM42.6667 135.6V128.6H33.3333V135.6H42.6667ZM40 130.7H41.3333V129.3H40V130.7ZM37.3333 130.7H38.6667V129.3H37.3333V130.7Z" fill="#92A3B4"/>
<g filter="url(#filter1_d_1390_10862)">
<path d="M51.82 134V127.06H52.76V134H51.82ZM52.46 130.95V130.09H56.08V130.95H52.46ZM52.46 127.92V127.06H56.25V127.92H52.46ZM57.3241 134V129.25H58.2241V134H57.3241ZM58.2241 131.29L57.8841 131.14C57.8841 130.533 58.0241 130.05 58.3041 129.69C58.5841 129.33 58.9874 129.15 59.5141 129.15C59.7541 129.15 59.9707 129.193 60.1641 129.28C60.3574 129.36 60.5374 129.497 60.7041 129.69L60.1141 130.3C60.0141 130.193 59.9041 130.117 59.7841 130.07C59.6641 130.023 59.5241 130 59.3641 130C59.0307 130 58.7574 130.107 58.5441 130.32C58.3307 130.533 58.2241 130.857 58.2241 131.29ZM61.3477 134V129.25H62.2477V134H61.3477ZM61.7977 128.3C61.6311 128.3 61.4944 128.247 61.3877 128.14C61.2811 128.027 61.2277 127.887 61.2277 127.72C61.2277 127.56 61.2811 127.427 61.3877 127.32C61.4944 127.207 61.6311 127.15 61.7977 127.15C61.9644 127.15 62.1011 127.207 62.2077 127.32C62.3144 127.427 62.3677 127.56 62.3677 127.72C62.3677 127.887 62.3144 128.027 62.2077 128.14C62.1011 128.247 61.9644 128.3 61.7977 128.3ZM63.6241 135.1L64.2441 133.91L64.5641 133.83C64.5307 133.903 64.4874 133.963 64.4341 134.01C64.3874 134.057 64.3274 134.08 64.2541 134.08C64.1141 134.08 63.9841 134.023 63.8641 133.91C63.7507 133.79 63.6941 133.643 63.6941 133.47C63.6941 133.277 63.7574 133.117 63.8841 132.99C64.0107 132.857 64.1707 132.79 64.3641 132.79C64.5374 132.79 64.6907 132.857 64.8241 132.99C64.9574 133.117 65.0241 133.277 65.0241 133.47C65.0241 133.543 65.0074 133.633 64.9741 133.74C64.9474 133.84 64.8907 133.97 64.8041 134.13L64.1441 135.38L63.6241 135.1ZM69.188 134V133.14H71.118C71.6314 133.14 72.0814 133.03 72.468 132.81C72.8547 132.583 73.1547 132.273 73.368 131.88C73.588 131.487 73.698 131.033 73.698 130.52C73.698 130.013 73.588 129.563 73.368 129.17C73.148 128.777 72.8447 128.47 72.458 128.25C72.0714 128.03 71.6247 127.92 71.118 127.92H69.198V127.06H71.138C71.6447 127.06 72.1114 127.147 72.538 127.32C72.9714 127.493 73.3447 127.737 73.658 128.05C73.978 128.363 74.2247 128.73 74.398 129.15C74.578 129.57 74.668 130.03 74.668 130.53C74.668 131.023 74.578 131.483 74.398 131.91C74.2247 132.33 73.9814 132.697 73.668 133.01C73.3547 133.323 72.9814 133.567 72.548 133.74C72.1214 133.913 71.658 134 71.158 134H69.188ZM68.568 134V127.06H69.508V134H68.568ZM78.0104 134.1C77.5371 134.1 77.1104 133.993 76.7304 133.78C76.3504 133.56 76.0504 133.263 75.8304 132.89C75.6104 132.517 75.5004 132.093 75.5004 131.62C75.5004 131.153 75.6071 130.733 75.8204 130.36C76.0404 129.987 76.3337 129.693 76.7004 129.48C77.0737 129.26 77.4904 129.15 77.9504 129.15C78.3904 129.15 78.7771 129.25 79.1104 129.45C79.4504 129.65 79.7137 129.927 79.9004 130.28C80.0937 130.633 80.1904 131.033 80.1904 131.48C80.1904 131.547 80.1871 131.62 80.1804 131.7C80.1737 131.773 80.1604 131.86 80.1404 131.96H76.1304V131.21H79.6604L79.3304 131.5C79.3304 131.18 79.2737 130.91 79.1604 130.69C79.0471 130.463 78.8871 130.29 78.6804 130.17C78.4737 130.043 78.2237 129.98 77.9304 129.98C77.6237 129.98 77.3537 130.047 77.1204 130.18C76.8871 130.313 76.7071 130.5 76.5804 130.74C76.4537 130.98 76.3904 131.263 76.3904 131.59C76.3904 131.923 76.4571 132.217 76.5904 132.47C76.7237 132.717 76.9137 132.91 77.1604 133.05C77.4071 133.183 77.6904 133.25 78.0104 133.25C78.2771 133.25 78.5204 133.203 78.7404 133.11C78.9671 133.017 79.1604 132.877 79.3204 132.69L79.9004 133.28C79.6737 133.547 79.3937 133.75 79.0604 133.89C78.7337 134.03 78.3837 134.1 78.0104 134.1ZM83.3417 134.1C82.8751 134.1 82.4517 133.99 82.0717 133.77C81.6984 133.55 81.4017 133.253 81.1817 132.88C80.9684 132.5 80.8617 132.08 80.8617 131.62C80.8617 131.153 80.9684 130.733 81.1817 130.36C81.4017 129.987 81.6984 129.693 82.0717 129.48C82.4517 129.26 82.8751 129.15 83.3417 129.15C83.7084 129.15 84.0484 129.22 84.3617 129.36C84.6751 129.493 84.9451 129.69 85.1717 129.95L84.5717 130.55C84.4251 130.377 84.2451 130.247 84.0317 130.16C83.8251 130.067 83.5951 130.02 83.3417 130.02C83.0417 130.02 82.7751 130.09 82.5417 130.23C82.3084 130.363 82.1251 130.55 81.9917 130.79C81.8584 131.03 81.7917 131.307 81.7917 131.62C81.7917 131.933 81.8584 132.21 81.9917 132.45C82.1251 132.69 82.3084 132.88 82.5417 133.02C82.7751 133.16 83.0417 133.23 83.3417 133.23C83.5951 133.23 83.8251 133.187 84.0317 133.1C84.2451 133.007 84.4284 132.873 84.5817 132.7L85.1717 133.3C84.9517 133.553 84.6817 133.75 84.3617 133.89C84.0484 134.03 83.7084 134.1 83.3417 134.1ZM89.2144 134V127.06H90.1444V134H89.2144ZM87.7944 127.9V127.06H90.0444V127.9H87.7944ZM91.2812 133.43L93.8412 130.73C94.1012 130.463 94.3045 130.233 94.4512 130.04C94.5978 129.84 94.7012 129.657 94.7612 129.49C94.8278 129.323 94.8612 129.15 94.8612 128.97C94.8612 128.617 94.7478 128.34 94.5212 128.14C94.2945 127.94 94.0012 127.84 93.6412 127.84C93.2878 127.84 92.9778 127.927 92.7112 128.1C92.4445 128.267 92.2078 128.527 92.0012 128.88L91.3412 128.33C91.6145 127.877 91.9445 127.537 92.3312 127.31C92.7178 127.077 93.1645 126.96 93.6712 126.96C94.0978 126.96 94.4678 127.043 94.7812 127.21C95.1012 127.377 95.3478 127.61 95.5212 127.91C95.6945 128.21 95.7812 128.56 95.7812 128.96C95.7812 129.247 95.7445 129.503 95.6712 129.73C95.6045 129.957 95.4812 130.19 95.3012 130.43C95.1278 130.663 94.8845 130.943 94.5712 131.27L92.5012 133.4L91.2812 133.43ZM91.2812 134V133.43L92.0812 133.16H95.9412V134H91.2812ZM97.0713 135.1L97.6913 133.91L98.0113 133.83C97.978 133.903 97.9347 133.963 97.8813 134.01C97.8347 134.057 97.7747 134.08 97.7013 134.08C97.5613 134.08 97.4313 134.023 97.3113 133.91C97.198 133.79 97.1413 133.643 97.1413 133.47C97.1413 133.277 97.2047 133.117 97.3313 132.99C97.458 132.857 97.618 132.79 97.8113 132.79C97.9847 132.79 98.138 132.857 98.2713 132.99C98.4047 133.117 98.4713 133.277 98.4713 133.47C98.4713 133.543 98.4547 133.633 98.4213 133.74C98.3947 133.84 98.338 133.97 98.2513 134.13L97.5913 135.38L97.0713 135.1ZM101.525 133.43L104.085 130.73C104.345 130.463 104.549 130.233 104.695 130.04C104.842 129.84 104.945 129.657 105.005 129.49C105.072 129.323 105.105 129.15 105.105 128.97C105.105 128.617 104.992 128.34 104.765 128.14C104.539 127.94 104.245 127.84 103.885 127.84C103.532 127.84 103.222 127.927 102.955 128.1C102.689 128.267 102.452 128.527 102.245 128.88L101.585 128.33C101.859 127.877 102.189 127.537 102.575 127.31C102.962 127.077 103.409 126.96 103.915 126.96C104.342 126.96 104.712 127.043 105.025 127.21C105.345 127.377 105.592 127.61 105.765 127.91C105.939 128.21 106.025 128.56 106.025 128.96C106.025 129.247 105.989 129.503 105.915 129.73C105.849 129.957 105.725 130.19 105.545 130.43C105.372 130.663 105.129 130.943 104.815 131.27L102.745 133.4L101.525 133.43ZM101.525 134V133.43L102.325 133.16H106.185V134H101.525ZM109.905 134.1C109.385 134.1 108.909 133.953 108.475 133.66C108.049 133.367 107.709 132.953 107.455 132.42C107.202 131.88 107.075 131.247 107.075 130.52C107.075 129.793 107.199 129.163 107.445 128.63C107.699 128.097 108.039 127.687 108.465 127.4C108.892 127.107 109.362 126.96 109.875 126.96C110.402 126.96 110.879 127.107 111.305 127.4C111.732 127.687 112.069 128.097 112.315 128.63C112.569 129.163 112.695 129.797 112.695 130.53C112.695 131.257 112.569 131.89 112.315 132.43C112.069 132.963 111.732 133.377 111.305 133.67C110.885 133.957 110.419 134.1 109.905 134.1ZM109.885 133.21C110.252 133.21 110.572 133.11 110.845 132.91C111.125 132.703 111.345 132.4 111.505 132C111.665 131.6 111.745 131.107 111.745 130.52C111.745 129.933 111.665 129.443 111.505 129.05C111.345 128.65 111.125 128.35 110.845 128.15C110.565 127.943 110.242 127.84 109.875 127.84C109.515 127.84 109.195 127.943 108.915 128.15C108.635 128.35 108.415 128.65 108.255 129.05C108.102 129.443 108.025 129.933 108.025 130.52C108.025 131.107 108.102 131.6 108.255 132C108.415 132.4 108.635 132.703 108.915 132.91C109.195 133.11 109.519 133.21 109.885 133.21ZM113.478 133.43L116.038 130.73C116.298 130.463 116.502 130.233 116.648 130.04C116.795 129.84 116.898 129.657 116.958 129.49C117.025 129.323 117.058 129.15 117.058 128.97C117.058 128.617 116.945 128.34 116.718 128.14C116.492 127.94 116.198 127.84 115.838 127.84C115.485 127.84 115.175 127.927 114.908 128.1C114.642 128.267 114.405 128.527 114.198 128.88L113.538 128.33C113.812 127.877 114.142 127.537 114.528 127.31C114.915 127.077 115.362 126.96 115.868 126.96C116.295 126.96 116.665 127.043 116.978 127.21C117.298 127.377 117.545 127.61 117.718 127.91C117.892 128.21 117.978 128.56 117.978 128.96C117.978 129.247 117.942 129.503 117.868 129.73C117.802 129.957 117.678 130.19 117.498 130.43C117.325 130.663 117.082 130.943 116.768 131.27L114.698 133.4L113.478 133.43ZM113.478 134V133.43L114.278 133.16H118.138V134H113.478ZM118.889 131.61L121.419 127.06H122.479L119.899 131.61H118.889ZM118.889 132.19V131.61L119.289 131.35H124.209V132.19H118.889ZM122.279 134V129.41H123.209V134H122.279Z" fill="#315D80"/>
</g>
<defs>
<filter id="filter0_ddi_1390_10862" x="0" y="0" width="288" height="164" filterUnits="userSpaceOnUse" color-interpolation-filters="sRGB">
<feFlood flood-opacity="0" result="BackgroundImageFix"/>
<feColorMatrix in="SourceAlpha" type="matrix" values="0 0 0 0 0 0 0 0 0 0 0 0 0 0 0 0 0 0 127 0" result="hardAlpha"/>
<feOffset dx="-2" dy="-3"/>
<feGaussianBlur stdDeviation="5"/>
<feComposite in2="hardAlpha" operator="out"/>
<feColorMatrix type="matrix" values="0 0 0 0 0.192157 0 0 0 0 0.364706 0 0 0 0 0.501961 0 0 0 0.3 0"/>
<feBlend mode="normal" in2="BackgroundImageFix" result="effect1_dropShadow_1390_10862"/>
<feColorMatrix in="SourceAlpha" type="matrix" values="0 0 0 0 0 0 0 0 0 0 0 0 0 0 0 0 0 0 127 0" result="hardAlpha"/>
<feMorphology radius="1" operator="erode" in="SourceAlpha" result="effect2_dropShadow_1390_10862"/>
<feOffset dx="5" dy="6"/>
<feGaussianBlur stdDeviation="2.5"/>
<feComposite in2="hardAlpha" operator="out"/>
<feColorMatrix type="matrix" values="0 0 0 0 0.192157 0 0 0 0 0.364706 0 0 0 0 0.501961 0 0 0 0.08 0"/>
<feBlend mode="normal" in2="effect1_dropShadow_1390_10862" result="effect2_dropShadow_1390_10862"/>
<feBlend mode="normal" in="SourceGraphic" in2="effect2_dropShadow_1390_10862" result="shape"/>
<feColorMatrix in="SourceAlpha" type="matrix" values="0 0 0 0 0 0 0 0 0 0 0 0 0 0 0 0 0 0 127 0" result="hardAlpha"/>
<feOffset dx="4" dy="5"/>
<feGaussianBlur stdDeviation="2.5"/>
<feComposite in2="hardAlpha" operator="arithmetic" k2="-1" k3="1"/>
<feColorMatrix type="matrix" values="0 0 0 0 0.221667 0 0 0 0 0.487936 0 0 0 0 0.933333 0 0 0 0.12 0"/>
<feBlend mode="normal" in2="shape" result="effect3_innerShadow_1390_10862"/>
</filter>
<filter id="filter1_d_1390_10862" x="47.8203" y="122.96" width="80.3867" height="16.4199" filterUnits="userSpaceOnUse" color-interpolation-filters="sRGB">
<feFlood flood-opacity="0" result="BackgroundImageFix"/>
<feColorMatrix in="SourceAlpha" type="matrix" values="0 0 0 0 0 0 0 0 0 0 0 0 0 0 0 0 0 0 127 0" result="hardAlpha"/>
<feOffset/>
<feGaussianBlur stdDeviation="2"/>
<feComposite in2="hardAlpha" operator="out"/>
<feColorMatrix type="matrix" values="0 0 0 0 0 0 0 0 0 0 0 0 0 0 0 0 0 0 0.15 0"/>
<feBlend mode="normal" in2="BackgroundImageFix" result="effect1_dropShadow_1390_10862"/>
<feBlend mode="normal" in="SourceGraphic" in2="effect1_dropShadow_1390_10862" result="shape"/>
</filter>
</defs>
</svg>
