<svg width="390" height="880" viewBox="0 0 390 880" fill="none" xmlns="http://www.w3.org/2000/svg">
<path d="M563 779.817C563 835.046 518.228 879.817 463 879.817H396.328C383.166 879.817 370.362 875.532 359.851 867.609C349.341 859.685 336.537 855.4 323.375 855.4H68.7445C53.9802 855.4 39.5261 859.637 27.0986 867.609C14.6712 875.58 0.217041 879.817 -14.5472 879.817L-41.0001 879.817C-96.2285 879.817 -141 835.046 -141 779.817V100.817C-141 45.5889 -96.2285 0.817383 -41 0.817383H-14.7104C0.14801 0.817383 14.6816 5.16559 27.0986 13.3259C39.5156 21.4863 54.0493 25.8345 68.9077 25.8345H323.193C336.46 25.8345 349.352 21.4354 359.851 13.3259C370.351 5.21649 383.243 0.817383 396.51 0.817383H463C518.229 0.817383 563 45.5889 563 100.817V779.817Z" fill="#C8D4DE"/>
</svg>
