<svg width="345" height="98" viewBox="0 0 345 98" fill="none" xmlns="http://www.w3.org/2000/svg">
<g filter="url(#filter0_bi_2215_4569)">
<rect width="345" height="98" rx="30" fill="#F8F8F8" fill-opacity="0.3"/>
</g>
<path d="M257.661 20.5152C256.861 21.197 256.461 21.5379 256.034 21.8243C255.054 22.4808 253.954 22.9364 252.797 23.1648C252.293 23.2645 251.769 23.3063 250.721 23.3899C248.088 23.6 246.771 23.7051 245.673 24.0931C243.132 24.9904 241.134 26.9887 240.237 29.5292C239.849 30.6276 239.744 31.9441 239.533 34.5772C239.45 35.6252 239.408 36.1493 239.308 36.6539C239.08 37.8107 238.624 38.9107 237.968 39.8902C237.681 40.3175 237.341 40.7176 236.659 41.5177C234.945 43.5282 234.089 44.5334 233.586 45.5845C232.424 48.0156 232.424 50.8413 233.586 53.2724C234.089 54.3235 234.945 55.3286 236.659 57.3391C237.34 58.1392 237.682 58.5394 237.968 58.9665C238.624 59.946 239.08 61.0461 239.308 62.203C239.408 62.7076 239.45 63.2317 239.533 64.2795C239.744 66.9127 239.849 68.2293 240.237 69.3277C241.134 71.8682 243.132 73.8666 245.673 74.7639C246.771 75.1516 248.088 75.2568 250.721 75.4671C251.769 75.5505 252.293 75.5926 252.797 75.6921C253.954 75.9205 255.054 76.3762 256.034 77.0327C256.461 77.3189 256.861 77.6599 257.661 78.3417C259.672 80.0552 260.677 80.9118 261.728 81.4142C264.159 82.576 266.985 82.576 269.416 81.4142C270.467 80.9118 271.472 80.0552 273.483 78.3417C274.283 77.6599 274.683 77.3189 275.11 77.0327C276.09 76.3762 277.19 75.9205 278.347 75.6921C278.851 75.5926 279.375 75.5505 280.423 75.4671C283.056 75.2568 284.373 75.1516 285.471 74.7639C288.012 73.8666 290.01 71.8682 290.907 69.3277C291.295 68.2293 291.4 66.9127 291.611 64.2799C291.694 63.232 291.736 62.7076 291.836 62.203C292.064 61.0461 292.52 59.946 293.176 58.9665C293.462 58.5394 293.803 58.1392 294.485 57.3391C296.199 55.3286 297.055 54.3235 297.558 53.2724C298.72 50.8413 298.72 48.0156 297.558 45.5845C297.055 44.5334 296.199 43.5283 294.485 41.5177C293.803 40.7176 293.462 40.3175 293.176 39.8902C292.52 38.9107 292.064 37.8107 291.836 36.6539C291.736 36.1493 291.694 35.6252 291.611 34.5773C291.4 31.9443 291.295 30.6275 290.907 29.5292C290.01 26.9887 288.012 24.9904 285.471 24.0931C284.373 23.7051 283.056 23.6 280.423 23.3899C279.375 23.3063 278.851 23.2645 278.347 23.1648C277.19 22.9364 276.09 22.4808 275.11 21.8243C274.683 21.5379 274.283 21.197 273.483 20.515C271.472 18.8017 270.467 17.9451 269.416 17.4427C266.985 16.2808 264.159 16.2808 261.728 17.4427C260.677 17.9451 259.672 18.8019 257.661 20.5152Z" fill="#315D80"/>
<path d="M280.051 38.519L280.051 38.519C278.948 37.4161 277.16 37.4161 276.057 38.519L260.227 54.3496L255.093 49.2153L255.093 49.2153C253.99 48.1125 252.202 48.1125 251.099 49.2153L251.099 49.2153C249.996 50.3184 249.996 52.1065 251.099 53.2093L258.23 60.3402L258.336 60.2342L258.23 60.3402C259.333 61.443 261.121 61.443 262.224 60.3402L280.051 42.5129L279.945 42.4068L280.051 42.5129C281.154 41.41 281.154 39.6219 280.051 38.519Z" fill="white" stroke="white" stroke-width="0.3"/>
<path d="M52.4176 68L38.8176 32.7H47.2176L57.5676 61.25H54.1176L64.6176 32.7H72.9176L59.1676 68H52.4176ZM83.8211 68.55C81.1878 68.55 78.8378 68.0167 76.7711 66.95C74.7378 65.85 73.1378 64.3333 71.9711 62.4C70.8044 60.4667 70.2211 58.2833 70.2211 55.85C70.2211 53.4167 70.7878 51.25 71.9211 49.35C73.0878 47.4167 74.6544 45.9 76.6211 44.8C78.5878 43.7 80.8044 43.15 83.2711 43.15C85.6711 43.15 87.7878 43.6667 89.6211 44.7C91.4544 45.7333 92.8878 47.1667 93.9211 49C94.9878 50.8333 95.5211 52.9333 95.5211 55.3C95.5211 55.7333 95.4878 56.2 95.4211 56.7C95.3878 57.1667 95.3044 57.7167 95.1711 58.35L74.2211 58.4V53.15L91.9211 53.1L88.6211 55.3C88.5878 53.9 88.3711 52.75 87.9711 51.85C87.5711 50.9167 86.9711 50.2167 86.1711 49.75C85.4044 49.25 84.4544 49 83.3211 49C82.1211 49 81.0711 49.2833 80.1711 49.85C79.3044 50.3833 78.6211 51.15 78.1211 52.15C77.6544 53.15 77.4211 54.3667 77.4211 55.8C77.4211 57.2333 77.6711 58.4667 78.1711 59.5C78.7044 60.5 79.4378 61.2833 80.3711 61.85C81.3378 62.3833 82.4711 62.65 83.7711 62.65C84.9711 62.65 86.0544 62.45 87.0211 62.05C87.9878 61.6167 88.8378 60.9833 89.5711 60.15L93.7711 64.35C92.5711 65.75 91.1211 66.8 89.4211 67.5C87.7211 68.2 85.8544 68.55 83.8211 68.55ZM99.2137 68V43.7H106.864V68H99.2137ZM106.864 54.65L103.664 52.15C104.297 49.3167 105.364 47.1167 106.864 45.55C108.364 43.9833 110.447 43.2 113.114 43.2C114.28 43.2 115.297 43.3833 116.164 43.75C117.064 44.0833 117.847 44.6167 118.514 45.35L113.964 51.1C113.63 50.7333 113.214 50.45 112.714 50.25C112.214 50.05 111.647 49.95 111.014 49.95C109.747 49.95 108.73 50.35 107.964 51.15C107.23 51.9167 106.864 53.0833 106.864 54.65ZM120.552 68V43.7H128.202V68H120.552ZM124.402 40.35C123.202 40.35 122.202 39.95 121.402 39.15C120.635 38.3167 120.252 37.3167 120.252 36.15C120.252 34.95 120.635 33.95 121.402 33.15C122.202 32.35 123.202 31.95 124.402 31.95C125.602 31.95 126.585 32.35 127.352 33.15C128.118 33.95 128.502 34.95 128.502 36.15C128.502 37.3167 128.118 38.3167 127.352 39.15C126.585 39.95 125.602 40.35 124.402 40.35ZM136.689 68V41.1C136.689 39.2333 137.105 37.55 137.939 36.05C138.772 34.55 139.939 33.3667 141.439 32.5C142.972 31.6 144.789 31.15 146.889 31.15C148.022 31.15 149.055 31.3 149.989 31.6C150.922 31.9 151.822 32.3833 152.689 33.05L148.889 38.65C148.555 38.4167 148.222 38.25 147.889 38.15C147.589 38.05 147.255 38 146.889 38C146.055 38 145.422 38.25 144.989 38.75C144.555 39.2167 144.339 39.8667 144.339 40.7V68H136.689ZM131.339 50.2V43.7H155.789V50.2H131.339ZM152.589 68V43.7H160.239V68H152.589ZM156.439 41.95C155.305 41.95 154.355 41.5667 153.589 40.8C152.855 40 152.489 39.0333 152.489 37.9C152.489 36.7667 152.855 35.8167 153.589 35.05C154.355 34.2833 155.305 33.9 156.439 33.9C157.605 33.9 158.555 34.2833 159.289 35.05C160.022 35.8167 160.389 36.7667 160.389 37.9C160.389 39.0333 160.022 40 159.289 40.8C158.555 41.5667 157.605 41.95 156.439 41.95ZM177.571 68.55C174.938 68.55 172.588 68.0167 170.521 66.95C168.488 65.85 166.888 64.3333 165.721 62.4C164.554 60.4667 163.971 58.2833 163.971 55.85C163.971 53.4167 164.538 51.25 165.671 49.35C166.838 47.4167 168.404 45.9 170.371 44.8C172.338 43.7 174.554 43.15 177.021 43.15C179.421 43.15 181.538 43.6667 183.371 44.7C185.204 45.7333 186.638 47.1667 187.671 49C188.738 50.8333 189.271 52.9333 189.271 55.3C189.271 55.7333 189.238 56.2 189.171 56.7C189.138 57.1667 189.054 57.7167 188.921 58.35L167.971 58.4V53.15L185.671 53.1L182.371 55.3C182.338 53.9 182.121 52.75 181.721 51.85C181.321 50.9167 180.721 50.2167 179.921 49.75C179.154 49.25 178.204 49 177.071 49C175.871 49 174.821 49.2833 173.921 49.85C173.054 50.3833 172.371 51.15 171.871 52.15C171.404 53.15 171.171 54.3667 171.171 55.8C171.171 57.2333 171.421 58.4667 171.921 59.5C172.454 60.5 173.188 61.2833 174.121 61.85C175.088 62.3833 176.221 62.65 177.521 62.65C178.721 62.65 179.804 62.45 180.771 62.05C181.738 61.6167 182.588 60.9833 183.321 60.15L187.521 64.35C186.321 65.75 184.871 66.8 183.171 67.5C181.471 68.2 179.604 68.55 177.571 68.55ZM203.314 68.5C201.014 68.5 198.964 67.95 197.164 66.85C195.397 65.75 193.997 64.25 192.964 62.35C191.964 60.45 191.464 58.2833 191.464 55.85C191.464 53.4167 191.964 51.25 192.964 49.35C193.997 47.45 195.397 45.95 197.164 44.85C198.964 43.75 201.014 43.2 203.314 43.2C204.98 43.2 206.48 43.5167 207.814 44.15C209.18 44.7833 210.297 45.6667 211.164 46.8C212.064 47.9 212.564 49.1667 212.664 50.6V60.85C212.564 62.2833 212.08 63.5833 211.214 64.75C210.347 65.8833 209.23 66.8 207.864 67.5C206.497 68.1667 204.98 68.5 203.314 68.5ZM204.664 61.6C205.764 61.6 206.714 61.3667 207.514 60.9C208.314 60.4 208.947 59.7167 209.414 58.85C209.88 57.9833 210.114 56.9833 210.114 55.85C210.114 54.7167 209.88 53.7333 209.414 52.9C208.98 52.0333 208.347 51.35 207.514 50.85C206.714 50.35 205.78 50.1 204.714 50.1C203.647 50.1 202.697 50.35 201.864 50.85C201.064 51.35 200.414 52.0333 199.914 52.9C199.447 53.7667 199.214 54.75 199.214 55.85C199.214 56.95 199.447 57.9333 199.914 58.8C200.38 59.6667 201.03 60.35 201.864 60.85C202.697 61.35 203.63 61.6 204.664 61.6ZM217.314 68H209.814V61.45L210.964 55.55L209.664 49.65V31.7H217.314V68Z" fill="#315D80"/>
<defs>
<filter id="filter0_bi_2215_4569" x="-10" y="-10" width="365" height="118" filterUnits="userSpaceOnUse" color-interpolation-filters="sRGB">
<feFlood flood-opacity="0" result="BackgroundImageFix"/>
<feGaussianBlur in="BackgroundImageFix" stdDeviation="5"/>
<feComposite in2="SourceAlpha" operator="in" result="effect1_backgroundBlur_2215_4569"/>
<feBlend mode="normal" in="SourceGraphic" in2="effect1_backgroundBlur_2215_4569" result="shape"/>
<feColorMatrix in="SourceAlpha" type="matrix" values="0 0 0 0 0 0 0 0 0 0 0 0 0 0 0 0 0 0 127 0" result="hardAlpha"/>
<feMorphology radius="2" operator="erode" in="SourceAlpha" result="effect2_innerShadow_2215_4569"/>
<feOffset dy="4"/>
<feGaussianBlur stdDeviation="2"/>
<feComposite in2="hardAlpha" operator="arithmetic" k2="-1" k3="1"/>
<feColorMatrix type="matrix" values="0 0 0 0 0.741667 0 0 0 0 0.845 0 0 0 0 1 0 0 0 0.3 0"/>
<feBlend mode="normal" in2="shape" result="effect2_innerShadow_2215_4569"/>
</filter>
</defs>
</svg>
