<svg width="455" height="106" viewBox="0 0 455 106" fill="none" xmlns="http://www.w3.org/2000/svg">
<path d="M114.086 59.0281C116.348 58.3398 117.19 57.9692 117.558 56.2748C117.926 54.8436 118.031 42.7092 118.031 40.0057C118.143 36.9312 118.073 33.8526 117.821 30.7865C117.505 28.4007 115.4 28.3478 114.296 28.2948L114.506 26.9197C115.242 26.9197 118.346 26.9726 118.979 26.9726C119.662 26.9726 121.505 26.8637 123.29 26.7049C125.131 26.5536 126.92 26.3887 127.552 26.3887C136.178 26.3887 139.492 31.263 139.492 35.2373C139.492 39.157 136.441 42.39 132.284 43.7682C138.177 55.1144 142.227 59.9283 147.539 60.3519V61.7301C142.433 61.836 135.074 61.836 126.447 44.4035C125.393 44.3891 124.34 44.3184 123.293 44.1917C123.241 45.3581 123.188 46.3097 123.188 49.2779C123.188 51.0267 123.188 56.3262 123.871 57.4472C124.844 58.3479 126.081 58.9049 127.396 59.0342L127.186 60.308C125.502 60.0932 124.555 60.0433 123.714 59.9873C122.813 59.9343 122.032 59.9343 120.56 59.9343C118.397 59.9168 116.236 60.0416 114.089 60.308L114.086 59.0281ZM126.499 27.9741C123.763 27.9741 123.763 28.6625 123.608 32.0588C123.395 37.0935 123.395 37.7304 123.448 42.3385C124.241 42.5192 125.056 42.5904 125.869 42.5503C128.395 42.5503 133.811 42.5503 133.811 35.7668C133.811 33.8591 132.864 27.9741 126.499 27.9741Z" fill="#EEF4FF"/>
<path d="M165.324 26.3361C167.605 26.3001 169.87 26.7242 171.986 27.5836C174.102 28.4429 176.026 29.7202 177.645 31.34C179.263 32.9598 180.543 34.8896 181.41 37.0155C182.277 39.1414 182.713 41.4206 182.692 43.7188C182.671 46.017 182.194 48.2877 181.288 50.3973C180.383 52.5068 179.068 54.4125 177.42 56.0022C175.772 57.5918 173.825 58.8332 171.694 59.6533C169.563 60.4734 167.29 60.8556 165.01 60.7774C162.685 60.8755 160.365 60.491 158.194 59.6476C156.023 58.8043 154.048 57.5201 152.39 55.875C150.733 54.2299 149.429 52.259 148.559 50.0847C147.69 47.9104 147.273 45.5792 147.336 43.236C147.336 32.9064 156.174 26.3361 165.324 26.3361ZM166.167 58.8712C169.533 58.8712 176.581 56.8016 176.581 47C176.581 40.112 173.267 28.4011 163.854 28.4011C161.328 28.4011 153.492 29.5675 153.492 40.3767C153.489 49.1194 157.646 58.8712 166.167 58.8712Z" fill="#EEF4FF"/>
<path d="M205.049 44.3523C205.049 46.3659 205.049 56.0103 205.258 57.0693C205.523 58.1827 208.467 58.8166 209.625 58.9754L209.52 60.1948C208.677 60.0889 207.521 59.983 206.366 59.93C205.208 59.8256 203.948 59.7712 202.843 59.7712C202.265 59.7712 200.581 59.8771 198.95 59.983C197.372 60.0889 195.741 60.1948 195.215 60.1948L195.268 58.9754C198.53 58.7122 199.055 57.9709 199.372 56.9089C199.688 55.7985 199.688 48.4869 199.688 46.6292C199.688 45.9938 199.688 45.7305 199.635 44.7759C197.027 40.5483 194.2 36.4625 191.164 32.5356C189.165 30.0439 187.587 28.0863 184.274 28.0863L184.061 26.8125C184.586 26.8125 186.059 26.8654 187.585 26.8654C189.111 26.9214 190.637 26.9744 191.162 26.9744L198.371 26.8654L198.16 28.2966C197.687 28.2966 195.375 28.2966 195.375 29.2512C195.375 30.2058 201.159 38.2617 204.315 42.1285C210.943 31.6899 211.259 31.1604 211.259 29.994C211.259 28.404 209.47 28.404 207.997 28.3511L208.154 26.814C208.628 26.814 209.575 26.867 210.68 26.9229C211.732 26.9759 212.942 27.0288 213.834 27.0288C214.678 27.0288 218.306 26.9229 219.09 26.9229L219.038 28.6173C215.408 28.6703 213.516 30.0485 207.202 40.7518L205.049 44.3523Z" fill="#EEF4FF"/>
<path d="M224.097 52.564C223.534 53.8016 223.111 55.0986 222.834 56.4308C222.834 58.3975 225.357 58.7122 226.83 58.9225V60.1418C226.462 60.1418 224.878 60.0889 223.359 60.0374C221.841 59.986 220.413 59.9285 220.308 59.9285C219.677 59.9285 217.466 59.9285 216.627 59.9814V58.9225C217.276 58.8485 217.898 58.6234 218.446 58.265C218.993 57.9065 219.45 57.4246 219.781 56.8574C221.622 53.8892 230.721 31.3691 231.406 29.5674C231.931 28.2421 232.248 27.289 232.563 26.3359H233.928C234.247 27.3949 234.562 28.5613 235.193 30.3086C236.298 33.4357 241.554 47.1011 242.609 49.9135C245.657 58.4444 246.555 58.6048 248.659 58.9209V59.9799C248.078 59.927 247.449 59.874 246.707 59.8286C245.965 59.7833 245.13 59.7727 244.026 59.7727C240.766 59.7727 238.291 60.0404 236.668 60.1433V58.924C238.036 58.7137 239.299 58.1842 239.299 56.9648C239.299 56.2205 236.72 49.2796 236.457 48.5383C235.2 48.4033 233.935 48.3528 232.672 48.3871C230.334 48.3405 227.996 48.4639 225.676 48.7562L224.097 52.564ZM226.623 46.2101C228.501 46.5108 230.4 46.6701 232.302 46.6866C233.445 46.6985 234.588 46.6277 235.722 46.4748C234.379 42.5632 232.834 38.7254 231.092 34.9773L226.623 46.2101Z" fill="#EEF4FF"/>
<path d="M280.704 52.988C280.494 54.6839 280.443 55.0546 278.65 60.4009C277.486 60.17 276.309 60.0109 275.126 59.9244C273.656 59.82 271.551 59.7655 267.971 59.7655H253.35L253.246 58.4403C254.346 58.3821 255.389 57.9323 256.19 57.171C257.091 56.0576 257.091 55.5281 257.137 42.5979C257.137 32.7947 257.137 31.8945 256.987 30.5693C256.721 28.3439 255.195 28.1835 253.67 28.0807V26.8069C255.667 26.8598 256.302 26.9158 260.087 26.9158C264.086 26.9158 265.087 26.8598 267.083 26.7539V28.1321C265.4 28.3439 263.929 28.6086 263.401 29.5632C262.665 30.9414 262.561 40.5843 262.561 42.97L262.509 51.1303C262.509 54.4161 262.561 56.0591 263.034 56.8548C263.455 57.6506 264.718 57.6506 267.136 57.6506C277.34 57.6506 278.603 55.3193 279.45 52.8277L280.704 52.988Z" fill="#EEF4FF"/>
<path d="M317.161 44.3523C317.161 46.3659 317.161 56.0103 317.371 57.0693C317.634 58.1827 320.581 58.8166 321.738 58.9754L321.63 60.1948C320.791 60.0889 319.633 59.983 318.477 59.93C317.322 59.8256 316.056 59.7712 314.952 59.7712C314.374 59.7712 312.699 59.8771 311.061 59.983C309.483 60.0889 307.852 60.1948 307.326 60.1948L307.379 58.9754C310.641 58.7122 311.165 57.9709 311.483 56.9089C311.798 55.7985 311.798 48.4869 311.798 46.6292C311.798 45.9938 311.798 45.7305 311.746 44.7759C309.14 40.5474 306.313 36.4616 303.276 32.5356C301.279 30.0439 299.7 28.0863 296.386 28.0863L296.176 26.8125C296.701 26.8125 298.173 26.8654 299.7 26.8654C301.223 26.9214 302.749 26.9744 303.276 26.9744L310.484 26.8654L310.276 28.2966C309.8 28.2966 307.487 28.2966 307.487 29.2512C307.487 30.2058 313.272 38.2617 316.428 42.1285C323.055 31.6899 323.372 31.1604 323.372 29.994C323.372 28.404 321.584 28.404 320.111 28.3511L320.268 26.814C320.741 26.814 321.689 26.867 322.791 26.9229C323.842 26.9759 325.053 27.0288 325.945 27.0288C326.787 27.0288 330.414 26.9229 331.201 26.9229L331.145 28.6173C327.517 28.6703 325.623 30.0485 319.312 40.7518L317.161 44.3523Z" fill="#EEF4FF"/>
<path d="M352.148 26.3359C355.503 26.5106 358.734 27.6765 361.435 29.6883C364.137 31.7001 366.192 34.4688 367.342 37.649C368.492 40.8291 368.688 44.2801 367.904 47.5714C367.12 50.8627 365.392 53.8488 362.934 56.1571C360.477 58.4654 357.4 59.9938 354.086 60.5517C350.772 61.1097 347.368 60.6724 344.299 59.2944C341.23 57.9165 338.632 55.6589 336.829 52.8032C335.025 49.9474 334.096 46.62 334.157 43.2358C334.157 32.9062 342.993 26.3359 352.148 26.3359ZM352.987 58.871C356.357 58.871 363.402 56.8015 363.402 46.9998C363.402 40.1118 360.089 28.401 350.675 28.401C348.149 28.401 340.313 29.5674 340.313 40.3766C340.313 49.1193 344.468 58.871 352.987 58.871Z" fill="#EEF4FF"/>
<path d="M375.301 59.0281C377.553 58.3398 378.405 57.9692 378.773 56.2748C379.141 54.8436 379.246 42.7092 379.246 40.0057C379.357 36.9312 379.286 33.8527 379.036 30.7865C378.717 28.4007 376.613 28.3478 375.511 28.2948L375.721 26.9197C376.459 26.9197 379.561 26.9726 380.193 26.9726C380.877 26.9726 382.716 26.8637 384.505 26.7049C386.345 26.5536 388.138 26.3887 388.767 26.3887C397.393 26.3887 400.707 31.263 400.707 35.2373C400.707 39.157 397.659 42.39 393.499 43.7682C399.389 55.1144 403.442 59.9283 408.754 60.3519V61.7301C403.648 61.836 396.289 61.836 387.663 44.4035C386.609 44.3891 385.556 44.3184 384.509 44.1917C384.457 45.3581 384.406 46.3097 384.406 49.2779C384.406 51.0267 384.406 56.3262 385.089 57.4472C386.061 58.3483 387.298 58.9055 388.612 59.0342L388.402 60.308C386.719 60.0932 385.771 60.0433 384.93 59.9873C384.029 59.9343 383.248 59.9343 381.776 59.9343C379.614 59.9167 377.453 60.0416 375.307 60.308L375.301 59.0281ZM387.714 27.9741C384.978 27.9741 384.978 28.6625 384.82 32.0588C384.612 37.0935 384.612 37.7304 384.663 42.3385C385.456 42.5192 386.271 42.5904 387.083 42.5503C389.606 42.5503 395.026 42.5503 395.026 35.7668C395.025 33.8591 394.079 27.9741 387.714 27.9741Z" fill="#EEF4FF"/>
<path d="M412.443 58.6605C413.02 58.6894 413.594 58.568 414.11 58.3081C414.626 58.0481 415.067 57.6583 415.39 57.1764C416.231 55.6923 416.337 44.405 416.337 43.399C416.337 41.809 416.232 30.8425 415.917 29.8863C415.496 28.614 414.969 28.2963 412.763 27.9197L412.712 26.7003C413.763 26.7003 418.444 26.8592 419.392 26.8592C421.76 26.8592 423.914 26.7003 425.861 26.543V27.8122C424.283 28.08 422.547 28.3417 422.179 29.2434C421.601 30.7275 421.548 42.4384 421.497 43.3385L421.601 43.4444L430.227 32.3704C430.964 31.5137 431.568 30.5484 432.016 29.5081C432.016 28.4491 431.068 28.1829 429.7 28.1829V26.8652L436.434 26.9212C437.635 26.9212 439.222 26.8123 441.166 26.7064L441.221 28.0331C438.369 28.2746 435.689 29.5111 433.645 31.5293C433.33 31.8999 431.594 33.6473 431.226 33.968C429.437 35.8212 427.438 38.5231 425.546 40.803C426.546 41.9164 436.066 52.5138 438.589 54.8981C440.353 56.5554 442.358 57.9327 444.534 58.9827V60.1491C444.062 60.0962 443.633 60.0448 442.903 59.9903C442.173 59.9358 441.221 59.9373 439.643 59.9373C437.381 59.9373 434.698 59.9373 432.487 60.1491L432.382 59.0902C433.384 58.9812 434.118 58.8784 434.118 58.2929C434.118 57.6046 425.597 48.6486 421.503 44.8286C421.503 46.3657 421.503 56.2748 422.027 57.2793C422.241 57.7059 423.028 58.3943 425.867 58.9752V60.2535C424.944 60.0991 424.013 59.9921 423.079 59.9328C422.131 59.8284 420.976 59.8284 419.239 59.8284C417.136 59.8284 414.77 59.8799 412.454 59.9328L412.443 58.6605Z" fill="#EEF4FF"/>
<path d="M135.819 74.227C136.29 74.2201 136.76 74.2932 137.208 74.4433C137.605 74.5765 137.97 74.7948 138.275 75.0833C138.576 75.3742 138.811 75.7279 138.962 76.1196C139.279 77.0137 139.279 77.9909 138.962 78.885C138.811 79.2766 138.577 79.6299 138.275 79.9198C137.97 80.2092 137.605 80.4286 137.208 80.5628C136.76 80.7129 136.29 80.786 135.819 80.7791H131.849V85.6973H130.764V74.227H135.819ZM135.581 79.8502C136.242 79.8815 136.892 79.6762 137.416 79.2708C137.865 78.7932 138.115 78.1606 138.115 77.5031C138.115 76.8455 137.865 76.2129 137.416 75.7353C136.892 75.3304 136.242 75.1257 135.581 75.1574H131.849V79.8472L135.581 79.8502Z" fill="#EEF4FF" stroke="#EEF4FF" stroke-width="0.5"/>
<path d="M151.977 74.2285C152.426 74.2272 152.874 74.2862 153.308 74.404C153.705 74.5106 154.079 74.6935 154.408 74.9426C154.728 75.1888 154.985 75.5076 155.159 75.873C155.355 76.2917 155.451 76.7507 155.44 77.2134C155.457 77.8895 155.261 78.5535 154.88 79.1105C154.485 79.6598 153.892 80.03 153.228 80.1407V80.171C153.552 80.2125 153.865 80.3151 154.151 80.4735C154.39 80.6112 154.595 80.8003 154.752 81.0272C154.912 81.2636 155.027 81.5285 155.089 81.8079C155.16 82.1216 155.206 82.441 155.224 82.7625C155.236 82.9561 155.245 83.1936 155.255 83.4705C155.266 83.7473 155.287 84.0302 155.32 84.3146C155.349 84.5864 155.4 84.8554 155.47 85.1195C155.521 85.3328 155.616 85.5329 155.749 85.7064H154.548C154.48 85.5832 154.429 85.4508 154.398 85.3131C154.361 85.1547 154.334 84.994 154.318 84.832C154.302 84.6656 154.288 84.5007 154.279 84.3419C154.27 84.183 154.258 84.0393 154.248 83.9228C154.225 83.5189 154.191 83.1134 154.144 82.7125C154.104 82.3396 154.003 81.976 153.844 81.6369C153.693 81.3281 153.461 81.0665 153.174 80.8805C152.81 80.6707 152.39 80.5813 151.972 80.6248H147.858V85.717H146.773V74.2285H151.977ZM151.897 79.6748C152.217 79.6766 152.534 79.6255 152.837 79.5235C153.124 79.4284 153.39 79.2784 153.62 79.0817C153.843 78.8873 154.025 78.6496 154.154 78.3828C154.291 78.0889 154.358 77.7675 154.351 77.4433C154.367 77.1395 154.322 76.8357 154.219 76.5498C154.115 76.2639 153.956 76.0019 153.751 75.7792C153.497 75.5597 153.204 75.3931 152.886 75.2892C152.568 75.1853 152.233 75.1461 151.9 75.1741H147.846V79.6884L151.897 79.6748Z" fill="#EEF4FF" stroke="#EEF4FF" stroke-width="0.5"/>
<path d="M163.07 77.6987C163.282 77.0054 163.624 76.3594 164.077 75.7955C164.533 75.2355 165.107 74.7853 165.758 74.4778C166.496 74.1374 167.301 73.9698 168.112 73.9877C168.919 73.9694 169.721 74.137 170.454 74.4778C171.103 74.7867 171.674 75.2368 172.129 75.7955C172.583 76.3588 172.924 77.005 173.135 77.6987C173.58 79.1757 173.58 80.7526 173.135 82.2296C172.925 82.9209 172.583 83.5643 172.129 84.1237C171.673 84.6784 171.101 85.1252 170.454 85.4323C169.721 85.7731 168.919 85.9407 168.112 85.9225C167.301 85.9403 166.496 85.7727 165.758 85.4323C165.109 85.1266 164.534 84.6797 164.077 84.1237C163.623 83.5637 163.281 82.9205 163.07 82.2296C162.625 80.7526 162.625 79.1757 163.07 77.6987ZM164.068 81.803C164.223 82.3861 164.482 82.9357 164.833 83.4248C165.184 83.9052 165.639 84.2981 166.164 84.573C166.769 84.8787 167.44 85.0284 168.116 85.0087C168.788 85.0278 169.454 84.878 170.053 84.573C170.575 84.296 171.027 83.9034 171.375 83.4248C171.726 82.9357 171.986 82.3861 172.141 81.803C172.47 80.5964 172.47 79.3228 172.141 78.1162C171.985 77.5363 171.725 76.9898 171.375 76.5035C171.027 76.0229 170.575 75.6287 170.053 75.3507C169.453 75.0484 168.787 74.9002 168.116 74.9196C167.44 74.8996 166.77 75.0477 166.164 75.3507C165.638 75.6266 165.183 76.0211 164.833 76.5035C164.483 76.9898 164.224 77.5363 164.068 78.1162C163.738 79.3228 163.738 80.5964 164.068 81.803Z" fill="#EEF4FF" stroke="#EEF4FF" stroke-width="0.5"/>
<path d="M186.164 74.227C186.635 74.2204 187.104 74.2935 187.55 74.4433C187.948 74.5734 188.313 74.7916 188.616 75.082C188.92 75.3723 189.155 75.7273 189.304 76.121C189.625 77.0146 189.625 77.9929 189.304 78.8865C189.154 79.278 188.92 79.6313 188.618 79.9213C188.313 80.2112 187.948 80.4306 187.55 80.5642C187.104 80.714 186.635 80.7872 186.164 80.7806H182.191V85.6988H181.109V74.227H186.164ZM185.924 79.8502C186.584 79.8819 187.234 79.6771 187.759 79.2723C188.21 78.7959 188.462 78.1629 188.462 77.5045C188.462 76.8462 188.21 76.2132 187.759 75.7368C187.234 75.3319 186.584 75.1272 185.924 75.1589H182.191V79.8487L185.924 79.8502Z" fill="#EEF4FF" stroke="#EEF4FF" stroke-width="0.5"/>
<path d="M204.967 74.2285V75.1589H198.19V79.3026H204.538V80.2405H198.19V84.7685H205.048V85.7019H197.105V74.2285H204.967Z" fill="#EEF4FF" stroke="#EEF4FF" stroke-width="0.5"/>
<path d="M217.725 74.2295C218.174 74.2282 218.622 74.2872 219.056 74.405C219.453 74.5121 219.827 74.6949 220.156 74.9436C220.476 75.1898 220.733 75.5086 220.907 75.874C221.102 76.2929 221.198 76.7518 221.187 77.2143C221.203 77.8901 221.007 78.5539 220.628 79.1114C220.234 79.6608 219.64 80.031 218.976 80.1417V80.1719C219.301 80.213 219.615 80.3157 219.903 80.4745C220.141 80.6122 220.346 80.8013 220.503 81.0282C220.661 81.2653 220.775 81.53 220.837 81.8088C220.909 82.1226 220.955 82.4419 220.973 82.7634C220.982 82.9571 220.994 83.1946 221.005 83.4714C221.015 83.7483 221.035 84.0312 221.069 84.3156C221.099 84.5874 221.149 84.8564 221.22 85.1204C221.27 85.3338 221.366 85.5338 221.499 85.7074H220.297C220.228 85.5846 220.178 85.452 220.147 85.3141C220.11 85.1557 220.083 84.995 220.068 84.833C220.051 84.6666 220.038 84.5017 220.027 84.3428C220.017 84.184 220.006 84.0403 219.996 83.9238C219.975 83.5199 219.94 83.1144 219.892 82.7135C219.852 82.3406 219.751 81.977 219.592 81.6379C219.439 81.3301 219.208 81.0689 218.922 80.8815C218.558 80.6717 218.138 80.5822 217.721 80.6258H213.606V85.718H212.521V74.2295H217.725ZM217.645 79.6757C217.965 79.6774 218.282 79.6263 218.586 79.5244C218.872 79.4294 219.138 79.2794 219.368 79.0827C219.591 78.8889 219.773 78.651 219.901 78.3838C220.038 78.09 220.105 77.7686 220.099 77.4443C220.116 77.1404 220.071 76.8363 219.968 76.5503C219.865 76.2643 219.705 76.0023 219.499 75.7802C219.246 75.5605 218.952 75.3939 218.635 75.29C218.317 75.1861 217.983 75.147 217.65 75.175H213.595V79.6893L217.645 79.6757Z" fill="#EEF4FF" stroke="#EEF4FF" stroke-width="0.5"/>
<path d="M236.985 74.2295V75.1599H233.015V85.6998H231.928V75.1599H227.973V74.2295H236.985Z" fill="#EEF4FF" stroke="#EEF4FF" stroke-width="0.5"/>
<path d="M242.711 74.2295H243.989L247.736 80.0464L251.466 74.2295H252.759L248.261 80.9767V85.7013H247.174V80.9767L242.711 74.2295Z" fill="#EEF4FF" stroke="#EEF4FF" stroke-width="0.5"/>
<path d="M271.642 74.2295L275.421 84.2853L279.343 74.2295H280.938V85.6998H279.857V75.7877H279.825L275.934 85.7013H274.913L271.159 75.7877H271.127V85.7013H270.043V74.2295H271.642Z" fill="#EEF4FF" stroke="#EEF4FF" stroke-width="0.5"/>
<path d="M293.662 74.2295L298.126 85.6998H296.963L295.577 82.1326H290.393L289.02 85.6998H287.871L292.448 74.2295H293.662ZM295.21 81.2022L293.01 75.3218L290.729 81.2022H295.21Z" fill="#EEF4FF" stroke="#EEF4FF" stroke-width="0.5"/>
<path d="M306.308 74.2285L312.941 83.9303H312.973V74.2285H314.06V85.6989H312.845L306.212 75.9955H306.173V85.6989H305.092V74.2285H306.308Z" fill="#EEF4FF" stroke="#EEF4FF" stroke-width="0.5"/>
<path d="M326.833 74.2295L331.298 85.6998H330.134L328.748 82.1326H323.562L322.19 85.6998H321.041L325.618 74.2295H326.833ZM328.38 81.2022L326.18 75.3218L323.899 81.2022H328.38Z" fill="#EEF4FF" stroke="#EEF4FF" stroke-width="0.5"/>
<path d="M347.232 85.6998L347.082 83.6091H347.052C346.875 83.9997 346.634 84.3576 346.34 84.6681C346.067 84.9542 345.753 85.1979 345.409 85.3912C345.065 85.5783 344.697 85.7162 344.316 85.8012C343.921 85.8868 343.518 85.9294 343.114 85.9283C342.304 85.9462 341.5 85.7786 340.763 85.4381C340.113 85.1317 339.538 84.6849 339.079 84.1295C338.625 83.5701 338.284 82.9267 338.075 82.2354C337.626 80.7589 337.626 79.181 338.075 77.7045C338.285 77.0109 338.626 76.3647 339.079 75.8013C339.537 75.2419 340.112 74.7918 340.763 74.4837C341.5 74.1431 342.304 73.9755 343.114 73.9935C343.687 73.9901 344.257 74.0717 344.805 74.2355C345.318 74.3863 345.799 74.6314 346.223 74.9587C346.643 75.2848 347 75.6871 347.274 76.1448C347.575 76.6529 347.775 77.2149 347.864 77.7998H346.78C346.743 77.4458 346.631 77.1039 346.453 76.7968C346.257 76.4476 346.003 76.135 345.702 75.8724C345.369 75.5819 344.989 75.3507 344.579 75.1886C344.11 75.0077 343.612 74.9184 343.11 74.9254C342.434 74.9059 341.764 75.054 341.158 75.3566C340.631 75.6322 340.175 76.0268 339.826 76.5093C339.476 76.9962 339.217 77.5425 339.06 78.122C338.731 79.3286 338.731 80.6022 339.06 81.8088C339.216 82.3915 339.475 82.9409 339.826 83.4306C340.176 83.9112 340.632 84.3041 341.158 84.5788C341.763 84.884 342.433 85.0337 343.11 85.0145C343.686 85.0237 344.257 84.9172 344.792 84.7014C345.268 84.505 345.695 84.2055 346.043 83.8239C346.39 83.4409 346.652 82.9868 346.809 82.4926C346.983 81.948 347.064 81.3777 347.049 80.8058H343.171V79.8724H348.007V85.7074L347.232 85.6998Z" fill="#EEF4FF" stroke="#EEF4FF" stroke-width="0.5"/>
<path d="M363.914 74.2285V75.1589H357.137V79.3026H363.481V80.2405H357.137V84.7685H363.992V85.7019H356.051V74.2285H363.914Z" fill="#EEF4FF" stroke="#EEF4FF" stroke-width="0.5"/>
<path d="M373.015 74.2285L376.796 84.2843L380.717 74.2285H382.314V85.6989H381.229V75.7867H381.198L377.31 85.6989H376.29L372.536 75.7852H372.506V85.6989H371.42V74.2285H373.015Z" fill="#EEF4FF" stroke="#EEF4FF" stroke-width="0.5"/>
<path d="M398.354 74.2295V75.1599H391.577V79.3035H397.926V80.2415H391.577V84.7694H398.428V85.7029H390.488V74.2295H398.354Z" fill="#EEF4FF" stroke="#EEF4FF" stroke-width="0.5"/>
<path d="M407.097 74.2295L413.73 83.9313H413.762V74.2295H414.846V85.6998H413.628L406.995 75.9965H406.963V85.6998H405.879V74.2295H407.097Z" fill="#EEF4FF" stroke="#EEF4FF" stroke-width="0.5"/>
<path d="M430.871 74.2295V75.1599H426.902V85.6998H425.814V75.1599H421.863V74.2295H430.871Z" fill="#EEF4FF" stroke="#EEF4FF" stroke-width="0.5"/>
<path d="M449.052 26.3965V26.8609H447.068V32.118H446.532V26.8609H444.559V26.3965H449.052Z" fill="#EEF4FF"/>
<path d="M450.361 26.3965L452.25 31.4115L454.203 26.3965H455V32.1195H454.46V27.1711H454.44L452.503 32.1195H451.994L450.124 27.1711H450.109V32.1195H449.568V26.3965H450.361Z" fill="#EEF4FF"/>
<path d="M52.609 105.999C42.2037 105.999 32.0322 102.891 23.3807 97.0669C14.7292 91.2431 7.98624 82.9658 4.00447 73.2815C0.0226938 63.5972 -1.01904 52.9409 1.01099 42.6602C3.04102 32.3795 8.05165 22.9361 15.4093 15.5241C22.7669 8.11213 32.141 3.06448 42.3463 1.01944C52.5516 -1.0256 63.1297 0.0238381 72.7429 4.03504C82.3561 8.04624 90.5728 14.839 96.3538 23.5545C102.135 32.2699 105.221 42.5166 105.221 52.9987C105.205 67.0505 99.6569 80.5221 89.7937 90.4582C79.9305 100.394 66.5576 105.983 52.609 105.999ZM52.609 2.30354C42.6559 2.30354 32.9265 5.27676 24.6508 10.8472C16.3752 16.4177 9.92515 24.3352 6.1163 33.5985C2.30745 42.8619 1.31088 53.055 3.25262 62.8889C5.19435 72.7228 9.98718 81.7558 17.025 88.8456C24.0629 95.9355 33.0296 100.764 42.7914 102.72C52.5531 104.676 62.6715 103.672 71.8668 99.835C81.0622 95.998 88.9216 89.5003 94.4512 81.1635C99.9808 72.8267 102.932 63.0253 102.932 52.9987C102.917 39.5582 97.6104 26.6725 88.1762 17.1686C78.742 7.66473 65.9509 2.31875 52.609 2.30354Z" fill="#EEF4FF"/>
<path d="M42.7735 103.891C42.4251 103.619 42.0692 103.358 41.7223 103.082C38.2863 100.33 35.0891 97.3026 31.7372 94.4584C30.8058 93.6081 29.8266 92.8125 28.8043 92.0757C28.6024 91.9146 28.3529 91.826 28.0953 91.8238C27.8378 91.8216 27.5868 91.906 27.3822 92.0636C27.1843 92.2141 27.0411 92.4259 26.9746 92.6665C26.9081 92.9071 26.922 93.1631 27.0143 93.3949C27.1406 94.0103 27.3067 94.6167 27.5113 95.2103C27.6071 95.4004 27.6507 95.6129 27.6375 95.8257C27.6243 96.0386 27.5548 96.2439 27.4363 96.4206C22.1682 90.7224 17.6079 84.3997 13.856 77.5918C13.82 78.2075 13.7734 78.6402 13.7689 79.0774C13.7484 79.5407 13.8234 80.0033 13.9891 80.436C14.1547 80.8688 14.4075 81.2623 14.7315 81.5917C18.276 85.0795 20.701 89.5576 21.6936 94.4478C27.9158 99.1698 35.1254 102.399 42.7735 103.891Z" fill="#EEF4FF"/>
<path d="M87.8265 42.9761C87.8118 42.4587 87.6445 41.9573 87.346 41.5359C87.2979 41.4527 87.2453 41.368 87.1958 41.2848C86.3291 39.9141 85.3032 38.6526 84.1397 37.5269C82.2892 35.7796 80.2812 34.2095 78.1418 32.8371C77.3977 32.4049 76.7582 31.8116 76.2697 31.0999C75.7811 30.3882 75.4557 29.5761 75.317 28.7222C75.1386 27.2777 74.4014 25.9625 73.2656 25.0626C66.743 19.4389 59.6016 14.5873 51.9815 10.6029C51.8121 10.5463 51.6614 10.4441 51.5457 10.3072C51.43 10.1704 51.3538 10.0043 51.3252 9.82683C51.8786 9.68681 52.4428 9.59419 53.0117 9.54998C55.3085 9.46543 57.6073 9.64767 59.8626 10.0931C61.2172 10.3543 62.5923 10.4925 63.9714 10.5061C61.091 7.81022 53.4592 3.86323 47.0017 1.46387C33.9545 2.89661 21.947 9.30768 13.4454 19.3804C14.6858 18.2745 15.9503 17.1928 17.2538 16.1565C17.4347 15.9741 17.6633 15.8471 17.913 15.7904C18.0195 15.7661 18.1303 15.7691 18.2353 15.7993C18.3403 15.8294 18.436 15.8857 18.5137 15.9629C18.6759 16.1777 18.3861 16.2806 18.296 16.4304C18.1638 16.6467 17.9866 16.8403 17.8364 17.0461C15.3232 20.1381 13.1166 23.4706 11.2483 26.996C10.5468 28.3642 9.98674 29.8014 9.57688 31.2849C9.49394 31.5602 9.4997 31.8549 9.59332 32.1267C9.68694 32.3985 9.86361 32.6334 10.098 32.7978C10.3302 32.9864 10.6172 33.0935 10.9154 33.1028C11.2135 33.1121 11.5066 33.023 11.7499 32.8492C12.0754 32.6289 12.3734 32.3698 12.6374 32.0776C13.9867 30.6895 15.2287 29.1995 16.3527 27.6208C18.6879 24.3667 20.9751 21.0718 23.5611 18.0022C24.7672 16.4015 26.403 15.1821 28.275 14.4879C28.4252 14.4425 28.5754 14.3109 28.7916 14.5136C28.1789 14.8449 28.0303 15.4697 27.7404 15.9886C26.7417 17.5973 25.9352 19.3193 25.3376 21.1187C24.5152 24.3159 24.7031 27.692 25.8753 30.7766C27.0122 33.7658 28.4978 36.6081 30.3009 39.244C30.4225 39.4285 30.5291 39.6222 30.6913 39.8884C28.8825 39.4826 27.2301 38.5554 25.9353 37.2198C25.8122 37.1003 25.7251 36.7917 25.4337 36.9913C25.3311 37.0495 25.2509 37.141 25.2065 37.2509C25.162 37.3608 25.1559 37.4826 25.189 37.5965C25.4119 39.1355 25.76 40.6534 26.2297 42.135C27.2388 45.4194 28.673 48.5343 29.8684 51.74C30.0437 52.0559 30.14 52.41 30.1492 52.7718C28.3788 51.2829 26.8426 49.5323 25.5929 47.5797C24.1723 45.3036 22.9344 42.9168 21.8911 40.4421C21.8206 40.2833 21.807 40.0382 21.5112 40.0806C21.3933 40.0937 21.2818 40.141 21.1901 40.2167C21.0984 40.2924 21.0305 40.3933 20.9946 40.5072C20.951 40.6803 20.9568 40.8622 21.0111 41.0321C21.3956 42.7401 21.741 44.4587 22.1479 46.1637C23.1886 50.5509 24.9141 54.5236 28.7751 57.1953C28.9731 57.3277 29.1262 57.518 29.214 57.7405C29.3017 57.963 29.3199 58.2071 29.2662 58.4404C29.012 60.1657 28.9676 61.9159 29.134 63.6521C29.4277 66.5811 30.2 69.4411 31.4197 72.1164C34.6075 79.3869 39.0287 86.0421 44.4848 91.7833C44.6969 91.9427 44.859 92.1601 44.9519 92.4096C44.0371 92.2181 43.1619 91.8697 42.3644 91.3794C41.5985 90.8907 40.8461 90.3915 40.0832 89.9119C36.8018 87.918 33.6424 85.727 30.6223 83.3507C26.332 80.0731 22.7115 75.9907 19.9599 71.3282C17.7102 67.0808 16.1012 62.5195 15.1859 57.7944C14.7354 55.7914 14.3689 53.7823 13.7682 51.8187C13.6194 51.1585 13.2728 50.5603 12.7754 50.1052C12.2779 49.6501 11.6536 49.3599 10.987 49.2741C10.6761 49.2226 10.3698 49.1515 10.0559 49.1228C9.78562 49.1046 9.72254 49.0078 9.79463 48.7491C10.0124 48.032 10.1956 47.3089 10.4194 46.5964C11.3685 43.607 12.732 40.778 13.8133 37.8461C14.0176 37.4348 14.1546 36.9929 14.2188 36.5375C14.0145 36.5103 13.9349 36.6434 13.8373 36.7311C11.3252 39.048 9.175 41.7338 7.45942 44.6977C7.39217 44.8268 7.35479 44.9695 7.35011 45.1152C7.34543 45.2609 7.37356 45.4057 7.43239 45.5389C8.18817 48.3565 8.44239 51.2868 8.18326 54.1938C8.1091 54.8989 8.1833 55.6118 8.40101 56.2861C8.64727 56.9513 8.84454 57.6339 8.9912 58.3284C9.20144 59.4661 10.0724 60.1438 10.6611 61.0409C10.4231 59.6325 10.5011 58.1882 10.8894 56.8141C10.9555 57.1454 11.002 57.3768 11.0546 57.5977C11.2306 58.8542 11.4895 60.0975 11.8295 61.3193C14.1527 67.2758 17.4495 72.7984 21.5833 77.6579C29.3623 87.0935 38.3712 95.2901 47.4838 103.376C47.844 103.739 48.1163 104.181 48.2797 104.667C49.7064 104.786 51.151 104.862 52.6092 104.862C55.717 104.858 58.8181 104.572 61.875 104.007C62.0687 103.565 62.2954 103.127 62.4756 102.677C64.2837 98.4086 64.5935 93.6466 63.3542 89.1767C61.8803 84.401 59.2576 80.0663 55.7193 76.5581C55.6893 76.5324 55.6262 76.5399 55.5526 76.5233C58.4555 84.4657 59.5097 92.4974 57.1009 100.744C57.1339 96.903 56.4117 93.0935 54.976 89.5352C53.5707 86.1464 51.8506 82.899 49.8385 79.8364C47.1444 75.5687 44.3602 71.3645 41.9063 66.944C38.5414 61.1312 36.0409 54.8527 34.4847 48.3089C34.2359 47.4617 34.2665 46.5562 34.5718 45.728C36.5121 49.6614 38.1925 53.6734 41.205 56.8655C44.242 59.9323 47.825 62.3957 51.7667 64.1271C47.2946 57.8458 43.1047 51.4299 40.5878 44.0639C41.8532 45.1089 43.0159 46.2741 44.0598 47.5434C47.6154 51.4715 51.9518 54.6018 56.7871 56.7309C56.8171 56.69 56.8516 56.6476 56.8787 56.6068C56.5062 56.1983 56.1368 55.7884 55.7584 55.3965C52.0251 51.592 48.791 47.3213 46.1352 42.6887C46.0436 42.5162 45.8694 42.3634 45.9205 42.1017C46.0812 42.1758 46.2043 42.2258 46.3274 42.2878C48.0065 43.28 49.5683 44.461 50.9828 45.8082C51.9565 46.7035 53.0425 47.4664 54.2131 48.0774C54.4128 48.1773 54.6095 48.3316 54.8243 48.0381C54.8667 47.9923 54.8998 47.9384 54.9214 47.8797C54.943 47.8209 54.9529 47.7584 54.9504 47.6958C54.9479 47.6332 54.933 47.5717 54.9068 47.5149C54.8805 47.4581 54.8433 47.4071 54.7973 47.3649C54.1095 46.3997 53.4562 45.4103 52.7564 44.4572C52.4846 44.079 52.6603 43.9852 52.9967 43.9565C53.2037 43.946 53.4107 43.9777 53.6052 44.0497C53.7998 44.1217 53.9779 44.2325 54.129 44.3755C55.4247 45.4012 56.851 46.2474 58.3699 46.8914C60.7869 47.9566 63.2559 48.8978 65.7675 49.7113C66.8397 50.091 66.9253 50.5131 66.1955 51.3951C65.2839 52.4858 64.5721 53.7311 64.093 55.0728C63.6922 56.0056 63.5747 57.0371 63.7554 58.0371C63.9361 59.0371 64.4068 59.9608 65.1082 60.6915C65.9461 61.5582 66.9487 62.2461 68.0561 62.7141C68.6193 62.9698 69.1959 63.2043 69.8237 63.4705C69.4918 63.6687 69.223 63.8351 68.9572 63.9955C67.2248 64.9375 65.6564 66.1577 64.3138 67.6082C63.7817 68.1639 63.3602 68.8171 63.0718 69.5325C62.9009 69.914 62.8673 70.3436 62.977 70.7473C63.0866 71.151 63.3326 71.5036 63.6725 71.7443C64.0635 72.0445 64.4935 72.2893 64.9505 72.4719C68.1853 73.7715 71.6681 74.3241 75.1428 74.0891C75.7114 74.0654 76.268 73.9178 76.7746 73.6567C77.2811 73.3955 77.7255 73.027 78.0772 72.5763C79.7161 70.6251 80.9618 68.3708 81.7445 65.9395C82.0208 65.1034 82.2711 64.2547 82.4953 63.3934C82.7762 62.3344 82.4863 61.9017 81.4036 61.7989C80.5008 61.792 79.6021 61.9226 78.738 62.1861C77.8482 62.4476 76.8974 62.4039 76.0349 62.0621C77.427 60.864 79.1397 60.1071 80.9576 59.8866C81.8331 59.8546 82.6841 59.5869 83.422 59.1111C84.1599 58.6354 84.7578 57.9692 85.1534 57.1817C86.0747 55.4879 86.8132 53.6996 87.3565 51.8474C87.7704 50.3913 87.9727 48.8825 87.9572 47.3679C88.0425 46.7794 88.0927 46.1864 88.1073 45.5918C88.1193 44.7901 88.0402 43.9897 87.8716 43.2061C87.858 43.1108 87.8415 43.0457 87.8265 42.9761ZM35.8483 18.1656C34.5896 19.7525 33.9199 21.7321 33.9546 23.7631C33.9116 25.0834 33.982 26.405 34.1649 27.7131C33.1562 26.7774 32.348 25.6439 31.7899 24.3822C31.2319 23.1204 30.9357 21.7571 30.9196 20.3759C30.8738 19.8692 30.9384 19.3585 31.109 18.8796C31.2796 18.4008 31.5521 17.9652 31.9073 17.6035C32.2625 17.2418 32.6918 16.9627 33.1653 16.7856C33.6388 16.6086 34.145 16.538 34.6484 16.5786C34.9637 16.5731 35.2748 16.6525 35.5495 16.8086C36.2207 17.1444 36.3514 17.5983 35.8483 18.1656ZM61.5956 30.9506C60.5444 31.3333 60.3146 31.7403 60.4994 32.8401C60.609 33.4695 60.7997 34.0822 60.9844 34.8401C56.7361 32.8617 52.2697 31.3982 47.679 30.4801C51.977 27.9733 59.5938 27.6647 63.662 30.3122C62.9682 30.527 62.2684 30.71 61.5956 30.9506ZM87.2589 46.8248C86.6355 47.3289 86.0983 47.9324 85.6685 48.6115C85.251 49.2602 84.7629 49.86 84.2133 50.3996C83.937 50.6508 83.7883 50.6508 83.6577 50.2665C83.4354 49.619 83.1846 48.973 82.9188 48.3361C82.8272 48.0413 82.6466 47.7827 82.4022 47.5961C82.1578 47.4096 81.8617 47.3044 81.5553 47.2953C80.9517 47.2628 80.3502 47.1992 79.7532 47.1047C79.0996 46.8333 78.5536 46.3516 78.2004 45.7347C77.8473 45.1178 77.7068 44.4005 77.8009 43.6947C78.0066 43.7462 78.2199 43.7885 78.4256 43.846C80.9449 44.4906 83.5701 44.5968 86.1326 44.1577C86.5564 44.1015 86.9649 43.9605 87.3339 43.7431C87.2889 44.3029 87.2739 44.9534 87.2453 45.5828C87.2168 46.0003 87.2333 46.4269 87.2589 46.8248Z" fill="#EEF4FF"/>
</svg>
