<svg width="42" height="42" viewBox="0 0 42 42" fill="none" xmlns="http://www.w3.org/2000/svg">
<path d="M17.9375 22.75C17.9375 23.3302 17.707 23.8866 17.2968 24.2968C16.8866 24.707 16.3302 24.9375 15.75 24.9375C15.1698 24.9375 14.6134 24.707 14.2032 24.2968C13.793 23.8866 13.5625 23.3302 13.5625 22.75C13.5625 22.1698 13.793 21.6134 14.2032 21.2032C14.6134 20.793 15.1698 20.5625 15.75 20.5625C16.3302 20.5625 16.8866 20.793 17.2968 21.2032C17.707 21.6134 17.9375 22.1698 17.9375 22.75ZM26.25 20.5625C25.6698 20.5625 25.1134 20.793 24.7032 21.2032C24.293 21.6134 24.0625 22.1698 24.0625 22.75C24.0625 23.3302 24.293 23.8866 24.7032 24.2968C25.1134 24.707 25.6698 24.9375 26.25 24.9375C26.8302 24.9375 27.3866 24.707 27.7968 24.2968C28.207 23.8866 28.4375 23.3302 28.4375 22.75C28.4375 22.1698 28.207 21.6134 27.7968 21.2032C27.3866 20.793 26.8302 20.5625 26.25 20.5625ZM38.5 21C38.5 30.66 30.66 38.5 21 38.5C11.34 38.5 3.5 30.66 3.5 21C3.5 11.34 11.34 3.5 21 3.5C30.66 3.5 38.5 11.34 38.5 21ZM35 21C35 19.635 34.79 18.3225 34.4225 17.08C33.1975 17.3425 31.9375 17.5 30.625 17.5C28.0238 17.5006 25.4552 16.9212 23.1061 15.8042C20.7569 14.6871 18.6864 13.0605 17.045 11.0425C16.1261 13.2637 14.7602 15.2721 13.0321 16.9429C11.3041 18.6138 9.25083 19.9114 7 20.755C7.0175 20.825 7 20.9125 7 21C7 28.7175 13.2825 35 21 35C28.7175 35 35 28.7175 35 21Z" fill="white"/>
</svg>
