<svg width="229" height="198" viewBox="0 0 229 198" fill="none" xmlns="http://www.w3.org/2000/svg">
<g filter="url(#filter0_di_1390_10557)">
<rect width="188.654" height="157.212" rx="20" transform="matrix(1 0 0 -1 20 167.211)" fill="url(#paint0_linear_1390_10557)"/>
</g>
<path d="M136.771 67.709H91.6875V92.505H136.771V67.709Z" stroke="white" stroke-width="2" stroke-linecap="round" stroke-linejoin="round"/>
<path d="M118.738 56.4383V38.4049C118.738 37.2092 118.263 36.0624 117.417 35.217C116.572 34.3715 115.425 33.8965 114.229 33.8965C113.034 33.8965 111.887 34.3715 111.041 35.217C110.196 36.0624 109.721 37.2092 109.721 38.4049V56.4383H96.1959C95.0002 56.4383 93.8535 56.9133 93.008 57.7588C92.1625 58.6043 91.6875 59.751 91.6875 60.9467V67.7093H136.771V60.9467C136.771 59.751 136.296 58.6043 135.451 57.7588C134.605 56.9133 133.459 56.4383 132.263 56.4383H118.738Z" stroke="white" stroke-width="2" stroke-linecap="round" stroke-linejoin="round"/>
<path d="M100.707 92.507V83.4902" stroke="white" stroke-width="2" stroke-linecap="round" stroke-linejoin="round"/>
<path d="M109.719 92.507V83.4902" stroke="white" stroke-width="2" stroke-linecap="round" stroke-linejoin="round"/>
<path d="M118.738 92.507V83.4902" stroke="white" stroke-width="2" stroke-linecap="round" stroke-linejoin="round"/>
<path d="M127.758 92.507V83.4902" stroke="white" stroke-width="2" stroke-linecap="round" stroke-linejoin="round"/>
<rect x="20" y="114.389" width="188.654" height="52.8231" rx="20" fill="#54526B" fill-opacity="0.33"/>
<path d="M86.571 139.111V137.159H89.003C89.3123 137.159 89.595 137.095 89.851 136.967C90.107 136.839 90.3096 136.652 90.459 136.407C90.6083 136.161 90.683 135.863 90.683 135.511C90.683 135.169 90.6083 134.876 90.459 134.631C90.3096 134.385 90.107 134.199 89.851 134.071C89.595 133.943 89.3123 133.879 89.003 133.879H86.571V131.927H89.371C90.0856 131.927 90.731 132.071 91.307 132.359C91.883 132.647 92.3363 133.063 92.667 133.607C93.0083 134.14 93.179 134.775 93.179 135.511C93.179 136.247 93.0083 136.887 92.667 137.431C92.3363 137.964 91.883 138.38 91.307 138.679C90.731 138.967 90.0856 139.111 89.371 139.111H86.571ZM84.651 143.223V131.927H87.163V143.223H84.651ZM97.3937 143.383C96.6791 143.383 96.0391 143.207 95.4737 142.855C94.9191 142.503 94.4764 142.023 94.1457 141.415C93.8257 140.807 93.6657 140.113 93.6657 139.335C93.6657 138.556 93.8257 137.863 94.1457 137.255C94.4764 136.647 94.9191 136.167 95.4737 135.815C96.0391 135.463 96.6791 135.287 97.3937 135.287C97.9164 135.287 98.3857 135.388 98.8017 135.591C99.2284 135.793 99.5751 136.076 99.8417 136.439C100.108 136.791 100.258 137.196 100.29 137.655V141.015C100.258 141.473 100.108 141.884 99.8417 142.247C99.5857 142.599 99.2444 142.876 98.8177 143.079C98.3911 143.281 97.9164 143.383 97.3937 143.383ZM97.8897 141.175C98.4124 141.175 98.8337 141.004 99.1537 140.663C99.4737 140.311 99.6337 139.868 99.6337 139.335C99.6337 138.972 99.5591 138.652 99.4097 138.375C99.2711 138.097 99.0684 137.884 98.8017 137.735C98.5457 137.575 98.2471 137.495 97.9057 137.495C97.5644 137.495 97.2604 137.575 96.9937 137.735C96.7377 137.884 96.5297 138.097 96.3697 138.375C96.2204 138.652 96.1457 138.972 96.1457 139.335C96.1457 139.687 96.2204 140.001 96.3697 140.279C96.5191 140.556 96.7271 140.775 96.9937 140.935C97.2604 141.095 97.5591 141.175 97.8897 141.175ZM99.5377 143.223V141.127L99.9057 139.239L99.5377 137.351V135.447H101.938V143.223H99.5377ZM103.661 143.223V135.447H106.109V143.223H103.661ZM104.893 134.375C104.509 134.375 104.189 134.247 103.933 133.991C103.688 133.724 103.565 133.404 103.565 133.031C103.565 132.647 103.688 132.327 103.933 132.071C104.189 131.815 104.509 131.687 104.893 131.687C105.277 131.687 105.592 131.815 105.837 132.071C106.083 132.327 106.205 132.647 106.205 133.031C106.205 133.404 106.083 133.724 105.837 133.991C105.592 134.247 105.277 134.375 104.893 134.375ZM112.969 143.223V138.791C112.969 138.385 112.841 138.06 112.585 137.815C112.34 137.559 112.025 137.431 111.641 137.431C111.375 137.431 111.14 137.489 110.937 137.607C110.735 137.713 110.575 137.873 110.457 138.087C110.34 138.289 110.281 138.524 110.281 138.791L109.337 138.327C109.337 137.719 109.471 137.185 109.737 136.727C110.004 136.268 110.372 135.916 110.841 135.671C111.321 135.415 111.86 135.287 112.457 135.287C113.033 135.287 113.54 135.425 113.977 135.703C114.425 135.969 114.777 136.327 115.033 136.775C115.289 137.223 115.417 137.713 115.417 138.247V143.223H112.969ZM107.833 143.223V135.447H110.281V143.223H107.833ZM118 143.223V132.231H120.448V143.223H118ZM116.24 137.527V135.447H122.208V137.527H116.24ZM123.286 143.223V135.447H125.734V143.223H123.286ZM124.518 134.375C124.134 134.375 123.814 134.247 123.558 133.991C123.313 133.724 123.19 133.404 123.19 133.031C123.19 132.647 123.313 132.327 123.558 132.071C123.814 131.815 124.134 131.687 124.518 131.687C124.902 131.687 125.217 131.815 125.462 132.071C125.708 132.327 125.83 132.647 125.83 133.031C125.83 133.404 125.708 133.724 125.462 133.991C125.217 134.247 124.902 134.375 124.518 134.375ZM132.594 143.223V138.791C132.594 138.385 132.466 138.06 132.21 137.815C131.965 137.559 131.65 137.431 131.266 137.431C131 137.431 130.765 137.489 130.562 137.607C130.36 137.713 130.2 137.873 130.082 138.087C129.965 138.289 129.906 138.524 129.906 138.791L128.962 138.327C128.962 137.719 129.096 137.185 129.362 136.727C129.629 136.268 129.997 135.916 130.466 135.671C130.946 135.415 131.485 135.287 132.082 135.287C132.658 135.287 133.165 135.425 133.602 135.703C134.05 135.969 134.402 136.327 134.658 136.775C134.914 137.223 135.042 137.713 135.042 138.247V143.223H132.594ZM127.458 143.223V135.447H129.906V143.223H127.458ZM139.91 146.711C139.057 146.711 138.305 146.561 137.654 146.263C137.014 145.975 136.508 145.564 136.134 145.031L137.638 143.527C137.916 143.857 138.225 144.108 138.566 144.279C138.918 144.449 139.34 144.535 139.83 144.535C140.438 144.535 140.913 144.385 141.254 144.087C141.606 143.788 141.782 143.367 141.782 142.823V140.839L142.198 139.143L141.83 137.447V135.447H144.23V142.759C144.23 143.559 144.044 144.252 143.67 144.839C143.297 145.425 142.785 145.884 142.134 146.215C141.484 146.545 140.742 146.711 139.91 146.711ZM139.798 142.983C139.084 142.983 138.449 142.812 137.894 142.471C137.34 142.129 136.902 141.665 136.582 141.079C136.262 140.492 136.102 139.841 136.102 139.127C136.102 138.401 136.262 137.751 136.582 137.175C136.902 136.588 137.34 136.129 137.894 135.799C138.449 135.457 139.084 135.287 139.798 135.287C140.332 135.287 140.806 135.388 141.222 135.591C141.649 135.783 141.99 136.06 142.246 136.423C142.513 136.775 142.662 137.185 142.694 137.655V140.615C142.662 141.073 142.513 141.484 142.246 141.847C141.99 142.199 141.649 142.476 141.222 142.679C140.796 142.881 140.321 142.983 139.798 142.983ZM140.262 140.807C140.604 140.807 140.897 140.732 141.142 140.583C141.398 140.433 141.59 140.236 141.718 139.991C141.857 139.735 141.926 139.447 141.926 139.127C141.926 138.807 141.857 138.519 141.718 138.263C141.59 138.007 141.398 137.804 141.142 137.655C140.897 137.505 140.604 137.431 140.262 137.431C139.932 137.431 139.638 137.505 139.382 137.655C139.126 137.804 138.929 138.007 138.79 138.263C138.652 138.519 138.582 138.807 138.582 139.127C138.582 139.425 138.652 139.708 138.79 139.975C138.929 140.231 139.121 140.433 139.366 140.583C139.622 140.732 139.921 140.807 140.262 140.807Z" fill="#EEF4FF"/>
<g filter="url(#filter1_di_1390_10557)">
<path d="M52.6953 115.646C52.6953 110.089 57.2 105.584 62.7569 105.584H164.63C170.187 105.584 174.691 110.089 174.691 115.646C174.691 121.202 170.187 125.707 164.63 125.707H62.7569C57.2 125.707 52.6953 121.202 52.6953 115.646Z" fill="#376990"/>
</g>
<g filter="url(#filter2_d_1390_10557)">
<path d="M92.9706 118.457C92.464 118.457 92.0206 118.357 91.6406 118.157C91.2673 117.957 90.934 117.667 90.6406 117.287L91.2706 116.657C91.484 116.957 91.7306 117.194 92.0106 117.367C92.2906 117.541 92.6206 117.627 93.0006 117.627C93.4073 117.627 93.734 117.534 93.9806 117.347C94.234 117.161 94.3606 116.901 94.3606 116.567C94.3606 116.307 94.3006 116.097 94.1806 115.937C94.0606 115.777 93.9006 115.647 93.7006 115.547C93.5006 115.441 93.2806 115.347 93.0406 115.267C92.8006 115.181 92.5606 115.091 92.3206 114.997C92.0873 114.897 91.8706 114.777 91.6706 114.637C91.4706 114.491 91.3106 114.301 91.1906 114.067C91.0706 113.834 91.0106 113.541 91.0106 113.187C91.0106 112.794 91.104 112.461 91.2906 112.187C91.484 111.907 91.744 111.694 92.0706 111.547C92.3973 111.394 92.764 111.317 93.1706 111.317C93.5906 111.317 93.974 111.407 94.3206 111.587C94.6673 111.761 94.954 111.991 95.1806 112.277L94.5506 112.907C94.344 112.667 94.1273 112.481 93.9006 112.347C93.674 112.214 93.424 112.147 93.1506 112.147C92.764 112.147 92.4606 112.231 92.2406 112.397C92.0206 112.564 91.9106 112.807 91.9106 113.127C91.9106 113.361 91.9706 113.551 92.0906 113.697C92.2173 113.837 92.3806 113.957 92.5806 114.057C92.7873 114.157 93.0073 114.251 93.2406 114.337C93.4806 114.417 93.7206 114.507 93.9606 114.607C94.2073 114.707 94.4306 114.834 94.6306 114.987C94.8306 115.141 94.9906 115.341 95.1106 115.587C95.2373 115.827 95.3006 116.131 95.3006 116.497C95.3006 117.111 95.0906 117.591 94.6706 117.937C94.2506 118.284 93.684 118.457 92.9706 118.457ZM92.8306 119.357V110.417H93.4906V119.357H92.8306ZM96.2795 115.967L98.8095 111.417H99.8695L97.2895 115.967H96.2795ZM96.2795 116.547V115.967L96.6795 115.707H101.6V116.547H96.2795ZM99.6695 118.357V113.767H100.6V118.357H99.6695ZM105.226 118.457C104.706 118.457 104.229 118.311 103.796 118.017C103.369 117.724 103.029 117.311 102.776 116.777C102.523 116.237 102.396 115.604 102.396 114.877C102.396 114.151 102.519 113.521 102.766 112.987C103.019 112.454 103.359 112.044 103.786 111.757C104.213 111.464 104.683 111.317 105.196 111.317C105.723 111.317 106.199 111.464 106.626 111.757C107.053 112.044 107.389 112.454 107.636 112.987C107.889 113.521 108.016 114.154 108.016 114.887C108.016 115.614 107.889 116.247 107.636 116.787C107.389 117.321 107.053 117.734 106.626 118.027C106.206 118.314 105.739 118.457 105.226 118.457ZM105.206 117.567C105.573 117.567 105.893 117.467 106.166 117.267C106.446 117.061 106.666 116.757 106.826 116.357C106.986 115.957 107.066 115.464 107.066 114.877C107.066 114.291 106.986 113.801 106.826 113.407C106.666 113.007 106.446 112.707 106.166 112.507C105.886 112.301 105.563 112.197 105.196 112.197C104.836 112.197 104.516 112.301 104.236 112.507C103.956 112.707 103.736 113.007 103.576 113.407C103.423 113.801 103.346 114.291 103.346 114.877C103.346 115.464 103.423 115.957 103.576 116.357C103.736 116.757 103.956 117.061 104.236 117.267C104.516 117.467 104.839 117.567 105.206 117.567ZM111.229 116.237V115.387H114.519V116.237H111.229ZM120.158 118.457C119.651 118.457 119.208 118.357 118.828 118.157C118.455 117.957 118.121 117.667 117.828 117.287L118.458 116.657C118.671 116.957 118.918 117.194 119.198 117.367C119.478 117.541 119.808 117.627 120.188 117.627C120.595 117.627 120.921 117.534 121.168 117.347C121.421 117.161 121.548 116.901 121.548 116.567C121.548 116.307 121.488 116.097 121.368 115.937C121.248 115.777 121.088 115.647 120.888 115.547C120.688 115.441 120.468 115.347 120.228 115.267C119.988 115.181 119.748 115.091 119.508 114.997C119.275 114.897 119.058 114.777 118.858 114.637C118.658 114.491 118.498 114.301 118.378 114.067C118.258 113.834 118.198 113.541 118.198 113.187C118.198 112.794 118.291 112.461 118.478 112.187C118.671 111.907 118.931 111.694 119.258 111.547C119.585 111.394 119.951 111.317 120.358 111.317C120.778 111.317 121.161 111.407 121.508 111.587C121.855 111.761 122.141 111.991 122.368 112.277L121.738 112.907C121.531 112.667 121.315 112.481 121.088 112.347C120.861 112.214 120.611 112.147 120.338 112.147C119.951 112.147 119.648 112.231 119.428 112.397C119.208 112.564 119.098 112.807 119.098 113.127C119.098 113.361 119.158 113.551 119.278 113.697C119.405 113.837 119.568 113.957 119.768 114.057C119.975 114.157 120.195 114.251 120.428 114.337C120.668 114.417 120.908 114.507 121.148 114.607C121.395 114.707 121.618 114.834 121.818 114.987C122.018 115.141 122.178 115.341 122.298 115.587C122.425 115.827 122.488 116.131 122.488 116.497C122.488 117.111 122.278 117.591 121.858 117.937C121.438 118.284 120.871 118.457 120.158 118.457ZM120.018 119.357V110.417H120.678V119.357H120.018ZM124.867 118.357V111.417H125.797V118.357H124.867ZM123.447 112.257V111.417H125.697V112.257H123.447ZM126.934 117.787L129.494 115.087C129.754 114.821 129.957 114.591 130.104 114.397C130.25 114.197 130.354 114.014 130.414 113.847C130.48 113.681 130.514 113.507 130.514 113.327C130.514 112.974 130.4 112.697 130.174 112.497C129.947 112.297 129.654 112.197 129.294 112.197C128.94 112.197 128.63 112.284 128.364 112.457C128.097 112.624 127.86 112.884 127.654 113.237L126.994 112.687C127.267 112.234 127.597 111.894 127.984 111.667C128.37 111.434 128.817 111.317 129.324 111.317C129.75 111.317 130.12 111.401 130.434 111.567C130.754 111.734 131 111.967 131.174 112.267C131.347 112.567 131.434 112.917 131.434 113.317C131.434 113.604 131.397 113.861 131.324 114.087C131.257 114.314 131.134 114.547 130.954 114.787C130.78 115.021 130.537 115.301 130.224 115.627L128.154 117.757L126.934 117.787ZM126.934 118.357V117.787L127.734 117.517H131.594V118.357H126.934ZM135.314 118.457C134.794 118.457 134.317 118.311 133.884 118.017C133.457 117.724 133.117 117.311 132.864 116.777C132.611 116.237 132.484 115.604 132.484 114.877C132.484 114.151 132.607 113.521 132.854 112.987C133.107 112.454 133.447 112.044 133.874 111.757C134.301 111.464 134.771 111.317 135.284 111.317C135.811 111.317 136.287 111.464 136.714 111.757C137.141 112.044 137.477 112.454 137.724 112.987C137.977 113.521 138.104 114.154 138.104 114.887C138.104 115.614 137.977 116.247 137.724 116.787C137.477 117.321 137.141 117.734 136.714 118.027C136.294 118.314 135.827 118.457 135.314 118.457ZM135.294 117.567C135.661 117.567 135.981 117.467 136.254 117.267C136.534 117.061 136.754 116.757 136.914 116.357C137.074 115.957 137.154 115.464 137.154 114.877C137.154 114.291 137.074 113.801 136.914 113.407C136.754 113.007 136.534 112.707 136.254 112.507C135.974 112.301 135.651 112.197 135.284 112.197C134.924 112.197 134.604 112.301 134.324 112.507C134.044 112.707 133.824 113.007 133.664 113.407C133.511 113.801 133.434 114.291 133.434 114.877C133.434 115.464 133.511 115.957 133.664 116.357C133.824 116.757 134.044 117.061 134.324 117.267C134.604 117.467 134.927 117.567 135.294 117.567Z" fill="#EEF4FF"/>
</g>
<defs>
<filter id="filter0_di_1390_10557" x="0" y="-0.000976562" width="228.652" height="197.212" filterUnits="userSpaceOnUse" color-interpolation-filters="sRGB">
<feFlood flood-opacity="0" result="BackgroundImageFix"/>
<feColorMatrix in="SourceAlpha" type="matrix" values="0 0 0 0 0 0 0 0 0 0 0 0 0 0 0 0 0 0 127 0" result="hardAlpha"/>
<feOffset dy="10"/>
<feGaussianBlur stdDeviation="10"/>
<feComposite in2="hardAlpha" operator="out"/>
<feColorMatrix type="matrix" values="0 0 0 0 0.0215278 0 0 0 0 0.04625 0 0 0 0 0.0833333 0 0 0 0.5 0"/>
<feBlend mode="normal" in2="BackgroundImageFix" result="effect1_dropShadow_1390_10557"/>
<feBlend mode="normal" in="SourceGraphic" in2="effect1_dropShadow_1390_10557" result="shape"/>
<feColorMatrix in="SourceAlpha" type="matrix" values="0 0 0 0 0 0 0 0 0 0 0 0 0 0 0 0 0 0 127 0" result="hardAlpha"/>
<feOffset dx="1" dy="5"/>
<feGaussianBlur stdDeviation="2.5"/>
<feComposite in2="hardAlpha" operator="arithmetic" k2="-1" k3="1"/>
<feColorMatrix type="matrix" values="0 0 0 0 1 0 0 0 0 0.679167 0 0 0 0 0.71995 0 0 0 0.5 0"/>
<feBlend mode="normal" in2="shape" result="effect2_innerShadow_1390_10557"/>
</filter>
<filter id="filter1_di_1390_10557" x="49.6953" y="102.584" width="131.996" height="30.123" filterUnits="userSpaceOnUse" color-interpolation-filters="sRGB">
<feFlood flood-opacity="0" result="BackgroundImageFix"/>
<feColorMatrix in="SourceAlpha" type="matrix" values="0 0 0 0 0 0 0 0 0 0 0 0 0 0 0 0 0 0 127 0" result="hardAlpha"/>
<feOffset dx="2" dy="2"/>
<feGaussianBlur stdDeviation="2.5"/>
<feComposite in2="hardAlpha" operator="out"/>
<feColorMatrix type="matrix" values="0 0 0 0 0 0 0 0 0 0 0 0 0 0 0 0 0 0 0.05 0"/>
<feBlend mode="normal" in2="BackgroundImageFix" result="effect1_dropShadow_1390_10557"/>
<feBlend mode="normal" in="SourceGraphic" in2="effect1_dropShadow_1390_10557" result="shape"/>
<feColorMatrix in="SourceAlpha" type="matrix" values="0 0 0 0 0 0 0 0 0 0 0 0 0 0 0 0 0 0 127 0" result="hardAlpha"/>
<feOffset dx="2" dy="2"/>
<feGaussianBlur stdDeviation="5"/>
<feComposite in2="hardAlpha" operator="arithmetic" k2="-1" k3="1"/>
<feColorMatrix type="matrix" values="0 0 0 0 0.274722 0 0 0 0 0.553181 0 0 0 0 0.766667 0 0 0 1 0"/>
<feBlend mode="normal" in2="shape" result="effect2_innerShadow_1390_10557"/>
</filter>
<filter id="filter2_d_1390_10557" x="86.6406" y="106.417" width="55.4648" height="16.9404" filterUnits="userSpaceOnUse" color-interpolation-filters="sRGB">
<feFlood flood-opacity="0" result="BackgroundImageFix"/>
<feColorMatrix in="SourceAlpha" type="matrix" values="0 0 0 0 0 0 0 0 0 0 0 0 0 0 0 0 0 0 127 0" result="hardAlpha"/>
<feOffset/>
<feGaussianBlur stdDeviation="2"/>
<feComposite in2="hardAlpha" operator="out"/>
<feColorMatrix type="matrix" values="0 0 0 0 0 0 0 0 0 0 0 0 0 0 0 0 0 0 0.15 0"/>
<feBlend mode="normal" in2="BackgroundImageFix" result="effect1_dropShadow_1390_10557"/>
<feBlend mode="normal" in="SourceGraphic" in2="effect1_dropShadow_1390_10557" result="shape"/>
</filter>
<linearGradient id="paint0_linear_1390_10557" x1="157.031" y1="249.411" x2="157.031" y2="-36.6433" gradientUnits="userSpaceOnUse">
<stop offset="0.215766" stop-color="#F8B195"/>
<stop offset="0.347043" stop-color="#F2727F"/>
<stop offset="0.454452" stop-color="#C06C83"/>
<stop offset="0.576778" stop-color="#6C5B7B"/>
<stop offset="0.678219" stop-color="#335E7E"/>
</linearGradient>
</defs>
</svg>
