<svg width="189" height="158" viewBox="0 0 189 158" fill="none" xmlns="http://www.w3.org/2000/svg">
<g filter="url(#filter0_i_1390_10439)">
<rect width="188.654" height="157.212" rx="20" fill="#C9D7E5"/>
</g>
<g clip-path="url(#clip0_1390_10439)">
<path d="M97 32.3127L97.0541 23.7812" stroke="#396D96" stroke-width="2" stroke-miterlimit="10" stroke-linecap="round"/>
<path d="M115.461 37.4914L120.824 31.5039" stroke="#396D96" stroke-width="2" stroke-miterlimit="10" stroke-linecap="round"/>
<path d="M115.328 54.6074L122.859 54.6693" stroke="#396D96" stroke-width="2" stroke-miterlimit="10" stroke-linecap="round"/>
<path d="M70.8281 54.2441L78.3592 54.306" stroke="#396D96" stroke-width="2" stroke-miterlimit="10" stroke-linecap="round"/>
<path d="M115.367 70.8555L120.693 76.1092" stroke="#396D96" stroke-width="2" stroke-miterlimit="10" stroke-linecap="round"/>
<path d="M73.1641 33.3789L78.4527 39.4535" stroke="#396D96" stroke-width="2" stroke-miterlimit="10" stroke-linecap="round"/>
<path d="M109.639 69.6429L85.4467 72.9374C84.6318 73.0498 83.8823 72.3752 83.7855 71.4588L83.737 70.9781C83.6401 70.0533 84.2271 69.2072 85.0421 69.0947L109.231 65.7974C110.046 65.685 110.795 66.3596 110.892 67.276L110.944 67.7567C111.043 68.6843 110.456 69.5304 109.639 69.6429Z" stroke="#396D96" stroke-width="2" stroke-miterlimit="10" stroke-linecap="round"/>
<path d="M109.382 62.3822L85.2074 65.6796C84.3924 65.792 83.643 65.1174 83.5461 64.201L83.4948 63.7203C83.398 62.7955 83.9849 61.9494 84.7999 61.8369L108.989 58.5396C109.804 58.4272 110.553 59.1018 110.65 60.0182L110.701 60.4989C110.807 61.4237 110.211 62.2726 109.382 62.3822Z" stroke="#396D96" stroke-width="2" stroke-miterlimit="10" stroke-linecap="round"/>
<path d="M109.15 55.1253L84.9613 58.4198C84.1463 58.5322 83.3969 57.8576 83.3 56.9412L83.2487 56.4605C83.1519 55.5357 83.7389 54.6896 84.5538 54.5771L108.743 51.2798C109.558 51.1674 110.307 51.842 110.404 52.7584L110.455 53.2391C110.555 54.1667 109.968 55.0129 109.15 55.1253Z" stroke="#396D96" stroke-width="2" stroke-miterlimit="10" stroke-linecap="round"/>
<path d="M108.908 47.8647L84.7191 51.162C83.9041 51.2744 83.1547 50.5998 83.0578 49.6834L83.0066 49.2027C82.9097 48.2779 83.4967 47.4318 84.3116 47.3193L108.498 44.022C109.313 43.9096 110.062 44.5842 110.159 45.5006L110.21 45.9813C110.31 46.9061 109.723 47.755 108.908 47.8647Z" stroke="#396D96" stroke-width="2" stroke-miterlimit="10" stroke-linecap="round"/>
<path d="M108.662 40.6069L84.473 43.8957C83.658 44.0082 82.9086 43.3335 82.8118 42.4171L82.7605 41.9365C82.6636 41.0116 83.2506 40.1655 84.0655 40.0531L108.24 36.7642C109.055 36.6518 109.805 37.3264 109.902 38.2428L109.953 38.7235C110.067 39.6483 109.48 40.4944 108.662 40.6069Z" stroke="#396D96" stroke-width="2" stroke-miterlimit="10" stroke-linecap="round"/>
<path d="M91.0312 75.4794C91.3772 76.3692 91.5512 77.315 91.5442 78.2679C91.5442 79.6903 92.5472 80.8513 93.8009 80.8625L98.645 80.9019C99.9016 80.9019 100.925 79.7774 100.925 78.3438C100.923 76.7508 101.447 75.2005 102.418 73.9277L91.0312 75.4794Z" stroke="#396D96" stroke-width="2" stroke-miterlimit="10" stroke-linecap="round"/>
<path d="M73.0469 76.0604L78.3725 70.8066" stroke="#396D96" stroke-width="2" stroke-miterlimit="10" stroke-linecap="round"/>
</g>
<g filter="url(#filter1_i_1390_10439)">
<rect y="105.646" width="188.654" height="51.5654" rx="25.7827" fill="#376990" fill-opacity="0.2"/>
</g>
<path d="M60.0768 133.223V121.927H62.5888V133.223H60.0768ZM61.9968 133.223V131.047H68.1888V133.223H61.9968ZM61.9968 128.503V126.407H67.6288V128.503H61.9968ZM61.9968 124.087V121.927H68.1088V124.087H61.9968ZM69.6966 133.223V121.607H72.1446V133.223H69.6966ZM77.7084 133.399C76.8658 133.399 76.1138 133.228 75.4524 132.887C74.8018 132.535 74.2898 132.049 73.9164 131.431C73.5431 130.812 73.3564 130.113 73.3564 129.335C73.3564 128.556 73.5378 127.863 73.9004 127.255C74.2738 126.636 74.7751 126.151 75.4044 125.799C76.0338 125.447 76.7431 125.271 77.5324 125.271C78.3004 125.271 78.9778 125.436 79.5644 125.767C80.1511 126.097 80.6098 126.556 80.9404 127.143C81.2818 127.729 81.4524 128.401 81.4524 129.159C81.4524 129.297 81.4418 129.447 81.4204 129.607C81.4098 129.756 81.3831 129.932 81.3404 130.135L74.6364 130.151V128.471L80.3004 128.455L79.2444 129.159C79.2338 128.711 79.1644 128.343 79.0364 128.055C78.9084 127.756 78.7164 127.532 78.4604 127.383C78.2151 127.223 77.9111 127.143 77.5484 127.143C77.1644 127.143 76.8284 127.233 76.5404 127.415C76.2631 127.585 76.0444 127.831 75.8844 128.151C75.7351 128.471 75.6604 128.86 75.6604 129.319C75.6604 129.777 75.7404 130.172 75.9004 130.503C76.0711 130.823 76.3058 131.073 76.6044 131.255C76.9138 131.425 77.2764 131.511 77.6924 131.511C78.0764 131.511 78.4231 131.447 78.7324 131.319C79.0418 131.18 79.3138 130.977 79.5484 130.711L80.8924 132.055C80.5084 132.503 80.0444 132.839 79.5004 133.063C78.9564 133.287 78.3591 133.399 77.7084 133.399ZM86.3941 133.399C85.5941 133.399 84.8687 133.223 84.2181 132.871C83.5674 132.519 83.0554 132.033 82.6821 131.415C82.3087 130.796 82.1221 130.103 82.1221 129.335C82.1221 128.556 82.3087 127.863 82.6821 127.255C83.0661 126.636 83.5834 126.151 84.2341 125.799C84.8847 125.447 85.6154 125.271 86.4261 125.271C87.0341 125.271 87.5887 125.377 88.0901 125.591C88.6021 125.793 89.0554 126.103 89.4501 126.519L87.8821 128.087C87.7007 127.884 87.4874 127.735 87.2421 127.639C87.0074 127.543 86.7354 127.495 86.4261 127.495C86.0741 127.495 85.7594 127.575 85.4821 127.735C85.2154 127.884 85.0021 128.097 84.8421 128.375C84.6927 128.641 84.6181 128.956 84.6181 129.319C84.6181 129.681 84.6927 130.001 84.8421 130.279C85.0021 130.556 85.2207 130.775 85.4981 130.935C85.7754 131.095 86.0847 131.175 86.4261 131.175C86.7461 131.175 87.0287 131.121 87.2741 131.015C87.5301 130.897 87.7487 130.737 87.9301 130.535L89.4821 132.103C89.0767 132.529 88.6181 132.855 88.1061 133.079C87.5941 133.292 87.0234 133.399 86.3941 133.399ZM91.5506 133.223V122.231H93.9986V133.223H91.5506ZM89.7906 127.527V125.447H95.7586V127.527H89.7906ZM96.8372 133.223V125.447H99.2852V133.223H96.8372ZM99.2852 128.951L98.2612 128.151C98.4639 127.244 98.8052 126.54 99.2852 126.039C99.7652 125.537 100.432 125.287 101.285 125.287C101.659 125.287 101.984 125.345 102.261 125.463C102.549 125.569 102.8 125.74 103.013 125.975L101.557 127.815C101.451 127.697 101.317 127.607 101.157 127.543C100.997 127.479 100.816 127.447 100.613 127.447C100.208 127.447 99.8825 127.575 99.6372 127.831C99.4025 128.076 99.2852 128.449 99.2852 128.951ZM103.665 133.223V125.447H106.113V133.223H103.665ZM104.897 124.375C104.513 124.375 104.193 124.247 103.937 123.991C103.692 123.724 103.569 123.404 103.569 123.031C103.569 122.647 103.692 122.327 103.937 122.071C104.193 121.815 104.513 121.687 104.897 121.687C105.281 121.687 105.596 121.815 105.841 122.071C106.087 122.327 106.209 122.647 106.209 123.031C106.209 123.404 106.087 123.724 105.841 123.991C105.596 124.247 105.281 124.375 104.897 124.375ZM111.597 133.399C110.797 133.399 110.072 133.223 109.421 132.871C108.771 132.519 108.259 132.033 107.885 131.415C107.512 130.796 107.325 130.103 107.325 129.335C107.325 128.556 107.512 127.863 107.885 127.255C108.269 126.636 108.787 126.151 109.437 125.799C110.088 125.447 110.819 125.271 111.629 125.271C112.237 125.271 112.792 125.377 113.293 125.591C113.805 125.793 114.259 126.103 114.653 126.519L113.085 128.087C112.904 127.884 112.691 127.735 112.445 127.639C112.211 127.543 111.939 127.495 111.629 127.495C111.277 127.495 110.963 127.575 110.685 127.735C110.419 127.884 110.205 128.097 110.045 128.375C109.896 128.641 109.821 128.956 109.821 129.319C109.821 129.681 109.896 130.001 110.045 130.279C110.205 130.556 110.424 130.775 110.701 130.935C110.979 131.095 111.288 131.175 111.629 131.175C111.949 131.175 112.232 131.121 112.477 131.015C112.733 130.897 112.952 130.737 113.133 130.535L114.685 132.103C114.28 132.529 113.821 132.855 113.309 133.079C112.797 133.292 112.227 133.399 111.597 133.399ZM118.835 133.383C118.121 133.383 117.481 133.207 116.915 132.855C116.361 132.503 115.918 132.023 115.587 131.415C115.267 130.807 115.107 130.113 115.107 129.335C115.107 128.556 115.267 127.863 115.587 127.255C115.918 126.647 116.361 126.167 116.915 125.815C117.481 125.463 118.121 125.287 118.835 125.287C119.358 125.287 119.827 125.388 120.243 125.591C120.67 125.793 121.017 126.076 121.283 126.439C121.55 126.791 121.699 127.196 121.731 127.655V131.015C121.699 131.473 121.55 131.884 121.283 132.247C121.027 132.599 120.686 132.876 120.259 133.079C119.833 133.281 119.358 133.383 118.835 133.383ZM119.331 131.175C119.854 131.175 120.275 131.004 120.595 130.663C120.915 130.311 121.075 129.868 121.075 129.335C121.075 128.972 121.001 128.652 120.851 128.375C120.713 128.097 120.51 127.884 120.243 127.735C119.987 127.575 119.689 127.495 119.347 127.495C119.006 127.495 118.702 127.575 118.435 127.735C118.179 127.884 117.971 128.097 117.811 128.375C117.662 128.652 117.587 128.972 117.587 129.335C117.587 129.687 117.662 130.001 117.811 130.279C117.961 130.556 118.169 130.775 118.435 130.935C118.702 131.095 119.001 131.175 119.331 131.175ZM120.979 133.223V131.127L121.347 129.239L120.979 127.351V125.447H123.379V133.223H120.979ZM125.103 133.223V121.607H127.551V133.223H125.103Z" fill="#315D80"/>
<g filter="url(#filter2_di_1390_10439)">
<path d="M32.6992 105.646C32.6992 100.089 37.2039 95.584 42.7608 95.584H144.634C150.191 95.584 154.695 100.089 154.695 105.646C154.695 111.202 150.191 115.707 144.634 115.707H42.7608C37.2039 115.707 32.6992 111.202 32.6992 105.646Z" fill="#376990"/>
</g>
<g filter="url(#filter3_d_1390_10439)">
<path d="M72.9745 108.457C72.4679 108.457 72.0245 108.357 71.6445 108.157C71.2712 107.957 70.9379 107.667 70.6445 107.287L71.2745 106.657C71.4879 106.957 71.7345 107.194 72.0145 107.367C72.2945 107.541 72.6245 107.627 73.0045 107.627C73.4112 107.627 73.7379 107.534 73.9845 107.347C74.2379 107.161 74.3645 106.901 74.3645 106.567C74.3645 106.307 74.3045 106.097 74.1845 105.937C74.0645 105.777 73.9045 105.647 73.7045 105.547C73.5045 105.441 73.2845 105.347 73.0445 105.267C72.8045 105.181 72.5645 105.091 72.3245 104.997C72.0912 104.897 71.8745 104.777 71.6745 104.637C71.4745 104.491 71.3145 104.301 71.1945 104.067C71.0745 103.834 71.0145 103.541 71.0145 103.187C71.0145 102.794 71.1079 102.461 71.2945 102.187C71.4879 101.907 71.7479 101.694 72.0745 101.547C72.4012 101.394 72.7679 101.317 73.1745 101.317C73.5945 101.317 73.9779 101.407 74.3245 101.587C74.6712 101.761 74.9579 101.991 75.1845 102.277L74.5545 102.907C74.3479 102.667 74.1312 102.481 73.9045 102.347C73.6779 102.214 73.4279 102.147 73.1545 102.147C72.7679 102.147 72.4645 102.231 72.2445 102.397C72.0245 102.564 71.9145 102.807 71.9145 103.127C71.9145 103.361 71.9745 103.551 72.0945 103.697C72.2212 103.837 72.3845 103.957 72.5845 104.057C72.7912 104.157 73.0112 104.251 73.2445 104.337C73.4845 104.417 73.7245 104.507 73.9645 104.607C74.2112 104.707 74.4345 104.834 74.6345 104.987C74.8345 105.141 74.9945 105.341 75.1145 105.587C75.2412 105.827 75.3045 106.131 75.3045 106.497C75.3045 107.111 75.0945 107.591 74.6745 107.937C74.2545 108.284 73.6879 108.457 72.9745 108.457ZM72.8345 109.357V100.417H73.4945V109.357H72.8345ZM76.2834 105.967L78.8134 101.417H79.8734L77.2934 105.967H76.2834ZM76.2834 106.547V105.967L76.6834 105.707H81.6034V106.547H76.2834ZM79.6734 108.357V103.767H80.6034V108.357H79.6734ZM85.23 108.457C84.71 108.457 84.2333 108.311 83.8 108.017C83.3733 107.724 83.0333 107.311 82.78 106.777C82.5267 106.237 82.4 105.604 82.4 104.877C82.4 104.151 82.5233 103.521 82.77 102.987C83.0233 102.454 83.3633 102.044 83.79 101.757C84.2167 101.464 84.6867 101.317 85.2 101.317C85.7267 101.317 86.2033 101.464 86.63 101.757C87.0567 102.044 87.3933 102.454 87.64 102.987C87.8933 103.521 88.02 104.154 88.02 104.887C88.02 105.614 87.8933 106.247 87.64 106.787C87.3933 107.321 87.0567 107.734 86.63 108.027C86.21 108.314 85.7433 108.457 85.23 108.457ZM85.21 107.567C85.5767 107.567 85.8967 107.467 86.17 107.267C86.45 107.061 86.67 106.757 86.83 106.357C86.99 105.957 87.07 105.464 87.07 104.877C87.07 104.291 86.99 103.801 86.83 103.407C86.67 103.007 86.45 102.707 86.17 102.507C85.89 102.301 85.5667 102.197 85.2 102.197C84.84 102.197 84.52 102.301 84.24 102.507C83.96 102.707 83.74 103.007 83.58 103.407C83.4267 103.801 83.35 104.291 83.35 104.877C83.35 105.464 83.4267 105.957 83.58 106.357C83.74 106.757 83.96 107.061 84.24 107.267C84.52 107.467 84.8433 107.567 85.21 107.567ZM91.2326 106.237V105.387H94.5226V106.237H91.2326ZM100.162 108.457C99.6554 108.457 99.212 108.357 98.832 108.157C98.4587 107.957 98.1254 107.667 97.832 107.287L98.462 106.657C98.6754 106.957 98.922 107.194 99.202 107.367C99.482 107.541 99.812 107.627 100.192 107.627C100.599 107.627 100.925 107.534 101.172 107.347C101.425 107.161 101.552 106.901 101.552 106.567C101.552 106.307 101.492 106.097 101.372 105.937C101.252 105.777 101.092 105.647 100.892 105.547C100.692 105.441 100.472 105.347 100.232 105.267C99.992 105.181 99.752 105.091 99.512 104.997C99.2787 104.897 99.062 104.777 98.862 104.637C98.662 104.491 98.502 104.301 98.382 104.067C98.262 103.834 98.202 103.541 98.202 103.187C98.202 102.794 98.2954 102.461 98.482 102.187C98.6754 101.907 98.9354 101.694 99.262 101.547C99.5887 101.394 99.9554 101.317 100.362 101.317C100.782 101.317 101.165 101.407 101.512 101.587C101.859 101.761 102.145 101.991 102.372 102.277L101.742 102.907C101.535 102.667 101.319 102.481 101.092 102.347C100.865 102.214 100.615 102.147 100.342 102.147C99.9554 102.147 99.652 102.231 99.432 102.397C99.212 102.564 99.102 102.807 99.102 103.127C99.102 103.361 99.162 103.551 99.282 103.697C99.4087 103.837 99.572 103.957 99.772 104.057C99.9787 104.157 100.199 104.251 100.432 104.337C100.672 104.417 100.912 104.507 101.152 104.607C101.399 104.707 101.622 104.834 101.822 104.987C102.022 105.141 102.182 105.341 102.302 105.587C102.429 105.827 102.492 106.131 102.492 106.497C102.492 107.111 102.282 107.591 101.862 107.937C101.442 108.284 100.875 108.457 100.162 108.457ZM100.022 109.357V100.417H100.682V109.357H100.022ZM104.871 108.357V101.417H105.801V108.357H104.871ZM103.451 102.257V101.417H105.701V102.257H103.451ZM106.938 107.787L109.498 105.087C109.758 104.821 109.961 104.591 110.108 104.397C110.254 104.197 110.358 104.014 110.418 103.847C110.484 103.681 110.518 103.507 110.518 103.327C110.518 102.974 110.404 102.697 110.178 102.497C109.951 102.297 109.658 102.197 109.298 102.197C108.944 102.197 108.634 102.284 108.368 102.457C108.101 102.624 107.864 102.884 107.658 103.237L106.998 102.687C107.271 102.234 107.601 101.894 107.988 101.667C108.374 101.434 108.821 101.317 109.328 101.317C109.754 101.317 110.124 101.401 110.438 101.567C110.758 101.734 111.004 101.967 111.178 102.267C111.351 102.567 111.438 102.917 111.438 103.317C111.438 103.604 111.401 103.861 111.328 104.087C111.261 104.314 111.138 104.547 110.958 104.787C110.784 105.021 110.541 105.301 110.228 105.627L108.158 107.757L106.938 107.787ZM106.938 108.357V107.787L107.738 107.517H111.598V108.357H106.938ZM115.318 108.457C114.798 108.457 114.321 108.311 113.888 108.017C113.461 107.724 113.121 107.311 112.868 106.777C112.615 106.237 112.488 105.604 112.488 104.877C112.488 104.151 112.611 103.521 112.858 102.987C113.111 102.454 113.451 102.044 113.878 101.757C114.305 101.464 114.775 101.317 115.288 101.317C115.815 101.317 116.291 101.464 116.718 101.757C117.145 102.044 117.481 102.454 117.728 102.987C117.981 103.521 118.108 104.154 118.108 104.887C118.108 105.614 117.981 106.247 117.728 106.787C117.481 107.321 117.145 107.734 116.718 108.027C116.298 108.314 115.831 108.457 115.318 108.457ZM115.298 107.567C115.665 107.567 115.985 107.467 116.258 107.267C116.538 107.061 116.758 106.757 116.918 106.357C117.078 105.957 117.158 105.464 117.158 104.877C117.158 104.291 117.078 103.801 116.918 103.407C116.758 103.007 116.538 102.707 116.258 102.507C115.978 102.301 115.655 102.197 115.288 102.197C114.928 102.197 114.608 102.301 114.328 102.507C114.048 102.707 113.828 103.007 113.668 103.407C113.515 103.801 113.438 104.291 113.438 104.877C113.438 105.464 113.515 105.957 113.668 106.357C113.828 106.757 114.048 107.061 114.328 107.267C114.608 107.467 114.931 107.567 115.298 107.567Z" fill="#EEF4FF"/>
</g>
<defs>
<filter id="filter0_i_1390_10439" x="0" y="0" width="192.652" height="162.212" filterUnits="userSpaceOnUse" color-interpolation-filters="sRGB">
<feFlood flood-opacity="0" result="BackgroundImageFix"/>
<feBlend mode="normal" in="SourceGraphic" in2="BackgroundImageFix" result="shape"/>
<feColorMatrix in="SourceAlpha" type="matrix" values="0 0 0 0 0 0 0 0 0 0 0 0 0 0 0 0 0 0 127 0" result="hardAlpha"/>
<feOffset dx="4" dy="5"/>
<feGaussianBlur stdDeviation="2.5"/>
<feComposite in2="hardAlpha" operator="arithmetic" k2="-1" k3="1"/>
<feColorMatrix type="matrix" values="0 0 0 0 0.221667 0 0 0 0 0.487936 0 0 0 0 0.933333 0 0 0 0.06 0"/>
<feBlend mode="normal" in2="shape" result="effect1_innerShadow_1390_10439"/>
</filter>
<filter id="filter1_i_1390_10439" x="0" y="105.646" width="192.652" height="53.5654" filterUnits="userSpaceOnUse" color-interpolation-filters="sRGB">
<feFlood flood-opacity="0" result="BackgroundImageFix"/>
<feBlend mode="normal" in="SourceGraphic" in2="BackgroundImageFix" result="shape"/>
<feColorMatrix in="SourceAlpha" type="matrix" values="0 0 0 0 0 0 0 0 0 0 0 0 0 0 0 0 0 0 127 0" result="hardAlpha"/>
<feOffset dx="4" dy="2"/>
<feGaussianBlur stdDeviation="2.5"/>
<feComposite in2="hardAlpha" operator="arithmetic" k2="-1" k3="1"/>
<feColorMatrix type="matrix" values="0 0 0 0 0.215686 0 0 0 0 0.411765 0 0 0 0 0.564706 0 0 0 0.1 0"/>
<feBlend mode="normal" in2="shape" result="effect1_innerShadow_1390_10439"/>
</filter>
<filter id="filter2_di_1390_10439" x="29.6992" y="92.584" width="131.996" height="30.123" filterUnits="userSpaceOnUse" color-interpolation-filters="sRGB">
<feFlood flood-opacity="0" result="BackgroundImageFix"/>
<feColorMatrix in="SourceAlpha" type="matrix" values="0 0 0 0 0 0 0 0 0 0 0 0 0 0 0 0 0 0 127 0" result="hardAlpha"/>
<feOffset dx="2" dy="2"/>
<feGaussianBlur stdDeviation="2.5"/>
<feComposite in2="hardAlpha" operator="out"/>
<feColorMatrix type="matrix" values="0 0 0 0 0 0 0 0 0 0 0 0 0 0 0 0 0 0 0.05 0"/>
<feBlend mode="normal" in2="BackgroundImageFix" result="effect1_dropShadow_1390_10439"/>
<feBlend mode="normal" in="SourceGraphic" in2="effect1_dropShadow_1390_10439" result="shape"/>
<feColorMatrix in="SourceAlpha" type="matrix" values="0 0 0 0 0 0 0 0 0 0 0 0 0 0 0 0 0 0 127 0" result="hardAlpha"/>
<feOffset dx="2" dy="2"/>
<feGaussianBlur stdDeviation="5"/>
<feComposite in2="hardAlpha" operator="arithmetic" k2="-1" k3="1"/>
<feColorMatrix type="matrix" values="0 0 0 0 0.274722 0 0 0 0 0.553181 0 0 0 0 0.766667 0 0 0 1 0"/>
<feBlend mode="normal" in2="shape" result="effect2_innerShadow_1390_10439"/>
</filter>
<filter id="filter3_d_1390_10439" x="66.6445" y="96.417" width="55.4648" height="16.9404" filterUnits="userSpaceOnUse" color-interpolation-filters="sRGB">
<feFlood flood-opacity="0" result="BackgroundImageFix"/>
<feColorMatrix in="SourceAlpha" type="matrix" values="0 0 0 0 0 0 0 0 0 0 0 0 0 0 0 0 0 0 127 0" result="hardAlpha"/>
<feOffset/>
<feGaussianBlur stdDeviation="2"/>
<feComposite in2="hardAlpha" operator="out"/>
<feColorMatrix type="matrix" values="0 0 0 0 0 0 0 0 0 0 0 0 0 0 0 0 0 0 0.15 0"/>
<feBlend mode="normal" in2="BackgroundImageFix" result="effect1_dropShadow_1390_10439"/>
<feBlend mode="normal" in="SourceGraphic" in2="effect1_dropShadow_1390_10439" result="shape"/>
</filter>
<clipPath id="clip0_1390_10439">
<rect width="72.9462" height="59.1115" fill="white" transform="translate(60.3711 23.8965)"/>
</clipPath>
</defs>
</svg>
