<svg width="228" height="62" viewBox="0 0 228 62" fill="none" xmlns="http://www.w3.org/2000/svg">
<g filter="url(#filter0_i_1390_10464)">
<rect width="228" height="62" rx="31" fill="#376990" fill-opacity="0.2"/>
</g>
<path d="M195 40L188.667 33.6667M176 28.3889C176 29.3592 176.191 30.32 176.562 31.2165C176.934 32.113 177.478 32.9275 178.164 33.6136C178.85 34.2997 179.665 34.844 180.561 35.2153C181.458 35.5867 182.419 35.7778 183.389 35.7778C184.359 35.7778 185.32 35.5867 186.216 35.2153C187.113 34.844 187.927 34.2997 188.614 33.6136C189.3 32.9275 189.844 32.113 190.215 31.2165C190.587 30.32 190.778 29.3592 190.778 28.3889C190.778 27.4186 190.587 26.4577 190.215 25.5613C189.844 24.6648 189.3 23.8503 188.614 23.1642C187.927 22.478 187.113 21.9338 186.216 21.5624C185.32 21.1911 184.359 21 183.389 21C182.419 21 181.458 21.1911 180.561 21.5624C179.665 21.9338 178.85 22.478 178.164 23.1642C177.478 23.8503 176.934 24.6648 176.562 25.5613C176.191 26.4577 176 27.4186 176 28.3889Z" stroke="#315D80" stroke-width="2" stroke-linecap="round" stroke-linejoin="round"/>
<path d="M39.5 38.2C38.4067 38.2 37.4733 38 36.7 37.6C35.9267 37.2 35.24 36.62 34.64 35.86L35.92 34.58C36.36 35.1933 36.8667 35.66 37.44 35.98C38.0133 36.2867 38.72 36.44 39.56 36.44C40.3867 36.44 41.0467 36.26 41.54 35.9C42.0467 35.54 42.3 35.0467 42.3 34.42C42.3 33.9 42.18 33.48 41.94 33.16C41.7 32.84 41.3733 32.58 40.96 32.38C40.56 32.1667 40.12 31.98 39.64 31.82C39.16 31.6467 38.68 31.4667 38.2 31.28C37.72 31.08 37.28 30.84 36.88 30.56C36.48 30.2667 36.1533 29.8867 35.9 29.42C35.66 28.9533 35.54 28.3667 35.54 27.66C35.54 26.8733 35.7267 26.2067 36.1 25.66C36.4867 25.1 37.0067 24.6733 37.66 24.38C38.3267 24.0733 39.0733 23.92 39.9 23.92C40.8067 23.92 41.62 24.1 42.34 24.46C43.06 24.8067 43.6467 25.2667 44.1 25.84L42.82 27.12C42.4067 26.64 41.96 26.28 41.48 26.04C41.0133 25.8 40.4733 25.68 39.86 25.68C39.1133 25.68 38.52 25.8467 38.08 26.18C37.64 26.5 37.42 26.9533 37.42 27.54C37.42 28.0067 37.54 28.3867 37.78 28.68C38.0333 28.96 38.36 29.2 38.76 29.4C39.16 29.6 39.6 29.7867 40.08 29.96C40.5733 30.12 41.06 30.3 41.54 30.5C42.02 30.7 42.46 30.9533 42.86 31.26C43.26 31.5667 43.58 31.9667 43.82 32.46C44.0733 32.94 44.2 33.5467 44.2 34.28C44.2 35.5067 43.7733 36.4667 42.92 37.16C42.08 37.8533 40.94 38.2 39.5 38.2ZM50.677 38.2C49.7304 38.2 48.877 37.9867 48.117 37.56C47.357 37.12 46.757 36.5267 46.317 35.78C45.877 35.0333 45.657 34.1867 45.657 33.24C45.657 32.3067 45.8704 31.4667 46.297 30.72C46.737 29.9733 47.3237 29.3867 48.057 28.96C48.8037 28.52 49.637 28.3 50.557 28.3C51.437 28.3 52.2104 28.5 52.877 28.9C53.557 29.3 54.0837 29.8533 54.457 30.56C54.8437 31.2667 55.037 32.0667 55.037 32.96C55.037 33.0933 55.0304 33.24 55.017 33.4C55.0037 33.5467 54.977 33.72 54.937 33.92H46.917V32.42H53.977L53.317 33C53.317 32.36 53.2037 31.82 52.977 31.38C52.7504 30.9267 52.4304 30.58 52.017 30.34C51.6037 30.0867 51.1037 29.96 50.517 29.96C49.9037 29.96 49.3637 30.0933 48.897 30.36C48.4304 30.6267 48.0704 31 47.817 31.48C47.5637 31.96 47.437 32.5267 47.437 33.18C47.437 33.8467 47.5704 34.4333 47.837 34.94C48.1037 35.4333 48.4837 35.82 48.977 36.1C49.4704 36.3667 50.037 36.5 50.677 36.5C51.2104 36.5 51.697 36.4067 52.137 36.22C52.5904 36.0333 52.977 35.7533 53.297 35.38L54.457 36.56C54.0037 37.0933 53.4437 37.5 52.777 37.78C52.1237 38.06 51.4237 38.2 50.677 38.2ZM61.0397 38.2C60.173 38.2 59.3864 37.9867 58.6797 37.56C57.973 37.12 57.413 36.5267 56.9997 35.78C56.5997 35.0333 56.3997 34.1933 56.3997 33.26C56.3997 32.3267 56.5997 31.4867 56.9997 30.74C57.413 29.9933 57.9664 29.4 58.6597 28.96C59.3664 28.52 60.1597 28.3 61.0397 28.3C61.7597 28.3 62.3997 28.4533 62.9597 28.76C63.533 29.0533 63.993 29.4667 64.3397 30C64.6864 30.52 64.8797 31.1267 64.9197 31.82V34.68C64.8797 35.36 64.6864 35.9667 64.3397 36.5C64.0064 37.0333 63.553 37.4533 62.9797 37.76C62.4197 38.0533 61.773 38.2 61.0397 38.2ZM61.3397 36.5C62.233 36.5 62.953 36.2 63.4997 35.6C64.0464 34.9867 64.3197 34.2067 64.3197 33.26C64.3197 32.6067 64.193 32.04 63.9397 31.56C63.6997 31.0667 63.353 30.6867 62.8997 30.42C62.4464 30.14 61.9197 30 61.3197 30C60.7197 30 60.1864 30.14 59.7197 30.42C59.2664 30.7 58.9064 31.0867 58.6397 31.58C58.3864 32.06 58.2597 32.6133 58.2597 33.24C58.2597 33.88 58.3864 34.4467 58.6397 34.94C58.9064 35.42 59.273 35.8 59.7397 36.08C60.2064 36.36 60.7397 36.5 61.3397 36.5ZM64.1997 38V35.44L64.5397 33.12L64.1997 30.82V28.5H66.0197V38H64.1997ZM68.6403 38V28.5H70.4403V38H68.6403ZM70.4403 32.58L69.7603 32.28C69.7603 31.0667 70.0403 30.1 70.6003 29.38C71.1603 28.66 71.967 28.3 73.0203 28.3C73.5003 28.3 73.9336 28.3867 74.3203 28.56C74.707 28.72 75.067 28.9933 75.4003 29.38L74.2203 30.6C74.0203 30.3867 73.8003 30.2333 73.5603 30.14C73.3203 30.0467 73.0403 30 72.7203 30C72.0536 30 71.507 30.2133 71.0803 30.64C70.6536 31.0667 70.4403 31.7133 70.4403 32.58ZM80.6952 38.2C79.7618 38.2 78.9152 37.98 78.1552 37.54C77.4085 37.1 76.8152 36.5067 76.3752 35.76C75.9485 35 75.7352 34.16 75.7352 33.24C75.7352 32.3067 75.9485 31.4667 76.3752 30.72C76.8152 29.9733 77.4085 29.3867 78.1552 28.96C78.9152 28.52 79.7618 28.3 80.6952 28.3C81.4285 28.3 82.1085 28.44 82.7352 28.72C83.3618 28.9867 83.9018 29.38 84.3552 29.9L83.1552 31.1C82.8618 30.7533 82.5018 30.4933 82.0752 30.32C81.6618 30.1333 81.2018 30.04 80.6952 30.04C80.0952 30.04 79.5618 30.18 79.0952 30.46C78.6285 30.7267 78.2618 31.1 77.9952 31.58C77.7285 32.06 77.5952 32.6133 77.5952 33.24C77.5952 33.8667 77.7285 34.42 77.9952 34.9C78.2618 35.38 78.6285 35.76 79.0952 36.04C79.5618 36.32 80.0952 36.46 80.6952 36.46C81.2018 36.46 81.6618 36.3733 82.0752 36.2C82.5018 36.0133 82.8685 35.7467 83.1752 35.4L84.3552 36.6C83.9152 37.1067 83.3752 37.5 82.7352 37.78C82.1085 38.06 81.4285 38.2 80.6952 38.2ZM92.8603 38V32.46C92.8603 31.74 92.6336 31.1467 92.1803 30.68C91.727 30.2133 91.1403 29.98 90.4203 29.98C89.9403 29.98 89.5136 30.0867 89.1403 30.3C88.767 30.5133 88.4736 30.8067 88.2603 31.18C88.047 31.5533 87.9403 31.98 87.9403 32.46L87.2003 32.04C87.2003 31.32 87.3603 30.68 87.6803 30.12C88.0003 29.56 88.447 29.12 89.0203 28.8C89.5936 28.4667 90.2403 28.3 90.9603 28.3C91.6803 28.3 92.3136 28.46 92.8603 28.78C93.4203 29.1 93.8603 29.5467 94.1803 30.12C94.5003 30.6933 94.6603 31.3533 94.6603 32.1V38H92.8603ZM86.1403 38V23.72H87.9403V38H86.1403Z" fill="#315D80"/>
<defs>
<filter id="filter0_i_1390_10464" x="0" y="0" width="232" height="67" filterUnits="userSpaceOnUse" color-interpolation-filters="sRGB">
<feFlood flood-opacity="0" result="BackgroundImageFix"/>
<feBlend mode="normal" in="SourceGraphic" in2="BackgroundImageFix" result="shape"/>
<feColorMatrix in="SourceAlpha" type="matrix" values="0 0 0 0 0 0 0 0 0 0 0 0 0 0 0 0 0 0 127 0" result="hardAlpha"/>
<feOffset dx="4" dy="5"/>
<feGaussianBlur stdDeviation="2.5"/>
<feComposite in2="hardAlpha" operator="arithmetic" k2="-1" k3="1"/>
<feColorMatrix type="matrix" values="0 0 0 0 0.221667 0 0 0 0 0.487936 0 0 0 0 0.933333 0 0 0 0.12 0"/>
<feBlend mode="normal" in2="shape" result="effect1_innerShadow_1390_10464"/>
</filter>
</defs>
</svg>
