<svg width="189" height="158" viewBox="0 0 189 158" fill="none" xmlns="http://www.w3.org/2000/svg">
<g filter="url(#filter0_i_1390_10515)">
<rect width="188.654" height="157.212" rx="20" fill="#C9D7E5"/>
</g>
<g clip-path="url(#clip0_1390_10515)">
<path d="M117.75 61.5096C118.641 58.9894 119.126 56.2773 119.126 53.4525C119.126 40.1035 108.303 29.2812 94.9544 29.2812C86.3446 29.2812 78.7854 33.7836 74.5039 40.5612" stroke="#396D96" stroke-width="2" stroke-miterlimit="10" stroke-linecap="round" stroke-linejoin="round"/>
<path d="M74.0078 27.6699V40.5613H86.8992" stroke="#396D96" stroke-width="2" stroke-miterlimit="10" stroke-linecap="round" stroke-linejoin="round"/>
<path d="M72.1613 45.3965C71.2702 47.9167 70.7852 50.6288 70.7852 53.4536C70.7852 66.8026 81.6074 77.6248 94.9564 77.6248C103.566 77.6248 111.125 73.1225 115.407 66.3449" stroke="#396D96" stroke-width="2" stroke-miterlimit="10" stroke-linecap="round" stroke-linejoin="round"/>
<path d="M115.903 79.2351V66.3438H103.012" stroke="#396D96" stroke-width="2" stroke-miterlimit="10" stroke-linecap="round" stroke-linejoin="round"/>
<path d="M99.9325 42.8285L99.9326 42.8282L99.9207 42.8249C98.2847 42.3718 96.7548 41.5991 95.4193 40.5513C95.2945 40.4344 95.1314 40.3667 94.9603 40.3607L94.9603 40.3607L94.9569 40.3607C94.7717 40.3574 94.5927 40.4258 94.4569 40.5514C93.1348 41.6076 91.61 42.3813 89.9769 42.8246L89.9768 42.8241L89.9636 42.8287C89.3956 43.0262 88.1036 43.3079 86.9279 43.5423C86.3434 43.6588 85.7927 43.7627 85.3832 43.8374C85.1785 43.8747 85.0093 43.9048 84.8891 43.9254C84.829 43.9357 84.7816 43.9436 84.7483 43.9489C84.7316 43.9515 84.7193 43.9533 84.7111 43.9545C84.7105 43.9546 84.7099 43.9546 84.7094 43.9547H84.7033L84.6874 43.9573C84.5224 43.984 84.3721 44.0683 84.2633 44.1953C84.1545 44.3222 84.0942 44.4836 84.093 44.6508H84.093V44.6522C84.093 52.8621 84.1887 56.7236 86.7448 60.6504C87.8484 62.3474 89.7875 63.6968 91.4586 64.6286C93.0382 65.5093 94.4035 66.0304 94.6542 66.1261C94.6696 66.132 94.6808 66.1363 94.6876 66.139L94.7055 66.1459L94.7243 66.1494C94.7988 66.1631 94.875 66.1642 94.9497 66.1527H95.1057H95.1434L95.1785 66.139C95.1858 66.1361 95.1983 66.1314 95.2157 66.1248C95.4765 66.0256 96.8459 65.5053 98.4274 64.6288C100.109 63.6971 102.058 62.3477 103.162 60.6503C105.718 56.7235 105.814 52.8621 105.814 44.6522L105.814 44.6508C105.813 44.4836 105.752 44.3222 105.643 44.1953C105.535 44.0683 105.384 43.984 105.219 43.9573L105.219 43.9572L105.21 43.9557L105.176 43.9495L105.042 43.9257C104.927 43.9049 104.761 43.8748 104.558 43.8374C104.152 43.7627 103.598 43.6588 103.008 43.5422C101.82 43.3078 100.506 43.0261 99.9325 42.8285ZM90.4342 44.2571L90.4343 44.2575L90.4464 44.2536C92.0582 43.7303 93.5792 42.9611 94.9556 41.9735C96.3468 42.9342 97.8773 43.6761 99.4938 44.1733L99.4937 44.1735L99.503 44.1759C101.127 44.5914 102.771 44.9232 104.428 45.17C104.385 53.5054 104.155 56.492 101.974 59.8433L101.942 59.8931V59.933C101.079 61.2267 99.5641 62.3322 98.1248 63.1666C96.7426 63.9679 95.4529 64.5063 94.9331 64.7123C94.4146 64.5064 93.1347 63.9681 91.7622 63.1669C90.315 62.3221 88.79 61.1992 87.9328 59.8839C85.7517 56.5329 85.5215 53.5464 85.5085 45.2513C87.1663 45.0046 88.8104 44.6728 90.4342 44.2571Z" fill="#396D96" stroke="#396D96" stroke-width="0.4"/>
<path d="M89.3403 53.692L89.3403 53.692C89.4004 53.6209 89.4741 53.5625 89.5571 53.5203C89.6401 53.4781 89.7307 53.453 89.8235 53.4464L89.8378 53.6458L89.8235 53.4464C89.9164 53.4397 90.0096 53.4517 90.0978 53.4817C90.1852 53.5115 90.2659 53.5583 90.3351 53.6194L94.814 57.4431L100.283 49.4139L100.283 49.4132C100.39 49.2578 100.554 49.1511 100.739 49.1166C100.925 49.0822 101.116 49.1228 101.272 49.2296C101.427 49.3364 101.534 49.5005 101.569 49.686C101.603 49.8713 101.562 50.0627 101.456 50.2181C101.456 50.2182 101.456 50.2183 101.456 50.2184L95.5477 58.8873C95.5476 58.8875 95.5475 58.8876 95.5473 58.8878C95.4914 58.9707 95.4188 59.041 95.3342 59.0943C95.2493 59.1476 95.1543 59.1826 95.0551 59.1969L95.0408 59.199H95.0264H94.9566H94.9553V58.999C94.8356 59.0006 94.7196 58.9571 94.6304 58.8772L89.3403 53.692ZM89.3403 53.692L89.3388 53.6939C89.2196 53.8386 89.1618 54.024 89.1776 54.2108C89.1933 54.3975 89.2815 54.5706 89.4232 54.6932L89.4242 54.694L94.4989 59.0278L89.3403 53.692Z" fill="#396D96" stroke="#396D96" stroke-width="0.4"/>
</g>
<g filter="url(#filter1_i_1390_10515)">
<rect y="105.646" width="188.654" height="51.5654" rx="25.7827" fill="#376990" fill-opacity="0.2"/>
</g>
<path d="M54.0241 128.567V126.711H56.4081C56.9094 126.711 57.2934 126.583 57.5601 126.327C57.8374 126.071 57.9761 125.724 57.9761 125.287C57.9761 124.881 57.8428 124.545 57.5761 124.279C57.3094 124.012 56.9254 123.879 56.4241 123.879H54.0241V121.927H56.7121C57.4588 121.927 58.1148 122.071 58.6801 122.359C59.2454 122.636 59.6881 123.025 60.0081 123.527C60.3281 124.028 60.4881 124.604 60.4881 125.255C60.4881 125.916 60.3281 126.497 60.0081 126.999C59.6881 127.489 59.2401 127.873 58.6641 128.151C58.0881 128.428 57.4108 128.567 56.6321 128.567H54.0241ZM52.1041 133.223V121.927H54.6161V133.223H52.1041ZM58.2481 133.223L54.7281 128.359L57.0321 127.735L61.2241 133.223H58.2481ZM65.7357 133.399C64.8931 133.399 64.1411 133.228 63.4797 132.887C62.8291 132.535 62.3171 132.049 61.9437 131.431C61.5704 130.812 61.3837 130.113 61.3837 129.335C61.3837 128.556 61.5651 127.863 61.9277 127.255C62.3011 126.636 62.8024 126.151 63.4317 125.799C64.0611 125.447 64.7704 125.271 65.5597 125.271C66.3277 125.271 67.0051 125.436 67.5917 125.767C68.1784 126.097 68.6371 126.556 68.9677 127.143C69.3091 127.729 69.4797 128.401 69.4797 129.159C69.4797 129.297 69.4691 129.447 69.4477 129.607C69.4371 129.756 69.4104 129.932 69.3677 130.135L62.6637 130.151V128.471L68.3277 128.455L67.2717 129.159C67.2611 128.711 67.1917 128.343 67.0637 128.055C66.9357 127.756 66.7437 127.532 66.4877 127.383C66.2424 127.223 65.9384 127.143 65.5757 127.143C65.1917 127.143 64.8557 127.233 64.5677 127.415C64.2904 127.585 64.0717 127.831 63.9117 128.151C63.7624 128.471 63.6877 128.86 63.6877 129.319C63.6877 129.777 63.7677 130.172 63.9277 130.503C64.0984 130.823 64.3331 131.073 64.6317 131.255C64.9411 131.425 65.3037 131.511 65.7197 131.511C66.1037 131.511 66.4504 131.447 66.7597 131.319C67.0691 131.18 67.3411 130.977 67.5757 130.711L68.9197 132.055C68.5357 132.503 68.0717 132.839 67.5277 133.063C66.9837 133.287 66.3864 133.399 65.7357 133.399ZM73.4934 133.415C73.0347 133.415 72.5814 133.356 72.1334 133.239C71.696 133.121 71.2854 132.956 70.9014 132.743C70.528 132.519 70.208 132.263 69.9414 131.975L71.3334 130.567C71.5894 130.844 71.8934 131.063 72.2454 131.223C72.5974 131.372 72.9814 131.447 73.3974 131.447C73.6854 131.447 73.904 131.404 74.0534 131.319C74.2134 131.233 74.2934 131.116 74.2934 130.967C74.2934 130.775 74.1974 130.631 74.0054 130.535C73.824 130.428 73.5894 130.337 73.3014 130.263C73.0134 130.177 72.7094 130.087 72.3894 129.991C72.0694 129.895 71.7654 129.761 71.4774 129.591C71.1894 129.42 70.9547 129.185 70.7734 128.887C70.592 128.577 70.5014 128.188 70.5014 127.719C70.5014 127.217 70.6294 126.785 70.8854 126.423C71.1414 126.049 71.504 125.756 71.9734 125.543C72.4427 125.329 72.992 125.223 73.6214 125.223C74.2827 125.223 74.8907 125.34 75.4454 125.575C76.0107 125.799 76.4694 126.135 76.8214 126.583L75.4294 127.991C75.184 127.703 74.9067 127.5 74.5974 127.383C74.2987 127.265 74.0054 127.207 73.7174 127.207C73.44 127.207 73.232 127.249 73.0934 127.335C72.9547 127.409 72.8854 127.521 72.8854 127.671C72.8854 127.831 72.976 127.959 73.1574 128.055C73.3387 128.151 73.5734 128.236 73.8614 128.311C74.1494 128.385 74.4534 128.476 74.7734 128.583C75.0934 128.689 75.3974 128.833 75.6854 129.015C75.9734 129.196 76.208 129.441 76.3894 129.751C76.5707 130.049 76.6614 130.444 76.6614 130.935C76.6614 131.692 76.3734 132.295 75.7974 132.743C75.232 133.191 74.464 133.415 73.4934 133.415ZM79.0935 133.223V122.231H81.5415V133.223H79.0935ZM77.3335 127.527V125.447H83.3015V127.527H77.3335ZM87.9679 133.399C87.1679 133.399 86.4425 133.223 85.7919 132.871C85.1519 132.508 84.6452 132.017 84.2719 131.399C83.8985 130.78 83.7119 130.087 83.7119 129.319C83.7119 128.551 83.8985 127.863 84.2719 127.255C84.6452 126.647 85.1519 126.167 85.7919 125.815C86.4319 125.452 87.1572 125.271 87.9679 125.271C88.7785 125.271 89.5039 125.447 90.1439 125.799C90.7839 126.151 91.2905 126.636 91.6639 127.255C92.0372 127.863 92.2239 128.551 92.2239 129.319C92.2239 130.087 92.0372 130.78 91.6639 131.399C91.2905 132.017 90.7839 132.508 90.1439 132.871C89.5039 133.223 88.7785 133.399 87.9679 133.399ZM87.9679 131.175C88.3199 131.175 88.6292 131.1 88.8959 130.951C89.1625 130.791 89.3652 130.572 89.5039 130.295C89.6532 130.007 89.7279 129.681 89.7279 129.319C89.7279 128.956 89.6532 128.641 89.5039 128.375C89.3545 128.097 89.1465 127.884 88.8799 127.735C88.6239 127.575 88.3199 127.495 87.9679 127.495C87.6265 127.495 87.3225 127.575 87.0559 127.735C86.7892 127.884 86.5812 128.097 86.4319 128.375C86.2825 128.652 86.2079 128.972 86.2079 129.335C86.2079 129.687 86.2825 130.007 86.4319 130.295C86.5812 130.572 86.7892 130.791 87.0559 130.951C87.3225 131.1 87.6265 131.175 87.9679 131.175ZM93.4426 133.223V125.447H95.8906V133.223H93.4426ZM95.8906 128.951L94.8666 128.151C95.0693 127.244 95.4106 126.54 95.8906 126.039C96.3706 125.537 97.0373 125.287 97.8906 125.287C98.2639 125.287 98.5893 125.345 98.8666 125.463C99.1546 125.569 99.4053 125.74 99.6186 125.975L98.1626 127.815C98.0559 127.697 97.9226 127.607 97.7626 127.543C97.6026 127.479 97.4213 127.447 97.2186 127.447C96.8133 127.447 96.4879 127.575 96.2426 127.831C96.0079 128.076 95.8906 128.449 95.8906 128.951ZM103.3 133.383C102.585 133.383 101.945 133.207 101.38 132.855C100.825 132.503 100.383 132.023 100.052 131.415C99.732 130.807 99.572 130.113 99.572 129.335C99.572 128.556 99.732 127.863 100.052 127.255C100.383 126.647 100.825 126.167 101.38 125.815C101.945 125.463 102.585 125.287 103.3 125.287C103.823 125.287 104.292 125.388 104.708 125.591C105.135 125.793 105.481 126.076 105.748 126.439C106.015 126.791 106.164 127.196 106.196 127.655V131.015C106.164 131.473 106.015 131.884 105.748 132.247C105.492 132.599 105.151 132.876 104.724 133.079C104.297 133.281 103.823 133.383 103.3 133.383ZM103.796 131.175C104.319 131.175 104.74 131.004 105.06 130.663C105.38 130.311 105.54 129.868 105.54 129.335C105.54 128.972 105.465 128.652 105.316 128.375C105.177 128.097 104.975 127.884 104.708 127.735C104.452 127.575 104.153 127.495 103.812 127.495C103.471 127.495 103.167 127.575 102.9 127.735C102.644 127.884 102.436 128.097 102.276 128.375C102.127 128.652 102.052 128.972 102.052 129.335C102.052 129.687 102.127 130.001 102.276 130.279C102.425 130.556 102.633 130.775 102.9 130.935C103.167 131.095 103.465 131.175 103.796 131.175ZM105.444 133.223V131.127L105.812 129.239L105.444 127.351V125.447H107.844V133.223H105.444ZM110.672 133.223V122.231H113.12V133.223H110.672ZM108.912 127.527V125.447H114.88V127.527H108.912ZM115.958 133.223V125.447H118.406V133.223H115.958ZM117.19 124.375C116.806 124.375 116.486 124.247 116.23 123.991C115.985 123.724 115.862 123.404 115.862 123.031C115.862 122.647 115.985 122.327 116.23 122.071C116.486 121.815 116.806 121.687 117.19 121.687C117.574 121.687 117.889 121.815 118.134 122.071C118.38 122.327 118.502 122.647 118.502 123.031C118.502 123.404 118.38 123.724 118.134 123.991C117.889 124.247 117.574 124.375 117.19 124.375ZM123.874 133.399C123.074 133.399 122.349 133.223 121.698 132.871C121.058 132.508 120.551 132.017 120.178 131.399C119.805 130.78 119.618 130.087 119.618 129.319C119.618 128.551 119.805 127.863 120.178 127.255C120.551 126.647 121.058 126.167 121.698 125.815C122.338 125.452 123.063 125.271 123.874 125.271C124.685 125.271 125.41 125.447 126.05 125.799C126.69 126.151 127.197 126.636 127.57 127.255C127.943 127.863 128.13 128.551 128.13 129.319C128.13 130.087 127.943 130.78 127.57 131.399C127.197 132.017 126.69 132.508 126.05 132.871C125.41 133.223 124.685 133.399 123.874 133.399ZM123.874 131.175C124.226 131.175 124.535 131.1 124.802 130.951C125.069 130.791 125.271 130.572 125.41 130.295C125.559 130.007 125.634 129.681 125.634 129.319C125.634 128.956 125.559 128.641 125.41 128.375C125.261 128.097 125.053 127.884 124.786 127.735C124.53 127.575 124.226 127.495 123.874 127.495C123.533 127.495 123.229 127.575 122.962 127.735C122.695 127.884 122.487 128.097 122.338 128.375C122.189 128.652 122.114 128.972 122.114 129.335C122.114 129.687 122.189 130.007 122.338 130.295C122.487 130.572 122.695 130.791 122.962 130.951C123.229 131.1 123.533 131.175 123.874 131.175ZM134.485 133.223V128.791C134.485 128.385 134.357 128.06 134.101 127.815C133.856 127.559 133.541 127.431 133.157 127.431C132.89 127.431 132.656 127.489 132.453 127.607C132.25 127.713 132.09 127.873 131.973 128.087C131.856 128.289 131.797 128.524 131.797 128.791L130.853 128.327C130.853 127.719 130.986 127.185 131.253 126.727C131.52 126.268 131.888 125.916 132.357 125.671C132.837 125.415 133.376 125.287 133.973 125.287C134.549 125.287 135.056 125.425 135.493 125.703C135.941 125.969 136.293 126.327 136.549 126.775C136.805 127.223 136.933 127.713 136.933 128.247V133.223H134.485ZM129.349 133.223V125.447H131.797V133.223H129.349Z" fill="#315D80"/>
<g filter="url(#filter2_di_1390_10515)">
<path d="M32.6953 105.646C32.6953 100.089 37.2 95.584 42.7569 95.584H144.63C150.187 95.584 154.691 100.089 154.691 105.646C154.691 111.202 150.187 115.707 144.63 115.707H42.7569C37.2 115.707 32.6953 111.202 32.6953 105.646Z" fill="#376990"/>
</g>
<g filter="url(#filter3_d_1390_10515)">
<path d="M72.9706 108.457C72.464 108.457 72.0206 108.357 71.6406 108.157C71.2673 107.957 70.934 107.667 70.6406 107.287L71.2706 106.657C71.484 106.957 71.7306 107.194 72.0106 107.367C72.2906 107.541 72.6206 107.627 73.0006 107.627C73.4073 107.627 73.734 107.534 73.9806 107.347C74.234 107.161 74.3606 106.901 74.3606 106.567C74.3606 106.307 74.3006 106.097 74.1806 105.937C74.0606 105.777 73.9006 105.647 73.7006 105.547C73.5006 105.441 73.2806 105.347 73.0406 105.267C72.8006 105.181 72.5606 105.091 72.3206 104.997C72.0873 104.897 71.8706 104.777 71.6706 104.637C71.4706 104.491 71.3106 104.301 71.1906 104.067C71.0706 103.834 71.0106 103.541 71.0106 103.187C71.0106 102.794 71.104 102.461 71.2906 102.187C71.484 101.907 71.744 101.694 72.0706 101.547C72.3973 101.394 72.764 101.317 73.1706 101.317C73.5906 101.317 73.974 101.407 74.3206 101.587C74.6673 101.761 74.954 101.991 75.1806 102.277L74.5506 102.907C74.344 102.667 74.1273 102.481 73.9006 102.347C73.674 102.214 73.424 102.147 73.1506 102.147C72.764 102.147 72.4606 102.231 72.2406 102.397C72.0206 102.564 71.9106 102.807 71.9106 103.127C71.9106 103.361 71.9706 103.551 72.0906 103.697C72.2173 103.837 72.3806 103.957 72.5806 104.057C72.7873 104.157 73.0073 104.251 73.2406 104.337C73.4806 104.417 73.7206 104.507 73.9606 104.607C74.2073 104.707 74.4306 104.834 74.6306 104.987C74.8306 105.141 74.9906 105.341 75.1106 105.587C75.2373 105.827 75.3006 106.131 75.3006 106.497C75.3006 107.111 75.0906 107.591 74.6706 107.937C74.2506 108.284 73.684 108.457 72.9706 108.457ZM72.8306 109.357V100.417H73.4906V109.357H72.8306ZM76.2795 105.967L78.8095 101.417H79.8695L77.2895 105.967H76.2795ZM76.2795 106.547V105.967L76.6795 105.707H81.5995V106.547H76.2795ZM79.6695 108.357V103.767H80.5995V108.357H79.6695ZM85.2261 108.457C84.7061 108.457 84.2294 108.311 83.7961 108.017C83.3694 107.724 83.0294 107.311 82.7761 106.777C82.5228 106.237 82.3961 105.604 82.3961 104.877C82.3961 104.151 82.5194 103.521 82.7661 102.987C83.0194 102.454 83.3594 102.044 83.7861 101.757C84.2128 101.464 84.6828 101.317 85.1961 101.317C85.7228 101.317 86.1994 101.464 86.6261 101.757C87.0528 102.044 87.3894 102.454 87.6361 102.987C87.8894 103.521 88.0161 104.154 88.0161 104.887C88.0161 105.614 87.8894 106.247 87.6361 106.787C87.3894 107.321 87.0528 107.734 86.6261 108.027C86.2061 108.314 85.7394 108.457 85.2261 108.457ZM85.2061 107.567C85.5728 107.567 85.8928 107.467 86.1661 107.267C86.4461 107.061 86.6661 106.757 86.8261 106.357C86.9861 105.957 87.0661 105.464 87.0661 104.877C87.0661 104.291 86.9861 103.801 86.8261 103.407C86.6661 103.007 86.4461 102.707 86.1661 102.507C85.8861 102.301 85.5628 102.197 85.1961 102.197C84.8361 102.197 84.5161 102.301 84.2361 102.507C83.9561 102.707 83.7361 103.007 83.5761 103.407C83.4228 103.801 83.3461 104.291 83.3461 104.877C83.3461 105.464 83.4228 105.957 83.5761 106.357C83.7361 106.757 83.9561 107.061 84.2361 107.267C84.5161 107.467 84.8394 107.567 85.2061 107.567ZM91.2287 106.237V105.387H94.5187V106.237H91.2287ZM100.158 108.457C99.6515 108.457 99.2081 108.357 98.8281 108.157C98.4548 107.957 98.1215 107.667 97.8281 107.287L98.4581 106.657C98.6715 106.957 98.9181 107.194 99.1981 107.367C99.4781 107.541 99.8081 107.627 100.188 107.627C100.595 107.627 100.921 107.534 101.168 107.347C101.421 107.161 101.548 106.901 101.548 106.567C101.548 106.307 101.488 106.097 101.368 105.937C101.248 105.777 101.088 105.647 100.888 105.547C100.688 105.441 100.468 105.347 100.228 105.267C99.9881 105.181 99.7481 105.091 99.5081 104.997C99.2748 104.897 99.0581 104.777 98.8581 104.637C98.6581 104.491 98.4981 104.301 98.3781 104.067C98.2581 103.834 98.1981 103.541 98.1981 103.187C98.1981 102.794 98.2915 102.461 98.4781 102.187C98.6715 101.907 98.9315 101.694 99.2581 101.547C99.5848 101.394 99.9515 101.317 100.358 101.317C100.778 101.317 101.161 101.407 101.508 101.587C101.855 101.761 102.141 101.991 102.368 102.277L101.738 102.907C101.531 102.667 101.315 102.481 101.088 102.347C100.861 102.214 100.611 102.147 100.338 102.147C99.9515 102.147 99.6481 102.231 99.4281 102.397C99.2081 102.564 99.0981 102.807 99.0981 103.127C99.0981 103.361 99.1581 103.551 99.2781 103.697C99.4048 103.837 99.5681 103.957 99.7681 104.057C99.9748 104.157 100.195 104.251 100.428 104.337C100.668 104.417 100.908 104.507 101.148 104.607C101.395 104.707 101.618 104.834 101.818 104.987C102.018 105.141 102.178 105.341 102.298 105.587C102.425 105.827 102.488 106.131 102.488 106.497C102.488 107.111 102.278 107.591 101.858 107.937C101.438 108.284 100.871 108.457 100.158 108.457ZM100.018 109.357V100.417H100.678V109.357H100.018ZM104.867 108.357V101.417H105.797V108.357H104.867ZM103.447 102.257V101.417H105.697V102.257H103.447ZM106.934 107.787L109.494 105.087C109.754 104.821 109.957 104.591 110.104 104.397C110.25 104.197 110.354 104.014 110.414 103.847C110.48 103.681 110.514 103.507 110.514 103.327C110.514 102.974 110.4 102.697 110.174 102.497C109.947 102.297 109.654 102.197 109.294 102.197C108.94 102.197 108.63 102.284 108.364 102.457C108.097 102.624 107.86 102.884 107.654 103.237L106.994 102.687C107.267 102.234 107.597 101.894 107.984 101.667C108.37 101.434 108.817 101.317 109.324 101.317C109.75 101.317 110.12 101.401 110.434 101.567C110.754 101.734 111 101.967 111.174 102.267C111.347 102.567 111.434 102.917 111.434 103.317C111.434 103.604 111.397 103.861 111.324 104.087C111.257 104.314 111.134 104.547 110.954 104.787C110.78 105.021 110.537 105.301 110.224 105.627L108.154 107.757L106.934 107.787ZM106.934 108.357V107.787L107.734 107.517H111.594V108.357H106.934ZM115.314 108.457C114.794 108.457 114.317 108.311 113.884 108.017C113.457 107.724 113.117 107.311 112.864 106.777C112.611 106.237 112.484 105.604 112.484 104.877C112.484 104.151 112.607 103.521 112.854 102.987C113.107 102.454 113.447 102.044 113.874 101.757C114.301 101.464 114.771 101.317 115.284 101.317C115.811 101.317 116.287 101.464 116.714 101.757C117.141 102.044 117.477 102.454 117.724 102.987C117.977 103.521 118.104 104.154 118.104 104.887C118.104 105.614 117.977 106.247 117.724 106.787C117.477 107.321 117.141 107.734 116.714 108.027C116.294 108.314 115.827 108.457 115.314 108.457ZM115.294 107.567C115.661 107.567 115.981 107.467 116.254 107.267C116.534 107.061 116.754 106.757 116.914 106.357C117.074 105.957 117.154 105.464 117.154 104.877C117.154 104.291 117.074 103.801 116.914 103.407C116.754 103.007 116.534 102.707 116.254 102.507C115.974 102.301 115.651 102.197 115.284 102.197C114.924 102.197 114.604 102.301 114.324 102.507C114.044 102.707 113.824 103.007 113.664 103.407C113.511 103.801 113.434 104.291 113.434 104.877C113.434 105.464 113.511 105.957 113.664 106.357C113.824 106.757 114.044 107.061 114.324 107.267C114.604 107.467 114.927 107.567 115.294 107.567Z" fill="#EEF4FF"/>
</g>
<defs>
<filter id="filter0_i_1390_10515" x="0" y="0" width="192.652" height="162.212" filterUnits="userSpaceOnUse" color-interpolation-filters="sRGB">
<feFlood flood-opacity="0" result="BackgroundImageFix"/>
<feBlend mode="normal" in="SourceGraphic" in2="BackgroundImageFix" result="shape"/>
<feColorMatrix in="SourceAlpha" type="matrix" values="0 0 0 0 0 0 0 0 0 0 0 0 0 0 0 0 0 0 127 0" result="hardAlpha"/>
<feOffset dx="4" dy="5"/>
<feGaussianBlur stdDeviation="2.5"/>
<feComposite in2="hardAlpha" operator="arithmetic" k2="-1" k3="1"/>
<feColorMatrix type="matrix" values="0 0 0 0 0.221667 0 0 0 0 0.487936 0 0 0 0 0.933333 0 0 0 0.06 0"/>
<feBlend mode="normal" in2="shape" result="effect1_innerShadow_1390_10515"/>
</filter>
<filter id="filter1_i_1390_10515" x="0" y="105.646" width="192.652" height="53.5654" filterUnits="userSpaceOnUse" color-interpolation-filters="sRGB">
<feFlood flood-opacity="0" result="BackgroundImageFix"/>
<feBlend mode="normal" in="SourceGraphic" in2="BackgroundImageFix" result="shape"/>
<feColorMatrix in="SourceAlpha" type="matrix" values="0 0 0 0 0 0 0 0 0 0 0 0 0 0 0 0 0 0 127 0" result="hardAlpha"/>
<feOffset dx="4" dy="2"/>
<feGaussianBlur stdDeviation="2.5"/>
<feComposite in2="hardAlpha" operator="arithmetic" k2="-1" k3="1"/>
<feColorMatrix type="matrix" values="0 0 0 0 0.215686 0 0 0 0 0.411765 0 0 0 0 0.564706 0 0 0 0.1 0"/>
<feBlend mode="normal" in2="shape" result="effect1_innerShadow_1390_10515"/>
</filter>
<filter id="filter2_di_1390_10515" x="29.6953" y="92.584" width="131.996" height="30.123" filterUnits="userSpaceOnUse" color-interpolation-filters="sRGB">
<feFlood flood-opacity="0" result="BackgroundImageFix"/>
<feColorMatrix in="SourceAlpha" type="matrix" values="0 0 0 0 0 0 0 0 0 0 0 0 0 0 0 0 0 0 127 0" result="hardAlpha"/>
<feOffset dx="2" dy="2"/>
<feGaussianBlur stdDeviation="2.5"/>
<feComposite in2="hardAlpha" operator="out"/>
<feColorMatrix type="matrix" values="0 0 0 0 0 0 0 0 0 0 0 0 0 0 0 0 0 0 0.05 0"/>
<feBlend mode="normal" in2="BackgroundImageFix" result="effect1_dropShadow_1390_10515"/>
<feBlend mode="normal" in="SourceGraphic" in2="effect1_dropShadow_1390_10515" result="shape"/>
<feColorMatrix in="SourceAlpha" type="matrix" values="0 0 0 0 0 0 0 0 0 0 0 0 0 0 0 0 0 0 127 0" result="hardAlpha"/>
<feOffset dx="2" dy="2"/>
<feGaussianBlur stdDeviation="5"/>
<feComposite in2="hardAlpha" operator="arithmetic" k2="-1" k3="1"/>
<feColorMatrix type="matrix" values="0 0 0 0 0.274722 0 0 0 0 0.553181 0 0 0 0 0.766667 0 0 0 1 0"/>
<feBlend mode="normal" in2="shape" result="effect2_innerShadow_1390_10515"/>
</filter>
<filter id="filter3_d_1390_10515" x="66.6406" y="96.417" width="55.4648" height="16.9404" filterUnits="userSpaceOnUse" color-interpolation-filters="sRGB">
<feFlood flood-opacity="0" result="BackgroundImageFix"/>
<feColorMatrix in="SourceAlpha" type="matrix" values="0 0 0 0 0 0 0 0 0 0 0 0 0 0 0 0 0 0 127 0" result="hardAlpha"/>
<feOffset/>
<feGaussianBlur stdDeviation="2"/>
<feComposite in2="hardAlpha" operator="out"/>
<feColorMatrix type="matrix" values="0 0 0 0 0 0 0 0 0 0 0 0 0 0 0 0 0 0 0.15 0"/>
<feBlend mode="normal" in2="BackgroundImageFix" result="effect1_dropShadow_1390_10515"/>
<feBlend mode="normal" in="SourceGraphic" in2="effect1_dropShadow_1390_10515" result="shape"/>
</filter>
<clipPath id="clip0_1390_10515">
<rect width="51.5654" height="51.5654" fill="white" transform="translate(69.1719 27.6699)"/>
</clipPath>
</defs>
</svg>
