<svg width="189" height="158" viewBox="0 0 189 158" fill="none" xmlns="http://www.w3.org/2000/svg">
<g filter="url(#filter0_i_1390_10471)">
<rect width="188.654" height="157.212" rx="20" fill="#C9D7E5"/>
</g>
<g clip-path="url(#clip0_1390_10471)">
<path d="M86.8332 33.2637C85.8351 33.2634 84.8388 33.6487 84.083 34.4162C82.5714 35.9512 82.5712 38.4685 84.083 40.0037C84.2777 40.2011 84.5416 40.3121 84.8168 40.3121C85.092 40.3121 85.356 40.2011 85.5506 40.0037C85.7452 39.8061 85.8545 39.5382 85.8545 39.2589C85.8545 38.9796 85.7452 38.7117 85.5506 38.5142C84.826 37.7784 84.8269 36.6379 85.5506 35.9031C86.2743 35.1682 87.3937 35.1699 88.1183 35.9057L103.256 51.2765C103.45 51.4743 103.714 51.5857 103.989 51.5862C104.264 51.5867 104.528 51.4763 104.723 51.2791C104.82 51.1815 104.897 51.0653 104.95 50.9374C105.002 50.8095 105.029 50.6723 105.03 50.5337C105.03 50.395 105.003 50.2577 104.951 50.1296C104.899 50.0015 104.822 49.8851 104.726 49.7871L89.5859 34.4162C88.83 33.6486 87.8313 33.2639 86.8332 33.2637Z" fill="#396D96"/>
<path d="M79.5727 34.084C78.5746 34.0838 77.5759 34.4664 76.82 35.2339C75.3084 36.7689 75.3107 39.2862 76.8226 40.8214L86.9133 51.0703C87.1079 51.2678 87.3718 51.3787 87.647 51.3787C87.9223 51.3787 88.1862 51.2678 88.3808 51.0703C88.5758 50.8731 88.6856 50.6054 88.686 50.3261C88.6865 50.0468 88.5777 49.7787 88.3835 49.5808L78.2903 39.3319C77.5657 38.5961 77.5666 37.4582 78.2903 36.7234C79.0139 35.9885 80.1333 35.9876 80.8579 36.7234L95.9952 52.0968C96.1898 52.2942 96.4538 52.4052 96.729 52.4052C97.0042 52.4052 97.2681 52.2942 97.4628 52.0968C97.6573 51.8992 97.7666 51.6313 97.7666 51.352C97.7666 51.0727 97.6573 50.8048 97.4628 50.6073L82.3254 35.2339C81.5695 34.4663 80.5708 34.0842 79.5727 34.084Z" fill="#396D96"/>
<path d="M78.3696 41.0586C77.3715 41.0584 76.3727 41.441 75.6169 42.2085C74.1053 43.7435 74.1076 46.2608 75.6195 47.796L87.7303 60.0952C87.925 60.2927 88.1889 60.4036 88.4641 60.4036C88.7393 60.4036 89.0033 60.2927 89.1979 60.0952C89.3925 59.8977 89.5018 59.6298 89.5018 59.3505C89.5018 59.0712 89.3925 58.8033 89.1979 58.6057L77.0871 46.3065C76.3625 45.5707 76.3634 44.4328 77.0871 43.698C77.8108 42.9631 78.9302 42.9648 79.6548 43.7006L91.763 55.9973C91.8595 56.0954 91.974 56.1733 92.1002 56.2265C92.2263 56.2796 92.3615 56.307 92.4981 56.307C92.6347 56.307 92.7699 56.2796 92.896 56.2265C93.0222 56.1733 93.1368 56.0954 93.2332 55.9973C93.4277 55.7997 93.537 55.5318 93.537 55.2525C93.537 54.9732 93.4277 54.7053 93.2332 54.5078L81.1224 42.2112C80.3665 41.4436 79.3677 41.0588 78.3696 41.0586Z" fill="#396D96"/>
<path d="M77.5558 48.4258C76.5577 48.4255 75.5615 48.8108 74.8057 49.5783C73.294 51.1133 73.2939 53.6306 74.8057 55.1658L84.8989 65.4121C85.0935 65.6096 85.3574 65.7205 85.6327 65.7205C85.9079 65.7205 86.1718 65.6096 86.3664 65.4121C86.561 65.2146 86.6703 64.9467 86.6703 64.6674C86.6703 64.3881 86.561 64.1202 86.3664 63.9226L76.2733 53.6763C75.5487 52.9405 75.5496 51.8026 76.2733 51.0678C76.9969 50.3329 78.1163 50.332 78.8409 51.0678C79.0356 51.2652 79.2995 51.3762 79.5747 51.3762C79.8499 51.3762 80.1139 51.2652 80.3085 51.0678C80.5031 50.8702 80.6124 50.6023 80.6124 50.323C80.6124 50.0437 80.5031 49.7758 80.3085 49.5783C79.5526 48.8107 78.5539 48.426 77.5558 48.4258Z" fill="#396D96"/>
<path d="M100.764 39.2109C99.766 39.2107 98.7672 39.5934 98.0114 40.3609C96.4998 41.8959 96.5022 44.4132 98.014 45.9484C98.2083 46.1462 98.4721 46.2576 98.7473 46.2581C99.0225 46.2586 99.2866 46.1481 99.4816 45.951C99.6762 45.7535 99.7855 45.4856 99.7855 45.2063C99.7855 44.9269 99.6762 44.6591 99.4816 44.4615C98.7571 43.7257 98.7554 42.5853 99.479 41.8504C100.203 41.1156 101.322 41.1172 102.047 41.8531L110.122 50.0517C110.681 50.6194 111.566 51.5626 111.95 52.5522C112.333 53.5417 112.408 54.4374 111.131 55.7344C110.937 55.9323 110.828 56.2003 110.828 56.4797C110.829 56.759 110.939 57.0267 111.134 57.2239C111.328 57.4213 111.592 57.5322 111.867 57.5322C112.143 57.5322 112.407 57.4213 112.601 57.2239C114.35 55.4479 114.48 53.3248 113.881 51.7804C113.283 50.236 112.149 49.1299 111.59 48.5622L103.517 40.3636C102.761 39.596 101.762 39.2112 100.764 39.2109Z" fill="#396D96"/>
<path d="M85.6628 63.6155C85.6317 63.6148 85.6006 63.6155 85.5696 63.6176C85.3173 63.6337 85.0795 63.7428 84.9008 63.9243C84.7067 64.1217 84.5977 64.3893 84.5977 64.6682C84.5977 64.9472 84.7067 65.2147 84.9008 65.4122C86.3764 66.9107 87.7292 68.2869 89.082 69.452C89.5038 68.8455 90.1241 68.4011 90.8453 68.1925C89.4642 67.0516 88.011 65.5925 86.3681 63.9243C86.1806 63.7336 85.9281 63.6231 85.6628 63.6155ZM94.8602 70.5263C94.9271 70.7897 94.9737 71.0607 94.9737 71.3454C94.9737 71.8082 94.8781 72.2485 94.7082 72.6481C95.3605 72.8037 96.0309 72.8969 96.7309 72.8971C96.8673 72.8973 97.0023 72.8703 97.1283 72.8176C97.2543 72.7649 97.3689 72.6875 97.4654 72.5898C97.562 72.4922 97.6386 72.3762 97.691 72.2485C97.7434 72.1207 97.7704 71.9838 97.7707 71.8455C97.771 71.7071 97.7444 71.5701 97.6925 71.4422C97.6407 71.3142 97.5644 71.1979 97.4683 71.0999C97.3721 71.0018 97.2578 70.924 97.132 70.8708C97.0062 70.8176 96.8713 70.79 96.735 70.7897C96.085 70.7895 95.4659 70.6988 94.8602 70.5263Z" fill="#396D96"/>
<path d="M111.379 55.3071C111.237 55.3028 111.096 55.3279 110.964 55.381C110.833 55.4341 110.713 55.514 110.613 55.6158C110.516 55.7137 110.44 55.8298 110.388 55.9576C110.335 56.0855 110.309 56.2225 110.309 56.3608C110.309 56.4992 110.335 56.6362 110.388 56.764C110.44 56.8919 110.516 57.008 110.613 57.1058L114.77 61.3268C115.036 61.2549 115.31 61.2033 115.599 61.2033C117.338 61.2033 118.746 62.5965 118.827 64.3418C118.906 64.2959 118.978 64.2399 119.042 64.1751C119.138 64.0772 119.215 63.9611 119.267 63.8333C119.319 63.7054 119.346 63.5684 119.346 63.4301C119.346 63.2917 119.319 63.1547 119.267 63.0269C119.215 62.899 119.138 62.7829 119.042 62.6851L112.08 55.6158C111.894 55.4261 111.643 55.3157 111.379 55.3071Z" fill="#396D96"/>
<path d="M96.0471 69.2389C95.9046 69.2339 95.7627 69.2588 95.6301 69.3119C95.4976 69.365 95.3772 69.4452 95.2765 69.5476C95.0819 69.7452 94.9727 70.013 94.9727 70.2924C94.9727 70.5717 95.0819 70.8395 95.2765 71.0371L103.045 78.927C103.24 79.1245 103.504 79.2354 103.779 79.2354C104.054 79.2354 104.318 79.1245 104.513 78.927C104.708 78.7298 104.818 78.4621 104.818 78.1828C104.819 77.9035 104.71 77.6354 104.516 77.4375L96.7442 69.5476C96.5587 69.3589 96.3095 69.2486 96.0471 69.2389Z" fill="#396D96"/>
<path d="M75.5174 34.7292C75.5174 35.0786 75.3807 35.4136 75.1373 35.6606C74.8939 35.9076 74.5638 36.0464 74.2196 36.0464C73.8754 36.0464 73.5453 35.9076 73.302 35.6606C73.0586 35.4136 72.9219 35.0786 72.9219 34.7292C72.9219 34.3799 73.0586 34.0449 73.302 33.7979C73.5453 33.5509 73.8754 33.4121 74.2196 33.4121C74.5638 33.4121 74.8939 33.5509 75.1373 33.7979C75.3807 34.0449 75.5174 34.3799 75.5174 34.7292Z" fill="#396D96"/>
<path d="M116.768 41.709C114.415 41.709 112.484 43.6686 112.484 46.0565C112.484 48.4444 114.415 50.4015 116.768 50.4015C119.121 50.4015 121.049 48.4444 121.049 46.0565C121.049 43.6686 119.121 41.709 116.768 41.709ZM116.768 43.8159C117.999 43.8159 118.973 44.8073 118.973 46.0565C118.973 47.3058 117.999 48.2946 116.768 48.2946C115.537 48.2946 114.56 47.3058 114.56 46.0565C114.56 44.8073 115.537 43.8159 116.768 43.8159Z" fill="#396D96"/>
<path d="M115.596 60.1484C113.243 60.1484 111.312 62.1081 111.312 64.496C111.312 66.8839 113.243 68.841 115.596 68.841C117.949 68.841 119.877 66.8839 119.877 64.496C119.877 62.1081 117.949 60.1484 115.596 60.1484ZM115.596 62.2553C116.827 62.2553 117.801 63.2467 117.801 64.496C117.801 65.7452 116.827 66.7341 115.596 66.7341C114.365 66.7341 113.388 65.7452 113.388 64.496C113.388 63.2467 114.365 62.2553 115.596 62.2553Z" fill="#396D96"/>
<path d="M91.7303 67C89.3775 67 87.4492 68.9571 87.4492 71.345C87.4492 73.7329 89.3775 75.69 91.7303 75.69C94.0831 75.69 96.014 73.7329 96.014 71.345C96.014 68.9571 94.0831 67 91.7303 67ZM91.7303 69.1043C92.9612 69.1043 93.9381 70.0957 93.9381 71.345C93.9381 72.5942 92.9612 73.5856 91.7303 73.5856C90.4994 73.5856 89.5251 72.5942 89.5251 71.345C89.5251 70.0957 90.4994 69.1043 91.7303 69.1043Z" fill="#396D96"/>
<path d="M67.9939 51.8523C67.9939 52.2016 67.8572 52.5366 67.6138 52.7836C67.3705 53.0306 67.0404 53.1694 66.6962 53.1694C66.352 53.1694 66.0219 53.0306 65.7785 52.7836C65.5351 52.5366 65.3984 52.2016 65.3984 51.8523C65.3984 51.6793 65.432 51.508 65.4972 51.3482C65.5624 51.1884 65.658 51.0432 65.7785 50.9209C65.899 50.7986 66.0421 50.7016 66.1996 50.6354C66.357 50.5692 66.5258 50.5352 66.6962 50.5352C66.8666 50.5352 67.0354 50.5692 67.1928 50.6354C67.3503 50.7016 67.4933 50.7986 67.6138 50.9209C67.7344 51.0432 67.8299 51.1884 67.8952 51.3482C67.9604 51.508 67.9939 51.6793 67.9939 51.8523Z" fill="#396D96"/>
<path d="M93.158 27.8796C93.158 28.0526 93.1244 28.2239 93.0592 28.3837C92.994 28.5435 92.8984 28.6887 92.7779 28.811C92.6574 28.9333 92.5144 29.0303 92.3569 29.0965C92.1995 29.1627 92.0307 29.1967 91.8603 29.1967C91.6898 29.1967 91.5211 29.1627 91.3636 29.0965C91.2062 29.0303 91.0631 28.9333 90.9426 28.811C90.8221 28.6887 90.7265 28.5435 90.6613 28.3837C90.5961 28.2239 90.5625 28.0526 90.5625 27.8796C90.5625 27.5303 90.6993 27.1953 90.9426 26.9483C91.186 26.7013 91.5161 26.5625 91.8603 26.5625C92.2045 26.5625 92.5345 26.7013 92.7779 26.9483C93.0213 27.1953 93.158 27.5303 93.158 27.8796Z" fill="#396D96"/>
<path d="M110.803 36.8347C110.803 37.184 110.666 37.519 110.422 37.766C110.179 38.0131 109.849 38.1518 109.505 38.1518C109.161 38.1518 108.831 38.0131 108.587 37.766C108.344 37.519 108.207 37.184 108.207 36.8347C108.207 36.4854 108.344 36.1504 108.587 35.9034C108.831 35.6563 109.161 35.5176 109.505 35.5176C109.849 35.5176 110.179 35.6563 110.422 35.9034C110.666 36.1504 110.803 36.4854 110.803 36.8347Z" fill="#396D96"/>
<path d="M123.252 58.1746C123.252 58.5239 123.115 58.8589 122.872 59.1059C122.628 59.3529 122.298 59.4917 121.954 59.4917C121.61 59.4917 121.28 59.3529 121.036 59.1059C120.793 58.8589 120.656 58.5239 120.656 58.1746C120.656 58.0016 120.69 57.8303 120.755 57.6705C120.82 57.5107 120.916 57.3655 121.036 57.2432C121.157 57.1209 121.3 57.0239 121.457 56.9577C121.615 56.8915 121.784 56.8574 121.954 56.8574C122.124 56.8574 122.293 56.8915 122.451 56.9577C122.608 57.0239 122.751 57.1209 122.872 57.2432C122.992 57.3655 123.088 57.5107 123.153 57.6705C123.218 57.8303 123.252 58.0016 123.252 58.1746Z" fill="#396D96"/>
<path d="M96.1617 58.6568C96.0197 58.6522 95.8783 58.6772 95.7462 58.7303C95.6141 58.7834 95.4941 58.8634 95.3937 58.9655C95.1992 59.163 95.0898 59.4309 95.0898 59.7102C95.0898 59.9896 95.1992 60.2574 95.3937 60.455C95.3937 60.455 96.3609 61.4586 96.9095 62.8114C97.4581 64.1643 97.6672 65.5969 96.1263 67.1615C95.9317 67.3591 95.8224 67.627 95.8224 67.9063C95.8224 68.1856 95.9317 68.4535 96.1263 68.651C96.3209 68.8485 96.5848 68.9594 96.8601 68.9594C97.1353 68.9594 97.3992 68.8485 97.5939 68.651C99.7218 66.4903 99.5638 63.8252 98.8283 62.0114C98.0927 60.1976 96.8613 58.9655 96.8613 58.9655C96.6752 58.7762 96.4251 58.6658 96.1617 58.6568Z" fill="#396D96"/>
<path d="M96.1617 58.6568C96.0197 58.6522 95.8783 58.6772 95.7462 58.7303C95.6141 58.7834 95.4941 58.8634 95.3937 58.9655C95.1992 59.163 95.0898 59.4309 95.0898 59.7102C95.0898 59.9896 95.1992 60.2574 95.3937 60.455C95.3937 60.455 96.6058 61.7068 98.3923 62.4538C100.179 63.2008 102.804 63.3617 104.932 61.201C105.126 61.0035 105.236 60.7356 105.236 60.4563C105.236 60.177 105.126 59.9091 104.932 59.7115C104.737 59.5141 104.473 59.4031 104.198 59.4031C103.923 59.4031 103.659 59.5141 103.464 59.7115C101.923 61.2762 100.515 61.0634 99.1831 60.5064C97.851 59.9495 96.8613 58.9655 96.8613 58.9655C96.6752 58.7762 96.4251 58.6658 96.1617 58.6568Z" fill="#396D96"/>
<path d="M99.5271 65.4445C98.3811 65.5812 97.192 66.08 96.1281 67.1604C95.9335 67.3579 95.8242 67.6258 95.8242 67.9051C95.8242 68.1844 95.9335 68.4523 96.1281 68.6498C96.3227 68.8473 96.5867 68.9582 96.8619 68.9582C97.1371 68.9582 97.401 68.8473 97.5957 68.6498C99.1366 67.0852 100.547 67.298 101.879 67.8549C103.211 68.4119 104.201 69.3959 104.201 69.3959C104.396 69.5933 104.66 69.7043 104.935 69.7043C105.21 69.7043 105.474 69.5933 105.669 69.3959C105.863 69.1983 105.973 68.9304 105.973 68.6511C105.973 68.3718 105.863 68.1039 105.669 67.9064C105.669 67.9064 104.457 66.6545 102.67 65.9075C101.777 65.534 100.673 65.3078 99.5271 65.4445Z" fill="#396D96"/>
<path d="M104.233 59.4029C104.091 59.3983 103.949 59.4233 103.817 59.4764C103.685 59.5295 103.565 59.6095 103.465 59.7116C101.337 61.8723 101.495 64.5375 102.23 66.3513C102.966 68.1651 104.2 69.3971 104.2 69.3971C104.395 69.5946 104.659 69.7055 104.934 69.7055C105.209 69.7055 105.473 69.5946 105.668 69.3971C105.862 69.1996 105.971 68.9317 105.971 68.6524C105.971 68.373 105.862 68.1052 105.668 67.9076C105.668 67.9076 104.698 66.9015 104.149 65.5486C103.601 64.1958 103.392 62.7657 104.932 61.2011C105.127 61.0035 105.236 60.7357 105.236 60.4563C105.236 60.177 105.127 59.9091 104.932 59.7116C104.746 59.5223 104.496 59.4119 104.233 59.4029Z" fill="#396D96"/>
<path d="M80.4465 17.6074C80.3102 17.6073 80.1752 17.6343 80.0492 17.6871C79.9232 17.7399 79.8087 17.8173 79.7122 17.915C79.6157 18.0128 79.5391 18.1288 79.4868 18.2565C79.4345 18.3843 79.4075 18.5212 79.4073 18.6596C79.4073 18.6596 79.3937 20.0642 78.8395 21.4147C78.2854 22.7653 77.4368 23.9281 75.258 23.9281C75.1215 23.9279 74.9862 23.9551 74.8601 24.008C74.7339 24.061 74.6193 24.1387 74.5228 24.2366C74.4262 24.3346 74.3497 24.451 74.2975 24.579C74.2454 24.707 74.2186 24.8443 74.2188 24.9828C74.2189 25.1212 74.2459 25.2581 74.2982 25.3859C74.3506 25.5136 74.4272 25.6297 74.5237 25.7274C74.6202 25.8251 74.7347 25.9025 74.8607 25.9553C74.9867 26.0081 75.1217 26.0352 75.258 26.035C78.2676 26.035 80.0128 24.0358 80.7557 22.2251C81.4987 20.4144 81.4832 18.6596 81.4832 18.6596C81.4829 18.3806 81.3735 18.1132 81.1792 17.916C80.9849 17.7187 80.7214 17.6078 80.4465 17.6074Z" fill="#396D96"/>
<path d="M80.4455 17.6074C80.3092 17.6073 80.1742 17.6343 80.0482 17.6871C79.9222 17.7399 79.8077 17.8173 79.7112 17.915C79.6147 18.0128 79.5381 18.1288 79.4858 18.2565C79.4334 18.3843 79.4064 18.5212 79.4063 18.6596C79.4063 18.6596 79.3933 20.4144 80.1363 22.2251C80.8792 24.0358 82.6244 26.035 85.634 26.035C85.9089 26.0347 86.1724 25.9237 86.3667 25.7264C86.5611 25.5292 86.6704 25.2618 86.6707 24.9828C86.6709 24.8445 86.6442 24.7075 86.5922 24.5796C86.5402 24.4517 86.4639 24.3355 86.3676 24.2376C86.2714 24.1396 86.157 24.0619 86.0311 24.0088C85.9053 23.9557 85.7703 23.9283 85.634 23.9281C83.4552 23.9281 82.6066 22.7653 82.0525 21.4147C81.4983 20.0642 81.4822 18.6596 81.4822 18.6596C81.4819 18.3806 81.3725 18.1132 81.1782 17.916C80.9838 17.7187 80.7203 17.6078 80.4455 17.6074Z" fill="#396D96"/>
<path d="M75.258 23.9277C75.1215 23.9276 74.9862 23.9547 74.8601 24.0077C74.7339 24.0606 74.6193 24.1383 74.5228 24.2363C74.4262 24.3343 74.3497 24.4506 74.2975 24.5786C74.2454 24.7067 74.2186 24.8439 74.2188 24.9825C74.2189 25.1208 74.2459 25.2578 74.2982 25.3855C74.3506 25.5133 74.4272 25.6293 74.5237 25.727C74.6202 25.8247 74.7347 25.9021 74.8607 25.9549C74.9867 26.0077 75.1217 26.0348 75.258 26.0346C77.4368 26.0346 78.2854 27.1975 78.8395 28.548C79.3937 29.8985 79.4073 31.3031 79.4073 31.3031C79.4071 31.4417 79.4339 31.5789 79.4861 31.707C79.5382 31.835 79.6148 31.9514 79.7113 32.0493C79.8078 32.1473 79.9224 32.225 80.0486 32.2779C80.1748 32.3309 80.31 32.358 80.4465 32.3579C80.5828 32.3577 80.7178 32.3303 80.8436 32.2772C80.9695 32.2241 81.0838 32.1464 81.1801 32.0484C81.2764 31.9505 81.3527 31.8342 81.4047 31.7064C81.4567 31.5785 81.4834 31.4415 81.4832 31.3031C81.4832 31.3031 81.4988 29.5483 80.7557 27.7376C80.0128 25.9269 78.2676 23.9277 75.258 23.9277Z" fill="#396D96"/>
<path d="M85.634 23.9277C82.6244 23.9277 80.8792 25.9269 80.1363 27.7376C79.3933 29.5483 79.4063 31.3031 79.4063 31.3031C79.4061 31.4417 79.4329 31.5789 79.485 31.707C79.5372 31.835 79.6137 31.9514 79.7103 32.0493C79.8068 32.1473 79.9214 32.225 80.0476 32.2779C80.1737 32.3309 80.309 32.358 80.4455 32.3579C80.5818 32.3577 80.7167 32.3303 80.8426 32.2772C80.9685 32.2241 81.0828 32.1464 81.1791 32.0484C81.2754 31.9505 81.3516 31.8342 81.4036 31.7064C81.4557 31.5785 81.4824 31.4415 81.4822 31.3031C81.4822 31.3031 81.4984 29.8985 82.0525 28.548C82.6066 27.1975 83.4552 26.0346 85.634 26.0346C85.9089 26.0343 86.1724 25.9233 86.3667 25.7261C86.5611 25.5288 86.6704 25.2614 86.6707 24.9825C86.6709 24.8441 86.6442 24.7071 86.5922 24.5792C86.5402 24.4514 86.4639 24.3351 86.3676 24.2372C86.2714 24.1392 86.157 24.0615 86.0311 24.0084C85.9053 23.9553 85.7703 23.9279 85.634 23.9277Z" fill="#396D96"/>
<path d="M74.2174 58.7012C73.9426 58.7015 73.6791 58.8125 73.4847 59.0097C73.2904 59.207 73.1811 59.4744 73.1807 59.7533C73.1807 59.7533 73.1671 61.1605 72.613 62.5111C72.0588 63.8616 71.2077 65.0244 69.0289 65.0244C68.754 65.0248 68.4905 65.1357 68.2962 65.333C68.1018 65.5302 67.9925 65.7976 67.9922 66.0766C67.992 66.2149 68.0187 66.3519 68.0707 66.4798C68.1227 66.6077 68.199 66.7239 68.2953 66.8219C68.3915 66.9198 68.5059 66.9975 68.6318 67.0506C68.7576 67.1037 68.8926 67.1311 69.0289 67.1313C72.0385 67.1313 73.7862 65.1321 74.5292 63.3214C75.2722 61.5107 75.2566 59.7533 75.2566 59.7533C75.2565 59.615 75.2295 59.478 75.1772 59.3503C75.1248 59.2225 75.0482 59.1065 74.9517 59.0088C74.8552 58.9111 74.7407 58.8337 74.6147 58.7809C74.4887 58.7281 74.3537 58.701 74.2174 58.7012Z" fill="#396D96"/>
<path d="M74.2203 58.7012C73.9455 58.7015 73.682 58.8125 73.4876 59.0097C73.2933 59.207 73.184 59.4744 73.1836 59.7533C73.1836 59.7533 73.168 61.5107 73.9111 63.3214C74.6541 65.1321 76.3992 67.1313 79.4088 67.1313C79.5454 67.1315 79.6806 67.1043 79.8068 67.0514C79.9329 66.9984 80.0475 66.9207 80.1441 66.8228C80.2406 66.7248 80.3171 66.6085 80.3693 66.4804C80.4215 66.3524 80.4482 66.2151 80.4481 66.0766C80.4479 65.9382 80.4209 65.8013 80.3686 65.6735C80.3163 65.5458 80.2397 65.4297 80.1432 65.332C80.0467 65.2343 79.9322 65.1569 79.8062 65.1041C79.6802 65.0513 79.5452 65.0242 79.4088 65.0244C77.23 65.0244 76.3815 63.8616 75.8273 62.5111C75.2732 61.1605 75.2595 59.7533 75.2595 59.7533C75.2594 59.615 75.2324 59.478 75.1801 59.3503C75.1277 59.2225 75.0511 59.1065 74.9546 59.0088C74.8581 58.9111 74.7436 58.8337 74.6176 58.7809C74.4916 58.7281 74.3566 58.701 74.2203 58.7012Z" fill="#396D96"/>
<path d="M69.0289 65.0254C68.754 65.0257 68.4905 65.1367 68.2962 65.3339C68.1018 65.5312 67.9925 65.7986 67.9922 66.0776C67.992 66.2159 68.0187 66.3529 68.0707 66.4808C68.1227 66.6087 68.199 66.7249 68.2953 66.8228C68.3915 66.9208 68.5059 66.9985 68.6318 67.0516C68.7576 67.1047 68.8926 67.1321 69.0289 67.1323C71.2077 67.1323 72.0588 68.2925 72.613 69.6431C73.1671 70.9936 73.1807 72.4008 73.1807 72.4008C73.1811 72.6797 73.2904 72.9472 73.4847 73.1444C73.6791 73.3417 73.9426 73.4526 74.2174 73.453C74.3537 73.4531 74.4887 73.4261 74.6147 73.3733C74.7407 73.3205 74.8552 73.243 74.9517 73.1453C75.0482 73.0476 75.1248 72.9316 75.1772 72.8038C75.2295 72.6761 75.2565 72.5391 75.2566 72.4008C75.2566 72.4008 75.2722 70.6434 74.5292 68.8327C73.7862 67.022 72.0385 65.0254 69.0289 65.0254Z" fill="#396D96"/>
<path d="M79.4088 65.0254C76.3992 65.0254 74.654 67.022 73.9111 68.8327C73.1681 70.6434 73.1836 72.4008 73.1836 72.4008C73.184 72.6797 73.2933 72.9472 73.4876 73.1444C73.682 73.3417 73.9455 73.4526 74.2203 73.453C74.3566 73.4531 74.4916 73.4261 74.6176 73.3733C74.7436 73.3205 74.8581 73.243 74.9546 73.1453C75.0511 73.0476 75.1277 72.9316 75.1801 72.8038C75.2324 72.6761 75.2594 72.5391 75.2595 72.4008C75.2595 72.4008 75.2732 70.9936 75.8273 69.6431C76.3815 68.2925 77.23 67.1323 79.4088 67.1323C79.5454 67.1325 79.6806 67.1053 79.8068 67.0523C79.9329 66.9994 80.0475 66.9217 80.1441 66.8237C80.2406 66.7258 80.3171 66.6094 80.3693 66.4814C80.4215 66.3533 80.4482 66.2161 80.4481 66.0776C80.4479 65.9392 80.4209 65.8023 80.3686 65.6745C80.3163 65.5468 80.2397 65.4307 80.1432 65.333C80.0467 65.2353 79.9322 65.1579 79.8062 65.1051C79.6802 65.0523 79.5452 65.0252 79.4088 65.0254Z" fill="#396D96"/>
</g>
<g filter="url(#filter1_i_1390_10471)">
<rect y="105.646" width="188.654" height="51.5654" rx="25.7827" fill="#376990" fill-opacity="0.2"/>
</g>
<path d="M67.4915 133.399C66.6488 133.399 65.8648 133.255 65.1395 132.967C64.4248 132.668 63.7955 132.252 63.2515 131.719C62.7182 131.185 62.3022 130.567 62.0035 129.863C61.7048 129.148 61.5555 128.38 61.5555 127.559C61.5555 126.737 61.7048 125.975 62.0035 125.271C62.3022 124.556 62.7182 123.937 63.2515 123.415C63.7848 122.892 64.4088 122.487 65.1235 122.199C65.8488 121.9 66.6328 121.751 67.4755 121.751C68.3715 121.751 69.1662 121.895 69.8595 122.183C70.5635 122.471 71.1768 122.865 71.6995 123.367L70.0195 125.063C69.7208 124.743 69.3582 124.492 68.9315 124.311C68.5155 124.129 68.0302 124.039 67.4755 124.039C66.9848 124.039 66.5315 124.124 66.1155 124.295C65.7102 124.455 65.3582 124.689 65.0595 124.999C64.7715 125.308 64.5422 125.681 64.3715 126.119C64.2115 126.556 64.1315 127.036 64.1315 127.559C64.1315 128.092 64.2115 128.577 64.3715 129.015C64.5422 129.452 64.7715 129.825 65.0595 130.135C65.3582 130.444 65.7102 130.684 66.1155 130.855C66.5315 131.025 66.9848 131.111 67.4755 131.111C68.0515 131.111 68.5528 131.02 68.9795 130.839C69.4062 130.657 69.7742 130.407 70.0835 130.087L71.7795 131.783C71.2355 132.284 70.6115 132.679 69.9075 132.967C69.2142 133.255 68.4088 133.399 67.4915 133.399ZM72.9388 133.223V121.607H75.3868V133.223H72.9388ZM80.9506 133.399C80.108 133.399 79.356 133.228 78.6946 132.887C78.044 132.535 77.532 132.049 77.1586 131.431C76.7853 130.812 76.5986 130.113 76.5986 129.335C76.5986 128.556 76.78 127.863 77.1426 127.255C77.516 126.636 78.0173 126.151 78.6466 125.799C79.276 125.447 79.9853 125.271 80.7746 125.271C81.5426 125.271 82.22 125.436 82.8066 125.767C83.3933 126.097 83.852 126.556 84.1826 127.143C84.524 127.729 84.6946 128.401 84.6946 129.159C84.6946 129.297 84.684 129.447 84.6626 129.607C84.652 129.756 84.6253 129.932 84.5826 130.135L77.8786 130.151V128.471L83.5426 128.455L82.4866 129.159C82.476 128.711 82.4066 128.343 82.2786 128.055C82.1506 127.756 81.9586 127.532 81.7026 127.383C81.4573 127.223 81.1533 127.143 80.7906 127.143C80.4066 127.143 80.0706 127.233 79.7826 127.415C79.5053 127.585 79.2866 127.831 79.1266 128.151C78.9773 128.471 78.9026 128.86 78.9026 129.319C78.9026 129.777 78.9826 130.172 79.1426 130.503C79.3133 130.823 79.548 131.073 79.8466 131.255C80.156 131.425 80.5186 131.511 80.9346 131.511C81.3186 131.511 81.6653 131.447 81.9746 131.319C82.284 131.18 82.556 130.977 82.7906 130.711L84.1346 132.055C83.7506 132.503 83.2866 132.839 82.7426 133.063C82.1986 133.287 81.6013 133.399 80.9506 133.399ZM89.1243 133.383C88.4096 133.383 87.7696 133.207 87.2043 132.855C86.6496 132.503 86.2069 132.023 85.8763 131.415C85.5563 130.807 85.3963 130.113 85.3963 129.335C85.3963 128.556 85.5563 127.863 85.8763 127.255C86.2069 126.647 86.6496 126.167 87.2043 125.815C87.7696 125.463 88.4096 125.287 89.1243 125.287C89.6469 125.287 90.1163 125.388 90.5323 125.591C90.9589 125.793 91.3056 126.076 91.5723 126.439C91.8389 126.791 91.9883 127.196 92.0203 127.655V131.015C91.9883 131.473 91.8389 131.884 91.5723 132.247C91.3163 132.599 90.9749 132.876 90.5483 133.079C90.1216 133.281 89.6469 133.383 89.1243 133.383ZM89.6203 131.175C90.1429 131.175 90.5643 131.004 90.8843 130.663C91.2043 130.311 91.3643 129.868 91.3643 129.335C91.3643 128.972 91.2896 128.652 91.1403 128.375C91.0016 128.097 90.7989 127.884 90.5323 127.735C90.2763 127.575 89.9776 127.495 89.6363 127.495C89.2949 127.495 88.9909 127.575 88.7243 127.735C88.4683 127.884 88.2603 128.097 88.1003 128.375C87.9509 128.652 87.8763 128.972 87.8763 129.335C87.8763 129.687 87.9509 130.001 88.1003 130.279C88.2496 130.556 88.4576 130.775 88.7243 130.935C88.9909 131.095 89.2896 131.175 89.6203 131.175ZM91.2683 133.223V131.127L91.6363 129.239L91.2683 127.351V125.447H93.6683V133.223H91.2683ZM100.528 133.223V128.791C100.528 128.385 100.4 128.06 100.144 127.815C99.8986 127.559 99.5839 127.431 99.1999 127.431C98.9332 127.431 98.6986 127.489 98.4959 127.607C98.2932 127.713 98.1332 127.873 98.0159 128.087C97.8986 128.289 97.8399 128.524 97.8399 128.791L96.8959 128.327C96.8959 127.719 97.0292 127.185 97.2959 126.727C97.5626 126.268 97.9306 125.916 98.3999 125.671C98.8799 125.415 99.4186 125.287 100.016 125.287C100.592 125.287 101.099 125.425 101.536 125.703C101.984 125.969 102.336 126.327 102.592 126.775C102.848 127.223 102.976 127.713 102.976 128.247V133.223H100.528ZM95.3919 133.223V125.447H97.8399V133.223H95.3919ZM104.548 133.223V125.447H106.996V133.223H104.548ZM105.78 124.375C105.396 124.375 105.076 124.247 104.82 123.991C104.575 123.724 104.452 123.404 104.452 123.031C104.452 122.647 104.575 122.327 104.82 122.071C105.076 121.815 105.396 121.687 105.78 121.687C106.164 121.687 106.479 121.815 106.724 122.071C106.969 122.327 107.092 122.647 107.092 123.031C107.092 123.404 106.969 123.724 106.724 123.991C106.479 124.247 106.164 124.375 105.78 124.375ZM113.856 133.223V128.791C113.856 128.385 113.728 128.06 113.472 127.815C113.227 127.559 112.912 127.431 112.528 127.431C112.261 127.431 112.027 127.489 111.824 127.607C111.621 127.713 111.461 127.873 111.344 128.087C111.227 128.289 111.168 128.524 111.168 128.791L110.224 128.327C110.224 127.719 110.357 127.185 110.624 126.727C110.891 126.268 111.259 125.916 111.728 125.671C112.208 125.415 112.747 125.287 113.344 125.287C113.92 125.287 114.427 125.425 114.864 125.703C115.312 125.969 115.664 126.327 115.92 126.775C116.176 127.223 116.304 127.713 116.304 128.247V133.223H113.856ZM108.72 133.223V125.447H111.168V133.223H108.72ZM121.172 136.711C120.319 136.711 119.567 136.561 118.916 136.263C118.276 135.975 117.77 135.564 117.396 135.031L118.9 133.527C119.178 133.857 119.487 134.108 119.828 134.279C120.18 134.449 120.602 134.535 121.092 134.535C121.7 134.535 122.175 134.385 122.516 134.087C122.868 133.788 123.044 133.367 123.044 132.823V130.839L123.46 129.143L123.092 127.447V125.447H125.492V132.759C125.492 133.559 125.306 134.252 124.932 134.839C124.559 135.425 124.047 135.884 123.396 136.215C122.746 136.545 122.004 136.711 121.172 136.711ZM121.06 132.983C120.346 132.983 119.711 132.812 119.156 132.471C118.602 132.129 118.164 131.665 117.844 131.079C117.524 130.492 117.364 129.841 117.364 129.127C117.364 128.401 117.524 127.751 117.844 127.175C118.164 126.588 118.602 126.129 119.156 125.799C119.711 125.457 120.346 125.287 121.06 125.287C121.594 125.287 122.068 125.388 122.484 125.591C122.911 125.783 123.252 126.06 123.508 126.423C123.775 126.775 123.924 127.185 123.956 127.655V130.615C123.924 131.073 123.775 131.484 123.508 131.847C123.252 132.199 122.911 132.476 122.484 132.679C122.058 132.881 121.583 132.983 121.06 132.983ZM121.524 130.807C121.866 130.807 122.159 130.732 122.404 130.583C122.66 130.433 122.852 130.236 122.98 129.991C123.119 129.735 123.188 129.447 123.188 129.127C123.188 128.807 123.119 128.519 122.98 128.263C122.852 128.007 122.66 127.804 122.404 127.655C122.159 127.505 121.866 127.431 121.524 127.431C121.194 127.431 120.9 127.505 120.644 127.655C120.388 127.804 120.191 128.007 120.052 128.263C119.914 128.519 119.844 128.807 119.844 129.127C119.844 129.425 119.914 129.708 120.052 129.975C120.191 130.231 120.383 130.433 120.628 130.583C120.884 130.732 121.183 130.807 121.524 130.807Z" fill="#315D80"/>
<g filter="url(#filter2_di_1390_10471)">
<path d="M32.6992 105.646C32.6992 100.089 37.2039 95.584 42.7608 95.584H144.634C150.191 95.584 154.695 100.089 154.695 105.646C154.695 111.202 150.191 115.707 144.634 115.707H42.7608C37.2039 115.707 32.6992 111.202 32.6992 105.646Z" fill="#376990"/>
</g>
<g filter="url(#filter3_d_1390_10471)">
<path d="M72.9745 108.457C72.4679 108.457 72.0245 108.357 71.6445 108.157C71.2712 107.957 70.9379 107.667 70.6445 107.287L71.2745 106.657C71.4879 106.957 71.7345 107.194 72.0145 107.367C72.2945 107.541 72.6245 107.627 73.0045 107.627C73.4112 107.627 73.7379 107.534 73.9845 107.347C74.2379 107.161 74.3645 106.901 74.3645 106.567C74.3645 106.307 74.3045 106.097 74.1845 105.937C74.0645 105.777 73.9045 105.647 73.7045 105.547C73.5045 105.441 73.2845 105.347 73.0445 105.267C72.8045 105.181 72.5645 105.091 72.3245 104.997C72.0912 104.897 71.8745 104.777 71.6745 104.637C71.4745 104.491 71.3145 104.301 71.1945 104.067C71.0745 103.834 71.0145 103.541 71.0145 103.187C71.0145 102.794 71.1079 102.461 71.2945 102.187C71.4879 101.907 71.7479 101.694 72.0745 101.547C72.4012 101.394 72.7679 101.317 73.1745 101.317C73.5945 101.317 73.9779 101.407 74.3245 101.587C74.6712 101.761 74.9579 101.991 75.1845 102.277L74.5545 102.907C74.3479 102.667 74.1312 102.481 73.9045 102.347C73.6779 102.214 73.4279 102.147 73.1545 102.147C72.7679 102.147 72.4645 102.231 72.2445 102.397C72.0245 102.564 71.9145 102.807 71.9145 103.127C71.9145 103.361 71.9745 103.551 72.0945 103.697C72.2212 103.837 72.3845 103.957 72.5845 104.057C72.7912 104.157 73.0112 104.251 73.2445 104.337C73.4845 104.417 73.7245 104.507 73.9645 104.607C74.2112 104.707 74.4345 104.834 74.6345 104.987C74.8345 105.141 74.9945 105.341 75.1145 105.587C75.2412 105.827 75.3045 106.131 75.3045 106.497C75.3045 107.111 75.0945 107.591 74.6745 107.937C74.2545 108.284 73.6879 108.457 72.9745 108.457ZM72.8345 109.357V100.417H73.4945V109.357H72.8345ZM76.2834 105.967L78.8134 101.417H79.8734L77.2934 105.967H76.2834ZM76.2834 106.547V105.967L76.6834 105.707H81.6034V106.547H76.2834ZM79.6734 108.357V103.767H80.6034V108.357H79.6734ZM85.23 108.457C84.71 108.457 84.2333 108.311 83.8 108.017C83.3733 107.724 83.0333 107.311 82.78 106.777C82.5267 106.237 82.4 105.604 82.4 104.877C82.4 104.151 82.5233 103.521 82.77 102.987C83.0233 102.454 83.3633 102.044 83.79 101.757C84.2167 101.464 84.6867 101.317 85.2 101.317C85.7267 101.317 86.2033 101.464 86.63 101.757C87.0567 102.044 87.3933 102.454 87.64 102.987C87.8933 103.521 88.02 104.154 88.02 104.887C88.02 105.614 87.8933 106.247 87.64 106.787C87.3933 107.321 87.0567 107.734 86.63 108.027C86.21 108.314 85.7433 108.457 85.23 108.457ZM85.21 107.567C85.5767 107.567 85.8967 107.467 86.17 107.267C86.45 107.061 86.67 106.757 86.83 106.357C86.99 105.957 87.07 105.464 87.07 104.877C87.07 104.291 86.99 103.801 86.83 103.407C86.67 103.007 86.45 102.707 86.17 102.507C85.89 102.301 85.5667 102.197 85.2 102.197C84.84 102.197 84.52 102.301 84.24 102.507C83.96 102.707 83.74 103.007 83.58 103.407C83.4267 103.801 83.35 104.291 83.35 104.877C83.35 105.464 83.4267 105.957 83.58 106.357C83.74 106.757 83.96 107.061 84.24 107.267C84.52 107.467 84.8433 107.567 85.21 107.567ZM91.2326 106.237V105.387H94.5226V106.237H91.2326ZM100.162 108.457C99.6554 108.457 99.212 108.357 98.832 108.157C98.4587 107.957 98.1254 107.667 97.832 107.287L98.462 106.657C98.6754 106.957 98.922 107.194 99.202 107.367C99.482 107.541 99.812 107.627 100.192 107.627C100.599 107.627 100.925 107.534 101.172 107.347C101.425 107.161 101.552 106.901 101.552 106.567C101.552 106.307 101.492 106.097 101.372 105.937C101.252 105.777 101.092 105.647 100.892 105.547C100.692 105.441 100.472 105.347 100.232 105.267C99.992 105.181 99.752 105.091 99.512 104.997C99.2787 104.897 99.062 104.777 98.862 104.637C98.662 104.491 98.502 104.301 98.382 104.067C98.262 103.834 98.202 103.541 98.202 103.187C98.202 102.794 98.2954 102.461 98.482 102.187C98.6754 101.907 98.9354 101.694 99.262 101.547C99.5887 101.394 99.9554 101.317 100.362 101.317C100.782 101.317 101.165 101.407 101.512 101.587C101.859 101.761 102.145 101.991 102.372 102.277L101.742 102.907C101.535 102.667 101.319 102.481 101.092 102.347C100.865 102.214 100.615 102.147 100.342 102.147C99.9554 102.147 99.652 102.231 99.432 102.397C99.212 102.564 99.102 102.807 99.102 103.127C99.102 103.361 99.162 103.551 99.282 103.697C99.4087 103.837 99.572 103.957 99.772 104.057C99.9787 104.157 100.199 104.251 100.432 104.337C100.672 104.417 100.912 104.507 101.152 104.607C101.399 104.707 101.622 104.834 101.822 104.987C102.022 105.141 102.182 105.341 102.302 105.587C102.429 105.827 102.492 106.131 102.492 106.497C102.492 107.111 102.282 107.591 101.862 107.937C101.442 108.284 100.875 108.457 100.162 108.457ZM100.022 109.357V100.417H100.682V109.357H100.022ZM104.871 108.357V101.417H105.801V108.357H104.871ZM103.451 102.257V101.417H105.701V102.257H103.451ZM106.938 107.787L109.498 105.087C109.758 104.821 109.961 104.591 110.108 104.397C110.254 104.197 110.358 104.014 110.418 103.847C110.484 103.681 110.518 103.507 110.518 103.327C110.518 102.974 110.404 102.697 110.178 102.497C109.951 102.297 109.658 102.197 109.298 102.197C108.944 102.197 108.634 102.284 108.368 102.457C108.101 102.624 107.864 102.884 107.658 103.237L106.998 102.687C107.271 102.234 107.601 101.894 107.988 101.667C108.374 101.434 108.821 101.317 109.328 101.317C109.754 101.317 110.124 101.401 110.438 101.567C110.758 101.734 111.004 101.967 111.178 102.267C111.351 102.567 111.438 102.917 111.438 103.317C111.438 103.604 111.401 103.861 111.328 104.087C111.261 104.314 111.138 104.547 110.958 104.787C110.784 105.021 110.541 105.301 110.228 105.627L108.158 107.757L106.938 107.787ZM106.938 108.357V107.787L107.738 107.517H111.598V108.357H106.938ZM115.318 108.457C114.798 108.457 114.321 108.311 113.888 108.017C113.461 107.724 113.121 107.311 112.868 106.777C112.615 106.237 112.488 105.604 112.488 104.877C112.488 104.151 112.611 103.521 112.858 102.987C113.111 102.454 113.451 102.044 113.878 101.757C114.305 101.464 114.775 101.317 115.288 101.317C115.815 101.317 116.291 101.464 116.718 101.757C117.145 102.044 117.481 102.454 117.728 102.987C117.981 103.521 118.108 104.154 118.108 104.887C118.108 105.614 117.981 106.247 117.728 106.787C117.481 107.321 117.145 107.734 116.718 108.027C116.298 108.314 115.831 108.457 115.318 108.457ZM115.298 107.567C115.665 107.567 115.985 107.467 116.258 107.267C116.538 107.061 116.758 106.757 116.918 106.357C117.078 105.957 117.158 105.464 117.158 104.877C117.158 104.291 117.078 103.801 116.918 103.407C116.758 103.007 116.538 102.707 116.258 102.507C115.978 102.301 115.655 102.197 115.288 102.197C114.928 102.197 114.608 102.301 114.328 102.507C114.048 102.707 113.828 103.007 113.668 103.407C113.515 103.801 113.438 104.291 113.438 104.877C113.438 105.464 113.515 105.957 113.668 106.357C113.828 106.757 114.048 107.061 114.328 107.267C114.608 107.467 114.931 107.567 115.298 107.567Z" fill="#EEF4FF"/>
</g>
<defs>
<filter id="filter0_i_1390_10471" x="0" y="0" width="192.652" height="162.212" filterUnits="userSpaceOnUse" color-interpolation-filters="sRGB">
<feFlood flood-opacity="0" result="BackgroundImageFix"/>
<feBlend mode="normal" in="SourceGraphic" in2="BackgroundImageFix" result="shape"/>
<feColorMatrix in="SourceAlpha" type="matrix" values="0 0 0 0 0 0 0 0 0 0 0 0 0 0 0 0 0 0 127 0" result="hardAlpha"/>
<feOffset dx="4" dy="5"/>
<feGaussianBlur stdDeviation="2.5"/>
<feComposite in2="hardAlpha" operator="arithmetic" k2="-1" k3="1"/>
<feColorMatrix type="matrix" values="0 0 0 0 0.221667 0 0 0 0 0.487936 0 0 0 0 0.933333 0 0 0 0.06 0"/>
<feBlend mode="normal" in2="shape" result="effect1_innerShadow_1390_10471"/>
</filter>
<filter id="filter1_i_1390_10471" x="0" y="105.646" width="192.652" height="53.5654" filterUnits="userSpaceOnUse" color-interpolation-filters="sRGB">
<feFlood flood-opacity="0" result="BackgroundImageFix"/>
<feBlend mode="normal" in="SourceGraphic" in2="BackgroundImageFix" result="shape"/>
<feColorMatrix in="SourceAlpha" type="matrix" values="0 0 0 0 0 0 0 0 0 0 0 0 0 0 0 0 0 0 127 0" result="hardAlpha"/>
<feOffset dx="4" dy="2"/>
<feGaussianBlur stdDeviation="2.5"/>
<feComposite in2="hardAlpha" operator="arithmetic" k2="-1" k3="1"/>
<feColorMatrix type="matrix" values="0 0 0 0 0.215686 0 0 0 0 0.411765 0 0 0 0 0.564706 0 0 0 0.1 0"/>
<feBlend mode="normal" in2="shape" result="effect1_innerShadow_1390_10471"/>
</filter>
<filter id="filter2_di_1390_10471" x="29.6992" y="92.584" width="131.996" height="30.123" filterUnits="userSpaceOnUse" color-interpolation-filters="sRGB">
<feFlood flood-opacity="0" result="BackgroundImageFix"/>
<feColorMatrix in="SourceAlpha" type="matrix" values="0 0 0 0 0 0 0 0 0 0 0 0 0 0 0 0 0 0 127 0" result="hardAlpha"/>
<feOffset dx="2" dy="2"/>
<feGaussianBlur stdDeviation="2.5"/>
<feComposite in2="hardAlpha" operator="out"/>
<feColorMatrix type="matrix" values="0 0 0 0 0 0 0 0 0 0 0 0 0 0 0 0 0 0 0.05 0"/>
<feBlend mode="normal" in2="BackgroundImageFix" result="effect1_dropShadow_1390_10471"/>
<feBlend mode="normal" in="SourceGraphic" in2="effect1_dropShadow_1390_10471" result="shape"/>
<feColorMatrix in="SourceAlpha" type="matrix" values="0 0 0 0 0 0 0 0 0 0 0 0 0 0 0 0 0 0 127 0" result="hardAlpha"/>
<feOffset dx="2" dy="2"/>
<feGaussianBlur stdDeviation="5"/>
<feComposite in2="hardAlpha" operator="arithmetic" k2="-1" k3="1"/>
<feColorMatrix type="matrix" values="0 0 0 0 0.274722 0 0 0 0 0.553181 0 0 0 0 0.766667 0 0 0 1 0"/>
<feBlend mode="normal" in2="shape" result="effect2_innerShadow_1390_10471"/>
</filter>
<filter id="filter3_d_1390_10471" x="66.6445" y="96.417" width="55.4648" height="16.9404" filterUnits="userSpaceOnUse" color-interpolation-filters="sRGB">
<feFlood flood-opacity="0" result="BackgroundImageFix"/>
<feColorMatrix in="SourceAlpha" type="matrix" values="0 0 0 0 0 0 0 0 0 0 0 0 0 0 0 0 0 0 127 0" result="hardAlpha"/>
<feOffset/>
<feGaussianBlur stdDeviation="2"/>
<feComposite in2="hardAlpha" operator="out"/>
<feColorMatrix type="matrix" values="0 0 0 0 0 0 0 0 0 0 0 0 0 0 0 0 0 0 0.15 0"/>
<feBlend mode="normal" in2="BackgroundImageFix" result="effect1_dropShadow_1390_10471"/>
<feBlend mode="normal" in="SourceGraphic" in2="effect1_dropShadow_1390_10471" result="shape"/>
</filter>
<clipPath id="clip0_1390_10471">
<rect width="57.8538" height="61.6269" fill="white" transform="translate(65.3984 17.6074)"/>
</clipPath>
</defs>
</svg>
