<svg width="283" height="268" viewBox="0 0 283 268" fill="none" xmlns="http://www.w3.org/2000/svg">
<path d="M76.7697 70.3096H7.9897C6.08965 70.2547 4.28817 69.4516 2.97724 68.0751C1.66631 66.6986 0.951996 64.8601 0.989702 62.9596V9.23964C0.951996 7.33916 1.66631 5.5007 2.97724 4.12422C4.28817 2.74774 6.08965 1.94464 7.9897 1.88965H76.7697C78.6698 1.94464 80.4712 2.74774 81.7822 4.12422C83.0931 5.5007 83.8074 7.33916 83.7697 9.23964V62.9497C83.8101 64.8518 83.0969 66.6929 81.7857 68.0715C80.4745 69.4502 78.6715 70.2547 76.7697 70.3096ZM7.9897 3.76965C6.58121 3.81409 5.24763 4.4145 4.28065 5.43958C3.31367 6.46465 2.79198 7.83095 2.8297 9.23964V62.9497C2.79467 64.3566 3.31755 65.7204 4.28425 66.7433C5.25095 67.7662 6.58298 68.3652 7.9897 68.4097H76.7697C78.1755 68.3652 79.5066 67.7658 80.4717 66.7426C81.4368 65.7194 81.9574 64.3557 81.9197 62.9497V9.23964C81.9601 7.8319 81.4407 6.46558 80.4753 5.4402C79.5099 4.41482 78.1773 3.81408 76.7697 3.76965H7.9897Z" fill="#CDE0FF"/>
<path d="M82.8625 62.9501C82.9028 64.6071 82.2843 66.2124 81.1426 67.4141C80.001 68.6157 78.4294 69.3155 76.7725 69.3601H7.99248C6.33382 69.3181 4.75965 68.6195 3.61585 67.4176C2.47205 66.2156 1.85219 64.6088 1.89247 62.9501V9.24007C1.85219 7.58137 2.47205 5.97453 3.61585 4.7726C4.75965 3.57067 6.33382 2.872 7.99248 2.83008H76.7725C78.4294 2.8746 80.001 3.57442 81.1426 4.77606C82.2843 5.9777 82.9028 7.58306 82.8625 9.24007V62.9501Z" fill="#DA3A51"/>
<path d="M84.0624 60.0701C84.0757 60.8664 83.9303 61.6574 83.6347 62.3969C83.3391 63.1364 82.8993 63.8097 82.3408 64.3775C81.7823 64.9453 81.1164 65.3962 80.3818 65.704C79.6473 66.0117 78.8588 66.1702 78.0624 66.1701H10.4924C9.69789 66.1635 8.91245 66.0006 8.18093 65.6905C7.44941 65.3804 6.78614 64.9292 6.22898 64.3628C5.67183 63.7963 5.2317 63.1257 4.93373 62.3891C4.63577 61.6526 4.4858 60.8646 4.4924 60.0701V8.93007C4.4858 8.13556 4.63577 7.34755 4.93373 6.61101C5.2317 5.87446 5.67183 5.20382 6.22898 4.63737C6.78614 4.07093 7.44941 3.61977 8.18093 3.30968C8.91245 2.99958 9.69789 2.83662 10.4924 2.83008H78.0624C78.8569 2.83662 79.6423 2.99958 80.3738 3.30968C81.1054 3.61977 81.7686 4.07093 82.3258 4.63737C82.883 5.20382 83.3231 5.87446 83.6211 6.61101C83.919 7.34755 84.069 8.13556 84.0624 8.93007V60.0701Z" fill="#EA4B62"/>
<path d="M58.5774 20.5703C58.5423 20.85 58.3992 21.1049 58.1788 21.2805C57.9583 21.4561 57.6779 21.5386 57.3974 21.5103H15.7474C15.5964 21.5651 15.4344 21.5827 15.2751 21.5617C15.1158 21.5406 14.9639 21.4814 14.8323 21.3892C14.7007 21.297 14.5933 21.1744 14.5191 21.0319C14.445 20.8893 14.4062 20.731 14.4062 20.5703C14.4062 20.4096 14.445 20.2513 14.5191 20.1088C14.5933 19.9662 14.7007 19.8436 14.8323 19.7514C14.9639 19.6592 15.1158 19.6 15.2751 19.579C15.4344 19.5579 15.5964 19.5755 15.7474 19.6303H57.3974C57.6779 19.602 57.9583 19.6845 58.1788 19.8601C58.3992 20.0357 58.5423 20.2906 58.5774 20.5703Z" fill="white"/>
<path d="M61.7597 31.3795C61.7245 31.6769 61.5736 31.9486 61.3397 32.1358C61.1058 32.3229 60.8077 32.4104 60.5097 32.3795H16.4297C16.1317 32.4104 15.8336 32.3229 15.5996 32.1358C15.3657 31.9486 15.2149 31.6769 15.1797 31.3795C15.1797 30.8595 15.7397 30.4395 16.4297 30.4395H60.5097C61.1997 30.4395 61.7597 30.8595 61.7597 31.3795Z" fill="white"/>
<path d="M73.5406 41.15C73.5406 41.67 72.8406 42.09 71.9906 42.09H17.1906C16.3406 42.09 15.6406 41.67 15.6406 41.15C15.6406 40.63 16.3406 40.21 17.1906 40.21H71.9906C72.8406 40.21 73.5406 40.63 73.5406 41.15Z" fill="white"/>
<path d="M30.4695 81.4398C30.468 82.2078 30.242 82.9586 29.8195 83.5999C29.3913 84.2336 28.7862 84.7274 28.0795 85.0198C27.3719 85.3165 26.5913 85.3931 25.8395 85.2398C25.0823 85.0931 24.386 84.7241 23.8395 84.1798C23.2917 83.6422 22.9186 82.9521 22.7688 82.1994C22.619 81.4466 22.6994 80.6662 22.9995 79.9598C23.292 79.2531 23.7858 78.6481 24.4195 78.2198C25.1669 77.7243 26.0623 77.5015 26.9548 77.5889C27.8473 77.6763 28.6824 78.0687 29.3195 78.6999C30.0494 79.4256 30.4628 80.4105 30.4695 81.4398Z" fill="#315D80"/>
<path d="M48.2414 81.9795C48.2399 82.7474 48.0139 83.4982 47.5914 84.1394C47.1632 84.7731 46.5581 85.267 45.8514 85.5594C45.1421 85.8523 44.362 85.9288 43.6093 85.7793C42.8566 85.6298 42.165 85.2611 41.6214 84.7194C41.0787 84.1782 40.709 83.488 40.5591 82.7364C40.4092 81.9847 40.4859 81.2055 40.7794 80.4975C41.0728 79.7895 41.57 79.1846 42.2077 78.7594C42.8454 78.3343 43.595 78.108 44.3614 78.1094C45.1297 78.1053 45.8818 78.3305 46.5213 78.7563C47.1609 79.1821 47.6588 79.789 47.9514 80.4994C48.1424 80.9695 48.2409 81.4721 48.2414 81.9795Z" fill="#315D80"/>
<path d="M65.9213 81.9794C65.9245 82.7481 65.6982 83.5002 65.2713 84.1394C64.843 84.7731 64.2379 85.2669 63.5313 85.5594C62.8236 85.8561 62.0431 85.9327 61.2913 85.7794C60.5364 85.626 59.842 85.258 59.2913 84.7194C58.7493 84.1781 58.3802 83.4881 58.2307 82.7369C58.0812 81.9857 58.1579 81.207 58.4513 80.4994C58.748 79.7923 59.245 79.1875 59.8813 78.7594C60.5205 78.3325 61.2726 78.1062 62.0413 78.1094C62.5498 78.1081 63.0537 78.2073 63.5238 78.4013C63.9939 78.5953 64.4211 78.8803 64.7807 79.24C65.1403 79.5996 65.4253 80.0268 65.6194 80.4969C65.8134 80.967 65.9126 81.4708 65.9113 81.9794H65.9213Z" fill="#315D80"/>
<path d="M175.191 86.38H106.431C104.531 86.325 102.73 85.5219 101.419 84.1454C100.108 82.7689 99.3934 80.9304 99.4311 79.03V25.31C99.3934 23.4095 100.108 21.571 101.419 20.1945C102.73 18.8181 104.531 18.015 106.431 17.96H175.191C177.092 18.0124 178.895 18.8147 180.207 20.1917C181.518 21.5688 182.231 23.4087 182.191 25.31V79.02C182.234 80.9229 181.522 82.7655 180.21 84.1447C178.898 85.5239 177.094 86.3276 175.191 86.38ZM106.421 19.86C105.014 19.9044 103.682 20.5035 102.716 21.5264C101.749 22.5493 101.226 23.913 101.261 25.32V79.03C101.226 80.4379 101.749 81.8027 102.715 82.8272C103.681 83.8517 105.013 84.4529 106.421 84.5H175.191C176.6 84.4555 177.933 83.8551 178.9 82.83C179.867 81.8049 180.389 80.4387 180.351 79.03V25.31C180.389 23.9022 179.867 22.537 178.9 21.5135C177.932 20.4901 176.599 19.8918 175.191 19.85L106.421 19.86Z" fill="#CDE0FF"/>
<path d="M181.3 79.0294C181.34 80.6881 180.72 82.295 179.577 83.4969C178.433 84.6988 176.859 85.3975 175.2 85.4394H106.43C104.771 85.3975 103.197 84.6988 102.053 83.4969C100.91 82.295 100.29 80.6881 100.33 79.0294V25.3094C100.29 23.6507 100.91 22.0439 102.053 20.8419C103.197 19.64 104.771 18.9413 106.43 18.8994H175.19C176.849 18.9413 178.423 19.64 179.567 20.8419C180.71 22.0439 181.33 23.6507 181.29 25.3094L181.3 79.0294Z" fill="#645675"/>
<path d="M182.503 76.1499C182.516 76.9462 182.371 77.7372 182.075 78.4767C181.779 79.2163 181.34 79.8896 180.781 80.4574C180.223 81.0251 179.557 81.4761 178.822 81.7838C178.088 82.0916 177.299 82.25 176.503 82.2499H108.923C108.126 82.25 107.338 82.0916 106.603 81.7838C105.869 81.4761 105.203 81.0251 104.644 80.4574C104.086 79.8896 103.646 79.2163 103.35 78.4767C103.055 77.7372 102.909 76.9462 102.923 76.1499V25.0099C102.911 24.2144 103.057 23.4245 103.353 22.6862C103.65 21.9478 104.09 21.2757 104.648 20.709C105.206 20.1423 105.872 19.6922 106.606 19.3851C107.34 19.078 108.127 18.9198 108.923 18.9199H176.503C177.298 18.9198 178.086 19.078 178.82 19.3851C179.554 19.6922 180.219 20.1423 180.777 20.709C181.336 21.2757 181.776 21.9478 182.072 22.6862C182.368 23.4245 182.515 24.2144 182.503 25.0099V76.1499Z" fill="#6B5E7A"/>
<path d="M157.023 36.6494C156.988 36.9291 156.845 37.184 156.624 37.3596C156.404 37.5352 156.123 37.6177 155.843 37.5894H114.193C114.042 37.6442 113.88 37.6619 113.72 37.6408C113.561 37.6197 113.409 37.5605 113.278 37.4683C113.146 37.3761 113.039 37.2535 112.964 37.111C112.89 36.9684 112.852 36.8101 112.852 36.6494C112.852 36.4887 112.89 36.3304 112.964 36.1879C113.039 36.0453 113.146 35.9227 113.278 35.8305C113.409 35.7383 113.561 35.6791 113.72 35.6581C113.88 35.637 114.042 35.6546 114.193 35.7094H155.843C156.123 35.6811 156.404 35.7636 156.624 35.9392C156.845 36.1149 156.988 36.3697 157.023 36.6494Z" fill="white"/>
<path d="M160.187 47.47C160.187 47.99 159.627 48.41 158.937 48.41H114.867C114.177 48.41 113.617 47.99 113.617 47.47C113.652 47.1725 113.803 46.9008 114.037 46.7137C114.271 46.5265 114.569 46.439 114.867 46.47H158.947C159.245 46.439 159.543 46.5265 159.777 46.7137C160.011 46.9008 160.162 47.1725 160.197 47.47H160.187Z" fill="white"/>
<path d="M171.973 57.23C171.973 57.75 171.282 58.18 170.432 58.18H115.613C114.753 58.18 114.062 57.75 114.062 57.23C114.062 56.71 114.753 56.29 115.613 56.29H170.432C171.282 56.31 171.973 56.72 171.973 57.23Z" fill="white"/>
<path d="M170.191 29.0898C166.832 30.4914 163.927 32.797 161.8 35.7505C159.673 38.704 158.406 42.1897 158.141 45.8199C156.961 58.7499 166.411 62.3898 166.411 62.3898L191.671 54.5898L170.191 29.0898Z" fill="black"/>
<path d="M210.992 22.5303C210.992 22.5303 226.422 29.0303 228.202 40.5303C229.982 52.0303 221.112 60.8203 221.112 60.8203C221.112 60.8203 242.852 62.5803 243.252 79.8203C243.652 97.0603 220.192 98.0403 220.192 98.0403L159.862 92.7503C159.862 92.7503 148.382 78.8503 162.472 60.7503C175.342 44.3103 210.992 22.5303 210.992 22.5303Z" fill="black"/>
<path d="M145.251 170.49C145.251 170.49 132.251 211.04 127.411 245C122.571 278.96 121.411 333.56 125.571 335.32C129.731 337.08 177.881 336.4 177.881 336.4C177.881 336.4 194.261 339.93 222.181 337.54C230.088 336.939 237.954 335.891 245.741 334.4C247.102 334.133 248.324 333.393 249.191 332.31C250.052 331.212 250.499 329.845 250.451 328.45C249.741 305.45 245.921 207.11 231.561 187.72C218.831 170.48 145.251 170.49 145.251 170.49Z" fill="#F1D15B"/>
<path d="M145.92 87.5596C145.92 87.5596 113.43 116.31 87.1895 117.96C74.5495 118.77 57.5895 112.73 57.5895 112.73L42.5195 152.18C42.5195 152.18 95.5195 202.4 149.46 162.82C165 151.45 145.92 87.5596 145.92 87.5596Z" fill="#A85571"/>
<path d="M181.737 74.8795C181.737 74.8795 153.097 77.4095 142.337 91.2495C131.577 105.09 145.797 191.87 146.567 193.07C147.337 194.27 167.337 204.449 202.067 202.359C228.717 200.739 239.127 194.13 240.277 192.28C241.427 190.43 235.187 90.1895 226.767 81.8795C218.347 73.5695 202.687 72.3095 181.737 74.8795Z" fill="#C06A87"/>
<path d="M59.7299 124.31L59.0799 120.14C59.0799 120.14 43.0799 107.99 33.2999 103.98C29.1899 102.29 23.3799 103.7 28.2999 109.17C29.9795 111.088 31.3309 113.271 32.2999 115.63C32.2999 115.63 24.4199 113.14 19.0099 109.55C15.5399 107.26 10.4799 98.0196 7.50987 100.02C2.80987 103.21 8.20987 112.22 8.20987 112.22C8.20987 112.22 5.75987 100.8 1.08987 105.22C-3.58013 109.64 9.08987 132.09 15.1899 137.44C21.2899 142.79 53.1199 149.03 53.1199 149.03L59.7299 124.31Z" fill="#315D80"/>
<path d="M26.188 120.529C18.688 119.799 11.948 113.479 11.668 113.239C11.5916 113.179 11.5272 113.104 11.478 113.019C11.4363 112.931 11.4093 112.837 11.398 112.739C11.3778 112.644 11.3778 112.545 11.398 112.449C11.4307 112.357 11.4817 112.272 11.548 112.199C11.6174 112.132 11.6987 112.077 11.788 112.039C11.8763 112.001 11.9716 111.98 12.068 111.979C12.1684 111.983 12.2672 112.006 12.358 112.049C12.4447 112.091 12.5228 112.149 12.588 112.219C12.648 112.279 19.268 118.449 26.218 119.129C26.3948 119.152 26.5563 119.241 26.6696 119.379C26.783 119.516 26.8396 119.692 26.828 119.869C26.8197 120.044 26.7445 120.209 26.618 120.329C26.5038 120.446 26.3509 120.517 26.188 120.529Z" fill="white"/>
<path d="M17.8716 125.72C17.7203 125.719 17.5731 125.67 17.4516 125.58L10.7816 120.58C10.6318 120.465 10.5331 120.296 10.507 120.109C10.4808 119.922 10.5291 119.732 10.6416 119.58C10.7567 119.437 10.9204 119.341 11.1016 119.31C11.1926 119.296 11.2855 119.3 11.3748 119.322C11.4641 119.345 11.548 119.385 11.6216 119.44L17.9116 124.15L31.4916 115.92C31.5681 115.876 31.6528 115.848 31.7405 115.837C31.8282 115.827 31.917 115.835 32.0016 115.86C32.0894 115.883 32.1718 115.923 32.244 115.978C32.3161 116.032 32.3765 116.101 32.4216 116.18C32.5133 116.333 32.542 116.516 32.5016 116.69C32.4854 116.778 32.4513 116.861 32.4014 116.935C32.3515 117.009 32.2869 117.072 32.2116 117.12L18.2116 125.6C18.1112 125.67 17.9937 125.711 17.8716 125.72Z" fill="white"/>
<path d="M44.7487 125.449H44.5387C39.4988 123.779 34.9551 120.878 31.3187 117.009C31.2549 116.945 31.207 116.866 31.1787 116.779C31.1592 116.69 31.1592 116.598 31.1787 116.509C31.1831 116.416 31.2069 116.324 31.2487 116.239C31.2907 116.159 31.3485 116.087 31.4187 116.029C31.4868 115.97 31.5646 115.923 31.6487 115.889C31.7414 115.874 31.836 115.874 31.9287 115.889C32.0188 115.897 32.1068 115.921 32.1887 115.959C32.2724 116.001 32.3471 116.059 32.4087 116.129C35.8917 119.781 40.2134 122.527 44.9987 124.129C45.1554 124.184 45.2892 124.29 45.3787 124.429C45.4637 124.574 45.4955 124.744 45.4687 124.909C45.4445 125.075 45.3613 125.225 45.2344 125.334C45.1075 125.442 44.9456 125.501 44.7787 125.499L44.7487 125.449Z" fill="white"/>
<path d="M50.4973 160.2L42.8673 157.66C42.6202 157.588 42.3893 157.469 42.1873 157.31C41.9968 157.145 41.8405 156.945 41.7273 156.72C41.6142 156.492 41.5495 156.244 41.5373 155.99C41.5171 155.74 41.5477 155.488 41.6273 155.25L55.9473 112.31C56.0246 112.07 56.1505 111.849 56.3173 111.66C56.4833 111.471 56.6835 111.315 56.9073 111.2C57.364 110.972 57.8918 110.933 58.3773 111.09L66.0173 113.64C66.2574 113.72 66.4793 113.847 66.6702 114.013C66.8612 114.179 67.0174 114.381 67.1298 114.608C67.2423 114.835 67.3088 115.082 67.3255 115.334C67.3422 115.587 67.3089 115.84 67.2273 116.08L52.9373 158.94C52.7731 159.423 52.4248 159.823 51.968 160.051C51.5112 160.28 50.9827 160.319 50.4973 160.16V160.2Z" fill="#E6F4FF"/>
<path d="M145.992 138.04C145.825 138.04 145.663 137.98 145.535 137.872C145.407 137.765 145.321 137.615 145.292 137.45C143.093 124.878 145.699 111.94 152.592 101.2C152.644 101.122 152.712 101.057 152.792 101.01C152.87 100.959 152.957 100.925 153.048 100.91C153.139 100.895 153.233 100.898 153.322 100.92C153.411 100.948 153.495 100.988 153.572 101.04C153.722 101.151 153.822 101.316 153.852 101.5C153.868 101.59 153.865 101.682 153.845 101.772C153.824 101.861 153.786 101.945 153.732 102.02C147.058 112.449 144.542 125.004 146.682 137.2C146.707 137.291 146.707 137.388 146.682 137.48C146.66 137.569 146.623 137.653 146.572 137.73C146.521 137.807 146.453 137.872 146.372 137.92C146.291 137.97 146.198 138.001 146.102 138.01L145.992 138.04Z" fill="#E6F4FF"/>
<path d="M174.582 38.7003C174.582 38.7003 161.752 33.7603 161.122 43.5903C160.392 54.9803 173.952 54.5903 173.952 54.5903L174.582 38.7003Z" fill="#315D80"/>
<path d="M168.62 49.0799C168.506 49.0784 168.393 49.0511 168.29 48.9999C168.189 48.9414 168.103 48.859 168.04 48.7599L163.56 41.6999C163.511 41.6239 163.477 41.539 163.46 41.4499C163.445 41.3605 163.445 41.2692 163.46 41.1799C163.482 41.0908 163.52 41.0063 163.57 40.9299C163.683 40.7862 163.842 40.687 164.02 40.6499C164.11 40.6349 164.201 40.6349 164.29 40.6499C164.379 40.6719 164.464 40.7091 164.54 40.7599C164.611 40.8167 164.671 40.8842 164.72 40.9599L169.2 48.0199C169.249 48.0944 169.282 48.178 169.298 48.2657C169.313 48.3533 169.311 48.4432 169.29 48.5299C169.256 48.6841 169.17 48.822 169.046 48.9202C168.922 49.0185 168.768 49.0714 168.61 49.0699L168.62 49.0799Z" fill="black"/>
<path d="M163.651 47.09C163.48 47.0774 163.32 47.0027 163.201 46.88C163.089 46.7509 163.027 46.5859 163.027 46.415C163.027 46.2442 163.089 46.0791 163.201 45.95C163.314 45.8222 163.471 45.7404 163.641 45.72L167.241 45.53C167.333 45.5147 167.428 45.5147 167.521 45.53C167.605 45.5632 167.683 45.6105 167.751 45.67C167.818 45.732 167.873 45.8068 167.911 45.89C167.947 45.9751 167.965 46.0674 167.961 46.16C167.981 46.2455 167.981 46.3345 167.961 46.42C167.938 46.5064 167.893 46.5856 167.831 46.65C167.771 46.7195 167.695 46.7742 167.611 46.81C167.533 46.8488 167.448 46.8693 167.361 46.87L163.751 47.07L163.651 47.09Z" fill="black"/>
<path d="M198.352 62.3896L198.932 79.2297C195.403 81.1289 191.51 82.2506 187.512 82.5197C178.872 82.9797 175.762 77.9497 175.762 77.9497L175.262 62.3896H198.352Z" fill="#315D80"/>
<path d="M198.338 64.6002C198.338 64.6002 194.588 76.8302 184.718 75.7202C176.768 74.8302 174.578 63.1602 174.578 63.1602L198.338 64.6002Z" fill="black"/>
<path d="M170.191 29.0902C170.191 29.0902 165.531 53.6002 172.881 64.0902C180.761 75.3602 191.761 70.9902 196.131 67.3702C199.643 64.4784 202.33 60.7118 203.921 56.4502C203.921 56.4502 212.321 57.8102 214.851 50.9002C217.511 43.6502 212.111 38.0702 207.931 37.9002C203.751 37.7302 203.291 38.4902 203.291 38.4902L204.231 30.8102C204.231 30.8102 177.831 3.54023 170.191 29.0902Z" fill="#315D80"/>
<path d="M205.041 49.3899C204.948 49.3901 204.855 49.3696 204.771 49.3299C204.683 49.2945 204.605 49.2398 204.541 49.1699C204.478 49.1036 204.429 49.0249 204.398 48.9388C204.367 48.8527 204.355 48.7611 204.361 48.6699C204.363 48.5806 204.384 48.4928 204.422 48.412C204.46 48.3311 204.514 48.2589 204.581 48.1999L210.811 42.4399C210.946 42.3207 211.121 42.2565 211.301 42.2599C211.391 42.2625 211.48 42.2829 211.562 42.3202C211.644 42.3574 211.718 42.4106 211.78 42.4766C211.841 42.5427 211.889 42.6204 211.92 42.7051C211.951 42.7897 211.965 42.8798 211.961 42.9699C211.953 43.1525 211.874 43.3247 211.741 43.4499L205.501 49.1999C205.378 49.3208 205.213 49.389 205.041 49.3899Z" fill="black"/>
<path d="M210.989 50.1901C210.849 50.1916 210.713 50.1497 210.599 50.0701L206.699 47.3501C206.551 47.2447 206.447 47.0878 206.409 46.9101C206.393 46.8214 206.395 46.7304 206.416 46.6427C206.437 46.555 206.475 46.4724 206.529 46.4001C206.579 46.3245 206.643 46.2599 206.719 46.21C206.795 46.1602 206.88 46.1262 206.969 46.1101C207.147 46.0807 207.329 46.12 207.479 46.2201L211.379 48.9501C211.497 49.0288 211.585 49.1451 211.629 49.2801C211.674 49.4199 211.674 49.5703 211.629 49.7101C211.585 49.8477 211.497 49.9672 211.379 50.0501C211.268 50.1381 211.131 50.1872 210.989 50.1901Z" fill="black"/>
<path d="M183.438 54.4994C183.33 54.4977 183.224 54.4703 183.128 54.4193C183.03 54.3694 182.945 54.2976 182.878 54.2093C179.878 49.9293 182.138 43.6294 182.238 43.3594C182.267 43.2729 182.315 43.1942 182.378 43.1294C182.437 43.0622 182.508 43.0078 182.588 42.9694C182.671 42.9353 182.759 42.915 182.848 42.9094C182.938 42.8948 183.029 42.8948 183.118 42.9094C183.201 42.9404 183.275 42.9881 183.338 43.0494C183.406 43.1113 183.46 43.1861 183.498 43.2694C183.538 43.3502 183.559 43.4392 183.558 43.5294C183.573 43.6154 183.573 43.7033 183.558 43.7893C183.558 43.8493 181.418 49.6694 184.038 53.3794C184.138 53.5281 184.178 53.7095 184.148 53.8863C184.118 54.063 184.022 54.2216 183.878 54.3293C183.755 54.4331 183.6 54.4929 183.438 54.4994Z" fill="black"/>
<path d="M174.01 36.1703C173.836 36.1716 173.668 36.1073 173.54 35.9903C173.474 35.9307 173.421 35.8582 173.385 35.7773C173.349 35.6964 173.33 35.6089 173.33 35.5203C173.324 35.4299 173.336 35.3392 173.365 35.2534C173.394 35.1676 173.44 35.0884 173.5 35.0203C175.08 33.3203 177.98 33.0203 178.1 33.0203C178.186 33.005 178.274 33.005 178.36 33.0203C178.445 33.0481 178.526 33.0885 178.6 33.1403C178.667 33.1974 178.724 33.2649 178.77 33.3403C178.808 33.4187 178.832 33.5034 178.84 33.5903C178.85 33.6772 178.843 33.7652 178.819 33.8494C178.795 33.9335 178.754 34.012 178.7 34.0803C178.59 34.2179 178.433 34.3103 178.26 34.3403C176.887 34.4695 175.586 35.0136 174.53 35.9003C174.47 35.981 174.391 36.0459 174.3 36.0895C174.21 36.133 174.11 36.1539 174.01 36.1503V36.1703Z" fill="black"/>
<path d="M194.189 35.6496C194.096 35.6498 194.004 35.6293 193.919 35.5896C193.833 35.5516 193.755 35.4972 193.689 35.4296C192.631 34.5501 191.33 34.013 189.959 33.8896C189.87 33.8839 189.783 33.8596 189.704 33.8183C189.625 33.7769 189.555 33.7195 189.499 33.6496C189.44 33.5816 189.395 33.5022 189.367 33.4162C189.34 33.3302 189.33 33.2394 189.339 33.1496C189.348 33.0597 189.372 32.9719 189.409 32.8896C189.451 32.8089 189.509 32.7375 189.579 32.6796C189.648 32.626 189.726 32.5853 189.809 32.5596C189.898 32.54 189.99 32.54 190.079 32.5596C191.79 32.7172 193.405 33.4181 194.689 34.5596C194.817 34.6904 194.889 34.8663 194.889 35.0496C194.89 35.1389 194.872 35.2273 194.838 35.3098C194.803 35.3922 194.753 35.4669 194.689 35.5296C194.542 35.6264 194.365 35.6689 194.189 35.6496Z" fill="black"/>
<path d="M187.532 61.4996C186.301 61.4199 185.124 60.9624 184.162 60.1896C184.068 60.1128 183.996 60.0129 183.952 59.8996C183.922 59.7815 183.922 59.6577 183.952 59.5396C183.979 59.4215 184.034 59.3116 184.112 59.2196C184.193 59.1275 184.296 59.0585 184.412 59.0196L190.472 57.0196C190.59 56.9896 190.714 56.9896 190.832 57.0196C190.953 57.0491 191.064 57.1114 191.152 57.1996C191.243 57.2872 191.309 57.3978 191.342 57.5196C191.377 57.6371 191.377 57.7622 191.342 57.8796C190.792 59.7896 189.852 60.9496 188.562 61.3596C188.227 61.4545 187.88 61.5017 187.532 61.4996ZM186.242 59.8396C186.825 60.1289 187.492 60.1999 188.122 60.0396C188.719 59.816 189.203 59.3671 189.472 58.7896L186.242 59.8396Z" fill="black"/>
<path d="M181.799 84.3795C181.799 84.3795 178.539 112.729 178.539 133.009C178.539 149.469 179.889 182.809 179.889 182.809H189.329C189.329 182.809 187.099 138.969 187.099 128.249C187.099 116.529 189.379 84.3795 189.379 84.3795C189.379 84.3795 186.549 81.2295 181.799 84.3795Z" fill="#D0B241"/>
<path d="M216.372 216.17L174.592 241.68C173.731 242.113 172.754 242.261 171.804 242.102C170.853 241.944 169.977 241.488 169.302 240.8L112.832 183.87C111.432 182.46 111.532 180.56 113.052 179.64L154.852 154.11C155.712 153.676 156.688 153.527 157.639 153.683C158.589 153.84 159.466 154.294 160.142 154.98L216.602 211.98C217.992 213.31 217.892 215.23 216.372 216.17Z" fill="#F8F8F8"/>
<path d="M211.497 219.14L169.707 244.66C168.845 245.09 167.869 245.236 166.919 245.078C165.969 244.92 165.094 244.465 164.417 243.78L107.957 186.78C106.557 185.37 106.657 183.48 108.177 182.55L149.967 157.03C150.827 156.596 151.803 156.447 152.754 156.603C153.704 156.76 154.581 157.214 155.257 157.9L211.717 214.85C213.097 216.31 212.997 218.21 211.497 219.14Z" fill="#DCE7FA"/>
<path d="M214.48 170.31C213.416 169.011 212.059 167.983 210.52 167.311C208.982 166.638 207.306 166.339 205.63 166.44C200.06 166.78 191.63 167.44 189.71 168.34C186.77 169.71 180.01 175.13 180.01 175.13L182.79 179.06C182.79 179.06 157.19 192.44 159.26 197.71C160.67 201.3 172.03 196.16 172.03 196.16C172.03 196.16 160.67 202.46 162.63 206.4C164.59 210.34 179.24 204.14 179.24 204.14C179.24 204.14 167.95 211.38 173.96 213.14C179.97 214.9 220.74 203.71 222.88 191.69C224.26 183.8 218.55 175.31 214.48 170.31Z" fill="#315D80"/>
<path d="M181.789 179.38C181.674 179.385 181.56 179.357 181.459 179.3C181.355 179.242 181.265 179.16 181.199 179.06C181.108 178.903 181.079 178.717 181.119 178.54C181.163 178.368 181.27 178.218 181.419 178.12L187.939 174.06C188.016 174.016 188.101 173.985 188.189 173.97C188.279 173.955 188.37 173.955 188.459 173.97C188.548 173.992 188.633 174.029 188.709 174.08C188.779 174.137 188.84 174.204 188.889 174.28C188.938 174.355 188.969 174.441 188.979 174.53C188.999 174.619 188.999 174.711 188.979 174.8C188.957 174.889 188.92 174.974 188.869 175.05C188.815 175.123 188.747 175.184 188.669 175.23L182.189 179.31C182.068 179.379 181.927 179.404 181.789 179.38Z" fill="white"/>
<path d="M169.999 197.55C169.879 197.548 169.762 197.513 169.659 197.45C169.556 197.381 169.471 197.288 169.409 197.18C169.328 197.023 169.31 196.84 169.359 196.67C169.384 196.583 169.426 196.502 169.483 196.432C169.54 196.362 169.61 196.303 169.689 196.26L186.779 187.09C186.928 187.035 187.091 187.035 187.239 187.09C187.388 187.151 187.511 187.26 187.589 187.4C187.664 187.54 187.688 187.701 187.657 187.856C187.626 188.011 187.542 188.15 187.419 188.25L170.339 197.43C170.237 197.496 170.12 197.537 169.999 197.55Z" fill="white"/>
<path d="M177.191 206.14C177.07 206.137 176.953 206.103 176.851 206.04C176.746 205.979 176.663 205.888 176.611 205.78C176.566 205.701 176.538 205.615 176.528 205.526C176.518 205.436 176.525 205.346 176.551 205.26C176.604 205.086 176.722 204.939 176.881 204.85L194.221 195.42C194.299 195.368 194.388 195.333 194.481 195.32C194.576 195.3 194.675 195.3 194.771 195.32C194.863 195.339 194.948 195.38 195.021 195.44C195.099 195.496 195.161 195.572 195.201 195.66C195.253 195.74 195.28 195.834 195.281 195.93C195.3 196.022 195.3 196.117 195.281 196.21C195.25 196.3 195.199 196.383 195.131 196.45C195.067 196.522 194.989 196.58 194.901 196.62L177.561 206.02C177.449 206.089 177.322 206.131 177.191 206.14Z" fill="white"/>
<path d="M233.39 198.45L226.13 201.98C225.677 202.199 225.156 202.231 224.68 202.07C224.441 201.985 224.221 201.852 224.034 201.681C223.846 201.509 223.695 201.301 223.59 201.07L204.26 161.46C204.15 161.236 204.085 160.993 204.07 160.744C204.055 160.495 204.089 160.246 204.17 160.01C204.249 159.774 204.375 159.556 204.54 159.37C204.707 159.185 204.907 159.032 205.13 158.92L212.39 155.39C212.848 155.177 213.369 155.145 213.85 155.3C214.088 155.387 214.307 155.52 214.495 155.692C214.682 155.863 214.833 156.07 214.94 156.3L234.27 195.91C234.38 196.134 234.444 196.377 234.46 196.626C234.475 196.875 234.441 197.125 234.36 197.36C234.276 197.6 234.144 197.821 233.972 198.008C233.8 198.196 233.592 198.346 233.36 198.45H233.39Z" fill="#E6F4FF"/>
<path d="M215.609 75.7295C215.609 75.7295 268.069 85.9995 280.609 128.959C295.299 179.049 236.749 195.099 236.749 195.099L215.609 153.609V75.7295Z" fill="#C06A87"/>
<path d="M217 152.31C216.903 152.309 216.808 152.289 216.72 152.25C216.631 152.211 216.553 152.153 216.49 152.08C216.425 152.01 216.374 151.929 216.34 151.84C216.324 151.75 216.324 151.659 216.34 151.57C216.347 151.48 216.371 151.392 216.41 151.31C216.449 151.227 216.503 151.153 216.57 151.09C217.46 150.28 238.37 131.27 245.88 127.58C245.962 127.545 246.05 127.527 246.14 127.527C246.229 127.527 246.317 127.545 246.4 127.58C246.565 127.641 246.7 127.763 246.78 127.92C246.839 128.088 246.839 128.272 246.78 128.44C246.726 128.608 246.612 128.751 246.46 128.84C239.12 132.43 217.68 151.9 217.46 152.1C217.336 152.222 217.173 152.297 217 152.31Z" fill="#E6F4FF"/>
<path d="M230.388 140.64H230.198C230.056 140.594 229.931 140.507 229.838 140.39C229.749 140.267 229.697 140.121 229.688 139.97C229.688 139.5 229.548 128.28 232.908 125.03C233.219 124.711 233.594 124.462 234.008 124.3C234.421 124.133 234.864 124.058 235.308 124.08C235.692 124.07 236.07 124.171 236.398 124.37C236.727 124.563 236.991 124.848 237.158 125.19C238.788 128.42 232.298 138.38 230.978 140.35C230.915 140.449 230.825 140.529 230.718 140.58C230.614 140.625 230.501 140.645 230.388 140.64ZM235.188 125.45C234.947 125.453 234.709 125.507 234.49 125.609C234.271 125.711 234.076 125.857 233.918 126.04C231.988 127.91 231.328 133.68 231.168 137.5C233.928 133.02 236.728 127.39 235.938 125.81C235.858 125.66 235.718 125.5 235.268 125.48L235.188 125.45Z" fill="#E6F4FF"/>
<path d="M175.669 75.52C175.669 75.52 169.739 95.43 171.729 95.05C173.719 94.67 185.609 83.98 185.609 83.98C185.609 83.98 196.099 93.75 198.939 93.82C201.779 93.89 198.939 73.71 198.939 73.71C198.939 73.71 194.519 80.51 186.219 80.99C177.049 81.53 175.669 75.52 175.669 75.52Z" fill="#F8F8F8"/>
<path d="M169.038 37.9097C169.038 37.9097 172.478 32.0697 175.268 27.9097L178.058 23.7897C178.058 23.7897 181.058 33.3297 187.718 37.0997C192.094 39.3916 197.019 40.4298 201.948 40.0997V45.9797C201.948 45.9797 203.748 38.2597 205.008 38.0797C206.804 37.6807 208.68 37.8592 210.368 38.5897C212.588 39.5897 213.088 40.6997 213.088 40.6997C213.088 40.6997 215.358 26.6997 213.958 23.8097C212.558 20.9197 199.058 9.55969 180.208 10.8797C161.028 12.1797 169.038 37.9097 169.038 37.9097Z" fill="black"/>
<path d="M176.639 44.4403C176.55 44.4439 176.461 44.4268 176.379 44.3903C176.293 44.3566 176.215 44.3054 176.149 44.24C176.084 44.1746 176.033 44.0964 175.999 44.0103C175.966 43.9241 175.949 43.8326 175.949 43.7403L176.039 39.9803L174.189 38.4403C174.119 38.3839 174.061 38.3143 174.018 38.2353C173.975 38.1563 173.948 38.0697 173.939 37.9803C173.927 37.8009 173.98 37.6232 174.089 37.4803C174.205 37.3414 174.37 37.252 174.549 37.2303C174.729 37.2179 174.906 37.2712 175.049 37.3803L177.199 39.1503C177.281 39.214 177.346 39.2963 177.389 39.3903C177.429 39.4853 177.45 39.5873 177.449 39.6903L177.359 43.8003C177.348 43.9742 177.273 44.1379 177.149 44.2603C177.081 44.3231 177 44.3714 176.913 44.4023C176.825 44.4333 176.732 44.4462 176.639 44.4403Z" fill="black"/>
<path d="M190.239 44.59C190.153 44.6051 190.065 44.6051 189.979 44.59C189.896 44.5518 189.821 44.4974 189.759 44.43C189.691 44.3703 189.64 44.2947 189.609 44.21C189.578 44.1232 189.561 44.0321 189.559 43.94L189.649 40.13L187.829 38.3C187.77 38.2332 187.72 38.1593 187.679 38.08C187.648 37.9932 187.631 37.9021 187.629 37.81C187.635 37.7206 187.655 37.6328 187.689 37.55C187.726 37.4686 187.777 37.3942 187.839 37.33C187.902 37.2687 187.977 37.221 188.059 37.19C188.141 37.1541 188.23 37.1371 188.319 37.14C188.408 37.1411 188.496 37.158 188.579 37.19C188.663 37.228 188.74 37.2786 188.809 37.34L190.809 39.34C190.87 39.4086 190.921 39.4861 190.959 39.57C190.991 39.653 191.008 39.741 191.009 39.83L190.919 43.95C190.906 44.1234 190.831 44.2866 190.709 44.41C190.579 44.5253 190.412 44.5894 190.239 44.59Z" fill="black"/>
<path d="M201.479 18.1699C201.479 18.1699 199.889 0.239853 212.419 -0.000146596C224.949 -0.240147 220.249 23.5099 212.419 25.4099C204.589 27.3099 201.479 18.1699 201.479 18.1699Z" fill="black"/>
<path d="M107.607 133.72C107.292 133.72 106.981 133.648 106.697 133.51C102.977 131.75 102.797 118.23 102.797 115.51C102.794 115.363 102.84 115.219 102.927 115.1C103.011 114.988 103.126 114.901 103.257 114.85C103.397 114.805 103.547 114.805 103.687 114.85C103.824 114.889 103.947 114.97 104.037 115.08C105.167 116.43 114.847 128.45 109.577 132.87C109.041 133.376 108.343 133.677 107.607 133.72ZM104.237 117.62C104.407 123.5 105.237 131.3 107.297 132.24C107.427 132.3 107.847 132.5 108.677 131.8C111.767 129.21 107.297 121.79 104.237 117.62Z" fill="#E6F4FF"/>
<path d="M126.261 183.5C125.419 183.497 124.61 183.172 124.001 182.59L118.361 177.18C118.293 177.118 118.239 177.043 118.201 176.96C118.162 176.875 118.141 176.783 118.141 176.69C118.142 176.598 118.159 176.507 118.191 176.42C118.221 176.332 118.273 176.254 118.341 176.19C118.403 176.123 118.477 176.068 118.561 176.03C118.648 176.001 118.739 175.981 118.831 175.97C118.92 175.956 119.011 175.956 119.101 175.97C119.187 176.003 119.266 176.054 119.331 176.12L124.971 181.52C125.272 181.811 125.664 181.991 126.081 182.03C126.497 182.068 126.915 181.97 127.271 181.75L142.131 172.31C142.363 172.156 142.561 171.955 142.711 171.72C142.858 171.484 142.95 171.217 142.981 170.94C143.011 170.664 142.981 170.384 142.891 170.12C142.809 169.851 142.661 169.607 142.461 169.41L137.831 164.64C137.719 164.506 137.662 164.335 137.671 164.16C137.683 163.982 137.761 163.814 137.891 163.69C138.025 163.561 138.204 163.488 138.391 163.488C138.577 163.488 138.756 163.561 138.891 163.69L143.521 168.45C144.028 168.974 144.346 169.652 144.424 170.376C144.501 171.101 144.335 171.831 143.951 172.45C143.696 172.854 143.354 173.195 142.951 173.45L128.091 182.91C127.554 183.286 126.916 183.491 126.261 183.5Z" fill="white"/>
</svg>
