<svg width="298" height="433" viewBox="0 0 298 433" fill="none" xmlns="http://www.w3.org/2000/svg">
<g clip-path="url(#clip0_1390_10250)">
<path d="M165.34 0V50.8165H102.539V37.3244C102.539 21.7369 111.266 8.39902 123.678 2.80921C127.758 0.965841 132.184 0.0121463 136.66 0.0114306L165.34 0Z" fill="#F1D15B"/>
<path d="M254.62 38.1409V193.183H181.735C177.485 193.183 173.278 192.346 169.352 190.719C165.426 189.092 161.859 186.707 158.854 183.699C155.849 180.692 153.466 177.121 151.839 173.192C150.213 169.262 149.376 165.051 149.376 160.797V50.8051H149.53V42.0692C149.58 30.9991 145.349 20.3391 137.723 12.3215C133.773 8.18151 128.985 4.93441 123.68 2.79778C127.5 0.961423 131.683 0.0053951 135.92 0H218.057C238.238 0 254.62 17.0778 254.62 38.1409Z" fill="#DCE7FA"/>
<path d="M247.304 39.3574H192.066V46.0549H247.304V39.3574Z" fill="#C06A87"/>
<path d="M247.221 55.5498H191.984V62.2473H247.221V55.5498Z" fill="#C06A87"/>
<path d="M247.304 76.6133H192.066V83.3108H247.304V76.6133Z" fill="#C06A87"/>
<path d="M247.304 120.812H192.066V127.509H247.304V120.812Z" fill="#C06A87"/>
<path d="M247.221 107.086H191.984V113.783H247.221V107.086Z" fill="#C06A87"/>
<path d="M184.484 39.3574H161.617V62.2477H184.484V39.3574Z" fill="#C06A87"/>
<path d="M173.293 57.6451C172.824 57.6461 172.368 57.4893 171.999 57.1998L164.909 51.6099C164.498 51.2581 164.239 50.7609 164.186 50.2222C164.133 49.6836 164.29 49.1454 164.625 48.7204C164.96 48.2953 165.446 48.0163 165.981 47.9419C166.517 47.8675 167.06 48.0034 167.498 48.3211L172.894 52.5748L178.638 44.8382C178.797 44.605 179.001 44.4063 179.238 44.254C179.476 44.1017 179.742 43.999 180.02 43.9521C180.298 43.9051 180.582 43.9148 180.857 43.9807C181.131 44.0466 181.389 44.1672 181.615 44.3354C181.842 44.5036 182.032 44.7159 182.174 44.9594C182.317 45.203 182.409 45.4729 182.444 45.7529C182.48 46.0328 182.459 46.3171 182.382 46.5887C182.305 46.8603 182.175 47.1136 181.998 47.3334L174.97 56.8C174.805 57.0258 174.595 57.2156 174.353 57.3579C174.112 57.5002 173.845 57.5921 173.567 57.628L173.293 57.6451Z" fill="#E4F3FF"/>
<path d="M298.11 142.383V155.875C298.11 170.789 290.125 183.653 278.54 189.625C278.021 189.893 277.502 190.145 276.966 190.39C272.887 192.231 268.463 193.183 263.989 193.182H178.43V192.805C178.818 192.748 179.194 192.68 179.57 192.606C181.975 192.139 184.318 191.395 186.552 190.39C198.958 184.8 207.691 171.457 207.691 155.875V142.383H298.11Z" fill="#F1D15B"/>
<path d="M184.484 72.8555H161.617V95.7457H184.484V72.8555Z" fill="#C06A87"/>
<path d="M173.293 91.1441C172.824 91.1452 172.368 90.9883 171.998 90.6988L164.908 85.1147C164.472 84.771 164.19 84.2677 164.124 83.7157C164.058 83.1637 164.214 82.6082 164.558 82.1713C164.901 81.7345 165.404 81.452 165.955 81.3862C166.507 81.3203 167.062 81.4764 167.498 81.8202L172.894 86.0739L178.638 78.3372C178.797 78.104 179.001 77.9053 179.238 77.753C179.476 77.6007 179.741 77.498 180.019 77.4511C180.297 77.4041 180.582 77.4139 180.856 77.4798C181.131 77.5457 181.389 77.6663 181.615 77.8345C181.842 78.0027 182.032 78.2149 182.174 78.4585C182.317 78.7021 182.408 78.9719 182.444 79.2519C182.48 79.5318 182.459 79.8162 182.382 80.0878C182.305 80.3594 182.174 80.6127 181.997 80.8324L174.97 90.2991C174.804 90.5249 174.595 90.7147 174.353 90.857C174.112 90.9993 173.845 91.0911 173.567 91.127L173.293 91.1441Z" fill="#E4F3FF"/>
<path d="M184.695 106.36H161.828V129.251H184.695V106.36Z" fill="#C06A87"/>
<path d="M280.606 115.143C282.17 102.429 273.141 90.8525 260.44 89.2869C247.738 87.7212 236.173 96.7592 234.609 109.474C233.045 122.188 242.074 133.764 254.776 135.33C267.477 136.896 279.042 127.858 280.606 115.143Z" fill="#000001"/>
<path d="M255.393 122.957C255.056 122.955 254.724 122.885 254.415 122.751C254.107 122.616 253.829 122.419 253.599 122.173L244.32 112.206C244.059 111.979 243.849 111.699 243.703 111.386C243.557 111.072 243.479 110.732 243.473 110.386C243.467 110.04 243.534 109.697 243.669 109.379C243.804 109.061 244.004 108.774 244.257 108.538C244.51 108.303 244.809 108.123 245.136 108.01C245.462 107.898 245.809 107.855 246.153 107.885C246.497 107.915 246.831 108.018 247.134 108.185C247.436 108.353 247.699 108.582 247.907 108.859L255.276 116.774L266.879 102.584C267.313 102.159 267.888 101.91 268.494 101.883C269.1 101.857 269.695 102.055 270.165 102.44C270.634 102.825 270.945 103.37 271.038 103.97C271.131 104.57 271 105.184 270.669 105.693L257.288 122.043C257.067 122.315 256.79 122.536 256.477 122.69C256.163 122.845 255.82 122.931 255.47 122.941L255.393 122.957Z" fill="white"/>
<path d="M173.082 124.621C172.613 124.62 172.157 124.461 171.788 124.17L164.698 118.586C164.287 118.234 164.028 117.736 163.975 117.198C163.922 116.659 164.079 116.121 164.414 115.696C164.749 115.271 165.235 114.992 165.77 114.918C166.306 114.843 166.849 114.979 167.287 115.297L172.683 119.55L178.427 111.808C178.585 111.573 178.79 111.373 179.028 111.219C179.265 111.066 179.532 110.962 179.811 110.914C180.09 110.867 180.376 110.877 180.651 110.943C180.927 111.009 181.186 111.13 181.413 111.3C181.64 111.469 181.83 111.683 181.972 111.928C182.114 112.173 182.206 112.444 182.24 112.725C182.274 113.007 182.251 113.292 182.173 113.564C182.094 113.836 181.96 114.09 181.781 114.309L174.765 123.793C174.597 124.016 174.387 124.204 174.146 124.346C173.905 124.489 173.639 124.582 173.362 124.621H173.082Z" fill="#E4F3FF"/>
<path d="M88.6639 388.483V422.357H45.6445V377.875L88.6639 388.483Z" fill="#DDEDFF"/>
<path d="M200.652 375.819L209.668 408.468L168.17 419.956L156.324 377.081L200.652 375.819Z" fill="#DDEDFF"/>
<path d="M76.8992 25.5666C76.8992 25.5666 65.8656 6.9829 48.2337 16.0322C30.6018 25.0814 32.5347 43.7864 19.1502 48.0806C5.7657 52.3748 -5.18294 63.9228 2.59085 78.825C9.09829 91.289 26.718 87.3163 26.718 87.3163C26.718 87.3163 37.6728 105.997 57.0436 99.6104C76.4145 93.2238 85.2364 83.1556 83.2127 67.0828C81.189 51.0101 76.8992 25.5666 76.8992 25.5666Z" fill="black"/>
<path d="M108.387 52.5502C108.387 52.5502 118.857 37.2478 97.6688 25.1902C76.4802 13.1326 61.0357 29.6602 60.8599 38.5336C60.6842 47.407 65.7375 51.5373 65.7375 51.5373C65.7375 51.5373 63.7623 70.7943 82.2424 69.4721C100.723 68.1499 108.387 52.5502 108.387 52.5502Z" fill="black"/>
<path d="M80.4738 66.4092L80.0859 81.9664C80.0859 81.9664 82.7761 86.5092 91.8465 87.4796C98.6085 88.2014 101.026 86.7276 101.026 86.7276L100.281 78.8428L99.5417 71.134L83.2124 67.1067L80.4738 66.4092Z" fill="#315D80"/>
<path d="M80.5234 65.6699C80.5803 66.1939 80.7195 66.7056 80.9356 67.1862C84.2196 75.0406 96.374 78.3765 100.282 78.8253L99.5429 71.1164L80.5234 65.6699Z" fill="black"/>
<path d="M103.884 35.7437C103.884 35.7437 111.555 55.4555 108.065 66.2091C104.575 76.9627 94.735 74.852 88.9062 72.5048C83.0773 70.1575 80.4659 66.4396 80.4659 66.4396C78.7611 66.864 76.9662 66.7409 75.3351 66.0878C73.704 65.4347 72.3194 64.2847 71.3773 62.8005C67.8873 57.4995 70.4018 51.6769 73.6191 50.4457C76.8365 49.2144 80.5022 51.6587 80.5022 51.6587L77.7816 45.9089C77.7816 45.9089 91.3237 17.7725 103.884 35.7437Z" fill="#315D80"/>
<path d="M105.096 61.0846H104.993C104.825 61.0563 104.674 60.9628 104.575 60.8243C104.475 60.6858 104.433 60.5134 104.46 60.3447C105.447 54.3523 103.139 51.162 103.115 51.1317C103.012 50.9958 102.967 50.8245 102.99 50.6555C103.014 50.4866 103.103 50.334 103.239 50.231C103.375 50.1281 103.546 50.0833 103.715 50.1066C103.883 50.1299 104.036 50.2194 104.139 50.3553C104.248 50.5009 106.817 53.9944 105.732 60.5509C105.708 60.7013 105.63 60.838 105.513 60.9359C105.396 61.0339 105.248 61.0866 105.096 61.0846Z" fill="black"/>
<path d="M80.0566 59.5193C79.9505 59.52 79.846 59.4928 79.7537 59.4404L72.1859 55.4131C72.1111 55.3733 72.045 55.3192 71.9911 55.2537C71.9372 55.1883 71.8968 55.1129 71.872 55.0318C71.8473 54.9507 71.8386 54.8654 71.8467 54.781C71.8548 54.6966 71.8796 54.6147 71.9193 54.5398C71.9591 54.4649 72.0133 54.3986 72.0787 54.3447C72.144 54.2908 72.2194 54.2502 72.3004 54.2254C72.3814 54.2006 72.4665 54.1921 72.5508 54.2003C72.6352 54.2084 72.717 54.2331 72.7918 54.2729L80.3596 58.3062C80.4346 58.3458 80.5012 58.3998 80.5553 58.4652C80.6094 58.5306 80.65 58.6061 80.6748 58.6873C80.6996 58.7685 80.708 58.8538 80.6997 58.9383C80.6913 59.0228 80.6665 59.1049 80.6263 59.1797C80.5702 59.2819 80.4877 59.3673 80.3875 59.427C80.2874 59.4867 80.1732 59.5186 80.0566 59.5193Z" fill="black"/>
<path d="M72.9888 60.8844C72.8577 60.885 72.7296 60.8454 72.6216 60.7709C72.5137 60.6965 72.4311 60.5908 72.3849 60.468C72.3388 60.3452 72.3312 60.2111 72.3633 60.0839C72.3955 59.9567 72.4657 59.8424 72.5647 59.7563L76.2001 56.5721C76.3312 56.4747 76.4942 56.4305 76.6565 56.4481C76.8187 56.4658 76.9684 56.5442 77.0755 56.6675C77.1827 56.7908 77.2393 56.95 77.2343 57.1134C77.2292 57.2767 77.1628 57.4321 77.0483 57.5486L73.4129 60.7267C73.2971 60.8321 73.1452 60.8887 72.9888 60.8844Z" fill="black"/>
<path d="M106.913 45.5033C106.496 42.1977 105.096 39.0938 102.896 36.5935C98.994 32.2205 95.6978 32.9544 95.6978 32.9544C95.6978 32.9544 101.454 45.564 91.7654 50.0098C84.8823 53.1698 80.4714 51.6352 80.4714 51.6352L70.6133 41.8339L90.2203 25.8946C90.2203 25.8946 108.125 23.3715 106.913 45.5033Z" fill="black"/>
<path d="M98.262 52.8601C98.1198 52.8543 97.9835 52.8019 97.874 52.7109C97.7645 52.62 97.6879 52.4955 97.6561 52.3567L96.8744 48.8934C96.8379 48.7268 96.8685 48.5525 96.9593 48.4082L98.062 46.6554C98.1528 46.5106 98.2974 46.4078 98.4639 46.3697C98.6304 46.3316 98.8051 46.3613 98.9497 46.4521C99.0943 46.543 99.197 46.6878 99.235 46.8544C99.2731 47.021 99.2434 47.196 99.1526 47.3407L98.1893 48.8692L98.9103 52.0716C98.9292 52.154 98.9315 52.2394 98.9173 52.3228C98.9031 52.4061 98.8727 52.4858 98.8277 52.5574C98.7826 52.6289 98.7239 52.6909 98.6549 52.7397C98.5859 52.7886 98.508 52.8232 98.4256 52.8418L98.262 52.8601Z" fill="black"/>
<path d="M107.94 52.7751C107.798 52.7707 107.662 52.7196 107.553 52.6296C107.443 52.5396 107.366 52.416 107.334 52.2778L106.547 48.8145C106.51 48.6459 106.54 48.4697 106.631 48.3233L107.74 46.5704C107.839 46.4426 107.982 46.3561 108.141 46.3282C108.3 46.3002 108.464 46.3326 108.6 46.4191C108.736 46.5056 108.836 46.6398 108.878 46.7957C108.921 46.9516 108.904 47.1178 108.831 47.2619L107.861 48.7903L108.588 51.9927C108.607 52.0751 108.61 52.1605 108.595 52.2439C108.581 52.3272 108.551 52.4069 108.506 52.4785C108.461 52.55 108.402 52.612 108.333 52.6609C108.264 52.7097 108.186 52.7443 108.104 52.7629C108.05 52.7744 107.995 52.7785 107.94 52.7751Z" fill="black"/>
<path d="M106.308 43.787C106.264 43.7927 106.219 43.7927 106.175 43.787L104.024 43.326C103.941 43.3081 103.863 43.274 103.793 43.2258C103.724 43.1775 103.664 43.116 103.618 43.0447C103.573 42.9735 103.541 42.8939 103.526 42.8105C103.511 42.7271 103.512 42.6416 103.53 42.5588C103.548 42.4759 103.582 42.3974 103.63 42.3278C103.679 42.2581 103.74 42.1986 103.811 42.1527C103.882 42.1068 103.962 42.0753 104.045 42.0602C104.128 42.045 104.214 42.0465 104.297 42.0644L106.442 42.5254C106.599 42.5563 106.739 42.6451 106.834 42.7743C106.93 42.9034 106.973 43.0636 106.957 43.2232C106.94 43.3829 106.864 43.5306 106.744 43.6371C106.624 43.7437 106.469 43.8014 106.308 43.799V43.787Z" fill="black"/>
<path d="M182.258 75.3802L217.231 96.857L255.96 44.5327L220.424 22.5039L182.258 75.3802Z" fill="#000001"/>
<path d="M177.73 72.8749L212.709 94.3517L251.906 41.8333L216.927 20.3564L177.73 72.8749Z" fill="#6B5E7A"/>
<path d="M242.082 46.0249C241.964 46.025 241.849 45.9936 241.748 45.9339L216.076 30.1645C215.946 30.0682 215.856 29.9264 215.825 29.7672C215.793 29.6079 215.823 29.4428 215.907 29.3042C215.992 29.1657 216.125 29.0638 216.281 29.0187C216.436 28.9736 216.603 28.9886 216.749 29.0606L242.421 44.8301C242.552 44.8979 242.657 45.009 242.716 45.1448C242.775 45.2805 242.786 45.4326 242.746 45.5752C242.706 45.7179 242.618 45.8423 242.497 45.9276C242.376 46.0128 242.229 46.0537 242.082 46.0432V46.0249Z" fill="#E8EDE0"/>
<path d="M237.924 51.4468C237.805 51.446 237.688 51.4147 237.585 51.3558L211.912 35.5863C211.84 35.5421 211.778 35.4842 211.728 35.4158C211.679 35.3473 211.643 35.2697 211.623 35.1875C211.604 35.1053 211.6 35.02 211.613 34.9365C211.627 34.853 211.656 34.7729 211.7 34.7008C211.745 34.6287 211.802 34.566 211.871 34.5164C211.939 34.4667 212.017 34.431 212.099 34.4113C212.181 34.3916 212.266 34.3883 212.35 34.4015C212.433 34.4148 212.513 34.4443 212.585 34.4885L238.257 50.258C238.403 50.3483 238.508 50.4928 238.547 50.66C238.587 50.8271 238.559 51.0031 238.469 51.1496C238.411 51.2412 238.33 51.3166 238.235 51.3686C238.14 51.4205 238.033 51.4475 237.924 51.4468Z" fill="#E8EDE0"/>
<path d="M233.859 56.9294C233.739 56.9294 233.621 56.8959 233.52 56.8325L207.853 41.063C207.723 40.9667 207.633 40.8248 207.602 40.6656C207.571 40.5064 207.6 40.3412 207.685 40.2026C207.769 40.0641 207.902 39.9623 208.058 39.9172C208.214 39.8721 208.381 39.887 208.526 39.9591L234.192 55.7286C234.323 55.7962 234.427 55.9068 234.486 56.0418C234.545 56.1769 234.556 56.3282 234.517 56.4703C234.478 56.6125 234.391 56.7369 234.271 56.8227C234.152 56.9085 234.006 56.9505 233.859 56.9416V56.9294Z" fill="#E8EDE0"/>
<path d="M229.783 62.407C229.663 62.407 229.545 62.3734 229.444 62.3099L203.771 46.5404C203.641 46.4441 203.551 46.3024 203.52 46.1431C203.489 45.9839 203.518 45.8187 203.603 45.6802C203.687 45.5416 203.82 45.4398 203.976 45.3947C204.132 45.3496 204.299 45.3646 204.444 45.4366L230.116 61.2061C230.247 61.2737 230.351 61.3843 230.41 61.5193C230.469 61.6544 230.48 61.8057 230.441 61.9479C230.402 62.09 230.315 62.2144 230.195 62.3002C230.076 62.386 229.93 62.428 229.783 62.4191V62.407Z" fill="#E8EDE0"/>
<path d="M140.396 48.1055L102.484 98.6649L138.893 119.966L162.457 57.4823L140.396 48.1055Z" fill="#315D80"/>
<path d="M95.2507 44.666C95.0992 44.6658 94.9526 44.612 94.8369 44.514C94.7212 44.4161 94.6438 44.2804 94.6185 44.1308C94.5931 43.9813 94.6213 43.8276 94.6982 43.6969C94.7751 43.5662 94.8956 43.4669 95.0386 43.4166L99.5406 41.8457C99.6208 41.8147 99.7065 41.8003 99.7925 41.8031C99.8785 41.8059 99.9631 41.8259 100.041 41.8621C100.119 41.8982 100.189 41.9497 100.247 42.0134C100.305 42.0772 100.349 42.152 100.378 42.2332C100.406 42.3145 100.418 42.4006 100.412 42.4866C100.407 42.5725 100.384 42.6565 100.346 42.7335C100.307 42.8105 100.254 42.879 100.188 42.9349C100.123 42.9908 100.047 43.0329 99.9647 43.0588L95.4628 44.6296C95.3945 44.653 95.3229 44.6653 95.2507 44.666Z" fill="black"/>
<path d="M195.299 98.2522C195.299 98.2522 196.117 83.8353 200.462 78.1219C204.806 72.4085 212.422 67.9748 214.052 71.2804C215.682 74.5859 210.52 79.3713 211.332 81.3303C212.144 83.2894 217.585 82.3069 225.734 79.3956C233.884 76.4843 239.325 67.0469 239.325 67.0469C239.325 67.0469 240.954 70.8012 240.409 74.1917C240.169 76.0073 239.617 77.7677 238.779 79.3956C238.779 79.3956 240.512 75.4775 240.518 82.6465C240.518 86.2492 237.422 88.7663 237.422 88.7663C237.422 88.7663 239.846 91.72 234.701 98.2522C229.557 104.784 215.137 110.765 215.137 110.765C215.137 110.765 199.104 149.934 172.723 160.269C146.342 170.604 125.711 156.733 125.711 156.733L133.866 113.755C133.866 113.755 162.15 123.817 195.299 98.2522Z" fill="#315D80"/>
<path d="M225.902 87.5041C225.741 87.5065 225.586 87.4487 225.466 87.3421C225.346 87.2356 225.27 87.0879 225.253 86.9283C225.237 86.7686 225.28 86.6084 225.376 86.4793C225.471 86.3502 225.611 86.2614 225.768 86.2305C231.827 84.9568 238.856 77.6906 238.929 77.6178C238.988 77.5573 239.059 77.5093 239.137 77.4764C239.215 77.4436 239.298 77.4268 239.383 77.4268C239.468 77.4268 239.552 77.4436 239.63 77.4764C239.708 77.5093 239.778 77.5573 239.838 77.6178C239.957 77.7392 240.024 77.9026 240.024 78.0727C240.024 78.2429 239.957 78.4063 239.838 78.5276C239.541 78.837 232.458 86.1577 226.017 87.5102L225.902 87.5041Z" fill="black"/>
<path d="M227.126 94.6131C226.974 94.6124 226.826 94.5579 226.71 94.4592C226.594 94.3605 226.516 94.2238 226.49 94.0733C226.475 93.99 226.477 93.9046 226.496 93.8221C226.515 93.7396 226.55 93.6615 226.599 93.5927C226.648 93.5238 226.71 93.4653 226.782 93.4208C226.854 93.3763 226.934 93.3466 227.017 93.3334C233.888 92.1689 236.881 88.4085 236.912 88.3721C237.016 88.237 237.17 88.1489 237.339 88.1272C237.509 88.1056 237.68 88.1523 237.815 88.2568C237.95 88.3614 238.037 88.5153 238.059 88.6848C238.081 88.8543 238.034 89.0254 237.93 89.1605C237.796 89.3303 234.634 93.3516 227.235 94.6192L227.126 94.6131Z" fill="black"/>
<path d="M27.5847 284.453C27.6695 287.146 27.7786 289.839 27.8877 292.532C30.081 343.946 36.8248 395.901 36.8248 395.901L108.098 398.399L92.3439 270.424L145.936 400.11L219.645 395.549C219.645 395.549 203.637 329.893 174.85 277.411C146.064 224.929 111.036 177.669 111.036 177.669L47.4947 153.232C47.4947 153.232 37.8426 165.023 29.6205 221.066C28.3272 230.618 27.5828 240.237 27.3908 249.875C27.3908 250.373 27.3907 250.894 27.3483 251.416C27.0878 261.896 27.2151 273.075 27.5847 284.453Z" fill="#6B5E7A"/>
<path d="M68.6098 53.9943C68.5127 53.9972 68.4163 53.9766 68.3287 53.9344C68.2412 53.8922 68.1651 53.8295 68.1068 53.7517C55.7282 38.1581 72.3907 24.2203 72.5603 24.0808C72.6247 24.018 72.7013 23.9693 72.7855 23.9377C72.8696 23.9062 72.9595 23.8925 73.0492 23.8975C73.139 23.9026 73.2268 23.9262 73.3069 23.967C73.387 24.0078 73.4577 24.0649 73.5146 24.1345C73.5715 24.2041 73.6134 24.2849 73.6375 24.3716C73.6616 24.4583 73.6673 24.549 73.6545 24.638C73.6417 24.7271 73.6105 24.8125 73.563 24.8889C73.5154 24.9652 73.4524 25.0308 73.3782 25.0815C72.7238 25.6153 57.5277 38.3522 69.1368 52.9814C69.1898 53.0475 69.2291 53.1236 69.2524 53.2051C69.2756 53.2867 69.2824 53.372 69.2722 53.4562C69.262 53.5404 69.2352 53.6217 69.1932 53.6953C69.1512 53.769 69.095 53.8335 69.0278 53.8851C68.9066 53.9717 68.7578 54.0106 68.6098 53.9943Z" fill="#F1D15B"/>
<path d="M151.415 114.3C151.415 114.3 123.368 82.8825 89.4978 80.8445C55.6277 78.8066 44.2185 95.122 42.5886 102.873C40.9587 110.625 38.1049 166.115 40.165 169.791C42.225 173.466 56.1002 179.986 78.7066 181.624C101.313 183.261 113.128 180.411 114.758 179.198C116.388 177.985 118.394 160.838 118.394 160.838L137.552 165.733L151.415 114.3Z" fill="#F1D15B"/>
<path d="M80.4749 68.3203C80.4749 68.3203 90.0058 89.7971 80.0871 98.3126C70.1684 106.828 55.3964 101.345 55.3964 101.345C55.3964 101.345 50.4159 104.542 40.8971 101.315C31.3783 98.0883 26.7188 89.2513 26.7188 89.2513L80.4749 68.3203Z" fill="black"/>
<path d="M140.398 48.1105C140.398 48.1105 149.917 33.1537 154.71 29.8664C159.503 26.579 186.181 16.0741 188.81 18.6397C191.44 21.2053 175.85 31.9164 175.85 31.9164C175.85 31.9164 178.534 32.5229 179.189 34.6579C179.374 35.3132 179.423 35.9998 179.333 36.6748C179.242 37.3499 179.013 37.9991 178.661 38.5821C178.661 38.5821 181.988 38.4729 182.903 40.7231C183.818 42.9733 182.297 45.466 182.297 45.466C182.297 45.466 176.165 56.6684 172.681 56.911C169.197 57.1536 169.652 50.949 169.652 50.949C169.652 50.949 168.379 56.6017 165.338 59.7192C162.296 62.8367 156.067 63.1582 149.62 59.7556C143.173 56.3531 140.398 48.1105 140.398 48.1105Z" fill="#315D80"/>
<path d="M147.837 57.8214C147.666 57.8303 147.499 57.7711 147.373 57.6567C147.246 57.5424 147.17 57.3824 147.161 57.2119C147.152 57.0414 147.211 56.8743 147.326 56.7475C147.44 56.6207 147.6 56.5444 147.77 56.5356C155.186 55.7532 156.986 46.2248 157.004 46.1096C157.019 46.0242 157.051 45.9426 157.097 45.8697C157.144 45.7968 157.205 45.734 157.277 45.685C157.348 45.635 157.429 45.6009 157.515 45.5852C157.601 45.5695 157.689 45.5725 157.773 45.594C161.276 46.3643 165.493 46.6312 166.202 45.7214C166.335 45.5455 166.299 45.2544 166.093 44.842C164.166 40.9906 155.277 37.0785 155.186 37.0361C155.107 37.0022 155.034 36.953 154.974 36.8912C154.913 36.8295 154.866 36.7564 154.833 36.6761C154.801 36.5958 154.785 36.51 154.785 36.4235C154.786 36.3369 154.804 36.2514 154.838 36.1717C154.872 36.0921 154.921 36.0199 154.982 35.9593C155.044 35.8986 155.117 35.8507 155.197 35.8184C155.278 35.786 155.363 35.7697 155.45 35.7705C155.536 35.7713 155.622 35.7892 155.701 35.823C156.083 35.9929 165.111 39.9655 167.244 44.2354C167.801 45.3454 167.535 46.055 167.213 46.4856C165.82 48.3052 160.276 47.3833 158.125 46.9526C157.519 49.2695 155.065 57.033 147.903 57.7911L147.837 57.8214Z" fill="black"/>
<path d="M165.843 43.9687C165.689 43.9699 165.54 43.9159 165.423 43.8166C165.305 43.7172 165.228 43.579 165.203 43.427C165.179 43.2751 165.21 43.1196 165.291 42.9886C165.371 42.8576 165.496 42.7599 165.643 42.7132C169.884 41.3243 175.234 31.6988 175.289 31.6018C175.383 31.4798 175.517 31.3952 175.667 31.363C175.817 31.3308 175.974 31.3531 176.109 31.426C176.245 31.4989 176.35 31.6176 176.406 31.7609C176.462 31.9042 176.466 32.0627 176.416 32.2083C176.185 32.6207 170.751 42.3675 166.043 43.9141C165.979 43.9413 165.911 43.9597 165.843 43.9687Z" fill="black"/>
<path d="M167.593 52.1499H167.46C166.862 52.1571 166.27 52.0295 165.727 51.7765C165.185 51.5235 164.707 51.1515 164.327 50.6882C163.116 49.1052 163.613 46.8732 163.637 46.7822C163.676 46.6174 163.777 46.4741 163.919 46.3825C164.062 46.2909 164.234 46.2581 164.4 46.291C164.483 46.3089 164.562 46.343 164.631 46.3916C164.701 46.4401 164.76 46.502 164.806 46.5736C164.852 46.6453 164.883 46.7252 164.897 46.8089C164.912 46.8926 164.91 46.9783 164.891 47.0612C164.891 47.0612 164.521 48.8141 165.357 49.9119C165.627 50.2203 165.961 50.4655 166.336 50.6301C166.711 50.7947 167.117 50.8745 167.527 50.8641C170.393 50.8641 175.5 43.1795 178.088 38.2849C178.168 38.1337 178.305 38.0206 178.469 37.9706C178.632 37.9205 178.809 37.9376 178.96 38.018C179.111 38.0985 179.224 38.2356 179.274 38.3994C179.324 38.5632 179.307 38.7402 179.227 38.8914C178.506 40.25 172.077 52.1499 167.593 52.1499Z" fill="black"/>
<path d="M118.428 161.457C118.299 161.46 118.172 161.424 118.064 161.353C117.956 161.283 117.871 161.182 117.822 161.063C116.876 158.849 112.368 147.671 115.883 145.293C116.101 145.123 116.364 145.02 116.64 144.998C116.916 144.977 117.192 145.037 117.434 145.172C119.773 146.525 119.252 157.497 119.058 160.832C119.05 160.979 118.994 161.119 118.897 161.229C118.8 161.339 118.669 161.413 118.524 161.439L118.428 161.457ZM116.786 146.294C116.721 146.308 116.661 146.337 116.61 146.379C114.998 147.453 116.222 152.972 117.925 157.739C118.082 151.662 117.61 146.561 116.761 146.306L116.786 146.294Z" fill="#E4F3FF"/>
<path d="M88.4287 190.776C73.2143 190.776 52.5711 188.29 40.4348 176.45C40.3119 176.331 40.2412 176.168 40.2384 175.997C40.2355 175.826 40.3007 175.661 40.4196 175.538C40.5385 175.414 40.7015 175.344 40.8725 175.341C41.0435 175.338 41.2086 175.403 41.3315 175.522C61.7143 195.404 106.994 188.259 107.448 188.193C107.532 188.173 107.619 188.172 107.704 188.189C107.789 188.206 107.869 188.241 107.939 188.292C108.009 188.342 108.067 188.407 108.11 188.482C108.153 188.557 108.179 188.64 108.187 188.726C108.201 188.81 108.198 188.896 108.179 188.978C108.16 189.061 108.124 189.139 108.074 189.207C108.025 189.276 107.962 189.335 107.89 189.379C107.818 189.423 107.738 189.453 107.654 189.466C101.285 190.36 94.8601 190.798 88.4287 190.776Z" fill="white"/>
<path d="M92.6681 271.074C92.5556 271.075 92.4447 271.047 92.3468 270.991C92.2489 270.936 92.1675 270.856 92.1107 270.758C92.0077 270.582 81.7315 253.333 55.0897 243.186C54.929 243.125 54.7992 243.002 54.7288 242.845C54.6583 242.688 54.6531 242.51 54.7142 242.349C54.7752 242.188 54.8976 242.058 55.0544 241.988C55.2112 241.917 55.3895 241.912 55.5502 241.973C82.6464 252.284 93.1164 269.921 93.2255 270.097C93.3093 270.245 93.3315 270.421 93.2873 270.585C93.2431 270.75 93.1361 270.89 92.9892 270.977C92.8935 271.039 92.7821 271.072 92.6681 271.074Z" fill="white"/>
<path d="M30.499 231.389C29.8325 231.389 29.1479 231.389 28.4511 231.316C28.3662 231.311 28.283 231.29 28.2065 231.253C28.1299 231.216 28.0613 231.164 28.005 231.1C27.9486 231.036 27.9055 230.962 27.8781 230.881C27.8506 230.801 27.8395 230.716 27.8452 230.631C27.8606 230.461 27.94 230.304 28.0673 230.191C28.1945 230.079 28.36 230.019 28.5298 230.024C34.8797 230.461 39.9512 228.866 43.6775 225.342C49.7366 219.592 50.3425 210.27 50.3789 208.177L32.8076 201.19C32.6469 201.127 32.5177 201.003 32.4484 200.845C32.3791 200.687 32.3754 200.508 32.438 200.347C32.5007 200.186 32.6246 200.057 32.7826 199.987C32.9405 199.918 33.1195 199.914 33.2802 199.977L51.2635 207.128C51.3836 207.177 51.4864 207.261 51.5587 207.369C51.631 207.477 51.6696 207.605 51.6695 207.735C51.6695 208.208 51.7786 219.404 44.5683 226.276C40.9935 229.654 36.2733 231.389 30.499 231.389Z" fill="white"/>
<path d="M105.208 238.085C89.8664 238.085 84.6375 213.527 84.6072 213.272C84.5745 213.115 84.6019 212.952 84.6838 212.813C84.7656 212.675 84.896 212.573 85.0495 212.526L112.255 204.084C112.331 204.055 112.412 204.042 112.494 204.045C112.575 204.049 112.655 204.069 112.728 204.104C112.802 204.139 112.868 204.189 112.922 204.25C112.976 204.311 113.017 204.382 113.042 204.46C113.358 205.23 120.568 223.48 115.302 232.796C113.715 235.61 111.152 237.321 107.68 237.885C106.863 238.017 106.036 238.084 105.208 238.085ZM85.9765 213.582C86.8914 217.391 92.7566 238.952 107.45 236.629C110.516 236.132 112.77 234.64 114.157 232.184C118.629 224.262 113.206 208.651 112.037 205.497L85.9765 213.582Z" fill="white"/>
<path d="M167.041 451.149C167.041 451.149 156.595 402.13 164.49 401.972C172.385 401.815 185.127 406.921 185.127 406.921C185.127 406.921 201.372 394.858 209.903 398.855C218.434 402.852 224.632 413.587 224.632 413.587L272.008 434.985C272.008 434.985 278.491 442.488 277.631 446.867C276.958 450.287 211.181 458.56 182.298 462.03C174.851 462.927 168.113 458.112 167.041 451.149Z" fill="#477FCD"/>
<path d="M229.414 428.544C229.304 428.547 229.195 428.522 229.097 428.47C228.999 428.419 228.916 428.344 228.855 428.252C228.794 428.159 228.758 428.053 228.75 427.943C228.742 427.833 228.762 427.722 228.809 427.622L231.935 421.09L213.885 425.766C213.75 425.799 213.608 425.788 213.479 425.735C213.35 425.681 213.242 425.588 213.17 425.469C213.099 425.348 213.07 425.207 213.086 425.068C213.103 424.929 213.164 424.8 213.261 424.699L224.167 413.175C224.285 413.05 224.447 412.977 224.618 412.972C224.789 412.967 224.955 413.03 225.079 413.147C225.204 413.265 225.277 413.427 225.282 413.598C225.287 413.769 225.224 413.936 225.107 414.06L215.757 423.989L232.983 419.519C233.103 419.492 233.227 419.498 233.344 419.537C233.46 419.575 233.563 419.644 233.644 419.737C233.721 419.833 233.769 419.949 233.784 420.071C233.799 420.193 233.78 420.317 233.729 420.429L230.644 426.864L243.974 422.618C244.057 422.579 244.147 422.558 244.238 422.557C244.329 422.555 244.42 422.573 244.503 422.609C244.587 422.646 244.662 422.699 244.723 422.767C244.785 422.834 244.831 422.914 244.859 423.001C244.888 423.088 244.897 423.179 244.887 423.27C244.877 423.361 244.848 423.449 244.801 423.527C244.755 423.606 244.692 423.673 244.617 423.726C244.543 423.778 244.458 423.814 244.368 423.831L229.639 428.526C229.565 428.544 229.49 428.55 229.414 428.544Z" fill="#182337"/>
<path d="M93.2338 407.637C93.2338 407.637 121.342 453.599 116.495 459.27C111.647 464.941 77.3955 465.73 61.7631 463.225C46.1307 460.72 40.1444 458.839 38.9568 455.024C37.7692 451.209 45.1915 403.98 45.1915 403.98C45.1915 403.98 52.0808 396.222 61.5147 398.218C70.9487 400.213 85.751 407.528 85.751 407.528C85.751 407.528 89.4106 401.214 93.2338 407.637Z" fill="#477FCD"/>
<path d="M92.142 411.968C92.0268 411.967 91.9139 411.935 91.8148 411.877L85.4103 408.086C85.2632 407.999 85.1567 407.858 85.1141 407.692C85.0715 407.527 85.0963 407.351 85.1831 407.204C85.2698 407.056 85.4115 406.95 85.5768 406.907C85.7422 406.864 85.9177 406.889 86.0647 406.976L92.469 410.767C92.5424 410.809 92.6068 410.865 92.6582 410.932C92.7097 411 92.7472 411.076 92.7686 411.158C92.79 411.24 92.795 411.326 92.7831 411.409C92.7712 411.493 92.7427 411.574 92.6994 411.646C92.6424 411.744 92.561 411.825 92.4633 411.881C92.3655 411.938 92.2548 411.967 92.142 411.968Z" fill="#182337"/>
<path d="M74.6211 67.0466C74.6211 67.6596 74.8028 68.2588 75.143 68.7685C75.4832 69.2781 75.9667 69.6753 76.5325 69.9099C77.0982 70.1445 77.7207 70.2059 78.3213 70.0863C78.9219 69.9668 79.4736 69.6715 79.9067 69.2381C80.3397 68.8046 80.6345 68.2524 80.754 67.6512C80.8734 67.05 80.8121 66.4268 80.5778 65.8605C80.3435 65.2942 79.9466 64.8102 79.4374 64.4696C78.9283 64.129 78.3297 63.9473 77.7173 63.9473C76.8962 63.9473 76.1087 64.2738 75.528 64.855C74.9474 65.4363 74.6211 66.2246 74.6211 67.0466Z" fill="#F1D15B"/>
<path d="M137.553 166.352C137.405 166.353 137.262 166.304 137.146 166.212C136.989 166.079 133.245 162.986 133.638 158.716C133.672 158.196 133.813 157.69 134.052 157.227C134.291 156.765 134.622 156.357 135.026 156.029C136.174 155.214 137.544 154.769 138.952 154.755C137.74 153.124 135.704 149.848 135.704 146.082C135.704 141.551 141.327 139.519 143.612 138.883C142.618 137.403 140.582 134.073 139.764 130.719C138.861 126.874 143.848 124.144 146.071 123.137C144.617 121.87 141.963 119.183 142.594 116.811C143.424 113.694 150.634 113.682 151.416 113.651C151.506 113.643 151.596 113.653 151.682 113.681C151.768 113.71 151.847 113.756 151.914 113.817C151.981 113.878 152.034 113.952 152.071 114.035C152.108 114.117 152.127 114.207 152.127 114.297C152.127 114.388 152.108 114.477 152.071 114.56C152.034 114.643 151.981 114.717 151.914 114.778C151.847 114.839 151.768 114.885 151.682 114.913C151.596 114.942 151.506 114.952 151.416 114.943C148.992 114.943 144.29 115.471 143.848 117.139C143.345 119.019 146.55 121.924 147.708 122.798C147.799 122.868 147.87 122.962 147.914 123.069C147.958 123.176 147.972 123.293 147.955 123.407C147.938 123.521 147.891 123.629 147.819 123.719C147.747 123.81 147.652 123.879 147.544 123.92C145.484 124.684 140.273 127.341 141.024 130.422C142.006 134.564 145.169 138.846 145.199 138.913C145.267 138.997 145.311 139.097 145.327 139.204C145.343 139.31 145.33 139.419 145.29 139.52C145.251 139.621 145.188 139.71 145.105 139.78C145.022 139.85 144.923 139.898 144.817 139.92C144.739 139.92 137.001 141.582 137.001 146.094C137.001 150.867 140.764 154.955 140.806 154.998C140.896 155.094 140.953 155.215 140.972 155.346C140.99 155.476 140.968 155.608 140.909 155.726C140.855 155.848 140.762 155.948 140.645 156.012C140.527 156.075 140.393 156.098 140.261 156.077C140.261 156.077 137.371 155.786 135.844 157.042C135.573 157.265 135.351 157.542 135.192 157.855C135.034 158.168 134.942 158.511 134.923 158.861C134.596 162.446 137.952 165.206 137.952 165.23C138.057 165.313 138.133 165.427 138.17 165.556C138.207 165.685 138.203 165.822 138.158 165.948C138.114 166.074 138.031 166.184 137.921 166.26C137.811 166.337 137.68 166.377 137.546 166.376L137.553 166.352Z" fill="#E4F3FF"/>
<path d="M145.931 400.759C145.837 400.759 145.745 400.74 145.658 400.704C145.581 400.669 145.511 400.619 145.453 400.556C145.395 400.494 145.35 400.42 145.321 400.34C145.291 400.26 145.278 400.174 145.282 400.089C145.286 400.004 145.307 399.92 145.343 399.843C146.119 398.157 150.191 389.751 153.59 389.751C156.371 389.751 159.879 394.421 161.388 396.635C162.636 393.553 166.338 385.663 171.416 385.663C176.493 385.663 180.547 393.371 181.971 396.434C183.576 393.614 187.708 387.1 191.429 387.943C194.676 388.665 197.548 392.947 198.851 395.221C200.063 391.582 203.504 383.055 208.297 383.873C213.878 384.826 219.924 394.821 220.185 395.246C220.26 395.392 220.277 395.562 220.232 395.72C220.186 395.878 220.083 396.013 219.942 396.098C219.801 396.183 219.633 396.211 219.473 396.176C219.312 396.142 219.17 396.048 219.076 395.913C219.016 395.816 213.084 385.996 208.079 385.147C204.116 384.541 200.651 393.499 199.633 397.035C199.601 397.162 199.529 397.276 199.428 397.359C199.326 397.443 199.2 397.49 199.069 397.496C198.944 397.507 198.819 397.479 198.71 397.416C198.602 397.353 198.515 397.258 198.463 397.144C198.427 397.071 194.913 390.066 191.192 389.229C188.551 388.665 184.479 394.433 182.522 398.211C182.456 398.313 182.366 398.398 182.261 398.458C182.155 398.518 182.037 398.552 181.916 398.557C181.794 398.551 181.676 398.51 181.576 398.439C181.476 398.368 181.399 398.271 181.352 398.157C181.304 398.042 176.741 386.973 171.452 386.973C166.162 386.973 162.224 398.169 162.181 398.278C162.142 398.393 162.071 398.494 161.977 398.571C161.883 398.647 161.769 398.695 161.648 398.709C161.529 398.724 161.407 398.704 161.299 398.65C161.191 398.596 161.102 398.511 161.042 398.406C159.267 395.567 155.692 391.067 153.638 391.067C151.584 391.067 148.227 396.798 146.561 400.407C146.503 400.522 146.412 400.617 146.3 400.68C146.188 400.743 146.059 400.77 145.931 400.759Z" fill="white"/>
<path d="M108.127 399.049C108 399.052 107.874 399.018 107.766 398.95C107.658 398.882 107.573 398.783 107.521 398.667C106.309 396.04 102.595 389.223 99.7596 389.223C96.924 389.223 93.7309 395.088 92.7372 397.35C92.6881 397.461 92.6085 397.556 92.5077 397.624C92.4069 397.692 92.2889 397.729 92.1676 397.733C92.044 397.735 91.9222 397.704 91.8154 397.642C91.7085 397.58 91.6206 397.489 91.5617 397.381C89.8772 394.093 84.6423 385.469 80.7463 385.087C80.6717 385.081 80.5967 385.081 80.5221 385.087C76.7897 385.087 72.5666 393.875 71.2275 397.332C71.1818 397.47 71.088 397.587 70.9635 397.662C70.839 397.736 70.6918 397.763 70.5489 397.739C70.4065 397.721 70.2739 397.657 70.1719 397.556C70.07 397.455 70.0044 397.323 69.9854 397.181C69.9854 397.102 68.9129 389.132 64.0475 388.319C59.1821 387.507 56.2918 396.034 56.2615 396.119C56.2148 396.242 56.1319 396.348 56.0237 396.423C55.9155 396.497 55.787 396.537 55.6556 396.537C55.5242 396.537 55.3959 396.497 55.2877 396.423C55.1795 396.348 55.0965 396.242 55.0497 396.119C55.0134 396.028 51.2871 386.791 45.4522 385.038C45.0073 384.897 44.5369 384.856 44.0742 384.917C43.6115 384.977 43.1676 385.139 42.774 385.39C39.1386 387.579 37.4664 395.925 37.4482 396.01C37.4319 396.093 37.3994 396.172 37.3527 396.242C37.3059 396.312 37.2458 396.373 37.1758 396.42C37.1057 396.467 37.0271 396.499 36.9444 396.516C36.8617 396.533 36.7766 396.533 36.6938 396.516C36.6111 396.5 36.5324 396.468 36.4622 396.421C36.3919 396.374 36.3316 396.314 36.2846 396.244C36.2377 396.174 36.2049 396.095 36.1883 396.012C36.1717 395.929 36.1716 395.844 36.1879 395.761C36.2546 395.398 38.0056 386.773 42.1076 384.286C42.6539 383.939 43.2696 383.716 43.9114 383.633C44.5533 383.55 45.2054 383.609 45.8218 383.807C50.8326 385.311 54.2682 391.413 55.6194 394.227C56.7948 391.558 59.7214 386.251 64.2596 387.015C68.3495 387.701 70.1247 392.171 70.8397 394.9C72.5362 391.079 76.5292 383.376 80.8675 383.789C85.3512 384.225 90.3742 392.547 92.101 395.646C93.3128 393.178 96.3423 387.919 99.7475 387.919C103.916 387.919 108.23 397.078 108.679 398.121C108.714 398.198 108.734 398.281 108.737 398.366C108.74 398.451 108.726 398.536 108.696 398.615C108.666 398.695 108.621 398.768 108.563 398.83C108.505 398.891 108.435 398.941 108.357 398.976C108.286 399.014 108.208 399.038 108.127 399.049Z" fill="white"/>
<path d="M101.233 67.7133H100.985C98.9247 67.5071 97.7856 64.529 97.6645 64.1894C97.625 64.0826 97.6149 63.9672 97.6352 63.8552C97.6554 63.7432 97.7052 63.6387 97.7795 63.5526C97.8498 63.4629 97.944 63.3948 98.0511 63.3562C98.1583 63.3175 98.2742 63.3099 98.3854 63.3342L103.899 64.335C103.995 64.3524 104.086 64.3915 104.165 64.4493C104.244 64.5071 104.308 64.582 104.354 64.6686C104.396 64.7566 104.417 64.853 104.417 64.9506C104.417 65.0482 104.396 65.1446 104.354 65.2327C104.323 65.3176 103.227 67.7133 101.233 67.7133ZM99.4156 64.8141C99.8397 65.5541 100.458 66.3486 101.136 66.4153C101.815 66.482 102.397 65.924 102.766 65.4267L99.4156 64.8141Z" fill="black"/>
</g>
<defs>
<clipPath id="clip0_1390_10250">
<rect width="298" height="433" fill="white"/>
</clipPath>
</defs>
</svg>
