<svg width="263" height="260" viewBox="0 0 263 260" fill="none" xmlns="http://www.w3.org/2000/svg">
<g clip-path="url(#clip0_1390_10321)">
<path d="M22.1197 397.994C20.8978 397.994 19.7259 397.508 18.8613 396.642C17.9968 395.775 17.5104 394.6 17.509 393.375V171.338H26.7305V393.385C26.7263 394.609 26.2388 395.781 25.3745 396.645C24.5103 397.509 23.3398 397.994 22.1197 397.994Z" fill="black"/>
<path d="M188.688 365.247H170.781L170.781 242.733H188.688V365.247Z" fill="#A0B7E2"/>
<path d="M131.58 71.8477C131.58 71.8477 102.293 97.8107 78.651 99.3277C67.2502 100.06 51.9581 94.587 51.9581 94.587L38.3727 130.253C38.3727 130.253 86.1604 175.652 134.809 139.876C148.794 129.599 131.58 71.8477 131.58 71.8477Z" fill="#A85571"/>
<path d="M232.287 128.498C232.287 128.498 270.218 151.248 261.779 201.188C252.074 258.603 194.992 277.234 145.477 263.67C95.9612 250.107 104.216 210.996 104.216 210.996L232.287 128.498Z" fill="#FFDCE1"/>
<path d="M239.809 232.82C239.968 232.819 240.122 232.759 240.24 232.651C252.843 220.936 255.206 198.813 255.301 197.886C255.304 197.726 255.246 197.571 255.14 197.451C255.034 197.332 254.887 197.256 254.729 197.24C254.57 197.225 254.411 197.269 254.283 197.365C254.156 197.462 254.069 197.602 254.04 197.76C254.014 197.981 251.646 220.341 239.378 231.724C239.317 231.78 239.267 231.848 239.232 231.924C239.197 232 239.178 232.082 239.175 232.165C239.172 232.249 239.186 232.332 239.215 232.41C239.245 232.488 239.29 232.559 239.347 232.62C239.406 232.683 239.477 232.734 239.557 232.769C239.637 232.803 239.722 232.821 239.809 232.82Z" fill="white"/>
<path d="M163.892 60.3856C163.892 60.3856 138.06 62.677 128.356 75.1871C118.651 87.6971 131.475 166.134 132.168 167.224C132.861 168.315 150.853 176.311 182.219 175.615C213.586 174.92 221.206 168.915 222.245 167.224C223.285 165.534 229.865 76.9885 222.245 69.4877C214.626 61.9869 182.792 58.089 163.892 60.3856Z" fill="#A85571"/>
<g clip-path="url(#clip1_1390_10321)">
<path d="M102.272 76H20.7351C18.157 75.9967 15.6854 74.961 13.8619 73.12C12.0385 71.2789 11.0122 68.7827 11.0078 66.1785V29.8257C11.0111 27.2207 12.0369 24.7235 13.8604 22.8815C15.684 21.0396 18.1563 20.0033 20.7351 20H102.28C104.859 20.0033 107.332 21.0396 109.155 22.8815C110.979 24.7235 112.004 27.2207 112.008 29.8257V66.1785C112.003 68.7841 110.976 71.2816 109.151 73.1229C107.326 74.9642 104.852 75.9989 102.272 76ZM20.7351 21.0054C18.4195 21.0076 16.1994 21.9375 14.5616 23.591C12.9239 25.2445 12.0023 27.4867 11.999 29.8257V66.1785C12.0023 68.5175 12.9239 70.7597 14.5616 72.4132C16.1994 74.0667 18.4195 74.9965 20.7351 74.9987H102.28C104.596 74.9965 106.816 74.0667 108.454 72.4132C110.092 70.7597 111.013 68.5175 111.017 66.1785V29.8257C111.013 27.4867 110.092 25.2445 108.454 23.591C106.816 21.9375 104.596 21.0076 102.28 21.0054H20.7351Z" fill="#315D80"/>
<path d="M90 43C90 43.5533 89.6645 44 89.2511 44H62.7479C62.3345 44 62 43.5533 62 43C62 42.4483 62.3345 42 62.7479 42H89.2511C89.6645 42 90 42.4483 90 43Z" fill="#EA4B62"/>
<path d="M92.999 53C92.999 53.5533 92.6272 54 92.1697 54H62.8283C62.3708 54 62 53.5533 62 53C62 52.4483 62.3708 52 62.8283 52H92.1707C92.6282 52 93 52.4483 93 53H92.999Z" fill="#EA4B62"/>
<path d="M104 63C104 63.5517 103.497 64 102.877 64H63.1232C62.503 64 62 63.5517 62 63C62 62.4483 62.503 62 63.1232 62H102.877C103.497 62 104 62.4483 104 63Z" fill="#EA4B62"/>
<path d="M111.504 33.0326H11.4954C11.3718 33.0212 11.2568 32.9636 11.1731 32.8709C11.0894 32.7783 11.043 32.6574 11.043 32.532C11.043 32.4066 11.0894 32.2857 11.1731 32.1931C11.2568 32.1004 11.3718 32.0428 11.4954 32.0314H111.504C111.573 32.025 111.643 32.0333 111.708 32.0555C111.774 32.0778 111.834 32.1136 111.885 32.1607C111.936 32.2078 111.977 32.2652 112.005 32.3291C112.033 32.393 112.047 32.4621 112.047 32.532C112.047 32.6019 112.033 32.671 112.005 32.7349C111.977 32.7988 111.936 32.8562 111.885 32.9033C111.834 32.9504 111.774 32.9862 111.708 33.0085C111.643 33.0308 111.573 33.039 111.504 33.0326Z" fill="#315D80"/>
<path d="M87.9724 26.1447C87.9724 26.5555 87.8518 26.9572 87.6258 27.2988C87.3999 27.6404 87.0786 27.9066 86.7028 28.0639C86.327 28.2211 85.9136 28.2622 85.5147 28.1821C85.1158 28.1019 84.7493 27.9041 84.4617 27.6136C84.1741 27.3231 83.9783 26.9529 83.8989 26.5499C83.8196 26.147 83.8602 25.7293 84.0159 25.3497C84.1715 24.9702 84.4351 24.6457 84.7733 24.4175C85.1115 24.1892 85.5091 24.0674 85.9159 24.0674C86.4613 24.0674 86.9844 24.2862 87.3701 24.6758C87.7558 25.0654 87.9724 25.5938 87.9724 26.1447Z" fill="#315D80"/>
<path d="M95.7264 26.1447C95.7264 26.5555 95.6057 26.9572 95.3797 27.2988C95.1538 27.6404 94.8326 27.9066 94.4568 28.0639C94.081 28.2211 93.6675 28.2622 93.2686 28.1821C92.8697 28.1019 92.5032 27.9041 92.2156 27.6136C91.928 27.3231 91.7321 26.9529 91.6528 26.5499C91.5734 26.147 91.6142 25.7293 91.7699 25.3497C91.9255 24.9702 92.1891 24.6457 92.5273 24.4175C92.8655 24.1892 93.2631 24.0674 93.6698 24.0674C94.2153 24.0674 94.7383 24.2862 95.124 24.6758C95.5096 25.0654 95.7264 25.5938 95.7264 26.1447Z" fill="#315D80"/>
<path d="M103.82 26.1447C103.82 26.5555 103.699 26.9572 103.473 27.2988C103.247 27.6404 102.926 27.9066 102.55 28.0639C102.175 28.2211 101.761 28.2622 101.362 28.1821C100.963 28.1019 100.597 27.9041 100.309 27.6136C100.022 27.3231 99.8259 26.9529 99.7466 26.5499C99.6672 26.147 99.7079 25.7293 99.8635 25.3497C100.019 24.9702 100.283 24.6457 100.621 24.4175C100.959 24.1892 101.357 24.0674 101.764 24.0674C102.309 24.0674 102.832 24.2862 103.218 24.6758C103.603 25.0654 103.82 25.5938 103.82 26.1447Z" fill="#315D80"/>
<g clip-path="url(#clip2_1390_10321)">
<path d="M26.6101 64.238C23.8249 61.4131 22.1885 57.6541 22.0186 53.6907C21.8487 49.7272 23.1573 45.842 25.6905 42.789C26.0256 42.3774 26.3823 41.984 26.7593 41.6103C29.6343 38.7649 33.4849 37.121 37.5285 37.0127C38.0205 36.9975 38.5129 37.0075 39.0038 37.0426C39.0728 37.038 39.1419 37.038 39.2109 37.0426C39.3974 37.0556 39.5969 37.078 39.7928 37.0985C40.121 37.1358 40.4493 37.1806 40.7664 37.2403C41.0835 37.3 41.3931 37.3578 41.699 37.4268C41.7381 37.4399 41.7717 37.4436 41.8109 37.4566C42.0595 37.5176 42.3082 37.5866 42.5569 37.6637C42.5737 37.6637 42.5905 37.6637 42.5979 37.6767C42.7415 37.7178 42.887 37.7663 43.0306 37.8166C43.0925 37.8246 43.1521 37.8449 43.206 37.8763C43.551 37.9901 43.8923 38.1262 44.2337 38.2717C44.4481 38.3631 44.6533 38.4582 44.8678 38.5496C45.0029 38.6032 45.1343 38.6655 45.2613 38.7361C45.3863 38.7995 45.5206 38.8629 45.6455 38.9357C45.8942 39.0712 46.1429 39.2148 46.3916 39.3665C46.6788 39.553 46.9642 39.7396 47.2496 39.9261C48.0162 40.4656 48.7328 41.073 49.3907 41.7408C51.6988 44.0808 53.2303 47.0747 53.7773 50.3156C54.3242 53.5565 53.86 56.8871 52.4477 59.855C51.655 61.5427 50.5695 63.0765 49.2415 64.3854C46.2202 67.3657 42.1391 69.0243 37.8953 68.9967C33.6515 68.969 29.5923 67.2574 26.6101 64.238Z" fill="#F1D15B"/>
<path d="M52.451 59.8703L38 52.9954L40.9469 40.624L44.2407 38.2646C46.1696 39.0778 47.9189 40.2636 49.3885 41.7543C51.6978 44.0938 53.2307 47.0877 53.7786 50.329C54.3266 53.5703 53.863 56.9017 52.451 59.8703Z" fill="#315D80"/>
<path d="M37.9973 52.9919L25.6875 42.7822C26.0226 42.3706 26.3793 41.9771 26.7562 41.6034C29.6313 38.758 33.4819 37.1142 37.5255 37.0059C38.0174 36.9907 38.5098 37.0007 39.0008 37.0357L37.9973 52.9919Z" fill="#D0B241"/>
<path d="M37.9974 52.9919L37.5273 37.0059C38.0193 36.9907 38.5117 37.0007 39.0027 37.0357C39.0716 37.0312 39.1408 37.0312 39.2097 37.0357C39.3962 37.0488 39.5958 37.0712 39.7916 37.0917C40.1199 37.129 40.4482 37.1738 40.7652 37.2334C41.0823 37.2931 41.3919 37.3509 41.6978 37.42C41.737 37.433 41.7705 37.4368 41.8097 37.4498C42.0584 37.5107 42.3071 37.5797 42.5557 37.6568C42.5725 37.6568 42.5893 37.6568 42.5968 37.6699C42.7404 37.7109 42.8859 37.7594 43.0295 37.8098C43.0913 37.8177 43.1509 37.838 43.2048 37.8695C43.7722 38.059 44.3273 38.2839 44.8666 38.5428C45.0017 38.5964 45.1332 38.6587 45.2602 38.7293C45.3851 38.7927 45.5194 38.8561 45.6444 38.9289C45.8931 39.0644 46.1418 39.208 46.3904 39.3597C46.6777 39.5462 46.963 39.7327 47.2484 39.9192L37.9974 52.9919Z" fill="#EA4B62"/>
</g>
</g>
<path d="M137.017 161.151C137.017 161.151 72.4723 193.72 64.5479 206.978C56.6236 220.236 65.3514 328.038 65.3514 328.038L122.592 328.802L130.521 268.543L174.008 167.019L137.017 161.151Z" fill="#D7B849"/>
<path d="M215.45 168.009C215.45 168.009 218.075 196.943 217.125 206.461C216.174 215.979 186.33 238.323 186.33 238.323L184.85 330.945L118.682 333.911C118.682 333.911 117.243 228.068 118.346 218.102C119.449 208.136 163.508 171.88 163.508 171.88L215.45 168.009Z" fill="#F1D15B"/>
<path d="M179.277 46.8535L178.905 63.7092C178.905 63.7092 175.754 68.4867 165.918 69.0662C158.566 69.5034 156.045 67.7862 156.045 67.7862L157.248 59.2688L158.435 50.9674L176.289 47.4487L179.277 46.8535Z" fill="#315D80"/>
<path d="M176.285 47.4492C176.196 48.0108 176.018 48.5547 175.76 49.061C171.816 57.3993 161.497 58.9848 157.259 59.2693L158.446 50.9679L176.285 47.4492Z" fill="black"/>
<path d="M155.55 12.4627C155.55 12.4627 146.26 33.4006 149.48 45.2207C152.699 57.0407 163.422 55.2551 169.85 53.0164C176.277 50.7778 179.276 46.8588 179.276 46.8588C181.099 47.4105 183.049 47.3708 184.848 46.7457C186.647 46.1205 188.204 44.9416 189.296 43.3771C193.339 37.8147 190.918 31.3832 187.505 29.8925C184.092 28.4019 180.016 30.8459 180.016 30.8459L183.241 24.7674C183.241 24.7674 170.039 -6.33664 155.55 12.4627Z" fill="#315D80"/>
<path d="M156.339 39.126C156.404 39.1258 156.467 39.1152 156.528 39.0944C156.688 39.0435 156.821 38.9314 156.899 38.7824C156.977 38.6334 156.993 38.4597 156.943 38.299C155.751 34.4275 158.639 30.2294 158.671 30.1872C158.768 30.0475 158.805 29.875 158.775 29.7076C158.745 29.5401 158.65 29.3915 158.511 29.2944C158.371 29.1973 158.199 29.1597 158.032 29.1898C157.866 29.22 157.717 29.3154 157.621 29.4551C157.489 29.65 154.344 34.1957 155.725 38.6783C155.766 38.8093 155.847 38.9237 155.958 39.0044C156.069 39.085 156.202 39.1277 156.339 39.126Z" fill="black"/>
<path d="M180.88 40.6643C180.966 40.6639 181.052 40.646 181.131 40.6116C181.211 40.5772 181.282 40.5271 181.342 40.4641L187.029 34.4171C187.129 34.2919 187.178 34.1335 187.166 33.9736C187.155 33.8136 187.084 33.6639 186.967 33.5542C186.851 33.4445 186.697 33.383 186.537 33.3819C186.377 33.3807 186.223 33.44 186.105 33.548L180.417 39.5897C180.3 39.7099 180.234 39.8716 180.234 40.0401C180.234 40.2085 180.3 40.3703 180.417 40.4905C180.479 40.5491 180.551 40.5948 180.631 40.6246C180.71 40.6545 180.795 40.668 180.88 40.6643Z" fill="black"/>
<path d="M186.923 39.0423C187.08 39.0376 187.229 38.9748 187.343 38.8659C187.456 38.7571 187.526 38.61 187.537 38.4529C187.549 38.2958 187.502 38.14 187.406 38.0154C187.31 37.8908 187.172 37.8063 187.017 37.7781L183.084 37.1829C182.918 37.1578 182.749 37.1997 182.614 37.2995C182.479 37.3992 182.39 37.5487 182.364 37.7149C182.339 37.8812 182.381 38.0506 182.481 38.1859C182.58 38.3213 182.729 38.4114 182.895 38.4366L186.828 39.037L186.923 39.0423Z" fill="black"/>
<path d="M165.823 31.2883C165.978 31.2871 166.127 31.23 166.243 31.1274C166.358 31.0248 166.433 30.8836 166.454 30.73L166.947 26.8163C166.97 26.653 166.927 26.4874 166.829 26.3553C166.731 26.2232 166.585 26.1352 166.422 26.1105C166.259 26.0878 166.093 26.1302 165.96 26.2287C165.828 26.3271 165.739 26.4738 165.713 26.6372L165.219 30.5509C165.197 30.7148 165.239 30.8811 165.337 31.014C165.435 31.147 165.582 31.236 165.745 31.262L165.823 31.2883Z" fill="black"/>
<path d="M154.245 30.3506C154.394 30.3515 154.539 30.299 154.654 30.2025C154.768 30.106 154.845 29.9718 154.87 29.8239L155.442 25.926C155.467 25.7598 155.425 25.5904 155.326 25.455C155.226 25.3197 155.077 25.2295 154.912 25.2044C154.746 25.1793 154.577 25.2212 154.442 25.3209C154.307 25.4207 154.217 25.5702 154.192 25.7364L153.62 29.6395C153.596 29.8049 153.637 29.9731 153.735 30.1081C153.834 30.2431 153.981 30.334 154.145 30.3612L154.245 30.3506Z" fill="black"/>
<path d="M168.495 24.1251C168.601 24.1239 168.706 24.0968 168.799 24.0461C168.946 23.964 169.054 23.8271 169.1 23.6652C169.147 23.5034 169.127 23.3298 169.046 23.1823C167.565 20.4801 164.115 21.2965 163.968 21.3334C163.805 21.3732 163.665 21.4763 163.577 21.6201C163.49 21.7638 163.464 21.9364 163.503 22.0998C163.543 22.2633 163.646 22.4042 163.789 22.4916C163.932 22.5791 164.105 22.6058 164.268 22.566C164.378 22.5396 166.925 21.9497 167.943 23.7986C167.998 23.8974 168.078 23.9799 168.175 24.0373C168.272 24.0948 168.382 24.1251 168.495 24.1251Z" fill="black"/>
<path d="M153.404 22.5391C153.505 22.5426 153.605 22.522 153.697 22.4789C153.788 22.4359 153.868 22.3716 153.929 22.2915C154.37 21.743 154.986 21.3635 155.673 21.2169C155.916 21.204 156.159 21.2417 156.387 21.3279C156.615 21.414 156.822 21.5466 156.996 21.7174C157.058 21.7812 157.131 21.8315 157.213 21.8652C157.295 21.8989 157.382 21.9151 157.471 21.9128C157.559 21.9106 157.646 21.8899 157.725 21.8522C157.805 21.8144 157.876 21.7604 157.934 21.6935C157.992 21.6267 158.035 21.5484 158.062 21.4638C158.088 21.3792 158.096 21.2901 158.086 21.2022C158.075 21.1142 158.047 21.0294 158.002 20.953C157.958 20.8766 157.898 20.8105 157.826 20.7587C157.524 20.4702 157.164 20.2493 156.77 20.1104C156.376 19.9715 155.958 19.9178 155.542 19.9528C154.503 20.139 153.569 20.7014 152.916 21.533C152.816 21.6671 152.771 21.8353 152.793 22.0017C152.815 22.168 152.9 22.3193 153.032 22.4232C153.142 22.4982 153.271 22.5386 153.404 22.5391Z" fill="black"/>
<path d="M178 32.2781C178 32.2781 172.329 28.4277 172.665 22.5861C173.001 16.7446 174.287 15.2539 174.287 15.2539C174.287 15.2539 167.66 14.9115 162.209 13.1469C158.643 11.9828 157.11 10.6976 157.11 10.6976L155.577 12.5043C153.901 12.4306 150.084 2.2592 152.599 0.452477C155.114 -1.35424 168.595 3.36009 168.595 3.36009C168.595 3.36009 182.774 0.0100173 191.086 10.134C199.399 20.2579 190.089 32.1886 190.089 32.1886C190.089 32.1886 187.61 26.9264 178 32.2781Z" fill="black"/>
<path d="M161.663 46.111C162.082 46.111 162.5 46.0507 162.902 45.9319C163.262 45.8428 163.599 45.6791 163.892 45.4514C164.185 45.2237 164.428 44.937 164.604 44.6098C164.959 43.8096 165.011 42.907 164.751 42.0709C164.723 41.9897 164.679 41.9148 164.623 41.8506C164.566 41.7864 164.497 41.7342 164.42 41.6969C164.342 41.663 164.258 41.6455 164.173 41.6455C164.088 41.6455 164.004 41.663 163.926 41.6969L158.496 43.7354C158.395 43.7725 158.305 43.8351 158.235 43.9172C158.165 43.9994 158.118 44.0982 158.097 44.2042C158.076 44.3106 158.082 44.4206 158.116 44.5238C158.149 44.627 158.207 44.7201 158.286 44.7942C159.226 45.6113 160.419 46.0766 161.663 46.111ZM163.653 43.1349C163.674 43.4418 163.615 43.7489 163.48 44.0251C163.38 44.1983 163.245 44.349 163.084 44.4677C162.923 44.5864 162.74 44.6707 162.545 44.7152C161.732 44.9364 160.865 44.8463 160.114 44.4623L163.653 43.1349Z" fill="black"/>
<path d="M53.8633 105.074L53.2699 101.313C53.2699 101.313 38.8811 90.3251 30.022 86.7012C26.2988 85.1736 21.0947 86.4431 25.4849 91.3891C26.983 93.1293 28.1859 95.1046 29.0453 97.236C29.0453 97.236 21.9349 94.9815 17.0564 91.7368C13.9318 89.6615 9.36311 81.3126 6.6849 83.1246C2.42603 86.0006 7.32555 94.1493 7.32555 94.1493C7.32555 94.1493 5.10948 83.8252 0.903118 87.8284C-3.30325 91.8316 8.1605 112.116 13.6062 116.957C19.0519 121.798 47.8085 127.434 47.8085 127.434L53.8633 105.074Z" fill="#315D80"/>
<path d="M23.5653 101.655C23.7251 101.65 23.8771 101.584 23.9908 101.472C24.1046 101.359 24.1717 101.208 24.179 101.047C24.1863 100.887 24.1332 100.73 24.0302 100.607C23.9271 100.485 23.7818 100.406 23.6231 100.386C17.3687 99.7695 11.3978 94.1914 11.34 94.1387C11.2815 94.0731 11.2101 94.0204 11.1302 93.984C11.0503 93.9475 10.9637 93.9281 10.8759 93.9268C10.7882 93.9256 10.701 93.9426 10.6202 93.9768C10.5393 94.011 10.4663 94.0616 10.4059 94.1255C10.3455 94.1894 10.299 94.2651 10.2693 94.3479C10.2395 94.4307 10.2271 94.5188 10.233 94.6067C10.2388 94.6945 10.2627 94.7802 10.3032 94.8583C10.3438 94.9364 10.4 95.0053 10.4684 95.0605C10.7257 95.3028 16.8068 100.992 23.5023 101.65L23.5653 101.655Z" fill="black"/>
<path d="M16.1129 106.338C16.229 106.337 16.343 106.306 16.4438 106.248L29.0472 98.5736C29.1906 98.4863 29.2936 98.3454 29.3334 98.182C29.3733 98.0185 29.3468 97.8458 29.2597 97.7019C29.1727 97.558 29.0323 97.4547 28.8693 97.4147C28.7063 97.3747 28.5342 97.4012 28.3907 97.4886L16.1497 104.937L10.4834 100.675C10.3484 100.588 10.1853 100.555 10.027 100.583C9.86874 100.611 9.72706 100.699 9.63048 100.828C9.53391 100.957 9.48965 101.118 9.50663 101.278C9.52362 101.438 9.60059 101.586 9.72202 101.692L15.7348 106.211C15.8439 106.293 15.9766 106.338 16.1129 106.338Z" fill="black"/>
<path d="M40.3573 106.102C40.5078 106.1 40.6527 106.044 40.7662 105.945C40.8797 105.846 40.9544 105.71 40.9771 105.56C40.9998 105.411 40.969 105.259 40.8902 105.13C40.8113 105.002 40.6895 104.905 40.5464 104.858C36.2292 103.4 32.3319 100.906 29.1929 97.5947C29.0822 97.4682 28.9259 97.3911 28.7585 97.3802C28.5911 97.3694 28.4262 97.4257 28.3002 97.5367C28.1741 97.6478 28.0973 97.8045 28.0865 97.9725C28.0756 98.1404 28.1318 98.3058 28.2425 98.4322C31.5127 101.933 35.6031 104.558 40.1421 106.07C40.2113 106.094 40.2842 106.104 40.3573 106.102Z" fill="black"/>
<path d="M128.122 116.62C128.29 116.619 128.45 116.551 128.568 116.432C128.686 116.312 128.753 116.151 128.753 115.983C128.753 111.711 136.472 88.2342 136.546 87.9972C136.599 87.8379 136.586 87.6641 136.512 87.514C136.437 87.3638 136.305 87.2496 136.147 87.1965C135.988 87.1435 135.815 87.1558 135.665 87.2309C135.515 87.306 135.401 87.4376 135.348 87.5969C135.028 88.5713 127.471 111.511 127.471 115.983C127.471 116.068 127.488 116.152 127.521 116.231C127.554 116.309 127.602 116.38 127.663 116.439C127.724 116.499 127.795 116.545 127.874 116.576C127.953 116.607 128.038 116.622 128.122 116.62Z" fill="#E4F3FF"/>
<path d="M163.136 70.2991L153.631 133.466H161.503L168.492 68.998L163.136 70.2991Z" fill="black"/>
<path d="M45.8916 136.526L38.9808 134.208C38.7672 134.137 38.5698 134.024 38.3998 133.876C38.2298 133.728 38.0905 133.548 37.99 133.346C37.8895 133.144 37.8298 132.924 37.8141 132.698C37.7985 132.473 37.8274 132.247 37.899 132.033L50.4708 94.2341C50.6157 93.801 50.9262 93.4434 51.3339 93.2399C51.7416 93.0364 52.2132 93.0037 52.6449 93.149L59.5715 95.4877C59.7851 95.5591 59.9825 95.672 60.1525 95.8201C60.3225 95.9681 60.4618 96.1483 60.5623 96.3503C60.6628 96.5524 60.7224 96.7724 60.7381 96.9977C60.7537 97.2229 60.7249 97.4491 60.6533 97.6631L48.0815 135.462C47.9314 135.894 47.6164 136.249 47.2059 136.448C46.7953 136.648 46.3227 136.676 45.8916 136.526Z" fill="#315D80"/>
<path d="M115.761 326.079C115.845 326.078 115.929 326.061 116.006 326.028C116.084 325.995 116.154 325.947 116.213 325.887C116.272 325.827 116.318 325.755 116.35 325.677C116.382 325.599 116.397 325.515 116.397 325.431C116.37 324.44 113.965 226.609 116.397 215.131C118.046 207.314 142.79 182.926 143.042 182.684C143.119 182.609 143.176 182.515 143.207 182.412C143.238 182.309 143.243 182.2 143.221 182.094C143.197 181.99 143.148 181.893 143.077 181.813C143.006 181.733 142.917 181.672 142.817 181.636L124.962 175.062C124.882 175.028 124.797 175.011 124.711 175.012C124.625 175.012 124.54 175.03 124.461 175.065C124.382 175.099 124.311 175.149 124.252 175.212C124.193 175.275 124.147 175.349 124.117 175.43C124.088 175.511 124.075 175.598 124.08 175.684C124.084 175.77 124.106 175.855 124.145 175.932C124.183 176.009 124.236 176.078 124.302 176.134C124.367 176.19 124.444 176.232 124.526 176.258L141.43 182.479C137.229 186.65 116.749 207.357 115.142 214.868C112.695 226.488 115.026 321.422 115.142 325.483C115.152 325.642 115.222 325.792 115.336 325.902C115.451 326.012 115.603 326.075 115.761 326.079Z" fill="#FDFDFF"/>
<path d="M174.382 155.841C174.382 155.841 158.849 162.131 155.782 161.714C152.715 161.298 141.656 160.055 141.204 157.717L145.368 150.563C145.368 150.563 139.182 153.165 134.992 150.985C130.801 148.804 125.77 144.432 124.746 141.082C123.722 137.732 128.554 138.406 128.554 138.406C128.554 138.406 123.087 134.998 130.029 132.085C136.971 129.172 166.952 124.837 179.439 132.691C191.927 140.545 174.382 155.841 174.382 155.841Z" fill="#315D80"/>
<path d="M128.555 139.044C128.623 139.045 128.691 139.032 128.754 139.007C135.959 136.553 143.658 137.606 143.731 137.617C143.816 137.635 143.905 137.635 143.99 137.618C144.076 137.601 144.157 137.566 144.228 137.516C144.3 137.466 144.36 137.402 144.406 137.327C144.451 137.253 144.481 137.17 144.494 137.083C144.506 136.997 144.5 136.908 144.477 136.824C144.454 136.74 144.414 136.661 144.359 136.593C144.304 136.525 144.236 136.469 144.159 136.429C144.082 136.388 143.997 136.364 143.91 136.358C143.584 136.316 135.844 135.252 128.35 137.806C128.209 137.856 128.091 137.954 128.015 138.083C127.94 138.212 127.911 138.364 127.936 138.511C127.96 138.659 128.036 138.793 128.149 138.89C128.262 138.988 128.406 139.042 128.555 139.044Z" fill="black"/>
<path d="M185.839 243.897C185.962 243.895 186.082 243.861 186.186 243.797C186.283 243.733 186.361 243.644 186.411 243.539C186.461 243.434 186.481 243.317 186.47 243.201C186.433 242.812 185.503 233.689 181.019 230.676C180.281 230.18 179.44 229.863 178.559 229.749C177.679 229.635 176.785 229.726 175.946 230.017C174.339 230.507 173.462 231.323 173.32 232.451C172.874 236.559 184.217 243.086 185.514 243.818C185.614 243.872 185.726 243.9 185.839 243.897ZM177.905 230.981C178.765 230.979 179.606 231.24 180.315 231.729C183.387 233.794 184.626 239.509 185.041 242.064C180.473 239.34 174.355 234.868 174.602 232.582C174.665 232.008 175.242 231.555 176.313 231.229C176.829 231.069 177.365 230.986 177.905 230.981Z" fill="#1C3865"/>
<path d="M143.965 159.386H63.9704L41.1217 107.55H117.965C118.904 107.55 119.822 107.823 120.609 108.336C121.396 108.849 122.017 109.581 122.397 110.442L143.965 159.386Z" fill="#F8F8F8"/>
<path d="M137.02 159.386H57.0251L36.6341 113.123C36.3673 112.519 36.2551 111.857 36.3078 111.199C36.3605 110.54 36.5764 109.905 36.9359 109.352C37.2953 108.798 37.7869 108.343 38.366 108.029C38.9452 107.714 39.5935 107.549 40.2522 107.55H114.187L137.02 159.386Z" fill="#DCE7FA"/>
<path d="M170.786 165.934H57.8395C56.9966 165.9 56.1995 165.54 55.615 164.93C55.0306 164.32 54.7041 163.507 54.7041 162.66C54.7041 161.814 55.0306 161.001 55.615 160.391C56.1995 159.78 56.9966 159.421 57.8395 159.387H170.786C171.629 159.421 172.427 159.78 173.011 160.391C173.595 161.001 173.922 161.814 173.922 162.66C173.922 163.507 173.595 164.32 173.011 164.93C172.427 165.54 171.629 165.9 170.786 165.934Z" fill="#F8F8F8"/>
<path d="M222.245 69.4873C222.245 69.4873 266.982 118.337 259.703 150.131C252.425 181.925 164.128 161.151 164.128 161.151L165.089 123.989L210.991 116.778L222.245 69.4873Z" fill="#C06A87"/>
<path d="M226.21 118.975C229.14 118.975 231.493 118.596 232.091 117.495C232.48 116.768 232.233 115.914 231.346 114.966C225.869 109.072 212.682 116.02 212.12 116.294C212.005 116.357 211.911 116.455 211.853 116.574C211.795 116.693 211.774 116.827 211.795 116.957C211.816 117.09 211.877 117.212 211.972 117.307C212.066 117.401 212.188 117.463 212.32 117.484C214.951 117.948 221.368 118.975 226.21 118.975ZM224.992 113.865C227.118 113.865 229.077 114.392 230.422 115.83C230.947 116.399 231.046 116.752 230.978 116.884C230.253 118.216 222.235 117.763 214.52 116.557C216.894 115.504 221.216 113.865 224.992 113.865Z" fill="#E4F3FF"/>
<path d="M215.813 170.98H217.068C217.253 170.964 217.425 170.879 217.551 170.742C217.676 170.605 217.746 170.426 217.746 170.24C217.746 170.053 217.676 169.874 217.551 169.737C217.425 169.6 217.253 169.515 217.068 169.5H215.818C202.525 169.477 189.275 167.974 176.312 165.017C176.216 164.987 176.115 164.977 176.015 164.987C175.915 164.998 175.818 165.029 175.73 165.078C175.642 165.127 175.565 165.194 175.504 165.274C175.443 165.354 175.399 165.446 175.374 165.544C175.349 165.642 175.345 165.744 175.361 165.843C175.377 165.943 175.413 166.038 175.466 166.124C175.52 166.209 175.591 166.282 175.674 166.339C175.757 166.396 175.851 166.436 175.95 166.455C189.029 169.439 202.399 170.956 215.813 170.98Z" fill="#E4F3FF"/>
<path d="M212.418 117.489C212.553 117.49 212.685 117.448 212.795 117.369C212.904 117.289 212.985 117.176 213.026 117.047C213.066 116.918 213.064 116.779 213.02 116.651C212.976 116.523 212.892 116.412 212.781 116.335C208.721 113.517 212.255 104.057 212.292 103.962C212.344 103.806 212.334 103.636 212.264 103.487C212.194 103.338 212.069 103.222 211.916 103.164C211.762 103.105 211.592 103.108 211.441 103.173C211.29 103.237 211.17 103.358 211.105 103.509C210.943 103.936 207.188 113.997 212.056 117.378C212.163 117.45 212.289 117.489 212.418 117.489Z" fill="#E4F3FF"/>
<path d="M256.948 176.679H5.87903C4.32056 176.679 2.82584 176.058 1.72382 174.953C0.621796 173.847 0.0027771 172.348 0.0027771 170.785C0.0027771 169.222 0.621796 167.722 1.72382 166.617C2.82584 165.512 4.32056 164.891 5.87903 164.891H256.948C258.506 164.891 260.001 165.512 261.103 166.617C262.205 167.722 262.824 169.222 262.824 170.785C262.824 172.348 262.205 173.847 261.103 174.953C260.001 176.058 258.506 176.679 256.948 176.679Z" fill="black"/>
<path d="M172.138 163.595H164.854C163.906 163.595 163.137 162.824 163.137 161.872V122.03C163.137 121.078 163.906 120.307 164.854 120.307H172.138C173.086 120.307 173.855 121.078 173.855 122.03V161.872C173.855 162.824 173.086 163.595 172.138 163.595Z" fill="#315D80"/>
<path d="M93.4492 133.465C93.4492 134.814 93.0506 136.131 92.3039 137.252C91.5573 138.373 90.4961 139.247 89.2544 139.763C88.0127 140.279 86.6463 140.414 85.3282 140.151C84.01 139.888 82.7992 139.238 81.8489 138.285C80.8985 137.332 80.2514 136.117 79.9892 134.795C79.727 133.473 79.8616 132.103 80.3759 130.857C80.8902 129.612 81.7611 128.547 82.8786 127.798C83.9961 127.049 85.31 126.649 86.654 126.649C88.4562 126.649 90.1846 127.368 91.4589 128.646C92.7333 129.924 93.4492 131.658 93.4492 133.465Z" fill="white"/>
<path d="M156.947 61.4231C156.947 61.4231 151.601 79.4218 153.402 79.0689C155.204 78.716 165.917 69.0608 165.917 69.0608C165.917 69.0608 173.725 79.0057 176.283 79.0689C178.84 79.1321 179.738 59.7744 179.738 59.7744C179.738 59.7744 177.113 65.8319 167.623 67.1909C158.134 68.5499 156.947 61.4231 156.947 61.4231Z" fill="black"/>
<path d="M240.702 397.484C239.48 397.482 238.308 396.994 237.445 396.127C236.581 395.26 236.096 394.085 236.096 392.859V170.812H245.312V392.854C245.313 393.461 245.194 394.063 244.963 394.625C244.732 395.187 244.392 395.697 243.964 396.127C243.536 396.557 243.027 396.898 242.467 397.131C241.908 397.364 241.308 397.484 240.702 397.484Z" fill="black"/>
</g>
<defs>
<clipPath id="clip0_1390_10321">
<rect width="263" height="260" fill="white" transform="matrix(-1 0 0 1 263 0)"/>
</clipPath>
<clipPath id="clip1_1390_10321">
<rect width="101" height="56" fill="white" transform="translate(11 20)"/>
</clipPath>
<clipPath id="clip2_1390_10321">
<rect width="32" height="32" fill="white" transform="translate(22 37)"/>
</clipPath>
</defs>
</svg>
