<svg width="1304" height="741" viewBox="0 0 1304 741" fill="none" xmlns="http://www.w3.org/2000/svg">
<g clip-path="url(#clip0_1952_1344)">
<path d="M286.209 348.64C275.489 348.64 266.129 346.72 258.129 342.88C250.289 338.88 243.569 333.36 237.969 326.32L263.169 302.08C266.049 306.08 269.409 309.12 273.249 311.2C277.249 313.28 281.729 314.32 286.689 314.32C291.489 314.32 295.649 313.36 299.169 311.44C302.689 309.36 305.489 306.48 307.569 302.8C309.649 298.96 310.689 294.24 310.689 288.64V176.56H348.609V286.48C348.609 299.12 346.049 310.08 340.929 319.36C335.809 328.64 328.609 335.84 319.329 340.96C310.049 346.08 299.009 348.64 286.209 348.64ZM431.464 348.64C419.464 348.64 408.584 346 398.824 340.72C389.224 335.28 381.624 327.92 376.024 318.64C370.424 309.36 367.624 298.96 367.624 287.44C367.624 275.92 370.424 265.6 376.024 256.48C381.624 247.36 389.224 240.16 398.824 234.88C408.424 229.44 419.304 226.72 431.464 226.72C443.624 226.72 454.504 229.36 464.104 234.64C473.704 239.92 481.304 247.2 486.904 256.48C492.504 265.6 495.304 275.92 495.304 287.44C495.304 298.96 492.504 309.36 486.904 318.64C481.304 327.92 473.704 335.28 464.104 340.72C454.504 346 443.624 348.64 431.464 348.64ZM431.464 315.28C436.744 315.28 441.384 314.16 445.384 311.92C449.384 309.52 452.424 306.24 454.504 302.08C456.744 297.76 457.864 292.88 457.864 287.44C457.864 282 456.744 277.28 454.504 273.28C452.264 269.12 449.144 265.92 445.144 263.68C441.304 261.28 436.744 260.08 431.464 260.08C426.344 260.08 421.784 261.28 417.784 263.68C413.784 265.92 410.664 269.12 408.424 273.28C406.184 277.44 405.064 282.24 405.064 287.68C405.064 292.96 406.184 297.76 408.424 302.08C410.664 306.24 413.784 309.52 417.784 311.92C421.784 314.16 426.344 315.28 431.464 315.28ZM513.585 346V229.36H550.305V346H513.585ZM532.065 213.28C526.305 213.28 521.505 211.36 517.665 207.52C513.985 203.52 512.145 198.72 512.145 193.12C512.145 187.36 513.985 182.56 517.665 178.72C521.505 174.88 526.305 172.96 532.065 172.96C537.825 172.96 542.545 174.88 546.225 178.72C549.905 182.56 551.745 187.36 551.745 193.12C551.745 198.72 549.905 203.52 546.225 207.52C542.545 211.36 537.825 213.28 532.065 213.28ZM653.203 346V279.52C653.203 273.44 651.283 268.56 647.443 264.88C643.763 261.04 639.043 259.12 633.283 259.12C629.283 259.12 625.763 260 622.723 261.76C619.683 263.36 617.283 265.76 615.523 268.96C613.763 272 612.883 275.52 612.883 279.52L598.723 272.56C598.723 263.44 600.723 255.44 604.723 248.56C608.723 241.68 614.243 236.4 621.283 232.72C628.483 228.88 636.563 226.96 645.523 226.96C654.163 226.96 661.763 229.04 668.323 233.2C675.043 237.2 680.323 242.56 684.163 249.28C688.003 256 689.923 263.36 689.923 271.36V346H653.203ZM576.163 346V229.36H612.883V346H576.163Z" fill="#315D80"/>
<path d="M876.433 348.64C862.513 348.64 850.193 345.68 839.473 339.76C828.913 333.84 820.593 325.68 814.513 315.28C808.593 304.72 805.633 292.72 805.633 279.28V176.56H843.553V281.44C843.553 288.16 844.993 294 847.873 298.96C850.753 303.92 854.673 307.76 859.633 310.48C864.753 313.04 870.353 314.32 876.433 314.32C882.833 314.32 888.433 313.04 893.233 310.48C898.033 307.76 901.793 304 904.513 299.2C907.393 294.24 908.833 288.4 908.833 281.68V176.56H946.753V279.52C946.753 292.96 943.793 304.88 937.873 315.28C931.953 325.68 923.713 333.84 913.153 339.76C902.593 345.68 890.353 348.64 876.433 348.64ZM1015.91 348.88C1009.03 348.88 1002.23 348 995.509 346.24C988.949 344.48 982.789 342 977.029 338.8C971.429 335.44 966.629 331.6 962.629 327.28L983.509 306.16C987.349 310.32 991.909 313.6 997.189 316C1002.47 318.24 1008.23 319.36 1014.47 319.36C1018.79 319.36 1022.07 318.72 1024.31 317.44C1026.71 316.16 1027.91 314.4 1027.91 312.16C1027.91 309.28 1026.47 307.12 1023.59 305.68C1020.87 304.08 1017.35 302.72 1013.03 301.6C1008.71 300.32 1004.15 298.96 999.349 297.52C994.549 296.08 989.989 294.08 985.669 291.52C981.349 288.96 977.829 285.44 975.109 280.96C972.389 276.32 971.029 270.48 971.029 263.44C971.029 255.92 972.949 249.44 976.789 244C980.629 238.4 986.069 234 993.109 230.8C1000.15 227.6 1008.39 226 1017.83 226C1027.75 226 1036.87 227.76 1045.19 231.28C1053.67 234.64 1060.55 239.68 1065.83 246.4L1044.95 267.52C1041.27 263.2 1037.11 260.16 1032.47 258.4C1027.99 256.64 1023.59 255.76 1019.27 255.76C1015.11 255.76 1011.99 256.4 1009.91 257.68C1007.83 258.8 1006.79 260.48 1006.79 262.72C1006.79 265.12 1008.15 267.04 1010.87 268.48C1013.59 269.92 1017.11 271.2 1021.43 272.32C1025.75 273.44 1030.31 274.8 1035.11 276.4C1039.91 278 1044.47 280.16 1048.79 282.88C1053.11 285.6 1056.63 289.28 1059.35 293.92C1062.07 298.4 1063.43 304.32 1063.43 311.68C1063.43 323.04 1059.11 332.08 1050.47 338.8C1041.99 345.52 1030.47 348.88 1015.91 348.88Z" fill="#F27481"/>
<path d="M315.401 -4.88867H318.86C319.857 26.6913 317.756 140.192 319.263 171.751C319.433 184.485 320.048 197.091 319.836 209.762C333.545 209.762 347.234 209.592 360.943 209.422C367.67 220.946 374.037 232.704 380.403 244.292C370.917 244.61 361.516 246.074 352.093 247.114C349.335 247.22 349.313 250.637 348.061 252.462C343.817 260.166 336.389 267.064 327.2 267.637C320.727 268.295 314.722 265.324 309.119 262.501C303.783 259.374 299.436 254.806 296.577 249.321C291.831 248.791 287.041 248.791 282.295 249.321C274.655 249.618 267.036 249.958 259.396 250.192C259.12 249.703 258.569 248.663 258.314 248.175C256.637 248.175 253.921 247.942 254.77 245.544C259.99 233.043 268.691 222.453 274.952 210.504C288.682 210.037 302.434 210.313 316.165 209.953C316.356 197.219 315.74 184.485 315.549 171.751C314 140.107 316.228 26.6488 315.401 -4.88867ZM327.561 215.004C313.109 215.301 298.678 215.831 284.247 216.213C282.655 216.319 279.536 216.213 279.748 218.548C279.408 220.479 281.87 220.989 283.334 220.67C306.763 220.076 330.185 219.369 353.6 218.548C356.38 218.887 356.805 214.431 354.088 214.091C345.26 214.579 336.389 214.579 327.561 215.004Z" fill="#DCE7FA"/>
<path d="M245.756 125.442C249.215 122.132 253.46 118.906 258.489 118.863C260.676 119.092 262.702 120.115 264.185 121.738C265.667 123.362 266.503 125.473 266.532 127.671C267.127 135.269 264.41 142.676 261.227 149.425C254.715 161.942 245.631 172.942 234.572 181.705C242.175 177.878 250.173 174.896 258.426 172.812C266.914 170.584 275.934 168.186 284.783 170.053C288.688 170.817 292.529 174.022 292.211 178.33C291.426 185.334 285.844 190.64 280.369 194.502C265.514 204.668 245.035 203.437 229.84 194.502C233.051 202.053 234.642 210.195 234.509 218.4C234.574 220.507 234.087 222.595 233.097 224.456C232.107 226.317 230.647 227.888 228.863 229.011C225.397 230.841 221.513 231.737 217.595 231.61C213.676 231.484 209.859 230.339 206.517 228.289C203.418 226.316 200.384 223.323 200.15 219.418C200.399 214.628 202.093 210.025 205.01 206.217C209.086 200.246 213.947 194.849 219.462 190.173C209.997 183.7 200.002 177.439 193.02 168.165C187.736 160.949 182.939 152.926 181.496 143.97C181.072 140.659 180.711 136.33 183.809 134.101C186.908 131.873 190.685 133.444 193.55 135.099C200.004 139.379 205.669 144.742 210.294 150.953C216.228 158.647 220.886 167.246 224.089 176.42C225.313 167.01 227.504 157.75 230.625 148.788C233.905 139.995 239.069 132.027 245.756 125.442ZM248.939 127.565C242.384 133.822 237.308 141.464 234.084 149.934C230.47 160.593 228.127 171.642 227.102 182.851C230.689 179.498 234.657 176.611 238.222 173.258C246.306 165.831 252.978 157.001 257.916 147.196C260.97 141.468 262.614 135.095 262.712 128.605C262.712 126.058 261.354 122.938 258.468 122.62C254.754 122.747 251.635 125.442 248.939 127.735V127.565ZM185.932 137.2C183.979 140.532 185.613 144.671 186.42 148.151C191.09 161.02 199.659 172.111 210.931 179.88C214.984 182.575 218.698 185.886 223.303 187.669C219.378 169.019 209.148 152.29 194.336 140.299C191.916 138.643 188.945 136.181 185.932 137.37V137.2ZM267.933 174.447C258.957 176.266 250.184 178.974 241.745 182.533C237.014 184.934 232.113 186.984 227.081 188.666C232.846 192.553 239.255 195.384 246.011 197.028C254.5 198.365 263.434 198.641 271.477 195.012C278.332 192.104 285.144 187.329 288.009 180.156C288.285 179.511 288.406 178.811 288.363 178.111C288.32 177.411 288.114 176.731 287.761 176.124C287.409 175.518 286.919 175.003 286.332 174.619C285.745 174.236 285.077 173.995 284.38 173.916C278.928 172.844 273.304 173.025 267.933 174.447ZM223.367 191.934C218.515 195.781 214.16 200.215 210.4 205.135C207.387 209.125 204.416 213.497 203.758 218.548C203.546 221.35 205.88 223.493 208.002 224.915C210.822 226.762 214.094 227.799 217.463 227.911C220.832 228.024 224.166 227.207 227.102 225.552C230.625 223.217 230.689 218.484 230.519 214.707C229.943 206.623 227.68 198.75 223.876 191.595L223.367 191.934Z" fill="#DCE7FA"/>
<path d="M986.052 -1.93592C985.904 -2.99707 986.477 -4.92838 987.92 -4.52514C989.83 -4.80104 989.575 -2.40282 990.042 -1.23555C1042.04 -2.36038 1094.03 -3.01828 1146.04 -4.07944C1161.96 -4.07944 1177.88 -4.82227 1193.81 -4.73738C1196.55 -4.73738 1195.53 -0.365401 1192.99 -1.12943C1125.29 0.186399 1057.55 1.09897 989.829 2.56336C989.829 8.93029 990.127 15.2972 990.105 21.6641C1015.57 21.7703 1041.04 21.5156 1066.5 21.3883C1090.72 20.9638 1114.93 21.3882 1139.15 20.9638C1154.45 20.9638 1169.75 20.5818 1185.05 20.6879C1186.96 20.8577 1189.46 20.0936 1190.76 21.9613C1191.08 23.1922 1190.38 24.5929 1188.95 24.3595C1142.41 24.8052 1095.85 24.9325 1049.29 25.1872C1029.62 25.6541 1009.91 25.1872 990.211 25.5055C990.912 113.221 992.206 200.936 993.119 288.672C992.97 300.939 993.119 313.184 994.032 325.43L993.607 326.958H993.098C991.887 325.697 990.865 324.267 990.063 322.714C989.341 310.701 989.745 298.647 989.363 286.634C988.358 199.549 987.361 112.478 986.37 25.4206C951.227 25.7814 916.083 25.6753 880.94 26.0361C878.818 25.8663 875.316 26.7365 875.656 23.5742C877.375 21.2821 880.749 23.0861 882.829 21.1972C891.678 23.1285 900.74 21.749 909.717 22.0037C935.183 22.1523 960.756 21.749 986.264 21.7278C986.328 14.0663 985.882 6.10763 986.052 -1.93592Z" fill="#DCE7FA"/>
<path d="M1191.08 3.83785C1191.08 2.62814 1191.08 0.378477 1192.82 0.442146C1195.29 0.251138 1194.63 3.30728 1194.95 4.83534C1195.07 19.925 1194.95 35.0146 1195.26 50.1042C1204.74 37.7187 1215.87 26.693 1228.35 17.3357C1233.99 13.4307 1240.34 9.78032 1247.45 9.61053C1249.54 9.45796 1251.64 9.96001 1253.43 11.0473C1255.23 12.1346 1256.65 13.7535 1257.49 15.6803C1259.61 21.262 1257.78 27.3743 1255.49 32.6588C1248.72 47.6211 1236.73 59.1876 1225.36 70.6693C1219.04 76.923 1212.29 82.7242 1205.15 88.0298C1222.27 80.7868 1240.17 75.5865 1258.51 72.537C1266.87 71.4121 1275.61 70.7118 1283.8 73.2374C1286.29 73.8362 1288.59 75.0581 1290.47 76.7882C1292.36 78.5183 1293.77 80.6997 1294.58 83.1273C1296 87.6902 1293.63 92.4017 1290.59 95.7338C1284.42 102.568 1275.86 106.642 1267.4 109.868C1244.61 117.954 1220.01 119.928 1196.01 118.358C1195.88 142.361 1196.6 166.385 1196.52 190.389C1197.2 251.066 1197.6 311.742 1198.19 372.419C1226.1 371.464 1254.03 370.785 1281.93 369.915C1283.38 369.915 1285.01 369.469 1286.31 370.403C1286.49 370.661 1286.61 370.955 1286.66 371.265C1286.71 371.575 1286.7 371.893 1286.61 372.195C1286.52 372.498 1286.37 372.778 1286.17 373.015C1285.96 373.252 1285.7 373.44 1285.41 373.565C1256.4 374.457 1227.25 375.221 1198.19 376.154C1198.19 382.118 1198.72 388.082 1198.32 394.045C1198.32 396.168 1194.59 396.359 1194.82 394.045C1194.54 388.082 1194.52 382.118 1194.46 376.154C1192.01 376.415 1189.53 376.17 1187.18 375.433C1157.87 375.963 1128.54 376.303 1099.24 377.067C1098.25 384.266 1099.52 391.594 1102.89 398.035C1106.83 405.463 1111.59 412.403 1115.34 419.938C1120.46 429.764 1126.21 440.057 1125.95 451.475C1125.95 460.198 1120.73 467.711 1119.59 476.221C1118.21 483.416 1120.82 490.526 1123.43 497.105C1127.27 507.101 1132.53 516.588 1134.85 527.114C1137.73 540.081 1139.09 554.28 1133.04 566.61C1127.69 555.765 1122.64 544.793 1117.23 533.99C1115.56 530.95 1113.65 528.047 1111.52 525.31C1108.98 521.639 1107.15 517.543 1104.92 513.68C1097.98 504.045 1087.95 497.02 1077.44 491.82C1077.15 483.823 1078.6 475.858 1081.68 468.475C1091.02 468.475 1099.55 463.763 1108.72 462.447C1109.3 462.447 1109.86 462.217 1110.27 461.807C1110.68 461.397 1110.91 460.841 1110.91 460.261C1110.91 459.682 1110.68 459.126 1110.27 458.716C1109.86 458.306 1109.3 458.075 1108.72 458.075C1100.11 459.052 1092.19 462.999 1083.68 464.442C1089.07 456.187 1095.69 448.122 1097.16 438.062C1099.17 429.403 1096.07 420.829 1095.37 412.234C1094.93 410.727 1095.37 408.222 1093.25 407.798C1092.89 407.652 1092.5 407.608 1092.12 407.67C1091.73 407.732 1091.37 407.898 1091.08 408.15C1090.78 408.401 1090.56 408.729 1090.44 409.097C1090.32 409.466 1090.3 409.86 1090.39 410.239C1091.02 416.33 1092.21 422.357 1093.04 428.427C1094.04 437.85 1090.19 446.976 1084.78 454.489C1080.09 460.481 1076.6 467.319 1074.49 474.629C1069.17 467.92 1064.22 460.935 1059.64 453.704C1058.38 452.048 1059.51 448.737 1056.92 448.377C1054.8 448.716 1052.48 451.093 1054.05 453.237C1059.88 462.528 1066.33 471.412 1073.37 479.829C1072.96 483.098 1072.67 486.387 1072.56 489.698C1061.95 485.453 1051.13 481.569 1040.73 476.964C1036.33 475.118 1031.92 473.314 1027.46 471.637C1029.03 461.026 1030.94 450.011 1037.5 441.267C1042.29 435.043 1048.57 430.135 1055.77 427.005C1064.21 422.882 1070.72 415.647 1073.94 406.822C1077.4 397.356 1075.23 387.212 1075.23 377.428C1055.14 377.428 1035.04 378.064 1014.96 378.404C1013.8 378.277 1011.53 378.574 1011.61 376.812C1010.91 374.69 1013.73 374.563 1015.03 374.69C1035.25 374.287 1055.35 373.883 1075.7 373.629C1077.57 364.694 1083.23 357.202 1089.26 350.602C1092.03 347.456 1095.41 344.907 1099.19 343.11C1100.51 342.663 1101.96 342.748 1103.22 343.346C1104.48 343.944 1105.45 345.009 1105.94 346.315C1107.24 349.243 1105.94 352.448 1105.24 355.335C1103.15 361.196 1101.37 367.169 1099.94 373.226C1131.39 372.462 1162.86 372.101 1194.33 371.485C1193.67 286.89 1192.72 202.295 1192.21 117.7C1187.54 116.745 1182.96 115.577 1178.37 114.177C1183.42 121.499 1186.86 130.582 1185.08 139.538C1184.31 142.403 1182.76 145.735 1179.6 146.457C1176.89 146.988 1174.64 144.971 1173.07 143.061C1168.27 137.225 1166.7 129.563 1165.85 122.263C1162.1 128.217 1157.78 133.79 1152.95 138.902C1147.29 145.363 1140.62 150.855 1133.19 155.158C1126.17 159.021 1115.87 157.026 1112.16 149.534C1109.12 144.144 1110.95 137.543 1114.28 132.768C1119.4 125.268 1126.75 119.567 1135.29 116.469C1143.39 113.285 1151.68 110.627 1160.12 108.51C1153.16 106.114 1146.76 102.339 1141.3 97.4104C1130.69 87.1384 1121.05 74.9352 1117.15 60.3974C1115.89 55.4736 1115.49 49.7858 1118.67 45.4139C1120.03 43.9177 1121.84 42.9023 1123.83 42.5198C1125.81 42.1372 1127.87 42.4079 1129.69 43.2916C1139.4 47.0288 1147.6 53.8614 1153.03 62.7319C1159.95 73.2021 1165.27 84.6475 1168.8 96.6888C1174.34 81.8024 1181.95 67.7704 1191.4 55.0067C1191.81 43.9919 1190.83 32.9559 1191.4 21.9411C1191.08 15.9562 1191.19 9.88643 1191.08 3.83785ZM1228.29 22.0473C1215.77 31.9553 1204.65 43.5138 1195.24 56.4074C1195.77 67.592 1195.24 78.819 1195.58 90.0036C1205.24 83.5119 1214.27 76.137 1222.56 67.974C1233.48 56.9168 1245.09 45.8171 1251.76 31.4915C1253.65 27.1196 1255.6 22.0473 1253.88 17.2721C1253.23 15.8649 1252.12 14.7191 1250.74 14.0214C1249.36 13.3238 1247.78 13.1156 1246.26 13.4307C1239.45 14.1947 1233.53 18.0998 1228.18 22.0473H1228.29ZM1121.26 48.1729C1119.14 51.8657 1119.86 56.3862 1120.95 60.3125C1124.87 73.8528 1133.93 85.1859 1143.95 94.7999C1150.32 100.742 1158.34 104.032 1166.36 106.833C1165.3 92.2744 1158.25 79.0949 1150.97 66.7855C1145.87 57.5783 1137.68 50.4735 1127.84 46.7297C1126.75 46.1755 1125.49 46.0165 1124.3 46.2795C1123.1 46.5424 1122.03 47.2113 1121.26 48.1729ZM1170.43 103.714C1177.33 99.6601 1184.65 96.4554 1191.66 92.5503C1191.66 82.1722 1191.66 71.7942 1191.66 61.4161C1182.59 74.4683 1174.57 88.3694 1170.43 103.714ZM1254.75 76.8877C1234.24 80.795 1214.34 87.3735 1195.54 96.4553C1195.69 102.461 1195.39 108.489 1195.84 114.474C1218.18 116.403 1240.69 114.055 1262.16 107.555C1270.84 104.626 1279.62 100.891 1286.33 94.4604C1289.04 91.7014 1292.06 87.86 1290.57 83.7427C1289.15 79.3071 1284.46 77.1636 1280.26 76.1873C1271.9 74.4683 1263.24 75.4658 1254.75 76.8877ZM1172.83 107.194C1178.24 111.439 1185.57 112.012 1191.93 113.816C1191.93 108.595 1191.81 103.395 1191.78 98.1745C1185.47 101.146 1179.16 104.152 1172.85 107.194H1172.83ZM1143.99 117.254C1136.29 119.907 1128.44 122.963 1122.47 128.693C1118.63 132.088 1115.84 136.504 1114.41 141.427C1114.18 142.753 1114.22 144.112 1114.52 145.423C1114.83 146.733 1115.39 147.97 1116.19 149.058C1116.98 150.147 1117.98 151.065 1119.13 151.759C1120.28 152.454 1121.57 152.909 1122.9 153.1C1129.26 154.394 1134.51 150.001 1139.22 146.499C1147.6 139.532 1154.98 131.432 1161.14 122.432C1163.26 118.931 1166.38 115.556 1165.85 111.163C1158.44 112.672 1151.14 114.707 1144.01 117.254H1143.99ZM1169.25 116.66C1168.92 123.949 1170.48 131.2 1173.77 137.713C1174.84 139.792 1176.43 141.555 1178.39 142.828C1180.73 141.936 1181.24 138.944 1181.55 136.758C1182.36 127.42 1177.31 118.867 1171.64 111.927C1170.73 113.441 1169.94 115.023 1169.27 116.66H1169.25Z" fill="#DCE7FA"/>
<path d="M769.334 432.547C768.846 403.153 768.909 373.738 768.676 344.344L764.898 343.219C765.068 359.603 765.174 375.987 765.132 392.371C765.323 411.875 765.599 431.379 765.62 450.905C766.851 451.053 768.103 451.287 769.355 451.52C769.313 445.196 769.334 438.871 769.334 432.547Z" fill="#DCE7FA"/>
<path d="M763.693 154.863C763.693 162.716 763.693 170.547 763.693 178.378H767.47C767.47 170.611 767.47 162.864 767.47 155.033C767.131 153.696 767.088 151.383 765.348 151.107C757.05 150.81 748.774 151.595 740.476 151.574C714.882 152.253 689.289 153.038 663.695 153.59C661.276 142.705 655.143 133.002 646.35 126.146C637.557 119.29 626.651 115.71 615.506 116.018C604.36 116.327 593.67 120.506 585.269 127.838C576.869 135.17 571.283 145.198 569.47 156.2C561.703 156.391 553.914 156.455 546.126 156.922C544.449 156.922 544.195 159.044 545.171 160.169C546.479 160.584 547.861 160.714 549.224 160.551C555.803 160.233 562.403 159.999 569.024 160.042C568.492 166.754 569.378 173.503 571.626 179.851C573.875 186.198 577.434 192 582.073 196.881C586.712 201.762 592.326 205.611 598.551 208.178C604.776 210.745 611.471 211.972 618.202 211.78C624.932 211.589 631.547 209.982 637.615 207.064C643.683 204.147 649.07 199.985 653.423 194.848C657.777 189.711 661 183.715 662.883 177.25C664.766 170.785 665.267 163.996 664.353 157.325C697.438 156.688 730.565 155.521 763.693 154.863ZM594.49 125.851C600.452 122.378 607.144 120.347 614.03 119.92C620.917 119.494 627.808 120.684 634.153 123.396C640.497 126.108 646.12 130.266 650.572 135.538C655.023 140.81 658.18 147.05 659.79 153.76C630.95 154.566 602.088 155.288 573.247 156.115C574.416 149.844 576.918 143.897 580.583 138.676C584.247 133.455 588.99 129.082 594.49 125.851ZM653.042 189.202C647.469 197.207 639.405 203.143 630.106 206.085C620.807 209.027 610.796 208.81 601.634 205.466C592.472 202.123 584.673 195.842 579.454 187.602C574.235 179.362 571.888 169.627 572.781 159.914C602.024 159.079 631.275 158.287 660.533 157.537C662.097 168.658 659.423 179.961 653.042 189.202Z" fill="#DCE7FA"/>
<path d="M539.715 155.882C541.009 155.288 543.216 155.012 543.344 156.965C543.153 183.791 543.153 210.638 542.771 237.485C542.771 273.161 542.113 308.837 542.219 344.534C541.865 369.337 541.688 394.175 541.688 419.048C541.221 444.516 541.2 469.835 541.158 495.239C593.236 494.751 645.315 494.093 697.393 493.563C699.622 493.074 700.492 496.746 698.263 497.128C673.752 497.892 649.198 497.553 624.687 498.21C604.59 498.041 584.493 498.847 564.396 498.699C556.586 498.975 548.776 498.699 541.052 499.166C541.052 519.964 540.648 540.784 540.797 561.583C540.479 584.164 540.266 606.724 540.309 629.305H538.017L536.574 627.99C536.447 602.989 536.892 578.009 537.062 553.008C536.935 535.054 537.274 517.099 537.317 499.144C520.53 498.974 503.765 499.632 486.978 499.611C484.495 500.205 483.689 496.3 486.129 495.961C503.213 495.727 520.297 495.303 537.38 495.388C537.974 399.53 538.604 303.673 539.269 207.815C539.778 190.497 539.036 173.137 539.715 155.882Z" fill="#DCE7FA"/>
<path d="M227.007 241.682C229.125 241.447 231.266 241.49 233.373 241.81C233.704 242.092 233.932 242.476 234.02 242.902C234.108 243.328 234.051 243.771 233.859 244.161C233.666 244.551 233.349 244.866 232.957 245.055C232.565 245.244 232.122 245.297 231.697 245.205C155.142 247.71 78.5879 250.15 2.03346 252.527C-0.958827 253.058 -0.725391 248.283 2.16078 248.813C77.1448 246.422 152.093 244.045 227.007 241.682Z" fill="#DCE7FA"/>
<path d="M766.007 391.032C767.025 386.108 768.129 381.184 769.339 376.303C770.039 412.382 769.657 448.461 770.272 484.392C768.893 481.357 767.535 478.301 766.325 475.181C766.325 457.375 765.964 439.569 766.092 421.763C766.24 411.512 765.54 401.304 766.007 391.032Z" fill="#DCE7FA"/>
<path d="M938.282 399.669C943.651 398.947 949.084 398.671 954.431 397.674C952.309 401.621 951.758 407.627 946.813 409.134C944.181 410.132 940.446 410.832 938.579 408.158C938.066 405.358 937.966 402.498 938.282 399.669Z" fill="#DCE7FA"/>
<path d="M97.0923 402.937C99.1084 400.39 102.037 397.928 105.581 398.692C108.828 398.883 111.184 401.26 113.964 402.597C141.043 402.449 168.143 402.406 195.265 402.173C195.265 403.404 195.35 404.635 195.519 405.866C169.459 406.269 143.398 406.078 117.359 406.375C129.625 420.276 136.31 437.934 141.701 455.4C144.396 465.014 146.391 474.819 148.258 484.603C150.508 496 150.593 507.652 150.911 519.218C151.208 545.238 147.876 571.151 143.505 596.767C141.43 610.389 137.71 623.708 132.427 636.433H137.202C144.745 628.521 153.97 622.406 164.196 618.542C169.023 627.502 175.555 635.433 183.423 641.888C182.298 646.132 179.412 649.846 178.393 654.218C177.778 656.616 177.247 659.036 176.653 661.434C172.585 659.936 168.244 659.321 163.92 659.63C162.436 659.834 161.072 660.554 160.067 661.664C159.061 662.774 158.48 664.203 158.424 665.7C158.405 667.229 158.937 668.714 159.923 669.883C160.909 671.052 162.282 671.827 163.793 672.067C166.797 672.304 169.817 672.254 172.812 671.918C169.925 677.018 165.893 681.377 161.034 684.652C147.303 684.652 133.594 684.97 119.885 684.928C117.535 682.463 115.359 679.839 113.37 677.075C131.62 677.733 147.176 665.764 159.357 653.454C159.73 652.864 159.89 652.164 159.813 651.47C159.735 650.777 159.424 650.13 158.931 649.636C158.437 649.143 157.79 648.831 157.097 648.754C156.403 648.676 155.703 648.837 155.113 649.21C153.064 652.234 150.756 655.074 148.216 657.699C138.227 667.048 125.251 672.559 111.587 673.255C107.401 664.193 104.652 654.534 103.438 644.625C101.782 632.571 102.928 620.389 101.995 608.291C101.358 599.802 101.485 591.101 100.085 582.611C97.3673 566.926 90.2083 552.35 79.457 540.611C71.6897 532.737 63.201 525.203 52.7386 521.149C55.3065 525.394 59.9965 527.516 63.6042 530.679C71.0531 537.215 79.075 543.412 84.2319 552.135C89.9406 560.9 92.7206 571.087 95.246 581.105C96.8653 589.758 97.5766 598.557 97.3682 607.358C97.3682 624.761 94.1001 642.758 99.7663 659.651C102.886 668.586 106.133 677.946 112.712 684.949C93.6119 685.331 74.5122 684.949 55.4125 685.268C48.9633 681.326 42.9519 676.708 37.4801 671.494C32.3321 666.872 28.2484 661.188 25.5109 654.834C25.281 654.486 25.1341 654.091 25.0814 653.678C25.0288 653.265 25.0718 652.845 25.2071 652.451C25.3425 652.057 25.5666 651.7 25.8622 651.406C26.1577 651.113 26.5167 650.891 26.9115 650.759C33.4903 651.204 40.0903 651.65 46.6691 652.414C48.4093 656.531 49.9585 660.776 51.5289 664.978C52.8235 668.119 58.4685 666.315 57.0254 662.856C55.0831 659.7 53.4283 656.376 52.0807 652.924C62.8152 653.711 73.2913 656.595 82.9161 661.413C78.0563 654.685 73.3875 647.809 69.1643 640.678C59.0627 640.932 48.9611 640.678 38.8595 640.996C38.5836 642.27 36.9495 644.116 35.6974 642.63C34.4878 641.888 35.082 640.19 34.8698 639.065C34.9759 619.306 34.6788 599.547 34.4029 579.81C34.5302 559.966 34.1058 540.123 33.936 520.279C30.307 516.502 26.1476 513.276 22.4338 509.562C22.1403 509.25 21.9274 508.871 21.8135 508.458C21.6996 508.045 21.6882 507.611 21.7802 507.193C21.8722 506.775 22.0649 506.385 22.3415 506.058C22.6181 505.731 22.9703 505.477 23.3675 505.317C26.6994 503.98 30.4132 504.341 33.9785 504.129C33.5116 471.891 33.5752 439.632 33.0659 407.394C33.6389 404.72 37.3103 404.465 39.4324 403.383C58.6807 403.085 77.8865 402.81 97.0923 402.937ZM103.671 401.982C101.167 403.17 105.008 405.038 106.048 403.383C106.642 402.088 104.52 401.6 103.671 401.982ZM41.2363 406.99C40.6695 407.499 39.9808 407.852 39.2371 408.016C38.4933 408.18 37.7199 408.148 36.9919 407.924C37.2466 440.014 37.4164 472.103 37.7984 504.213C48.0928 504.56 58.2873 506.353 68.082 509.54C75.6009 512.395 82.6973 516.257 89.1766 521.022C104.363 530.921 116.049 545.348 122.58 562.259C127.322 575.826 130.018 590.025 130.58 604.386C124.829 609.331 120.373 615.507 115.492 621.259C115.067 621.716 114.744 622.258 114.545 622.849C114.345 623.441 114.273 624.068 114.333 624.689C114.394 625.31 114.585 625.911 114.894 626.453C115.204 626.995 115.625 627.465 116.13 627.832C116.634 628.199 117.211 628.455 117.822 628.583C118.433 628.711 119.064 628.708 119.673 628.574C120.283 628.44 120.857 628.179 121.358 627.807C121.859 627.435 122.275 626.961 122.58 626.416C125.233 622.511 127.97 618.648 131.069 614.998C131.451 620.792 130.559 626.543 130.729 632.337C133.523 624.092 135.819 615.687 137.605 607.167C136.141 578.218 135.483 548.464 124.744 521.086C117.232 499.735 109.38 478.512 101.698 457.247C96.7316 440.969 92.3174 423.672 95.6704 406.608C77.5187 406.665 59.374 406.792 41.2363 406.99ZM99.7238 406.651C95.7978 422.717 100.424 439.25 104.86 454.721C111.672 474.013 118.93 493.156 125.699 512.469C128.246 519.834 131.26 527.092 133.127 534.669C136.523 546.851 137.902 559.436 139.494 571.936C138.878 561.452 138.984 550.904 138.008 540.441C135.886 518.497 132.83 496.531 126.485 475.392C123.539 464.642 119.996 454.063 115.874 443.706C114.622 440.544 113.072 437.488 112.075 434.241C111.396 432.119 113.943 431.652 115.152 430.845C116.765 431.758 116.68 433.328 116.341 434.92C118.611 440.587 121.2 446.147 123.153 451.899C128.997 468.639 133.642 485.774 137.053 503.173C140.321 523.42 142.995 543.858 142.741 564.402C142.847 567.968 142.253 571.639 143.208 575.141C145.79 556.69 147.095 538.083 147.112 519.452C146.794 507.885 146.709 496.212 144.375 484.816C141.892 472.294 139.494 459.666 135.079 447.654C129.986 432.798 123.407 417.942 112.117 406.799C107.979 406.63 103.841 406.651 99.7238 406.651ZM37.862 523.866C38.2653 549.44 38.2653 575.014 38.5199 600.587C38.8807 612.706 38.6897 624.845 38.7534 636.985C48.2608 636.985 57.8531 636.985 67.2968 636.73C61.0133 624.807 56.7126 611.94 54.5637 598.635C52.8235 586.559 56.1341 574.61 56.6858 562.556C59.4659 565.994 61.5669 570.345 65.4505 572.658C69.3341 574.971 73.7483 569.517 71.3714 565.803C66.0647 558.491 59.8459 551.887 52.8659 546.15C48.4942 538.34 44.2923 530.233 37.862 523.866ZM140.3 591.971C140.725 590.051 141.044 588.11 141.255 586.156C139.812 587.726 140.597 590.04 140.3 591.971ZM129.689 640.253C129.413 642.546 129.137 644.838 128.819 647.151C130.341 644.717 132.029 642.391 133.87 640.19L129.689 640.253ZM67.2331 671.239C66.3418 674.253 70.0981 675.632 72.0081 677.139C77.0573 679.842 82.6014 681.495 88.3064 681.999C88.7654 681.989 89.2147 681.865 89.6135 681.638C90.0124 681.41 90.3482 681.087 90.5905 680.697C90.8329 680.307 90.9742 679.863 91.0015 679.405C91.0288 678.947 90.9413 678.489 90.747 678.073C89.3039 676.057 86.5026 676.799 84.3804 676.375C79.8304 675.786 75.4317 674.346 71.4138 672.13C70.2254 671.494 68.6763 670.135 67.2756 671.239H67.2331Z" fill="#DCE7FA"/>
<path d="M818.485 403.426C835.967 400.936 853.781 402.283 870.691 407.373C878.118 409.899 885.97 413.294 890.597 419.98C892.007 422.104 892.655 424.644 892.435 427.184C892.216 429.724 891.141 432.115 889.387 433.966C883.402 440.502 874.532 443.219 866.043 445.129C849.786 448.32 833.056 448.241 816.829 444.895C807.81 442.773 798.6 440.014 791.363 434.072C787.798 431.1 784.805 426.601 785.676 421.762C786.546 416.923 790.472 413.485 794.44 411.151C801.762 406.588 810.187 404.763 818.485 403.426ZM818.485 407.288C813.618 407.941 808.832 409.093 804.202 410.726C798.791 412.742 792.764 415.353 790.047 420.786C788.265 424.755 790.96 428.893 794.037 431.398C802.207 437.764 812.649 440.375 822.708 442.221C839.197 444.747 856.408 444.577 872.452 439.632C878.224 437.51 884.591 435.112 887.901 429.636C888.647 428.032 888.843 426.228 888.459 424.501C888.076 422.775 887.134 421.223 885.779 420.086C881.259 415.523 875.168 412.997 869.141 410.96C852.717 405.99 835.396 404.714 818.421 407.224L818.485 407.288Z" fill="#DCE7FA"/>
<path d="M424.758 418.07C426.626 417.306 428.175 418.961 429.745 419.704C432.907 421.826 436.791 421.678 440.356 422.612C440.993 424.734 438.043 425.243 436.706 426.007C433.353 427.047 429.639 429.658 426.095 428.13C424.336 425.085 423.855 421.468 424.758 418.07Z" fill="#DCE7FA"/>
<path d="M718.747 537.703V537.406C718.747 541.969 716.413 546.235 717.092 550.819C717.049 553.75 716.555 556.656 715.628 559.436C706.488 596.223 697.349 633.009 688.209 669.796L687.466 669.647C684.682 669.029 681.828 668.779 678.978 668.905C654.785 668.905 630.634 669.308 606.462 669.159C566.65 669.711 526.859 669.562 487.047 669.902C496.738 626.904 506.437 583.913 516.142 540.929C583.288 540.929 650.441 540.929 717.601 540.929C718.026 539.911 718.387 538.807 718.747 537.703Z" fill="#DCE7FA"/>
<path d="M613.252 618.055C621.175 618.055 627.598 611.632 627.598 603.708C627.598 595.785 621.175 589.361 613.252 589.361C605.329 589.361 598.906 595.785 598.906 603.708C598.906 611.632 605.329 618.055 613.252 618.055Z" fill="#BCCEE5"/>
<path d="M767.32 620.475C768.581 621.454 769.891 622.368 771.246 623.212C771.246 642.462 771.246 661.711 771.48 680.96H767.724C767.363 660.798 767.702 640.637 767.32 620.475Z" fill="#DCE7FA"/>
<path d="M286.705 649.464C288.021 648.339 290.079 650.483 289.039 651.82C287.851 652.477 286.09 650.631 286.705 649.464Z" fill="#DCE7FA"/>
<path d="M26.147 740.683C23.664 741.256 23.0698 738.751 23.8974 736.99C304.224 736.749 584.537 736.806 864.836 737.16C1009.53 737.16 1154.22 737.16 1298.91 737.16C1299.2 737.058 1299.52 737.029 1299.82 737.074C1300.13 737.118 1300.42 737.236 1300.68 737.417C1300.93 737.597 1301.14 737.836 1301.28 738.112C1301.42 738.389 1301.5 738.695 1301.5 739.006C1301.5 739.317 1301.42 739.623 1301.28 739.9C1301.14 740.176 1300.93 740.415 1300.68 740.595C1300.42 740.776 1300.13 740.894 1299.82 740.938C1299.52 740.983 1299.2 740.953 1298.91 740.852H718.49C632.074 740.852 545.659 741.043 459.264 740.661C314.899 740.704 170.527 740.711 26.147 740.683Z" fill="#DCE7FA"/>
<path d="M1256.58 602.053H1201.28C1197.23 602.053 1193.94 605.34 1193.94 609.396V610.648C1193.94 614.704 1197.23 617.991 1201.28 617.991H1256.58C1260.64 617.991 1263.93 614.704 1263.93 610.648V609.396C1263.93 605.34 1260.64 602.053 1256.58 602.053Z" fill="#EA4B62"/>
<path d="M411.343 375.708C418.282 371.018 427.132 370.572 435.196 371.633C438.21 372.164 441.563 372.631 443.876 374.986C446.635 378 448.375 381.905 451.728 384.367C454.225 386.066 457.018 387.282 459.962 387.954C461.232 399.464 461.409 411.068 460.493 422.611C458.418 431.27 454.015 439.196 447.76 445.532C444.131 449.501 438.295 448.079 434.008 446.147C425.255 441.932 417.04 436.681 409.539 430.506C414.539 442.709 422.044 453.728 431.567 462.85C434.614 465.958 438.384 468.262 442.539 469.556C442.539 470.894 442.369 472.252 442.284 473.589C442.009 477.027 441.648 480.465 441.393 483.882C441.287 485.431 441.223 487.002 441.138 488.551C440.82 491.437 441.138 494.812 439.016 497.04C436.296 499.81 433.397 502.398 430.337 504.787C427.068 506.197 423.52 506.836 419.965 506.656C416.411 506.475 412.945 505.48 409.836 503.747C401.347 498.929 393.177 492.668 388.614 483.861C386.492 479.85 383.903 475.647 384.837 470.936C385.007 469.705 385.219 468.495 385.431 467.286C386.153 463.168 386.768 459.072 387.362 454.955C387.642 452.59 388.249 450.276 389.166 448.079C393.409 439.562 395.865 430.266 396.381 420.765C396.509 415.798 394.026 411.342 391.734 407.097C389.616 402.99 389.058 398.255 390.163 393.769C390.503 391.816 392.031 389.736 394.259 390.182C397.167 390.84 396.912 395.361 400.053 395.573C401.202 393.983 401.932 392.129 402.175 390.182C402.658 387.279 403.718 384.502 405.293 382.016C406.867 379.53 408.925 377.385 411.343 375.708ZM424.352 383.115C422.23 383.709 417.985 385.364 420.108 388.208C421.869 388.357 423.333 387.147 424.967 386.638C427.938 385.258 431.016 386.871 434.072 386.956C434.315 386.846 434.53 386.683 434.703 386.48C434.876 386.276 435.001 386.037 435.07 385.779C435.139 385.521 435.15 385.251 435.102 384.989C435.054 384.726 434.949 384.478 434.793 384.261C433.223 383.368 431.487 382.805 429.691 382.608C427.895 382.411 426.078 382.584 424.352 383.115ZM445.277 386.893L444.343 388.187C445.489 391.158 449.882 390.5 452.556 390.989C454.678 387.062 447.866 386.213 445.277 386.893ZM438.019 398.799C437.616 403.85 440.65 407.988 443.728 411.533C443.728 415.522 438.613 411.787 436.448 413.315L436.024 415.841C438.95 416.259 441.898 416.507 444.852 416.584C445.491 416.203 446.041 415.69 446.466 415.08C446.891 414.469 447.18 413.775 447.315 413.043C447.449 412.312 447.426 411.56 447.247 410.838C447.067 410.117 446.736 409.442 446.274 408.858C443.494 405.802 440.884 402.067 441.478 397.716C441.287 395.976 442.475 393.705 440.884 392.389C437.701 392.05 438.146 396.655 438.019 398.799ZM427.408 400.242H430.74C430.23 398.12 431.907 393.875 428.618 393.726C426.368 395.042 427.45 398.077 427.429 400.242H427.408ZM444.874 397.886C444.088 400.178 444.003 404.126 447.484 403.404C447.95 401.135 448.163 398.822 448.12 396.507C447.017 396.613 444.81 396.018 444.895 397.886H444.874ZM424.734 418.069C423.849 421.457 424.337 425.057 426.092 428.087C429.594 429.657 433.308 427.047 436.703 425.964C438.04 425.2 440.947 424.733 440.353 422.569C436.809 421.635 432.926 421.741 429.742 419.661C428.172 418.961 426.623 417.305 424.755 418.069H424.734Z" fill="#315D80"/>
<path d="M1200.91 617.99L1207.87 677.839H1250.2L1257.17 617.99H1200.91Z" fill="#EA4B62"/>
<path d="M1229.51 617.99L1204.39 647.915L1200.91 617.99H1229.51Z" fill="#315D80"/>
<path d="M186.305 208.535C185.456 205.712 187.43 200.724 190.91 202.38C195.919 210.551 200.439 219.04 205.15 227.381C206.899 231.345 208.898 235.194 211.135 238.905L211.665 238.799C210.01 232.432 207.421 226.235 205.193 219.952C203.537 215.708 202.179 210.954 203.835 206.603C204.029 206.086 204.345 205.623 204.757 205.254C205.168 204.886 205.662 204.621 206.197 204.484C206.732 204.346 207.293 204.34 207.831 204.465C208.369 204.59 208.869 204.843 209.289 205.202C215.761 221.82 222.51 238.374 228.388 255.246C227.329 258.497 225.45 261.421 222.934 263.736C218.69 267.386 213.087 269.869 210.456 275.09C208.089 280.643 207.641 286.827 209.182 292.663C209.501 294.382 211.305 294.679 212.599 293.766C212.599 288.354 211.114 282.667 213.491 277.531C215.973 271.822 222.361 269.742 226.415 265.412C228.344 263.432 229.833 261.067 230.786 258.472C231.635 256.244 233.566 254.44 233.8 251.978C234.479 246.205 234.118 239.648 238.044 234.894C238.399 234.377 238.874 233.955 239.429 233.663C239.984 233.371 240.601 233.218 241.228 233.218C241.854 233.218 242.471 233.371 243.026 233.663C243.581 233.955 244.056 234.377 244.411 234.894C245.903 238.31 246.516 242.046 246.193 245.76C245.896 254.1 245.111 262.42 244.496 270.739C244.305 277.255 241.058 283.261 241.397 289.84C240.612 298.011 241.397 306.203 240.803 314.374C240.803 316.921 241.015 319.468 240.803 322.014C237.132 324.964 232.314 325.728 227.709 326.259C220.149 326.968 212.532 325.772 205.554 322.778C204.99 321.146 204.529 319.481 204.174 317.791C202.37 311.764 201.161 305.46 198.423 299.751C202.349 301.767 205.766 305.906 210.371 305.864C211.772 303.062 208.249 301.916 206.53 300.664C202.285 298.351 198.614 295.082 194.539 292.429C190.889 289.861 189.298 285.447 187.472 281.563C182.294 269.183 177.449 256.697 172.935 244.104C171.142 239.501 170.076 234.646 169.773 229.715C170.049 226.977 173.593 227.168 175.058 228.803C179.917 234.681 182.931 241.833 187.579 247.903C188.718 249.35 190.219 250.47 191.929 251.15C187.324 240.539 181.191 230.373 177.392 219.316C176.628 217.193 176.437 214.286 178.581 212.949C180.724 211.612 183.716 213.119 185.053 215.071C190.762 224.94 194.943 235.615 201.139 245.208C199.689 239.156 197.342 233.355 194.179 227.996C190.997 221.748 188.363 215.237 186.305 208.535Z" fill="#315D80"/>
<path d="M716.048 328.169C715.39 325.453 716.175 321.442 719.38 320.826C721.078 320.211 721.714 322.121 722.202 323.331C725.301 331.608 728.739 339.8 731.795 348.119C732.977 352.483 734.517 356.742 736.4 360.853C736.4 350.411 730.84 340.521 732.346 330.037C732.644 326.938 736.251 324.01 738.968 326.641C742.957 344.15 747.732 361.532 750.725 379.232C749.114 382.606 746.516 385.412 743.276 387.276C738.692 389.886 733.28 391.733 730.203 396.317C727.181 401.431 725.921 407.396 726.616 413.295C726.425 415.651 728.739 414.951 730.288 414.738C730.161 409.22 730.16 403.278 733.323 398.524C736.485 393.77 742.597 392.56 747.011 389.228C749.429 387.473 751.429 385.204 752.868 382.585C754.353 380.123 756.836 378.107 757.112 375.051C758.471 369.257 759.489 361.681 765.601 359.028C766.832 359.176 768.084 359.41 769.336 359.643C771.267 365.119 770.227 370.891 769.336 376.452C768.148 381.333 767.023 386.257 766.004 391.181C765.01 396.868 763.306 402.408 760.932 407.671C757.664 417.858 757.006 428.639 755.16 439.145C757.07 451.666 761.866 463.53 766.323 475.33C767.532 478.45 768.891 481.506 770.27 484.541C771.431 487.638 772.94 490.593 774.769 493.349C776.318 495.344 778.058 497.19 779.777 499.058C773.156 507.547 763.033 512.195 753.292 516.036C746.347 518.942 738.877 520.387 731.349 520.281C730.153 519.83 729.003 519.268 727.911 518.604C726.964 515.671 726.429 512.622 726.319 509.542C723.327 482.567 720.356 455.593 717.045 428.682C716.679 425.127 715.968 421.615 714.923 418.198C717.501 421.278 720.527 423.954 723.9 426.135C725.025 426.963 726.956 426.347 726.638 424.671C725.586 423.07 724.222 421.699 722.627 420.638C718.797 417.403 715.135 413.975 711.655 410.366C709.714 408.029 708.334 405.277 707.623 402.323C704.97 393.324 702.996 384.156 700.811 375.03C698.837 365.522 696.015 355.929 696.248 346.209C696.439 342.962 700.811 343.153 702.042 345.572C705.84 351.939 707.899 359.325 711.507 365.883C712.37 367.504 713.752 368.79 715.433 369.533C712.228 358.285 707.602 347.44 705.458 335.916C705.182 333.963 705.225 331.374 707.22 330.292C709.809 328.551 712.801 331.098 713.841 333.454C717.767 343.662 720.717 354.21 724.813 364.376L725.492 364.142C724.499 357.982 722.841 351.948 720.547 346.145C718.587 340.278 717.083 334.268 716.048 328.169Z" fill="#315D80"/>
<path d="M924.26 357.838C925.156 355.26 926.807 353.011 928.998 351.383C931.189 349.756 933.82 348.825 936.547 348.712C940.94 348.139 944.59 351.493 948.919 351.408C952.188 351.302 955.413 350.75 958.681 350.453C959 355.886 958.681 362.38 963.329 366.158C966.343 369.087 970.735 368.62 974.577 369.32C976.211 372.079 976.38 377.024 980.561 377.109C983.808 376.472 985.697 373.246 988.201 371.315C991.215 373.14 994.568 375.284 995.374 379.04C996.011 382.16 995.905 386.405 992.594 388.018C990.472 389.418 987.161 389.588 986.482 392.262C985.803 396.019 984.487 400.751 987.692 403.701C987.805 416.775 987.741 429.848 987.501 442.922C984.593 446.19 983.511 450.541 981.474 454.318C977.548 461.747 973.77 469.917 966.364 474.544C957.557 479.829 946.012 478.47 937.417 473.419C932.578 470.427 931.242 464.506 929.862 459.412C929.862 454.785 930.393 450.18 930.838 445.575C936.717 445.065 941.746 441.776 946.245 438.189C955.695 431.136 963.748 422.384 969.993 412.382C962.195 416.768 954.002 420.413 945.524 423.269C941.11 424.564 936.207 425.625 931.878 423.503C928.478 421.168 926.083 417.636 925.172 413.613C922.604 408.011 921.059 401.995 920.609 395.849L921.161 394.958C923.114 391.817 923.071 387.933 923.283 384.346C923.071 375.602 921.267 366.434 924.26 357.838ZM930.138 362.911C928.299 363.357 926.65 364.375 925.427 365.818C924.854 367.049 925.215 368.407 926.764 368.514C928.695 367.665 930.393 366.073 932.621 366.115C934.213 365.797 936.547 366.54 937.099 364.375C935.974 361.574 932.409 362.592 930.053 362.911H930.138ZM947.604 365.797C950.06 365.471 952.556 365.908 954.755 367.049C956.092 368.174 958.745 367.368 957.748 365.309C956.631 364.135 955.238 363.257 953.697 362.757C952.155 362.257 950.513 362.149 948.919 362.444C947.158 362.656 947.349 364.502 947.604 365.797ZM940.664 372.567C939.433 374.965 940.664 378.106 939.497 380.632C938.69 383.497 935.932 385.471 935.443 388.378C936.059 391.541 939.688 392.623 942.362 393.663C942.75 393.848 943.181 393.924 943.609 393.883C944.037 393.842 944.446 393.686 944.792 393.431C945.138 393.176 945.409 392.832 945.575 392.436C945.741 392.039 945.797 391.605 945.736 391.18C943.631 390.125 941.462 389.204 939.242 388.421C942.595 383.794 944.845 377.915 942.935 372.249C942.256 372.312 941.11 372.461 940.664 372.567ZM949.683 372.567C949.683 375.708 948.452 379.359 950.596 382.054C950.908 382.416 951.321 382.677 951.782 382.805C952.243 382.933 952.732 382.921 953.186 382.771C953.64 382.621 954.04 382.34 954.334 381.963C954.629 381.586 954.805 381.13 954.84 380.653C955.901 377.13 954.225 371.082 949.577 372.482L949.683 372.567ZM931.157 373.437C928.928 375.56 930.202 381.12 933.724 380.887C936.25 379.868 936.165 376.324 935.443 374.159C935.334 373.698 935.093 373.28 934.749 372.954C934.406 372.628 933.976 372.409 933.51 372.323C933.044 372.238 932.564 372.29 932.127 372.472C931.691 372.655 931.317 372.961 931.051 373.352L931.157 373.437ZM938.393 399.754C938.077 402.583 938.178 405.443 938.69 408.243C940.579 410.917 944.293 410.217 946.925 409.219C951.869 407.713 952.4 401.706 954.543 397.759C949.153 398.672 943.656 398.947 938.287 399.669L938.393 399.754Z" fill="#315D80"/>
<path d="M877.44 633.844C875.318 632.062 874.448 627.987 877.249 626.437C880.454 625.228 883.998 626.225 887.202 627.095C895.691 629.918 904.052 633.462 912.456 636.837C918.314 638.959 923.067 643.437 928.988 645.326C936.67 648.531 944.841 650.313 952.566 653.391C952.736 656.547 953.162 659.684 953.839 662.771C953.839 664.321 957.001 664.575 956.98 662.771C956.85 659.612 956.517 656.465 955.982 653.348C971.937 652.062 987.734 649.262 1003.16 644.986C1007.53 643.881 1011.62 641.839 1015.13 639.001C1019.61 641.272 1020.94 646.514 1023.21 650.632C1026.98 659.765 1029.2 669.462 1029.79 679.325C1003.46 679.58 977.119 679.877 950.783 679.771C926.251 680.047 901.739 680.302 877.207 680.28C873.55 680.465 869.884 680.308 866.256 679.813C869.503 677.33 873.387 675.866 876.655 673.446C877.589 671.961 876.061 670.008 874.533 670.963C868.932 673.755 863.503 676.881 858.277 680.323C851.592 680.641 844.886 680.323 838.18 680.514C839.771 677.797 841.32 675.059 842.976 672.385C844.631 669.711 847.623 667.568 849.873 665.085C852.78 661.562 857.364 660.352 861.205 658.187C862.182 657.678 863.158 657.19 864.155 656.723C871.031 653.476 877.674 649.783 884.592 646.642C889.048 645.375 893.392 643.743 897.58 641.76C899.256 641.06 898.556 639.129 897.389 638.344C893.771 639.32 890.225 640.547 886.778 642.015C884.083 638.81 880.475 636.646 877.44 633.844Z" fill="#315D80"/>
<path d="M228.348 255.246C229.063 256.375 229.864 257.446 230.746 258.451C229.793 261.046 228.303 263.411 226.374 265.391C222.321 269.635 215.933 271.758 213.45 277.509C211.073 282.645 212.644 288.333 212.559 293.745C211.222 294.657 209.46 294.36 209.142 292.641C207.601 286.805 208.049 280.621 210.415 275.068C213.047 269.848 218.628 267.365 222.894 263.714C225.407 261.405 227.285 258.489 228.348 255.246Z" fill="white"/>
<path d="M194.547 292.322C198.621 294.975 202.25 298.244 206.537 300.557C208.341 301.809 211.779 302.955 210.378 305.757C205.773 305.757 202.357 301.66 198.43 299.644C197.469 297.041 196.163 294.579 194.547 292.322Z" fill="white"/>
<path d="M951.039 316.856C953.445 314.627 956.268 312.895 959.345 311.759C962.422 310.622 965.694 310.104 968.971 310.234C974.574 310.234 979.71 312.76 984.654 315.137C986.119 318.023 988.899 319.891 990.087 323.032C990.889 324.585 991.911 326.015 993.122 327.277C996.751 331.67 1002.74 333.219 1006.56 337.442C1010.38 341.666 1013.47 347.375 1011.2 352.893C1009.95 356.946 1005.35 358.22 1003.31 361.658C1005.88 368.025 1008.95 374.604 1008.25 381.735C1007.96 384.137 1007.19 386.456 1005.99 388.556C1004.78 390.655 1003.17 392.493 1001.25 393.96C996.973 397.585 992.441 400.897 987.689 403.871C984.484 400.878 985.8 396.188 986.479 392.431C987.158 389.672 990.554 389.503 992.591 388.187C995.902 386.574 996.008 382.329 995.371 379.209C994.607 375.453 991.127 373.309 988.198 371.484C985.694 373.416 983.805 376.641 980.558 377.278C976.314 377.278 976.314 372.248 974.574 369.489C970.733 368.789 966.34 369.256 963.326 366.327C958.636 362.549 959.082 356.055 958.679 350.622C955.41 350.919 952.185 351.471 948.917 351.577C944.672 351.577 940.937 348.309 936.544 348.882C933.817 348.994 931.187 349.925 928.995 351.553C926.804 353.18 925.153 355.429 924.257 358.008C921.265 366.603 923.068 375.771 923.259 384.621C923.068 388.187 923.111 392.071 921.137 395.233C916.659 390.606 910.102 388.611 906.006 383.539C901.931 379.294 902.419 372.927 901.762 367.367C902.356 364.481 905.199 362.019 904.16 358.878C902.165 353.466 895.204 352.32 892.7 347.226C891.066 343.958 892.021 340.138 893.188 336.869C894.545 332.776 896.614 328.953 899.3 325.579C902.778 322.202 907.141 319.879 911.884 318.876C916.626 317.873 921.556 318.233 926.103 319.912C930.602 321.164 934.592 324.157 939.388 324.327C944.184 323.669 947.749 319.997 951.039 316.856Z" fill="#000001"/>
<path d="M240.868 314.289C242.172 315.01 243.313 315.993 244.218 317.177C245.124 318.36 245.775 319.718 246.131 321.165C245.805 322.003 245.339 322.778 244.751 323.457C238.682 328.275 230.575 329.145 223.105 329.421C215.351 329.226 207.678 327.793 200.376 325.177C200.164 324.752 199.761 323.882 199.57 323.457L195.75 323.648L196.259 322.375L199.315 322.184C199.315 319.425 201.989 318.47 204.175 317.642C204.53 319.332 204.991 320.998 205.555 322.63C212.556 325.677 220.212 326.911 227.816 326.216C232.358 325.665 237.239 324.901 240.91 321.972C241.08 319.446 240.825 316.9 240.868 314.289Z" fill="white"/>
<path d="M244.285 329.146L245.452 327.979C245.898 329.4 246.322 330.844 246.725 332.223L245.049 333.73C242.632 335.333 240.022 336.624 237.282 337.571C237.409 338.611 237.536 339.694 237.685 340.734C238.05 347.406 238.973 354.037 240.444 360.556C241.229 363.761 243.691 366.074 245.728 368.536C249.295 372.677 251.313 377.928 251.437 383.392C251.628 387.446 251.161 391.881 253.198 395.489C258.737 405.528 260.732 416.946 265.337 427.324C267.853 433.529 271.6 439.16 276.351 443.878C278.961 438.975 281.126 433.839 283.397 428.767C284.5 429.446 285.519 430.168 286.707 430.889C284.224 436.131 281.869 441.501 279.407 446.743C287.62 452.409 297.721 454.468 307.484 455.466C317.136 457.185 326.664 459.538 336.006 462.512C340.696 464.146 345.598 462.724 350.352 462.512C358.322 461.928 366.333 462.718 374.035 464.846L377.792 465.759C380.296 466.311 382.842 466.799 385.389 467.329C385.177 468.539 384.965 469.749 384.795 470.98C382.446 470.555 380.112 470.109 377.792 469.643L373.377 468.581C365.871 466.492 358.057 465.731 350.288 466.332C345.492 466.629 340.568 468.03 335.836 466.502C324.249 463.106 312.492 459.647 300.48 458.5C291.933 457.352 283.748 454.314 276.521 449.608C271.995 445.44 268.099 440.636 264.955 435.346C258.079 423.291 256.233 409.157 249.654 396.954C246.11 390.438 249.314 382.522 245.919 375.964C243.903 370.976 238.873 367.878 237.218 362.721C235.096 355.823 234.99 348.544 234.226 341.498C234.226 340.755 233.95 339.248 233.844 338.484C227.759 339.489 221.544 339.41 215.487 338.25C214.171 338.059 213.365 336.85 212.516 336.022C212.961 335.576 213.853 334.706 214.319 334.282C219.373 335.362 224.561 335.663 229.705 335.173C234.926 334.43 240.698 333.39 244.285 329.146Z" fill="#F8F8F8"/>
<path d="M404.341 337.147C414.463 332.202 425.86 327.766 437.277 330.44C444.946 331.135 452.351 333.592 458.914 337.619C465.478 341.646 471.022 347.135 475.116 353.658C474.355 354.862 473.889 356.23 473.757 357.648C473.885 364.418 476.007 370.997 475.88 377.789C475.461 386.29 473.294 394.613 469.513 402.238C466.421 410.183 465 418.681 465.34 427.2C465.679 435.719 467.772 444.077 471.487 451.751C480.166 468.326 494.534 481.272 502.449 498.315C503.786 501.137 504.996 504.045 506.121 506.952C500.787 501.246 494.45 496.57 487.424 493.157C480.082 489.176 472.538 485.578 464.823 482.376C457.31 479.511 449.607 477.092 442.349 473.611C442.349 472.274 442.498 470.916 442.604 469.579C438.448 468.284 434.679 465.98 431.632 462.872C422.075 453.752 414.541 442.725 409.519 430.507C417.019 436.682 425.234 441.933 433.988 446.148C438.232 448.08 444.11 449.502 447.739 445.533C453.995 439.197 458.398 431.271 460.472 422.612C461.389 411.069 461.211 399.464 459.942 387.955C456.998 387.283 454.205 386.066 451.708 384.368C448.355 381.906 446.615 378.001 443.856 374.987C441.606 372.632 438.189 372.165 435.176 371.634C427.112 370.573 418.198 371.019 411.323 375.709C408.888 377.385 406.816 379.534 405.23 382.028C403.644 384.522 402.576 387.31 402.091 390.225C401.848 392.172 401.118 394.026 399.969 395.616C396.828 395.404 397.083 390.883 394.175 390.225C392.053 389.78 390.419 391.86 390.079 393.812C388.974 398.299 389.532 403.034 391.65 407.14C393.942 411.385 396.425 415.842 396.297 420.808C395.781 430.31 393.325 439.605 389.082 448.122C388.165 450.319 387.558 452.634 387.278 454.998C385.221 453.953 383.094 453.052 380.912 452.303L377.919 451.518C370.937 449.884 364.019 447.995 356.931 446.934C349.843 445.872 342.076 447.125 334.733 446.254C326.682 445.435 318.779 443.529 311.24 440.588C308.344 439.601 305.389 438.8 302.391 438.19C316.355 428.427 327.708 415.502 338.15 402.11C347.19 390.714 354.915 378.298 364.698 367.517C375.624 354.712 389.133 344.362 404.341 337.147Z" fill="#000001"/>
<path d="M930.046 362.911C932.317 362.592 935.882 361.574 937.007 364.375C936.455 366.497 934.121 365.797 932.529 366.115C930.301 366.115 928.603 367.665 926.672 368.514C925.123 368.407 924.762 367.049 925.335 365.818C926.558 364.375 928.207 363.357 930.046 362.911Z" fill="#000001"/>
<path d="M947.601 365.797C947.346 364.502 947.155 362.656 948.917 362.444C950.51 362.149 952.152 362.257 953.694 362.757C955.236 363.257 956.628 364.134 957.745 365.309C958.742 367.431 956.09 368.174 954.753 367.049C952.554 365.908 950.057 365.471 947.601 365.797Z" fill="#000001"/>
<path d="M940.658 372.566C941.21 372.566 942.356 372.312 942.929 372.248C944.839 377.915 942.589 383.793 939.236 388.42C941.457 389.203 943.625 390.124 945.73 391.179C945.791 391.605 945.735 392.039 945.569 392.435C945.403 392.832 945.132 393.176 944.786 393.43C944.44 393.685 944.031 393.841 943.603 393.882C943.175 393.923 942.744 393.847 942.356 393.662C939.682 392.707 935.989 391.54 935.438 388.378C935.926 385.47 938.685 383.496 939.491 380.631C940.658 378.106 939.321 374.965 940.658 372.566Z" fill="#000001"/>
<path d="M949.574 372.482C954.222 371.081 955.941 377.13 954.752 380.568C954.717 381.045 954.54 381.501 954.246 381.878C953.952 382.255 953.552 382.536 953.098 382.686C952.644 382.836 952.155 382.848 951.694 382.72C951.233 382.593 950.82 382.331 950.508 381.969C948.343 379.274 949.51 375.623 949.574 372.482Z" fill="#000001"/>
<path d="M931.041 373.352C931.312 373.003 931.672 372.733 932.084 372.573C932.496 372.412 932.944 372.367 933.38 372.441C933.815 372.515 934.223 372.706 934.558 372.994C934.894 373.281 935.145 373.655 935.285 374.074C936.007 376.196 936.092 379.783 933.566 380.802C930.044 381.035 928.813 375.475 931.041 373.352Z" fill="#000001"/>
<path d="M743.297 387.211C746.538 385.347 749.136 382.542 750.746 379.168C751.446 380.272 752.146 381.29 752.868 382.436C751.429 385.055 749.429 387.324 747.011 389.079C742.597 392.411 736.633 393.685 733.323 398.375C730.012 403.065 730.161 408.986 730.288 414.589C728.824 414.802 726.426 415.502 726.617 413.146C725.921 407.247 727.181 401.282 730.203 396.168C733.28 391.668 738.692 389.822 743.297 387.211Z" fill="white"/>
<path d="M424.352 383.116C426.07 382.594 427.875 382.426 429.659 382.623C431.443 382.82 433.168 383.378 434.73 384.262C434.886 384.479 434.991 384.727 435.039 384.99C435.087 385.253 435.076 385.523 435.007 385.78C434.938 386.038 434.813 386.277 434.64 386.481C434.467 386.685 434.252 386.847 434.008 386.957C430.952 386.957 427.875 385.259 424.904 386.639C423.27 387.148 421.806 388.358 420.044 388.209C418.05 385.366 422.188 383.71 424.352 383.116Z" fill="#000001"/>
<path d="M445.278 386.893C447.867 386.214 454.615 387.063 452.557 390.989C449.883 390.501 445.49 391.159 444.344 388.188L445.278 386.893Z" fill="#000001"/>
<path d="M438.018 398.799C438.146 396.677 437.615 392.05 440.883 392.432C442.475 393.748 441.286 396.019 441.477 397.759C440.883 402.11 443.6 405.845 446.274 408.902C446.735 409.485 447.067 410.16 447.246 410.882C447.426 411.603 447.449 412.355 447.314 413.087C447.18 413.818 446.89 414.512 446.466 415.123C446.041 415.733 445.491 416.246 444.852 416.627C441.897 416.55 438.949 416.302 436.023 415.884L436.448 413.358C438.57 411.83 443.621 415.481 443.727 411.576C440.65 407.989 437.7 403.85 438.018 398.799Z" fill="#000001"/>
<path d="M427.426 400.242C427.426 398.119 426.365 395.042 428.72 393.705C431.925 393.896 430.248 398.119 430.843 400.221L427.426 400.242Z" fill="#000001"/>
<path d="M444.893 397.886C444.893 396.018 447.015 396.613 448.14 396.506C448.183 398.822 447.969 401.135 447.503 403.404C444.065 404.126 444.065 400.178 444.893 397.886Z" fill="#000001"/>
<path d="M711.633 410.26C715.113 413.868 718.775 417.296 722.604 420.532C724.199 421.592 725.564 422.964 726.615 424.564C726.934 426.241 725.003 426.856 723.878 426.029C720.505 423.847 717.479 421.171 714.901 418.091C714.235 415.323 713.132 412.68 711.633 410.26Z" fill="white"/>
<path d="M945.521 423.354C954 420.498 962.192 416.853 969.99 412.467C963.746 422.469 955.693 431.221 946.243 438.274C941.744 441.861 936.714 445.15 930.836 445.66C931.285 439.524 932.064 433.417 933.17 427.365C933.871 425.816 932.831 424.649 931.876 423.588C936.205 425.71 941.107 424.649 945.521 423.354Z" fill="#000001"/>
<path d="M981.474 454.362C983.596 450.584 984.594 446.233 987.501 442.965C988.924 443.863 990.253 444.901 991.47 446.063C988.421 458.493 981.068 469.441 970.715 476.964C975.692 480.799 980.157 485.257 983.999 490.229C994.346 484.167 1003.12 475.755 1009.61 465.674L1012.39 466.416C1012.39 467.074 1012.52 468.369 1012.54 469.027C1008.72 474.174 1004.51 479.027 999.958 483.543C995.055 488.095 989.396 491.758 983.236 494.367C980.604 495.534 978.821 492.945 977.293 491.29C974.299 487.408 969.933 484.819 965.091 484.053C960.146 494.558 954.48 504.766 950.108 515.527C949.896 516.015 949.493 517.033 949.281 517.522C948.474 517.182 947.689 516.8 946.946 516.397C945.695 512.207 944.653 507.957 943.826 503.663C942.808 498.315 941.259 493.051 939.985 487.83C936.314 491.205 932.558 494.473 928.886 497.827C927.528 498.76 926.276 500.649 924.43 499.949C918.233 491.46 915.495 481.166 914.328 470.894L917.193 470.215L917.681 468.263L919.443 469.048L917.681 470.81C918.912 478.174 920.334 485.666 924.048 492.287C928.483 487.555 932.536 482.525 936.569 477.431C933.671 475.64 931.311 473.098 929.738 470.076C928.166 467.054 927.439 463.663 927.634 460.262L929.905 459.561C931.284 464.655 932.621 470.576 937.46 473.568C945.949 478.62 957.6 479.935 966.407 474.693C973.771 470.003 977.548 461.832 981.474 454.362ZM942.383 479.935C944.76 489.549 946.309 499.376 949.132 508.884C953.822 499.63 957.345 489.783 962.247 480.678C955.675 482.147 948.836 481.906 942.383 479.978V479.935Z" fill="white"/>
<path d="M212.244 482.99C213.008 483.988 213.793 484.922 214.599 485.898C221.773 494.649 229.894 502.578 238.814 509.54C244.522 514.14 250.558 518.318 256.873 522.041C267.484 527.835 278.499 532.652 289.067 538.446C293.99 541.863 298.956 545.238 303.753 548.803C305.493 549.822 304.389 551.774 303.519 553.048C300.59 557.186 297.535 561.24 294.33 565.166C293.261 563.842 291.91 562.774 290.375 562.04C288.84 561.305 287.161 560.923 285.459 560.921C278.707 569.209 273.051 578.332 268.63 588.066C266.169 594.136 263.537 600.142 260.991 606.19C253.669 625.588 251.228 646.387 244.628 665.997C228.806 663.337 213.419 658.532 198.895 651.714C193.37 649.086 188.165 645.831 183.382 642.015C175.514 635.56 168.982 627.629 164.155 618.669C154.372 600.545 151.422 579.11 153.99 558.799C155.813 543.436 162.032 528.925 171.901 517.011C183.421 503.564 197.046 492.075 212.244 482.99Z" fill="#000001"/>
<path d="M441.141 488.573C441.141 487.024 441.289 485.454 441.395 483.904C444.876 487.3 449.481 488.998 453.789 491.078C463.169 495.768 473.334 499.737 480.592 507.632C486.704 513.468 489.442 521.681 494.238 528.473C499.066 535.476 504.645 541.931 510.876 547.722C511.364 544.911 512.074 542.144 512.998 539.445C517.242 536.049 522.803 537.811 527.684 536.92C531.143 537.301 534.625 537.429 538.103 537.302H540.395C598.501 537.302 656.607 537.302 714.712 537.153C716.106 537.133 717.494 537.327 718.829 537.726C718.468 538.83 718.107 539.848 717.789 541.058C650.615 541.058 583.462 541.058 516.33 541.058C506.653 584.042 496.954 627.033 487.235 670.031C527.047 669.691 566.838 669.84 606.65 669.288C630.822 669.436 654.972 669.012 679.165 669.033V672.514C659.79 673.108 640.414 672.981 621.039 673.023C576.685 673.334 532.338 673.568 487.999 673.723C487.999 676.673 487.999 679.645 487.999 682.616H484.667C484.518 679.687 484.391 676.716 484.242 673.787C475.202 674.084 466.14 673.957 457.078 673.936C456.909 676.907 456.739 679.899 456.59 682.871H453.131C453.004 678.859 453.131 674.848 453.131 670.837C454.546 670.498 455.961 670.179 457.375 669.882C458.054 662.921 459.498 656.066 460.707 649.19C461.429 644.945 462.108 640.7 462.829 636.562C464.439 629.945 465.714 623.251 466.649 616.506C469.896 593.882 473.016 571.216 477.069 548.72L479.573 547.722C479.858 548.69 480.036 549.687 480.104 550.693C476.9 572.447 473.504 594.201 470.618 616.018C475.414 623.531 479.722 631.341 484.455 638.918C481.717 642.101 478.597 645.094 477.366 649.232C474.056 654.602 467.286 656.193 462.723 660.162C461.853 663.439 461.382 666.81 461.323 670.201C468.623 670.201 475.902 670.094 483.202 670.073C485.176 661.966 486.937 653.816 488.763 645.667C490.786 636.88 492.773 628.08 494.726 619.265C499.777 597.087 504.743 574.888 509.772 552.688C506.462 548.21 502.154 544.602 498.567 540.358C493.115 534.076 488.467 527.139 484.73 519.708C480.696 512.243 474.605 506.093 467.18 501.986C461.577 498.867 455.826 496.023 450.054 493.242C446.998 491.799 444.069 490.208 441.141 488.573Z" fill="#F8F8F8"/>
<path d="M774.766 493.199C777.852 492.178 781.213 492.391 784.146 493.793L779.774 498.929C778.055 497.041 776.315 495.194 774.766 493.199Z" fill="white"/>
<path d="M716.942 520.153C716.772 514.55 721.823 511.473 726.258 509.436C726.392 512.504 726.949 515.539 727.913 518.455C729.005 519.12 730.156 519.681 731.351 520.132C726.534 520.153 721.738 520.302 716.942 520.153Z" fill="white"/>
<path d="M1051.59 518.71C1053.52 515.442 1055.43 511.664 1059.02 509.945C1061.14 510.561 1060.37 512.726 1059.16 513.872C1052.37 521.703 1049.95 532.123 1048.21 542.077C1046.9 550.01 1047.11 558.122 1048.85 565.974C1052.71 585.202 1062.28 602.605 1071.49 619.711C1072.87 622.003 1073.89 624.783 1076.21 626.312C1089.24 626.312 1102.27 624.698 1115.32 624.486C1117.91 625.717 1115.83 628.731 1113.51 628.179C1081.28 630.004 1049.02 631.893 1016.78 633.549C1021.3 637.462 1024.66 642.532 1026.5 648.214C1028.83 653.862 1030.76 659.662 1032.3 665.574C1033.32 670.056 1033.8 674.645 1033.72 679.242C1037.39 679.242 1041.06 679.242 1044.73 679.242C1039.75 679.39 1034.76 679.39 1029.88 679.242C1029.3 669.366 1027.09 659.654 1023.32 650.506C1021.05 646.388 1019.71 641.146 1015.23 638.876C1011.72 641.713 1007.64 643.755 1003.27 644.86C1003.27 641.783 1003.27 638.493 1005.39 635.904C1007.07 633.74 1009.04 631.813 1011.25 630.174C1019.88 629.453 1028.56 629.219 1037.2 628.646L1071.32 626.736C1062.71 612.355 1055.3 597.293 1049.15 581.701C1044.54 569.313 1042.82 556.037 1044.12 542.884C1045.9 534.564 1047.53 526.16 1051.59 518.71Z" fill="white"/>
<path d="M803.758 525.332C805.192 525.428 806.631 525.255 808.002 524.822C812.416 531.89 817.085 538.829 821.075 546.151C822.263 548.486 818.38 549.611 817.722 547.34C812.798 540.167 808.745 532.441 803.758 525.332Z" fill="white"/>
<path d="M858.891 538.277C858.615 536.812 860.483 535.539 861.586 536.706C862.541 539.019 861.904 541.609 861.841 544.028C860.546 557.123 860.568 570.281 860.398 583.418C859.529 607.913 860.757 632.437 864.069 656.723C863.072 657.189 862.096 657.678 861.119 658.187C858.679 643.861 856.09 629.557 853.543 615.231L844.078 617.163C846.986 609.098 851.23 601.543 853.755 593.308L856.09 591.886C856.49 589.216 856.71 586.521 856.748 583.821C856.549 568.611 857.265 553.402 858.891 538.277Z" fill="white"/>
<path d="M886.733 642.015C890.18 640.547 893.726 639.32 897.344 638.344C898.511 639.129 899.211 641.06 897.535 641.761C893.347 643.743 889.003 645.376 884.547 646.642C886.075 645.92 887.645 645.241 889.216 644.52C888.346 643.734 887.603 642.885 886.733 642.015Z" fill="white"/>
<path d="M952.562 653.328C953.687 653.328 954.833 653.328 955.979 653.328C956.514 656.444 956.847 659.592 956.977 662.751C956.977 664.534 953.836 664.279 953.836 662.751C953.157 659.65 952.731 656.498 952.562 653.328Z" fill="white"/>
<path d="M685.508 681.448C686.187 677.67 684.192 672.513 687.63 669.775L688.373 669.924C690.028 673.405 688.712 677.649 689.073 681.448H685.508Z" fill="#000001"/>
<path d="M858.188 680.323C863.414 676.881 868.842 673.756 874.443 670.964C876.035 670.009 877.563 671.961 876.566 673.447C873.297 675.866 869.414 677.331 866.167 679.814C863.527 680.213 860.857 680.384 858.188 680.323Z" fill="white"/>
<path d="M223.104 329.485C230.574 329.209 238.68 328.339 244.75 323.521C244.499 325.387 244.343 327.264 244.283 329.146C240.697 333.39 234.924 334.43 229.725 335.088C224.581 335.578 219.392 335.277 214.339 334.197C213.872 334.621 212.981 335.491 212.535 335.937C209.606 334.918 206.635 334.027 203.728 332.987C204.28 329.931 201.075 328.042 200.375 325.219C207.676 327.843 215.349 329.283 223.104 329.485Z" fill="#D7B849"/>
<path d="M237.688 340.796C241.123 339.76 244.395 338.246 247.407 336.297C250.994 342.791 254.75 349.201 258.421 355.631C261.774 361.574 262.666 368.365 264.279 374.923C266.401 384.622 269.266 394.024 271.897 403.638C273.535 408.607 275.848 413.328 278.773 417.666C280.895 421.168 281.574 425.243 283.399 428.872C281.129 433.944 278.964 439.08 276.354 443.983C271.603 439.265 267.856 433.634 265.34 427.429C260.734 417.008 258.74 405.59 253.201 395.594C251.079 391.901 251.63 387.551 251.439 383.497C251.316 378.033 249.298 372.782 245.731 368.641C243.608 366.179 241.232 363.866 240.446 360.661C238.973 354.128 238.05 347.483 237.688 340.796Z" fill="#F1D15B"/>
<path d="M219.461 346.442C223.196 342.197 229.457 343.556 234.316 341.412C235.08 348.543 235.186 355.823 237.309 362.635C238.964 367.792 243.994 370.891 246.01 375.878C249.405 382.436 246.201 390.353 249.745 396.868C256.323 409.071 258.233 423.206 265.046 435.261C268.189 440.55 272.085 445.354 276.612 449.522C283.803 454.287 291.966 457.39 300.507 458.606C312.583 459.752 324.276 463.211 335.863 466.607C340.596 468.135 345.519 466.734 350.315 466.437C358.084 465.836 365.898 466.597 373.405 468.687C373.553 477.749 374.275 487.087 378.052 495.47C381.647 503.99 387.774 511.199 395.603 516.121C400.675 519.136 406.467 520.728 412.368 520.728C418.269 520.728 424.061 519.136 429.133 516.121C435.253 512.455 440.286 507.224 443.713 500.967C445.234 498.004 447.412 495.428 450.079 493.433C455.852 496.213 461.603 499.057 467.205 502.177C474.63 506.284 480.721 512.434 484.756 519.898C488.492 527.33 493.14 534.267 498.592 540.548C502.179 544.793 506.487 548.401 509.798 552.879C504.768 575.078 499.802 597.278 494.751 619.456C490.953 613.768 488.979 607.146 485.69 601.204C483.96 598.48 482.885 595.393 482.549 592.184C481.806 581.042 482.549 569.879 482.443 558.736C482.443 554.853 482.719 550.969 483.016 547.106C481.848 547.34 480.724 547.573 479.599 547.913L477.095 548.91C473.126 571.407 469.922 594.073 466.675 616.697C464.34 620.729 463.301 625.313 461.306 629.431C458.271 636.01 455.3 642.61 452.286 649.189C448.933 655.938 445.559 662.687 442.715 669.67C438.471 669.903 433.887 666.507 434.46 661.881C435.945 656.002 441.76 650.547 438.917 644.117C436.052 638.747 429.07 639.533 423.955 639.872C406.086 641.995 388.875 647.64 371.325 651.46C360.884 654.071 350.315 656.044 339.789 658.188C328.372 660.947 316.869 663.409 305.346 665.68C297.494 667.208 289.472 667.484 281.535 668.46C275.699 669.266 268.908 667.844 265.215 662.899C260.971 657.572 260.653 650.166 261.693 643.799C265.385 622.576 277.842 604.239 285.037 584.098C288.22 577.731 290.363 570.94 294.396 564.997C297.6 561.071 300.656 557.017 303.585 552.879C304.455 551.69 305.558 549.738 303.818 548.634C299.022 545.069 294.056 541.694 289.132 538.277C278.522 532.505 267.507 527.666 256.939 521.872C250.624 518.149 244.588 513.971 238.879 509.372C229.964 502.436 221.843 494.535 214.665 485.814C214.41 481.569 213.455 477.452 212.988 473.271C211.291 460.537 211.163 447.803 210.039 435.07C209.211 422.824 207.916 410.621 206.431 398.439C205.402 390.93 205.019 383.347 205.285 375.772C205.709 369.618 206.049 363.208 208.85 357.584C211.397 353.127 215.875 350.156 219.461 346.442ZM286.713 649.465C286.098 650.632 287.859 652.479 289.048 651.821C290.088 650.484 288.029 648.34 286.713 649.465Z" fill="#C06A87"/>
<path d="M279.406 446.848C281.868 441.563 284.224 436.236 286.707 430.994C291.848 433.68 297.133 436.082 302.538 438.189C305.536 438.799 308.492 439.6 311.388 440.587C318.927 443.528 326.829 445.434 334.88 446.254C342.265 447.124 349.736 445.787 357.078 446.933C364.421 448.079 371.085 449.883 378.067 451.517C376.119 455.752 374.769 460.238 374.056 464.845C366.343 462.736 358.324 461.968 350.351 462.574C345.597 462.829 340.695 464.251 336.005 462.574C326.663 459.601 317.135 457.247 307.483 455.528C297.636 454.573 287.619 452.514 279.406 446.848Z" fill="#F1D15B"/>
<path d="M991.466 446.105C996.835 450.626 1000.72 456.611 1005.79 461.45C1007.11 462.808 1008.38 464.251 1009.61 465.694C1003.12 475.776 994.343 484.188 983.996 490.25C980.153 485.278 975.688 480.82 970.711 476.985C981.06 469.467 988.413 458.528 991.466 446.105Z" fill="#6B5E7A"/>
<path d="M381.06 452.238C383.243 452.987 385.37 453.888 387.427 454.934C386.833 459.051 386.217 463.147 385.496 467.264C382.949 466.734 380.403 466.246 377.898 465.694C378.62 461.194 379.872 456.759 381.06 452.238Z" fill="#D7B849"/>
<path d="M919.437 468.984C922.391 466.285 925.116 463.346 927.586 460.197C927.39 463.599 928.117 466.99 929.69 470.012C931.263 473.034 933.622 475.575 936.52 477.367C932.53 482.46 928.435 487.49 923.999 492.223C920.328 485.601 918.906 478.11 917.633 470.745L919.437 468.984ZM920.455 472.719C919.288 472.719 918.524 475.096 920.031 475.202C921.177 475.117 921.92 472.804 920.455 472.719Z" fill="#6B5E7A"/>
<path d="M384.832 500.013C379.167 490.957 376.694 480.266 377.808 469.643C380.128 470.109 382.462 470.555 384.811 470.98C383.877 475.691 386.551 479.893 388.588 483.904C393.13 492.712 401.321 498.973 409.81 503.791C412.919 505.524 416.385 506.519 419.939 506.699C423.494 506.88 427.042 506.24 430.31 504.83C433.368 503.903 436.319 502.658 439.118 501.116C433.388 510.136 423.413 516.906 412.484 516.8C400.939 517.182 390.562 509.542 384.832 500.013Z" fill="#F1D15B"/>
<path d="M906.048 472.061C908.747 471.32 911.526 470.906 914.325 470.83C915.492 481.102 918.229 491.459 924.426 499.884C926.273 500.606 927.525 498.717 928.883 497.762C933.913 499.566 938.581 502.368 943.738 503.599C944.565 507.892 945.606 512.142 946.858 516.332C947.601 516.736 948.386 517.118 949.192 517.457C949.404 516.969 949.808 515.95 950.02 515.462C956.853 513.085 961.31 507.143 966.361 502.325C970.011 498.675 973.788 495.109 977.205 491.225C978.733 492.881 980.516 495.47 983.147 494.303C989.308 491.694 994.967 488.031 999.87 483.479C1008.36 484.222 1016.51 481.887 1024.74 480.402C1029.96 479.107 1035.59 479.319 1040.53 476.921C1051.04 481.527 1061.75 485.41 1072.36 489.655C1073.92 490.292 1075.47 490.999 1077.01 491.777C1087.62 496.977 1097.55 504.002 1104.49 513.637C1106.72 517.5 1108.55 521.596 1111.09 525.267C1113.22 528.004 1115.13 530.907 1116.8 533.948C1122.21 544.75 1127.27 555.722 1132.61 566.567C1136.54 575.226 1140.44 583.885 1144.41 592.523C1152.22 607.21 1163.36 620.113 1168.94 635.924C1172.44 645.029 1174.38 654.657 1174.67 664.406C1167.67 662.772 1160.48 663.939 1153.45 663.854C1131.11 663.854 1108.76 664.936 1086.41 664.936C1068.33 665.318 1050.34 666.252 1032.17 665.552C1030.64 659.64 1028.7 653.84 1026.38 648.191C1024.53 642.51 1021.17 637.439 1016.66 633.526C1048.89 631.871 1081.15 629.982 1113.39 628.157C1115.7 628.73 1117.78 625.695 1115.19 624.464C1102.14 624.676 1089.11 626.204 1076.08 626.289C1073.76 624.761 1072.75 622.045 1071.37 619.689C1062.16 602.583 1052.59 585.18 1048.72 565.952C1046.98 558.1 1046.77 549.988 1048.09 542.055C1049.83 532.101 1052.33 521.681 1059.04 513.849C1060.25 512.703 1061.16 510.538 1058.89 509.923C1055.3 511.642 1053.39 515.42 1051.46 518.688C1047.41 526.137 1045.77 534.542 1043.99 542.755C1040.87 547.297 1039.75 552.815 1038.03 557.93C1032.61 575.096 1030.86 593.206 1032.87 611.093C1033.77 617.06 1035.12 622.95 1036.92 628.709C1028.29 629.282 1019.61 629.515 1010.97 630.237C1008.77 631.875 1006.8 633.803 1005.11 635.967C1002.99 638.471 1003.12 641.846 1002.99 644.923C987.565 649.198 971.768 651.998 955.813 653.285C954.668 653.285 953.522 653.285 952.397 653.285C944.672 650.208 936.502 648.425 928.819 645.22C922.813 643.395 918.208 638.853 912.287 636.731C903.799 633.42 895.607 629.812 887.033 626.99C883.829 626.119 880.285 625.122 877.08 626.332C874.279 627.881 875.17 631.956 877.271 633.738C880.306 636.54 883.914 638.705 886.566 641.909C887.373 642.779 888.179 643.628 889.007 644.477C887.436 645.135 885.866 645.814 884.338 646.6C877.42 649.741 870.777 653.434 863.902 656.681C860.59 632.395 859.361 607.871 860.23 583.376C860.4 570.239 860.379 557.081 861.673 543.986C861.673 541.567 862.373 538.977 861.418 536.664C860.315 535.497 858.447 536.77 858.723 538.235C857.104 553.36 856.395 568.569 856.601 583.779C848.473 586.369 841.279 591.144 833.257 594.136C818.826 599.803 805.181 607.676 789.964 611.115C783.428 612.749 776.573 615.083 769.846 613.067C763.755 611.582 760.572 605.682 756.943 601.14C755.869 599.776 754.378 598.8 752.699 598.36H752.465C747.563 588.088 742.385 577.922 738.374 567.247C733.642 554.513 728.697 541.779 724.262 528.896C723.731 526.604 721.248 525.925 719.656 524.652C718.323 523.507 717.295 522.048 716.664 520.407C721.46 520.556 726.256 520.407 731.074 520.407C738.602 520.513 746.071 519.068 753.017 516.163C762.758 512.236 772.881 507.546 779.502 499.184L783.874 494.069L784.171 493.751C785.858 495.419 787.289 497.329 788.415 499.418C791.747 506.294 796.501 512.406 799.705 519.346C800.722 521.579 802.005 523.681 803.525 525.607C808.512 532.717 812.566 540.463 817.489 547.615C818.147 549.886 822.031 548.761 820.842 546.427C816.853 539.105 812.184 532.165 807.77 525.097C820.015 514.486 835.655 508.862 849.704 501.009C861.61 492.287 873.918 483.797 887.543 477.982C893.612 475.011 900.127 474.48 906.048 472.061ZM853.779 538.489C853.885 533.014 855.37 527.644 854.818 522.169C854.245 527.581 852.675 533.014 853.779 538.489Z" fill="#6B5E7A"/>
<path d="M942.375 479.977C948.824 481.918 955.663 482.174 962.239 480.719C957.336 489.867 953.75 499.672 949.124 508.925C946.301 499.417 944.752 489.591 942.375 479.977Z" fill="#6B5E7A"/>
<path d="M453.789 491.076C457.034 487.691 460.725 484.763 464.761 482.375C472.476 485.576 480.019 489.175 487.362 493.156C494.388 496.569 500.725 501.245 506.059 506.951C511.172 511.072 516.06 515.464 520.702 520.11C525.686 525.699 530.986 531 536.576 535.984L538.019 537.3C534.541 537.428 531.058 537.3 527.599 536.918C522.718 537.81 516.988 536.048 512.913 539.444C511.989 542.143 511.279 544.91 510.791 547.721C504.56 541.93 498.981 535.475 494.153 528.472C489.357 521.68 486.619 513.467 480.507 507.63C473.334 499.735 463.169 495.767 453.789 491.076Z" fill="#F1D15B"/>
<path d="M458.266 646.408C458.786 642.753 460.364 639.329 462.807 636.561C462.128 640.805 461.449 645.05 460.685 649.188C459.857 648.297 459.03 647.363 458.266 646.408Z" fill="#6B5E7A"/>
<path d="M374.547 683.253C376.587 682.503 378.74 682.101 380.913 682.064C391.8 682.064 402.666 681.725 413.553 681.874C415.939 681.968 418.305 682.353 420.598 683.02C405.213 683.253 389.869 683.041 374.547 683.253Z" fill="#6B5E7A"/>
<path d="M203.733 332.986C206.64 334.026 209.611 334.918 212.54 335.936C213.431 336.764 214.195 338.059 215.511 338.165C221.568 339.325 227.783 339.404 233.868 338.398C233.974 339.162 234.165 340.669 234.25 341.412C229.454 343.534 223.193 342.218 219.395 346.442C215.808 350.156 211.33 353.127 208.784 357.69C205.983 363.314 205.643 369.723 205.219 375.878C204.96 383.453 205.35 391.036 206.386 398.544C207.85 410.727 209.166 422.93 209.993 435.175C211.118 447.909 211.246 460.643 212.943 473.377C213.41 477.622 214.365 481.696 214.62 485.92C213.813 484.944 213.028 484.01 212.264 483.012C210.559 480.787 209.324 478.238 208.635 475.521C205.388 463.126 202.693 450.583 200.146 438.041C198.746 431.992 198.873 425.71 197.069 419.746C196.271 415.192 195.767 410.591 195.563 405.973C195.449 404.742 195.364 403.511 195.308 402.28C194.417 386.681 192.676 370.763 196.072 355.334C197.897 347.673 201.95 340.712 203.733 332.986Z" fill="#A85571"/>
<path d="M237.281 337.634C240.022 336.687 242.632 335.396 245.048 333.793L246.343 333.156C246.619 333.942 247.149 335.512 247.404 336.297C244.392 338.246 241.12 339.761 237.684 340.797C237.536 339.757 237.409 338.674 237.281 337.634Z" fill="#D7B849"/>
<path d="M374.031 464.846C374.745 460.239 376.095 455.753 378.042 451.518L381.034 452.303C379.846 456.76 378.594 461.195 377.788 465.758L374.031 464.846Z" fill="#F8F8F8"/>
<path d="M1012.54 469.068C1014.13 468.389 1015.91 466.946 1017.72 467.901C1020.92 469.132 1024.08 470.448 1027.35 471.7C1031.81 473.377 1036.22 475.181 1040.61 477.027C1035.67 479.425 1030 479.149 1024.83 480.508C1016.59 481.993 1008.38 484.328 999.953 483.585C1004.51 479.068 1008.71 474.215 1012.54 469.068Z" fill="#645675"/>
<path d="M373.398 468.58L377.813 469.641C376.699 480.265 379.172 490.956 384.837 500.011C390.567 509.562 400.944 517.181 412.425 516.799C423.355 516.905 433.329 510.135 439.059 501.115C436.261 502.657 433.309 503.901 430.252 504.829C433.312 502.44 436.212 499.853 438.932 497.083C441.054 494.833 440.778 491.459 441.054 488.593C443.961 490.228 446.911 491.819 449.946 493.262C447.278 495.257 445.101 497.834 443.579 500.797C440.205 507.012 435.249 512.224 429.212 515.908C424.14 518.923 418.348 520.515 412.447 520.515C406.546 520.515 400.754 518.923 395.681 515.908C387.853 510.986 381.726 503.777 378.131 495.257C374.268 486.98 373.547 477.706 373.398 468.58Z" fill="#D7B849"/>
<path d="M920.457 472.719C921.922 472.719 921.179 475.117 920.033 475.202C918.526 475.096 919.29 472.782 920.457 472.719Z" fill="#6B5E7A"/>
<path d="M442.282 473.611C449.54 477.092 457.137 479.511 464.756 482.376C460.72 484.765 457.029 487.692 453.784 491.078C449.54 488.956 444.871 487.3 441.391 483.905C441.645 480.488 441.942 477.049 442.282 473.611Z" fill="#D7B849"/>
<path d="M950.109 515.568C954.502 504.807 960.147 494.599 965.092 484.094C969.934 484.86 974.3 487.449 977.295 491.331C973.878 495.215 970.1 498.78 966.45 502.43C961.399 507.248 956.943 513.191 950.109 515.568Z" fill="#645675"/>
<path d="M939.983 487.787C941.256 493.072 942.805 498.271 943.824 503.62C938.582 502.389 933.913 499.587 928.969 497.783C932.555 494.43 936.418 491.162 939.983 487.787Z" fill="#645675"/>
<path d="M853.774 538.489C852.671 533.013 854.241 527.58 854.814 522.168C855.366 527.644 853.88 533.013 853.774 538.489Z" fill="#6B5E7A"/>
<path d="M1038.16 557.952C1039.98 552.837 1041 547.34 1044.12 542.777C1042.8 555.966 1044.52 569.28 1049.15 581.7C1055.24 597.353 1062.61 612.48 1071.18 626.927L1037.05 628.837C1035.25 623.078 1033.9 617.189 1033 611.222C1030.97 593.3 1032.72 575.151 1038.16 557.952Z" fill="#645675"/>
<path d="M479.548 547.742C480.673 547.402 481.798 547.169 482.965 546.936C482.668 550.798 482.392 554.682 482.392 558.566C482.392 569.708 481.755 580.871 482.498 592.013C482.834 595.222 483.909 598.31 485.639 601.033C488.928 606.976 490.902 613.597 494.701 619.285C492.734 628.086 490.746 636.886 488.737 645.687C487.273 643.437 485.851 641.187 484.493 638.938C479.76 631.361 475.452 623.551 470.656 616.038C473.542 594.221 477.023 572.467 480.142 550.713C480.054 549.704 479.854 548.708 479.548 547.742Z" fill="#A85571"/>
<path d="M285.461 560.709C287.162 560.711 288.842 561.093 290.377 561.827C291.912 562.562 293.263 563.63 294.332 564.954C290.3 570.811 288.156 577.687 284.973 584.054C277.8 604.195 265.343 622.447 261.629 643.755C260.589 650.122 260.844 657.529 265.152 662.856C268.844 667.801 275.635 669.223 281.471 668.416C289.408 667.44 297.43 667.164 305.282 665.636C316.806 663.365 328.308 660.903 339.725 658.144C350.336 656.022 360.82 654.027 371.261 651.416C388.812 647.596 406.023 642.015 423.891 639.829C429.006 639.468 435.988 638.683 438.853 644.073C441.697 650.44 435.882 655.958 434.396 661.837C433.823 666.464 438.322 669.859 442.652 669.626C445.495 662.643 448.87 655.895 452.223 649.146C455.236 642.566 458.207 635.966 461.242 629.387C463.237 625.142 464.277 620.6 466.611 616.653C465.676 623.398 464.401 630.092 462.791 636.709C460.348 639.478 458.77 642.901 458.25 646.556C459.014 647.511 459.841 648.445 460.711 649.337C459.502 656.213 458.059 663.068 457.38 670.029C455.965 670.326 454.55 670.645 453.135 670.984C453.135 674.995 452.902 679.006 453.135 683.018C442.312 683.018 431.468 683.315 420.644 683.166C418.351 682.5 415.985 682.115 413.599 682.02C402.712 681.872 391.846 682.211 380.96 682.211C378.786 682.248 376.634 682.649 374.593 683.4C351.822 683.739 329.072 683.803 306.301 683.76C285.949 684.206 265.555 683.93 245.182 684.291C243.389 684.433 241.587 684.157 239.919 683.485L239.516 683.315C240.704 677.372 243.017 671.748 244.673 665.933C251.273 646.323 253.713 625.609 261.035 606.126C263.581 600.078 266.213 594.072 268.675 588.002C273.07 578.219 278.713 569.045 285.461 560.709Z" fill="#A85571"/>
<path d="M833.446 594.179C841.426 591.187 848.62 586.411 856.791 583.822C856.752 586.522 856.533 589.217 856.133 591.887L853.798 593.309C851.273 601.544 847.029 609.099 844.121 617.164C833.213 619.52 822.263 621.578 811.291 623.531C802.972 624.783 794.844 627.627 786.334 627.011C781.059 627.087 775.861 625.738 771.288 623.106C769.933 622.262 768.622 621.348 767.362 620.368C760.465 614.659 756.751 606.213 753.016 598.275C754.695 598.715 756.185 599.692 757.26 601.055C760.889 605.597 764.072 611.497 770.163 612.983C776.89 615.105 783.745 612.664 790.281 611.03C805.37 607.719 819.016 599.846 833.446 594.179Z" fill="#645675"/>
<path d="M1086.54 664.957C1108.89 664.957 1131.23 663.896 1153.58 663.875C1160.67 663.875 1167.86 662.793 1174.8 664.427C1174.53 666.74 1174.34 669.075 1174.15 671.409C1172.77 673.722 1171.62 676.184 1170.3 678.561C1128.43 678.858 1086.54 679.028 1044.67 679.283C1041 679.156 1037.33 679.177 1033.66 679.283C1033.74 674.686 1033.26 670.097 1032.23 665.615C1050.38 666.273 1068.46 665.339 1086.54 664.957Z" fill="#645675"/>
<path d="M679.083 669.012C681.933 668.886 684.787 669.136 687.572 669.755C684.219 672.493 686.214 677.65 685.45 681.428C654.996 681.81 624.543 681.661 594.195 682.001C575.69 682.489 557.185 681.321 538.679 682.298C521.702 682.298 504.851 682.786 487.938 682.595C487.938 679.624 487.938 676.652 487.938 673.702C532.291 673.547 576.638 673.313 620.977 673.002C640.353 673.002 659.729 673.002 679.104 672.493L679.083 669.012Z" fill="#315D80"/>
<path d="M456.484 682.849C456.633 679.878 456.803 676.885 456.972 673.914C466.034 673.914 475.096 674.063 484.136 673.766C484.285 676.694 484.412 679.666 484.561 682.594C475.202 682.764 465.843 682.531 456.484 682.849Z" fill="#315D80"/>
<path d="M1044.64 679.326C1086.51 679.072 1128.41 678.902 1170.28 678.605C1180.06 678.605 1189.84 678.286 1199.63 678.371C1226.35 678.52 1253.04 677.989 1279.74 677.904C1287.66 677.904 1295.55 677.904 1303.47 677.904C1303.47 690.638 1304.02 703.499 1303.89 716.318C1251.54 716.636 1199.18 716.467 1146.85 716.806C1097.42 717.146 1048 716.934 998.57 717.273C945.346 717.591 892.1 717.443 838.876 717.782C793.291 718.143 747.622 717.782 702.122 718.228C636.483 718.568 570.822 718.398 505.162 718.928C436.615 718.759 368.068 719.544 299.522 719.438C254.255 719.438 208.989 719.968 163.702 719.905C114.891 719.905 66.0808 720.457 17.1431 720.372C17.1431 708.763 16.7612 697.154 16.7188 685.566C29.6429 685.566 42.567 685.29 55.4699 685.247C74.5696 684.865 93.6693 685.247 112.769 684.929H119.815C133.524 684.929 147.233 684.568 160.964 684.653C183.926 684.653 206.888 684.42 229.871 684.207C232.991 684.207 236.238 684.653 239.294 683.635L239.485 683.274L239.888 683.443C241.556 684.116 243.358 684.392 245.151 684.25C265.524 683.889 285.918 684.25 306.27 683.719C329.041 683.719 351.791 683.719 374.562 683.359C389.884 683.146 405.228 683.359 420.55 683.125C431.373 683.274 442.218 682.87 453.041 682.977H456.5C465.859 682.658 475.218 682.977 484.576 682.722H487.908C504.886 682.913 521.736 682.446 538.65 682.425C557.155 681.449 575.661 682.616 594.166 682.128C624.62 681.788 655.073 681.937 685.42 681.555H688.901C715.131 681.257 741.404 681.427 767.634 681.088H771.39C793.588 680.663 815.808 681.088 838.006 680.642C844.712 680.642 851.418 680.769 858.103 680.451C860.794 680.516 863.485 680.345 866.146 679.942C869.774 680.437 873.44 680.593 877.096 680.409C901.629 680.409 926.14 680.175 950.673 679.899C977.009 679.899 1003.35 679.708 1029.68 679.454C1034.75 679.432 1039.74 679.432 1044.64 679.326Z" fill="#DCE7FA"/>
<path d="M1163.28 471C1163.28 471 1160.43 531.889 1194.96 563.427C1194.96 563.427 1179.53 478.874 1163.28 471Z" fill="#2E5D80"/>
<path d="M1163.28 471C1185.39 497.847 1172.85 536.579 1194.97 563.426L1267.12 538.659C1245.01 511.812 1257.55 473.08 1235.44 446.232L1163.28 471ZM1221.73 526.986L1195.33 536.07C1195.07 535.136 1194.84 534.223 1194.63 533.289L1221.09 524.227C1221.24 525.14 1221.47 526.074 1221.73 526.986ZM1243.29 509.541L1193.2 526.753L1192.69 523.93L1242.84 506.718L1243.29 509.541ZM1241.72 500.054L1191.57 517.245C1191.42 516.29 1191.29 515.335 1191.15 514.38L1241.29 497.189C1241.44 498.165 1241.57 499.12 1241.72 500.075V500.054ZM1240.3 490.504L1190.17 507.716C1190.02 506.761 1189.87 505.806 1189.7 504.851L1239.89 487.681C1240.02 488.615 1240.17 489.57 1240.3 490.44V490.504ZM1238.68 481.038L1188.54 498.229C1188.34 497.295 1188.15 496.361 1187.94 495.428L1238.09 478.237C1238.3 479.192 1238.49 480.126 1238.68 481.059V481.038ZM1236.56 471.785L1186.41 488.976C1186.16 488.063 1185.86 487.15 1185.56 486.259L1235.65 469.068C1235.9 469.981 1236.18 470.894 1236.45 471.806L1236.56 471.785ZM1233.25 462.85L1183.1 480.041C1182.72 479.171 1182.32 478.3 1181.89 477.452L1232.04 460.24C1232.46 461.131 1232.87 462.001 1233.25 462.85Z" fill="#DCE7FA"/>
<path d="M699.066 187.229C699.066 187.229 695.755 258.517 736.161 295.466C736.161 295.424 718.102 196.461 699.066 187.229Z" fill="#2E5D80"/>
<path d="M699.062 187.229C724.953 218.66 710.289 263.993 736.158 295.467L820.643 266.476C794.752 235.066 809.416 189.733 783.547 158.238L699.062 187.229ZM767.461 252.766L736.498 263.377C736.201 262.295 735.925 261.255 735.649 260.13L766.612 249.519C766.909 250.622 767.185 251.705 767.461 252.766ZM792.715 232.286L734.036 252.426C733.824 251.323 733.612 250.304 733.421 249.094L792.12 228.975C792.311 230.163 792.502 231.267 792.715 232.286ZM790.868 221.186L732.19 241.327L731.681 237.973L790.38 217.833C790.55 219.042 790.805 220.146 790.805 221.271L790.868 221.186ZM789.213 210.023L730.534 230.163C730.365 229.06 730.195 228.041 730.004 226.831L788.682 206.818L789.213 210.023ZM787.303 198.944L728.625 219.064C728.412 217.96 728.179 216.941 727.945 215.774L786.56 195.739C786.857 196.822 787.091 197.925 787.303 199.029V198.944ZM784.714 188.099L726.014 208.219C725.717 207.157 725.378 206.096 725.038 205.035L783.717 184.916C784.077 186.041 784.438 187.102 784.714 188.184V188.099ZM780.958 177.636L722.279 197.777C721.834 196.758 721.367 195.655 720.857 194.742L779.557 174.601C780.045 175.705 780.512 176.702 780.958 177.721V177.636Z" fill="#F1D15B"/>
</g>
<defs>
<clipPath id="clip0_1952_1344">
<rect width="1304" height="741" fill="white"/>
</clipPath>
</defs>
</svg>
