<svg width="68" height="68" viewBox="0 0 68 68" fill="none" xmlns="http://www.w3.org/2000/svg">
<path d="M60.9995 14.8223V1.37503C60.9995 1.07666 60.881 0.790512 60.67 0.579533C60.459 0.368555 60.1729 0.250028 59.8745 0.250028H48.6245C48.3261 0.250028 48.04 0.368555 47.829 0.579533C47.618 0.790512 47.4995 1.07666 47.4995 1.37503V4.53358C43.2694 2.55342 38.8041 1.12062 34.2116 0.269829C34.0714 0.24339 33.9276 0.24339 33.7875 0.269829C4.10467 5.9783 0.297896 27.9785 0.263809 28.1993C0.238417 28.3599 0.248124 28.524 0.29226 28.6805C0.336396 28.8369 0.413913 28.982 0.519474 29.1056C0.625036 29.2292 0.756134 29.3285 0.903742 29.3966C1.05135 29.4647 1.21196 29.5 1.37452 29.5H6.99952V58.75H4.74952C4.45115 58.75 4.165 58.8686 3.95403 59.0795C3.74305 59.2905 3.62452 59.5767 3.62452 59.875V66.625C3.62452 66.9234 3.74305 67.2095 3.95403 67.4205C4.165 67.6315 4.45115 67.75 4.74952 67.75H63.2495C63.5479 67.75 63.834 67.6315 64.045 67.4205C64.256 67.2095 64.3745 66.9234 64.3745 66.625V59.875C64.3745 59.5767 64.256 59.2905 64.045 59.0795C63.834 58.8686 63.5479 58.75 63.2495 58.75H60.9995V29.5H66.6245C66.7872 29.5001 66.948 29.4649 67.0958 29.3968C67.2436 29.3287 67.3748 29.2293 67.4804 29.1055C67.586 28.9817 67.6635 28.8365 67.7075 28.6798C67.7515 28.5232 67.7609 28.3588 67.7352 28.1982C66.6384 23.2484 64.3232 18.6507 60.9995 14.8223ZM62.1245 65.5H5.87452V61H62.1245V65.5ZM59.8745 27.25C59.5761 27.25 59.29 27.3686 59.079 27.5795C58.868 27.7905 58.7495 28.0767 58.7495 28.375V58.75H9.24952V28.375C9.24952 28.0767 9.13099 27.7905 8.92002 27.5795C8.70904 27.3686 8.42289 27.25 8.12452 27.25H2.77852C4.02007 22.6204 9.90326 7.23729 33.9995 2.52095C38.9096 3.43616 43.6596 5.06355 48.0994 7.35159C48.2709 7.44211 48.4628 7.48676 48.6566 7.48122C48.8505 7.47569 49.0396 7.42015 49.2056 7.31999C49.3716 7.21984 49.509 7.07847 49.6043 6.9096C49.6996 6.74073 49.7496 6.5501 49.7495 6.35619V2.50003H58.7495V15.2321C58.7498 15.4993 58.8448 15.7578 59.0176 15.9616C61.8539 19.2446 63.9614 23.0922 65.2007 27.25H59.8745Z" fill="#6B5E7A"/>
<path d="M41.445 16H19.125C18.9772 15.9999 18.8309 16.029 18.6944 16.0855C18.5578 16.142 18.4338 16.2248 18.3293 16.3293C18.2248 16.4338 18.142 16.5578 18.0855 16.6944C18.029 16.8309 17.9999 16.9772 18 17.125V38.266C17.9999 38.4138 18.029 38.5601 18.0855 38.6966C18.142 38.8332 18.2248 38.9572 18.3293 39.0617C18.4338 39.1662 18.5578 39.249 18.6944 39.3055C18.8309 39.3621 18.9772 39.3911 19.125 39.391H26.3276C26.6259 39.3912 26.9119 39.5098 27.1229 39.7207C27.3338 39.9316 27.4524 40.2177 27.4526 40.516V45.3302C27.4525 46.0861 27.6016 46.8345 27.8911 47.5327C28.1807 48.2309 28.6052 48.8651 29.1402 49.3991C29.6753 49.933 30.3104 50.3562 31.0092 50.6443C31.708 50.9324 32.4567 51.0799 33.2126 51.0783C33.3961 51.0783 33.5796 51.0695 33.763 51.0519C35.205 50.8767 36.5317 50.1758 37.4891 49.0834C38.4465 47.991 38.9674 46.5838 38.9519 45.1313V39.391H44.82C46.0131 39.3898 47.157 38.9153 48.0007 38.0717C48.8443 37.228 49.3188 36.0841 49.32 34.891V23.875C49.3175 21.7872 48.487 19.7856 47.0107 18.3093C45.5344 16.833 43.5328 16.0025 41.445 16ZM20.25 18.25H24.8104V37.141H20.25V18.25ZM47.07 34.891C47.0692 35.4875 46.8319 36.0593 46.4101 36.4811C45.9883 36.9029 45.4165 37.1402 44.82 37.141H37.8271C37.5287 37.141 37.2426 37.2595 37.0316 37.4705C36.8206 37.6815 36.7021 37.9676 36.7021 38.266V45.1313C36.7214 46.0252 36.4107 46.8949 35.8292 47.574C35.2477 48.2532 34.4363 48.6943 33.5501 48.8129C33.0636 48.8613 32.5723 48.8073 32.108 48.6544C31.6436 48.5014 31.2165 48.2529 30.854 47.9248C30.4916 47.5967 30.2018 47.1963 30.0035 46.7494C29.8052 46.3026 29.7027 45.8191 29.7026 45.3302V40.516C29.7017 39.7484 29.4395 39.004 28.9593 38.4052C28.4791 37.8064 27.8094 37.3889 27.0604 37.2212V18.25H41.445C42.9363 18.2518 44.366 18.845 45.4205 19.8995C46.475 20.954 47.0682 22.3837 47.07 23.875V34.891Z" fill="#6B5E7A"/>
</svg>
