<svg width="71" height="70" viewBox="0 0 71 70" fill="none" xmlns="http://www.w3.org/2000/svg">
<path d="M69.5341 67.4797H60.4087V40.5484H69.5341C69.7401 40.5484 69.9377 40.4665 70.0835 40.3208C70.2292 40.1751 70.311 39.9775 70.311 39.7714C70.311 39.5653 70.2292 39.3677 70.0835 39.222C69.9377 39.0763 69.7401 38.9944 69.5341 38.9944H59.6317C59.4257 38.9944 59.228 39.0763 59.0823 39.222C58.9366 39.3677 58.8548 39.5653 58.8548 39.7714V47.1738H51.2269C51.2556 47.0915 51.2705 47.005 51.2711 46.9178V24.0312H57.959C58.1194 24.0314 58.2758 23.9819 58.407 23.8895C58.5381 23.7972 58.6374 23.6665 58.6913 23.5155C58.7452 23.3644 58.7511 23.2004 58.7081 23.0459C58.665 22.8914 58.5753 22.754 58.4511 22.6525L47.8845 14.0146V3.52121C47.8845 3.31515 47.8026 3.11752 47.6569 2.97182C47.5112 2.82611 47.3136 2.74425 47.1075 2.74425H39.2451C39.039 2.74425 38.8414 2.82611 38.6957 2.97182C38.55 3.11752 38.4681 3.31515 38.4681 3.52121V6.31062L32.1474 1.1416C32.0083 1.02853 31.8345 0.966797 31.6553 0.966797C31.4761 0.966797 31.3023 1.02853 31.1632 1.1416L4.85957 22.6464C4.73293 22.7472 4.64093 22.8851 4.59643 23.0407C4.55192 23.1963 4.55713 23.362 4.61132 23.5145C4.66552 23.667 4.766 23.7988 4.89872 23.8914C5.03144 23.9841 5.18979 24.033 5.35164 24.0312H12.038V42.2348L6.87203 40.9825C5.56986 40.6639 4.20009 40.7678 2.96084 41.2791C1.72159 41.7904 0.677111 42.6826 -0.0215219 43.8268C-0.280195 44.2493 -0.365961 44.7552 -0.260965 45.2393C-0.155969 45.7235 0.131698 46.1484 0.54215 46.4258L24.5561 62.6671C26.536 64.0039 28.8703 64.7185 31.2592 64.7192C31.6401 64.7192 32.0209 64.7009 32.4033 64.6628L50.878 62.8789H58.8548V68.2566C58.8548 68.4627 58.9366 68.6603 59.0823 68.806C59.228 68.9517 59.4257 69.0336 59.6317 69.0336H69.5341C69.7401 69.0336 69.9377 68.9517 70.0835 68.806C70.2292 68.6603 70.311 68.4627 70.311 68.2566C70.311 68.0506 70.2292 67.853 70.0835 67.7072C69.9377 67.5615 69.7401 67.4797 69.5341 67.4797ZM12.815 22.4712H7.52864L31.6507 2.7473L38.75 8.55007C38.8634 8.64722 39.0025 8.70953 39.1505 8.72953C39.2985 8.74953 39.4491 8.72636 39.5843 8.6628C39.7195 8.59925 39.8334 8.49801 39.9124 8.37126C39.9914 8.24452 40.0321 8.09765 40.0297 7.94832V4.29207H46.3382V14.3696C46.338 14.4848 46.3635 14.5985 46.4128 14.7026C46.4621 14.8067 46.5339 14.8985 46.6231 14.9714L55.7896 22.4652H50.4941C50.2881 22.4652 50.0905 22.547 49.9448 22.6927C49.799 22.8384 49.7172 23.036 49.7172 23.2421V45.92C46.6827 43.5023 42.9713 42.0882 39.0973 41.8737V30.2027C39.0953 28.2471 38.3174 26.3722 36.9345 24.9895C35.5515 23.6068 33.6764 22.8293 31.7208 22.8277H31.5883C29.6329 22.8297 27.7583 23.6074 26.3756 24.99C24.993 26.3727 24.2153 28.2473 24.2133 30.2027V41.8448C23.3337 41.8555 22.4674 42.0614 21.6771 42.4476C20.8867 42.8339 20.192 43.3908 19.643 44.0782L13.5919 42.6172V23.2482C13.5919 23.0421 13.5101 22.8445 13.3644 22.6988C13.2186 22.5531 13.021 22.4712 12.815 22.4712ZM37.5434 41.8448H25.7672V30.2027C25.7688 28.6593 26.3826 27.1797 27.474 26.0884C28.5653 24.9971 30.0449 24.3833 31.5883 24.3816H31.7208C33.2643 24.3833 34.7441 24.997 35.8357 26.0883C36.9272 27.1795 37.5414 28.6592 37.5434 30.2027V41.8448ZM50.8049 61.325L32.2601 63.1166C29.8516 63.3463 27.4381 62.7324 25.4321 61.3798L1.41356 45.1446C1.33344 45.0908 1.27727 45.0081 1.25681 44.9138C1.23636 44.8195 1.25323 44.7209 1.30387 44.6388C1.83161 43.7739 2.62113 43.0995 3.55795 42.7136C4.49477 42.3276 5.53018 42.2501 6.51402 42.4923L18.8264 45.4782C18.597 46.134 18.6345 46.8538 18.9309 47.4822C19.2273 48.1106 19.7588 48.5973 20.4108 48.8374L36.4739 54.7437C36.5599 54.775 36.6506 54.791 36.7421 54.791C36.924 54.7903 37.1 54.7258 37.2393 54.6088C37.3786 54.4917 37.4723 54.3294 37.5042 54.1503C37.5362 53.9711 37.5042 53.7865 37.4139 53.6285C37.3236 53.4705 37.1807 53.3493 37.0102 53.2858L20.9395 47.3779C20.7971 47.3253 20.6672 47.2436 20.558 47.1381C20.4489 47.0325 20.363 46.9054 20.3057 46.7649C20.2483 46.6243 20.2209 46.4733 20.2251 46.3216C20.2293 46.1698 20.2651 46.0206 20.3301 45.8834C20.6857 45.1413 21.2434 44.5144 21.9392 44.0749C22.635 43.6354 23.4406 43.401 24.2636 43.3987H38.0598C42.2493 43.3972 46.2942 44.9297 49.4308 47.707L50.3631 48.5327C50.5052 48.6584 50.6884 48.7277 50.878 48.7277H58.8548V61.3219L50.8049 61.325Z" fill="#C06A87"/>
</svg>
