<svg width="72" height="72" viewBox="0 0 72 72" fill="none" xmlns="http://www.w3.org/2000/svg">
<g clip-path="url(#clip0_4155_18169)">
<path d="M20.3164 66.0713H51.6948V71.301H20.3164V66.0713Z" stroke="#FFB6A3" stroke-width="1.8" stroke-linejoin="round"/>
<path d="M32.082 66.0714V55.6119C32.082 54.1677 33.2527 52.9971 34.6969 52.9971H37.3118C38.7559 52.9971 39.9266 54.1677 39.9266 55.6119V66.0714" stroke="#FFB6A3" stroke-width="1.8" stroke-linejoin="round"/>
<path d="M39.9265 9.85198C39.9265 10.3671 39.8251 10.8773 39.628 11.3532C39.4309 11.829 39.142 12.2613 38.7778 12.6255C38.4135 12.9897 37.9811 13.2787 37.5053 13.4758C37.0294 13.6729 36.5194 13.7743 36.0043 13.7743C35.4892 13.7743 34.9792 13.6729 34.5033 13.4758C34.0274 13.2787 33.595 12.9897 33.2308 12.6255C32.8666 12.2613 32.5777 11.829 32.3806 11.3532C32.1835 10.8773 32.082 10.3671 32.082 9.85198C32.082 9.3369 32.1835 8.82699 32.3806 8.35112C32.5777 7.87524 32.8666 7.4427 33.2308 7.07848C33.595 6.71426 34.0274 6.42557 34.5033 6.22846C34.9792 6.03134 35.4892 5.92969 36.0043 5.92969C36.5194 5.92969 37.0294 6.03134 37.5053 6.22846C37.9811 6.42557 38.4135 6.71426 38.7778 7.07848C39.142 7.4427 39.4309 7.87524 39.628 8.35112C39.8251 8.82699 39.9265 9.3369 39.9265 9.85198Z" stroke="#FFB6A3" stroke-width="1.8" stroke-linejoin="round"/>
<path d="M36.0039 37.9609V52.3242" stroke="#FFB6A3" stroke-width="1.8" stroke-linecap="round" stroke-linejoin="round"/>
<path d="M36.0039 2.02441V5.91064" stroke="#FFB6A3" stroke-width="1.8" stroke-linecap="round" stroke-linejoin="round"/>
<path d="M32.0815 9.85156H9.85515M9.85515 9.85156L0.703125 38.6151V40.5762C0.703125 42.8301 1.59848 44.9917 3.19222 46.5854C4.78597 48.1792 6.94754 49.0745 9.20144 49.0745C10.3174 49.0745 11.4225 48.8549 12.4536 48.4278C13.4847 48.0008 14.4215 47.3746 15.2107 46.5854C15.9998 45.7963 16.6258 44.8596 17.0529 43.8285C17.4799 42.7975 17.6997 41.6922 17.6997 40.5762V38.6151L9.85515 9.85156Z" stroke="#FFB6A3" stroke-width="1.8" stroke-linejoin="round"/>
<path d="M0.703125 39.9229H17.6997" stroke="#FFB6A3" stroke-width="1.8"/>
<path d="M39.9258 9.85156H62.1521M62.1521 9.85156L71.3042 38.6151V40.5762C71.3042 42.8301 70.4088 44.9917 68.8151 46.5854C67.2213 48.1792 65.0597 49.0745 62.8058 49.0745C60.552 49.0745 58.3904 48.1792 56.7966 46.5854C55.2029 44.9917 54.3075 42.8301 54.3075 40.5762V38.6151L62.1521 9.85156Z" stroke="#FFB6A3" stroke-width="1.8" stroke-linejoin="round"/>
<path d="M54.3086 39.9219H71.3052" stroke="#FFB6A3" stroke-width="1.8"/>
<path d="M36.0039 14.4463V28.8095" stroke="#FFB6A3" stroke-width="1.8" stroke-linecap="round" stroke-linejoin="round"/>
<path d="M37.3102 33.3856C37.3102 33.7323 37.1724 34.0648 36.9272 34.31C36.682 34.5551 36.3495 34.693 36.0027 34.693C35.656 34.693 35.3234 34.5551 35.0782 34.31C34.8331 34.0648 34.6953 33.7323 34.6953 33.3856C34.6953 33.0388 34.8331 32.7064 35.0782 32.4612C35.3234 32.216 35.656 32.0781 36.0027 32.0781C36.3495 32.0781 36.682 32.216 36.9272 32.4612C37.1724 32.7064 37.3102 33.0388 37.3102 33.3856Z" fill="#FFB6A3"/>
</g>
<defs>
<clipPath id="clip0_4155_18169">
<rect width="72" height="72" fill="white"/>
</clipPath>
</defs>
</svg>
