<svg width="74" height="74" viewBox="0 0 74 74" fill="none" xmlns="http://www.w3.org/2000/svg">
<path d="M64.75 67.0625C66.6624 67.0625 68.2188 65.5062 68.2188 63.5938C68.2188 61.6813 66.6624 60.125 64.75 60.125C62.8376 60.125 61.2812 61.6813 61.2812 63.5938C61.2812 65.5062 62.8376 67.0625 64.75 67.0625ZM64.75 62.4375C65.3871 62.4375 65.9062 62.9555 65.9062 63.5938C65.9062 64.232 65.3871 64.75 64.75 64.75C64.1129 64.75 63.5938 64.232 63.5938 63.5938C63.5938 62.9555 64.1129 62.4375 64.75 62.4375Z" fill="#6B5E7A"/>
<path d="M55.5 67.0625C57.4124 67.0625 58.9688 65.5062 58.9688 63.5938C58.9688 61.6813 57.4124 60.125 55.5 60.125C53.5876 60.125 52.0312 61.6813 52.0312 63.5938C52.0312 65.5062 53.5876 67.0625 55.5 67.0625ZM55.5 62.4375C56.1371 62.4375 56.6562 62.9555 56.6562 63.5938C56.6562 64.232 56.1371 64.75 55.5 64.75C54.8629 64.75 54.3438 64.232 54.3438 63.5938C54.3438 62.9555 54.8629 62.4375 55.5 62.4375Z" fill="#6B5E7A"/>
<path d="M46.25 67.0625C48.1624 67.0625 49.7188 65.5062 49.7188 63.5938C49.7188 61.6813 48.1624 60.125 46.25 60.125C44.3376 60.125 42.7812 61.6813 42.7812 63.5938C42.7812 65.5062 44.3376 67.0625 46.25 67.0625ZM46.25 62.4375C46.8871 62.4375 47.4062 62.9555 47.4062 63.5938C47.4062 64.232 46.8871 64.75 46.25 64.75C45.6129 64.75 45.0938 64.232 45.0938 63.5938C45.0938 62.9555 45.6129 62.4375 46.25 62.4375Z" fill="#6B5E7A"/>
<path d="M30.5377 49.7188H31.2188H72.8438V43.0865C72.8438 39.501 70.4376 36.3051 66.9931 35.3096L65.9062 34.9962V15.0312C65.9062 7.38034 59.6822 1.15625 52.0312 1.15625C44.3803 1.15625 38.1562 7.38034 38.1562 15.0312V34.9962L37.0694 35.3096C36.6462 35.431 36.2392 35.5998 35.8414 35.7894C35.8114 28.1639 29.6012 21.9688 21.9688 21.9688C14.3178 21.9688 8.09375 28.1928 8.09375 35.8438V45.0938C8.09375 47.6444 10.1681 49.7188 12.7188 49.7188H13.3998C13.9987 51.193 14.9653 52.4776 16.1875 53.4592V55.7868L7.00688 58.4346C3.56241 59.4289 1.15625 62.626 1.15625 66.2115V72.8438H41.625H69.375C71.2874 72.8438 72.8438 71.2874 72.8438 69.375V57.8125C72.8438 55.9001 71.2874 54.3438 69.375 54.3438H67.5412L63.5938 50.3963L59.6463 54.3438H41.625C39.7126 54.3438 38.1562 55.9001 38.1562 57.8125V58.9132C37.7597 58.7236 37.3527 58.556 36.9306 58.4346L27.75 55.7868V53.4592C28.9722 52.4776 29.9388 51.193 30.5377 49.7188ZM31.139 47.4062C31.1864 47.027 31.2188 46.642 31.2188 46.25V42.7812C32.4941 42.7812 33.5312 43.8184 33.5312 45.0938C33.5312 46.3691 32.4941 47.4062 31.2188 47.4062H31.139ZM41.625 36.4022L46.4639 35.0055C47.0131 37.0717 48.6631 38.6858 50.7571 39.1599C50.2969 41.2284 48.455 42.7812 46.25 42.7812C43.6993 42.7812 41.625 40.7069 41.625 38.1562V36.4022ZM52.0312 30.0625C48.2052 30.0625 45.0938 26.951 45.0938 23.125V18.5C45.0938 17.8617 45.6129 17.3438 46.25 17.3438H57.8125C58.4496 17.3438 58.9688 17.8617 58.9688 18.5V23.125C58.9688 26.951 55.8573 30.0625 52.0312 30.0625ZM48.5625 31.694C49.6343 32.1299 50.8045 32.375 52.0312 32.375C53.258 32.375 54.4282 32.1299 55.5 31.694V33.5312C55.5 35.4437 53.9437 37 52.0312 37C50.1188 37 48.5625 35.4437 48.5625 33.5312V31.694ZM57.5986 35.0066L62.4375 36.4022V38.1562C62.4375 40.7069 60.3632 42.7812 57.8125 42.7812C55.6075 42.7812 53.7656 41.2284 53.3043 39.161C55.3994 38.687 57.0494 37.0717 57.5986 35.0066ZM57.8125 32.6617V30.3342C59.0347 29.3526 60.0013 28.068 60.6002 26.5938H61.2812C62.1276 26.5938 62.9104 26.3486 63.5938 25.9509V34.3291L57.8125 32.6617ZM61.2812 23.125V19.6562C62.5566 19.6562 63.5938 20.6934 63.5938 21.9688C63.5938 23.2441 62.5566 24.2812 61.2812 24.2812H61.2015C61.2489 23.902 61.2812 23.517 61.2812 23.125ZM52.0312 3.46875C58.4068 3.46875 63.5938 8.65569 63.5938 15.0312V17.9866C62.9104 17.5889 62.1276 17.3438 61.2812 17.3438H61.0685C60.5898 16.0013 59.3179 15.0312 57.8125 15.0312H46.25C44.7446 15.0312 43.4727 16.0013 42.994 17.3438H42.7812C41.9349 17.3438 41.1521 17.5889 40.4688 17.9866V15.0312C40.4688 8.65569 45.6557 3.46875 52.0312 3.46875ZM42.861 24.2812H42.7812C41.5059 24.2812 40.4688 23.2441 40.4688 21.9688C40.4688 20.6934 41.5059 19.6562 42.7812 19.6562V23.125C42.7812 23.517 42.8136 23.902 42.861 24.2812ZM40.4688 25.9509C41.1521 26.3486 41.9349 26.5938 42.7812 26.5938H43.4623C44.0612 28.068 45.0278 29.3526 46.25 30.3342V32.6617L40.4688 34.3291V25.9509ZM37.7099 37.5319L39.3125 37.0694V38.1562C39.3125 41.9823 42.424 45.0938 46.25 45.0938C48.6619 45.0938 50.7871 43.8554 52.0312 41.9834C53.2754 43.8566 55.4006 45.0938 57.8125 45.0938C61.6385 45.0938 64.75 41.9823 64.75 38.1562V37.0694L66.3526 37.5319C68.8131 38.2418 70.5312 40.5266 70.5312 43.0865V47.4062H35.2009C35.5986 46.7229 35.8438 45.9401 35.8438 45.0938V38.4684C36.4034 38.0464 37.0277 37.7284 37.7099 37.5319ZM21.9688 24.2812C28.3443 24.2812 33.5312 29.4682 33.5312 35.8438V41.1116C32.8479 40.7139 32.0651 40.4688 31.2188 40.4688V38.1562H30.0625C26.5833 38.1562 23.1343 37.0069 20.35 34.9188L19.3718 34.1845L18.3057 35.7848C17.316 37.2694 15.6591 38.1562 13.875 38.1562H12.7188V40.4688C11.8724 40.4688 11.0896 40.7139 10.4062 41.1116V35.8438C10.4062 29.4682 15.5932 24.2812 21.9688 24.2812ZM12.7188 47.4062C11.4434 47.4062 10.4062 46.3691 10.4062 45.0938C10.4062 43.8184 11.4434 42.7812 12.7188 42.7812V46.25C12.7188 46.642 12.7511 47.027 12.7985 47.4062H12.7188ZM15.0312 46.25V40.382C16.9818 40.0849 18.7451 39.0443 19.9499 37.4602C22.6186 39.198 25.7289 40.2306 28.9062 40.4317V46.25C28.9062 50.076 25.7948 53.1875 21.9688 53.1875C18.1427 53.1875 15.0312 50.076 15.0312 46.25ZM17.0084 57.9559L20.1534 61.102L15.9158 63.9267L15.1399 58.4947L17.0084 57.9559ZM25.0108 64.698L23.0013 66.7075L23.9563 70.5312H19.9812L20.9374 66.7075L18.9278 64.698L21.9688 62.6711L25.0108 64.698ZM3.46875 66.2115C3.46875 63.6516 5.18694 61.368 7.64744 60.6569L12.8968 59.1422L14.1456 67.8857L16.9645 66.0068L18.3751 67.4175L17.597 70.5312H3.46875V66.2115ZM40.4688 57.8125C40.4688 57.1743 40.9879 56.6562 41.625 56.6562H60.6037L63.5938 53.6662L66.5838 56.6562H69.375C70.0121 56.6562 70.5312 57.1743 70.5312 57.8125V69.375C70.5312 70.0133 70.0121 70.5312 69.375 70.5312H41.625C40.9879 70.5312 40.4688 70.0133 40.4688 69.375V57.8125ZM38.1562 61.5946V69.375C38.1562 69.782 38.2395 70.1682 38.369 70.5312H26.3405L25.5624 67.4175L26.973 66.0068L29.7919 67.8857L31.0407 59.1422L36.2912 60.6569C36.9722 60.8534 37.5955 61.1714 38.1562 61.5946ZM28.7976 58.4947L28.0217 63.9267L23.7841 61.102L26.9291 57.9559L28.7976 58.4947ZM25.4375 56.1776L21.9688 59.6463L18.5 56.1776V54.819C19.5718 55.2549 20.742 55.5 21.9688 55.5C23.1955 55.5 24.3657 55.2549 25.4375 54.819V56.1776Z" fill="#6B5E7A"/>
<path d="M4.625 19.6562H6.45881L10.4062 23.6037L14.3537 19.6562H32.375C34.2874 19.6562 35.8438 18.0999 35.8438 16.1875V4.625C35.8438 2.71256 34.2874 1.15625 32.375 1.15625H4.625C2.71256 1.15625 1.15625 2.71256 1.15625 4.625V16.1875C1.15625 18.0999 2.71256 19.6562 4.625 19.6562ZM3.46875 4.625C3.46875 3.98675 3.98791 3.46875 4.625 3.46875H32.375C33.0121 3.46875 33.5312 3.98675 33.5312 4.625V16.1875C33.5312 16.8257 33.0121 17.3437 32.375 17.3437H13.3963L10.4062 20.3338L7.41619 17.3437H4.625C3.98791 17.3437 3.46875 16.8257 3.46875 16.1875V4.625Z" fill="#6B5E7A"/>
<path d="M9.25 13.875C11.1624 13.875 12.7188 12.3187 12.7188 10.4062C12.7188 8.49381 11.1624 6.9375 9.25 6.9375C7.33756 6.9375 5.78125 8.49381 5.78125 10.4062C5.78125 12.3187 7.33756 13.875 9.25 13.875ZM9.25 9.25C9.88709 9.25 10.4062 9.768 10.4062 10.4062C10.4062 11.0445 9.88709 11.5625 9.25 11.5625C8.61291 11.5625 8.09375 11.0445 8.09375 10.4062C8.09375 9.768 8.61291 9.25 9.25 9.25Z" fill="#6B5E7A"/>
<path d="M18.5 13.875C20.4124 13.875 21.9688 12.3187 21.9688 10.4062C21.9688 8.49381 20.4124 6.9375 18.5 6.9375C16.5876 6.9375 15.0312 8.49381 15.0312 10.4062C15.0312 12.3187 16.5876 13.875 18.5 13.875ZM18.5 9.25C19.1371 9.25 19.6562 9.768 19.6562 10.4062C19.6562 11.0445 19.1371 11.5625 18.5 11.5625C17.8629 11.5625 17.3438 11.0445 17.3438 10.4062C17.3438 9.768 17.8629 9.25 18.5 9.25Z" fill="#6B5E7A"/>
<path d="M27.75 13.875C29.6624 13.875 31.2188 12.3187 31.2188 10.4062C31.2188 8.49381 29.6624 6.9375 27.75 6.9375C25.8376 6.9375 24.2812 8.49381 24.2812 10.4062C24.2812 12.3187 25.8376 13.875 27.75 13.875ZM27.75 9.25C28.3871 9.25 28.9062 9.768 28.9062 10.4062C28.9062 11.0445 28.3871 11.5625 27.75 11.5625C27.1129 11.5625 26.5938 11.0445 26.5938 10.4062C26.5938 9.768 27.1129 9.25 27.75 9.25Z" fill="#6B5E7A"/>
</svg>
