<svg width="73" height="66" viewBox="0 0 73 66" fill="none" xmlns="http://www.w3.org/2000/svg">
<path d="M16.1289 41.4395C16.1289 41.6166 16.1993 41.7865 16.3246 41.9118C16.4498 42.037 16.6197 42.1074 16.7969 42.1074H51.1222C51.2993 42.1074 51.4692 42.037 51.5945 41.9118C51.7198 41.7865 51.7901 41.6166 51.7901 41.4395C51.7901 41.2623 51.7198 41.0924 51.5945 40.9671C51.4692 40.8419 51.2993 40.7715 51.1222 40.7715H16.7969C16.6197 40.7715 16.4498 40.8419 16.3246 40.9671C16.1993 41.0924 16.1289 41.2623 16.1289 41.4395Z" fill="#C06A87"/>
<path d="M51.121 45.8262C51.2982 45.8262 51.4681 45.7558 51.5933 45.6305C51.7186 45.5053 51.789 45.3354 51.789 45.1582C51.789 44.981 51.7186 44.8111 51.5933 44.6859C51.4681 44.5606 51.2982 44.4902 51.121 44.4902H45.3008C45.1236 44.4902 44.9537 44.5606 44.8285 44.6859C44.7032 44.8111 44.6328 44.981 44.6328 45.1582C44.6328 45.3354 44.7032 45.5053 44.8285 45.6305C44.9537 45.7558 45.1236 45.8262 45.3008 45.8262H51.121Z" fill="#C06A87"/>
<path d="M42.6659 45.1582C42.6659 44.981 42.5955 44.8111 42.4702 44.6859C42.345 44.5606 42.1751 44.4902 41.9979 44.4902H16.7969C16.6197 44.4902 16.4498 44.5606 16.3246 44.6859C16.1993 44.8111 16.1289 44.981 16.1289 45.1582C16.1289 45.3354 16.1993 45.5053 16.3246 45.6305C16.4498 45.7558 16.6197 45.8262 16.7969 45.8262H41.9979C42.1751 45.8262 42.345 45.7558 42.4702 45.6305C42.5955 45.5053 42.6659 45.3354 42.6659 45.1582Z" fill="#C06A87"/>
<path d="M46.9151 51.9112L45.1743 51.9041C44.6752 51.9048 44.1967 52.1031 43.8435 52.4557C42.695 53.6167 41.9655 53.9557 41.7437 53.9478C41.8048 53.7099 41.8952 53.4805 42.013 53.2649C42.2426 52.7947 42.4801 52.3084 42.2064 51.8402C42.1213 51.7007 42.0014 51.5858 41.8585 51.5066C41.7156 51.4275 41.5546 51.3867 41.3913 51.3885C40.6408 51.3448 39.8164 51.9806 38.9455 52.6545C38.7639 52.7951 38.5381 52.9698 38.3298 53.1193C38.3534 53.0448 38.3772 52.9723 38.3983 52.9079C38.6642 52.0964 39.1096 50.7385 37.9308 50.118C37.1642 49.7146 36.096 50.1238 34.5692 51.406C33.9331 51.9465 33.3284 52.523 32.7581 53.1328C32.6401 53.2634 32.5785 53.4354 32.5867 53.6113C32.5948 53.7872 32.6721 53.9528 32.8017 54.072C32.9313 54.1912 33.1027 54.2544 33.2787 54.2479C33.4546 54.2414 33.6209 54.1656 33.7413 54.0371C35.1442 52.5132 36.8425 51.2216 37.3168 51.3051C37.4814 51.4163 37.2612 52.0879 37.1288 52.4917C36.9027 53.1812 36.669 53.8941 37.0981 54.4303C37.294 54.6752 37.7522 55.0125 38.6211 54.5219C39.0196 54.2776 39.4011 54.0066 39.7631 53.7109C39.9932 53.5329 40.326 53.2755 40.6329 53.0679C40.3833 53.6646 40.1813 54.5082 40.9737 55.0529C41.1939 55.205 41.456 55.2849 41.7236 55.2817C42.523 55.2817 43.5511 54.6508 44.7932 53.3952C44.8932 53.2961 45.0282 53.2403 45.169 53.2399L46.9096 53.247H46.9125C47.0896 53.2474 47.2597 53.1774 47.3852 53.0524C47.5107 52.9273 47.5814 52.7576 47.5818 52.5804C47.5821 52.4033 47.5121 52.2332 47.3871 52.1077C47.2621 51.9822 47.0923 51.9115 46.9151 51.9111L46.9151 51.9112Z" fill="#C06A87"/>
<path d="M51.1802 51.959H49.2227C49.0455 51.959 48.8756 52.0294 48.7503 52.1546C48.6251 52.2799 48.5547 52.4498 48.5547 52.627C48.5547 52.8041 48.6251 52.974 48.7503 53.0993C48.8756 53.2245 49.0455 53.2949 49.2227 53.2949H51.1802C51.3573 53.2949 51.5272 53.2245 51.6525 53.0993C51.7778 52.974 51.8481 52.8041 51.8481 52.627C51.8481 52.4498 51.7778 52.2799 51.6525 52.1546C51.5272 52.0294 51.3573 51.959 51.1802 51.959Z" fill="#C06A87"/>
<path d="M23.9364 35.9665H36.6189C36.796 35.9665 36.9659 35.8961 37.0912 35.7709C37.2164 35.6456 37.2868 35.4757 37.2868 35.2985C37.2868 35.1214 37.2164 34.9515 37.0912 34.8262C36.9659 34.7009 36.796 34.6306 36.6189 34.6306H23.9364C23.7575 34.6304 23.586 34.5592 23.4595 34.4327C23.3331 34.3063 23.2619 34.1348 23.2617 33.9559V26.5887C23.2619 26.4098 23.3331 26.2384 23.4595 26.1119C23.586 25.9854 23.7575 25.9143 23.9364 25.9141H42.5659C42.7448 25.9143 42.9163 25.9854 43.0427 26.1119C43.1692 26.2384 43.2403 26.4098 43.2405 26.5887V33.9559C43.2403 34.1348 43.1692 34.3063 43.0427 34.4327C42.9163 34.5592 42.7448 34.6304 42.5659 34.6306H40.0825C39.9053 34.6306 39.7354 34.7009 39.6102 34.8262C39.4849 34.9515 39.4145 35.1214 39.4145 35.2985C39.4145 35.4757 39.4849 35.6456 39.6102 35.7709C39.7354 35.8961 39.9053 35.9665 40.0825 35.9665H42.5659C43.099 35.9659 43.61 35.7539 43.987 35.377C44.3639 35 44.5759 34.489 44.5765 33.9559V26.5887C44.5759 26.0556 44.3639 25.5446 43.987 25.1677C43.61 24.7907 43.099 24.5787 42.5659 24.5781H23.9364C23.4033 24.5787 22.8922 24.7907 22.5153 25.1677C22.1384 25.5446 21.9264 26.0556 21.9258 26.5887V33.9559C21.9264 34.489 22.1384 35 22.5153 35.377C22.8922 35.7539 23.4033 35.9659 23.9364 35.9665Z" fill="#C06A87"/>
<path d="M71.7701 15.1144C72.3515 14.464 73.0105 13.7269 73.0105 12.762C73.0105 11.7972 72.3515 11.0602 71.7701 10.4098C71.4351 10.0348 71.0885 9.64717 70.9855 9.33C70.8734 8.98486 70.9256 8.44836 70.976 7.92956C71.0589 7.07778 71.1527 6.11235 70.6064 5.36176C70.0551 4.60421 69.1028 4.39561 68.2625 4.21166C67.7576 4.10105 67.2356 3.98668 66.9493 3.77838C66.6701 3.57514 66.4039 3.11853 66.1464 2.67697C65.7102 1.92855 65.2157 1.0804 64.3131 0.787365C63.4442 0.505334 62.5633 0.889119 61.7863 1.22803C61.3009 1.43967 60.799 1.6585 60.4224 1.6585C60.0459 1.6585 59.5441 1.43961 59.0588 1.22803C58.2819 0.889267 57.4012 0.505141 56.5319 0.787365C55.6293 1.08045 55.1348 1.92857 54.6986 2.67684C54.4412 3.11838 54.175 3.57501 53.8957 3.77825C53.6095 3.98655 53.0875 4.10092 52.5827 4.21154C51.7424 4.39548 50.79 4.60408 50.2386 5.36178C49.6923 6.11237 49.7862 7.07779 49.869 7.92942C49.9194 8.44823 49.9716 8.98472 49.8596 9.32987C49.7565 9.64704 49.41 10.0348 49.0749 10.4097C48.4935 11.0601 47.8346 11.7973 47.8346 12.7621C47.8358 13.0205 47.8829 13.2767 47.9737 13.5187H2.59344C2.16679 13.5191 1.75771 13.6887 1.45603 13.9904C1.15434 14.2921 0.984709 14.7011 0.984375 15.1278V63.7025C0.984705 64.1291 1.15434 64.5382 1.45602 64.8399C1.75771 65.1416 2.16679 65.3112 2.59344 65.3115H64.523C64.9497 65.3112 65.3588 65.1416 65.6605 64.8399C65.9622 64.5382 66.1318 64.1291 66.1321 63.7025V32.4638H69.3977C69.6542 32.4641 69.9038 32.3809 70.1088 32.2267C70.3138 32.0726 70.4631 31.8559 70.534 31.6094C70.6049 31.3629 70.5937 31.1001 70.502 30.8605C70.4102 30.621 70.243 30.4179 70.0256 30.2818C67.4695 28.7027 66.3471 25.4843 65.8664 23.3161C65.9641 23.1593 66.0567 23.0012 66.1465 22.8473C66.4039 22.4057 66.67 21.9491 66.9494 21.7459C67.2355 21.5375 67.7576 21.4232 68.2624 21.3126C69.1027 21.1286 70.0551 20.92 70.6064 20.1625C71.1527 19.4119 71.0589 18.4465 70.9761 17.5948C70.9256 17.076 70.8735 16.5394 70.9855 16.1942C71.0885 15.877 71.4349 15.4894 71.7701 15.1144ZM50.7955 30.2818C50.577 30.4148 50.4085 30.6163 50.3162 30.8549C50.2239 31.0935 50.2129 31.3559 50.2849 31.6014C50.3535 31.8503 50.5022 32.0697 50.708 32.2256C50.9138 32.3815 51.1652 32.4652 51.4234 32.4638H56.7954C56.8907 32.4638 56.9849 32.4434 57.0717 32.404C57.1585 32.3645 57.2359 32.307 57.2986 32.2352C57.3795 32.1412 58.6238 30.6837 59.681 27.7969V54.3865C58.5524 54.549 57.5067 55.0725 56.7002 55.8787C55.8938 56.6848 55.37 57.7304 55.2071 58.859H11.9094C11.7466 57.7306 11.223 56.6852 10.4168 55.8791C9.61071 55.0729 8.56532 54.5493 7.43695 54.3865V24.4437C8.56532 24.2809 9.6107 23.7573 10.4168 22.9512C11.223 22.145 11.7466 21.0997 11.9094 19.9713H50.1172C50.154 20.0372 50.1945 20.101 50.2385 20.1623C50.7899 20.92 51.7423 21.1286 52.5826 21.3126C53.0875 21.4232 53.6095 21.5375 53.8957 21.7458C54.1749 21.9491 54.4412 22.4057 54.6985 22.8472C54.7835 22.993 54.8709 23.1426 54.9628 23.2911C54.4864 25.4585 53.3669 28.6921 50.7955 30.2818ZM55.8409 25.1918C55.9148 24.9568 55.9807 24.7271 56.0418 24.5021C56.1942 24.6013 56.359 24.6803 56.5319 24.7369C57.4011 25.0193 58.2818 24.635 59.0588 24.2962C59.1416 24.2601 59.2246 24.2243 59.3078 24.1888C58.4967 28.1197 56.9841 30.4285 56.4688 31.1278H51.9326C53.6574 29.8914 55.0023 27.8503 55.8409 25.1918ZM64.6477 63.7025C64.6478 63.7189 64.6446 63.7351 64.6383 63.7502C64.632 63.7654 64.6229 63.7791 64.6113 63.7907C64.5997 63.8023 64.5859 63.8115 64.5708 63.8177C64.5557 63.824 64.5394 63.8272 64.523 63.8272H2.59344C2.56042 63.827 2.52882 63.8138 2.50547 63.7904C2.48213 63.7671 2.46893 63.7355 2.46875 63.7025V15.1278C2.46894 15.0948 2.48213 15.0632 2.50548 15.0398C2.52882 15.0165 2.56043 15.0033 2.59344 15.0031H48.9756C49.0089 15.0405 49.042 15.0776 49.0749 15.1144C49.41 15.4893 49.7565 15.877 49.8596 16.1942C49.9716 16.5394 49.9194 17.0759 49.869 17.5947C49.8409 17.8833 49.8122 18.185 49.8069 18.4869H11.2191C11.0223 18.487 10.8336 18.5652 10.6944 18.7044C10.5552 18.8436 10.477 19.0323 10.477 19.2291C10.4758 20.2319 10.077 21.1932 9.36794 21.9023C8.65889 22.6113 7.69752 23.0102 6.69477 23.0113C6.49795 23.0114 6.30921 23.0896 6.17004 23.2288C6.03087 23.3679 5.95265 23.5567 5.95258 23.7535V55.0768C5.95265 55.2736 6.03087 55.4623 6.17004 55.6015C6.30921 55.7407 6.49795 55.8189 6.69477 55.819C7.69752 55.8201 8.65889 56.2189 9.36794 56.928C10.077 57.637 10.4758 58.5984 10.477 59.6011C10.477 59.798 10.5552 59.9867 10.6944 60.1259C10.8336 60.265 11.0223 60.3433 11.2191 60.3433H55.8973C56.0942 60.3433 56.2829 60.265 56.4221 60.1259C56.5612 59.9867 56.6395 59.798 56.6395 59.6011C56.6407 58.5982 57.0398 57.6366 57.7492 56.9275C58.4585 56.2185 59.4202 55.8198 60.4232 55.819C60.62 55.8189 60.8088 55.7407 60.9479 55.6015C61.0871 55.4623 61.1653 55.2736 61.1654 55.0768V27.8617C62.217 30.7054 63.4426 32.1419 63.5241 32.2352C63.5867 32.3071 63.664 32.3647 63.7508 32.4041C63.8376 32.4436 63.9319 32.4639 64.0273 32.4638H64.6477V63.7025ZM68.8901 31.1279H64.3523C63.8354 30.4264 62.3205 28.1144 61.5113 24.1778C61.603 24.2167 61.6949 24.2564 61.7862 24.2963C62.3741 24.5527 63.0211 24.8348 63.6778 24.8348C63.8934 24.8359 64.1078 24.8029 64.313 24.7369C64.4787 24.6829 64.6369 24.6084 64.7841 24.5151C64.8445 24.7358 64.9094 24.961 64.9817 25.1919C65.8189 27.8504 67.1637 29.8914 68.8901 31.1279ZM70.6634 14.1252C70.2258 14.6148 69.7733 15.1211 69.5737 15.7359C69.3661 16.3751 69.4335 17.0682 69.4986 17.7385C69.5586 18.3559 69.6207 18.9943 69.4061 19.289C69.1867 19.5906 68.5553 19.7289 67.9448 19.8626C67.2904 20.0059 66.6137 20.1541 66.0758 20.5456C65.5446 20.9322 65.1986 21.5257 64.8641 22.0997C64.5467 22.6441 64.2186 23.2069 63.8547 23.3251C63.5203 23.4335 62.9408 23.1804 62.3797 22.9357C61.7548 22.6632 61.1086 22.3814 60.4225 22.3814C59.7364 22.3814 59.0904 22.6632 58.4654 22.9357C57.9043 23.1804 57.324 23.4335 56.9903 23.3251C56.6264 23.2069 56.2983 22.6441 55.9809 22.0997C55.6463 21.5259 55.3004 20.9323 54.7691 20.5456C54.2312 20.1542 53.5546 20.0059 52.9003 19.8627C52.2897 19.7289 51.6584 19.5906 51.4388 19.2888C51.2243 18.9941 51.2864 18.3557 51.3464 17.7383C51.4117 17.0682 51.479 16.3751 51.2714 15.7359C51.0718 15.1211 50.6193 14.6148 50.1817 14.1253C49.7576 13.6507 49.319 13.1602 49.319 12.7621C49.319 12.3641 49.7576 11.8735 50.1817 11.3989C50.6193 10.9094 51.0718 10.403 51.2714 9.78827C51.479 9.149 51.4117 8.45596 51.3465 7.78585C51.2865 7.16847 51.2244 6.53007 51.4389 6.23536C51.6584 5.93356 52.2898 5.79528 52.9004 5.66147C53.5547 5.51826 54.2313 5.36997 54.7692 4.97857C55.3006 4.59198 55.6465 3.99851 55.981 3.42462C56.2984 2.8803 56.6265 2.31743 56.9904 2.19929C57.0495 2.18116 57.1111 2.17245 57.1729 2.17349C57.5134 2.17349 57.9962 2.38397 58.4655 2.58865C59.0904 2.86117 59.7366 3.14296 60.4226 3.14296C61.1086 3.14296 61.7548 2.86117 62.3798 2.58865C62.941 2.34395 63.5214 2.09072 63.8549 2.19929C64.2188 2.31743 64.5469 2.8803 64.8642 3.42462C65.1989 3.99851 65.5448 4.59211 66.0761 4.97877C66.614 5.3703 67.2907 5.51845 67.945 5.66182C68.5556 5.79541 69.1869 5.93375 69.4064 6.23541C69.6209 6.53012 69.5589 7.16852 69.4988 7.7859C69.4336 8.45618 69.3663 9.14922 69.5739 9.7885C69.7735 10.4033 70.226 10.9096 70.6636 11.3991C71.0877 11.8736 71.5262 12.3643 71.5262 12.7622C71.5262 13.1601 71.0876 13.6508 70.6634 14.1252Z" fill="#C06A87"/>
<path d="M60.5622 5.27668C59.0818 5.24925 57.6266 5.66144 56.3805 6.46111C55.1343 7.26078 54.1533 8.41201 53.5615 9.76922C52.9697 11.1264 52.7936 12.6287 53.0556 14.0859C53.3176 15.5432 54.0058 16.8901 55.0332 17.9562C55.7327 18.6802 56.5707 19.2562 57.4973 19.6499C58.4239 20.0435 59.4202 20.2468 60.427 20.2476C60.4862 20.2476 60.5456 20.2469 60.6049 20.2456C60.8017 20.2409 60.9886 20.1582 61.1244 20.0157C61.2602 19.8732 61.3339 19.6826 61.3292 19.4858C61.3245 19.289 61.2418 19.1021 61.0993 18.9663C60.9568 18.8305 60.7662 18.7568 60.5694 18.7615C59.3609 18.7909 58.1716 18.4546 57.1574 17.7966C56.1432 17.1387 55.3513 16.1898 54.8855 15.0743C54.4196 13.9588 54.3015 12.7285 54.5466 11.5447C54.7917 10.3609 55.3886 9.27873 56.2591 8.43988C57.2616 7.47424 58.5684 6.88696 59.9561 6.77853C61.3437 6.67009 62.7259 7.04723 63.8662 7.84543C65.0065 8.64363 65.8339 9.81326 66.207 11.1542C66.58 12.4952 66.4755 13.9241 65.9113 15.1965C65.8315 15.3764 65.8265 15.5807 65.8974 15.7644C65.9682 15.948 66.1091 16.096 66.2891 16.1758C66.469 16.2556 66.6733 16.2606 66.857 16.1898C67.0406 16.1189 67.1886 15.978 67.2684 15.7981C67.769 14.6689 67.9825 13.4333 67.8898 12.2016C67.7972 10.9699 67.4013 9.78024 66.7374 8.73863C66.0735 7.69702 65.1622 6.83583 64.0848 6.2318C63.0073 5.62776 61.7972 5.29964 60.5622 5.27668Z" fill="#C06A87"/>
<path d="M64.5893 17.0828C64.0462 17.608 63.4084 18.0254 62.7097 18.3129C62.6185 18.3492 62.5354 18.4033 62.4653 18.4719C62.3951 18.5406 62.3393 18.6224 62.301 18.7128C62.2627 18.8032 62.2427 18.9003 62.2422 18.9984C62.2417 19.0966 62.2606 19.1938 62.2979 19.2846C62.3353 19.3754 62.3902 19.4579 62.4597 19.5273C62.5291 19.5967 62.6116 19.6516 62.7024 19.6889C62.7931 19.7262 62.8904 19.7451 62.9886 19.7446C63.0867 19.744 63.1838 19.724 63.2742 19.6857C64.1459 19.3273 64.9417 18.8068 65.6194 18.1517C65.7611 18.0151 65.8428 17.8278 65.8464 17.631C65.8501 17.4342 65.7754 17.2439 65.6388 17.1022C65.5022 16.9605 65.3149 16.8788 65.1181 16.8751C64.9213 16.8715 64.7311 16.9462 64.5893 17.0828Z" fill="#C06A87"/>
<path d="M63.2102 14.725L62.8435 13.5968L63.8032 12.8995C64.0062 12.752 64.1573 12.5441 64.2349 12.3054C64.3124 12.0668 64.3124 11.8097 64.2349 11.571C64.1574 11.3324 64.0063 11.1244 63.8033 10.9769C63.6003 10.8294 63.3558 10.7499 63.1049 10.7499H61.9185L61.552 9.6217C61.4744 9.38308 61.3233 9.17514 61.1203 9.02767C60.9173 8.88021 60.6728 8.80078 60.4219 8.80078C60.171 8.80078 59.9266 8.88021 59.7236 9.02767C59.5206 9.17514 59.3694 9.38308 59.2919 9.6217L58.9254 10.7499H57.739C57.4881 10.7499 57.2436 10.8294 57.0406 10.9769C56.8376 11.1244 56.6865 11.3324 56.6089 11.571C56.5314 11.8097 56.5314 12.0667 56.6089 12.3054C56.6865 12.544 56.8376 12.752 57.0406 12.8995L58.0003 13.5968L57.6338 14.725C57.5559 14.9637 57.5556 15.2209 57.6331 15.4597C57.7105 15.6986 57.8616 15.9067 58.0648 16.0543C58.2679 16.2019 58.5126 16.2813 58.7636 16.2811C59.0147 16.2809 59.2593 16.2012 59.4622 16.0534L60.4219 15.3561L61.3816 16.0534C61.5846 16.2008 61.8291 16.2803 62.08 16.2803C62.3309 16.2803 62.5754 16.2009 62.7784 16.0534C62.9814 15.9059 63.1325 15.6979 63.2101 15.4593C63.2876 15.2207 63.2877 14.9636 63.2102 14.725ZM61.9715 12.579C61.7681 12.7262 61.6168 12.9341 61.5392 13.1729C61.4616 13.4116 61.4618 13.6688 61.5398 13.9074L61.7991 14.7053L61.1204 14.2124C60.9176 14.0645 60.6731 13.9847 60.422 13.9847C60.171 13.9847 59.9264 14.0644 59.7235 14.2123L59.0449 14.7053L59.304 13.9076C59.3821 13.669 59.3823 13.4118 59.3048 13.173C59.2272 12.9342 59.0758 12.7263 58.8725 12.5791L58.1936 12.0859H59.0327C59.2837 12.0864 59.5283 12.0071 59.7314 11.8596C59.9345 11.7121 60.0856 11.5039 60.1628 11.2651L60.4219 10.4671L60.6813 11.2652C60.7585 11.504 60.9095 11.7122 61.1125 11.8597C61.3156 12.0072 61.5602 12.0864 61.8112 12.086H62.6503L61.9715 12.579Z" fill="#C06A87"/>
</svg>
