<svg width="48" height="66" viewBox="0 0 48 66" fill="none" xmlns="http://www.w3.org/2000/svg">
<path d="M46.5 4.875H33V1.5C33 1.20163 32.8815 0.915483 32.6705 0.704505C32.4595 0.493526 32.1734 0.375 31.875 0.375H16.125C15.8266 0.375 15.5405 0.493526 15.3295 0.704505C15.1185 0.915483 15 1.20163 15 1.5V4.875H1.5C1.20163 4.875 0.915484 4.99353 0.704505 5.2045C0.493527 5.41548 0.375 5.70163 0.375 6V64.5C0.375 64.7984 0.493527 65.0845 0.704505 65.2955C0.915484 65.5065 1.20163 65.625 1.5 65.625H46.5C46.7984 65.625 47.0845 65.5065 47.2955 65.2955C47.5065 65.0845 47.625 64.7984 47.625 64.5V6C47.625 5.70163 47.5065 5.41548 47.2955 5.2045C47.0845 4.99353 46.7984 4.875 46.5 4.875ZM16.125 11.625H40.875V54.375H7.125V11.625H16.125ZM17.25 2.625H30.75V9.375H17.25V2.625ZM45.375 63.375H2.625V7.125H15V9.375H6C5.70163 9.375 5.41548 9.49353 5.2045 9.7045C4.99353 9.91548 4.875 10.2016 4.875 10.5V55.5C4.875 55.7984 4.99353 56.0845 5.2045 56.2955C5.41548 56.5065 5.70163 56.625 6 56.625H42C42.2984 56.625 42.5845 56.5065 42.7955 56.2955C43.0065 56.0845 43.125 55.7984 43.125 55.5V10.5C43.125 10.2016 43.0065 9.91548 42.7955 9.7045C42.5845 9.49353 42.2984 9.375 42 9.375H33V7.125H45.375V63.375Z" fill="#FFB6A3"/>
<path d="M18.375 21.75H19.725C19.8418 22.1253 20.0099 22.4827 20.2245 22.812L19.23 23.8065C19.1226 23.9103 19.0368 24.0344 18.9779 24.1717C18.9189 24.3089 18.8879 24.4565 18.8866 24.6059C18.8853 24.7553 18.9138 24.9034 18.9703 25.0417C19.0269 25.18 19.1104 25.3056 19.2161 25.4112C19.3217 25.5168 19.4473 25.6004 19.5856 25.6569C19.7238 25.7135 19.872 25.742 20.0213 25.7407C20.1707 25.7394 20.3183 25.7083 20.4556 25.6494C20.5928 25.5904 20.717 25.5047 20.8207 25.3973L21.9221 24.2959C22.226 24.4517 22.5464 24.5728 22.8773 24.657V26.25C22.8773 26.5484 22.9958 26.8345 23.2068 27.0455C23.4177 27.2565 23.7039 27.375 24.0022 27.375C24.3006 27.375 24.5868 27.2565 24.7977 27.0455C25.0087 26.8345 25.1272 26.5484 25.1272 26.25V24.657C25.4581 24.5728 25.7785 24.4517 26.0824 24.2959L27.1838 25.3984C27.3959 25.6033 27.6801 25.7167 27.9751 25.7141C28.27 25.7116 28.5522 25.5933 28.7608 25.3847C28.9694 25.1761 29.0877 24.8939 29.0903 24.599C29.0928 24.304 28.9794 24.0198 28.7745 23.8076L27.7789 22.812C27.9925 22.4826 28.1594 22.1252 28.275 21.75H29.625C29.9234 21.75 30.2095 21.6315 30.4205 21.4205C30.6315 21.2095 30.75 20.9234 30.75 20.625C30.75 20.3266 30.6315 20.0405 30.4205 19.8295C30.2095 19.6185 29.9234 19.5 29.625 19.5H28.3785C28.2758 19.0861 28.1112 18.6902 27.8903 18.3255L28.7734 17.4435C28.9783 17.2313 29.0917 16.9471 29.0891 16.6522C29.0866 16.3572 28.9683 16.075 28.7597 15.8665C28.5511 15.6579 28.2689 15.5396 27.974 15.537C27.679 15.5344 27.3948 15.6478 27.1826 15.8527L26.2826 16.7528C25.9205 16.5421 25.5309 16.3827 25.125 16.2791V15C25.125 14.7016 25.0065 14.4155 24.7955 14.2045C24.5845 13.9935 24.2984 13.875 24 13.875C23.7016 13.875 23.4155 13.9935 23.2045 14.2045C22.9935 14.4155 22.875 14.7016 22.875 15V16.2791C22.468 16.3806 22.0772 16.5385 21.714 16.7483L20.814 15.8482C20.6018 15.6433 20.3176 15.5299 20.0227 15.5325C19.7277 15.5351 19.4455 15.6534 19.237 15.862C19.0284 16.0705 18.9101 16.3527 18.9075 16.6477C18.9049 16.9426 19.0183 17.2268 19.2232 17.439L20.1053 18.321C19.8852 18.6872 19.7221 19.0848 19.6215 19.5H18.375C18.0766 19.5 17.7905 19.6185 17.5795 19.8295C17.3685 20.0405 17.25 20.3266 17.25 20.625C17.25 20.9234 17.3685 21.2095 17.5795 21.4205C17.7905 21.6315 18.0766 21.75 18.375 21.75ZM22.4093 19.0343C22.4363 19.0073 22.4464 18.9712 22.47 18.9431C22.8955 18.5766 23.4384 18.3751 24 18.3751C24.5616 18.3751 25.1045 18.5766 25.53 18.9431C25.5536 18.9712 25.5638 19.0073 25.5908 19.0343C25.6217 19.0576 25.654 19.079 25.6875 19.0984C26.0435 19.4658 26.2448 19.9559 26.25 20.4675C26.2097 21.0367 25.9552 21.5696 25.5377 21.9586C25.1201 22.3476 24.5707 22.5639 24 22.5639C23.4293 22.5639 22.8799 22.3476 22.4623 21.9586C22.0448 21.5696 21.7903 21.0367 21.75 20.4675C21.7552 19.9559 21.9565 19.4658 22.3125 19.0984C22.346 19.079 22.3783 19.0576 22.4093 19.0343Z" fill="#FFB6A3"/>
<path d="M10.5 36.375H12.75V38.625C12.75 38.9234 12.8685 39.2095 13.0795 39.4205C13.2905 39.6315 13.5766 39.75 13.875 39.75C14.1734 39.75 14.4595 39.6315 14.6705 39.4205C14.8815 39.2095 15 38.9234 15 38.625V36.375H17.25C17.5484 36.375 17.8345 36.2565 18.0455 36.0455C18.2565 35.8345 18.375 35.5484 18.375 35.25C18.375 34.9516 18.2565 34.6655 18.0455 34.4545C17.8345 34.2435 17.5484 34.125 17.25 34.125H15V31.875C15 31.5766 14.8815 31.2905 14.6705 31.0795C14.4595 30.8685 14.1734 30.75 13.875 30.75C13.5766 30.75 13.2905 30.8685 13.0795 31.0795C12.8685 31.2905 12.75 31.5766 12.75 31.875V34.125H10.5C10.2016 34.125 9.91548 34.2435 9.7045 34.4545C9.49353 34.6655 9.375 34.9516 9.375 35.25C9.375 35.5484 9.49353 35.8345 9.7045 36.0455C9.91548 36.2565 10.2016 36.375 10.5 36.375Z" fill="#FFB6A3"/>
<path d="M10.5 48.75H17.25C17.5484 48.75 17.8345 48.6315 18.0455 48.4205C18.2565 48.2095 18.375 47.9234 18.375 47.625C18.375 47.3266 18.2565 47.0405 18.0455 46.8295C17.8345 46.6185 17.5484 46.5 17.25 46.5H10.5C10.2016 46.5 9.91548 46.6185 9.7045 46.8295C9.49353 47.0405 9.375 47.3266 9.375 47.625C9.375 47.9234 9.49353 48.2095 9.7045 48.4205C9.91548 48.6315 10.2016 48.75 10.5 48.75Z" fill="#FFB6A3"/>
<path d="M27.375 31.8752V38.6252C27.375 38.9236 27.4935 39.2097 27.7045 39.4207C27.9155 39.6317 28.2016 39.7502 28.5 39.7502H35.25C35.5484 39.7502 35.8345 39.6317 36.0455 39.4207C36.2565 39.2097 36.375 38.9236 36.375 38.6252V32.3522L38.3494 30.082C38.4463 29.9704 38.5203 29.8409 38.5671 29.7007C38.614 29.5606 38.6328 29.4126 38.6224 29.2652C38.6121 29.1178 38.5728 28.9739 38.5069 28.8417C38.4409 28.7094 38.3495 28.5915 38.238 28.4946C38.1265 28.3977 37.9969 28.3237 37.8568 28.2768C37.7166 28.23 37.5686 28.2112 37.4212 28.2215C37.2738 28.2319 37.1299 28.2711 36.9977 28.3371C36.8655 28.4031 36.7475 28.4944 36.6506 28.606L34.7865 30.7502H28.5C28.2016 30.7502 27.9155 30.8687 27.7045 31.0797C27.4935 31.2907 27.375 31.5768 27.375 31.8752ZM34.125 37.5002H29.625V35.8037L31.3125 36.7847C31.5389 36.9168 31.8043 36.9657 32.0629 36.923C32.3215 36.8803 32.557 36.7486 32.7289 36.5507L34.125 34.9397V37.5002ZM32.8301 33.0002L31.6376 34.3716L29.625 33.1971V33.0002H32.8301Z" fill="#FFB6A3"/>
<path d="M35.25 43.125H28.5C28.2016 43.125 27.9155 43.2435 27.7045 43.4545C27.4935 43.6655 27.375 43.9516 27.375 44.25V51C27.375 51.2984 27.4935 51.5845 27.7045 51.7955C27.9155 52.0065 28.2016 52.125 28.5 52.125H35.25C35.5484 52.125 35.8345 52.0065 36.0455 51.7955C36.2565 51.5845 36.375 51.2984 36.375 51V44.25C36.375 43.9516 36.2565 43.6655 36.0455 43.4545C35.8345 43.2435 35.5484 43.125 35.25 43.125ZM34.125 49.875H29.625V45.375H34.125V49.875Z" fill="#FFB6A3"/>
</svg>
