<svg width="80" height="22" viewBox="0 0 80 22" fill="none" xmlns="http://www.w3.org/2000/svg">
<path d="M16.928 16.154C16.116 16.154 15.3973 15.9813 14.772 15.636C14.156 15.2907 13.6707 14.8147 13.316 14.208C12.9707 13.592 12.798 12.892 12.798 12.108V6.116H15.01V12.234C15.01 12.626 15.094 12.9667 15.262 13.256C15.43 13.5453 15.6587 13.7693 15.948 13.928C16.2467 14.0773 16.5733 14.152 16.928 14.152C17.3013 14.152 17.628 14.0773 17.908 13.928C18.188 13.7693 18.4073 13.55 18.566 13.27C18.734 12.9807 18.818 12.64 18.818 12.248V6.116H21.03V12.122C21.03 12.906 20.8573 13.6013 20.512 14.208C20.1667 14.8147 19.686 15.2907 19.07 15.636C18.454 15.9813 17.74 16.154 16.928 16.154ZM27.0801 16V12.122C27.0801 11.7673 26.9681 11.4827 26.7441 11.268C26.5294 11.044 26.2541 10.932 25.9181 10.932C25.6847 10.932 25.4794 10.9833 25.3021 11.086C25.1247 11.1793 24.9847 11.3193 24.8821 11.506C24.7794 11.6833 24.7281 11.8887 24.7281 12.122L23.9021 11.716C23.9021 11.184 24.0187 10.7173 24.2521 10.316C24.4854 9.91467 24.8074 9.60667 25.2181 9.392C25.6381 9.168 26.1094 9.056 26.6321 9.056C27.1361 9.056 27.5794 9.17733 27.9621 9.42C28.3541 9.65333 28.6621 9.966 28.8861 10.358C29.1101 10.75 29.2221 11.1793 29.2221 11.646V16H27.0801ZM22.5861 16V9.196H24.7281V16H22.5861ZM32.7398 16L29.8558 9.196H32.1658L34.1258 14.866H33.1178L35.0778 9.196H37.3458L34.4618 16H32.7398ZM41.2996 16.154C40.5623 16.154 39.9043 16.0047 39.3256 15.706C38.7563 15.398 38.3083 14.9733 37.9816 14.432C37.6549 13.8907 37.4916 13.2793 37.4916 12.598C37.4916 11.9167 37.6503 11.31 37.9676 10.778C38.2943 10.2367 38.7329 9.812 39.2836 9.504C39.8343 9.196 40.4549 9.042 41.1456 9.042C41.8176 9.042 42.4103 9.18667 42.9236 9.476C43.4369 9.76533 43.8383 10.1667 44.1276 10.68C44.4263 11.1933 44.5756 11.7813 44.5756 12.444C44.5756 12.5653 44.5663 12.696 44.5476 12.836C44.5383 12.9667 44.5149 13.1207 44.4776 13.298L38.6116 13.312V11.842L43.5676 11.828L42.6436 12.444C42.6343 12.052 42.5736 11.73 42.4616 11.478C42.3496 11.2167 42.1816 11.0207 41.9576 10.89C41.7429 10.75 41.4769 10.68 41.1596 10.68C40.8236 10.68 40.5296 10.7593 40.2776 10.918C40.0349 11.0673 39.8436 11.282 39.7036 11.562C39.5729 11.842 39.5076 12.1827 39.5076 12.584C39.5076 12.9853 39.5776 13.3307 39.7176 13.62C39.8669 13.9 40.0723 14.1193 40.3336 14.278C40.6043 14.4273 40.9216 14.502 41.2856 14.502C41.6216 14.502 41.9249 14.446 42.1956 14.334C42.4663 14.2127 42.7043 14.0353 42.9096 13.802L44.0856 14.978C43.7496 15.37 43.3436 15.664 42.8676 15.86C42.3916 16.056 41.8689 16.154 41.2996 16.154ZM45.6095 16V9.196H47.7515V16H45.6095ZM47.7515 12.262L46.8555 11.562C47.0328 10.7687 47.3315 10.1527 47.7515 9.714C48.1715 9.27533 48.7548 9.056 49.5015 9.056C49.8282 9.056 50.1128 9.10733 50.3555 9.21C50.6075 9.30333 50.8268 9.45267 51.0135 9.658L49.7395 11.268C49.6462 11.1653 49.5295 11.086 49.3895 11.03C49.2495 10.974 49.0908 10.946 48.9135 10.946C48.5588 10.946 48.2742 11.058 48.0595 11.282C47.8542 11.4967 47.7515 11.8233 47.7515 12.262ZM51.5841 16V9.196H53.7261V16H51.5841ZM52.6621 8.258C52.3261 8.258 52.0461 8.146 51.8221 7.922C51.6075 7.68867 51.5001 7.40867 51.5001 7.082C51.5001 6.746 51.6075 6.466 51.8221 6.242C52.0461 6.018 52.3261 5.906 52.6621 5.906C52.9981 5.906 53.2735 6.018 53.4881 6.242C53.7028 6.466 53.8101 6.746 53.8101 7.082C53.8101 7.40867 53.7028 7.68867 53.4881 7.922C53.2735 8.146 52.9981 8.258 52.6621 8.258ZM56.1025 16V8.468C56.1025 7.94533 56.2192 7.474 56.4525 7.054C56.6858 6.634 57.0125 6.30267 57.4325 6.06C57.8618 5.808 58.3705 5.682 58.9585 5.682C59.2758 5.682 59.5652 5.724 59.8265 5.808C60.0878 5.892 60.3398 6.02733 60.5825 6.214L59.5185 7.782C59.4252 7.71667 59.3318 7.67 59.2385 7.642C59.1545 7.614 59.0612 7.6 58.9585 7.6C58.7252 7.6 58.5478 7.67 58.4265 7.81C58.3052 7.94067 58.2445 8.12267 58.2445 8.356V16H56.1025ZM54.6045 11.016V9.196H61.4505V11.016H54.6045ZM60.5545 16V9.196H62.6965V16H60.5545ZM61.6325 8.706C61.3152 8.706 61.0492 8.59867 60.8345 8.384C60.6292 8.16 60.5265 7.88933 60.5265 7.572C60.5265 7.25467 60.6292 6.98867 60.8345 6.774C61.0492 6.55933 61.3152 6.452 61.6325 6.452C61.9592 6.452 62.2252 6.55933 62.4305 6.774C62.6358 6.98867 62.7385 7.25467 62.7385 7.572C62.7385 7.88933 62.6358 8.16 62.4305 8.384C62.2252 8.59867 61.9592 8.706 61.6325 8.706ZM67.5496 16.154C66.8123 16.154 66.1543 16.0047 65.5756 15.706C65.0063 15.398 64.5583 14.9733 64.2316 14.432C63.9049 13.8907 63.7416 13.2793 63.7416 12.598C63.7416 11.9167 63.9003 11.31 64.2176 10.778C64.5443 10.2367 64.9829 9.812 65.5336 9.504C66.0843 9.196 66.7049 9.042 67.3956 9.042C68.0676 9.042 68.6603 9.18667 69.1736 9.476C69.6869 9.76533 70.0883 10.1667 70.3776 10.68C70.6763 11.1933 70.8256 11.7813 70.8256 12.444C70.8256 12.5653 70.8163 12.696 70.7976 12.836C70.7883 12.9667 70.7649 13.1207 70.7276 13.298L64.8616 13.312V11.842L69.8176 11.828L68.8936 12.444C68.8843 12.052 68.8236 11.73 68.7116 11.478C68.5996 11.2167 68.4316 11.0207 68.2076 10.89C67.9929 10.75 67.7269 10.68 67.4096 10.68C67.0736 10.68 66.7796 10.7593 66.5276 10.918C66.2849 11.0673 66.0936 11.282 65.9536 11.562C65.8229 11.842 65.7576 12.1827 65.7576 12.584C65.7576 12.9853 65.8276 13.3307 65.9676 13.62C66.1169 13.9 66.3223 14.1193 66.5836 14.278C66.8543 14.4273 67.1716 14.502 67.5356 14.502C67.8716 14.502 68.1749 14.446 68.4456 14.334C68.7163 14.2127 68.9543 14.0353 69.1596 13.802L70.3356 14.978C69.9996 15.37 69.5936 15.664 69.1176 15.86C68.6416 16.056 68.1189 16.154 67.5496 16.154ZM74.7575 16.14C74.1135 16.14 73.5395 15.986 73.0355 15.678C72.5408 15.37 72.1488 14.95 71.8595 14.418C71.5795 13.886 71.4395 13.2793 71.4395 12.598C71.4395 11.9167 71.5795 11.31 71.8595 10.778C72.1488 10.246 72.5408 9.826 73.0355 9.518C73.5395 9.21 74.1135 9.056 74.7575 9.056C75.2242 9.056 75.6442 9.14467 76.0175 9.322C76.4002 9.49933 76.7128 9.74667 76.9555 10.064C77.2075 10.372 77.3475 10.7267 77.3755 11.128V13.998C77.3475 14.3993 77.2122 14.7633 76.9695 15.09C76.7268 15.4073 76.4142 15.664 76.0315 15.86C75.6488 16.0467 75.2242 16.14 74.7575 16.14ZM75.1355 14.208C75.4435 14.208 75.7095 14.1427 75.9335 14.012C76.1575 13.872 76.3348 13.6807 76.4655 13.438C76.5962 13.1953 76.6615 12.9153 76.6615 12.598C76.6615 12.2807 76.5962 12.0053 76.4655 11.772C76.3442 11.5293 76.1668 11.338 75.9335 11.198C75.7095 11.058 75.4482 10.988 75.1495 10.988C74.8508 10.988 74.5848 11.058 74.3515 11.198C74.1275 11.338 73.9455 11.5293 73.8055 11.772C73.6748 12.0147 73.6095 12.29 73.6095 12.598C73.6095 12.906 73.6748 13.1813 73.8055 13.424C73.9362 13.6667 74.1182 13.858 74.3515 13.998C74.5848 14.138 74.8462 14.208 75.1355 14.208ZM78.6775 16H76.5775V14.166L76.8995 12.514L76.5355 10.862V5.836H78.6775V16Z" fill="#F2727F"/>
<path d="M0.4 12C0.4 9.45949 2.45949 7.4 5 7.4C7.54051 7.4 9.6 9.45949 9.6 12C9.6 14.5405 7.54051 16.6 5 16.6C2.45949 16.6 0.4 14.5405 0.4 12Z" stroke="#F4B7C5" stroke-width="0.8"/>
<path d="M4.656 13.048L4.624 11.512H4.904C5.05867 11.512 5.192 11.4853 5.304 11.432C5.42133 11.3733 5.512 11.2907 5.576 11.184C5.64 11.0773 5.672 10.9547 5.672 10.816C5.672 10.6773 5.64 10.5573 5.576 10.456C5.51733 10.3547 5.432 10.2773 5.32 10.224C5.208 10.1653 5.07467 10.136 4.92 10.136C4.70667 10.136 4.51467 10.1973 4.344 10.32C4.17333 10.4373 4.03733 10.6053 3.936 10.824L3.224 10.2C3.384 9.864 3.61333 9.60267 3.912 9.416C4.216 9.224 4.57067 9.128 4.976 9.128C5.31733 9.128 5.61867 9.2 5.88 9.344C6.14667 9.48267 6.352 9.67467 6.496 9.92C6.64533 10.16 6.72 10.4347 6.72 10.744C6.72 11.0427 6.656 11.304 6.528 11.528C6.4 11.752 6.224 11.936 6 12.08C5.776 12.224 5.51467 12.3253 5.216 12.384L5.592 11.952L5.52 13.048H4.656ZM5.08 15.08C4.89333 15.08 4.736 15.016 4.608 14.888C4.48533 14.76 4.424 14.6027 4.424 14.416C4.424 14.2293 4.48533 14.072 4.608 13.944C4.736 13.816 4.89333 13.752 5.08 13.752C5.272 13.752 5.42933 13.816 5.552 13.944C5.67467 14.072 5.736 14.2293 5.736 14.416C5.736 14.6027 5.67467 14.76 5.552 14.888C5.42933 15.016 5.272 15.08 5.08 15.08Z" fill="#F4B7C5"/>
</svg>
