<svg width="19" height="19" viewBox="0 0 19 19" fill="none" xmlns="http://www.w3.org/2000/svg">
<g clip-path="url(#clip0_1170_1145)">
<path fill-rule="evenodd" clip-rule="evenodd" d="M9.5 17.2188C10.8551 17.2207 12.1865 16.8643 13.3594 16.1856V13.6562C13.3594 12.9476 13.0779 12.268 12.5768 11.7669C12.0757 11.2659 11.3961 10.9844 10.6875 10.9844H8.3125C7.60387 10.9844 6.92427 11.2659 6.4232 11.7669C5.92213 12.268 5.64062 12.9476 5.64062 13.6562V16.1856C6.81347 16.8643 8.14495 17.2207 9.5 17.2188ZM15.1406 13.6562V14.7689C16.1675 13.6697 16.8507 12.2943 17.1064 10.812C17.3621 9.32963 17.1791 7.80486 16.5799 6.42512C15.9806 5.04537 14.9913 3.87079 13.7335 3.04575C12.4757 2.22071 11.0042 1.78118 9.5 1.78118C7.99575 1.78118 6.52428 2.22071 5.26648 3.04575C4.00867 3.87079 3.01935 5.04537 2.42012 6.42512C1.8209 7.80486 1.63788 9.32963 1.89358 10.812C2.14928 12.2943 2.83254 13.6697 3.85938 14.7689V13.6562C3.85937 12.7382 4.14297 11.8425 4.67139 11.0917C5.19981 10.341 5.94726 9.77178 6.8115 9.462C6.36308 8.94623 6.07249 8.31235 5.97439 7.63598C5.87629 6.95961 5.97481 6.2693 6.25821 5.64738C6.54162 5.02545 6.99793 4.49818 7.57273 4.12844C8.14753 3.75871 8.81655 3.56211 9.5 3.56211C10.1834 3.56211 10.8525 3.75871 11.4273 4.12844C12.0021 4.49818 12.4584 5.02545 12.7418 5.64738C13.0252 6.2693 13.1237 6.95961 13.0256 7.63598C12.9275 8.31235 12.6369 8.94623 12.1885 9.462C13.0527 9.77178 13.8002 10.341 14.3286 11.0917C14.857 11.8425 15.1406 12.7382 15.1406 13.6562ZM9.5 19C12.0196 19 14.4359 17.9991 16.2175 16.2175C17.9991 14.4359 19 12.0196 19 9.5C19 6.98044 17.9991 4.56408 16.2175 2.78249C14.4359 1.00089 12.0196 0 9.5 0C6.98044 0 4.56408 1.00089 2.78249 2.78249C1.00089 4.56408 0 6.98044 0 9.5C0 12.0196 1.00089 14.4359 2.78249 16.2175C4.56408 17.9991 6.98044 19 9.5 19ZM11.2812 7.125C11.2812 7.59742 11.0936 8.05048 10.7595 8.38453C10.4255 8.71858 9.97242 8.90625 9.5 8.90625C9.02758 8.90625 8.57452 8.71858 8.24047 8.38453C7.90642 8.05048 7.71875 7.59742 7.71875 7.125C7.71875 6.65258 7.90642 6.19951 8.24047 5.86547C8.57452 5.53142 9.02758 5.34375 9.5 5.34375C9.97242 5.34375 10.4255 5.53142 10.7595 5.86547C11.0936 6.19951 11.2812 6.65258 11.2812 7.125Z" fill="#EDF2FA"/>
</g>
<defs>
<clipPath id="clip0_1170_1145">
<rect width="19" height="19" fill="white"/>
</clipPath>
</defs>
</svg>
