<svg width="390" height="1272" viewBox="0 0 390 1272" fill="none" xmlns="http://www.w3.org/2000/svg">
<path d="M567 1172C567 1227.23 522.228 1272 467 1272H404.013C388.742 1272 374.171 1265.59 363.851 1254.33C353.532 1243.08 338.961 1236.67 323.689 1236.67H76.1013C59.4086 1236.67 43.3331 1242.98 31.0986 1254.33C18.8643 1265.69 2.7887 1272 -13.9041 1272L-37.0001 1272C-92.2285 1272 -137 1227.23 -137 1172V99.9998C-137 44.7714 -92.2285 -0.000244141 -37 -0.000244141H-14.2011C2.66162 -0.000244141 18.8794 6.4801 31.0986 18.1008C43.3179 29.7217 59.5357 36.202 76.3984 36.202H323.368C338.823 36.202 353.546 29.6189 363.851 18.1008C374.157 6.58289 388.88 -0.000244141 404.335 -0.000244141H467C522.229 -0.000244141 567 44.7712 567 99.9998V1172Z" fill="url(#paint0_linear_4266_933)"/>
<defs>
<linearGradient id="paint0_linear_4266_933" x1="-713.656" y1="-359.477" x2="705.423" y2="931.186" gradientUnits="userSpaceOnUse">
<stop offset="0.0467201" stop-color="#6E8293"/>
<stop offset="0.63" stop-color="#7E8496"/>
<stop offset="0.949574" stop-color="#907F8A"/>
</linearGradient>
</defs>
</svg>
