<svg width="32" height="32" viewBox="0 0 32 32" fill="none" xmlns="http://www.w3.org/2000/svg">
<path d="M3.69144 3H14.2514L16.0816 11.2338L13.7923 13.5231C15.1377 15.6183 16.9189 17.3991 19.0145 18.744L21.3037 16.456L29.5376 18.2861V28.8461H28.3068C23.5688 28.8535 18.9304 27.4872 14.953 24.9126C12.0203 23.0147 9.52289 20.5172 7.62497 17.5846C5.05038 13.6072 3.68406 8.96871 3.69144 4.23077V3ZM6.1862 5.46154C6.3932 9.3015 7.60211 13.0203 9.69266 16.248C11.4014 18.8879 13.6497 21.1361 16.2896 22.8449C19.5172 24.9355 23.236 26.1444 27.076 26.3514V20.2603L22.0877 19.1526L19.412 21.8295L18.596 21.3655C15.4979 19.6047 12.9328 17.0397 11.172 13.9415L10.708 13.1255L13.385 10.4498L12.2773 5.46154H6.1862Z" fill="#315D80"/>
</svg>
