<svg width="390" height="1174" viewBox="0 0 390 1174" fill="none" xmlns="http://www.w3.org/2000/svg">
<path d="M564 1074C564 1129.23 519.228 1174 464 1174H400.028C385.319 1174 371.217 1168.13 360.851 1157.69C350.486 1147.26 336.384 1141.39 321.674 1141.39H72.1951C56.0216 1141.39 40.3811 1147.17 28.0986 1157.69C15.8162 1168.22 0.175659 1174 -15.9979 1174L-40.0001 1174C-95.2285 1174 -140 1129.23 -140 1074V100C-140 44.7715 -95.2285 0 -40 0H-16.2602C0.0637817 0 15.8303 5.93799 28.0986 16.7065C40.3669 27.475 56.1335 33.4131 72.4575 33.4131H321.389C336.262 33.4131 350.499 27.3855 360.851 16.7065C371.203 6.02759 385.441 0 400.314 0H464C519.229 0 564 44.7715 564 100V1074Z" fill="url(#paint0_linear_4155_48494)"/>
<defs>
<linearGradient id="paint0_linear_4155_48494" x1="-716.656" y1="-331.781" x2="598.845" y2="964.553" gradientUnits="userSpaceOnUse">
<stop offset="0.0467201" stop-color="#6E8293"/>
<stop offset="0.63" stop-color="#7E8496"/>
<stop offset="0.949574" stop-color="#907F8A"/>
</linearGradient>
</defs>
</svg>
