<svg width="14" height="18" viewBox="0 0 14 18" fill="none" xmlns="http://www.w3.org/2000/svg">
<path d="M4.75 9.75H9.25M4.75 12.75H7M1 3V15C1 15.3978 1.15804 15.7794 1.43934 16.0607C1.72064 16.342 2.10218 16.5 2.5 16.5H11.5C11.8978 16.5 12.2794 16.342 12.5607 16.0607C12.842 15.7794 13 15.3978 13 15V6.2565C13 6.05667 12.96 5.85886 12.8825 5.67468C12.805 5.49051 12.6914 5.32368 12.5485 5.184L9.2185 1.9275C8.93827 1.65349 8.56193 1.50005 8.17 1.5H2.5C2.10218 1.5 1.72064 1.65804 1.43934 1.93934C1.15804 2.22064 1 2.60218 1 3Z" stroke="#92A3B4" stroke-width="1.8" stroke-linecap="round" stroke-linejoin="round"/>
</svg>
