<svg width="588" height="520" viewBox="0 0 588 520" fill="none" xmlns="http://www.w3.org/2000/svg">
<g filter="url(#filter0_i_3533_216)">
<path d="M0 40C0 17.9086 17.9086 0 40 0H548C570.091 0 588 17.9086 588 40V520H0V40Z" fill="url(#paint0_linear_3533_216)" fill-opacity="0.14"/>
</g>
<path d="M346.584 138.082C346.584 138.082 341.258 127.888 334.142 124.504C327.026 121.121 319.342 119.745 321.721 123.827C324.17 127.465 326.938 130.877 329.994 134.022H318.753C314.425 133.255 310.048 132.795 305.655 132.646C300.329 132.646 299.74 136.728 299.74 136.728C299.74 136.728 294.413 136.728 292.623 138.758C290.834 140.788 293.213 143.517 293.213 143.517C293.213 143.517 286.118 145.569 290.266 150.306C294.413 155.043 310.981 160.5 318.643 161.853C326.305 163.207 342.328 161.177 342.328 161.177C342.328 161.177 359.616 146.922 346.584 138.082Z" fill="#315D80"/>
<path d="M308.65 150.725C308.564 150.725 308.479 150.708 308.4 150.674C308.322 150.64 308.25 150.591 308.191 150.529C308.133 150.472 308.087 150.404 308.056 150.329C308.024 150.254 308.008 150.173 308.008 150.092C308.008 150.011 308.024 149.93 308.056 149.855C308.087 149.78 308.133 149.712 308.191 149.655L323.799 135.03C323.917 134.918 324.073 134.855 324.235 134.855C324.398 134.855 324.554 134.918 324.672 135.03C324.729 135.085 324.775 135.151 324.806 135.224C324.838 135.298 324.854 135.376 324.854 135.456C324.854 135.535 324.838 135.614 324.806 135.687C324.775 135.76 324.729 135.826 324.672 135.881L309.064 150.507C308.959 150.63 308.811 150.708 308.65 150.725Z" fill="black"/>
<path d="M345.449 147.162C339.272 147.162 334.862 145.655 332.352 142.687C331.503 141.684 330.871 140.517 330.495 139.259C330.12 138 330.009 136.678 330.169 135.374C330.201 135.218 330.29 135.079 330.42 134.986C330.549 134.893 330.709 134.852 330.867 134.872C331.028 134.904 331.17 134.997 331.264 135.131C331.357 135.265 331.395 135.431 331.369 135.592C331.232 136.715 331.326 137.853 331.645 138.938C331.964 140.023 332.502 141.031 333.225 141.901C335.408 144.586 339.577 145.939 345.362 145.939H345.58C345.661 145.936 345.742 145.95 345.817 145.979C345.893 146.009 345.962 146.054 346.019 146.111C346.076 146.169 346.121 146.237 346.151 146.313C346.181 146.389 346.194 146.469 346.191 146.55C346.191 146.709 346.13 146.861 346.02 146.975C345.91 147.089 345.76 147.156 345.602 147.162H345.449Z" fill="black"/>
<path d="M414.736 453.578V476.324L373.414 474.708V453.578H414.736Z" fill="#315D80"/>
<path d="M510.192 450.998V473.744L471.926 472.15V450.998H510.192Z" fill="#315D80"/>
<path d="M418.922 205.751C418.922 205.751 397.246 249.19 379.63 327.534C369.899 370.522 363.333 414.166 359.984 458.114H429.727C429.727 458.114 437.499 399.853 439.55 376.802C441.582 358.684 444.569 340.686 448.5 322.884C448.5 322.884 458.083 455.865 460.353 458.223C462.623 460.58 529.42 458.725 528.699 455.669C527.979 452.613 507.591 232.055 505.779 217.517C500.213 172.702 418.922 205.751 418.922 205.751Z" fill="#000001"/>
<path d="M462.429 507.405C462.429 511.421 463.717 516.005 466.402 517.162C469.087 518.319 490.632 520.72 509.514 519.018C527.588 517.38 531.343 516.005 532.674 514.302C533.329 513.429 532.063 509.413 530.491 505.571C530.491 505.396 530.339 505.156 530.251 504.96C529.487 503.017 528.723 501.118 528.068 499.765C527.517 498.47 526.837 497.234 526.038 496.075C523.368 492.465 521.078 488.588 519.206 484.506C517.918 480.533 515.932 471.933 514.6 467.873C514.27 466.763 513.68 465.749 512.879 464.913C512.078 464.078 511.089 463.446 509.994 463.07C509.994 463.07 472.885 460.429 470.157 462.743C467.428 465.057 466.206 483.96 466.206 486.754V489.614C465.594 493.796 464.615 497.915 463.28 501.926C462.975 503.017 462.713 504.108 462.538 504.96C462.42 505.769 462.384 506.588 462.429 507.405Z" fill="#F1D15B"/>
<path d="M306.942 515.589C309.43 516.637 414.929 519.628 417.374 515.589C418.437 512.168 418.981 508.607 418.989 505.024C419.862 492.756 419.862 474.464 419.862 474.464C420.249 471.437 420.453 468.39 420.474 465.339C420.364 462.502 369.612 463.593 369.612 463.593L336.607 490.53C330.338 489.538 323.951 489.538 317.682 490.53C312.443 491.403 309.059 498.039 307.378 504.304C305.829 509.892 305.698 515.065 306.942 515.589Z" fill="#F1D15B"/>
<path d="M448.483 323.476C448.333 323.472 448.189 323.415 448.077 323.315C447.965 323.215 447.893 323.079 447.872 322.93C447.872 322.646 445.689 293.985 445.056 281.28C444.51 270.366 444.423 264.32 444.401 262.792L422.158 252.554C422.014 252.483 421.902 252.36 421.846 252.21C421.789 252.06 421.791 251.894 421.852 251.746C421.919 251.599 422.041 251.484 422.193 251.426C422.344 251.369 422.512 251.374 422.66 251.441L445.252 261.853C445.356 261.902 445.444 261.979 445.505 262.076C445.567 262.172 445.6 262.284 445.602 262.399C445.602 262.399 445.602 268.533 446.257 281.215C446.911 293.898 449.072 322.537 449.094 322.821C449.103 322.902 449.096 322.984 449.071 323.061C449.047 323.139 449.007 323.211 448.954 323.273C448.901 323.334 448.835 323.384 448.762 323.419C448.688 323.454 448.608 323.473 448.527 323.476H448.483Z" fill="white"/>
<path d="M509.228 482.719H509.075C508.923 482.719 494.407 478.703 487.094 479.969L479.563 481.322C479.431 481.34 479.297 481.316 479.179 481.254C479.061 481.191 478.967 481.093 478.908 480.973C478.858 480.852 478.846 480.718 478.874 480.589C478.901 480.461 478.966 480.344 479.061 480.253C479.607 479.773 492.66 468.378 500.431 471.827C500.579 471.894 500.694 472.016 500.751 472.167C500.808 472.319 500.803 472.487 500.737 472.635C500.706 472.707 500.661 472.772 500.605 472.827C500.548 472.881 500.482 472.924 500.408 472.953C500.335 472.981 500.257 472.995 500.178 472.993C500.1 472.991 500.023 472.973 499.951 472.94C494.45 470.517 485.457 476.738 481.659 479.707L486.876 478.79C494.472 477.437 508.704 481.388 509.403 481.541C509.555 481.586 509.683 481.689 509.76 481.828C509.838 481.966 509.858 482.129 509.818 482.283C509.783 482.411 509.706 482.525 509.599 482.604C509.492 482.683 509.361 482.724 509.228 482.719Z" fill="white"/>
<path d="M344.463 484.725C344.313 484.721 344.17 484.664 344.058 484.564C343.946 484.464 343.873 484.328 343.852 484.179C343.845 484.019 343.896 483.862 343.997 483.737C344.097 483.612 344.24 483.529 344.398 483.502L362.079 481.625L356.229 474.487C356.153 474.361 356.125 474.212 356.151 474.067C356.176 473.922 356.253 473.791 356.367 473.698C356.481 473.605 356.625 473.556 356.772 473.561C356.919 473.566 357.06 473.623 357.168 473.723L363.717 481.712C363.77 481.809 363.798 481.918 363.798 482.029C363.798 482.14 363.77 482.249 363.717 482.346C363.672 482.446 363.602 482.532 363.514 482.597C363.426 482.662 363.323 482.703 363.214 482.717L344.42 484.703L344.463 484.725Z" fill="white"/>
<path d="M443.249 101.476C443.249 101.476 440.651 102.087 440.018 103.047C439.576 104.6 439.399 106.216 439.494 107.828L419.652 157.401L413.758 210.86C413.758 210.86 426.004 223.957 458.07 225.529C490.137 227.1 507.185 212.3 507.185 212.3C507.185 212.3 494.088 122.54 486.229 110.796C482.737 105.579 467.871 104.248 467.871 104.248C467.871 104.248 467.391 102.37 466.845 102.065C463.92 100.253 443.249 101.476 443.249 101.476Z" fill="#C06A87"/>
<path d="M442.276 70.4155C442.276 70.4155 430.532 65.8533 429.921 74.7813C429.245 85.2154 441.665 84.8662 441.665 84.8662L442.276 70.4155Z" fill="#315D80"/>
<path d="M436.888 79.954C436.784 79.9554 436.681 79.93 436.589 79.8803C436.497 79.8306 436.42 79.7583 436.364 79.6703L432.26 73.1216C432.177 72.9816 432.152 72.8151 432.188 72.6566C432.225 72.4981 432.321 72.3598 432.457 72.2703C432.593 72.1886 432.756 72.1634 432.911 72.2C433.066 72.2367 433.201 72.3324 433.286 72.4668L437.39 79.0154C437.473 79.1554 437.499 79.3219 437.462 79.4804C437.426 79.6389 437.329 79.7772 437.194 79.8667C437.104 79.9281 436.997 79.9588 436.888 79.954Z" fill="black"/>
<path d="M432.305 78.1218C432.165 78.095 432.039 78.0205 431.949 77.9109C431.858 77.8014 431.809 77.6636 431.809 77.5215C431.809 77.3793 431.858 77.2416 431.949 77.132C432.039 77.0225 432.165 76.948 432.305 76.9212L435.601 76.7465C435.76 76.7405 435.914 76.7963 436.032 76.9022C436.15 77.0081 436.223 77.1558 436.234 77.3141C436.24 77.3933 436.23 77.4728 436.204 77.548C436.179 77.6232 436.138 77.6924 436.085 77.7515C436.032 77.8106 435.968 77.8585 435.896 77.8921C435.824 77.9257 435.746 77.9444 435.666 77.9472L432.37 78.1218H432.305Z" fill="black"/>
<path d="M464.113 94.4254L464.637 106.584C461.398 108.319 457.825 109.338 454.159 109.575C446.235 109.989 443.398 105.383 443.398 105.383L442.961 91.1074L464.113 94.4254Z" fill="#315D80"/>
<path d="M464.108 94.4276C464.108 94.4276 460.659 104.403 451.622 103.377C444.332 102.548 441.887 92.332 441.887 92.332L464.108 94.4276Z" fill="black"/>
<path d="M438.331 60.6575C438.331 60.6575 433.965 83.0975 440.732 92.724C441.88 94.4999 443.389 96.0137 445.162 97.1668C446.935 98.3198 448.93 99.0861 451.019 99.4157C453.108 99.7453 455.242 99.6307 457.284 99.0795C459.325 98.5282 461.228 97.5528 462.867 96.2166C466.094 93.5531 468.325 89.8755 469.197 85.7825C469.197 85.7825 476.902 87.0267 479.238 80.7182C481.683 74.1695 476.75 68.9524 472.908 68.7778C469.066 68.6032 468.651 69.3017 468.651 69.3017L469.524 62.2728C469.524 62.2728 445.382 37.257 438.331 60.6575Z" fill="#315D80"/>
<path d="M470.228 79.2783C470.145 79.278 470.064 79.2603 469.989 79.2264C469.913 79.1926 469.846 79.1434 469.791 79.0819C469.734 79.0269 469.688 78.9608 469.657 78.8876C469.625 78.8145 469.609 78.7357 469.609 78.6562C469.609 78.5767 469.625 78.4979 469.657 78.4248C469.688 78.3516 469.734 78.2855 469.791 78.2305L475.51 72.948C475.624 72.8373 475.777 72.7754 475.936 72.7754C476.095 72.7754 476.247 72.8373 476.362 72.948C476.419 73.003 476.465 73.0691 476.496 73.1422C476.527 73.2154 476.543 73.2941 476.543 73.3737C476.543 73.4532 476.527 73.5319 476.496 73.6051C476.465 73.6783 476.419 73.7443 476.362 73.7993L470.664 79.1474C470.537 79.2386 470.384 79.2847 470.228 79.2783Z" fill="black"/>
<path d="M475.727 80.0201C475.613 80.054 475.491 80.054 475.377 80.0201L471.797 77.5316C471.732 77.4858 471.675 77.4274 471.632 77.3598C471.589 77.2921 471.559 77.2166 471.545 77.1376C471.531 77.0585 471.532 76.9774 471.549 76.899C471.566 76.8205 471.599 76.7462 471.645 76.6803C471.691 76.6143 471.749 76.5581 471.817 76.5147C471.884 76.4714 471.96 76.4418 472.039 76.4276C472.118 76.4134 472.199 76.4149 472.277 76.4321C472.356 76.4492 472.43 76.4816 472.496 76.5275L476.054 79.016C476.12 79.0618 476.176 79.1202 476.22 79.1878C476.263 79.2554 476.293 79.3309 476.307 79.4099C476.321 79.489 476.32 79.5701 476.302 79.6486C476.285 79.727 476.253 79.8013 476.207 79.8673C476.144 79.928 476.068 79.9734 475.985 79.9999C475.901 80.0264 475.813 80.0333 475.727 80.0201Z" fill="black"/>
<path d="M458.521 73.5141C458.359 73.5141 458.204 73.4496 458.089 73.335C457.975 73.2204 457.91 73.065 457.91 72.9029V69.1483C457.91 68.9862 457.975 68.8307 458.089 68.7161C458.204 68.6015 458.359 68.5371 458.521 68.5371C458.683 68.5371 458.839 68.6015 458.954 68.7161C459.068 68.8307 459.133 68.9862 459.133 69.1483V72.9029C459.133 73.065 459.068 73.2204 458.954 73.335C458.839 73.4496 458.683 73.5141 458.521 73.5141Z" fill="black"/>
<path d="M445.014 73.8852C444.851 73.8852 444.696 73.8208 444.581 73.7062C444.467 73.5915 444.402 73.4361 444.402 73.274V69.5194C444.402 69.3573 444.467 69.2018 444.581 69.0872C444.696 68.9726 444.851 68.9082 445.014 68.9082C445.176 68.9082 445.331 68.9726 445.446 69.0872C445.56 69.2018 445.625 69.3573 445.625 69.5194V73.274C445.625 73.4361 445.56 73.5915 445.446 73.7062C445.331 73.8208 445.176 73.8852 445.014 73.8852Z" fill="black"/>
<path d="M451.122 82.9438C450.983 82.9462 450.848 82.8993 450.74 82.8114C450.632 82.7235 450.559 82.6003 450.533 82.4636C449.68 78.855 449.824 75.0826 450.948 71.5492C450.969 71.4719 451.007 71.4001 451.059 71.3385C451.11 71.2769 451.174 71.2268 451.246 71.1918C451.318 71.1567 451.397 71.1374 451.478 71.135C451.558 71.1326 451.638 71.1473 451.712 71.1781C451.787 71.2026 451.857 71.2421 451.917 71.2942C451.976 71.3462 452.025 71.4098 452.06 71.4811C452.094 71.5525 452.114 71.6301 452.118 71.7093C452.122 71.7885 452.11 71.8677 452.083 71.9421C451.074 75.2574 450.946 78.7783 451.712 82.158C451.744 82.3141 451.715 82.4769 451.629 82.6115C451.543 82.7461 451.409 82.8418 451.253 82.8783L451.122 82.9438Z" fill="black"/>
<path d="M441.821 66.3133C441.673 66.3066 441.532 66.2443 441.428 66.1387C441.37 66.0837 441.325 66.0176 441.293 65.9444C441.262 65.8713 441.246 65.7925 441.246 65.713C441.246 65.6334 441.262 65.5547 441.293 65.4816C441.325 65.4084 441.37 65.3423 441.428 65.2873C442.602 64.2473 444.079 63.6121 445.641 63.4756C445.721 63.4631 445.802 63.4678 445.88 63.4893C445.957 63.5108 446.03 63.5487 446.092 63.6003C446.154 63.652 446.204 63.7162 446.239 63.7888C446.274 63.8614 446.294 63.9406 446.296 64.0213C446.308 64.18 446.258 64.3372 446.156 64.4595C446.054 64.5818 445.908 64.6595 445.75 64.6761C444.48 64.7725 443.27 65.2521 442.279 66.0513C442.226 66.1254 442.158 66.1872 442.079 66.2324C441.999 66.2776 441.912 66.3052 441.821 66.3133Z" fill="black"/>
<path d="M460.355 66.6626C460.274 66.6637 460.194 66.6489 460.119 66.6189C460.044 66.589 459.976 66.5444 459.918 66.488C458.938 65.6782 457.736 65.1836 456.47 65.069C456.309 65.0472 456.164 64.965 456.062 64.8392C455.961 64.7134 455.911 64.5535 455.924 64.3923C455.926 64.3117 455.945 64.2325 455.98 64.1599C456.016 64.0873 456.066 64.023 456.128 63.9714C456.19 63.9198 456.262 63.8819 456.34 63.8604C456.418 63.8389 456.499 63.8342 456.579 63.8466C458.138 63.9936 459.612 64.6275 460.792 65.6585C460.849 65.7135 460.895 65.7796 460.926 65.8527C460.957 65.9259 460.973 66.0046 460.973 66.0841C460.973 66.1637 460.957 66.2423 460.926 66.3155C460.895 66.3886 460.849 66.4547 460.792 66.5097C460.672 66.6159 460.515 66.6708 460.355 66.6626Z" fill="black"/>
<path d="M470.419 69.2815C470.419 69.2815 468.237 76.2448 467.342 75.9829C466.447 75.721 467.582 64.8502 470.157 64.3263C472.733 63.8024 470.419 69.2815 470.419 69.2815Z" fill="black"/>
<path d="M469.282 68.2318C464.683 67.715 460.286 66.0567 456.491 63.4077C453.824 61.206 451.777 58.3469 450.553 55.1127C447.678 55.0344 444.851 55.8672 442.477 57.492C437.696 60.3298 437.194 69.3014 437.194 69.3014C437.194 69.3014 428.703 54.0212 432.937 48.6295C437.172 43.2378 443.852 47.8874 443.852 47.8874C443.852 47.8874 442.782 37.9116 456.491 41.9718C460.383 43.0331 463.947 45.051 466.86 47.8418C469.773 50.6326 471.941 54.1076 473.168 57.9505C474.39 57.8179 475.616 58.1613 476.592 58.9093C477.568 59.6572 478.217 60.7523 478.407 61.967C478.619 64.9403 478.164 67.9234 477.075 70.6985C476.37 70.1023 475.517 69.7083 474.606 69.5584C473.695 69.4085 472.761 69.5083 471.902 69.8471L468.737 70.9823L469.282 68.2318Z" fill="black"/>
<path d="M443.249 101.477C445.636 103.702 448.723 105.03 451.98 105.231C458.267 106.104 464.379 101.629 464.379 101.629L467.61 109.531L456.87 114.552L440.105 111.256L440.957 103.703L443.249 101.477Z" fill="#C06A87"/>
<path d="M454.66 88.7936H454.267C454.182 88.7882 454.099 88.7649 454.023 88.7254C453.948 88.6859 453.881 88.631 453.828 88.5643C453.775 88.4975 453.737 88.4204 453.715 88.3378C453.694 88.2553 453.69 88.1692 453.703 88.085C453.717 88.0008 453.748 87.9204 453.795 87.849C453.842 87.7776 453.903 87.7168 453.975 87.6705C454.046 87.6242 454.127 87.5933 454.211 87.58C454.295 87.5666 454.381 87.5711 454.464 87.593C454.704 87.593 456.952 87.8768 457.673 84.8644C457.688 84.7861 457.719 84.7117 457.764 84.6457C457.809 84.5798 457.867 84.5236 457.934 84.4808C458.002 84.4379 458.077 84.4092 458.156 84.3964C458.235 84.3835 458.315 84.3868 458.393 84.406C458.545 84.4472 458.677 84.544 458.762 84.6773C458.847 84.8106 458.879 84.9707 458.851 85.1263C458.723 86.1448 458.225 87.0808 457.453 87.7568C456.68 88.4327 455.687 88.8017 454.66 88.7936Z" fill="white"/>
<path d="M350.361 131.646L332.461 166.572C332.461 166.572 357.084 199.076 393.582 193.531C437.741 186.83 438.025 143.587 438.025 143.587L439.422 107.766C439.422 107.766 422.57 113.659 413.686 123.046C407.465 129.594 373.892 144.918 350.361 131.646Z" fill="#C06A87"/>
<path d="M450.468 114.356C448.184 114.362 445.934 113.795 443.925 112.709C441.916 111.622 440.21 110.05 438.964 108.135C438.922 108.067 438.894 107.991 438.882 107.911C438.87 107.832 438.874 107.751 438.894 107.673C438.915 107.595 438.951 107.523 439.001 107.46C439.05 107.396 439.112 107.344 439.183 107.305C439.322 107.226 439.487 107.204 439.642 107.245C439.797 107.286 439.93 107.386 440.012 107.524C441.397 109.671 443.41 111.338 445.778 112.299C448.145 113.26 450.751 113.468 453.24 112.894C453.319 112.878 453.4 112.878 453.479 112.893C453.558 112.909 453.633 112.94 453.7 112.984C453.767 113.029 453.825 113.086 453.869 113.153C453.914 113.22 453.945 113.295 453.961 113.374C453.98 113.532 453.94 113.692 453.846 113.822C453.753 113.951 453.615 114.041 453.459 114.072C452.473 114.259 451.472 114.354 450.468 114.356Z" fill="#000001"/>
<path d="M484.898 230.768L497.057 210.838L514.127 233.605C514.127 233.605 510.984 250.719 498.847 250.719C494.983 250.719 484.898 230.768 484.898 230.768Z" fill="#315D80"/>
<path d="M501.52 253.493C501.385 253.493 501.254 253.446 501.149 253.362C489.121 244.63 484.232 229.546 484.188 229.35C484.158 229.202 484.184 229.049 484.26 228.919C484.336 228.789 484.457 228.692 484.6 228.646C484.744 228.6 484.899 228.609 485.036 228.67C485.174 228.732 485.283 228.841 485.345 228.979C485.345 229.132 490.169 243.91 501.869 252.336C501.999 252.432 502.086 252.575 502.11 252.734C502.135 252.894 502.095 253.056 502 253.187C501.954 253.276 501.886 253.351 501.801 253.404C501.717 253.458 501.62 253.488 501.52 253.493Z" fill="white"/>
<path d="M475.371 105.473C475.371 105.473 526.298 115.841 542.713 157.862C559.936 201.803 514.707 241.139 514.707 241.139L489.953 216.232L497.029 193.803C507.566 170.379 505.816 176.77 509.035 171.974C491.901 151.549 487.001 133.572 475.371 105.473Z" fill="#C06A87"/>
<path d="M491.481 206.562C491.403 206.585 491.32 206.585 491.241 206.562C491.095 206.499 490.979 206.382 490.918 206.236C490.857 206.089 490.855 205.924 490.914 205.776C491.023 205.536 501.064 182.834 508.049 171.963C508.091 171.896 508.147 171.839 508.211 171.793C508.276 171.748 508.35 171.716 508.427 171.7C508.504 171.684 508.584 171.683 508.662 171.699C508.74 171.714 508.813 171.744 508.879 171.789C509.013 171.874 509.109 172.009 509.146 172.164C509.182 172.319 509.157 172.482 509.075 172.618C502.134 183.402 492.136 206.038 492.027 206.256C491.972 206.352 491.892 206.431 491.796 206.484C491.7 206.538 491.591 206.565 491.481 206.562Z" fill="#000001"/>
<path d="M490.986 142.989C491.095 142.888 491.236 142.83 491.384 142.826C491.532 142.821 491.677 142.871 491.791 142.965C493.813 144.638 503.79 153.15 501.417 156.576C501.278 156.799 501.081 156.981 500.846 157.101C500.612 157.22 500.349 157.273 500.087 157.254C497.132 156.989 491.867 145.905 490.86 143.693C490.804 143.578 490.786 143.447 490.809 143.321C490.832 143.194 490.894 143.078 490.986 142.989ZM500.332 155.998L500.429 155.91C501.508 154.339 497.377 149.599 493.246 145.832C495.882 151.134 498.928 155.947 500.22 156.07L500.332 155.998Z" fill="#000001"/>
<path d="M421.964 149.452L422.23 149.55C422.53 149.722 422.793 149.951 423.003 150.224C423.213 150.498 423.367 150.811 423.455 151.145C424.558 154.953 419.486 163.805 419.273 164.191C419.198 164.3 419.093 164.384 418.971 164.434C418.85 164.484 418.716 164.498 418.586 164.473C418.458 164.435 418.344 164.358 418.262 164.253C418.18 164.147 418.134 164.018 418.129 163.884C418.067 161.789 417.921 151.19 420.523 149.57C420.738 149.441 420.98 149.364 421.23 149.343C421.48 149.323 421.731 149.36 421.964 149.452ZM419.321 161.486C420.888 158.388 422.903 153.641 422.284 151.479C422.249 151.302 422.176 151.135 422.068 150.991C421.96 150.846 421.822 150.727 421.662 150.644C421.334 150.522 421.253 150.492 421.166 150.6C419.917 151.394 419.392 156.833 419.321 161.486Z" fill="#000001"/>
<path d="M417.29 177.618C417.209 177.618 417.129 177.601 417.054 177.569C416.98 177.537 416.913 177.489 416.857 177.43C416.802 177.371 416.759 177.3 416.733 177.224C416.706 177.147 416.695 177.066 416.701 176.985L417.661 163.32C417.644 163.232 417.647 163.14 417.67 163.053C417.692 162.966 417.733 162.885 417.79 162.816C417.848 162.746 417.92 162.69 418.001 162.652C418.083 162.614 418.172 162.594 418.262 162.594C418.352 162.594 418.44 162.614 418.522 162.652C418.603 162.69 418.675 162.746 418.733 162.816C418.79 162.885 418.831 162.966 418.854 163.053C418.876 163.14 418.879 163.232 418.862 163.32L417.901 176.963C417.907 177.047 417.896 177.131 417.868 177.21C417.84 177.289 417.796 177.362 417.739 177.424C417.681 177.485 417.612 177.534 417.535 177.567C417.458 177.601 417.374 177.618 417.29 177.618Z" fill="#000001"/>
<path d="M280.255 136.254C279.436 136.381 278.598 136.262 277.846 135.913C277.094 135.563 276.463 134.999 276.032 134.291C275.601 133.583 275.39 132.763 275.425 131.934C275.46 131.106 275.74 130.307 276.229 129.638C276.719 128.969 277.395 128.46 278.174 128.175C278.953 127.891 279.798 127.844 280.603 128.04C281.409 128.236 282.138 128.666 282.699 129.277C283.26 129.887 283.627 130.65 283.754 131.469C283.925 132.568 283.652 133.689 282.995 134.586C282.339 135.483 281.354 136.083 280.255 136.254ZM279.154 129.157C278.569 129.248 278.025 129.51 277.589 129.91C277.154 130.31 276.847 130.83 276.707 131.405C276.567 131.98 276.601 132.583 276.804 133.138C277.007 133.694 277.37 134.177 277.847 134.526C278.325 134.875 278.895 135.075 279.486 135.1C280.077 135.125 280.662 134.974 281.167 134.667C281.672 134.359 282.075 133.909 282.324 133.372C282.574 132.836 282.658 132.238 282.568 131.653C282.441 130.872 282.011 130.172 281.373 129.705C280.734 129.238 279.937 129.041 279.154 129.157Z" fill="#C06A87"/>
<path d="M276.401 137.119L274.223 137.457L276.228 150.378L278.407 150.04L276.401 137.119Z" fill="#F1D15B"/>
<path d="M278.73 132.38L279.356 136.414C279.405 136.73 279.328 137.054 279.141 137.314C278.955 137.574 278.673 137.751 278.357 137.806L272.555 138.706C272.395 138.734 272.231 138.73 272.073 138.693C271.914 138.657 271.765 138.59 271.633 138.495C271.501 138.4 271.389 138.28 271.304 138.142C271.219 138.003 271.163 137.85 271.138 137.689L270.512 133.655C270.487 133.495 270.494 133.331 270.533 133.174C270.572 133.016 270.642 132.868 270.739 132.737C270.836 132.607 270.958 132.498 271.098 132.415C271.238 132.333 271.393 132.279 271.554 132.257L274.034 131.872C273.847 131.993 273.698 132.164 273.604 132.366C273.511 132.568 273.476 132.793 273.505 133.014C273.555 133.301 273.716 133.557 273.953 133.727C274.19 133.897 274.484 133.967 274.772 133.922C275.058 133.878 275.315 133.721 275.486 133.488C275.657 133.254 275.728 132.962 275.683 132.676C275.646 132.462 275.551 132.261 275.409 132.097C275.267 131.932 275.082 131.809 274.876 131.741L277.356 131.356C277.674 131.313 277.996 131.395 278.253 131.587C278.51 131.778 278.681 132.063 278.73 132.38Z" fill="#F1D15B"/>
<path d="M269.969 108.779C269.969 108.779 283.544 118.535 284.13 122.31C284.716 126.084 277.227 123.381 277.227 123.381L269.969 108.779Z" fill="#315D80"/>
<path d="M235.6 119.528C235.6 119.528 252.687 108.217 257.028 105.157C261.369 102.098 275.604 110.978 278.859 117.718C282.114 124.459 280.919 128.002 277.893 128.714C274.866 129.427 273.264 122.519 271.493 120.076C270.231 118.35 263.285 118.567 262.542 121.466C260.416 129.549 275.74 122.532 275.308 129.138C275.062 132.821 258.57 144.128 243.816 139.725C229.061 135.322 235.6 119.528 235.6 119.528Z" fill="#315D80"/>
<path d="M83.6811 437.269C83.6811 437.269 158.903 419.674 167.635 362.92C178.418 293.067 159.318 258.84 159.318 258.84L110.247 317.407L95.5123 388.197L75.9537 402.211L65.1484 425.11L83.6811 437.269Z" fill="#2B5577"/>
<path d="M87.217 443.992C87.217 443.992 74.1197 483.065 65.1044 495.224C56.0891 507.383 49.2131 508.802 45.6113 507.972C42.0095 507.143 36.0721 430.414 36.0721 430.414C36.0721 430.414 56.9186 427.009 54.5829 419.063C52.2473 411.118 33.9984 417.841 33.9984 417.841L31.3789 394.746C31.3789 394.746 52.0944 391.122 60.4767 391.799C68.3492 392.707 76.1624 394.07 83.8772 395.881L87.217 443.992Z" fill="#000001"/>
<path d="M92.3525 435.368C92.3525 435.368 78.3385 469.312 75.7627 463.745C73.1869 458.179 68.8647 425.501 71.1786 415.482C73.4924 405.462 83.883 395.836 83.883 395.836L95.4304 416.682L92.3525 435.368Z" fill="#2B5577"/>
<path d="M134.455 52.9509C134.455 52.9509 115.245 38.0636 98.8518 48.1922C82.4584 58.3208 88.7669 79.5602 88.7669 79.5602C88.7669 79.5602 68.4224 85.1265 65.4756 110.994C62.5287 136.861 87.1297 141.75 87.1297 141.75L122.471 120.817L134.455 52.9509Z" fill="black"/>
<path d="M135.412 317.344C135.412 317.344 131.046 453.425 125.327 467.81C119.608 482.195 88.0436 467.81 88.0436 467.81L80.5781 320.356L135.412 317.344Z" fill="#315D80"/>
<path d="M168.441 231.206C171.295 247.718 172.792 264.437 172.915 281.194C172.915 307.389 175.535 336.006 172.915 338.538C170.296 341.07 144.145 349.649 112.537 347.75C80.9289 345.851 71.477 337.25 72.0009 334.216C72.7495 331.933 74.2304 329.962 76.2138 328.606C76.2138 328.606 74.0309 253.1 82.5224 232.887C91.0138 212.673 126.879 208.242 126.879 208.242L163.856 205.273L168.441 231.206Z" fill="#C06A87"/>
<path d="M113.363 219.307C113.363 219.307 150.887 221.49 165.949 214.265L165.054 169.166C165.054 169.166 156.89 111.407 145.146 110.228C136.47 109.604 127.752 109.934 119.148 111.211L81.668 164.495L113.363 219.307Z" fill="black"/>
<path d="M149.992 83.012C151.758 80.7287 153.018 78.0957 153.688 75.2881C154.358 72.4804 154.423 69.5624 153.878 66.7278C152.656 60.07 149.643 57.9962 149.643 57.9962C149.643 57.9962 154.009 48.8063 140.562 49.5485C132.867 49.8148 125.436 52.4188 119.258 57.0139C118.397 56.608 117.457 56.4012 116.506 56.4087C115.555 56.4162 114.618 56.638 113.764 57.0574C112.91 57.4769 112.162 58.0833 111.575 58.8315C110.988 59.5798 110.577 60.4508 110.373 61.3797C107.71 68.6268 110.635 79.192 110.635 79.192L149.992 83.012Z" fill="black"/>
<path d="M120.555 94.5371L121.188 110.996C121.188 110.996 124.353 115.624 134.001 116.017C141.205 116.322 143.322 112.546 143.322 112.546L141.03 98.2262L123.567 95.0828L120.555 94.5371Z" fill="#315D80"/>
<path d="M120.527 93.5312C120.63 94.0793 120.814 94.6089 121.073 95.1029C125.068 103.18 138.165 106.017 142.334 106.301L141.025 98.2244L120.527 93.5312Z" fill="black"/>
<path d="M143.228 60.5471C143.228 60.5471 152.68 80.8479 149.776 92.4608C146.873 104.074 136.286 102.48 129.956 100.406C126.369 99.3278 123.141 97.2988 120.613 94.5345C118.839 95.1228 116.924 95.1264 115.147 94.5449C113.371 93.9633 111.829 92.8274 110.746 91.3039C106.686 85.934 108.957 79.6254 112.274 78.0974C113.491 77.7194 114.773 77.5979 116.04 77.7407C117.306 77.8834 118.529 78.2874 119.631 78.9269L116.356 73.0332C116.356 73.0332 128.712 42.4292 143.228 60.5471Z" fill="#315D80"/>
<path d="M119.612 78.9294C119.612 78.9294 128.453 80.5665 134.434 70.6781C140.415 60.7896 139.804 56.7513 139.804 56.7513L146.069 66.7925C146.069 66.7925 147.335 59.7418 144.454 55.3106C141.572 50.8793 138.669 51.8398 138.669 51.8398L119.307 56.9696L114.352 72.599L119.612 78.9294Z" fill="black"/>
<path d="M144.151 86.2858H143.976C143.824 86.2401 143.696 86.1372 143.619 85.9987C143.541 85.8601 143.521 85.6969 143.562 85.5436C143.795 84.1686 143.756 82.7609 143.445 81.4013C143.134 80.0416 142.558 78.7566 141.75 77.6197C141.7 77.5581 141.664 77.4868 141.644 77.4104C141.624 77.3339 141.62 77.2542 141.632 77.1761C141.644 77.098 141.673 77.0233 141.716 76.9568C141.759 76.8904 141.815 76.8337 141.881 76.7903C141.944 76.7403 142.017 76.704 142.096 76.6834C142.174 76.6629 142.255 76.6586 142.335 76.6709C142.415 76.6832 142.491 76.7117 142.56 76.7548C142.628 76.7978 142.687 76.8545 142.732 76.9213C143.658 78.1979 144.314 79.6501 144.659 81.189C145.005 82.7279 145.032 84.3211 144.74 85.871C144.696 85.9919 144.616 86.0963 144.511 86.1705C144.405 86.2446 144.28 86.2848 144.151 86.2858Z" fill="black"/>
<path d="M118.847 88.5115C118.765 88.5111 118.683 88.4935 118.608 88.4596C118.533 88.4258 118.465 88.3765 118.41 88.3151L112.735 82.5086C112.635 82.3906 112.583 82.2389 112.591 82.0843C112.598 81.9297 112.664 81.7836 112.774 81.6756C112.885 81.5675 113.033 81.5055 113.188 81.5021C113.342 81.4987 113.493 81.5542 113.608 81.6572L119.284 87.4856C119.394 87.5996 119.456 87.7523 119.456 87.9112C119.456 88.0702 119.394 88.2228 119.284 88.3369C119.227 88.3944 119.159 88.4396 119.083 88.4696C119.008 88.4997 118.928 88.5139 118.847 88.5115Z" fill="black"/>
<path d="M112.905 87.027C112.764 87.0242 112.628 86.9728 112.521 86.8813C112.413 86.7897 112.341 86.6639 112.316 86.525C112.3 86.4459 112.301 86.3644 112.318 86.2856C112.335 86.2069 112.368 86.1324 112.415 86.0669C112.463 86.0015 112.523 85.9463 112.592 85.9049C112.661 85.8636 112.738 85.8369 112.818 85.8265L116.66 85.1716C116.819 85.1464 116.982 85.1849 117.112 85.2789C117.243 85.373 117.332 85.5148 117.358 85.6736C117.378 85.8319 117.337 85.9918 117.244 86.1213C117.151 86.2508 117.013 86.3404 116.856 86.3722L113.014 87.0052L112.905 87.027Z" fill="black"/>
<path d="M143.314 70.0005C143.161 70.0006 143.015 69.9415 142.905 69.8357C142.795 69.7298 142.73 69.5854 142.724 69.4329C142.712 69.2742 142.762 69.1169 142.864 68.9946C142.966 68.8723 143.112 68.7946 143.27 68.7781L146.545 68.5161C146.705 68.5097 146.863 68.5648 146.984 68.6703C147.106 68.7757 147.183 68.9236 147.199 69.0837C147.212 69.2424 147.161 69.3997 147.06 69.522C146.958 69.6443 146.812 69.7219 146.654 69.7385L143.379 70.0005H143.314Z" fill="black"/>
<path d="M131.485 72.337C131.353 72.3344 131.226 72.291 131.12 72.2127C131.015 72.1345 130.936 72.0253 130.895 71.9004C130.872 71.823 130.866 71.7417 130.875 71.6616C130.885 71.5814 130.912 71.5041 130.952 71.4345C130.993 71.3649 131.048 71.3045 131.113 71.257C131.179 71.2095 131.253 71.1758 131.332 71.1582L137.269 69.5865C137.42 69.5613 137.575 69.5934 137.703 69.6766C137.831 69.7598 137.924 69.888 137.962 70.0359C138 70.1839 137.982 70.3409 137.91 70.4759C137.839 70.6109 137.719 70.7142 137.575 70.7653L131.637 72.3151L131.485 72.337Z" fill="black"/>
<path d="M146.724 78.161C146.592 78.1584 146.465 78.115 146.359 78.0367C146.254 77.9585 146.175 77.8494 146.134 77.7244L144.956 74.0572C144.908 73.9703 144.883 73.8726 144.883 73.7734C144.883 73.6742 144.908 73.5766 144.956 73.4896L146.069 72.0708C146.177 71.9708 146.317 71.9132 146.465 71.9085C146.612 71.9038 146.756 71.9525 146.87 72.0454C146.984 72.1383 147.061 72.2694 147.086 72.4144C147.111 72.5594 147.083 72.7086 147.008 72.8347L146.091 73.9917L147.182 77.3533C147.209 77.4292 147.22 77.5098 147.215 77.5901C147.21 77.6704 147.188 77.7488 147.151 77.8204C147.114 77.892 147.063 77.9552 147.001 78.0063C146.939 78.0574 146.867 78.0952 146.789 78.1173L146.724 78.161Z" fill="black"/>
<path d="M136.377 79.3013C136.248 79.3003 136.123 79.2601 136.018 79.186C135.912 79.1119 135.832 79.0074 135.788 78.8866L134.609 75.1975C134.563 75.1061 134.539 75.0051 134.539 74.9028C134.539 74.8004 134.563 74.6995 134.609 74.6081L136.159 72.7527C136.273 72.642 136.426 72.5801 136.585 72.5801C136.744 72.5801 136.896 72.642 137.01 72.7527C137.068 72.8077 137.113 72.8738 137.145 72.9469C137.176 73.0201 137.192 73.0988 137.192 73.1784C137.192 73.2579 137.176 73.3366 137.145 73.4097C137.113 73.4829 137.068 73.549 137.01 73.604L135.679 75.1975L136.77 78.5809C136.818 78.7344 136.804 78.9006 136.731 79.0437C136.657 79.1867 136.53 79.2949 136.377 79.345V79.3013Z" fill="black"/>
<path d="M253.972 143.647C244.745 159.526 229.709 171.198 212.038 176.199C182.725 184.173 161.754 170.749 161.754 170.749L138.34 110.123C138.34 110.123 170.842 120.277 197.226 125.879C212.693 129.178 234.869 113.653 234.869 113.653L253.972 143.647Z" fill="black"/>
<path d="M198.308 143.252L197.661 143.352C197.154 143.363 196.652 143.245 196.202 143.01C195.753 142.774 195.37 142.429 195.089 142.006C192.37 138.01 196.565 126.182 196.732 125.692C196.771 125.575 196.845 125.472 196.944 125.397C197.043 125.323 197.162 125.28 197.286 125.275C197.412 125.274 197.536 125.311 197.642 125.381C197.747 125.451 197.829 125.551 197.877 125.669C198.386 126.959 202.798 138.446 200.194 142.164C199.971 142.465 199.689 142.717 199.364 142.904C199.04 143.091 198.681 143.21 198.308 143.252ZM197.324 127.654C196.091 131.667 194.389 138.779 196.077 141.257C196.255 141.519 196.495 141.732 196.776 141.877C197.057 142.023 197.37 142.096 197.686 142.089C197.976 142.118 198.269 142.068 198.533 141.945C198.798 141.823 199.025 141.632 199.191 141.392C200.731 139.076 198.731 131.744 197.237 127.668L197.324 127.654Z" fill="white"/>
<path d="M164.843 176.657H164.69C164.534 176.616 164.401 176.515 164.319 176.376C164.238 176.237 164.214 176.071 164.254 175.915C167.475 162.679 166.168 148.746 160.543 136.339C160.505 136.271 160.481 136.195 160.472 136.117C160.464 136.039 160.471 135.96 160.493 135.885C160.516 135.81 160.553 135.74 160.602 135.679C160.652 135.618 160.714 135.568 160.783 135.532C160.855 135.494 160.933 135.471 161.014 135.463C161.094 135.456 161.175 135.465 161.253 135.489C161.33 135.514 161.401 135.553 161.463 135.605C161.525 135.658 161.576 135.722 161.613 135.794C167.392 148.457 168.746 162.695 165.454 176.22C165.419 176.353 165.339 176.469 165.227 176.549C165.116 176.628 164.98 176.667 164.843 176.657Z" fill="white"/>
<path d="M128.491 245.896C128.491 245.896 113.757 243.823 116.66 249.171C119.563 254.519 133.796 254.562 136.306 251.616C138.816 248.669 132.202 239.588 132.202 239.588L128.491 245.896Z" fill="#315D80"/>
<path d="M89.9371 325.17L173.431 325.549C177.747 325.568 181.262 322.085 181.282 317.769L181.523 264.464C181.543 260.148 178.06 256.633 173.744 256.614L90.2499 256.235C85.934 256.215 82.4194 259.698 82.3998 264.014L82.158 317.32C82.1384 321.635 85.6212 325.15 89.9371 325.17Z" fill="black"/>
<path d="M95.7652 325.187L179.26 325.566C183.575 325.586 187.09 322.103 187.11 317.787L187.352 264.482C187.371 260.166 183.888 256.651 179.572 256.632L96.0781 256.253C91.7622 256.233 88.2476 259.716 88.228 264.032L87.9861 317.337C87.9665 321.653 91.4494 325.168 95.7652 325.187Z" fill="#315D80"/>
<path d="M95.0314 265.98C95.0314 250.7 113.717 238.345 136.506 238.454C159.295 238.563 177.828 251.071 177.763 266.373C177.697 281.675 159.077 294.008 136.288 293.899C113.499 293.79 94.9659 281.26 95.0314 265.98ZM100.532 265.98C100.532 278.248 116.511 288.289 136.31 288.376C156.108 288.464 172.24 278.575 172.284 266.307C172.327 254.04 156.305 244.02 136.506 243.933C116.707 243.846 100.576 253.778 100.532 266.002V265.98Z" fill="#315D80"/>
<path d="M180.007 291.388L89.0465 291.083C88.9581 291.1 88.867 291.097 88.7798 291.074C88.6926 291.052 88.6115 291.011 88.5421 290.953C88.4727 290.896 88.4169 290.824 88.3785 290.743C88.3402 290.661 88.3203 290.572 88.3203 290.482C88.3203 290.392 88.3402 290.303 88.3785 290.222C88.4169 290.141 88.4727 290.069 88.5421 290.011C88.6115 289.954 88.6926 289.913 88.7798 289.89C88.867 289.868 88.9581 289.865 89.0465 289.882L180.094 290.166C180.175 290.166 180.254 290.182 180.328 290.212C180.402 290.243 180.47 290.288 180.527 290.345C180.583 290.402 180.628 290.469 180.659 290.543C180.69 290.617 180.706 290.697 180.706 290.777C180.706 290.857 180.69 290.937 180.659 291.011C180.628 291.085 180.583 291.152 180.527 291.209C180.47 291.266 180.402 291.311 180.328 291.342C180.254 291.372 180.175 291.388 180.094 291.388H180.007Z" fill="white"/>
<path d="M170.098 301.801H165.449C165.292 301.801 165.143 301.739 165.032 301.628C164.921 301.518 164.859 301.368 164.859 301.212V290.887C164.859 290.728 164.921 290.576 165.031 290.462C165.141 290.348 165.29 290.281 165.449 290.275H170.076C170.237 290.281 170.389 290.347 170.503 290.46C170.616 290.574 170.682 290.726 170.688 290.887V301.255C170.672 301.402 170.604 301.538 170.495 301.639C170.387 301.739 170.246 301.797 170.098 301.801ZM166.082 300.601H169.487V291.454H166.082V300.601Z" fill="white"/>
<path d="M107.34 301.801H102.713C102.554 301.801 102.402 301.74 102.288 301.63C102.174 301.52 102.107 301.37 102.102 301.212V290.887C102.107 290.726 102.173 290.574 102.287 290.46C102.4 290.347 102.552 290.281 102.713 290.275H107.34C107.499 290.281 107.649 290.348 107.759 290.462C107.869 290.576 107.93 290.728 107.93 290.887V301.255C107.919 301.404 107.852 301.543 107.743 301.644C107.633 301.745 107.49 301.801 107.34 301.801ZM103.324 300.601H106.729V291.454H103.324V300.601Z" fill="white"/>
<path d="M136.16 463.531C136.16 463.531 172.92 482.129 183.681 492.738C194.443 503.346 194.858 510.419 193.526 513.868C192.194 517.317 115.401 512.231 115.401 512.231C115.401 512.231 115.008 491.101 106.8 492.279C98.5925 493.458 102.653 512.471 102.653 512.471L79.405 511.751C79.405 511.751 78.7938 490.751 80.6492 482.544C82.6727 474.882 85.1436 467.345 88.0492 459.973L136.16 463.531Z" fill="#000001"/>
<path d="M128.347 457.224C128.347 457.224 159.933 475.953 154.061 477.699C148.189 479.445 115.228 479.052 105.645 475.342C96.062 471.631 88.0508 460.061 88.0508 460.061L110.338 451.592L128.347 457.224Z" fill="#315D80"/>
<path d="M125.441 209.508C125.441 209.508 147.663 215.904 155.172 236.226C157.813 243.408 139.215 250.852 134.893 252.794C130.571 254.737 111.973 231.402 111.973 231.402L113.064 216.668L125.441 209.508Z" fill="#315D80"/>
<path d="M127.735 249.65C127.649 249.65 127.565 249.633 127.486 249.599C127.407 249.565 127.336 249.516 127.277 249.454L124.155 246.179C124.08 246.099 124.029 245.999 124.006 245.892C123.983 245.784 123.989 245.672 124.024 245.568C124.059 245.465 124.119 245.373 124.199 245.301C124.28 245.228 124.377 245.177 124.483 245.153L128.608 244.367C128.686 244.353 128.765 244.354 128.842 244.371C128.919 244.387 128.992 244.418 129.057 244.463C129.122 244.507 129.177 244.564 129.22 244.63C129.263 244.696 129.293 244.77 129.307 244.848C129.321 244.925 129.32 245.005 129.304 245.082C129.287 245.159 129.256 245.231 129.211 245.296C129.167 245.361 129.11 245.417 129.044 245.46C128.978 245.502 128.904 245.532 128.827 245.546L125.792 246.136L128.172 248.624C128.282 248.738 128.344 248.891 128.344 249.05C128.344 249.209 128.282 249.361 128.172 249.475C128.052 249.584 127.897 249.646 127.735 249.65Z" fill="black"/>
<path d="M150.636 245.041C150.521 245.046 150.406 245.015 150.309 244.952C150.211 244.89 150.135 244.799 150.091 244.692C150.091 244.692 146.336 236.594 145.07 234.738C145.026 234.673 144.995 234.599 144.98 234.521C144.965 234.444 144.965 234.364 144.981 234.286C144.998 234.209 145.029 234.136 145.075 234.071C145.12 234.006 145.178 233.951 145.245 233.909C145.308 233.86 145.38 233.826 145.458 233.807C145.535 233.788 145.615 233.786 145.693 233.8C145.772 233.815 145.846 233.845 145.912 233.89C145.977 233.935 146.033 233.994 146.074 234.061C147.384 235.982 151.029 243.841 151.182 244.168C151.219 244.239 151.24 244.317 151.246 244.397C151.251 244.477 151.241 244.558 151.214 244.633C151.187 244.709 151.146 244.778 151.091 244.837C151.037 244.896 150.971 244.943 150.898 244.976L150.636 245.041Z" fill="black"/>
<path d="M142.004 249.061C141.894 249.066 141.785 249.037 141.692 248.979C141.598 248.921 141.524 248.835 141.48 248.734L136.351 238.627C136.283 238.482 136.274 238.316 136.328 238.165C136.381 238.014 136.491 237.89 136.634 237.82C136.704 237.782 136.781 237.759 136.86 237.752C136.939 237.745 137.019 237.754 137.094 237.779C137.169 237.803 137.239 237.843 137.299 237.895C137.359 237.947 137.407 238.01 137.442 238.082L142.55 248.188C142.587 248.258 142.61 248.335 142.617 248.414C142.624 248.493 142.615 248.572 142.591 248.648C142.566 248.723 142.527 248.793 142.475 248.853C142.423 248.913 142.359 248.961 142.288 248.996C142.2 249.04 142.103 249.063 142.004 249.061Z" fill="black"/>
<path d="M119.154 111.168C119.154 111.168 49.3016 119.157 50.3276 192.065C50.9388 236.749 111.165 250.13 111.165 250.13L129.763 204.093L98.7002 186.324L119.154 111.168Z" fill="black"/>
<path d="M121.099 199.73C120.977 199.761 120.85 199.761 120.728 199.73C120.532 199.577 101.3 184.952 93.9659 182.267C93.8905 182.242 93.8208 182.203 93.761 182.151C93.7012 182.099 93.6525 182.035 93.6178 181.964C93.5832 181.893 93.5633 181.815 93.5593 181.736C93.5554 181.657 93.5675 181.577 93.5948 181.503C93.6492 181.354 93.7593 181.232 93.9018 181.163C94.0444 181.094 94.2082 181.083 94.3588 181.132C101.89 183.795 120.553 198.071 121.47 198.595C121.597 198.694 121.679 198.839 121.699 198.998C121.72 199.157 121.677 199.318 121.579 199.446C121.528 199.528 121.457 199.597 121.374 199.646C121.29 199.695 121.196 199.724 121.099 199.73Z" fill="white"/>
<path d="M103.743 187.197C103.582 187.191 103.428 187.129 103.307 187.022C103.023 186.717 96.016 179.469 96.7581 175.322C96.8679 174.842 97.0891 174.394 97.4038 174.014C97.7185 173.635 98.118 173.335 98.5699 173.139C98.9799 172.897 99.4473 172.77 99.9233 172.77C100.399 172.77 100.867 172.897 101.277 173.139C104.529 175.322 104.398 185.494 104.376 186.651C104.376 186.769 104.341 186.883 104.274 186.981C104.208 187.078 104.115 187.153 104.005 187.197H103.743ZM99.967 173.903C99.6681 173.914 99.3763 173.996 99.1157 174.143C98.8223 174.259 98.5637 174.448 98.3649 174.693C98.1661 174.938 98.0337 175.229 97.9806 175.54C97.544 178.029 100.971 182.547 103.198 185.036C103.198 181.456 102.608 175.387 100.644 174.121C100.447 173.978 100.21 173.901 99.967 173.903Z" fill="white"/>
<path d="M142.513 107.524C142.95 107.565 143.375 107.692 143.763 107.897C144.151 108.103 144.495 108.383 144.775 108.721C145.055 109.06 145.265 109.451 145.394 109.871C145.523 110.291 145.567 110.732 145.525 111.169C145.525 112.261 145.023 119.333 135.593 120.774C124.678 122.455 117.999 113.636 117.497 111.409C116.995 109.183 121.426 103.18 120.924 103.944L121.426 106.301C121.426 106.301 136.924 117.041 142.513 107.524Z" fill="#F1D15B"/>
<path d="M136.855 117.017C140.818 119.467 143.728 123.302 145.019 127.778C146.682 134.472 147.899 141.268 148.665 148.123C143.948 145.367 139.864 141.648 136.681 137.208C132.555 130.66 133.974 116.82 133.974 116.82L136.855 117.017Z" fill="#F1D15B"/>
<path d="M131.704 117.017C127.742 119.467 124.832 123.302 123.54 127.778C121.889 134.474 120.671 141.27 119.895 148.123C124.616 145.364 128.706 141.646 131.9 137.208C136.004 130.66 134.585 116.82 134.585 116.82L131.704 117.017Z" fill="#F1D15B"/>
<path d="M134.169 121.231C132.143 121.195 130.135 120.857 128.209 120.227C128.056 120.176 127.927 120.069 127.85 119.927C127.773 119.785 127.753 119.619 127.795 119.463C127.845 119.309 127.952 119.181 128.094 119.103C128.236 119.026 128.402 119.006 128.559 119.048C135.107 121.231 138.294 119.157 138.316 119.048C138.454 118.963 138.618 118.934 138.776 118.966C138.935 118.999 139.075 119.09 139.167 119.223C139.251 119.357 139.28 119.518 139.247 119.673C139.215 119.827 139.124 119.963 138.993 120.052C137.53 120.898 135.856 121.307 134.169 121.231Z" fill="white"/>
<path d="M128.692 131.533H128.342C128.009 131.518 127.688 131.407 127.417 131.214C127.146 131.02 126.936 130.752 126.814 130.442C125.788 127.866 130.765 121.536 131.769 120.27C131.851 120.175 131.959 120.107 132.08 120.076C132.201 120.045 132.329 120.051 132.446 120.095C132.564 120.131 132.667 120.204 132.741 120.301C132.815 120.399 132.857 120.518 132.861 120.641C132.861 121.47 132.861 128.652 130.46 130.878C129.977 131.316 129.343 131.551 128.692 131.533ZM131.573 122.452C129.499 125.247 127.425 128.783 127.884 129.962C127.884 129.962 127.993 130.245 128.473 130.311C128.677 130.344 128.885 130.33 129.082 130.27C129.279 130.209 129.459 130.104 129.608 129.962C130.984 128.696 131.442 124.985 131.573 122.431V122.452Z" fill="white"/>
<path d="M142.317 93.1365H142.207C141.349 92.9932 140.534 92.655 139.827 92.148C139.119 91.6409 138.537 90.9785 138.125 90.2114C138.072 90.1226 138.043 90.0207 138.043 89.9167C138.043 89.8128 138.072 89.7108 138.125 89.622C138.177 89.5284 138.253 89.4505 138.345 89.3967C138.437 89.3428 138.543 89.3151 138.649 89.3165H144.936C145.027 89.3162 145.117 89.3355 145.2 89.3732C145.283 89.4109 145.357 89.466 145.416 89.5348C145.524 89.6867 145.571 89.8737 145.547 90.0586C145.329 91.1282 144.347 93.1365 142.317 93.1365ZM139.85 90.5389C140.438 91.2996 141.299 91.8009 142.251 91.9359C142.661 91.9012 143.052 91.7518 143.38 91.5047C143.708 91.2575 143.96 90.9227 144.107 90.5389H139.85Z" fill="white"/>
<path d="M274.54 132.369C273.687 132.501 272.813 132.378 272.03 132.014C271.247 131.65 270.59 131.062 270.141 130.324C269.692 129.587 269.472 128.732 269.509 127.87C269.545 127.007 269.837 126.175 270.346 125.478C270.856 124.781 271.561 124.25 272.372 123.954C273.183 123.658 274.064 123.609 274.903 123.813C275.742 124.017 276.501 124.465 277.085 125.101C277.67 125.737 278.052 126.532 278.184 127.385C278.362 128.529 278.078 129.697 277.394 130.632C276.711 131.566 275.684 132.191 274.54 132.369ZM273.375 124.862C272.746 124.955 272.159 125.233 271.689 125.66C271.218 126.088 270.885 126.645 270.732 127.262C270.578 127.879 270.611 128.527 270.827 129.125C271.042 129.723 271.431 130.243 271.942 130.62C272.454 130.997 273.066 131.213 273.701 131.242C274.336 131.271 274.965 131.11 275.509 130.78C276.052 130.451 276.486 129.968 276.754 129.391C277.023 128.815 277.114 128.172 277.016 127.544C276.887 126.709 276.431 125.96 275.748 125.461C275.066 124.962 274.213 124.754 273.378 124.884L273.375 124.862Z" fill="black"/>
<path d="M266.486 125.802C266.486 125.802 275.738 124.499 275.245 129.148C274.752 133.797 264.721 136.635 264.721 136.635L266.486 125.802Z" fill="#315D80"/>
<path d="M280.7 123.747C280.566 123.771 280.428 123.748 280.309 123.682C280.19 123.616 280.097 123.511 280.047 123.384L277.386 116.485C277.355 116.343 277.375 116.194 277.444 116.066C277.513 115.937 277.625 115.838 277.76 115.785C277.896 115.732 278.046 115.729 278.184 115.777C278.321 115.824 278.437 115.92 278.511 116.046L281.172 122.944C281.228 123.094 281.224 123.259 281.16 123.405C281.096 123.551 280.977 123.667 280.829 123.727L280.7 123.747Z" fill="black"/>
<path d="M276.23 150.398L277.517 151.568L278.388 150.064L276.23 150.398Z" fill="#F1D15B"/>
<path d="M278.38 150.062L280.607 146.756L278.837 146.17L279.907 145.098L278.622 144.789L279.501 143.902L276.66 143.105L278.38 150.062Z" fill="#F1D15B"/>
<path d="M274.883 131.745L274.042 131.876C274.174 131.83 274.312 131.809 274.452 131.812C274.591 131.766 274.737 131.743 274.883 131.745Z" fill="#5C69A5"/>
<path d="M286.523 147.01C286.373 147.034 286.219 147.009 286.084 146.939C285.95 146.868 285.842 146.755 285.777 146.617L280.52 135.659C280.438 135.487 280.428 135.29 280.491 135.111C280.554 134.931 280.686 134.784 280.857 134.701C280.942 134.658 281.035 134.632 281.129 134.625C281.224 134.619 281.319 134.632 281.409 134.663C281.499 134.695 281.581 134.745 281.651 134.809C281.721 134.874 281.777 134.952 281.815 135.039L287.073 145.997C287.149 146.169 287.156 146.364 287.094 146.542C287.031 146.72 286.903 146.868 286.735 146.955L286.523 147.01Z" fill="#C06A87"/>
<path d="M285.105 143.987C284.953 144.01 284.797 143.985 284.66 143.915C284.522 143.845 284.41 143.735 284.338 143.598C284.256 143.429 284.243 143.235 284.302 143.057C284.361 142.878 284.487 142.73 284.654 142.643L287.253 141.312C287.424 141.227 287.622 141.214 287.804 141.274C287.985 141.335 288.135 141.466 288.22 141.637C288.305 141.808 288.319 142.007 288.258 142.188C288.197 142.369 288.066 142.519 287.895 142.604L285.314 143.911L285.105 143.987Z" fill="#C06A87"/>
<defs>
<filter id="filter0_i_3533_216" x="0" y="0" width="592" height="525" filterUnits="userSpaceOnUse" color-interpolation-filters="sRGB">
<feFlood flood-opacity="0" result="BackgroundImageFix"/>
<feBlend mode="normal" in="SourceGraphic" in2="BackgroundImageFix" result="shape"/>
<feColorMatrix in="SourceAlpha" type="matrix" values="0 0 0 0 0 0 0 0 0 0 0 0 0 0 0 0 0 0 127 0" result="hardAlpha"/>
<feOffset dx="4" dy="5"/>
<feGaussianBlur stdDeviation="2.5"/>
<feComposite in2="hardAlpha" operator="arithmetic" k2="-1" k3="1"/>
<feColorMatrix type="matrix" values="0 0 0 0 0.816667 0 0 0 0 0.885259 0 0 0 0 1 0 0 0 0.1 0"/>
<feBlend mode="normal" in2="shape" result="effect1_innerShadow_3533_216"/>
</filter>
<linearGradient id="paint0_linear_3533_216" x1="385.099" y1="-308.475" x2="385.099" y2="570.422" gradientUnits="userSpaceOnUse">
<stop offset="0.224084" stop-color="#AACAFF"/>
<stop offset="0.699839" stop-color="#94A5C2"/>
<stop offset="0.990578" stop-color="#94A5C2" stop-opacity="0.25"/>
</linearGradient>
</defs>
</svg>
