<svg width="47" height="47" viewBox="0 0 47 47" fill="none" xmlns="http://www.w3.org/2000/svg">
<path d="M3.91602 37.2077V25.4577C3.91602 24.5764 4.09553 23.7768 4.45456 23.0587C4.81359 22.3407 5.28685 21.7042 5.87435 21.1493V15.666C5.87435 14.0341 6.44553 12.6469 7.58789 11.5046C8.73025 10.3622 10.1174 9.79102 11.7493 9.79102H19.5827C20.3334 9.79102 21.0351 9.93006 21.6879 10.2081C22.3407 10.4862 22.9445 10.8694 23.4993 11.3577C24.0542 10.8681 24.658 10.4849 25.3108 10.2081C25.9636 9.93136 26.6653 9.79232 27.416 9.79102H35.2493C36.8813 9.79102 38.2684 10.3622 39.4108 11.5046C40.5532 12.6469 41.1244 14.0341 41.1244 15.666V21.1493C41.7118 21.7042 42.1851 22.3407 42.5441 23.0587C42.9032 23.7768 43.0827 24.5764 43.0827 25.4577V37.2077H39.166V33.291H7.83268V37.2077H3.91602ZM25.4577 19.5827H37.2077V15.666C37.2077 15.1112 37.0197 14.6457 36.6437 14.2697C36.2677 13.8937 35.8029 13.7064 35.2493 13.7077H27.416C26.8612 13.7077 26.3957 13.8957 26.0197 14.2717C25.6437 14.6477 25.4564 15.1125 25.4577 15.666V19.5827ZM9.79102 19.5827H21.541V15.666C21.541 15.1112 21.353 14.6457 20.977 14.2697C20.601 13.8937 20.1362 13.7064 19.5827 13.7077H11.7493C11.1945 13.7077 10.7291 13.8957 10.3531 14.2717C9.97706 14.6477 9.78971 15.1125 9.79102 15.666V19.5827ZM7.83268 29.3743H39.166V25.4577C39.166 24.9028 38.978 24.4374 38.602 24.0614C38.226 23.6854 37.7612 23.498 37.2077 23.4993H9.79102C9.23615 23.4993 8.77072 23.6873 8.39472 24.0633C8.01872 24.4393 7.83138 24.9041 7.83268 25.4577V29.3743Z" fill="#315D80"/>
</svg>
