<svg width="47" height="47" viewBox="0 0 47 47" fill="none" xmlns="http://www.w3.org/2000/svg">
<path d="M37.0125 11.7493C36.6208 10.5743 35.4458 9.79102 34.2708 9.79102H12.7292C11.3583 9.79102 10.3792 10.5743 9.9875 11.7493L5.875 23.4993V39.166C5.875 40.1452 6.85417 41.1243 7.83333 41.1243H9.79167C10.9667 41.1243 11.75 40.1452 11.75 39.166V37.2077H35.25V39.166C35.25 40.1452 36.2292 41.1243 37.2083 41.1243H39.1667C40.1458 41.1243 41.125 40.1452 41.125 39.166V23.4993L37.0125 11.7493ZM13.3167 13.7077H33.4875L35.6417 19.5827H11.3583L13.3167 13.7077ZM37.2083 33.291H9.79167V23.4993H37.2083V33.291ZM14.6875 25.4577C16.2542 25.4577 17.625 26.8285 17.625 28.3952C17.625 29.9618 16.2542 31.3327 14.6875 31.3327C13.1208 31.3327 11.75 29.9618 11.75 28.3952C11.75 26.8285 13.1208 25.4577 14.6875 25.4577ZM32.3125 25.4577C33.8792 25.4577 35.25 26.8285 35.25 28.3952C35.25 29.9618 33.8792 31.3327 32.3125 31.3327C30.7458 31.3327 29.375 29.9618 29.375 28.3952C29.375 26.8285 30.7458 25.4577 32.3125 25.4577Z" fill="#315D80"/>
</svg>
