<svg width="47" height="47" viewBox="0 0 47 47" fill="none" xmlns="http://www.w3.org/2000/svg">
<path d="M41.1244 27.416V29.3743C41.1244 33.1148 39.0289 36.3656 35.9348 38.0106L37.2077 43.0827H33.291L32.3118 39.166H14.6868L13.7077 43.0827H9.79102L11.0639 38.0106C9.49567 37.1787 8.18383 35.935 7.26945 34.4134C6.35507 32.8917 5.87275 31.1496 5.87435 29.3743V27.416H3.91602V23.4993H39.166V9.79102C39.166 9.27163 38.9597 8.77352 38.5924 8.40627C38.2252 8.03901 37.7271 7.83268 37.2077 7.83268C36.2285 7.83268 35.4844 8.49852 35.2493 9.37977C36.4831 10.4373 37.2077 12.0039 37.2077 13.7077H25.4577C25.4577 12.1495 26.0767 10.6552 27.1784 9.55343C28.2802 8.45165 29.7745 7.83268 31.3327 7.83268H31.6656C32.4685 5.56102 34.6423 3.91602 37.2077 3.91602C38.7658 3.91602 40.2602 4.53499 41.3619 5.63676C42.4637 6.73854 43.0827 8.23287 43.0827 9.79102V27.416H41.1244ZM37.2077 27.416H9.79102V29.3743C9.79102 30.9325 10.41 32.4268 11.5118 33.5286C12.6135 34.6304 14.1079 35.2493 15.666 35.2493H31.3327C32.8908 35.2493 34.3852 34.6304 35.4869 33.5286C36.5887 32.4268 37.2077 30.9325 37.2077 29.3743V27.416Z" fill="#315D80"/>
</svg>
