<svg width="1118" height="1118" viewBox="0 0 1118 1118" fill="none" xmlns="http://www.w3.org/2000/svg">
<g filter="url(#filter0_di_2215_2799)">
<path d="M279.302 279.307C334.544 224.065 404.926 186.445 481.549 171.204C558.171 155.963 637.593 163.785 709.769 193.682C781.946 223.578 843.637 274.207 887.04 339.164C930.443 404.121 953.609 480.491 953.609 558.614C953.609 636.738 930.443 713.107 887.04 778.064C843.637 843.022 781.946 893.65 709.769 923.547C637.593 953.443 558.171 961.266 481.549 946.024C404.926 930.783 334.544 893.163 279.302 837.921" stroke="#EDF2FA" stroke-width="164" stroke-linecap="round"/>
</g>
<mask id="mask0_2215_2799" style="mask-type:alpha" maskUnits="userSpaceOnUse" x="197" y="81" width="839" height="955">
<path d="M279.306 279.307C334.548 224.065 404.93 186.445 481.553 171.204C558.175 155.963 637.596 163.785 709.773 193.682C781.95 223.578 843.641 274.207 887.044 339.164C930.447 404.121 953.613 480.491 953.613 558.614C953.613 636.738 930.447 713.107 887.044 778.064C843.641 843.022 781.95 893.65 709.773 923.547C637.596 953.443 558.175 961.266 481.553 946.024C404.93 930.783 334.548 893.163 279.306 837.921" stroke="#EDF2FA" stroke-width="164" stroke-linecap="round"/>
</mask>
<g mask="url(#mask0_2215_2799)">
<path d="M189.605 435.591C214.072 361.398 259.991 296.127 321.555 248.031C383.119 199.935 457.562 171.175 535.471 165.388C613.38 159.6 691.255 177.046 759.25 215.518" stroke="url(#paint0_linear_2215_2799)" stroke-width="164" stroke-linecap="round"/>
</g>
<defs>
<filter id="filter0_di_2215_2799" x="197.301" y="81.6143" width="848.309" height="965" filterUnits="userSpaceOnUse" color-interpolation-filters="sRGB">
<feFlood flood-opacity="0" result="BackgroundImageFix"/>
<feColorMatrix in="SourceAlpha" type="matrix" values="0 0 0 0 0 0 0 0 0 0 0 0 0 0 0 0 0 0 127 0" result="hardAlpha"/>
<feOffset dx="5" dy="6"/>
<feGaussianBlur stdDeviation="2.5"/>
<feComposite in2="hardAlpha" operator="out"/>
<feColorMatrix type="matrix" values="0 0 0 0 0.537255 0 0 0 0 0.682353 0 0 0 0 0.917647 0 0 0 0.04 0"/>
<feBlend mode="normal" in2="BackgroundImageFix" result="effect1_dropShadow_2215_2799"/>
<feBlend mode="normal" in="SourceGraphic" in2="effect1_dropShadow_2215_2799" result="shape"/>
<feColorMatrix in="SourceAlpha" type="matrix" values="0 0 0 0 0 0 0 0 0 0 0 0 0 0 0 0 0 0 127 0" result="hardAlpha"/>
<feOffset dx="4" dy="4"/>
<feGaussianBlur stdDeviation="6"/>
<feComposite in2="hardAlpha" operator="arithmetic" k2="-1" k3="1"/>
<feColorMatrix type="matrix" values="0 0 0 0 0.223529 0 0 0 0 0.486275 0 0 0 0 0.933333 0 0 0 0.12 0"/>
<feBlend mode="normal" in2="shape" result="effect2_innerShadow_2215_2799"/>
</filter>
<linearGradient id="paint0_linear_2215_2799" x1="619.113" y1="172.189" x2="856.113" y2="284.189" gradientUnits="userSpaceOnUse">
<stop stop-color="#F2727F"/>
<stop offset="1" stop-color="#F8B195"/>
</linearGradient>
</defs>
</svg>
