<svg width="588" height="520" viewBox="0 0 588 520" fill="none" xmlns="http://www.w3.org/2000/svg">
<mask id="mask0_2215_2510" style="mask-type:alpha" maskUnits="userSpaceOnUse" x="0" y="0" width="588" height="520">
<path d="M0 40C0 17.9086 17.9086 0 40 0H548C570.091 0 588 17.9086 588 40V520H0V40Z" fill="#AACAFF"/>
</mask>
<g mask="url(#mask0_2215_2510)">
<path d="M350.225 384.227C348.918 385.534 322.358 446.385 323.643 478.594C324.928 510.803 344.399 623.003 344.399 623.003L375.412 796.543H420.624C420.624 796.543 420.624 685.605 416.593 655.235C412.561 624.864 407.843 608.139 406.491 585.832C405.14 563.525 404.764 516.585 403.412 518.446C402.061 520.307 507.527 790.34 507.527 790.34L551.831 787.416C551.831 787.416 535.771 694.732 532.404 677.143C529.037 659.554 515.568 605.658 505.489 578.389C495.41 551.12 491.843 483.135 477.888 453.85C469.347 435.632 463.669 416.205 461.052 396.255L350.225 384.227Z" fill="black"/>
<path d="M381.863 229.296V221.653C381.863 221.653 433.876 212.792 434.497 215.362C435.117 217.932 429.845 238.112 429.845 238.112L402.553 248.723L381.863 229.296Z" fill="#FF725E"/>
<path d="M279.077 151.631C279.077 151.631 285.124 139.979 286.63 138.739C288.137 137.498 290.352 137.786 290.197 139.846C289.551 142.583 288.63 145.247 287.45 147.799C287.45 147.799 291.991 134.508 295.558 131.894C299.124 129.28 299.545 131.362 299.545 133.267C299.545 133.267 302.159 124.672 305.57 126.245C308.982 127.818 306.257 133.134 306.257 133.134C306.257 133.134 309.957 126.489 312.703 128.837C315.45 131.185 308.029 143.967 308.029 143.967C308.029 143.967 310.754 142.748 309.934 147.688C309.115 152.628 308.14 159.606 305.792 163.726C303.444 167.847 298.105 177.682 293.985 183.663C289.865 189.644 288.425 241.79 288.425 241.79C288.425 241.79 270.703 252.334 261.953 250.939L258.52 250.385L269.706 187.075C268.036 183.284 267.394 179.12 267.846 175.002C268.377 167.359 279.077 151.631 279.077 151.631Z" fill="#295273"/>
<path d="M302.109 149.418C301.093 149.596 300.062 149.685 299.03 149.683C297.125 149.816 294.6 150.06 291.631 150.503C288.663 150.946 286.182 151.544 284.321 151.965C283.338 152.266 282.33 152.481 281.309 152.607C282.246 152.162 283.225 151.814 284.233 151.566C286.632 150.863 289.073 150.316 291.543 149.927C294.013 149.534 296.507 149.319 299.008 149.285C300.044 149.22 301.083 149.264 302.109 149.418Z" fill="black"/>
<path d="M299.896 132.561C299.689 133.525 299.37 134.462 298.944 135.352C298.257 137.035 297.216 139.339 295.953 141.82C294.69 144.301 293.428 146.472 292.475 148.001C292.001 148.868 291.429 149.678 290.77 150.415C291.14 149.509 291.585 148.635 292.099 147.801C292.985 146.206 294.181 144.013 295.444 141.554C296.706 139.095 297.77 136.836 298.567 135.197C298.944 134.286 299.389 133.405 299.896 132.561Z" fill="black"/>
<path d="M306.894 131.852C306.498 132.759 306.016 133.627 305.455 134.443L301.822 140.557L298.233 146.693C297.792 147.578 297.265 148.416 296.66 149.197C296.973 148.256 297.381 147.351 297.879 146.494C298.698 144.855 299.894 142.64 301.312 140.247C302.73 137.855 304.081 135.817 305.1 134.222C305.611 133.369 306.212 132.574 306.894 131.852Z" fill="black"/>
<path d="M283.102 174.515C283.102 174.515 283.102 174.382 283.102 174.094C283.19 173.704 283.301 173.32 283.434 172.942C283.904 171.526 284.559 170.178 285.383 168.933C286.6 167.067 288.146 165.438 289.947 164.126C292.21 162.727 294.358 161.149 296.371 159.408C300.447 155.376 300.801 149.705 303.371 146.737C304.279 145.525 305.506 144.589 306.915 144.034C307.302 143.906 307.704 143.831 308.111 143.812H308.554C308.026 143.908 307.508 144.049 307.004 144.233C305.678 144.838 304.538 145.786 303.703 146.98C302.498 148.788 301.572 150.767 300.956 152.851C300.073 155.436 298.654 157.807 296.792 159.806C294.755 161.573 292.568 163.159 290.257 164.547C288.495 165.809 286.96 167.359 285.716 169.132C284.655 170.828 283.779 172.633 283.102 174.515Z" fill="white"/>
<path d="M527.575 137.519C526.866 132.225 525.714 126.687 522.17 122.655C516.92 116.674 507.328 115.81 500.195 119.332C493.062 122.854 488.211 129.987 485.619 137.519L475.916 164.522C475.148 172.288 475 180.103 475.473 187.893C475.673 191.193 476.359 195.048 479.306 196.554C482.628 198.282 486.859 195.557 488.166 192.124C489.085 188.472 488.97 184.637 487.834 181.048C489.187 181.373 490.453 181.987 491.547 182.847C492.64 183.707 493.535 184.794 494.17 186.032C495.421 188.53 497.178 190.741 499.331 192.522C501.679 194.029 505.445 193.763 506.553 191.215C506.794 190.233 506.826 189.21 506.647 188.214C506.467 187.218 506.08 186.271 505.512 185.434L497.913 170.304C500.299 172.573 503.346 174.024 506.612 174.446C509.878 174.869 513.193 174.24 516.078 172.652C518.917 170.986 521.378 168.747 523.304 166.077C525.23 163.407 526.579 160.365 527.265 157.146C528.606 150.682 528.711 144.022 527.575 137.519Z" fill="black"/>
<path d="M490.51 136.947C487.689 129.21 483.165 122.206 477.271 116.455C471.378 110.703 464.266 106.35 456.462 103.719C447.291 100.618 442.883 101.327 435.684 100.994C428.537 100.456 421.43 102.456 415.614 106.643C408.791 111.805 402.456 118.007 398.978 125.827C395.149 133.75 392.064 142.011 389.763 150.504C387.445 159.038 387.537 168.048 390.028 176.533L410.098 187.033C421.706 191.197 433.491 195.384 445.785 196.359C458.079 197.334 471.149 194.742 480.475 186.678C493.434 175.58 496.801 152.874 490.51 136.947Z" fill="black"/>
<path d="M471.664 130.745L446.942 110.432L439.255 108.926C422.597 103.653 405.23 118.34 400.8 131.786C395.882 146.739 390.477 165.17 389.325 176.977C386.999 200.724 405.363 208.632 405.363 208.632C405.363 208.632 404.056 212.132 401.531 219.553L398.762 221.768C400.268 234.793 419.385 240.619 439.809 232.844L440.673 232.135L476.715 140.913C477.326 138.894 477.143 136.717 476.205 134.828C475.266 132.939 473.642 131.478 471.664 130.745Z" fill="#315D80"/>
<path d="M401.419 151.344C401.212 152.104 401.309 152.916 401.689 153.606C402.07 154.297 402.704 154.812 403.457 155.043C403.822 155.168 404.208 155.218 404.593 155.192C404.977 155.165 405.353 155.062 405.697 154.889C406.042 154.716 406.348 154.476 406.599 154.183C406.849 153.89 407.039 153.55 407.157 153.183C407.363 152.425 407.266 151.617 406.885 150.93C406.504 150.243 405.871 149.732 405.119 149.505C404.755 149.377 404.37 149.324 403.986 149.347C403.601 149.371 403.225 149.471 402.88 149.643C402.535 149.814 402.228 150.053 401.977 150.345C401.727 150.637 401.537 150.977 401.419 151.344Z" fill="black"/>
<path d="M403.482 140.908C403.747 141.374 406.383 140.31 409.529 141.13C412.675 141.95 414.58 144.143 415.023 143.855C415.466 143.567 415.023 142.924 414.225 141.95C413.115 140.64 411.618 139.717 409.95 139.313C408.317 138.875 406.587 138.968 405.01 139.579C403.858 140.067 403.349 140.687 403.482 140.908Z" fill="black"/>
<path d="M415.599 171.567C414.069 170.638 412.433 169.894 410.726 169.352C409.951 169.064 409.22 168.71 409.22 168.134C409.378 167.294 409.788 166.521 410.394 165.919L414.359 160.403C419.919 152.561 424.172 146.026 423.862 145.805C423.552 145.583 418.767 151.764 413.207 159.605C411.856 161.555 410.549 163.393 409.33 165.166C408.562 166.002 408.122 167.087 408.09 168.222C408.13 168.536 408.243 168.835 408.42 169.097C408.597 169.359 408.833 169.575 409.109 169.729C409.515 169.976 409.956 170.162 410.416 170.283C412.082 170.929 413.824 171.36 415.599 171.567Z" fill="black"/>
<path d="M405.337 208.585C416.028 211.547 427.331 211.485 437.989 208.408C437.989 208.408 425.739 222.098 403.477 214.013L405.337 208.585Z" fill="black"/>
<path d="M407.991 130.411C408.324 131.319 410.871 131.43 413.618 132.405C416.365 133.379 418.514 134.62 419.311 134.177C419.666 133.911 419.555 133.091 418.779 131.962C417.695 130.653 416.257 129.684 414.637 129.17C413.043 128.605 411.317 128.52 409.675 128.927C408.434 129.481 407.858 129.968 407.991 130.411Z" fill="black"/>
<path d="M434.893 160.78C434.671 161.532 434.165 162.167 433.483 162.551C432.801 162.936 431.996 163.04 431.238 162.841C430.86 162.762 430.501 162.609 430.183 162.389C429.865 162.169 429.595 161.887 429.388 161.561C429.181 161.234 429.042 160.869 428.98 160.488C428.917 160.106 428.932 159.716 429.023 159.341C429.245 158.584 429.753 157.943 430.439 157.554C431.126 157.165 431.937 157.059 432.7 157.258C433.077 157.342 433.434 157.5 433.75 157.723C434.065 157.946 434.333 158.23 434.538 158.558C434.742 158.886 434.878 159.252 434.94 159.633C435.001 160.015 434.985 160.405 434.893 160.78Z" fill="black"/>
<path d="M445.701 153.095C445.236 153.36 443.486 151.079 440.406 150.148C437.327 149.218 434.536 150.148 434.315 149.617C434.093 149.085 434.78 148.819 435.998 148.398C437.628 147.891 439.374 147.891 441.005 148.398C442.621 148.893 444.045 149.876 445.081 151.212C445.812 152.209 445.922 152.984 445.701 153.095Z" fill="black"/>
<path d="M447.007 142.594C446.188 143.104 444.017 141.664 441.137 140.755C438.257 139.847 435.643 139.626 435.311 138.717C435.178 138.274 435.776 137.699 437.039 137.344C438.752 136.944 440.543 137.044 442.2 137.632C443.863 138.158 445.345 139.14 446.476 140.468C447.273 141.509 447.384 142.328 447.007 142.594Z" fill="black"/>
<path d="M460.824 177.176C461.267 175.47 464.258 171.97 466.008 172.147C470.66 172.612 478.634 175.093 475.755 186.479C471.812 201.986 453.447 194.366 453.603 193.923C456.409 188.521 458.822 182.924 460.824 177.176Z" fill="#315D80"/>
<path d="M462.827 189.822C462.827 189.822 463.049 190.065 463.447 190.398C464.022 190.836 464.745 191.035 465.463 190.951C467.257 190.774 469.318 188.515 470.093 185.724C470.466 184.398 470.55 183.008 470.337 181.648C470.311 181.124 470.158 180.615 469.892 180.163C469.626 179.712 469.254 179.332 468.808 179.056C468.521 178.893 468.186 178.837 467.861 178.897C467.537 178.958 467.244 179.132 467.036 179.388C466.704 179.765 466.726 180.097 466.637 180.097C466.549 180.097 466.371 179.765 466.637 179.144C466.826 178.783 467.13 178.495 467.501 178.325C467.754 178.22 468.025 178.166 468.299 178.166C468.572 178.166 468.843 178.22 469.096 178.325C469.703 178.611 470.226 179.049 470.614 179.596C471.002 180.143 471.242 180.781 471.311 181.448C471.634 182.967 471.581 184.541 471.156 186.034C470.27 189.135 467.922 191.66 465.485 191.749C465.038 191.761 464.593 191.674 464.184 191.494C463.774 191.314 463.409 191.045 463.115 190.708C462.761 190.198 462.761 189.822 462.827 189.822Z" fill="black"/>
<path d="M466.638 172.39L461.454 175.181C449.847 153.782 429.954 103.165 431.018 106.133C439.565 105.728 448.078 107.464 455.783 111.184C467.546 117.298 489.189 131.12 484.116 145.674C479.043 160.228 466.638 172.39 466.638 172.39Z" fill="black"/>
<path d="M489.158 174.097C489.191 173.787 489.191 173.475 489.158 173.166C489.145 172.273 489.049 171.383 488.87 170.508C488.179 167.299 486.803 164.277 484.838 161.647C481.855 157.729 478.23 154.343 474.117 151.634C469.686 148.422 464.37 145.365 459.563 141.223C455.003 137.41 450.907 133.075 447.357 128.308C444.465 124.432 441.93 120.302 439.781 115.97C438.347 113.039 437.082 110.029 435.993 106.954L435.129 104.451C435.041 104.147 434.929 103.851 434.797 103.564C434.828 103.879 434.887 104.191 434.974 104.495C435.129 105.071 435.351 105.957 435.683 107.064C436.681 110.188 437.879 113.244 439.272 116.213C441.369 120.618 443.876 124.816 446.759 128.751C450.315 133.587 454.435 137.982 459.031 141.843C463.905 146.008 469.199 149.065 473.696 152.232C477.772 154.866 481.38 158.16 484.373 161.979C486.357 164.551 487.783 167.509 488.56 170.663C489.114 172.812 489.069 174.097 489.158 174.097Z" fill="#455A64"/>
<path d="M484.684 177.108C485.09 175.981 485.249 174.78 485.149 173.586C484.94 170.296 483.743 167.146 481.715 164.548C478.653 160.831 474.889 157.752 470.639 155.488C465.54 152.656 460.77 149.268 456.417 145.386C452.098 141.446 448.287 136.981 445.076 132.095C442.454 128.121 440.228 123.899 438.43 119.491C437.232 116.506 436.218 113.451 435.395 110.342L434.797 107.794C434.732 107.492 434.643 107.196 434.531 106.908C434.531 106.908 434.531 107.218 434.531 107.816C434.531 108.415 434.819 109.367 434.996 110.408C435.691 113.568 436.624 116.671 437.788 119.69C441.657 129.716 447.808 138.703 455.753 145.94C460.138 149.858 464.963 153.255 470.13 156.064C474.364 158.268 478.126 161.278 481.206 164.924C483.207 167.425 484.452 170.446 484.794 173.63C484.863 174.79 484.826 175.955 484.684 177.108Z" fill="#455A64"/>
<path d="M424.634 176.133C425.111 175.99 425.619 175.99 426.096 176.133C426.52 176.329 426.865 176.665 427.071 177.085C427.625 178.035 427.882 179.129 427.807 180.227C427.733 181.324 427.331 182.374 426.653 183.24C425.975 184.106 425.053 184.749 424.006 185.085C422.959 185.422 421.835 185.436 420.779 185.126C419.408 184.668 418.228 183.766 417.426 182.562C416.624 181.359 416.245 179.923 416.349 178.481C418.963 177.727 422.042 176.775 424.634 176.133Z" fill="#FEFEFE"/>
<path d="M420.583 185.215C421.718 185.34 422.866 185.22 423.95 184.86C425.097 184.401 426.041 183.544 426.608 182.446C426.936 181.782 427.125 181.059 427.163 180.32C427.201 179.581 427.088 178.842 426.83 178.148C426.542 177.417 426.099 176.686 425.545 176.62C424.835 176.636 424.133 176.763 423.462 176.996L419.675 177.927C418.53 178.282 417.348 178.505 416.152 178.591C417.239 178.079 418.374 177.678 419.542 177.395L423.285 176.288C424.048 175.992 424.86 175.849 425.678 175.867C425.928 175.908 426.167 176 426.38 176.137C426.594 176.274 426.777 176.454 426.918 176.664C427.184 177.033 427.4 177.435 427.561 177.86C427.861 178.655 427.989 179.505 427.936 180.353C427.882 181.201 427.649 182.027 427.25 182.778C426.588 184.005 425.489 184.938 424.171 185.392C423.594 185.615 422.976 185.714 422.358 185.684C421.74 185.653 421.135 185.493 420.583 185.215Z" fill="#FEFEFE"/>
<path d="M493.504 153.713C493.602 154.268 493.639 154.833 493.615 155.396C493.615 155.95 493.615 156.615 493.615 157.39C493.615 158.165 493.615 159.052 493.394 160.026C493.394 160.514 493.394 161.023 493.216 161.555C493.039 162.086 493.039 162.618 492.929 163.194C492.751 164.324 492.419 165.52 492.131 166.783C491.373 169.484 490.403 172.121 489.229 174.669C488.02 177.211 486.589 179.643 484.954 181.935C484.134 182.931 483.425 183.95 482.739 184.77L481.609 185.988L480.479 187.052C479.837 187.657 479.156 188.219 478.441 188.735L477.577 189.4L476.802 189.887C476.336 190.204 475.848 190.486 475.34 190.729C475.34 190.596 477.4 189.422 480.191 186.742L481.277 185.678L482.362 184.438C483.159 183.618 483.824 182.599 484.577 181.602C486.17 179.331 487.571 176.93 488.764 174.425C489.937 171.907 490.907 169.3 491.666 166.628C491.976 165.387 492.33 164.213 492.508 163.083L492.84 161.466C492.84 160.957 492.995 160.447 493.061 159.96C493.217 159.007 493.283 158.143 493.349 157.368C493.416 156.593 493.349 155.95 493.482 155.396C493.429 154.836 493.437 154.272 493.504 153.713Z" fill="#455A64"/>
<path d="M257.568 243.697L252.03 259.447C249.56 263.328 248.547 267.96 249.172 272.517C250.324 279.827 250.59 291.324 264.679 293.982C278.767 296.641 343.319 291.147 343.319 291.147C343.319 291.147 381.885 219.884 381.597 220.77C374.188 220.936 366.865 222.39 359.955 225.067C355.661 226.936 351.565 229.229 347.727 231.912C338.247 238.313 327.582 242.749 316.359 244.96C303.688 247.485 289.533 250.343 290.021 250.343L291.483 237.406L257.568 243.697Z" fill="#C06A87"/>
<path d="M451.747 365.599L478.329 241.038L449.687 228.167L445.589 218.952L407.133 232.686L402.769 215.873L394.24 220.702L381.458 220.813C381.458 220.813 338.395 266.158 335.072 296.817C333.366 312.567 346.392 356.029 346.392 356.029L344.93 386.754L340.012 399.912C338.373 404.343 337.553 405.805 341.385 408.397C382.943 415.308 423.702 416.859 463.222 409.77C465.213 407.073 466.414 403.873 466.688 400.532C466.961 397.19 466.298 393.838 464.772 390.852L451.747 365.599Z" fill="#C06A87"/>
<path opacity="0.3" d="M391.606 223.072C391.606 223.072 384.96 237.958 391.606 247.44L405.097 238.712L408.109 254.728C408.109 254.728 437.66 248.924 446.41 231.158C446.41 231.158 425.609 250.319 408.397 250.585L406.47 235.079L393.179 242.965C393.179 242.965 391.695 230.028 391.606 223.072Z" fill="black"/>
<g opacity="0.3">
<path d="M464.286 390.008L391.184 407.265C388.896 407.788 386.493 407.383 384.504 406.137C382.515 404.891 381.101 402.906 380.573 400.619L354.677 290.878C354.415 289.743 354.378 288.568 354.57 287.419C354.762 286.271 355.179 285.171 355.796 284.184C356.413 283.196 357.219 282.34 358.167 281.664C359.116 280.988 360.188 280.506 361.323 280.245L437.703 262.39C438.838 262.128 440.013 262.091 441.162 262.283C442.31 262.475 443.41 262.892 444.397 263.509C445.385 264.126 446.241 264.932 446.917 265.88C447.593 266.829 448.075 267.901 448.336 269.036L457.352 376.673C458.925 379.486 464.286 390.008 464.286 390.008Z" fill="black"/>
</g>
<path d="M438.272 262.405L362.508 280.273C357.555 281.442 354.486 286.404 355.654 291.358L381.363 400.368C382.531 405.322 387.494 408.39 392.447 407.222L468.211 389.354C473.165 388.186 476.233 383.223 475.065 378.27L449.357 269.259C448.188 264.306 443.226 261.237 438.272 262.405Z" fill="#F1D15B"/>
<path d="M468.253 389.322H468.519C468.79 389.25 469.056 389.161 469.316 389.056C470.343 388.66 471.295 388.09 472.129 387.373C473.464 386.193 474.432 384.655 474.921 382.942C475.224 381.847 475.315 380.704 475.186 379.575C474.985 378.283 474.711 377.004 474.367 375.743C471.797 364.977 468.098 349.382 463.512 330.132L456.047 298.631C454.696 292.961 453.322 287.112 451.882 281.087C451.174 278.052 450.443 274.995 449.667 271.894C449.398 270.368 448.945 268.88 448.316 267.464C447.589 266.048 446.495 264.854 445.148 264.008C443.785 263.154 442.215 262.686 440.607 262.657C438.968 262.717 437.345 262.992 435.778 263.476L425.876 265.824L405.474 270.631L362.565 280.755C360.781 281.169 359.169 282.127 357.951 283.495C356.733 284.864 355.969 286.577 355.765 288.397C355.661 290.22 355.902 292.046 356.474 293.78L357.736 299.185C359.435 306.348 361.096 313.392 362.72 320.318C365.999 334.185 369.145 347.565 372.135 360.192L380.641 396.366L381.638 400.575C381.988 401.916 382.64 403.158 383.543 404.208C384.418 405.233 385.515 406.046 386.751 406.583C387.987 407.121 389.33 407.369 390.676 407.309C391.996 407.186 393.301 406.941 394.575 406.578L398.407 405.67L405.806 403.942L451.484 393.088L463.889 390.23L467.123 389.499L468.231 389.255L467.145 389.543L463.911 390.341L451.528 393.309L405.917 404.164L398.518 405.936L394.708 406.844C393.401 407.201 392.068 407.453 390.721 407.597C388.566 407.678 386.448 407.022 384.717 405.737C382.985 404.453 381.743 402.616 381.195 400.531L380.198 396.3C377.518 384.98 374.638 372.885 371.626 360.148C368.613 347.41 365.467 334.03 362.189 320.274L357.205 299.141C356.784 297.347 356.341 295.552 355.92 293.758C355.72 292.85 355.477 291.964 355.3 291.011C355.145 290.065 355.145 289.1 355.3 288.154C355.462 286.706 355.959 285.316 356.751 284.093C357.543 282.871 358.608 281.849 359.863 281.109C360.699 280.62 361.602 280.254 362.543 280.024L405.452 269.9L425.876 265.093L435.756 262.878L438.192 262.302C439.027 262.104 439.883 262.015 440.74 262.036C442.441 262.085 444.099 262.582 445.547 263.476C446.968 264.384 448.122 265.653 448.892 267.153C449.27 267.853 449.56 268.597 449.756 269.369C449.933 270.166 450.11 270.941 450.31 271.717C451.019 274.818 451.75 277.875 452.525 280.888L456.645 298.454L463.822 329.91C468.253 349.182 471.974 364.777 474.5 375.566C474.788 376.917 475.164 378.179 475.297 379.42C475.418 380.572 475.321 381.737 475.009 382.854C474.617 384.271 473.888 385.573 472.885 386.648C471.883 387.724 470.636 388.543 469.25 389.034C468.923 389.148 468.59 389.244 468.253 389.322Z" fill="white"/>
<path d="M424.803 332.88C424.803 334.748 424.249 336.573 423.211 338.125C422.173 339.678 420.698 340.887 418.973 341.601C417.247 342.314 415.348 342.5 413.517 342.134C411.686 341.768 410.005 340.867 408.686 339.545C407.367 338.223 406.47 336.54 406.108 334.708C405.747 332.876 405.937 330.977 406.654 329.253C407.372 327.53 408.585 326.057 410.14 325.023C411.695 323.989 413.521 323.439 415.389 323.443C417.888 323.449 420.282 324.446 422.047 326.215C423.812 327.984 424.803 330.381 424.803 332.88Z" fill="white"/>
<path opacity="0.3" d="M373.191 354.387C372.992 354.387 375.406 359.77 382.938 361.785C390.47 363.801 407.305 363.846 410.406 364.953C413.508 366.061 476.508 378.244 476.508 378.244C476.508 378.244 478.014 377.469 478.347 371.156C478.679 364.843 373.191 354.387 373.191 354.387Z" fill="black"/>
<path d="M389.63 302.91C389.58 302.644 389.467 302.395 389.302 302.182C389.136 301.968 388.923 301.798 388.678 301.683C388.434 301.568 388.166 301.513 387.896 301.522C387.626 301.532 387.363 301.605 387.127 301.736C384.778 303.087 381.5 306.343 382.032 312.989C382.29 317.033 383.448 320.968 385.421 324.508L366.149 326.723C366.149 326.723 359.37 328.628 360.345 332.726C361.319 336.824 362.25 336.559 362.25 336.559C361.624 336.614 361.016 336.798 360.464 337.1C359.913 337.401 359.429 337.814 359.045 338.311C358.66 338.808 358.382 339.379 358.228 339.989C358.075 340.598 358.049 341.233 358.152 341.853C358.373 344.711 361.74 346.771 361.74 346.771C361.74 346.771 360.677 351.666 361.408 352.752C363.04 354.009 364.836 355.037 366.747 355.809C366.747 355.809 365.816 358.976 367.788 360.483C369.759 361.989 380.104 364.492 380.104 364.492C380.104 364.492 402.256 365.644 406.975 365.711L429.282 370.872V344.555C429.282 344.555 410.984 341.166 409.965 339.992C407.75 337.533 396.01 320.786 396.01 320.786C393.579 317.835 391.71 314.464 390.494 310.84C390.067 308.214 389.779 305.566 389.63 302.91Z" fill="#315D80"/>
<path d="M373.578 336.203C371.673 336.413 369.754 336.465 367.84 336.358C365.931 336.399 364.022 336.31 362.125 336.093C364.022 335.881 365.934 335.83 367.84 335.938C369.757 335.884 371.674 335.973 373.578 336.203Z" fill="black"/>
<path d="M375.589 347.656C374.911 347.724 374.228 347.724 373.551 347.656C372.288 347.656 370.538 347.545 368.633 347.39C366.728 347.235 364.978 347.013 363.715 346.836C363.031 346.771 362.356 346.638 361.699 346.437C362.384 346.359 363.075 346.359 363.759 346.437L368.655 346.88L373.551 347.257C374.241 347.322 374.924 347.456 375.589 347.656Z" fill="black"/>
<path d="M374.326 357.071C373.06 357.038 371.803 356.852 370.582 356.518C369.318 356.327 368.077 356 366.883 355.543C368.154 355.59 369.417 355.776 370.649 356.097C371.907 356.285 373.14 356.612 374.326 357.071Z" fill="black"/>
<path d="M478.286 241.037C486.891 245.939 493.406 253.817 496.606 263.189C500.217 273.844 509.764 352.994 510.185 361.655C510.694 372.554 504.182 388.658 493.017 388.991C478.109 389.456 409.438 366.661 409.438 366.661L421.333 338.174L468.251 345.24C468.251 345.24 464.707 315.025 462.913 307.183C459.988 294.335 460.897 244.515 478.286 241.037Z" fill="#C06A87"/>
<path d="M492.438 356.051C492.261 356.051 491.508 354.744 489.869 352.883C487.707 350.481 485.052 348.575 482.085 347.294C479.118 346.013 475.909 345.388 472.679 345.462C470.198 345.462 468.669 345.971 468.625 345.772C469.851 345.082 471.228 344.702 472.635 344.664C476.029 344.336 479.452 344.87 482.585 346.218C485.718 347.566 488.459 349.683 490.556 352.373C491.471 353.429 492.117 354.691 492.438 356.051Z" fill="black"/>
<path d="M447.137 230.094C446.994 230.361 446.815 230.607 446.605 230.825C446.229 231.268 445.719 231.977 444.922 232.797C442.773 235.15 440.399 237.287 437.833 239.176C433.996 242.027 429.831 244.406 425.428 246.265C419.987 248.561 414.241 250.054 408.371 250.696H408.083V250.408C407.928 249.256 407.773 248.015 407.618 246.775C407.108 242.699 406.621 238.756 406.156 234.99L406.599 235.189L393.197 243.031L392.909 243.208V242.876C391.737 237.856 391.296 232.693 391.602 227.547C391.713 225.686 391.912 224.246 392.045 223.271L392.244 222.164C392.236 222.038 392.236 221.913 392.244 221.787C392.244 221.787 392.244 221.92 392.244 222.186C392.244 222.452 392.244 222.828 392.133 223.293C392.023 224.268 391.89 225.708 391.823 227.547C391.614 232.664 392.113 237.785 393.308 242.765L392.953 242.61L406.244 234.702L406.621 234.48V234.923C407.086 238.689 407.596 242.632 408.105 246.708C408.26 247.949 408.393 249.189 408.548 250.341L408.216 250.075C414.04 249.418 419.74 247.926 425.14 245.645C429.51 243.819 433.657 241.5 437.501 238.733C440.077 236.88 442.479 234.796 444.678 232.509C445.498 231.733 446.007 231.047 446.428 230.604L447.137 230.094Z" fill="white"/>
<path d="M282.908 274.156C282.854 273.819 282.854 273.475 282.908 273.137C282.908 272.473 283.129 271.542 283.328 270.368C283.885 267.372 284.625 264.413 285.544 261.507C286.453 258.571 287.54 255.694 288.8 252.89C289.287 251.827 289.708 250.963 290.018 250.387C290.328 249.811 290.528 249.479 290.572 249.501C290.616 249.523 290.063 250.874 289.199 253.045C288.335 255.216 287.161 258.273 286.097 261.685C285.034 265.096 284.259 268.33 283.749 270.545C283.536 271.764 283.255 272.969 282.908 274.156Z" fill="black"/>
<path d="M358.021 245.314C358.176 245.47 355.673 248.106 352.217 252.846C350.193 255.617 348.329 258.501 346.635 261.485C344.606 265.15 342.808 268.938 341.252 272.827C339.749 276.743 338.505 280.754 337.531 284.834C336.746 288.171 336.154 291.551 335.758 294.957C335.094 300.783 335.16 304.438 334.939 304.438C334.762 303.601 334.695 302.745 334.74 301.891C334.667 299.556 334.733 297.218 334.939 294.891C335.227 291.434 335.745 288 336.489 284.612C337.423 280.461 338.652 276.382 340.167 272.406C341.753 268.465 343.611 264.638 345.727 260.954C347.472 257.96 349.418 255.089 351.553 252.359C352.977 250.507 354.509 248.739 356.138 247.064C356.703 246.417 357.334 245.831 358.021 245.314Z" fill="black"/>
<path d="M475.405 249.59C475.405 249.767 473.854 250.542 471.506 252.248C465.35 256.744 461.117 263.397 459.655 270.878C459.101 273.713 459.079 275.552 458.879 275.552C458.561 273.965 458.561 272.332 458.879 270.745C459.393 266.853 460.762 263.124 462.889 259.824C464.988 256.521 467.777 253.71 471.063 251.584C472.362 250.636 473.839 249.958 475.405 249.59Z" fill="black"/>
<path d="M175.199 76.8672C177.774 77.1608 180.374 76.5972 182.597 75.2636C184.819 73.9301 186.54 71.901 187.493 69.4906C188.098 68.0363 188.192 66.4196 187.759 64.9051C187.532 64.1578 187.089 63.4942 186.486 62.9976C185.883 62.5011 185.147 62.1936 184.37 62.114C185.422 61.4172 186.322 60.5141 187.015 59.4593C187.708 58.4046 188.179 57.2202 188.401 55.9778C188.612 54.7318 188.497 53.4523 188.066 52.2643C187.635 51.0763 186.903 50.0203 185.942 49.1993C184.959 48.4037 183.751 47.9354 182.488 47.8599C181.225 47.7845 179.97 48.1056 178.898 48.7784C178.918 47.3984 178.545 46.0413 177.823 44.8648C177.102 43.6883 176.061 42.7409 174.822 42.1328L163.746 44.7025L175.199 76.8672Z" fill="black"/>
<path d="M158.393 192.414L158.548 160.205C158.548 160.205 181.719 156.394 181.83 133.179C181.83 121.97 180.102 98.8877 178.241 77.9983C177.279 67.1741 172.278 57.1084 164.234 49.8026C156.189 42.4968 145.69 38.486 134.823 38.5676H132.608C108.485 40.1847 96.3674 61.5615 98.6269 85.6629L105.959 175.777L136.175 200.477L158.393 192.414Z" fill="#315D80"/>
<path d="M158.545 160.204C148.08 160.666 137.662 158.535 128.219 154.002C128.219 154.002 135.374 168.401 158.501 166.119L158.545 160.204Z" fill="black"/>
<path d="M172.032 100.681C172.044 101.544 171.721 102.378 171.129 103.006C170.538 103.634 169.726 104.008 168.864 104.048C168.442 104.085 168.018 104.036 167.616 103.905C167.213 103.775 166.841 103.565 166.521 103.289C166.201 103.012 165.939 102.674 165.752 102.295C165.565 101.915 165.455 101.502 165.43 101.08C165.412 100.216 165.734 99.3788 166.326 98.7492C166.919 98.1195 167.734 97.7474 168.598 97.7128C169.02 97.6766 169.444 97.7251 169.847 97.8556C170.249 97.9861 170.621 98.1959 170.941 98.4725C171.261 98.7492 171.523 99.0872 171.71 99.4665C171.897 99.8459 172.007 100.259 172.032 100.681Z" fill="black"/>
<path d="M173.338 89.4051C172.939 89.826 170.414 87.9874 166.848 88.0317C163.281 88.076 160.667 89.8703 160.202 89.4494C159.737 89.0285 160.424 88.4747 161.553 87.6329C163.082 86.5356 164.921 85.9537 166.803 85.9715C168.652 85.9458 170.461 86.5125 171.965 87.5886C173.161 88.4304 173.626 89.2057 173.338 89.4051Z" fill="black"/>
<path d="M141.307 100.681C141.32 101.544 140.996 102.378 140.405 103.006C139.814 103.634 139.001 104.008 138.14 104.048C137.718 104.082 137.293 104.031 136.891 103.9C136.488 103.768 136.116 103.559 135.795 103.283C135.473 103.007 135.21 102.67 135.019 102.292C134.829 101.914 134.715 101.502 134.684 101.08C134.672 100.217 134.995 99.3836 135.586 98.7552C136.177 98.1268 136.99 97.753 137.852 97.7129C138.274 97.6766 138.7 97.725 139.104 97.8552C139.507 97.9854 139.881 98.1949 140.203 98.4713C140.525 98.7477 140.788 99.0855 140.978 99.465C141.167 99.8444 141.28 100.258 141.307 100.681Z" fill="black"/>
<path d="M138.295 90.3364C137.874 90.7794 135.349 88.9408 131.782 88.9851C128.216 89.0294 125.624 90.8237 125.137 90.3807C124.649 89.9377 125.358 89.406 126.488 88.5642C128.033 87.4983 129.861 86.9197 131.738 86.9028C133.596 86.8834 135.412 87.4577 136.922 88.5421C138.184 89.3617 138.494 90.137 138.295 90.3364Z" fill="black"/>
<path d="M151.473 116.696C153.358 116.101 155.306 115.729 157.277 115.589C158.185 115.589 159.049 115.301 159.182 114.681C159.265 113.744 159.048 112.805 158.562 112C157.676 109.785 156.767 107.57 155.815 105.089C151.983 95.2311 149.169 87.1456 149.612 86.9905C150.055 86.8355 153.422 94.6994 157.255 104.535C158.163 106.972 159.049 109.275 159.891 111.491C160.472 112.584 160.645 113.848 160.378 115.057C160.255 115.383 160.056 115.676 159.798 115.911C159.54 116.145 159.23 116.316 158.894 116.408C158.396 116.549 157.883 116.623 157.366 116.63C155.412 116.893 153.433 116.915 151.473 116.696Z" fill="black"/>
<path d="M140.975 119.248C141.551 119.248 141.573 123.081 144.918 125.894C148.263 128.707 152.361 128.109 152.405 128.685C152.449 129.261 151.497 129.46 149.747 129.505C147.481 129.569 145.265 128.823 143.5 127.4C141.806 126.036 140.71 124.065 140.443 121.907C140.266 120.201 140.709 119.226 140.975 119.248Z" fill="#FEFEFE"/>
<path d="M139.09 76.3131C138.758 77.2878 135.191 76.8447 131.005 77.3985C126.818 77.9523 123.451 79.1042 122.875 78.2403C122.631 77.8194 123.207 76.9112 124.58 76.0251C126.387 74.8513 128.44 74.1089 130.579 73.8554C132.719 73.6019 134.888 73.844 136.919 74.5631C138.47 75.139 139.245 75.8922 139.09 76.3131Z" fill="black"/>
<path d="M171.945 79.0833C171.325 79.9029 168.866 79.0833 165.897 79.0833C162.929 79.0833 160.448 79.6814 159.872 78.8396C159.628 78.4187 160.005 77.5991 161.09 76.8238C162.556 75.9083 164.258 75.4415 165.986 75.4808C167.714 75.5202 169.392 76.064 170.815 77.0453C171.878 77.865 172.211 78.6846 171.945 79.0833Z" fill="black"/>
<path d="M175.846 67.4567C175.846 67.4567 169.599 52.9692 162.555 49.735C154.049 45.6812 150.46 55.0294 142.352 52.8363C134.245 50.6433 126.115 46.7667 117.985 53.08C108.991 59.9915 113.267 64.7763 112.779 75.077C110.852 116.834 103.321 128.707 100.995 109.058C100.751 106.843 94.7477 105.248 93.7952 96.1436C92.5547 84.3587 91.9787 70.0263 94.5484 61.6307C96.7636 54.5421 100.684 49.6243 107.84 44.197C119.181 35.6242 134.821 35.3362 145.498 36.2888C156.175 37.2413 176.755 49.1591 175.846 67.4567Z" fill="black"/>
<path d="M102.503 108.239C102.464 107.388 102.254 106.553 101.884 105.785C101.514 105.017 100.993 104.332 100.351 103.771C99.7096 103.21 98.961 102.785 98.1506 102.521C97.3402 102.257 96.4847 102.16 95.6358 102.236C91.3162 102.679 86.5313 105.16 86.8858 114.109C87.506 129.97 103.3 126.071 103.323 125.606C103.345 125.141 102.747 114.885 102.503 108.239Z" fill="#315D80"/>
<path d="M99.6181 119.777C99.6181 119.777 99.3523 119.977 98.8871 120.22C98.2414 120.526 97.5017 120.566 96.827 120.331C95.7758 119.724 94.9055 118.848 94.3058 117.793C93.7061 116.738 93.3988 115.541 93.4155 114.328C93.3274 112.969 93.5392 111.608 94.0358 110.34C94.1609 109.836 94.4082 109.37 94.7559 108.984C95.1035 108.597 95.541 108.303 96.0295 108.125C96.3427 108.021 96.6831 108.033 96.9882 108.159C97.2933 108.285 97.5427 108.517 97.6909 108.812C97.9346 109.255 97.846 109.565 97.9124 109.587C97.9789 109.609 98.2447 109.299 98.0896 108.657C97.9948 108.262 97.7584 107.915 97.4251 107.682C96.9791 107.375 96.43 107.255 95.8966 107.35C95.251 107.505 94.6558 107.823 94.1673 108.272C93.6789 108.722 93.3134 109.289 93.1054 109.92C92.4852 111.31 92.2116 112.83 92.3079 114.35C92.5516 117.562 94.3016 120.486 96.7383 120.996C97.1665 121.111 97.6156 121.125 98.05 121.036C98.4845 120.948 98.8924 120.759 99.2415 120.486C99.6181 120.154 99.6846 119.799 99.6181 119.777Z" fill="#6F4439"/>
<path d="M182.998 36.7068C182.169 34.735 180.876 32.9925 179.229 31.6272C177.582 30.262 175.63 29.3144 173.539 28.8649C169.332 28.0147 164.976 28.2588 160.89 29.5738C161.112 23.8143 154.643 19.6275 148.884 20.0263C143.124 20.425 138.118 23.9472 133.377 27.3364C131.56 26.4161 129.577 25.8693 127.545 25.7284C125.513 25.5876 123.473 25.8554 121.546 26.5163C119.62 27.1771 117.845 28.2175 116.327 29.5759C114.809 30.9343 113.579 32.5832 112.709 34.4251C110.568 33.3394 108.178 32.8371 105.78 32.9688C103.382 33.1005 101.062 33.8615 99.0516 35.1753C97.0416 36.4891 95.4132 38.3093 94.3304 40.4526C93.2475 42.5958 92.7484 44.9866 92.8834 47.384C91.0102 47.8166 89.2896 48.7501 87.9057 50.0845C86.5218 51.419 85.5264 53.1044 85.026 54.9606C84.5255 56.8169 84.5388 58.7742 85.0643 60.6235C85.5899 62.4728 86.608 64.1445 88.0099 65.4601C86.7064 66.361 85.7222 67.6523 85.1991 69.1481C84.6761 70.6438 84.641 72.267 85.0991 73.7839C85.5571 75.3009 86.4846 76.6334 87.7481 77.5897C89.0115 78.546 90.5459 79.0768 92.1302 79.1058L103.206 68.4949C104.784 68.6403 106.375 68.4666 107.884 67.9842C109.393 67.5018 110.79 66.7205 111.991 65.687C113.192 64.6535 114.172 63.3888 114.874 61.9684C115.576 60.5479 115.985 59.0007 116.077 57.4189C118.536 58.2327 121.18 58.3099 123.684 57.6408C126.187 56.9717 128.44 55.5857 130.165 53.6531C130.757 55.0991 131.691 56.3793 132.889 57.3828C134.086 58.3863 135.51 59.083 137.037 59.4124C138.564 59.7418 140.148 59.6941 141.653 59.2734C143.158 58.8528 144.537 58.0717 145.672 56.998C145.955 59.136 146.844 61.1483 148.234 62.7972C149.624 64.4461 151.456 65.6627 153.516 66.3033C155.575 66.9439 157.775 66.9817 159.855 66.4123C161.935 65.8429 163.808 64.69 165.254 63.0898C167.31 64.9023 170.002 65.8237 172.738 65.6513C175.474 65.4789 178.029 64.2268 179.841 62.1705C181.654 60.1143 182.575 57.4222 182.403 54.6866C182.23 51.951 180.978 49.3959 178.922 47.5834C180.762 46.5288 182.176 44.8652 182.92 42.8795C183.664 40.8938 183.691 38.7107 182.998 36.7068Z" fill="black"/>
<path d="M115.477 60.1669C115.477 60.1669 115.477 60.6542 115.233 61.4738C114.769 62.6719 114.006 63.7317 113.018 64.553C111.577 65.8703 109.698 66.6046 107.746 66.6131C106.523 66.6115 105.315 66.3476 104.203 65.8394C103.091 65.3311 102.101 64.5903 101.3 63.6669H102.208C101.443 64.8786 100.413 65.9011 99.1952 66.6574C97.9635 67.4571 96.5713 67.9768 95.1168 68.1796C93.6623 68.3825 92.181 68.2637 90.7775 67.8315C88.5014 67.0735 86.5898 65.4937 85.4167 63.4011C84.6457 62.0485 84.2196 60.5269 84.1762 58.9707C84.1388 58.3967 84.2296 57.8216 84.442 57.2871C84.533 59.3212 85.1103 61.3038 86.1256 63.0688C87.2584 64.9167 89.0205 66.2933 91.0876 66.9454C92.3453 67.2911 93.6614 67.3692 94.9511 67.1746C96.2408 66.98 97.4754 66.5171 98.575 65.8156C99.6467 65.1388 100.561 64.2398 101.255 63.1795L101.676 62.515L102.164 63.1131C102.859 63.9263 103.717 64.5849 104.682 65.0466C105.647 65.5082 106.699 65.7626 107.768 65.7935C109.503 65.8324 111.197 65.26 112.553 64.1764C113.808 63.0687 114.806 61.7003 115.477 60.1669Z" fill="#455A64"/>
<path d="M195.78 439.941C194.916 443.419 165.387 622.584 153.957 637.736C142.526 652.888 151.741 795.548 151.741 795.548L112.001 803.035L98.9531 626.727L124.184 422.463L195.78 439.941Z" fill="black"/>
<path d="M183.18 449.908C183.18 454.339 175.227 627.125 152.964 656.033C152.964 656.033 147.227 670.609 147.227 683.59C147.227 696.571 128.641 812.426 128.641 812.426H76.0302C76.0302 812.426 78.2454 679.315 81.4575 643.606C84.6695 607.897 94.4386 602.492 92.2677 576.529C90.0968 550.567 70.6251 476.956 68.4542 447.737C67.3411 429.169 69.1956 410.541 73.9479 392.557L183.18 449.908Z" fill="black"/>
<path d="M183.181 449.907L181.32 448.888L175.849 445.942L154.406 434.578L73.9495 392.245L73.5508 392.023L73.44 392.467C70.4865 403.659 68.639 415.115 67.9242 426.669C67.5357 432.91 67.5357 439.169 67.9242 445.41C68.3469 451.931 69.1308 458.425 70.2723 464.859C74.7027 491.154 81.3483 519.22 87.3736 549.237C88.8135 556.746 90.2756 564.389 91.2724 572.164C92.402 580.011 92.2899 587.988 90.9401 595.8C89.4559 603.686 86.6648 611.417 84.804 619.481C82.8699 627.633 81.5518 635.919 80.8609 644.269C79.5318 661.127 78.9559 678.316 78.3135 695.794C77.6711 713.272 77.228 731.038 76.8071 748.959C76.3641 770.462 75.9284 791.595 75.5001 812.359V812.89H129.108V812.447C133.649 783.96 137.969 756.491 141.779 730.263C143.662 717.149 145.545 704.367 146.963 691.851C147.14 690.301 147.295 688.728 147.45 687.177C147.605 685.627 147.672 684.01 147.694 682.481C147.781 679.435 148.092 676.399 148.624 673.399C149.671 667.508 151.25 661.725 153.342 656.12V656.231C154.503 654.606 155.526 652.887 156.399 651.092C157.298 649.347 158.089 647.549 158.77 645.709C160.187 642.098 161.317 638.421 162.358 634.766C164.374 627.455 165.947 620.234 167.32 613.145C170.023 598.99 171.906 585.477 173.523 572.784C176.669 547.398 178.551 525.224 179.947 507.015C181.343 488.806 182.162 474.496 182.627 464.749C182.849 459.897 183.004 456.176 183.115 453.673C183.115 452.432 183.115 451.457 183.115 450.837V449.862C183.115 450.771 182.805 455.268 182.273 464.771C181.741 474.274 180.789 488.784 179.349 506.993C177.909 525.202 175.915 547.354 172.703 572.718C171.064 585.411 169.137 598.901 166.434 613.012C165.061 620.079 163.466 627.278 161.428 634.544C160.409 638.177 159.213 641.832 157.861 645.421C157.175 647.227 156.391 648.994 155.513 650.715C154.658 652.46 153.665 654.134 152.545 655.721C150.417 661.373 148.816 667.209 147.76 673.155C147.211 676.199 146.885 679.279 146.785 682.37C146.785 683.965 146.63 685.449 146.564 687C146.497 688.551 146.232 690.101 146.077 691.652C144.615 704.124 142.732 716.928 140.827 730.019C136.95 756.247 132.675 783.716 128.111 812.181L128.643 811.738H76.0318L76.5856 812.292C76.9991 791.617 77.4348 770.491 77.8926 748.915C78.3356 730.928 78.8008 713.162 79.3989 695.75C79.997 678.339 80.5951 661.127 81.9243 644.38C82.6077 636.083 83.911 627.849 85.823 619.747C87.6616 611.705 90.475 603.996 91.9591 596C93.3193 588.076 93.4314 579.989 92.2914 572.031C91.2724 564.211 89.8104 556.525 88.3483 549.059C82.3673 519.021 75.5888 490.954 71.1362 464.704C69.9986 458.298 69.2073 451.835 68.7659 445.343C68.389 439.139 68.389 432.918 68.7659 426.714C69.4651 415.217 71.2752 403.814 74.171 392.666L73.6615 392.887L154.007 434.843L175.605 446.052L181.188 448.954C182.495 449.597 183.181 449.907 183.181 449.907Z" fill="black"/>
<path d="M221.982 374.082H169.459C164.125 374.082 159.801 378.406 159.801 383.74V455.048C159.801 460.382 164.125 464.706 169.459 464.706H221.982C227.316 464.706 231.64 460.382 231.64 455.048V383.74C231.64 378.406 227.316 374.082 221.982 374.082Z" fill="#F27481"/>
<path d="M158.383 192.414C166.87 199.625 173.675 208.608 178.32 218.731C187.867 239.288 202.2 338.108 202.82 348.785C203.44 359.463 206.276 433.473 206.276 433.473L189.617 438.435L158.383 192.414Z" fill="#6B5E7A"/>
<path opacity="0.3" d="M158.383 192.414C166.87 199.625 173.675 208.608 178.32 218.731C187.867 239.288 202.2 338.108 202.82 348.785C203.44 359.463 206.276 433.473 206.276 433.473L189.617 438.435L158.383 192.414Z" fill="black"/>
<path d="M172.627 213.811L161.861 195.868L160.421 180.074C160.421 180.074 138.025 165.985 127.392 160.668C119.276 156.825 110.948 153.445 102.449 150.545V165.453L189.551 294.267L183.924 246.884C182.544 235.184 178.693 223.911 172.627 213.811Z" fill="#F1D15B"/>
<path d="M78.9274 346.924C78.9274 346.924 63.9083 250.186 63.4209 243.43C63.4209 243.43 56.3987 221.854 64.4842 203.379C72.5697 184.904 99.6396 165.587 99.6396 165.587L101.301 155.885L136.744 179.632L153.07 194.784C158.735 201.2 163.918 208.027 168.577 215.208C174.34 223.22 178.444 232.303 180.65 241.923C181.491 245.955 191.216 294.313 191.504 328.028C191.504 328.028 193.01 357.424 194.605 374.082C196.577 394.706 195.713 449.289 195.071 477.134L84.3103 465.814L56 461.206L78.9274 346.924Z" fill="#6B5E7A"/>
<path d="M102.449 165.455L103.247 165.832L105.595 166.806C106.592 167.272 107.81 167.914 109.228 168.667C110.645 169.42 112.218 170.373 113.924 171.591C123.298 178.204 131.76 186.025 139.089 194.851L150.165 196.867L149.921 196.601C150.098 201.696 150.276 207.057 150.475 212.617V212.728C156.32 218.203 161.727 224.129 166.646 230.449C168.692 233.103 170.543 235.901 172.184 238.823L172.782 239.908L173.247 241.038C173.567 241.758 173.841 242.498 174.067 243.253C174.554 244.804 175.042 246.354 175.44 247.905C177.146 254.085 178.542 260.133 179.871 265.892C182.485 277.412 184.655 287.823 186.516 296.573C190.105 314.073 192.143 324.928 192.143 324.928C192.102 324.259 192.021 323.593 191.899 322.934C191.7 321.649 191.368 319.722 190.924 317.263C190.038 312.345 188.709 305.257 186.959 296.484C185.209 287.712 183.083 277.301 180.513 265.76C179.206 260 177.81 253.953 176.083 247.728C175.684 246.177 175.197 244.626 174.709 243.054C174.472 242.256 174.191 241.472 173.867 240.706L173.38 239.554L172.782 238.446C171.124 235.504 169.258 232.684 167.2 230.006C162.254 223.681 156.817 217.755 150.94 212.285V212.506C150.741 206.946 150.563 201.585 150.364 196.49V196.246H150.143L139.067 194.253H139.244C131.852 185.416 123.297 177.622 113.813 171.082C112.108 169.885 110.468 169.022 109.073 168.202C107.677 167.382 106.392 166.873 105.395 166.408L103.003 165.499L102.449 165.455Z" fill="white"/>
<path d="M194.934 365.313C194.934 365.313 194.934 365.313 194.934 365.025C194.934 364.737 194.934 364.494 194.934 364.139C194.934 363.319 194.823 362.212 194.757 360.794C194.579 357.848 194.314 353.661 193.981 348.5C193.272 338.11 192.276 323.778 190.88 307.962C189.484 292.145 187.867 277.857 186.45 267.534C185.785 262.373 185.231 258.208 184.81 255.328C184.589 253.911 184.434 252.825 184.323 252.005L184.168 251.142V250.854C184.168 250.854 184.168 250.964 184.168 251.164C184.168 251.363 184.168 251.673 184.168 252.028C184.168 252.825 184.389 253.955 184.545 255.35C184.899 258.297 185.386 262.461 185.984 267.578C187.181 277.923 188.731 292.211 190.127 308.028C191.522 323.845 192.608 338.155 193.428 348.522C193.826 353.683 194.159 357.87 194.402 360.816C194.535 362.234 194.624 363.342 194.69 364.161C194.69 364.494 194.69 364.781 194.69 365.025C194.764 365.127 194.845 365.224 194.934 365.313Z" fill="black"/>
<path d="M243.339 185.37C243.339 185.37 236.295 179.921 235.785 176.62C235.276 173.32 235.918 169.975 234.833 168.025C233.747 166.076 238.554 164.902 241.08 168.025C243.605 171.149 245.643 173.275 245.643 173.275C245.643 173.275 247.991 156.949 249.099 152.231C250.206 147.513 251.934 135.772 252.355 131.873C252.776 127.974 253.861 122.414 256.099 122.392C258.336 122.37 256.697 122.392 256.697 122.392C256.697 122.392 259.289 122.591 258.912 124.851C258.912 124.851 259.82 113.775 265.137 114.129C265.137 114.129 268.437 114.129 268.039 119.402C267.64 124.674 266.798 131.563 266.798 131.563L270.143 118.671C270.143 118.671 270.453 114.639 273.998 115.193C277.542 115.747 277.121 118.914 276.479 124.341C275.836 129.769 273.798 142.44 273.798 142.44C273.798 142.44 278.229 125.981 280.156 124.718C282.083 123.455 285.317 123.345 284.343 129.392C283.368 135.44 280.843 148.421 280.843 148.421C280.843 148.421 280.444 169.199 279.58 173.696C278.716 178.193 265.713 206.437 265.713 206.437L241.678 193.146C241.678 193.146 245.931 188.206 245.577 187.851C245.222 187.497 243.339 185.37 243.339 185.37Z" fill="#36658B"/>
<path d="M245.424 173.074C245.437 174.275 245.356 175.475 245.18 176.663C245.205 177.87 245.138 179.077 244.981 180.274C244.53 179.119 244.385 177.868 244.56 176.641C244.528 175.396 244.826 174.166 245.424 173.074Z" fill="white"/>
<path d="M255.587 147.069C255.455 145.891 255.455 144.703 255.587 143.525C255.72 141.31 255.985 138.341 256.495 135.063C257.004 131.784 257.647 128.816 258.178 126.712C258.429 125.554 258.777 124.42 259.22 123.322C259.111 124.495 258.911 125.658 258.621 126.8C258.201 129.015 257.625 131.873 257.115 135.151C256.606 138.43 256.251 141.398 256.03 143.569C255.963 144.745 255.815 145.914 255.587 147.069Z" fill="black"/>
<path d="M264.251 146.934C264.13 145.993 264.13 145.04 264.251 144.099C264.251 142.349 264.606 139.956 265.027 137.32C265.403 135.082 265.891 132.864 266.489 130.675C266.675 129.746 266.981 128.845 267.397 127.994C267.326 128.938 267.163 129.873 266.91 130.785C266.555 132.491 266.09 134.839 265.647 137.431C265.204 140.023 264.916 142.415 264.694 144.077C264.644 145.042 264.496 145.999 264.251 146.934Z" fill="black"/>
<path d="M272.734 149.571C272.574 147.875 272.724 146.163 273.177 144.521C273.415 142.831 273.948 141.197 274.75 139.691C274.547 141.36 274.221 143.011 273.775 144.631C273.545 146.3 273.197 147.951 272.734 149.571Z" fill="white"/>
<path d="M92.0209 260.733C101.28 267.378 165.455 299.056 197.598 296.641C229.74 294.227 268.883 206.859 268.883 206.859L237.87 189.78L229.829 198.641L186.056 246.157C186.056 246.157 137.787 211.777 127.464 205.596C117.141 199.416 97.0716 173.432 73.0144 194.764C48.9573 216.096 71.7296 246.29 92.0209 260.733Z" fill="#6B5E7A"/>
<path d="M92.0243 260.733C90.8581 259.991 89.734 259.185 88.6571 258.318C85.5177 255.89 82.5565 253.24 79.7963 250.388C75.2777 245.872 71.3681 240.786 68.1665 235.258C66.1508 231.784 64.6016 228.06 63.5589 224.182C62.3476 219.769 62.1807 215.135 63.0715 210.647C64.9544 201.077 72.9292 192.46 83.3407 187.941C88.9312 185.732 95.1234 185.575 100.819 187.498C106.764 189.62 112.279 192.794 117.1 196.868C119.67 198.84 122.151 200.966 124.743 202.96C127.335 204.954 130.281 206.593 133.094 208.498C138.743 212.242 144.48 216.185 150.306 220.239C161.98 228.324 174.098 236.853 186.569 245.714H185.838L229.478 198.153L237.519 189.292L237.829 188.96L238.228 189.182L269.241 206.283L269.706 206.527L269.484 207.014C262.842 221.466 255.364 235.52 247.089 249.103C239.678 261.741 230.8 273.46 220.639 284.014C215.927 288.955 210.28 292.908 204.025 295.644C200.945 296.781 197.669 297.293 194.389 297.151C191.256 297.181 188.126 296.995 185.019 296.597C173.812 294.91 162.796 292.143 152.123 288.334C136.828 282.985 121.889 276.666 107.398 269.416C102.325 266.824 98.537 264.764 95.9009 263.214C94.5756 262.483 93.3025 261.661 92.0907 260.755C92.0907 260.755 92.4451 260.932 93.0875 261.331C93.73 261.729 94.6825 262.328 96.0116 263.036C98.5813 264.521 102.502 266.536 107.575 269.062C122.113 276.157 137.071 282.357 152.366 287.625C162.979 291.322 173.92 294 185.041 295.622C188.112 296.001 191.205 296.179 194.3 296.154C197.467 296.267 200.625 295.77 203.604 294.692C209.731 291.972 215.264 288.073 219.886 283.217C229.95 272.688 238.746 261.015 246.092 248.438C254.327 234.927 261.768 220.948 268.377 206.571L268.62 207.302L237.608 190.223L238.294 190.09L230.253 198.951L186.481 246.467L186.148 246.821L185.75 246.533C173.278 237.672 161.183 229.122 149.531 221.014C143.705 216.96 137.99 213.017 132.341 209.251C129.572 207.346 126.626 205.751 123.968 203.669C121.309 201.587 118.873 199.504 116.325 197.555C111.601 193.529 106.191 190.385 100.353 188.273C94.8599 186.395 88.8778 186.528 83.4736 188.65C73.3279 193.08 65.4418 201.454 63.5367 210.802C62.6488 215.205 62.7928 219.755 63.9576 224.093C64.9492 227.961 66.4384 231.684 68.388 235.169C71.5313 240.69 75.373 245.783 79.8185 250.321C82.5885 253.197 85.5488 255.884 88.6793 258.362C89.7426 259.226 90.5622 259.847 91.116 260.267C91.6698 260.688 92.0243 260.733 92.0243 260.733Z" fill="black"/>
<path d="M108.256 385.756L99.6836 406.579L167.137 411.12L168.599 390.275L108.256 385.756Z" fill="#6B5E7A"/>
<path d="M108.257 385.756H109.364L112.665 385.933L125.159 386.708L168.643 389.721H169.175V390.275C168.71 396.921 168.222 403.854 167.735 411.12V411.696H167.159L162.729 411.408L99.6397 406.977H99.0859L99.3074 406.468L105.82 391.161L107.592 387.129C107.766 386.668 107.981 386.223 108.235 385.8C108.098 386.316 107.92 386.819 107.703 387.307L106.108 391.493C104.624 395.17 102.586 400.354 100.016 406.778L99.684 406.247L162.817 410.3L167.248 410.588L166.628 411.12C167.137 403.854 167.646 396.832 168.112 390.275L168.621 390.873L125.491 387.395L112.909 386.287L109.52 385.977C109.094 385.935 108.672 385.861 108.257 385.756Z" fill="black"/>
<g filter="url(#filter0_i_2215_2510)">
<path d="M0 40C0 17.9086 17.9086 0 40 0H548C570.091 0 588 17.9086 588 40V520H0V40Z" fill="url(#paint0_linear_2215_2510)" fill-opacity="0.14"/>
</g>
</g>
<defs>
<filter id="filter0_i_2215_2510" x="0" y="0" width="592" height="525" filterUnits="userSpaceOnUse" color-interpolation-filters="sRGB">
<feFlood flood-opacity="0" result="BackgroundImageFix"/>
<feBlend mode="normal" in="SourceGraphic" in2="BackgroundImageFix" result="shape"/>
<feColorMatrix in="SourceAlpha" type="matrix" values="0 0 0 0 0 0 0 0 0 0 0 0 0 0 0 0 0 0 127 0" result="hardAlpha"/>
<feOffset dx="4" dy="5"/>
<feGaussianBlur stdDeviation="2.5"/>
<feComposite in2="hardAlpha" operator="arithmetic" k2="-1" k3="1"/>
<feColorMatrix type="matrix" values="0 0 0 0 0.816667 0 0 0 0 0.885259 0 0 0 0 1 0 0 0 0.1 0"/>
<feBlend mode="normal" in2="shape" result="effect1_innerShadow_2215_2510"/>
</filter>
<linearGradient id="paint0_linear_2215_2510" x1="385.099" y1="-308.475" x2="385.099" y2="570.422" gradientUnits="userSpaceOnUse">
<stop offset="0.224084" stop-color="#AACAFF"/>
<stop offset="0.699839" stop-color="#94A5C2"/>
<stop offset="0.990578" stop-color="#94A5C2" stop-opacity="0.25"/>
</linearGradient>
</defs>
</svg>
