<svg width="1920" height="816" viewBox="0 0 1920 816" fill="none" xmlns="http://www.w3.org/2000/svg">
<path d="M-270 100C-270 44.7716 -225.228 0.000125024 -170 0.000125024H128.076C147.577 0.000125024 166.575 6.18585 182.337 17.6674C198.1 29.1489 217.098 35.3347 236.599 35.3347H1023.5H1650.9C1669.51 35.3347 1687.76 30.1392 1703.58 20.333L1712.18 15.0016C1728.01 5.19548 1746.25 2.86337e-06 1764.86 8.26782e-06L2067 9.59897e-05C2122.23 0.000112025 2167 44.7716 2167 100V716C2167 771.229 2122.23 816 2067 816H1765.46C1746.47 816 1727.88 810.595 1711.85 800.418L1703.92 795.38C1687.89 785.202 1669.29 779.798 1650.31 779.798H236.857C217.208 779.798 198.085 786.147 182.337 797.899C166.59 809.651 147.467 816 127.818 816H-170C-225.229 816 -270 771.228 -270 716V100Z" fill="#376990" fill-opacity="0.25"/>
</svg>
